<svg xmlns="http://www.w3.org/2000/svg" xmlns:xlink="http://www.w3.org/1999/xlink" contentStyleType="text/css" data-diagram-type="CLASS" height="557px" preserveAspectRatio="none" style="width:1379px;height:557px;background:#FFFFFF;" version="1.1" viewBox="0 0 1379 557" width="1379px" zoomAndPan="magnify"><defs/><g><!--cluster org--><g id="cluster_org"><path d="M8.5,6 L32.0518,6 A3.75,3.75 0 0 1 34.5518,8.5 L41.5518,29.6094 L1369.5,29.6094 A2.5,2.5 0 0 1 1372,32.1094 L1372,547.5 A2.5,2.5 0 0 1 1369.5,550 L8.5,550 A2.5,2.5 0 0 1 6,547.5 L6,8.5 A2.5,2.5 0 0 1 8.5,6 " fill="transparent" style="stroke:#000000;stroke-width:1.5;"/><line style="stroke:#000000;stroke-width:1.5;" x1="6" x2="41.5518" y1="29.6094" y2="29.6094"/><text fill="#000000" font-family="sans-serif" font-size="14" font-weight="bold" lengthAdjust="spacing" textLength="22.5518" x="10" y="22.5332">org</text></g><!--cluster requestedTest--><g id="cluster_requestedTest"><path d="M32.5,50 L129.1963,50 A3.75,3.75 0 0 1 131.6963,52.5 L138.6963,73.6094 L1345.5,73.6094 A2.5,2.5 0 0 1 1348,76.1094 L1348,523.5 A2.5,2.5 0 0 1 1345.5,526 L32.5,526 A2.5,2.5 0 0 1 30,523.5 L30,52.5 A2.5,2.5 0 0 1 32.5,50 " fill="transparent" style="stroke:#000000;stroke-width:1.5;"/><line style="stroke:#000000;stroke-width:1.5;" x1="30" x2="138.6963" y1="73.6094" y2="73.6094"/><text fill="#000000" font-family="sans-serif" font-size="14" font-weight="bold" lengthAdjust="spacing" textLength="95.6963" x="34" y="66.5332">requestedTest</text></g><!--class DecryptionInputStream--><g id="elem_DecryptionInputStream"><rect codeLine="2" fill="#F1F1F1" height="100.8281" id="DecryptionInputStream" rx="2.5" ry="2.5" style="stroke:#181818;stroke-width:0.5;" width="495.2188" x="46.5" y="247.5"/><ellipse cx="218.27" cy="263.5" fill="#ADD1B2" rx="11" ry="11" style="stroke:#181818;stroke-width:1;"/><path d="M221.0356,259.375 Q221.1919,259.1563 221.3794,259.0469 Q221.5669,258.9375 221.7856,258.9375 Q222.1606,258.9375 222.395,259.2031 Q222.6294,259.4531 222.6294,260.0625 L222.6294,261.5156 Q222.6294,262.125 222.395,262.3906 Q222.1606,262.6563 221.7856,262.6563 Q221.4419,262.6563 221.2388,262.4531 Q221.0356,262.2656 220.9263,261.75 Q220.8794,261.3906 220.6919,261.2031 Q220.3638,260.8281 219.7544,260.6094 Q219.145,260.3906 218.52,260.3906 Q217.7544,260.3906 217.1138,260.7188 Q216.4888,261.0469 215.9888,261.7969 Q215.5044,262.5469 215.5044,263.5781 L215.5044,264.6719 Q215.5044,265.9063 216.395,266.7344 Q217.2856,267.5469 218.8794,267.5469 Q219.8169,267.5469 220.4731,267.2969 Q220.8638,267.1406 221.2856,266.7031 Q221.5513,266.4375 221.6919,266.3594 Q221.8481,266.2813 222.0513,266.2813 Q222.3794,266.2813 222.6294,266.5469 Q222.895,266.7969 222.895,267.1406 Q222.895,267.4844 222.5513,267.8906 Q222.0513,268.4688 221.2544,268.7969 Q220.1763,269.25 218.8794,269.25 Q217.3638,269.25 216.1606,268.625 Q215.1763,268.125 214.4888,267.0625 Q213.8013,265.9844 213.8013,264.7031 L213.8013,263.5469 Q213.8013,262.2188 214.4106,261.0781 Q215.0356,259.9219 216.1294,259.3125 Q217.2231,258.6875 218.4575,258.6875 Q219.1919,258.6875 219.8325,258.8594 Q220.4888,259.0156 221.0356,259.375 Z " fill="#000000"/><text fill="#000000" font-family="sans-serif" font-size="14" lengthAdjust="spacing" textLength="143.1787" x="238.77" y="269.2285">DecryptionInputStream</text><line style="stroke:#181818;stroke-width:0.5;" x1="47.5" x2="540.7188" y1="279.5" y2="279.5"/><line style="stroke:#181818;stroke-width:0.5;" x1="47.5" x2="540.7188" y1="287.5" y2="287.5"/><ellipse cx="57.5" cy="301.8047" fill="#84BE84" rx="3" ry="3" style="stroke:#038048;stroke-width:1;"/><text fill="#000000" font-family="sans-serif" font-size="14" lengthAdjust="spacing" textLength="469.2188" x="66.5" y="306.0332">DecryptionInputStream(java/io/InputStream, org/requestedTest/IDecryption)</text><ellipse cx="57.5" cy="319.4141" fill="#84BE84" rx="3" ry="3" style="stroke:#038048;stroke-width:1;"/><text fill="#000000" font-family="sans-serif" font-size="14" lengthAdjust="spacing" textLength="60.6895" x="66.5" y="323.6426">read(): Int</text><ellipse cx="57.5" cy="337.0234" fill="#84BE84" rx="3" ry="3" style="stroke:#038048;stroke-width:1;"/><text fill="#000000" font-family="sans-serif" font-size="14" lengthAdjust="spacing" textLength="143.1719" x="66.5" y="341.252">read(Byte[], Int, Int): Int</text></g><!--class IDecryption--><g id="elem_IDecryption"><rect codeLine="17" fill="#F1F1F1" height="65.6094" id="IDecryption" rx="2.5" ry="2.5" style="stroke:#181818;stroke-width:0.5;" width="149.7031" x="352" y="444"/><ellipse cx="388.1034" cy="460" fill="#B4A7E5" rx="11" ry="11" style="stroke:#181818;stroke-width:1;"/><path d="M389.0565,456.6406 L389.0565,463.2969 L390.7753,463.2969 Q391.3847,463.2969 391.6503,463.5313 Q391.9159,463.7656 391.9159,464.1563 Q391.9159,464.5313 391.6503,464.7656 Q391.3847,465 390.7753,465 L385.6347,465 Q385.0253,465 384.7597,464.7656 Q384.494,464.5313 384.494,464.1406 Q384.494,463.7656 384.7597,463.5313 Q385.0253,463.2969 385.6347,463.2969 L387.3534,463.2969 L387.3534,456.6406 L385.6347,456.6406 Q385.0253,456.6406 384.7597,456.4063 Q384.494,456.1719 384.494,455.7813 Q384.494,455.4063 384.7597,455.1719 Q385.0253,454.9375 385.6347,454.9375 L390.7753,454.9375 Q391.3847,454.9375 391.6503,455.1719 Q391.9159,455.4063 391.9159,455.7813 Q391.9159,456.1719 391.6503,456.4063 Q391.3847,456.6406 390.7753,456.6406 L389.0565,456.6406 Z " fill="#000000"/><text fill="#000000" font-family="sans-serif" font-size="14" font-style="italic" lengthAdjust="spacing" textLength="70.8066" x="406.7931" y="465.7285">IDecryption</text><line style="stroke:#181818;stroke-width:0.5;" x1="353" x2="500.7031" y1="476" y2="476"/><line style="stroke:#181818;stroke-width:0.5;" x1="353" x2="500.7031" y1="484" y2="484"/><polygon fill="#4177AF" points="363,494.3047,359,500.3047,367,500.3047" style="stroke:#1963A0;stroke-width:1;"/><text fill="#000000" font-family="sans-serif" font-size="14" font-style="italic" lengthAdjust="spacing" textLength="123.7031" x="372" y="502.5332">decrypt(Char): Char</text></g><!--class EncryptionOutputStream--><g id="elem_EncryptionOutputStream"><rect codeLine="10" fill="#F1F1F1" height="83.2188" id="EncryptionOutputStream" rx="2.5" ry="2.5" style="stroke:#181818;stroke-width:0.5;" width="515.4531" x="798.5" y="256.5"/><ellipse cx="975.3286" cy="272.5" fill="#ADD1B2" rx="11" ry="11" style="stroke:#181818;stroke-width:1;"/><path d="M978.0942,268.375 Q978.2505,268.1563 978.438,268.0469 Q978.6255,267.9375 978.8442,267.9375 Q979.2192,267.9375 979.4536,268.2031 Q979.688,268.4531 979.688,269.0625 L979.688,270.5156 Q979.688,271.125 979.4536,271.3906 Q979.2192,271.6563 978.8442,271.6563 Q978.5005,271.6563 978.2974,271.4531 Q978.0942,271.2656 977.9849,270.75 Q977.938,270.3906 977.7505,270.2031 Q977.4224,269.8281 976.813,269.6094 Q976.2036,269.3906 975.5786,269.3906 Q974.813,269.3906 974.1724,269.7188 Q973.5474,270.0469 973.0474,270.7969 Q972.563,271.5469 972.563,272.5781 L972.563,273.6719 Q972.563,274.9063 973.4536,275.7344 Q974.3442,276.5469 975.938,276.5469 Q976.8755,276.5469 977.5317,276.2969 Q977.9224,276.1406 978.3442,275.7031 Q978.6099,275.4375 978.7505,275.3594 Q978.9067,275.2813 979.1099,275.2813 Q979.438,275.2813 979.688,275.5469 Q979.9536,275.7969 979.9536,276.1406 Q979.9536,276.4844 979.6099,276.8906 Q979.1099,277.4688 978.313,277.7969 Q977.2349,278.25 975.938,278.25 Q974.4224,278.25 973.2192,277.625 Q972.2349,277.125 971.5474,276.0625 Q970.8599,274.9844 970.8599,273.7031 L970.8599,272.5469 Q970.8599,271.2188 971.4692,270.0781 Q972.0942,268.9219 973.188,268.3125 Q974.2817,267.6875 975.5161,267.6875 Q976.2505,267.6875 976.8911,267.8594 Q977.5474,268.0156 978.0942,268.375 Z " fill="#000000"/><text fill="#000000" font-family="sans-serif" font-size="14" lengthAdjust="spacing" textLength="153.2959" x="995.8286" y="278.2285">EncryptionOutputStream</text><line style="stroke:#181818;stroke-width:0.5;" x1="799.5" x2="1312.9531" y1="288.5" y2="288.5"/><line style="stroke:#181818;stroke-width:0.5;" x1="799.5" x2="1312.9531" y1="296.5" y2="296.5"/><ellipse cx="809.5" cy="310.8047" fill="#84BE84" rx="3" ry="3" style="stroke:#038048;stroke-width:1;"/><text fill="#000000" font-family="sans-serif" font-size="14" lengthAdjust="spacing" textLength="489.4531" x="818.5" y="315.0332">EncryptionOutputStream(java/io/OutputStream, org/requestedTest/IEncryption)</text><ellipse cx="809.5" cy="328.4141" fill="#84BE84" rx="3" ry="3" style="stroke:#038048;stroke-width:1;"/><text fill="#000000" font-family="sans-serif" font-size="14" lengthAdjust="spacing" textLength="90.248" x="818.5" y="332.6426">write(Int): Void</text></g><!--class IEncryption--><g id="elem_IEncryption"><rect codeLine="21" fill="#F1F1F1" height="65.6094" id="IEncryption" rx="2.5" ry="2.5" style="stroke:#181818;stroke-width:0.5;" width="149.7031" x="670" y="444"/><ellipse cx="706.451" cy="460" fill="#B4A7E5" rx="11" ry="11" style="stroke:#181818;stroke-width:1;"/><path d="M707.4042,456.6406 L707.4042,463.2969 L709.1229,463.2969 Q709.7323,463.2969 709.9979,463.5313 Q710.2635,463.7656 710.2635,464.1563 Q710.2635,464.5313 709.9979,464.7656 Q709.7323,465 709.1229,465 L703.9823,465 Q703.3729,465 703.1073,464.7656 Q702.8417,464.5313 702.8417,464.1406 Q702.8417,463.7656 703.1073,463.5313 Q703.3729,463.2969 703.9823,463.2969 L705.701,463.2969 L705.701,456.6406 L703.9823,456.6406 Q703.3729,456.6406 703.1073,456.4063 Q702.8417,456.1719 702.8417,455.7813 Q702.8417,455.4063 703.1073,455.1719 Q703.3729,454.9375 703.9823,454.9375 L709.1229,454.9375 Q709.7323,454.9375 709.9979,455.1719 Q710.2635,455.4063 710.2635,455.7813 Q710.2635,456.1719 709.9979,456.4063 Q709.7323,456.6406 709.1229,456.6406 L707.4042,456.6406 Z " fill="#000000"/><text fill="#000000" font-family="sans-serif" font-size="14" font-style="italic" lengthAdjust="spacing" textLength="70.0342" x="725.2179" y="465.7285">IEncryption</text><line style="stroke:#181818;stroke-width:0.5;" x1="671" x2="818.7031" y1="476" y2="476"/><line style="stroke:#181818;stroke-width:0.5;" x1="671" x2="818.7031" y1="484" y2="484"/><polygon fill="#4177AF" points="681,494.3047,677,500.3047,685,500.3047" style="stroke:#1963A0;stroke-width:1;"/><text fill="#000000" font-family="sans-serif" font-size="14" font-style="italic" lengthAdjust="spacing" textLength="123.7031" x="690" y="502.5332">encrypt(Char): Char</text></g><!--class SubstitutionCipher--><g id="elem_SubstitutionCipher"><rect codeLine="25" fill="#F1F1F1" height="136.0469" id="SubstitutionCipher" rx="2.5" ry="2.5" style="stroke:#181818;stroke-width:0.5;" width="149.7236" x="595" y="230"/><ellipse cx="611.4959" cy="246" fill="#ADD1B2" rx="11" ry="11" style="stroke:#181818;stroke-width:1;"/><path d="M614.2615,241.875 Q614.4178,241.6563 614.6053,241.5469 Q614.7928,241.4375 615.0115,241.4375 Q615.3865,241.4375 615.6209,241.7031 Q615.8553,241.9531 615.8553,242.5625 L615.8553,244.0156 Q615.8553,244.625 615.6209,244.8906 Q615.3865,245.1563 615.0115,245.1563 Q614.6678,245.1563 614.4646,244.9531 Q614.2615,244.7656 614.1521,244.25 Q614.1053,243.8906 613.9178,243.7031 Q613.5896,243.3281 612.9803,243.1094 Q612.3709,242.8906 611.7459,242.8906 Q610.9803,242.8906 610.3396,243.2188 Q609.7146,243.5469 609.2146,244.2969 Q608.7303,245.0469 608.7303,246.0781 L608.7303,247.1719 Q608.7303,248.4063 609.6209,249.2344 Q610.5115,250.0469 612.1053,250.0469 Q613.0428,250.0469 613.699,249.7969 Q614.0896,249.6406 614.5115,249.2031 Q614.7771,248.9375 614.9178,248.8594 Q615.074,248.7813 615.2771,248.7813 Q615.6053,248.7813 615.8553,249.0469 Q616.1209,249.2969 616.1209,249.6406 Q616.1209,249.9844 615.7771,250.3906 Q615.2771,250.9688 614.4803,251.2969 Q613.4021,251.75 612.1053,251.75 Q610.5896,251.75 609.3865,251.125 Q608.4021,250.625 607.7146,249.5625 Q607.0271,248.4844 607.0271,247.2031 L607.0271,246.0469 Q607.0271,244.7188 607.6365,243.5781 Q608.2615,242.4219 609.3553,241.8125 Q610.449,241.1875 611.6834,241.1875 Q612.4178,241.1875 613.0584,241.3594 Q613.7146,241.5156 614.2615,241.875 Z " fill="#000000"/><text fill="#000000" font-family="sans-serif" font-size="14" lengthAdjust="spacing" textLength="114.3994" x="625.8283" y="251.7285">SubstitutionCipher</text><line style="stroke:#181818;stroke-width:0.5;" x1="596" x2="743.7236" y1="262" y2="262"/><text fill="#000000" font-family="sans-serif" font-size="14" lengthAdjust="spacing" textLength="134.6201" x="601" y="280.5332">encryptionKey: Char[]</text><text fill="#000000" font-family="sans-serif" font-size="14" lengthAdjust="spacing" textLength="134.6201" x="601" y="298.1426">decryptionKey: Char[]</text><line style="stroke:#181818;stroke-width:0.5;" x1="596" x2="743.7236" y1="305.2188" y2="305.2188"/><ellipse cx="606" cy="319.5234" fill="#84BE84" rx="3" ry="3" style="stroke:#038048;stroke-width:1;"/><text fill="#000000" font-family="sans-serif" font-size="14" lengthAdjust="spacing" textLength="123.7236" x="615" y="323.752">SubstitutionCipher()</text><ellipse cx="606" cy="337.1328" fill="#84BE84" rx="3" ry="3" style="stroke:#038048;stroke-width:1;"/><text fill="#000000" font-family="sans-serif" font-size="14" lengthAdjust="spacing" textLength="123.7031" x="615" y="341.3613">encrypt(Char): Char</text><ellipse cx="606" cy="354.7422" fill="#84BE84" rx="3" ry="3" style="stroke:#038048;stroke-width:1;"/><text fill="#000000" font-family="sans-serif" font-size="14" lengthAdjust="spacing" textLength="123.7031" x="615" y="358.9707">decrypt(Char): Char</text></g><!--class TextEditorApp--><g id="elem_TextEditorApp"><rect codeLine="36" fill="#F1F1F1" height="83.2188" id="TextEditorApp" rx="2.5" ry="2.5" style="stroke:#181818;stroke-width:0.5;" width="205.751" x="567" y="86"/><ellipse cx="621.2705" cy="102" fill="#ADD1B2" rx="11" ry="11" style="stroke:#181818;stroke-width:1;"/><path d="M624.0361,97.875 Q624.1924,97.6563 624.3799,97.5469 Q624.5674,97.4375 624.7861,97.4375 Q625.1611,97.4375 625.3955,97.7031 Q625.6299,97.9531 625.6299,98.5625 L625.6299,100.0156 Q625.6299,100.625 625.3955,100.8906 Q625.1611,101.1563 624.7861,101.1563 Q624.4424,101.1563 624.2393,100.9531 Q624.0361,100.7656 623.9268,100.25 Q623.8799,99.8906 623.6924,99.7031 Q623.3643,99.3281 622.7549,99.1094 Q622.1455,98.8906 621.5205,98.8906 Q620.7549,98.8906 620.1143,99.2188 Q619.4893,99.5469 618.9893,100.2969 Q618.5049,101.0469 618.5049,102.0781 L618.5049,103.1719 Q618.5049,104.4063 619.3955,105.2344 Q620.2861,106.0469 621.8799,106.0469 Q622.8174,106.0469 623.4736,105.7969 Q623.8643,105.6406 624.2861,105.2031 Q624.5518,104.9375 624.6924,104.8594 Q624.8486,104.7813 625.0518,104.7813 Q625.3799,104.7813 625.6299,105.0469 Q625.8955,105.2969 625.8955,105.6406 Q625.8955,105.9844 625.5518,106.3906 Q625.0518,106.9688 624.2549,107.2969 Q623.1768,107.75 621.8799,107.75 Q620.3643,107.75 619.1611,107.125 Q618.1768,106.625 617.4893,105.5625 Q616.8018,104.4844 616.8018,103.2031 L616.8018,102.0469 Q616.8018,100.7188 617.4111,99.5781 Q618.0361,98.4219 619.1299,97.8125 Q620.2236,97.1875 621.458,97.1875 Q622.1924,97.1875 622.833,97.3594 Q623.4893,97.5156 624.0361,97.875 Z " fill="#000000"/><text fill="#000000" font-family="sans-serif" font-size="14" lengthAdjust="spacing" textLength="88.71" x="641.7705" y="107.7285">TextEditorApp</text><line style="stroke:#181818;stroke-width:0.5;" x1="568" x2="771.751" y1="118" y2="118"/><line style="stroke:#181818;stroke-width:0.5;" x1="568" x2="771.751" y1="126" y2="126"/><ellipse cx="578" cy="140.3047" fill="#84BE84" rx="3" ry="3" style="stroke:#038048;stroke-width:1;"/><text fill="#000000" font-family="sans-serif" font-size="14" lengthAdjust="spacing" textLength="98.0342" x="587" y="144.5332">TextEditorApp()</text><polygon fill="#4177AF" points="578,153.9141,574,159.9141,582,159.9141" style="stroke:#1963A0;stroke-width:1;"/><text fill="#000000" font-family="sans-serif" font-size="14" lengthAdjust="spacing" text-decoration="underline" textLength="179.751" x="587" y="162.1426">main(java/lang/String[]): Void</text></g><!--link DecryptionInputStream to IDecryption--><g id="link_DecryptionInputStream_IDecryption"><path codeLine="7" d="M331.4,348.78 C354.3,379.25 379.3254,412.5535 399.2554,439.0735 " fill="transparent" id="DecryptionInputStream-to-IDecryption" style="stroke:#181818;stroke-width:1;"/><polygon fill="#181818" points="402.86,443.87,400.6507,434.2721,399.8561,439.8729,394.2554,439.0783,402.86,443.87" style="stroke:#181818;stroke-width:1;"/><text fill="#000000" font-family="sans-serif" font-size="13" lengthAdjust="spacing" textLength="54.1899" x="381" y="410.4951">decryptor</text><text fill="#000000" font-family="sans-serif" font-size="13" lengthAdjust="spacing" textLength="7.23" x="328.7442" y="369.8398">1</text><text fill="#000000" font-family="sans-serif" font-size="13" lengthAdjust="spacing" textLength="7.23" x="390.2136" y="432.9586">1</text></g><!--link DecryptionInputStream to DecryptionInputStream--><g id="link_DecryptionInputStream_DecryptionInputStream"><path codeLine="8" d="M541.93,283.66 C563.21,286.71 576.5,291.49 576.5,298 C576.5,304.51 569.1493,308.4387 547.8693,311.4887 " fill="transparent" id="DecryptionInputStream-to-DecryptionInputStream" style="stroke:#181818;stroke-width:1;stroke-dasharray:7.0,7.0;"/><polygon fill="#181818" points="541.93,312.34,551.4065,315.0226,546.8794,311.6306,550.2714,307.1036,541.93,312.34" style="stroke:#181818;stroke-width:1;"/></g><!--link EncryptionOutputStream to IEncryption--><g id="link_EncryptionOutputStream_IEncryption"><path codeLine="14" d="M984.65,339.61 C929.06,371.25 858.1444,411.6018 806.7244,440.8718 " fill="transparent" id="EncryptionOutputStream-to-IEncryption" style="stroke:#181818;stroke-width:1;"/><polygon fill="#181818" points="801.51,443.84,811.3104,442.864,805.8553,441.3665,807.3528,435.9114,801.51,443.84" style="stroke:#181818;stroke-width:1;"/><text fill="#000000" font-family="sans-serif" font-size="13" lengthAdjust="spacing" textLength="54.1899" x="882" y="410.4951">encryptor</text><text fill="#000000" font-family="sans-serif" font-size="13" lengthAdjust="spacing" textLength="7.23" x="965.2345" y="361.3328">1</text><text fill="#000000" font-family="sans-serif" font-size="13" lengthAdjust="spacing" textLength="7.23" x="805.4976" y="432.9224">1</text></g><!--link EncryptionOutputStream to EncryptionOutputStream--><g id="link_EncryptionOutputStream_EncryptionOutputStream"><path codeLine="15" d="M1313.67,283.8 C1335.14,286.85 1348.5,291.59 1348.5,298 C1348.5,304.41 1341.0804,308.3061 1319.6104,311.3561 " fill="transparent" id="EncryptionOutputStream-to-EncryptionOutputStream" style="stroke:#181818;stroke-width:1;stroke-dasharray:7.0,7.0;"/><polygon fill="#181818" points="1313.67,312.2,1323.1431,314.8944,1318.6203,311.4968,1322.018,306.9739,1313.67,312.2" style="stroke:#181818;stroke-width:1;"/></g><!--link SubstitutionCipher to IEncryption--><g id="link_SubstitutionCipher_IEncryption"><path codeLine="32" d="M698.46,366.17 C709.73,392.77 715.136,405.527 724.316,427.187 " fill="transparent" id="SubstitutionCipher-to-IEncryption" style="stroke:#181818;stroke-width:1;stroke-dasharray:7.0,7.0;"/><polygon fill="transparent" points="731.34,443.76,729.8403,424.8457,718.7917,429.5284,731.34,443.76" style="stroke:#181818;stroke-width:1;"/><text fill="#000000" font-family="sans-serif" font-size="13" lengthAdjust="spacing" textLength="7.23" x="694.0601" y="387.5359">1</text><text fill="#000000" font-family="sans-serif" font-size="13" lengthAdjust="spacing" textLength="7.23" x="721.0135" y="433.2091">1</text></g><!--link SubstitutionCipher to IDecryption--><g id="link_SubstitutionCipher_IDecryption"><path codeLine="33" d="M594.78,353.79 C554.22,383.34 520.1087,408.1711 485.6687,433.2611 " fill="transparent" id="SubstitutionCipher-to-IDecryption" style="stroke:#181818;stroke-width:1;stroke-dasharray:7.0,7.0;"/><polygon fill="transparent" points="471.12,443.86,489.2016,438.1107,482.1357,428.4116,471.12,443.86" style="stroke:#181818;stroke-width:1;"/><text fill="#000000" font-family="sans-serif" font-size="13" lengthAdjust="spacing" textLength="7.23" x="579.6881" y="356.2292">1</text><text fill="#000000" font-family="sans-serif" font-size="13" lengthAdjust="spacing" textLength="7.23" x="472.5522" y="432.9465">1</text></g><!--link SubstitutionCipher to SubstitutionCipher--><g id="link_SubstitutionCipher_SubstitutionCipher"><path codeLine="34" d="M745.06,279.79 C764.94,280.83 780,286.9 780,298 C780,309.1 770.9318,314.8565 751.0518,315.8965 " fill="transparent" id="SubstitutionCipher-to-SubstitutionCipher" style="stroke:#181818;stroke-width:1;stroke-dasharray:7.0,7.0;"/><polygon fill="#181818" points="745.06,316.21,754.2567,319.7344,750.0532,315.9488,753.8387,311.7453,745.06,316.21" style="stroke:#181818;stroke-width:1;"/></g><!--link TextEditorApp to TextEditorApp--><g id="link_TextEditorApp_TextEditorApp"><path codeLine="40" d="M773.21,114.58 C793.54,116.06 808,120.36 808,127.5 C808,134.64 799.5242,138.5044 779.1942,139.9844 " fill="transparent" id="TextEditorApp-to-TextEditorApp" style="stroke:#181818;stroke-width:1;stroke-dasharray:7.0,7.0;"/><polygon fill="#181818" points="773.21,140.42,782.4767,143.756,778.1968,140.057,781.8958,135.7771,773.21,140.42" style="stroke:#181818;stroke-width:1;"/></g><!--link TextEditorApp to SubstitutionCipher--><g id="link_TextEditorApp_SubstitutionCipher"><path codeLine="41" d="M670,169.29 C670,187.5 670,203.45 670,223.97 " fill="transparent" id="TextEditorApp-to-SubstitutionCipher" style="stroke:#181818;stroke-width:1;stroke-dasharray:7.0,7.0;"/><polygon fill="#181818" points="670,229.97,674,220.97,670,224.97,666,220.97,670,229.97" style="stroke:#181818;stroke-width:1;"/></g><!--SRC=[hPEnRi8m48PtFuN551H8r9K1gQKCg4C7K9SeWviSu0gSrBcqHIbzzjf980bn8AgwsFBvxjFT_zl1ZYK9ZUJ6aV2UGe8GhjJgF48W3p7oI2n4dE8I9R0zpGYrZJVM6_jWBe_SMcoaiMu3wowgwg5YgRJG6axeGk3fz710yFoH3kLBUNiaVNiSt0teU3pDztPDhG4weM5nY6HlkkDC-wf5ID0XxboSqfzJRAfhlZhBMmyQzQtgjRwVaYDOXOel4G-DCdPqSqF7gahf2A9RnmwyMKXpCY5S8CWr2-26fKh2ZBqcA5c0H_fJ-clDjamg2VIc9BXEgmrsGIkdlAHrkRnCLId7LADcFDw2r40uuv_WK40ydvnUucNORaCiRQof5MgRn-tLcNRPSRvxsFq_lCgpVZppSsadTjknWY-SXrmzqliuplzQ8w9bpH9ao0DbzPvnKNow7HCRLpr3BZQUV-qRDVdcVXivVsGOPlu5]--></g></svg>