<svg xmlns="http://www.w3.org/2000/svg" xmlns:xlink="http://www.w3.org/1999/xlink" contentStyleType="text/css" data-diagram-type="CLASS" height="476px" preserveAspectRatio="none" style="width:2170px;height:476px;background:#FFFFFF;" version="1.1" viewBox="0 0 2170 476" width="2170px" zoomAndPan="magnify"><defs/><g><!--cluster org--><g id="cluster_org"><path d="M8.5,6 L32.0518,6 A3.75,3.75 0 0 1 34.5518,8.5 L41.5518,29.6094 L2160.5,29.6094 A2.5,2.5 0 0 1 2163,32.1094 L2163,466.5 A2.5,2.5 0 0 1 2160.5,469 L8.5,469 A2.5,2.5 0 0 1 6,466.5 L6,8.5 A2.5,2.5 0 0 1 8.5,6 " fill="transparent" style="stroke:#000000;stroke-width:1.5;"/><line style="stroke:#000000;stroke-width:1.5;" x1="6" x2="41.5518" y1="29.6094" y2="29.6094"/><text fill="#000000" font-family="sans-serif" font-size="14" font-weight="bold" lengthAdjust="spacing" textLength="22.5518" x="10" y="22.5332">org</text></g><!--cluster decorator--><g id="cluster_decorator"><path d="M32.5,50 L98.0723,50 A3.75,3.75 0 0 1 100.5723,52.5 L107.5723,73.6094 L2136.5,73.6094 A2.5,2.5 0 0 1 2139,76.1094 L2139,442.5 A2.5,2.5 0 0 1 2136.5,445 L32.5,445 A2.5,2.5 0 0 1 30,442.5 L30,52.5 A2.5,2.5 0 0 1 32.5,50 " fill="transparent" style="stroke:#000000;stroke-width:1.5;"/><line style="stroke:#000000;stroke-width:1.5;" x1="30" x2="107.5723" y1="73.6094" y2="73.6094"/><text fill="#000000" font-family="sans-serif" font-size="14" font-weight="bold" lengthAdjust="spacing" textLength="64.5723" x="34" y="66.5332">decorator</text></g><!--class DecoyDuck--><g id="elem_DecoyDuck"><rect codeLine="2" fill="#F1F1F1" height="100.8281" id="DecoyDuck" rx="2.5" ry="2.5" style="stroke:#181818;stroke-width:0.5;" width="187.8545" x="1917" y="117.5"/><ellipse cx="1970.8877" cy="133.5" fill="#ADD1B2" rx="11" ry="11" style="stroke:#181818;stroke-width:1;"/><path d="M1973.6533,129.375 Q1973.8096,129.1563 1973.9971,129.0469 Q1974.1846,128.9375 1974.4033,128.9375 Q1974.7783,128.9375 1975.0127,129.2031 Q1975.2471,129.4531 1975.2471,130.0625 L1975.2471,131.5156 Q1975.2471,132.125 1975.0127,132.3906 Q1974.7783,132.6563 1974.4033,132.6563 Q1974.0596,132.6563 1973.8564,132.4531 Q1973.6533,132.2656 1973.5439,131.75 Q1973.4971,131.3906 1973.3096,131.2031 Q1972.9814,130.8281 1972.3721,130.6094 Q1971.7627,130.3906 1971.1377,130.3906 Q1970.3721,130.3906 1969.7314,130.7188 Q1969.1064,131.0469 1968.6064,131.7969 Q1968.1221,132.5469 1968.1221,133.5781 L1968.1221,134.6719 Q1968.1221,135.9063 1969.0127,136.7344 Q1969.9033,137.5469 1971.4971,137.5469 Q1972.4346,137.5469 1973.0908,137.2969 Q1973.4814,137.1406 1973.9033,136.7031 Q1974.1689,136.4375 1974.3096,136.3594 Q1974.4658,136.2813 1974.6689,136.2813 Q1974.9971,136.2813 1975.2471,136.5469 Q1975.5127,136.7969 1975.5127,137.1406 Q1975.5127,137.4844 1975.1689,137.8906 Q1974.6689,138.4688 1973.8721,138.7969 Q1972.7939,139.25 1971.4971,139.25 Q1969.9814,139.25 1968.7783,138.625 Q1967.7939,138.125 1967.1064,137.0625 Q1966.4189,135.9844 1966.4189,134.7031 L1966.4189,133.5469 Q1966.4189,132.2188 1967.0283,131.0781 Q1967.6533,129.9219 1968.7471,129.3125 Q1969.8408,128.6875 1971.0752,128.6875 Q1971.8096,128.6875 1972.4502,128.8594 Q1973.1064,129.0156 1973.6533,129.375 Z " fill="#000000"/><text fill="#000000" font-family="sans-serif" font-size="14" lengthAdjust="spacing" textLength="71.5791" x="1991.3877" y="139.2285">DecoyDuck</text><line style="stroke:#181818;stroke-width:0.5;" x1="1918" x2="2103.8545" y1="149.5" y2="149.5"/><line style="stroke:#181818;stroke-width:0.5;" x1="1918" x2="2103.8545" y1="157.5" y2="157.5"/><ellipse cx="1928" cy="171.8047" fill="#84BE84" rx="3" ry="3" style="stroke:#038048;stroke-width:1;"/><text fill="#000000" font-family="sans-serif" font-size="14" lengthAdjust="spacing" textLength="80.9033" x="1937" y="176.0332">DecoyDuck()</text><ellipse cx="1928" cy="189.4141" fill="#84BE84" rx="3" ry="3" style="stroke:#038048;stroke-width:1;"/><text fill="#000000" font-family="sans-serif" font-size="14" lengthAdjust="spacing" textLength="82.4824" x="1937" y="193.6426">quack(): Void</text><ellipse cx="1928" cy="207.0234" fill="#84BE84" rx="3" ry="3" style="stroke:#038048;stroke-width:1;"/><text fill="#000000" font-family="sans-serif" font-size="14" lengthAdjust="spacing" textLength="161.8545" x="1937" y="211.252">toString(): java/lang/String</text></g><!--class Quackable--><g id="elem_Quackable"><rect codeLine="52" fill="#F1F1F1" height="65.6094" id="Quackable" rx="2.5" ry="2.5" style="stroke:#181818;stroke-width:0.5;" width="108.4824" x="959" y="345.5"/><ellipse cx="978.2983" cy="361.5" fill="#B4A7E5" rx="11" ry="11" style="stroke:#181818;stroke-width:1;"/><path d="M979.2514,358.1406 L979.2514,364.7969 L980.9702,364.7969 Q981.5795,364.7969 981.8452,365.0313 Q982.1108,365.2656 982.1108,365.6563 Q982.1108,366.0313 981.8452,366.2656 Q981.5795,366.5 980.9702,366.5 L975.8295,366.5 Q975.2202,366.5 974.9545,366.2656 Q974.6889,366.0313 974.6889,365.6406 Q974.6889,365.2656 974.9545,365.0313 Q975.2202,364.7969 975.8295,364.7969 L977.5483,364.7969 L977.5483,358.1406 L975.8295,358.1406 Q975.2202,358.1406 974.9545,357.9063 Q974.6889,357.6719 974.6889,357.2813 Q974.6889,356.9063 974.9545,356.6719 Q975.2202,356.4375 975.8295,356.4375 L980.9702,356.4375 Q981.5795,356.4375 981.8452,356.6719 Q982.1108,356.9063 982.1108,357.2813 Q982.1108,357.6719 981.8452,357.9063 Q981.5795,358.1406 980.9702,358.1406 L979.2514,358.1406 Z " fill="#000000"/><text fill="#000000" font-family="sans-serif" font-size="14" font-style="italic" lengthAdjust="spacing" textLength="66.9307" x="993.2535" y="367.2285">Quackable</text><line style="stroke:#181818;stroke-width:0.5;" x1="960" x2="1066.4824" y1="377.5" y2="377.5"/><line style="stroke:#181818;stroke-width:0.5;" x1="960" x2="1066.4824" y1="385.5" y2="385.5"/><polygon fill="#4177AF" points="970,395.8047,966,401.8047,974,401.8047" style="stroke:#1963A0;stroke-width:1;"/><text fill="#000000" font-family="sans-serif" font-size="14" font-style="italic" lengthAdjust="spacing" textLength="82.4824" x="979" y="404.0332">quack(): Void</text></g><!--class DuckCall--><g id="elem_DuckCall"><rect codeLine="10" fill="#F1F1F1" height="100.8281" id="DuckCall" rx="2.5" ry="2.5" style="stroke:#181818;stroke-width:0.5;" width="187.8545" x="1676" y="117.5"/><ellipse cx="1737.6704" cy="133.5" fill="#ADD1B2" rx="11" ry="11" style="stroke:#181818;stroke-width:1;"/><path d="M1740.436,129.375 Q1740.5923,129.1563 1740.7798,129.0469 Q1740.9673,128.9375 1741.186,128.9375 Q1741.561,128.9375 1741.7954,129.2031 Q1742.0298,129.4531 1742.0298,130.0625 L1742.0298,131.5156 Q1742.0298,132.125 1741.7954,132.3906 Q1741.561,132.6563 1741.186,132.6563 Q1740.8423,132.6563 1740.6392,132.4531 Q1740.436,132.2656 1740.3267,131.75 Q1740.2798,131.3906 1740.0923,131.2031 Q1739.7642,130.8281 1739.1548,130.6094 Q1738.5454,130.3906 1737.9204,130.3906 Q1737.1548,130.3906 1736.5142,130.7188 Q1735.8892,131.0469 1735.3892,131.7969 Q1734.9048,132.5469 1734.9048,133.5781 L1734.9048,134.6719 Q1734.9048,135.9063 1735.7954,136.7344 Q1736.686,137.5469 1738.2798,137.5469 Q1739.2173,137.5469 1739.8735,137.2969 Q1740.2642,137.1406 1740.686,136.7031 Q1740.9517,136.4375 1741.0923,136.3594 Q1741.2485,136.2813 1741.4517,136.2813 Q1741.7798,136.2813 1742.0298,136.5469 Q1742.2954,136.7969 1742.2954,137.1406 Q1742.2954,137.4844 1741.9517,137.8906 Q1741.4517,138.4688 1740.6548,138.7969 Q1739.5767,139.25 1738.2798,139.25 Q1736.7642,139.25 1735.561,138.625 Q1734.5767,138.125 1733.8892,137.0625 Q1733.2017,135.9844 1733.2017,134.7031 L1733.2017,133.5469 Q1733.2017,132.2188 1733.811,131.0781 Q1734.436,129.9219 1735.5298,129.3125 Q1736.6235,128.6875 1737.8579,128.6875 Q1738.5923,128.6875 1739.2329,128.8594 Q1739.8892,129.0156 1740.436,129.375 Z " fill="#000000"/><text fill="#000000" font-family="sans-serif" font-size="14" lengthAdjust="spacing" textLength="56.0137" x="1758.1704" y="139.2285">DuckCall</text><line style="stroke:#181818;stroke-width:0.5;" x1="1677" x2="1862.8545" y1="149.5" y2="149.5"/><line style="stroke:#181818;stroke-width:0.5;" x1="1677" x2="1862.8545" y1="157.5" y2="157.5"/><ellipse cx="1687" cy="171.8047" fill="#84BE84" rx="3" ry="3" style="stroke:#038048;stroke-width:1;"/><text fill="#000000" font-family="sans-serif" font-size="14" lengthAdjust="spacing" textLength="65.3379" x="1696" y="176.0332">DuckCall()</text><ellipse cx="1687" cy="189.4141" fill="#84BE84" rx="3" ry="3" style="stroke:#038048;stroke-width:1;"/><text fill="#000000" font-family="sans-serif" font-size="14" lengthAdjust="spacing" textLength="82.4824" x="1696" y="193.6426">quack(): Void</text><ellipse cx="1687" cy="207.0234" fill="#84BE84" rx="3" ry="3" style="stroke:#038048;stroke-width:1;"/><text fill="#000000" font-family="sans-serif" font-size="14" lengthAdjust="spacing" textLength="161.8545" x="1696" y="211.252">toString(): java/lang/String</text></g><!--class DuckSimulator--><g id="elem_DuckSimulator"><rect codeLine="18" fill="#F1F1F1" height="118.4375" id="DuckSimulator" rx="2.5" ry="2.5" style="stroke:#181818;stroke-width:0.5;" width="277.3438" x="46.5" y="109"/><ellipse cx="135.4082" cy="125" fill="#ADD1B2" rx="11" ry="11" style="stroke:#181818;stroke-width:1;"/><path d="M138.1738,120.875 Q138.3301,120.6563 138.5176,120.5469 Q138.7051,120.4375 138.9238,120.4375 Q139.2988,120.4375 139.5332,120.7031 Q139.7676,120.9531 139.7676,121.5625 L139.7676,123.0156 Q139.7676,123.625 139.5332,123.8906 Q139.2988,124.1563 138.9238,124.1563 Q138.5801,124.1563 138.377,123.9531 Q138.1738,123.7656 138.0645,123.25 Q138.0176,122.8906 137.8301,122.7031 Q137.502,122.3281 136.8926,122.1094 Q136.2832,121.8906 135.6582,121.8906 Q134.8926,121.8906 134.252,122.2188 Q133.627,122.5469 133.127,123.2969 Q132.6426,124.0469 132.6426,125.0781 L132.6426,126.1719 Q132.6426,127.4063 133.5332,128.2344 Q134.4238,129.0469 136.0176,129.0469 Q136.9551,129.0469 137.6113,128.7969 Q138.002,128.6406 138.4238,128.2031 Q138.6895,127.9375 138.8301,127.8594 Q138.9863,127.7813 139.1895,127.7813 Q139.5176,127.7813 139.7676,128.0469 Q140.0332,128.2969 140.0332,128.6406 Q140.0332,128.9844 139.6895,129.3906 Q139.1895,129.9688 138.3926,130.2969 Q137.3145,130.75 136.0176,130.75 Q134.502,130.75 133.2988,130.125 Q132.3145,129.625 131.627,128.5625 Q130.9395,127.4844 130.9395,126.2031 L130.9395,125.0469 Q130.9395,123.7188 131.5488,122.5781 Q132.1738,121.4219 133.2676,120.8125 Q134.3613,120.1875 135.5957,120.1875 Q136.3301,120.1875 136.9707,120.3594 Q137.627,120.5156 138.1738,120.875 Z " fill="#000000"/><text fill="#000000" font-family="sans-serif" font-size="14" lengthAdjust="spacing" textLength="91.0273" x="155.9082" y="130.7285">DuckSimulator</text><line style="stroke:#181818;stroke-width:0.5;" x1="47.5" x2="322.8438" y1="141" y2="141"/><line style="stroke:#181818;stroke-width:0.5;" x1="47.5" x2="322.8438" y1="149" y2="149"/><ellipse cx="57.5" cy="163.3047" fill="#84BE84" rx="3" ry="3" style="stroke:#038048;stroke-width:1;"/><text fill="#000000" font-family="sans-serif" font-size="14" lengthAdjust="spacing" textLength="100.3516" x="66.5" y="167.5332">DuckSimulator()</text><polygon fill="#4177AF" points="57.5,176.9141,53.5,182.9141,61.5,182.9141" style="stroke:#1963A0;stroke-width:1;"/><text fill="#000000" font-family="sans-serif" font-size="14" lengthAdjust="spacing" text-decoration="underline" textLength="179.751" x="66.5" y="185.1426">main(java/lang/String[]): Void</text><polygon fill="#4177AF" points="57.5,194.5234,53.5,200.5234,61.5,200.5234" style="stroke:#1963A0;stroke-width:1;"/><text fill="#000000" font-family="sans-serif" font-size="14" lengthAdjust="spacing" textLength="97.2549" x="66.5" y="202.752">simulate(): Void</text><polygon fill="#4177AF" points="57.5,212.1328,53.5,218.1328,61.5,218.1328" style="stroke:#1963A0;stroke-width:1;"/><text fill="#000000" font-family="sans-serif" font-size="14" lengthAdjust="spacing" textLength="251.3438" x="66.5" y="220.3613">simulate(org/decorator/Quackable): Void</text></g><!--class Goose--><g id="elem_Goose"><rect codeLine="27" fill="#F1F1F1" height="100.8281" id="Goose" rx="2.5" ry="2.5" style="stroke:#181818;stroke-width:0.5;" width="187.8545" x="1402" y="328"/><ellipse cx="1471.0532" cy="344" fill="#ADD1B2" rx="11" ry="11" style="stroke:#181818;stroke-width:1;"/><path d="M1473.8188,339.875 Q1473.9751,339.6563 1474.1626,339.5469 Q1474.3501,339.4375 1474.5688,339.4375 Q1474.9438,339.4375 1475.1782,339.7031 Q1475.4126,339.9531 1475.4126,340.5625 L1475.4126,342.0156 Q1475.4126,342.625 1475.1782,342.8906 Q1474.9438,343.1563 1474.5688,343.1563 Q1474.2251,343.1563 1474.022,342.9531 Q1473.8188,342.7656 1473.7095,342.25 Q1473.6626,341.8906 1473.4751,341.7031 Q1473.147,341.3281 1472.5376,341.1094 Q1471.9282,340.8906 1471.3032,340.8906 Q1470.5376,340.8906 1469.897,341.2188 Q1469.272,341.5469 1468.772,342.2969 Q1468.2876,343.0469 1468.2876,344.0781 L1468.2876,345.1719 Q1468.2876,346.4063 1469.1782,347.2344 Q1470.0688,348.0469 1471.6626,348.0469 Q1472.6001,348.0469 1473.2563,347.7969 Q1473.647,347.6406 1474.0688,347.2031 Q1474.3345,346.9375 1474.4751,346.8594 Q1474.6313,346.7813 1474.8345,346.7813 Q1475.1626,346.7813 1475.4126,347.0469 Q1475.6782,347.2969 1475.6782,347.6406 Q1475.6782,347.9844 1475.3345,348.3906 Q1474.8345,348.9688 1474.0376,349.2969 Q1472.9595,349.75 1471.6626,349.75 Q1470.147,349.75 1468.9438,349.125 Q1467.9595,348.625 1467.272,347.5625 Q1466.5845,346.4844 1466.5845,345.2031 L1466.5845,344.0469 Q1466.5845,342.7188 1467.1938,341.5781 Q1467.8188,340.4219 1468.9126,339.8125 Q1470.0063,339.1875 1471.2407,339.1875 Q1471.9751,339.1875 1472.6157,339.3594 Q1473.272,339.5156 1473.8188,339.875 Z " fill="#000000"/><text fill="#000000" font-family="sans-serif" font-size="14" lengthAdjust="spacing" textLength="41.248" x="1491.5532" y="349.7285">Goose</text><line style="stroke:#181818;stroke-width:0.5;" x1="1403" x2="1588.8545" y1="360" y2="360"/><line style="stroke:#181818;stroke-width:0.5;" x1="1403" x2="1588.8545" y1="368" y2="368"/><ellipse cx="1413" cy="382.3047" fill="#84BE84" rx="3" ry="3" style="stroke:#038048;stroke-width:1;"/><text fill="#000000" font-family="sans-serif" font-size="14" lengthAdjust="spacing" textLength="50.5723" x="1422" y="386.5332">Goose()</text><ellipse cx="1413" cy="399.9141" fill="#84BE84" rx="3" ry="3" style="stroke:#038048;stroke-width:1;"/><text fill="#000000" font-family="sans-serif" font-size="14" lengthAdjust="spacing" textLength="75.4824" x="1422" y="404.1426">honk(): Void</text><ellipse cx="1413" cy="417.5234" fill="#84BE84" rx="3" ry="3" style="stroke:#038048;stroke-width:1;"/><text fill="#000000" font-family="sans-serif" font-size="14" lengthAdjust="spacing" textLength="161.8545" x="1422" y="421.752">toString(): java/lang/String</text></g><!--class GooseAdapter--><g id="elem_GooseAdapter"><rect codeLine="34" fill="#F1F1F1" height="118.4375" id="GooseAdapter" rx="2.5" ry="2.5" style="stroke:#181818;stroke-width:0.5;" width="254.0127" x="1369" y="109"/><ellipse cx="1446.6152" cy="125" fill="#ADD1B2" rx="11" ry="11" style="stroke:#181818;stroke-width:1;"/><path d="M1449.3809,120.875 Q1449.5371,120.6563 1449.7246,120.5469 Q1449.9121,120.4375 1450.1309,120.4375 Q1450.5059,120.4375 1450.7402,120.7031 Q1450.9746,120.9531 1450.9746,121.5625 L1450.9746,123.0156 Q1450.9746,123.625 1450.7402,123.8906 Q1450.5059,124.1563 1450.1309,124.1563 Q1449.7871,124.1563 1449.584,123.9531 Q1449.3809,123.7656 1449.2715,123.25 Q1449.2246,122.8906 1449.0371,122.7031 Q1448.709,122.3281 1448.0996,122.1094 Q1447.4902,121.8906 1446.8652,121.8906 Q1446.0996,121.8906 1445.459,122.2188 Q1444.834,122.5469 1444.334,123.2969 Q1443.8496,124.0469 1443.8496,125.0781 L1443.8496,126.1719 Q1443.8496,127.4063 1444.7402,128.2344 Q1445.6309,129.0469 1447.2246,129.0469 Q1448.1621,129.0469 1448.8184,128.7969 Q1449.209,128.6406 1449.6309,128.2031 Q1449.8965,127.9375 1450.0371,127.8594 Q1450.1934,127.7813 1450.3965,127.7813 Q1450.7246,127.7813 1450.9746,128.0469 Q1451.2402,128.2969 1451.2402,128.6406 Q1451.2402,128.9844 1450.8965,129.3906 Q1450.3965,129.9688 1449.5996,130.2969 Q1448.5215,130.75 1447.2246,130.75 Q1445.709,130.75 1444.5059,130.125 Q1443.5215,129.625 1442.834,128.5625 Q1442.1465,127.4844 1442.1465,126.2031 L1442.1465,125.0469 Q1442.1465,123.7188 1442.7559,122.5781 Q1443.3809,121.4219 1444.4746,120.8125 Q1445.5684,120.1875 1446.8027,120.1875 Q1447.5371,120.1875 1448.1777,120.3594 Q1448.834,120.5156 1449.3809,120.875 Z " fill="#000000"/><text fill="#000000" font-family="sans-serif" font-size="14" lengthAdjust="spacing" textLength="90.2822" x="1467.1152" y="130.7285">GooseAdapter</text><line style="stroke:#181818;stroke-width:0.5;" x1="1370" x2="1622.0127" y1="141" y2="141"/><text fill="#000000" font-family="sans-serif" font-size="14" lengthAdjust="spacing" textLength="174.3301" x="1375" y="159.5332">goose: org/decorator/Goose</text><line style="stroke:#181818;stroke-width:0.5;" x1="1370" x2="1622.0127" y1="166.6094" y2="166.6094"/><ellipse cx="1380" cy="180.9141" fill="#84BE84" rx="3" ry="3" style="stroke:#038048;stroke-width:1;"/><text fill="#000000" font-family="sans-serif" font-size="14" lengthAdjust="spacing" textLength="228.0127" x="1389" y="185.1426">GooseAdapter(org/decorator/Goose)</text><ellipse cx="1380" cy="198.5234" fill="#84BE84" rx="3" ry="3" style="stroke:#038048;stroke-width:1;"/><text fill="#000000" font-family="sans-serif" font-size="14" lengthAdjust="spacing" textLength="82.4824" x="1389" y="202.752">quack(): Void</text><ellipse cx="1380" cy="216.1328" fill="#84BE84" rx="3" ry="3" style="stroke:#038048;stroke-width:1;"/><text fill="#000000" font-family="sans-serif" font-size="14" lengthAdjust="spacing" textLength="161.8545" x="1389" y="220.3613">toString(): java/lang/String</text></g><!--class MallardDuck--><g id="elem_MallardDuck"><rect codeLine="44" fill="#F1F1F1" height="100.8281" id="MallardDuck" rx="2.5" ry="2.5" style="stroke:#181818;stroke-width:0.5;" width="187.8545" x="1128" y="117.5"/><ellipse cx="1178.7773" cy="133.5" fill="#ADD1B2" rx="11" ry="11" style="stroke:#181818;stroke-width:1;"/><path d="M1181.543,129.375 Q1181.6992,129.1563 1181.8867,129.0469 Q1182.0742,128.9375 1182.293,128.9375 Q1182.668,128.9375 1182.9023,129.2031 Q1183.1367,129.4531 1183.1367,130.0625 L1183.1367,131.5156 Q1183.1367,132.125 1182.9023,132.3906 Q1182.668,132.6563 1182.293,132.6563 Q1181.9492,132.6563 1181.7461,132.4531 Q1181.543,132.2656 1181.4336,131.75 Q1181.3867,131.3906 1181.1992,131.2031 Q1180.8711,130.8281 1180.2617,130.6094 Q1179.6523,130.3906 1179.0273,130.3906 Q1178.2617,130.3906 1177.6211,130.7188 Q1176.9961,131.0469 1176.4961,131.7969 Q1176.0117,132.5469 1176.0117,133.5781 L1176.0117,134.6719 Q1176.0117,135.9063 1176.9023,136.7344 Q1177.793,137.5469 1179.3867,137.5469 Q1180.3242,137.5469 1180.9805,137.2969 Q1181.3711,137.1406 1181.793,136.7031 Q1182.0586,136.4375 1182.1992,136.3594 Q1182.3555,136.2813 1182.5586,136.2813 Q1182.8867,136.2813 1183.1367,136.5469 Q1183.4023,136.7969 1183.4023,137.1406 Q1183.4023,137.4844 1183.0586,137.8906 Q1182.5586,138.4688 1181.7617,138.7969 Q1180.6836,139.25 1179.3867,139.25 Q1177.8711,139.25 1176.668,138.625 Q1175.6836,138.125 1174.9961,137.0625 Q1174.3086,135.9844 1174.3086,134.7031 L1174.3086,133.5469 Q1174.3086,132.2188 1174.918,131.0781 Q1175.543,129.9219 1176.6367,129.3125 Q1177.7305,128.6875 1178.9648,128.6875 Q1179.6992,128.6875 1180.3398,128.8594 Q1180.9961,129.0156 1181.543,129.375 Z " fill="#000000"/><text fill="#000000" font-family="sans-serif" font-size="14" lengthAdjust="spacing" textLength="77.7998" x="1199.2773" y="139.2285">MallardDuck</text><line style="stroke:#181818;stroke-width:0.5;" x1="1129" x2="1314.8545" y1="149.5" y2="149.5"/><line style="stroke:#181818;stroke-width:0.5;" x1="1129" x2="1314.8545" y1="157.5" y2="157.5"/><ellipse cx="1139" cy="171.8047" fill="#84BE84" rx="3" ry="3" style="stroke:#038048;stroke-width:1;"/><text fill="#000000" font-family="sans-serif" font-size="14" lengthAdjust="spacing" textLength="87.124" x="1148" y="176.0332">MallardDuck()</text><ellipse cx="1139" cy="189.4141" fill="#84BE84" rx="3" ry="3" style="stroke:#038048;stroke-width:1;"/><text fill="#000000" font-family="sans-serif" font-size="14" lengthAdjust="spacing" textLength="82.4824" x="1148" y="193.6426">quack(): Void</text><ellipse cx="1139" cy="207.0234" fill="#84BE84" rx="3" ry="3" style="stroke:#038048;stroke-width:1;"/><text fill="#000000" font-family="sans-serif" font-size="14" lengthAdjust="spacing" textLength="161.8545" x="1148" y="211.252">toString(): java/lang/String</text></g><!--class RedheadDuck--><g id="elem_RedheadDuck"><rect codeLine="56" fill="#F1F1F1" height="83.2188" id="RedheadDuck" rx="2.5" ry="2.5" style="stroke:#181818;stroke-width:0.5;" width="124.0479" x="951" y="126.5"/><ellipse cx="967.4959" cy="142.5" fill="#ADD1B2" rx="11" ry="11" style="stroke:#181818;stroke-width:1;"/><path d="M970.2615,138.375 Q970.4178,138.1563 970.6053,138.0469 Q970.7928,137.9375 971.0115,137.9375 Q971.3865,137.9375 971.6209,138.2031 Q971.8553,138.4531 971.8553,139.0625 L971.8553,140.5156 Q971.8553,141.125 971.6209,141.3906 Q971.3865,141.6563 971.0115,141.6563 Q970.6678,141.6563 970.4646,141.4531 Q970.2615,141.2656 970.1521,140.75 Q970.1053,140.3906 969.9178,140.2031 Q969.5896,139.8281 968.9803,139.6094 Q968.3709,139.3906 967.7459,139.3906 Q966.9803,139.3906 966.3396,139.7188 Q965.7146,140.0469 965.2146,140.7969 Q964.7303,141.5469 964.7303,142.5781 L964.7303,143.6719 Q964.7303,144.9063 965.6209,145.7344 Q966.5115,146.5469 968.1053,146.5469 Q969.0428,146.5469 969.699,146.2969 Q970.0896,146.1406 970.5115,145.7031 Q970.7771,145.4375 970.9178,145.3594 Q971.074,145.2813 971.2771,145.2813 Q971.6053,145.2813 971.8553,145.5469 Q972.1209,145.7969 972.1209,146.1406 Q972.1209,146.4844 971.7771,146.8906 Q971.2771,147.4688 970.4803,147.7969 Q969.4021,148.25 968.1053,148.25 Q966.5896,148.25 965.3865,147.625 Q964.4021,147.125 963.7146,146.0625 Q963.0271,144.9844 963.0271,143.7031 L963.0271,142.5469 Q963.0271,141.2188 963.6365,140.0781 Q964.2615,138.9219 965.3553,138.3125 Q966.449,137.6875 967.6834,137.6875 Q968.4178,137.6875 969.0584,137.8594 Q969.7146,138.0156 970.2615,138.375 Z " fill="#000000"/><text fill="#000000" font-family="sans-serif" font-size="14" lengthAdjust="spacing" textLength="88.7236" x="981.8283" y="148.2285">RedheadDuck</text><line style="stroke:#181818;stroke-width:0.5;" x1="952" x2="1074.0479" y1="158.5" y2="158.5"/><line style="stroke:#181818;stroke-width:0.5;" x1="952" x2="1074.0479" y1="166.5" y2="166.5"/><ellipse cx="962" cy="180.8047" fill="#84BE84" rx="3" ry="3" style="stroke:#038048;stroke-width:1;"/><text fill="#000000" font-family="sans-serif" font-size="14" lengthAdjust="spacing" textLength="98.0479" x="971" y="185.0332">RedheadDuck()</text><ellipse cx="962" cy="198.4141" fill="#84BE84" rx="3" ry="3" style="stroke:#038048;stroke-width:1;"/><text fill="#000000" font-family="sans-serif" font-size="14" lengthAdjust="spacing" textLength="82.4824" x="971" y="202.6426">quack(): Void</text></g><!--class RubberDuck--><g id="elem_RubberDuck"><rect codeLine="63" fill="#F1F1F1" height="100.8281" id="RubberDuck" rx="2.5" ry="2.5" style="stroke:#181818;stroke-width:0.5;" width="187.8545" x="710" y="117.5"/><ellipse cx="760.7705" cy="133.5" fill="#ADD1B2" rx="11" ry="11" style="stroke:#181818;stroke-width:1;"/><path d="M763.5361,129.375 Q763.6924,129.1563 763.8799,129.0469 Q764.0674,128.9375 764.2861,128.9375 Q764.6611,128.9375 764.8955,129.2031 Q765.1299,129.4531 765.1299,130.0625 L765.1299,131.5156 Q765.1299,132.125 764.8955,132.3906 Q764.6611,132.6563 764.2861,132.6563 Q763.9424,132.6563 763.7393,132.4531 Q763.5361,132.2656 763.4268,131.75 Q763.3799,131.3906 763.1924,131.2031 Q762.8643,130.8281 762.2549,130.6094 Q761.6455,130.3906 761.0205,130.3906 Q760.2549,130.3906 759.6143,130.7188 Q758.9893,131.0469 758.4893,131.7969 Q758.0049,132.5469 758.0049,133.5781 L758.0049,134.6719 Q758.0049,135.9063 758.8955,136.7344 Q759.7861,137.5469 761.3799,137.5469 Q762.3174,137.5469 762.9736,137.2969 Q763.3643,137.1406 763.7861,136.7031 Q764.0518,136.4375 764.1924,136.3594 Q764.3486,136.2813 764.5518,136.2813 Q764.8799,136.2813 765.1299,136.5469 Q765.3955,136.7969 765.3955,137.1406 Q765.3955,137.4844 765.0518,137.8906 Q764.5518,138.4688 763.7549,138.7969 Q762.6768,139.25 761.3799,139.25 Q759.8643,139.25 758.6611,138.625 Q757.6768,138.125 756.9893,137.0625 Q756.3018,135.9844 756.3018,134.7031 L756.3018,133.5469 Q756.3018,132.2188 756.9111,131.0781 Q757.5361,129.9219 758.6299,129.3125 Q759.7236,128.6875 760.958,128.6875 Q761.6924,128.6875 762.333,128.8594 Q762.9893,129.0156 763.5361,129.375 Z " fill="#000000"/><text fill="#000000" font-family="sans-serif" font-size="14" lengthAdjust="spacing" textLength="77.8135" x="781.2705" y="139.2285">RubberDuck</text><line style="stroke:#181818;stroke-width:0.5;" x1="711" x2="896.8545" y1="149.5" y2="149.5"/><line style="stroke:#181818;stroke-width:0.5;" x1="711" x2="896.8545" y1="157.5" y2="157.5"/><ellipse cx="721" cy="171.8047" fill="#84BE84" rx="3" ry="3" style="stroke:#038048;stroke-width:1;"/><text fill="#000000" font-family="sans-serif" font-size="14" lengthAdjust="spacing" textLength="87.1377" x="730" y="176.0332">RubberDuck()</text><ellipse cx="721" cy="189.4141" fill="#84BE84" rx="3" ry="3" style="stroke:#038048;stroke-width:1;"/><text fill="#000000" font-family="sans-serif" font-size="14" lengthAdjust="spacing" textLength="82.4824" x="730" y="193.6426">quack(): Void</text><ellipse cx="721" cy="207.0234" fill="#84BE84" rx="3" ry="3" style="stroke:#038048;stroke-width:1;"/><text fill="#000000" font-family="sans-serif" font-size="14" lengthAdjust="spacing" textLength="161.8545" x="730" y="211.252">toString(): java/lang/String</text></g><!--class QuackCounter--><g id="elem_QuackCounter"><rect codeLine="71" fill="#8888FF" height="164.3594" id="QuackCounter" rx="2.5" ry="2.5" style="stroke:#0000FF;stroke-width:0.5;" width="279.6816" x="377" y="86"/><ellipse cx="467.4565" cy="107.3516" fill="#ADD1B2" rx="11" ry="11" style="stroke:#181818;stroke-width:1;"/><path d="M470.2222,103.2266 Q470.3784,103.0078 470.5659,102.8984 Q470.7534,102.7891 470.9722,102.7891 Q471.3472,102.7891 471.5815,103.0547 Q471.8159,103.3047 471.8159,103.9141 L471.8159,105.3672 Q471.8159,105.9766 471.5815,106.2422 Q471.3472,106.5078 470.9722,106.5078 Q470.6284,106.5078 470.4253,106.3047 Q470.2222,106.1172 470.1128,105.6016 Q470.0659,105.2422 469.8784,105.0547 Q469.5503,104.6797 468.9409,104.4609 Q468.3315,104.2422 467.7065,104.2422 Q466.9409,104.2422 466.3003,104.5703 Q465.6753,104.8984 465.1753,105.6484 Q464.6909,106.3984 464.6909,107.4297 L464.6909,108.5234 Q464.6909,109.7578 465.5815,110.5859 Q466.4722,111.3984 468.0659,111.3984 Q469.0034,111.3984 469.6597,111.1484 Q470.0503,110.9922 470.4722,110.5547 Q470.7378,110.2891 470.8784,110.2109 Q471.0347,110.1328 471.2378,110.1328 Q471.5659,110.1328 471.8159,110.3984 Q472.0815,110.6484 472.0815,110.9922 Q472.0815,111.3359 471.7378,111.7422 Q471.2378,112.3203 470.4409,112.6484 Q469.3628,113.1016 468.0659,113.1016 Q466.5503,113.1016 465.3472,112.4766 Q464.3628,111.9766 463.6753,110.9141 Q462.9878,109.8359 462.9878,108.5547 L462.9878,107.3984 Q462.9878,106.0703 463.5972,104.9297 Q464.2222,103.7734 465.3159,103.1641 Q466.4097,102.5391 467.644,102.5391 Q468.3784,102.5391 469.019,102.7109 Q469.6753,102.8672 470.2222,103.2266 Z " fill="#000000"/><text fill="#000000" font-family="sans-serif" font-size="12" font-style="italic" lengthAdjust="spacing" textLength="66.0352" x="500.0732" y="103.457">&#171;Decorator&#187;</text><text fill="#000000" font-family="sans-serif" font-size="14" lengthAdjust="spacing" textLength="90.2686" x="487.9565" y="120.627">QuackCounter</text><line style="stroke:#0000FF;stroke-width:0.5;" x1="378" x2="655.6816" y1="128.7031" y2="128.7031"/><text fill="#000000" font-family="sans-serif" font-size="14" lengthAdjust="spacing" textLength="191.4404" x="383" y="147.2363">duck: org/decorator/Quackable</text><text fill="#000000" font-family="sans-serif" font-size="14" lengthAdjust="spacing" textLength="133.0547" x="383" y="164.8457">numberOfQuacks: Int</text><line style="stroke:#0000FF;stroke-width:0.5;" x1="378" x2="655.6816" y1="171.9219" y2="171.9219"/><ellipse cx="388" cy="186.2266" fill="#84BE84" rx="3" ry="3" style="stroke:#038048;stroke-width:1;"/><text fill="#000000" font-family="sans-serif" font-size="14" lengthAdjust="spacing" textLength="253.6816" x="397" y="190.4551">QuackCounter(org/decorator/Quackable)</text><ellipse cx="388" cy="203.8359" fill="#84BE84" rx="3" ry="3" style="stroke:#038048;stroke-width:1;"/><text fill="#000000" font-family="sans-serif" font-size="14" lengthAdjust="spacing" textLength="82.4824" x="397" y="208.0645">quack(): Void</text><polygon fill="#4177AF" points="388,217.4453,384,223.4453,392,223.4453" style="stroke:#1963A0;stroke-width:1;"/><text fill="#000000" font-family="sans-serif" font-size="14" lengthAdjust="spacing" text-decoration="underline" textLength="99.5928" x="397" y="225.6738">getQuacks(): Int</text><ellipse cx="388" cy="239.0547" fill="#84BE84" rx="3" ry="3" style="stroke:#038048;stroke-width:1;"/><text fill="#000000" font-family="sans-serif" font-size="14" lengthAdjust="spacing" textLength="161.8545" x="397" y="243.2832">toString(): java/lang/String</text></g><!--link DecoyDuck to Quackable--><g id="link_DecoyDuck_Quackable"><path codeLine="7" d="M1954.01,218.7 C1937.55,230.72 1918.89,242.31 1900,250 C1880.46,257.96 1274.5526,341.5907 1084.9626,367.6307 " fill="transparent" id="DecoyDuck-to-Quackable" style="stroke:#181818;stroke-width:1;stroke-dasharray:7.0,7.0;"/><polygon fill="transparent" points="1067.13,370.08,1085.779,373.5749,1084.1462,361.6865,1067.13,370.08" style="stroke:#181818;stroke-width:1;"/><text fill="#000000" font-family="sans-serif" font-size="13" lengthAdjust="spacing" textLength="7.23" x="1939.2838" y="239.7496">1</text><text fill="#000000" font-family="sans-serif" font-size="13" lengthAdjust="spacing" textLength="7.23" x="1075.5759" y="383.5679">1</text></g><!--link DecoyDuck to DecoyDuck--><g id="link_DecoyDuck_DecoyDuck"><path codeLine="8" d="M2105.21,146.2 C2125.39,148.37 2140,155.64 2140,168 C2140,180.36 2131.3556,186.9885 2111.1756,189.1585 " fill="transparent" id="DecoyDuck-to-DecoyDuck" style="stroke:#181818;stroke-width:1;stroke-dasharray:7.0,7.0;"/><polygon fill="#181818" points="2105.21,189.8,2114.5861,192.8148,2110.1813,189.2654,2113.7307,184.8607,2105.21,189.8" style="stroke:#181818;stroke-width:1;"/></g><!--link DuckCall to Quackable--><g id="link_DuckCall_Quackable"><path codeLine="15" d="M1712.56,218.52 C1696.17,230.47 1677.66,242.07 1659,250 C1587.99,280.19 1563.8,265.57 1488,280 C1335,309.12 1172.6827,343.3091 1084.6427,362.1191 " fill="transparent" id="DuckCall-to-Quackable" style="stroke:#181818;stroke-width:1;stroke-dasharray:7.0,7.0;"/><polygon fill="transparent" points="1067.04,365.88,1085.8963,367.9867,1083.3891,356.2516,1067.04,365.88" style="stroke:#181818;stroke-width:1;"/><text fill="#000000" font-family="sans-serif" font-size="13" lengthAdjust="spacing" textLength="7.23" x="1697.3964" y="239.9139">1</text><text fill="#000000" font-family="sans-serif" font-size="13" lengthAdjust="spacing" textLength="7.23" x="1075.4726" y="360.4011">1</text></g><!--link DuckCall to DuckCall--><g id="link_DuckCall_DuckCall"><path codeLine="16" d="M1864.21,146.2 C1884.39,148.37 1899,155.64 1899,168 C1899,180.36 1890.3556,186.9885 1870.1756,189.1585 " fill="transparent" id="DuckCall-to-DuckCall" style="stroke:#181818;stroke-width:1;stroke-dasharray:7.0,7.0;"/><polygon fill="#181818" points="1864.21,189.8,1873.5861,192.8148,1869.1813,189.2654,1872.7307,184.8607,1864.21,189.8" style="stroke:#181818;stroke-width:1;"/></g><!--link DuckSimulator to DuckSimulator--><g id="link_DuckSimulator_DuckSimulator"><path codeLine="24" d="M323.5,147.54 C344.36,150.69 358.5,157.51 358.5,168 C358.5,178.49 350.2927,184.4141 329.4327,187.5641 " fill="transparent" id="DuckSimulator-to-DuckSimulator" style="stroke:#181818;stroke-width:1;stroke-dasharray:7.0,7.0;"/><polygon fill="#181818" points="323.5,188.46,332.9964,191.0713,328.4439,187.7134,331.8019,183.161,323.5,188.46" style="stroke:#181818;stroke-width:1;"/></g><!--link DuckSimulator to Quackable--><g id="link_DuckSimulator_Quackable"><path codeLine="25" d="M300.16,227.03 C319.81,235.56 340.25,243.61 360,250 C576.21,320.01 839.8335,356.9992 953.0435,370.6992 " fill="transparent" id="DuckSimulator-to-Quackable" style="stroke:#181818;stroke-width:1;"/><polygon fill="#181818" points="959,371.42,950.5457,366.3677,954.0362,370.8193,949.5846,374.3098,959,371.42" style="stroke:#181818;stroke-width:1;"/></g><!--link Goose to Goose--><g id="link_Goose_Goose"><path codeLine="32" d="M1590.21,362.51 C1610.39,364.1 1625,369.43 1625,378.5 C1625,387.57 1616.3715,392.4287 1596.1915,394.0187 " fill="transparent" id="Goose-to-Goose" style="stroke:#181818;stroke-width:1;stroke-dasharray:7.0,7.0;"/><polygon fill="#181818" points="1590.21,394.49,1599.4964,397.7707,1595.1946,394.0973,1598.868,389.7954,1590.21,394.49" style="stroke:#181818;stroke-width:1;"/></g><!--link GooseAdapter to Quackable--><g id="link_GooseAdapter_Quackable"><path codeLine="40" d="M1397.5,227.01 C1382.45,235.11 1366.95,243.03 1352,250 C1254.11,295.61 1152.0586,331.7247 1084.2586,354.2947 " fill="transparent" id="GooseAdapter-to-Quackable" style="stroke:#181818;stroke-width:1;stroke-dasharray:7.0,7.0;"/><polygon fill="transparent" points="1067.18,359.98,1086.1537,359.9876,1082.3635,348.6018,1067.18,359.98" style="stroke:#181818;stroke-width:1;"/><text fill="#000000" font-family="sans-serif" font-size="13" lengthAdjust="spacing" textLength="7.23" x="1377.4452" y="249.0853">1</text><text fill="#000000" font-family="sans-serif" font-size="13" lengthAdjust="spacing" textLength="7.23" x="1075.6332" y="353.6345">1</text></g><!--link GooseAdapter to Goose--><g id="link_GooseAdapter_Goose"><path codeLine="41" d="M1496,227.08 C1496,258.77 1496,291.59 1496,321.86 " fill="transparent" id="GooseAdapter-to-Goose" style="stroke:#181818;stroke-width:1;"/><polygon fill="#181818" points="1496,327.86,1500,318.86,1496,322.86,1492,318.86,1496,327.86" style="stroke:#181818;stroke-width:1;"/><text fill="#000000" font-family="sans-serif" font-size="13" lengthAdjust="spacing" textLength="35.4199" x="1497" y="294.4951">goose</text></g><!--link GooseAdapter to GooseAdapter--><g id="link_GooseAdapter_GooseAdapter"><path codeLine="42" d="M1623.01,147.18 C1643.75,150.16 1658,157.1 1658,168 C1658,178.9 1649.689,184.9867 1628.949,187.9667 " fill="transparent" id="GooseAdapter-to-GooseAdapter" style="stroke:#181818;stroke-width:1;stroke-dasharray:7.0,7.0;"/><polygon fill="#181818" points="1623.01,188.82,1632.4874,191.4993,1627.9592,188.1089,1631.3496,183.5807,1623.01,188.82" style="stroke:#181818;stroke-width:1;"/></g><!--link MallardDuck to Quackable--><g id="link_MallardDuck_Quackable"><path codeLine="49" d="M1172.2,218.68 C1132.84,257.94 1091.803,298.8771 1057.923,332.6771 " fill="transparent" id="MallardDuck-to-Quackable" style="stroke:#181818;stroke-width:1;stroke-dasharray:7.0,7.0;"/><polygon fill="transparent" points="1045.18,345.39,1062.1606,336.9248,1053.6853,328.4295,1045.18,345.39" style="stroke:#181818;stroke-width:1;"/><text fill="#000000" font-family="sans-serif" font-size="13" lengthAdjust="spacing" textLength="7.23" x="1158.395" y="239.727">1</text><text fill="#000000" font-family="sans-serif" font-size="13" lengthAdjust="spacing" textLength="7.23" x="1044.0692" y="334.4827">1</text></g><!--link MallardDuck to MallardDuck--><g id="link_MallardDuck_MallardDuck"><path codeLine="50" d="M1316.21,146.2 C1336.39,148.37 1351,155.64 1351,168 C1351,180.36 1342.3556,186.9885 1322.1756,189.1585 " fill="transparent" id="MallardDuck-to-MallardDuck" style="stroke:#181818;stroke-width:1;stroke-dasharray:7.0,7.0;"/><polygon fill="#181818" points="1316.21,189.8,1325.5861,192.8148,1321.1813,189.2654,1324.7307,184.8607,1316.21,189.8" style="stroke:#181818;stroke-width:1;"/></g><!--link RedheadDuck to Quackable--><g id="link_RedheadDuck_Quackable"><path codeLine="60" d="M1013,209.7 C1013,249.4 1013,290.98 1013,327.44 " fill="transparent" id="RedheadDuck-to-Quackable" style="stroke:#181818;stroke-width:1;stroke-dasharray:7.0,7.0;"/><polygon fill="transparent" points="1013,345.44,1019,327.44,1007,327.44,1013,345.44" style="stroke:#181818;stroke-width:1;"/><text fill="#000000" font-family="sans-serif" font-size="13" lengthAdjust="spacing" textLength="7.23" x="1005.4567" y="231.1266">1</text><text fill="#000000" font-family="sans-serif" font-size="13" lengthAdjust="spacing" textLength="7.23" x="1005.2521" y="334.543">1</text></g><!--link RedheadDuck to RedheadDuck--><g id="link_RedheadDuck_RedheadDuck"><path codeLine="61" d="M1075.04,145.51 C1094.58,145.86 1110,153.35 1110,168 C1110,182.65 1100.579,190.0325 1081.039,190.3825 " fill="transparent" id="RedheadDuck-to-RedheadDuck" style="stroke:#181818;stroke-width:1;stroke-dasharray:7.0,7.0;"/><polygon fill="#181818" points="1075.04,190.49,1084.1102,194.3282,1080.0392,190.4005,1083.9669,186.3295,1075.04,190.49" style="stroke:#181818;stroke-width:1;"/></g><!--link RubberDuck to Quackable--><g id="link_RubberDuck_Quackable"><path codeLine="68" d="M853.8,218.68 C893.16,257.94 934.197,298.8771 968.077,332.6771 " fill="transparent" id="RubberDuck-to-Quackable" style="stroke:#181818;stroke-width:1;stroke-dasharray:7.0,7.0;"/><polygon fill="transparent" points="980.82,345.39,972.3147,328.4295,963.8394,336.9248,980.82,345.39" style="stroke:#181818;stroke-width:1;"/><text fill="#000000" font-family="sans-serif" font-size="13" lengthAdjust="spacing" textLength="7.23" x="852.7562" y="239.727">1</text><text fill="#000000" font-family="sans-serif" font-size="13" lengthAdjust="spacing" textLength="7.23" x="966.435" y="334.4827">1</text></g><!--link RubberDuck to RubberDuck--><g id="link_RubberDuck_RubberDuck"><path codeLine="69" d="M898.21,146.2 C918.39,148.37 933,155.64 933,168 C933,180.36 924.3556,186.9885 904.1756,189.1585 " fill="transparent" id="RubberDuck-to-RubberDuck" style="stroke:#181818;stroke-width:1;stroke-dasharray:7.0,7.0;"/><polygon fill="#181818" points="898.21,189.8,907.5861,192.8148,903.1813,189.2654,906.7307,184.8607,898.21,189.8" style="stroke:#181818;stroke-width:1;"/></g><!--link QuackCounter to Quackable--><g id="link_QuackCounter_Quackable"><path codeLine="79" d="M632.68,250.06 C661.02,267.56 691.88,284.76 722,298 C801.11,332.78 881.4797,352.2193 941.1697,364.1593 " fill="transparent" id="QuackCounter-to-Quackable" style="stroke:#181818;stroke-width:1;stroke-dasharray:7.0,7.0;"/><polygon fill="transparent" points="958.82,367.69,942.3465,358.2759,939.9928,370.0428,958.82,367.69" style="stroke:#181818;stroke-width:1;"/><text fill="#000000" font-family="sans-serif" font-size="13" lengthAdjust="spacing" textLength="7.23" x="636.0469" y="271.8572">1</text><text fill="#000000" font-family="sans-serif" font-size="13" lengthAdjust="spacing" textLength="7.23" x="943.691" y="362.5921">1</text></g><!--link QuackCounter to Quackable--><g id="link_QuackCounter_Quackable"><path codeLine="80" d="M657.44,234.43 C669.44,239.77 681.41,245.03 693,250 C785.61,289.73 889.3383,330.2403 953.2583,354.7703 " fill="transparent" id="QuackCounter-to-Quackable-1" style="stroke:#181818;stroke-width:1;"/><polygon fill="#181818" points="958.86,356.92,951.8906,349.961,954.1919,355.1286,949.0244,357.4299,958.86,356.92" style="stroke:#181818;stroke-width:1;"/><text fill="#000000" font-family="sans-serif" font-size="13" lengthAdjust="spacing" textLength="27.46" x="807" y="294.4951">duck</text></g><!--link QuackCounter to QuackCounter--><g id="link_QuackCounter_QuackCounter"><path codeLine="81" d="M657.05,147.59 C677.9,150.77 692,157.57 692,168 C692,178.43 683.8314,184.3254 662.9814,187.5054 " fill="transparent" id="QuackCounter-to-QuackCounter" style="stroke:#181818;stroke-width:1;stroke-dasharray:7.0,7.0;"/><polygon fill="#181818" points="657.05,188.41,666.5502,191.0073,661.9928,187.6561,665.344,183.0988,657.05,188.41" style="stroke:#181818;stroke-width:1;"/></g><!--SRC=[hPNFJuCm5CVl_IkQUS6OGRmjk92OBHeFnkWIByP3WOwXZ2eK4pEtlzt-W596IoBprjVNx-lxV1_heWoL9IH5uiOu8WMYf72NRFMzhA9tk0FmGaNEEOi-AyHNFdmcQSnYIbQqIFE4RxsXB-HbA4yykGVsm5PuSZc1hliJY4Ntq2E_0OKPjefTDx1r341a0cAP1SeooLC7_u3Jb1r3qsWDC7NAph9AjrN68mMaTZZLhgI8fj4U7hOepPrZZfTNnNiefGuxXYrshwVkzHH8SzBaHjkO6Klb1xNJQM1rqUZ9BI4b5bw8bPZiXkIZ1olhzH74_a0Brp7we5XC9U6n3xiUIdtTPNtOCHmv-SliT3FYw-pe- -EG_lWISaXgiR1EcvsyPvy-AcBr_cZnwJzPlVW8NtHvdqtB0f3cZ72D8cmhpU5sA2nfWIBAVgjThhtPd2SSRp1gpT5YWpd7zBfw1BqkxzDhMKllLHZYecrTXQUFLIizXgjL6x1KqambYYv8nSSDv_DbamW2U3QRtLnbQOxzCAl4l6DMvlXHQBk2URLbTpsinLRfmxkSCYVq6woFSj_1zbyWmLHMv4bPyq_kTX17-DlH3ppkx4NX1Wsf-_FHq-0N]--></g></svg>