<svg xmlns="http://www.w3.org/2000/svg" xmlns:xlink="http://www.w3.org/1999/xlink" contentStyleType="text/css" data-diagram-type="CLASS" height="470px" preserveAspectRatio="none" style="width:2217px;height:470px;background:#FFFFFF;" version="1.1" viewBox="0 0 2217 470" width="2217px" zoomAndPan="magnify"><defs/><g><!--cluster org--><g id="cluster_org"><path d="M8.5,6 L32.0518,6 A3.75,3.75 0 0 1 34.5518,8.5 L41.5518,29.6094 L1354.5,29.6094 A2.5,2.5 0 0 1 1357,32.1094 L1357,460.5 A2.5,2.5 0 0 1 1354.5,463 L8.5,463 A2.5,2.5 0 0 1 6,460.5 L6,8.5 A2.5,2.5 0 0 1 8.5,6 " fill="transparent" style="stroke:#000000;stroke-width:1.5;"/><line style="stroke:#000000;stroke-width:1.5;" x1="6" x2="41.5518" y1="29.6094" y2="29.6094"/><text fill="#000000" font-family="sans-serif" font-size="14" font-weight="bold" lengthAdjust="spacing" textLength="22.5518" x="10" y="22.5332">org</text></g><!--cluster requestedTest--><g id="cluster_requestedTest"><path d="M32.5,50 L129.1963,50 A3.75,3.75 0 0 1 131.6963,52.5 L138.6963,73.6094 L1330.5,73.6094 A2.5,2.5 0 0 1 1333,76.1094 L1333,436.5 A2.5,2.5 0 0 1 1330.5,439 L32.5,439 A2.5,2.5 0 0 1 30,436.5 L30,52.5 A2.5,2.5 0 0 1 32.5,50 " fill="transparent" style="stroke:#000000;stroke-width:1.5;"/><line style="stroke:#000000;stroke-width:1.5;" x1="30" x2="138.6963" y1="73.6094" y2="73.6094"/><text fill="#000000" font-family="sans-serif" font-size="14" font-weight="bold" lengthAdjust="spacing" textLength="95.6963" x="34" y="66.5332">requestedTest</text></g><!--cluster java--><g id="cluster_java"><path d="M1383.5,286 L1411.748,286 A3.75,3.75 0 0 1 1414.248,288.5 L1421.248,309.6094 L2207.5,309.6094 A2.5,2.5 0 0 1 2210,312.1094 L2210,451.5 A2.5,2.5 0 0 1 2207.5,454 L1383.5,454 A2.5,2.5 0 0 1 1381,451.5 L1381,288.5 A2.5,2.5 0 0 1 1383.5,286 " fill="transparent" style="stroke:#000000;stroke-width:1.5;"/><line style="stroke:#000000;stroke-width:1.5;" x1="1381" x2="1421.248" y1="309.6094" y2="309.6094"/><text fill="#000000" font-family="sans-serif" font-size="14" font-weight="bold" lengthAdjust="spacing" textLength="27.248" x="1385" y="302.5332">java</text></g><!--cluster io--><g id="cluster_io"><path d="M1407.5,330 L1420.9414,330 A3.75,3.75 0 0 1 1423.4414,332.5 L1430.4414,353.6094 L2057.5,353.6094 A2.5,2.5 0 0 1 2060,356.1094 L2060,427.5 A2.5,2.5 0 0 1 2057.5,430 L1407.5,430 A2.5,2.5 0 0 1 1405,427.5 L1405,332.5 A2.5,2.5 0 0 1 1407.5,330 " fill="transparent" style="stroke:#000000;stroke-width:1.5;"/><line style="stroke:#000000;stroke-width:1.5;" x1="1405" x2="1430.4414" y1="353.6094" y2="353.6094"/><text fill="#000000" font-family="sans-serif" font-size="14" font-weight="bold" lengthAdjust="spacing" textLength="12.4414" x="1409" y="346.5332">io</text></g><!--cluster lang--><g id="cluster_lang"><path d="M2086.5,330 L2116.2793,330 A3.75,3.75 0 0 1 2118.7793,332.5 L2125.7793,353.6094 L2183.5,353.6094 A2.5,2.5 0 0 1 2186,356.1094 L2186,427.5 A2.5,2.5 0 0 1 2183.5,430 L2086.5,430 A2.5,2.5 0 0 1 2084,427.5 L2084,332.5 A2.5,2.5 0 0 1 2086.5,330 " fill="transparent" style="stroke:#000000;stroke-width:1.5;"/><line style="stroke:#000000;stroke-width:1.5;" x1="2084" x2="2125.7793" y1="353.6094" y2="353.6094"/><text fill="#000000" font-family="sans-serif" font-size="14" font-weight="bold" lengthAdjust="spacing" textLength="28.7793" x="2088" y="346.5332">lang</text></g><!--class DecryptionInputStream--><g id="elem_DecryptionInputStream"><rect codeLine="2" fill="#F1F1F1" height="100.8281" id="DecryptionInputStream" rx="2.5" ry="2.5" style="stroke:#181818;stroke-width:0.5;" width="408.0879" x="682" y="103.5"/><ellipse cx="810.2046" cy="119.5" fill="#ADD1B2" rx="11" ry="11" style="stroke:#181818;stroke-width:1;"/><path d="M812.9702,115.375 Q813.1265,115.1563 813.314,115.0469 Q813.5015,114.9375 813.7202,114.9375 Q814.0952,114.9375 814.3296,115.2031 Q814.564,115.4531 814.564,116.0625 L814.564,117.5156 Q814.564,118.125 814.3296,118.3906 Q814.0952,118.6563 813.7202,118.6563 Q813.3765,118.6563 813.1733,118.4531 Q812.9702,118.2656 812.8608,117.75 Q812.814,117.3906 812.6265,117.2031 Q812.2983,116.8281 811.689,116.6094 Q811.0796,116.3906 810.4546,116.3906 Q809.689,116.3906 809.0483,116.7188 Q808.4233,117.0469 807.9233,117.7969 Q807.439,118.5469 807.439,119.5781 L807.439,120.6719 Q807.439,121.9063 808.3296,122.7344 Q809.2202,123.5469 810.814,123.5469 Q811.7515,123.5469 812.4077,123.2969 Q812.7983,123.1406 813.2202,122.7031 Q813.4858,122.4375 813.6265,122.3594 Q813.7827,122.2813 813.9858,122.2813 Q814.314,122.2813 814.564,122.5469 Q814.8296,122.7969 814.8296,123.1406 Q814.8296,123.4844 814.4858,123.8906 Q813.9858,124.4688 813.189,124.7969 Q812.1108,125.25 810.814,125.25 Q809.2983,125.25 808.0952,124.625 Q807.1108,124.125 806.4233,123.0625 Q805.7358,121.9844 805.7358,120.7031 L805.7358,119.5469 Q805.7358,118.2188 806.3452,117.0781 Q806.9702,115.9219 808.064,115.3125 Q809.1577,114.6875 810.3921,114.6875 Q811.1265,114.6875 811.7671,114.8594 Q812.4233,115.0156 812.9702,115.375 Z " fill="#000000"/><text fill="#000000" font-family="sans-serif" font-size="14" lengthAdjust="spacing" textLength="143.1787" x="830.7046" y="125.2285">DecryptionInputStream</text><line style="stroke:#181818;stroke-width:0.5;" x1="683" x2="1089.0879" y1="135.5" y2="135.5"/><line style="stroke:#181818;stroke-width:0.5;" x1="683" x2="1089.0879" y1="143.5" y2="143.5"/><text fill="#000000" font-family="sans-serif" font-size="14" lengthAdjust="spacing" textLength="396.0879" x="688" y="162.0332">&lt;init&gt;(java/io/InputStream, org/requestedTest/IDecryption): Void</text><text fill="#000000" font-family="sans-serif" font-size="14" lengthAdjust="spacing" textLength="60.6895" x="688" y="179.6426">read(): Int</text><text fill="#000000" font-family="sans-serif" font-size="14" lengthAdjust="spacing" textLength="143.1719" x="688" y="197.252">read(Byte[], Int, Int): Int</text></g><!--class IDecryption--><g id="elem_IDecryption"><rect codeLine="23" fill="#F1F1F1" height="65.6094" id="IDecryption" rx="2.5" ry="2.5" style="stroke:#181818;stroke-width:0.5;" width="135.7031" x="787" y="357"/><ellipse cx="816.8034" cy="373" fill="#B4A7E5" rx="11" ry="11" style="stroke:#181818;stroke-width:1;"/><path d="M817.7565,369.6406 L817.7565,376.2969 L819.4753,376.2969 Q820.0847,376.2969 820.3503,376.5313 Q820.6159,376.7656 820.6159,377.1563 Q820.6159,377.5313 820.3503,377.7656 Q820.0847,378 819.4753,378 L814.3347,378 Q813.7253,378 813.4597,377.7656 Q813.194,377.5313 813.194,377.1406 Q813.194,376.7656 813.4597,376.5313 Q813.7253,376.2969 814.3347,376.2969 L816.0534,376.2969 L816.0534,369.6406 L814.3347,369.6406 Q813.7253,369.6406 813.4597,369.4063 Q813.194,369.1719 813.194,368.7813 Q813.194,368.4063 813.4597,368.1719 Q813.7253,367.9375 814.3347,367.9375 L819.4753,367.9375 Q820.0847,367.9375 820.3503,368.1719 Q820.6159,368.4063 820.6159,368.7813 Q820.6159,369.1719 820.3503,369.4063 Q820.0847,369.6406 819.4753,369.6406 L817.7565,369.6406 Z " fill="#000000"/><text fill="#000000" font-family="sans-serif" font-size="14" font-style="italic" lengthAdjust="spacing" textLength="70.8066" x="834.0931" y="378.7285">IDecryption</text><line style="stroke:#181818;stroke-width:0.5;" x1="788" x2="921.7031" y1="389" y2="389"/><line style="stroke:#181818;stroke-width:0.5;" x1="788" x2="921.7031" y1="397" y2="397"/><text fill="#000000" font-family="sans-serif" font-size="14" lengthAdjust="spacing" textLength="123.7031" x="793" y="415.5332">decrypt(Char): Char</text></g><!--class EncryptionOutputStream--><g id="elem_EncryptionOutputStream"><rect codeLine="13" fill="#F1F1F1" height="83.2188" id="EncryptionOutputStream" rx="2.5" ry="2.5" style="stroke:#181818;stroke-width:0.5;" width="418.2051" x="229" y="112.5"/><ellipse cx="357.2046" cy="128.5" fill="#ADD1B2" rx="11" ry="11" style="stroke:#181818;stroke-width:1;"/><path d="M359.9702,124.375 Q360.1265,124.1563 360.314,124.0469 Q360.5015,123.9375 360.7202,123.9375 Q361.0952,123.9375 361.3296,124.2031 Q361.564,124.4531 361.564,125.0625 L361.564,126.5156 Q361.564,127.125 361.3296,127.3906 Q361.0952,127.6563 360.7202,127.6563 Q360.3765,127.6563 360.1733,127.4531 Q359.9702,127.2656 359.8608,126.75 Q359.814,126.3906 359.6265,126.2031 Q359.2983,125.8281 358.689,125.6094 Q358.0796,125.3906 357.4546,125.3906 Q356.689,125.3906 356.0483,125.7188 Q355.4233,126.0469 354.9233,126.7969 Q354.439,127.5469 354.439,128.5781 L354.439,129.6719 Q354.439,130.9063 355.3296,131.7344 Q356.2202,132.5469 357.814,132.5469 Q358.7515,132.5469 359.4077,132.2969 Q359.7983,132.1406 360.2202,131.7031 Q360.4858,131.4375 360.6265,131.3594 Q360.7827,131.2813 360.9858,131.2813 Q361.314,131.2813 361.564,131.5469 Q361.8296,131.7969 361.8296,132.1406 Q361.8296,132.4844 361.4858,132.8906 Q360.9858,133.4688 360.189,133.7969 Q359.1108,134.25 357.814,134.25 Q356.2983,134.25 355.0952,133.625 Q354.1108,133.125 353.4233,132.0625 Q352.7358,130.9844 352.7358,129.7031 L352.7358,128.5469 Q352.7358,127.2188 353.3452,126.0781 Q353.9702,124.9219 355.064,124.3125 Q356.1577,123.6875 357.3921,123.6875 Q358.1265,123.6875 358.7671,123.8594 Q359.4233,124.0156 359.9702,124.375 Z " fill="#000000"/><text fill="#000000" font-family="sans-serif" font-size="14" lengthAdjust="spacing" textLength="153.2959" x="377.7046" y="134.2285">EncryptionOutputStream</text><line style="stroke:#181818;stroke-width:0.5;" x1="230" x2="646.2051" y1="144.5" y2="144.5"/><line style="stroke:#181818;stroke-width:0.5;" x1="230" x2="646.2051" y1="152.5" y2="152.5"/><text fill="#000000" font-family="sans-serif" font-size="14" lengthAdjust="spacing" textLength="406.2051" x="235" y="171.0332">&lt;init&gt;(java/io/OutputStream, org/requestedTest/IEncryption): Void</text><text fill="#000000" font-family="sans-serif" font-size="14" lengthAdjust="spacing" textLength="90.248" x="235" y="188.6426">write(Int): Void</text></g><!--class IEncryption--><g id="elem_IEncryption"><rect codeLine="27" fill="#F1F1F1" height="65.6094" id="IEncryption" rx="2.5" ry="2.5" style="stroke:#181818;stroke-width:0.5;" width="135.7031" x="339" y="357"/><ellipse cx="369.151" cy="373" fill="#B4A7E5" rx="11" ry="11" style="stroke:#181818;stroke-width:1;"/><path d="M370.1042,369.6406 L370.1042,376.2969 L371.8229,376.2969 Q372.4323,376.2969 372.6979,376.5313 Q372.9635,376.7656 372.9635,377.1563 Q372.9635,377.5313 372.6979,377.7656 Q372.4323,378 371.8229,378 L366.6823,378 Q366.0729,378 365.8073,377.7656 Q365.5417,377.5313 365.5417,377.1406 Q365.5417,376.7656 365.8073,376.5313 Q366.0729,376.2969 366.6823,376.2969 L368.401,376.2969 L368.401,369.6406 L366.6823,369.6406 Q366.0729,369.6406 365.8073,369.4063 Q365.5417,369.1719 365.5417,368.7813 Q365.5417,368.4063 365.8073,368.1719 Q366.0729,367.9375 366.6823,367.9375 L371.8229,367.9375 Q372.4323,367.9375 372.6979,368.1719 Q372.9635,368.4063 372.9635,368.7813 Q372.9635,369.1719 372.6979,369.4063 Q372.4323,369.6406 371.8229,369.6406 L370.1042,369.6406 Z " fill="#000000"/><text fill="#000000" font-family="sans-serif" font-size="14" font-style="italic" lengthAdjust="spacing" textLength="70.0342" x="386.5179" y="378.7285">IEncryption</text><line style="stroke:#181818;stroke-width:0.5;" x1="340" x2="473.7031" y1="389" y2="389"/><line style="stroke:#181818;stroke-width:0.5;" x1="340" x2="473.7031" y1="397" y2="397"/><text fill="#000000" font-family="sans-serif" font-size="14" lengthAdjust="spacing" textLength="123.7031" x="345" y="415.5332">encrypt(Char): Char</text></g><!--class SubstitutionCipher--><g id="elem_SubstitutionCipher"><rect codeLine="31" fill="#F1F1F1" height="136.0469" id="SubstitutionCipher" rx="2.5" ry="2.5" style="stroke:#181818;stroke-width:0.5;" width="146.6201" x="46.5" y="86"/><ellipse cx="61.5993" cy="102" fill="#ADD1B2" rx="11" ry="11" style="stroke:#181818;stroke-width:1;"/><path d="M64.3649,97.875 Q64.5212,97.6563 64.7087,97.5469 Q64.8962,97.4375 65.1149,97.4375 Q65.4899,97.4375 65.7243,97.7031 Q65.9587,97.9531 65.9587,98.5625 L65.9587,100.0156 Q65.9587,100.625 65.7243,100.8906 Q65.4899,101.1563 65.1149,101.1563 Q64.7712,101.1563 64.5681,100.9531 Q64.3649,100.7656 64.2556,100.25 Q64.2087,99.8906 64.0212,99.7031 Q63.6931,99.3281 63.0837,99.1094 Q62.4743,98.8906 61.8493,98.8906 Q61.0837,98.8906 60.4431,99.2188 Q59.8181,99.5469 59.3181,100.2969 Q58.8337,101.0469 58.8337,102.0781 L58.8337,103.1719 Q58.8337,104.4063 59.7243,105.2344 Q60.6149,106.0469 62.2087,106.0469 Q63.1462,106.0469 63.8024,105.7969 Q64.1931,105.6406 64.6149,105.2031 Q64.8806,104.9375 65.0212,104.8594 Q65.1774,104.7813 65.3806,104.7813 Q65.7087,104.7813 65.9587,105.0469 Q66.2243,105.2969 66.2243,105.6406 Q66.2243,105.9844 65.8806,106.3906 Q65.3806,106.9688 64.5837,107.2969 Q63.5056,107.75 62.2087,107.75 Q60.6931,107.75 59.4899,107.125 Q58.5056,106.625 57.8181,105.5625 Q57.1306,104.4844 57.1306,103.2031 L57.1306,102.0469 Q57.1306,100.7188 57.7399,99.5781 Q58.3649,98.4219 59.4587,97.8125 Q60.5524,97.1875 61.7868,97.1875 Q62.5212,97.1875 63.1618,97.3594 Q63.8181,97.5156 64.3649,97.875 Z " fill="#000000"/><text fill="#000000" font-family="sans-serif" font-size="14" lengthAdjust="spacing" textLength="114.3994" x="75.6214" y="107.7285">SubstitutionCipher</text><line style="stroke:#181818;stroke-width:0.5;" x1="47.5" x2="192.1201" y1="118" y2="118"/><text fill="#000000" font-family="sans-serif" font-size="14" lengthAdjust="spacing" textLength="134.6201" x="52.5" y="136.5332">encryptionKey: Char[]</text><text fill="#000000" font-family="sans-serif" font-size="14" lengthAdjust="spacing" textLength="134.6201" x="52.5" y="154.1426">decryptionKey: Char[]</text><line style="stroke:#181818;stroke-width:0.5;" x1="47.5" x2="192.1201" y1="161.2188" y2="161.2188"/><text fill="#000000" font-family="sans-serif" font-size="14" lengthAdjust="spacing" textLength="79.3721" x="52.5" y="179.752">&lt;init&gt;(): Void</text><text fill="#000000" font-family="sans-serif" font-size="14" lengthAdjust="spacing" textLength="123.7031" x="52.5" y="197.3613">encrypt(Char): Char</text><text fill="#000000" font-family="sans-serif" font-size="14" lengthAdjust="spacing" textLength="123.7031" x="52.5" y="214.9707">decrypt(Char): Char</text></g><!--class TextEditorApp--><g id="elem_TextEditorApp"><rect codeLine="41" fill="#F1F1F1" height="83.2188" id="TextEditorApp" rx="2.5" ry="2.5" style="stroke:#181818;stroke-width:0.5;" width="191.751" x="1125" y="112.5"/><ellipse cx="1172.2705" cy="128.5" fill="#ADD1B2" rx="11" ry="11" style="stroke:#181818;stroke-width:1;"/><path d="M1175.0361,124.375 Q1175.1924,124.1563 1175.3799,124.0469 Q1175.5674,123.9375 1175.7861,123.9375 Q1176.1611,123.9375 1176.3955,124.2031 Q1176.6299,124.4531 1176.6299,125.0625 L1176.6299,126.5156 Q1176.6299,127.125 1176.3955,127.3906 Q1176.1611,127.6563 1175.7861,127.6563 Q1175.4424,127.6563 1175.2393,127.4531 Q1175.0361,127.2656 1174.9268,126.75 Q1174.8799,126.3906 1174.6924,126.2031 Q1174.3643,125.8281 1173.7549,125.6094 Q1173.1455,125.3906 1172.5205,125.3906 Q1171.7549,125.3906 1171.1143,125.7188 Q1170.4893,126.0469 1169.9893,126.7969 Q1169.5049,127.5469 1169.5049,128.5781 L1169.5049,129.6719 Q1169.5049,130.9063 1170.3955,131.7344 Q1171.2861,132.5469 1172.8799,132.5469 Q1173.8174,132.5469 1174.4736,132.2969 Q1174.8643,132.1406 1175.2861,131.7031 Q1175.5518,131.4375 1175.6924,131.3594 Q1175.8486,131.2813 1176.0518,131.2813 Q1176.3799,131.2813 1176.6299,131.5469 Q1176.8955,131.7969 1176.8955,132.1406 Q1176.8955,132.4844 1176.5518,132.8906 Q1176.0518,133.4688 1175.2549,133.7969 Q1174.1768,134.25 1172.8799,134.25 Q1171.3643,134.25 1170.1611,133.625 Q1169.1768,133.125 1168.4893,132.0625 Q1167.8018,130.9844 1167.8018,129.7031 L1167.8018,128.5469 Q1167.8018,127.2188 1168.4111,126.0781 Q1169.0361,124.9219 1170.1299,124.3125 Q1171.2236,123.6875 1172.458,123.6875 Q1173.1924,123.6875 1173.833,123.8594 Q1174.4893,124.0156 1175.0361,124.375 Z " fill="#000000"/><text fill="#000000" font-family="sans-serif" font-size="14" lengthAdjust="spacing" textLength="88.71" x="1192.7705" y="134.2285">TextEditorApp</text><line style="stroke:#181818;stroke-width:0.5;" x1="1126" x2="1315.751" y1="144.5" y2="144.5"/><line style="stroke:#181818;stroke-width:0.5;" x1="1126" x2="1315.751" y1="152.5" y2="152.5"/><text fill="#000000" font-family="sans-serif" font-size="14" lengthAdjust="spacing" textLength="79.3721" x="1131" y="171.0332">&lt;init&gt;(): Void</text><text fill="#000000" font-family="sans-serif" font-size="14" lengthAdjust="spacing" textLength="179.751" x="1131" y="188.6426">main(java/lang/String[]): Void</text></g><!--class FilterInputStream--><g id="elem_FilterInputStream"><rect fill="#F1F1F1" height="48" id="FilterInputStream" rx="2.5" ry="2.5" style="stroke:#181818;stroke-width:0.5;" width="139.3721" x="1904.5" y="366"/><ellipse cx="1919.5" cy="382" fill="#ADD1B2" rx="11" ry="11" style="stroke:#181818;stroke-width:1;"/><path d="M1922.2656,377.875 Q1922.4219,377.6563 1922.6094,377.5469 Q1922.7969,377.4375 1923.0156,377.4375 Q1923.3906,377.4375 1923.625,377.7031 Q1923.8594,377.9531 1923.8594,378.5625 L1923.8594,380.0156 Q1923.8594,380.625 1923.625,380.8906 Q1923.3906,381.1563 1923.0156,381.1563 Q1922.6719,381.1563 1922.4688,380.9531 Q1922.2656,380.7656 1922.1563,380.25 Q1922.1094,379.8906 1921.9219,379.7031 Q1921.5938,379.3281 1920.9844,379.1094 Q1920.375,378.8906 1919.75,378.8906 Q1918.9844,378.8906 1918.3438,379.2188 Q1917.7188,379.5469 1917.2188,380.2969 Q1916.7344,381.0469 1916.7344,382.0781 L1916.7344,383.1719 Q1916.7344,384.4063 1917.625,385.2344 Q1918.5156,386.0469 1920.1094,386.0469 Q1921.0469,386.0469 1921.7031,385.7969 Q1922.0938,385.6406 1922.5156,385.2031 Q1922.7813,384.9375 1922.9219,384.8594 Q1923.0781,384.7813 1923.2813,384.7813 Q1923.6094,384.7813 1923.8594,385.0469 Q1924.125,385.2969 1924.125,385.6406 Q1924.125,385.9844 1923.7813,386.3906 Q1923.2813,386.9688 1922.4844,387.2969 Q1921.4063,387.75 1920.1094,387.75 Q1918.5938,387.75 1917.3906,387.125 Q1916.4063,386.625 1915.7188,385.5625 Q1915.0313,384.4844 1915.0313,383.2031 L1915.0313,382.0469 Q1915.0313,380.7188 1915.6406,379.5781 Q1916.2656,378.4219 1917.3594,377.8125 Q1918.4531,377.1875 1919.6875,377.1875 Q1920.4219,377.1875 1921.0625,377.3594 Q1921.7188,377.5156 1922.2656,377.875 Z " fill="#000000"/><text fill="#000000" font-family="sans-serif" font-size="14" lengthAdjust="spacing" textLength="107.3721" x="1933.5" y="387.7285">FilterInputStream</text><line style="stroke:#181818;stroke-width:0.5;" x1="1905.5" x2="2042.8721" y1="398" y2="398"/><line style="stroke:#181818;stroke-width:0.5;" x1="1905.5" x2="2042.8721" y1="406" y2="406"/></g><!--class InputStream--><g id="elem_InputStream"><rect fill="#F1F1F1" height="48" id="InputStream" rx="2.5" ry="2.5" style="stroke:#181818;stroke-width:0.5;" width="108.2617" x="1761" y="366"/><ellipse cx="1776" cy="382" fill="#ADD1B2" rx="11" ry="11" style="stroke:#181818;stroke-width:1;"/><path d="M1778.7656,377.875 Q1778.9219,377.6563 1779.1094,377.5469 Q1779.2969,377.4375 1779.5156,377.4375 Q1779.8906,377.4375 1780.125,377.7031 Q1780.3594,377.9531 1780.3594,378.5625 L1780.3594,380.0156 Q1780.3594,380.625 1780.125,380.8906 Q1779.8906,381.1563 1779.5156,381.1563 Q1779.1719,381.1563 1778.9688,380.9531 Q1778.7656,380.7656 1778.6563,380.25 Q1778.6094,379.8906 1778.4219,379.7031 Q1778.0938,379.3281 1777.4844,379.1094 Q1776.875,378.8906 1776.25,378.8906 Q1775.4844,378.8906 1774.8438,379.2188 Q1774.2188,379.5469 1773.7188,380.2969 Q1773.2344,381.0469 1773.2344,382.0781 L1773.2344,383.1719 Q1773.2344,384.4063 1774.125,385.2344 Q1775.0156,386.0469 1776.6094,386.0469 Q1777.5469,386.0469 1778.2031,385.7969 Q1778.5938,385.6406 1779.0156,385.2031 Q1779.2813,384.9375 1779.4219,384.8594 Q1779.5781,384.7813 1779.7813,384.7813 Q1780.1094,384.7813 1780.3594,385.0469 Q1780.625,385.2969 1780.625,385.6406 Q1780.625,385.9844 1780.2813,386.3906 Q1779.7813,386.9688 1778.9844,387.2969 Q1777.9063,387.75 1776.6094,387.75 Q1775.0938,387.75 1773.8906,387.125 Q1772.9063,386.625 1772.2188,385.5625 Q1771.5313,384.4844 1771.5313,383.2031 L1771.5313,382.0469 Q1771.5313,380.7188 1772.1406,379.5781 Q1772.7656,378.4219 1773.8594,377.8125 Q1774.9531,377.1875 1776.1875,377.1875 Q1776.9219,377.1875 1777.5625,377.3594 Q1778.2188,377.5156 1778.7656,377.875 Z " fill="#000000"/><text fill="#000000" font-family="sans-serif" font-size="14" lengthAdjust="spacing" textLength="76.2617" x="1790" y="387.7285">InputStream</text><line style="stroke:#181818;stroke-width:0.5;" x1="1762" x2="1868.2617" y1="398" y2="398"/><line style="stroke:#181818;stroke-width:0.5;" x1="1762" x2="1868.2617" y1="406" y2="406"/></g><!--class FilterOutputStream--><g id="elem_FilterOutputStream"><rect fill="#F1F1F1" height="48" id="FilterOutputStream" rx="2.5" ry="2.5" style="stroke:#181818;stroke-width:0.5;" width="150.2617" x="1576" y="366"/><ellipse cx="1591" cy="382" fill="#ADD1B2" rx="11" ry="11" style="stroke:#181818;stroke-width:1;"/><path d="M1593.7656,377.875 Q1593.9219,377.6563 1594.1094,377.5469 Q1594.2969,377.4375 1594.5156,377.4375 Q1594.8906,377.4375 1595.125,377.7031 Q1595.3594,377.9531 1595.3594,378.5625 L1595.3594,380.0156 Q1595.3594,380.625 1595.125,380.8906 Q1594.8906,381.1563 1594.5156,381.1563 Q1594.1719,381.1563 1593.9688,380.9531 Q1593.7656,380.7656 1593.6563,380.25 Q1593.6094,379.8906 1593.4219,379.7031 Q1593.0938,379.3281 1592.4844,379.1094 Q1591.875,378.8906 1591.25,378.8906 Q1590.4844,378.8906 1589.8438,379.2188 Q1589.2188,379.5469 1588.7188,380.2969 Q1588.2344,381.0469 1588.2344,382.0781 L1588.2344,383.1719 Q1588.2344,384.4063 1589.125,385.2344 Q1590.0156,386.0469 1591.6094,386.0469 Q1592.5469,386.0469 1593.2031,385.7969 Q1593.5938,385.6406 1594.0156,385.2031 Q1594.2813,384.9375 1594.4219,384.8594 Q1594.5781,384.7813 1594.7813,384.7813 Q1595.1094,384.7813 1595.3594,385.0469 Q1595.625,385.2969 1595.625,385.6406 Q1595.625,385.9844 1595.2813,386.3906 Q1594.7813,386.9688 1593.9844,387.2969 Q1592.9063,387.75 1591.6094,387.75 Q1590.0938,387.75 1588.8906,387.125 Q1587.9063,386.625 1587.2188,385.5625 Q1586.5313,384.4844 1586.5313,383.2031 L1586.5313,382.0469 Q1586.5313,380.7188 1587.1406,379.5781 Q1587.7656,378.4219 1588.8594,377.8125 Q1589.9531,377.1875 1591.1875,377.1875 Q1591.9219,377.1875 1592.5625,377.3594 Q1593.2188,377.5156 1593.7656,377.875 Z " fill="#000000"/><text fill="#000000" font-family="sans-serif" font-size="14" lengthAdjust="spacing" textLength="118.2617" x="1605" y="387.7285">FilterOutputStream</text><line style="stroke:#181818;stroke-width:0.5;" x1="1577" x2="1725.2617" y1="398" y2="398"/><line style="stroke:#181818;stroke-width:0.5;" x1="1577" x2="1725.2617" y1="406" y2="406"/></g><!--class OutputStream--><g id="elem_OutputStream"><rect fill="#F1F1F1" height="48" id="OutputStream" rx="2.5" ry="2.5" style="stroke:#181818;stroke-width:0.5;" width="119.1514" x="1421.5" y="366"/><ellipse cx="1436.5" cy="382" fill="#ADD1B2" rx="11" ry="11" style="stroke:#181818;stroke-width:1;"/><path d="M1439.2656,377.875 Q1439.4219,377.6563 1439.6094,377.5469 Q1439.7969,377.4375 1440.0156,377.4375 Q1440.3906,377.4375 1440.625,377.7031 Q1440.8594,377.9531 1440.8594,378.5625 L1440.8594,380.0156 Q1440.8594,380.625 1440.625,380.8906 Q1440.3906,381.1563 1440.0156,381.1563 Q1439.6719,381.1563 1439.4688,380.9531 Q1439.2656,380.7656 1439.1563,380.25 Q1439.1094,379.8906 1438.9219,379.7031 Q1438.5938,379.3281 1437.9844,379.1094 Q1437.375,378.8906 1436.75,378.8906 Q1435.9844,378.8906 1435.3438,379.2188 Q1434.7188,379.5469 1434.2188,380.2969 Q1433.7344,381.0469 1433.7344,382.0781 L1433.7344,383.1719 Q1433.7344,384.4063 1434.625,385.2344 Q1435.5156,386.0469 1437.1094,386.0469 Q1438.0469,386.0469 1438.7031,385.7969 Q1439.0938,385.6406 1439.5156,385.2031 Q1439.7813,384.9375 1439.9219,384.8594 Q1440.0781,384.7813 1440.2813,384.7813 Q1440.6094,384.7813 1440.8594,385.0469 Q1441.125,385.2969 1441.125,385.6406 Q1441.125,385.9844 1440.7813,386.3906 Q1440.2813,386.9688 1439.4844,387.2969 Q1438.4063,387.75 1437.1094,387.75 Q1435.5938,387.75 1434.3906,387.125 Q1433.4063,386.625 1432.7188,385.5625 Q1432.0313,384.4844 1432.0313,383.2031 L1432.0313,382.0469 Q1432.0313,380.7188 1432.6406,379.5781 Q1433.2656,378.4219 1434.3594,377.8125 Q1435.4531,377.1875 1436.6875,377.1875 Q1437.4219,377.1875 1438.0625,377.3594 Q1438.7188,377.5156 1439.2656,377.875 Z " fill="#000000"/><text fill="#000000" font-family="sans-serif" font-size="14" lengthAdjust="spacing" textLength="87.1514" x="1450.5" y="387.7285">OutputStream</text><line style="stroke:#181818;stroke-width:0.5;" x1="1422.5" x2="1539.6514" y1="398" y2="398"/><line style="stroke:#181818;stroke-width:0.5;" x1="1422.5" x2="1539.6514" y1="406" y2="406"/></g><!--class String--><g id="elem_String"><rect fill="#F1F1F1" height="48" id="String" rx="2.5" ry="2.5" style="stroke:#181818;stroke-width:0.5;" width="68.5723" x="2100.5" y="366"/><ellipse cx="2115.5" cy="382" fill="#ADD1B2" rx="11" ry="11" style="stroke:#181818;stroke-width:1;"/><path d="M2118.2656,377.875 Q2118.4219,377.6563 2118.6094,377.5469 Q2118.7969,377.4375 2119.0156,377.4375 Q2119.3906,377.4375 2119.625,377.7031 Q2119.8594,377.9531 2119.8594,378.5625 L2119.8594,380.0156 Q2119.8594,380.625 2119.625,380.8906 Q2119.3906,381.1563 2119.0156,381.1563 Q2118.6719,381.1563 2118.4688,380.9531 Q2118.2656,380.7656 2118.1563,380.25 Q2118.1094,379.8906 2117.9219,379.7031 Q2117.5938,379.3281 2116.9844,379.1094 Q2116.375,378.8906 2115.75,378.8906 Q2114.9844,378.8906 2114.3438,379.2188 Q2113.7188,379.5469 2113.2188,380.2969 Q2112.7344,381.0469 2112.7344,382.0781 L2112.7344,383.1719 Q2112.7344,384.4063 2113.625,385.2344 Q2114.5156,386.0469 2116.1094,386.0469 Q2117.0469,386.0469 2117.7031,385.7969 Q2118.0938,385.6406 2118.5156,385.2031 Q2118.7813,384.9375 2118.9219,384.8594 Q2119.0781,384.7813 2119.2813,384.7813 Q2119.6094,384.7813 2119.8594,385.0469 Q2120.125,385.2969 2120.125,385.6406 Q2120.125,385.9844 2119.7813,386.3906 Q2119.2813,386.9688 2118.4844,387.2969 Q2117.4063,387.75 2116.1094,387.75 Q2114.5938,387.75 2113.3906,387.125 Q2112.4063,386.625 2111.7188,385.5625 Q2111.0313,384.4844 2111.0313,383.2031 L2111.0313,382.0469 Q2111.0313,380.7188 2111.6406,379.5781 Q2112.2656,378.4219 2113.3594,377.8125 Q2114.4531,377.1875 2115.6875,377.1875 Q2116.4219,377.1875 2117.0625,377.3594 Q2117.7188,377.5156 2118.2656,377.875 Z " fill="#000000"/><text fill="#000000" font-family="sans-serif" font-size="14" lengthAdjust="spacing" textLength="36.5723" x="2129.5" y="387.7285">String</text><line style="stroke:#181818;stroke-width:0.5;" x1="2101.5" x2="2168.0723" y1="398" y2="398"/><line style="stroke:#181818;stroke-width:0.5;" x1="2101.5" x2="2168.0723" y1="406" y2="406"/></g><!--link DecryptionInputStream to FilterInputStream--><g id="link_DecryptionInputStream_FilterInputStream"><path codeLine="7" d="M1033.86,204.56 C1058.4,211.36 1083.75,217.53 1108,222 C1278.68,253.49 1733.77,196.49 1887,278 C1923.53,297.43 1941.514,323.5747 1955.104,349.9847 " fill="transparent" id="DecryptionInputStream-to-FilterInputStream" style="stroke:#181818;stroke-width:1;"/><polygon fill="transparent" points="1963.34,365.99,1960.4391,347.2394,1949.7689,352.73,1963.34,365.99" style="stroke:#181818;stroke-width:1;"/></g><!--link DecryptionInputStream to InputStream--><g id="link_DecryptionInputStream_InputStream"><path codeLine="8" d="M1038.3,204.56 C1061.49,211.05 1085.27,217.13 1108,222 C1209.67,243.76 1237.51,234.55 1340,252 C1378.07,258.48 1386.65,265.5 1425,270 C1442.61,272.07 1728.56,269.29 1744,278 C1777.68,296.99 1795.7505,333.6519 1805.5605,360.2019 " fill="transparent" id="DecryptionInputStream-to-InputStream" style="stroke:#181818;stroke-width:1;"/><polygon fill="#181818" points="1807.64,365.83,1808.2728,356.0015,1805.9071,361.1399,1800.7686,358.7742,1807.64,365.83" style="stroke:#181818;stroke-width:1;"/></g><!--link DecryptionInputStream to IDecryption--><g id="link_DecryptionInputStream_IDecryption"><path codeLine="9" d="M869.96,204.69 C868.09,225.01 866.77,248.7 864,270 C860.13,299.78 853.3197,327.1796 850.2397,350.9896 " fill="transparent" id="DecryptionInputStream-to-IDecryption" style="stroke:#181818;stroke-width:1;"/><polygon fill="#181818" points="849.47,356.94,854.5915,348.5275,850.1114,351.9813,846.6576,347.5012,849.47,356.94" style="stroke:#181818;stroke-width:1;"/></g><!--link DecryptionInputStream to IDecryption--><g id="link_DecryptionInputStream_IDecryption"><path codeLine="10" d="M902.37,204.69 C903.09,225.01 901.77,248.7 899,270 C895.13,299.78 889.6818,327.5215 880.6318,351.3315 " fill="transparent" id="DecryptionInputStream-to-IDecryption-1" style="stroke:#181818;stroke-width:1;"/><polygon fill="#181818" points="878.5,356.94,885.4367,349.9484,880.2765,352.2662,877.9586,347.106,878.5,356.94" style="stroke:#181818;stroke-width:1;"/></g><!--link DecryptionInputStream to IDecryption--><g id="link_DecryptionInputStream_IDecryption"><path codeLine="11" d="M841.92,204.62 C831.75,218.95 822.34,235.27 817,252 C805.62,287.62 818.2576,323.7337 832.7276,351.6337 " fill="transparent" id="DecryptionInputStream-to-IDecryption-2" style="stroke:#181818;stroke-width:1;"/><polygon fill="#181818" points="835.49,356.96,834.8972,347.129,833.188,352.5214,827.7955,350.8122,835.49,356.96" style="stroke:#181818;stroke-width:1;"/><text fill="#000000" font-family="sans-serif" font-size="13" lengthAdjust="spacing" textLength="54.1899" x="818" y="266.4951">decryptor</text></g><!--link EncryptionOutputStream to FilterOutputStream--><g id="link_EncryptionOutputStream_FilterOutputStream"><path codeLine="17" d="M556.35,195.53 C590.98,205.86 629.17,215.79 665,222 C897.9,262.39 960.63,230.25 1196,252 C1258.47,257.77 1273.48,264.86 1336,270 C1360.6,272.02 1535.83,267.16 1558,278 C1596.17,296.66 1615.7199,323.3299 1630.5499,349.9899 " fill="transparent" id="EncryptionOutputStream-to-FilterOutputStream" style="stroke:#181818;stroke-width:1;"/><polygon fill="transparent" points="1639.3,365.72,1635.7933,347.0732,1625.3065,352.9066,1639.3,365.72" style="stroke:#181818;stroke-width:1;"/></g><!--link EncryptionOutputStream to OutputStream--><g id="link_EncryptionOutputStream_OutputStream"><path codeLine="18" d="M558.52,195.52 C592.61,205.62 629.96,215.43 665,222 C701.6,228.86 1298.19,264.76 1333,278 C1383.73,297.3 1427.6986,335.2865 1454.6386,361.7365 " fill="transparent" id="EncryptionOutputStream-to-OutputStream" style="stroke:#181818;stroke-width:1;"/><polygon fill="#181818" points="1458.92,365.94,1455.3003,356.7804,1455.3522,362.4371,1449.6956,362.489,1458.92,365.94" style="stroke:#181818;stroke-width:1;"/></g><!--link EncryptionOutputStream to IEncryption--><g id="link_EncryptionOutputStream_IEncryption"><path codeLine="19" d="M422.86,195.59 C420.47,217.68 419.19,245.43 416,270 C412.13,299.78 405.3197,327.1796 402.2397,350.9896 " fill="transparent" id="EncryptionOutputStream-to-IEncryption" style="stroke:#181818;stroke-width:1;"/><polygon fill="#181818" points="401.47,356.94,406.5915,348.5275,402.1114,351.9813,398.6576,347.5012,401.47,356.94" style="stroke:#181818;stroke-width:1;"/></g><!--link EncryptionOutputStream to IEncryption--><g id="link_EncryptionOutputStream_IEncryption"><path codeLine="20" d="M453.89,195.59 C455.47,217.68 454.19,245.43 451,270 C447.13,299.78 441.6818,327.5215 432.6318,351.3315 " fill="transparent" id="EncryptionOutputStream-to-IEncryption-1" style="stroke:#181818;stroke-width:1;"/><polygon fill="#181818" points="430.5,356.94,437.4367,349.9484,432.2765,352.2662,429.9586,347.106,430.5,356.94" style="stroke:#181818;stroke-width:1;"/></g><!--link EncryptionOutputStream to IEncryption--><g id="link_EncryptionOutputStream_IEncryption"><path codeLine="21" d="M400.46,195.8 C387.91,212.06 375.48,231.72 369,252 C357.62,287.62 370.2576,323.7337 384.7276,351.6337 " fill="transparent" id="EncryptionOutputStream-to-IEncryption-2" style="stroke:#181818;stroke-width:1;"/><polygon fill="#181818" points="387.49,356.96,386.8972,347.129,385.188,352.5214,379.7955,350.8122,387.49,356.96" style="stroke:#181818;stroke-width:1;"/><text fill="#000000" font-family="sans-serif" font-size="13" lengthAdjust="spacing" textLength="54.1899" x="370" y="266.4951">encryptor</text></g><!--link SubstitutionCipher to IEncryption--><g id="link_SubstitutionCipher_IEncryption"><path codeLine="38" d="M174.01,222.13 C188.74,238.64 205.28,255.68 222,270 C261.15,303.54 294.9075,325.738 332.7675,347.798 " fill="transparent" id="SubstitutionCipher-to-IEncryption" style="stroke:#181818;stroke-width:1;stroke-dasharray:7.0,7.0;"/><polygon fill="transparent" points="348.32,356.86,335.7882,342.6138,329.7468,352.9821,348.32,356.86" style="stroke:#181818;stroke-width:1;"/></g><!--link SubstitutionCipher to IDecryption--><g id="link_SubstitutionCipher_IDecryption"><path codeLine="39" d="M193.75,212.21 C199.46,215.73 205.24,219.04 211,222 C272.12,253.44 290.48,257.2 358,270 C417.05,281.2 433.85,267.34 493,278 C597.8,296.89 698.0351,330.1102 769.9151,356.5302 " fill="transparent" id="SubstitutionCipher-to-IDecryption" style="stroke:#181818;stroke-width:1;stroke-dasharray:7.0,7.0;"/><polygon fill="transparent" points="786.81,362.74,771.985,350.8985,767.8451,362.1618,786.81,362.74" style="stroke:#181818;stroke-width:1;"/></g><!--link TextEditorApp to String--><g id="link_TextEditorApp_String"><path codeLine="45" d="M1317.16,159.43 C1510.39,169.88 1937.77,201.18 2060,278 C2092.89,298.67 2112.3942,334.1047 2123.6442,360.0647 " fill="transparent" id="TextEditorApp-to-String" style="stroke:#181818;stroke-width:1;"/><polygon fill="#181818" points="2126.03,365.57,2126.1215,355.7216,2124.0419,360.9823,2118.7812,358.9026,2126.03,365.57" style="stroke:#181818;stroke-width:1;"/></g><!--SRC=[pPEnRi8m48RtF8N7L09dHnLIIwaKTUW0we8OtEGQ3e6JEfUsgFJTQvDW32HHO699v3lVvxF__wALo7EMgeGh-2mW9uYd-ikV85ARZ32LeSmAcf02iMQ_7hj7YJJqb-9B19W6JhPdCC4H9WWFdBi1UqinzfZU6_jw5Kgg5eyRWjcyPoAxJvNyyphsrUzlXwOXZYb_nXM1SfBT8PPnNVNvJkVsjyPX0nQNYrHvNjJWWh7SxtyjgCq6RhhM1mUIzS6tGWA_b7iNgTExleDpmTti1HXBkRQ-vf4FUsyFf6K7QML7gL_kGqJ0shsYzQxCueyMGcczp4_hrKvmZjM4wjnJGfFr9iLxJaY5AHzXjW3bG7Ji1JObP3QttPs6AvDQnzMrq72pBWrnlhrOjiuKP-GRtsWAFpIEKMlva6NELDeBhmNASaPNGYQ1zWZAP3Pl6xWZvdv0J3Klgxr_]--></g></svg>