<svg xmlns="http://www.w3.org/2000/svg" xmlns:xlink="http://www.w3.org/1999/xlink" contentStyleType="text/css" data-diagram-type="CLASS" height="614px" preserveAspectRatio="none" style="width:2231px;height:614px;background:#FFFFFF;" version="1.1" viewBox="0 0 2231 614" width="2231px" zoomAndPan="magnify"><defs/><g><!--cluster org--><g id="cluster_org"><path d="M8.5,6 L32.0518,6 A3.75,3.75 0 0 1 34.5518,8.5 L41.5518,29.6094 L1368.5,29.6094 A2.5,2.5 0 0 1 1371,32.1094 L1371,604.5 A2.5,2.5 0 0 1 1368.5,607 L8.5,607 A2.5,2.5 0 0 1 6,604.5 L6,8.5 A2.5,2.5 0 0 1 8.5,6 " fill="transparent" style="stroke:#000000;stroke-width:1.5;"/><line style="stroke:#000000;stroke-width:1.5;" x1="6" x2="41.5518" y1="29.6094" y2="29.6094"/><text fill="#000000" font-family="sans-serif" font-size="14" font-weight="bold" lengthAdjust="spacing" textLength="22.5518" x="10" y="22.5332">org</text></g><!--cluster requestedTest--><g id="cluster_requestedTest"><path d="M32.5,50 L129.1963,50 A3.75,3.75 0 0 1 131.6963,52.5 L138.6963,73.6094 L1344.5,73.6094 A2.5,2.5 0 0 1 1347,76.1094 L1347,580.5 A2.5,2.5 0 0 1 1344.5,583 L32.5,583 A2.5,2.5 0 0 1 30,580.5 L30,52.5 A2.5,2.5 0 0 1 32.5,50 " fill="transparent" style="stroke:#000000;stroke-width:1.5;"/><line style="stroke:#000000;stroke-width:1.5;" x1="30" x2="138.6963" y1="73.6094" y2="73.6094"/><text fill="#000000" font-family="sans-serif" font-size="14" font-weight="bold" lengthAdjust="spacing" textLength="95.6963" x="34" y="66.5332">requestedTest</text></g><!--cluster java--><g id="cluster_java"><path d="M1397.5,430 L1425.748,430 A3.75,3.75 0 0 1 1428.248,432.5 L1435.248,453.6094 L2221.5,453.6094 A2.5,2.5 0 0 1 2224,456.1094 L2224,595.5 A2.5,2.5 0 0 1 2221.5,598 L1397.5,598 A2.5,2.5 0 0 1 1395,595.5 L1395,432.5 A2.5,2.5 0 0 1 1397.5,430 " fill="transparent" style="stroke:#000000;stroke-width:1.5;"/><line style="stroke:#000000;stroke-width:1.5;" x1="1395" x2="1435.248" y1="453.6094" y2="453.6094"/><text fill="#000000" font-family="sans-serif" font-size="14" font-weight="bold" lengthAdjust="spacing" textLength="27.248" x="1399" y="446.5332">java</text></g><!--cluster io--><g id="cluster_io"><path d="M1421.5,474 L1434.9414,474 A3.75,3.75 0 0 1 1437.4414,476.5 L1444.4414,497.6094 L2071.5,497.6094 A2.5,2.5 0 0 1 2074,500.1094 L2074,571.5 A2.5,2.5 0 0 1 2071.5,574 L1421.5,574 A2.5,2.5 0 0 1 1419,571.5 L1419,476.5 A2.5,2.5 0 0 1 1421.5,474 " fill="transparent" style="stroke:#000000;stroke-width:1.5;"/><line style="stroke:#000000;stroke-width:1.5;" x1="1419" x2="1444.4414" y1="497.6094" y2="497.6094"/><text fill="#000000" font-family="sans-serif" font-size="14" font-weight="bold" lengthAdjust="spacing" textLength="12.4414" x="1423" y="490.5332">io</text></g><!--cluster lang--><g id="cluster_lang"><path d="M2100.5,474 L2130.2793,474 A3.75,3.75 0 0 1 2132.7793,476.5 L2139.7793,497.6094 L2197.5,497.6094 A2.5,2.5 0 0 1 2200,500.1094 L2200,571.5 A2.5,2.5 0 0 1 2197.5,574 L2100.5,574 A2.5,2.5 0 0 1 2098,571.5 L2098,476.5 A2.5,2.5 0 0 1 2100.5,474 " fill="transparent" style="stroke:#000000;stroke-width:1.5;"/><line style="stroke:#000000;stroke-width:1.5;" x1="2098" x2="2139.7793" y1="497.6094" y2="497.6094"/><text fill="#000000" font-family="sans-serif" font-size="14" font-weight="bold" lengthAdjust="spacing" textLength="28.7793" x="2102" y="490.5332">lang</text></g><!--class DecryptionInputStream--><g id="elem_DecryptionInputStream"><rect codeLine="2" fill="#F1F1F1" height="100.8281" id="DecryptionInputStream" rx="2.5" ry="2.5" style="stroke:#181818;stroke-width:0.5;" width="495.2188" x="249.5" y="247.5"/><ellipse cx="421.27" cy="263.5" fill="#ADD1B2" rx="11" ry="11" style="stroke:#181818;stroke-width:1;"/><path d="M424.0356,259.375 Q424.1919,259.1563 424.3794,259.0469 Q424.5669,258.9375 424.7856,258.9375 Q425.1606,258.9375 425.395,259.2031 Q425.6294,259.4531 425.6294,260.0625 L425.6294,261.5156 Q425.6294,262.125 425.395,262.3906 Q425.1606,262.6563 424.7856,262.6563 Q424.4419,262.6563 424.2388,262.4531 Q424.0356,262.2656 423.9263,261.75 Q423.8794,261.3906 423.6919,261.2031 Q423.3638,260.8281 422.7544,260.6094 Q422.145,260.3906 421.52,260.3906 Q420.7544,260.3906 420.1138,260.7188 Q419.4888,261.0469 418.9888,261.7969 Q418.5044,262.5469 418.5044,263.5781 L418.5044,264.6719 Q418.5044,265.9063 419.395,266.7344 Q420.2856,267.5469 421.8794,267.5469 Q422.8169,267.5469 423.4731,267.2969 Q423.8638,267.1406 424.2856,266.7031 Q424.5513,266.4375 424.6919,266.3594 Q424.8481,266.2813 425.0513,266.2813 Q425.3794,266.2813 425.6294,266.5469 Q425.895,266.7969 425.895,267.1406 Q425.895,267.4844 425.5513,267.8906 Q425.0513,268.4688 424.2544,268.7969 Q423.1763,269.25 421.8794,269.25 Q420.3638,269.25 419.1606,268.625 Q418.1763,268.125 417.4888,267.0625 Q416.8013,265.9844 416.8013,264.7031 L416.8013,263.5469 Q416.8013,262.2188 417.4106,261.0781 Q418.0356,259.9219 419.1294,259.3125 Q420.2231,258.6875 421.4575,258.6875 Q422.1919,258.6875 422.8325,258.8594 Q423.4888,259.0156 424.0356,259.375 Z " fill="#000000"/><text fill="#000000" font-family="sans-serif" font-size="14" lengthAdjust="spacing" textLength="143.1787" x="441.77" y="269.2285">DecryptionInputStream</text><line style="stroke:#181818;stroke-width:0.5;" x1="250.5" x2="743.7188" y1="279.5" y2="279.5"/><line style="stroke:#181818;stroke-width:0.5;" x1="250.5" x2="743.7188" y1="287.5" y2="287.5"/><ellipse cx="260.5" cy="301.8047" fill="#84BE84" rx="3" ry="3" style="stroke:#038048;stroke-width:1;"/><text fill="#000000" font-family="sans-serif" font-size="14" lengthAdjust="spacing" textLength="469.2188" x="269.5" y="306.0332">DecryptionInputStream(java/io/InputStream, org/requestedTest/IDecryption)</text><ellipse cx="260.5" cy="319.4141" fill="#84BE84" rx="3" ry="3" style="stroke:#038048;stroke-width:1;"/><text fill="#000000" font-family="sans-serif" font-size="14" lengthAdjust="spacing" textLength="60.6895" x="269.5" y="323.6426">read(): Int</text><ellipse cx="260.5" cy="337.0234" fill="#84BE84" rx="3" ry="3" style="stroke:#038048;stroke-width:1;"/><text fill="#000000" font-family="sans-serif" font-size="14" lengthAdjust="spacing" textLength="143.1719" x="269.5" y="341.252">read(Byte[], Int, Int): Int</text></g><!--class IDecryption--><g id="elem_IDecryption"><rect codeLine="21" fill="#F1F1F1" height="65.6094" id="IDecryption" rx="2.5" ry="2.5" style="stroke:#181818;stroke-width:0.5;" width="149.7031" x="102" y="501"/><ellipse cx="138.1034" cy="517" fill="#B4A7E5" rx="11" ry="11" style="stroke:#181818;stroke-width:1;"/><path d="M139.0565,513.6406 L139.0565,520.2969 L140.7753,520.2969 Q141.3847,520.2969 141.6503,520.5313 Q141.9159,520.7656 141.9159,521.1563 Q141.9159,521.5313 141.6503,521.7656 Q141.3847,522 140.7753,522 L135.6347,522 Q135.0253,522 134.7597,521.7656 Q134.494,521.5313 134.494,521.1406 Q134.494,520.7656 134.7597,520.5313 Q135.0253,520.2969 135.6347,520.2969 L137.3534,520.2969 L137.3534,513.6406 L135.6347,513.6406 Q135.0253,513.6406 134.7597,513.4063 Q134.494,513.1719 134.494,512.7813 Q134.494,512.4063 134.7597,512.1719 Q135.0253,511.9375 135.6347,511.9375 L140.7753,511.9375 Q141.3847,511.9375 141.6503,512.1719 Q141.9159,512.4063 141.9159,512.7813 Q141.9159,513.1719 141.6503,513.4063 Q141.3847,513.6406 140.7753,513.6406 L139.0565,513.6406 Z " fill="#000000"/><text fill="#000000" font-family="sans-serif" font-size="14" font-style="italic" lengthAdjust="spacing" textLength="70.8066" x="156.7931" y="522.7285">IDecryption</text><line style="stroke:#181818;stroke-width:0.5;" x1="103" x2="250.7031" y1="533" y2="533"/><line style="stroke:#181818;stroke-width:0.5;" x1="103" x2="250.7031" y1="541" y2="541"/><polygon fill="#4177AF" points="113,551.3047,109,557.3047,117,557.3047" style="stroke:#1963A0;stroke-width:1;"/><text fill="#000000" font-family="sans-serif" font-size="14" font-style="italic" lengthAdjust="spacing" textLength="123.7031" x="122" y="559.5332">decrypt(Char): Char</text></g><!--class EncryptionOutputStream--><g id="elem_EncryptionOutputStream"><rect codeLine="12" fill="#F1F1F1" height="83.2188" id="EncryptionOutputStream" rx="2.5" ry="2.5" style="stroke:#181818;stroke-width:0.5;" width="515.4531" x="797.5" y="256.5"/><ellipse cx="974.3286" cy="272.5" fill="#ADD1B2" rx="11" ry="11" style="stroke:#181818;stroke-width:1;"/><path d="M977.0942,268.375 Q977.2505,268.1563 977.438,268.0469 Q977.6255,267.9375 977.8442,267.9375 Q978.2192,267.9375 978.4536,268.2031 Q978.688,268.4531 978.688,269.0625 L978.688,270.5156 Q978.688,271.125 978.4536,271.3906 Q978.2192,271.6563 977.8442,271.6563 Q977.5005,271.6563 977.2974,271.4531 Q977.0942,271.2656 976.9849,270.75 Q976.938,270.3906 976.7505,270.2031 Q976.4224,269.8281 975.813,269.6094 Q975.2036,269.3906 974.5786,269.3906 Q973.813,269.3906 973.1724,269.7188 Q972.5474,270.0469 972.0474,270.7969 Q971.563,271.5469 971.563,272.5781 L971.563,273.6719 Q971.563,274.9063 972.4536,275.7344 Q973.3442,276.5469 974.938,276.5469 Q975.8755,276.5469 976.5317,276.2969 Q976.9224,276.1406 977.3442,275.7031 Q977.6099,275.4375 977.7505,275.3594 Q977.9067,275.2813 978.1099,275.2813 Q978.438,275.2813 978.688,275.5469 Q978.9536,275.7969 978.9536,276.1406 Q978.9536,276.4844 978.6099,276.8906 Q978.1099,277.4688 977.313,277.7969 Q976.2349,278.25 974.938,278.25 Q973.4224,278.25 972.2192,277.625 Q971.2349,277.125 970.5474,276.0625 Q969.8599,274.9844 969.8599,273.7031 L969.8599,272.5469 Q969.8599,271.2188 970.4692,270.0781 Q971.0942,268.9219 972.188,268.3125 Q973.2817,267.6875 974.5161,267.6875 Q975.2505,267.6875 975.8911,267.8594 Q976.5474,268.0156 977.0942,268.375 Z " fill="#000000"/><text fill="#000000" font-family="sans-serif" font-size="14" lengthAdjust="spacing" textLength="153.2959" x="994.8286" y="278.2285">EncryptionOutputStream</text><line style="stroke:#181818;stroke-width:0.5;" x1="798.5" x2="1311.9531" y1="288.5" y2="288.5"/><line style="stroke:#181818;stroke-width:0.5;" x1="798.5" x2="1311.9531" y1="296.5" y2="296.5"/><ellipse cx="808.5" cy="310.8047" fill="#84BE84" rx="3" ry="3" style="stroke:#038048;stroke-width:1;"/><text fill="#000000" font-family="sans-serif" font-size="14" lengthAdjust="spacing" textLength="489.4531" x="817.5" y="315.0332">EncryptionOutputStream(java/io/OutputStream, org/requestedTest/IEncryption)</text><ellipse cx="808.5" cy="328.4141" fill="#84BE84" rx="3" ry="3" style="stroke:#038048;stroke-width:1;"/><text fill="#000000" font-family="sans-serif" font-size="14" lengthAdjust="spacing" textLength="90.248" x="817.5" y="332.6426">write(Int): Void</text></g><!--class IEncryption--><g id="elem_IEncryption"><rect codeLine="25" fill="#F1F1F1" height="65.6094" id="IEncryption" rx="2.5" ry="2.5" style="stroke:#181818;stroke-width:0.5;" width="149.7031" x="315" y="501"/><ellipse cx="351.451" cy="517" fill="#B4A7E5" rx="11" ry="11" style="stroke:#181818;stroke-width:1;"/><path d="M352.4042,513.6406 L352.4042,520.2969 L354.1229,520.2969 Q354.7323,520.2969 354.9979,520.5313 Q355.2635,520.7656 355.2635,521.1563 Q355.2635,521.5313 354.9979,521.7656 Q354.7323,522 354.1229,522 L348.9823,522 Q348.3729,522 348.1073,521.7656 Q347.8417,521.5313 347.8417,521.1406 Q347.8417,520.7656 348.1073,520.5313 Q348.3729,520.2969 348.9823,520.2969 L350.701,520.2969 L350.701,513.6406 L348.9823,513.6406 Q348.3729,513.6406 348.1073,513.4063 Q347.8417,513.1719 347.8417,512.7813 Q347.8417,512.4063 348.1073,512.1719 Q348.3729,511.9375 348.9823,511.9375 L354.1229,511.9375 Q354.7323,511.9375 354.9979,512.1719 Q355.2635,512.4063 355.2635,512.7813 Q355.2635,513.1719 354.9979,513.4063 Q354.7323,513.6406 354.1229,513.6406 L352.4042,513.6406 Z " fill="#000000"/><text fill="#000000" font-family="sans-serif" font-size="14" font-style="italic" lengthAdjust="spacing" textLength="70.0342" x="370.2179" y="522.7285">IEncryption</text><line style="stroke:#181818;stroke-width:0.5;" x1="316" x2="463.7031" y1="533" y2="533"/><line style="stroke:#181818;stroke-width:0.5;" x1="316" x2="463.7031" y1="541" y2="541"/><polygon fill="#4177AF" points="326,551.3047,322,557.3047,330,557.3047" style="stroke:#1963A0;stroke-width:1;"/><text fill="#000000" font-family="sans-serif" font-size="14" font-style="italic" lengthAdjust="spacing" textLength="123.7031" x="335" y="559.5332">encrypt(Char): Char</text></g><!--class SubstitutionCipher--><g id="elem_SubstitutionCipher"><rect codeLine="29" fill="#F1F1F1" height="136.0469" id="SubstitutionCipher" rx="2.5" ry="2.5" style="stroke:#181818;stroke-width:0.5;" width="149.7236" x="46" y="230"/><ellipse cx="62.4959" cy="246" fill="#ADD1B2" rx="11" ry="11" style="stroke:#181818;stroke-width:1;"/><path d="M65.2615,241.875 Q65.4178,241.6563 65.6053,241.5469 Q65.7928,241.4375 66.0115,241.4375 Q66.3865,241.4375 66.6209,241.7031 Q66.8553,241.9531 66.8553,242.5625 L66.8553,244.0156 Q66.8553,244.625 66.6209,244.8906 Q66.3865,245.1563 66.0115,245.1563 Q65.6678,245.1563 65.4646,244.9531 Q65.2615,244.7656 65.1521,244.25 Q65.1053,243.8906 64.9178,243.7031 Q64.5896,243.3281 63.9803,243.1094 Q63.3709,242.8906 62.7459,242.8906 Q61.9803,242.8906 61.3396,243.2188 Q60.7146,243.5469 60.2146,244.2969 Q59.7303,245.0469 59.7303,246.0781 L59.7303,247.1719 Q59.7303,248.4063 60.6209,249.2344 Q61.5115,250.0469 63.1053,250.0469 Q64.0428,250.0469 64.699,249.7969 Q65.0896,249.6406 65.5115,249.2031 Q65.7771,248.9375 65.9178,248.8594 Q66.074,248.7813 66.2771,248.7813 Q66.6053,248.7813 66.8553,249.0469 Q67.1209,249.2969 67.1209,249.6406 Q67.1209,249.9844 66.7771,250.3906 Q66.2771,250.9688 65.4803,251.2969 Q64.4021,251.75 63.1053,251.75 Q61.5896,251.75 60.3865,251.125 Q59.4021,250.625 58.7146,249.5625 Q58.0271,248.4844 58.0271,247.2031 L58.0271,246.0469 Q58.0271,244.7188 58.6365,243.5781 Q59.2615,242.4219 60.3553,241.8125 Q61.449,241.1875 62.6834,241.1875 Q63.4178,241.1875 64.0584,241.3594 Q64.7146,241.5156 65.2615,241.875 Z " fill="#000000"/><text fill="#000000" font-family="sans-serif" font-size="14" lengthAdjust="spacing" textLength="114.3994" x="76.8283" y="251.7285">SubstitutionCipher</text><line style="stroke:#181818;stroke-width:0.5;" x1="47" x2="194.7236" y1="262" y2="262"/><text fill="#000000" font-family="sans-serif" font-size="14" lengthAdjust="spacing" textLength="134.6201" x="52" y="280.5332">encryptionKey: Char[]</text><text fill="#000000" font-family="sans-serif" font-size="14" lengthAdjust="spacing" textLength="134.6201" x="52" y="298.1426">decryptionKey: Char[]</text><line style="stroke:#181818;stroke-width:0.5;" x1="47" x2="194.7236" y1="305.2188" y2="305.2188"/><ellipse cx="57" cy="319.5234" fill="#84BE84" rx="3" ry="3" style="stroke:#038048;stroke-width:1;"/><text fill="#000000" font-family="sans-serif" font-size="14" lengthAdjust="spacing" textLength="123.7236" x="66" y="323.752">SubstitutionCipher()</text><ellipse cx="57" cy="337.1328" fill="#84BE84" rx="3" ry="3" style="stroke:#038048;stroke-width:1;"/><text fill="#000000" font-family="sans-serif" font-size="14" lengthAdjust="spacing" textLength="123.7031" x="66" y="341.3613">encrypt(Char): Char</text><ellipse cx="57" cy="354.7422" fill="#84BE84" rx="3" ry="3" style="stroke:#038048;stroke-width:1;"/><text fill="#000000" font-family="sans-serif" font-size="14" lengthAdjust="spacing" textLength="123.7031" x="66" y="358.9707">decrypt(Char): Char</text></g><!--class TextEditorApp--><g id="elem_TextEditorApp"><rect codeLine="40" fill="#F1F1F1" height="83.2188" id="TextEditorApp" rx="2.5" ry="2.5" style="stroke:#181818;stroke-width:0.5;" width="205.751" x="1107" y="86"/><ellipse cx="1161.2705" cy="102" fill="#ADD1B2" rx="11" ry="11" style="stroke:#181818;stroke-width:1;"/><path d="M1164.0361,97.875 Q1164.1924,97.6563 1164.3799,97.5469 Q1164.5674,97.4375 1164.7861,97.4375 Q1165.1611,97.4375 1165.3955,97.7031 Q1165.6299,97.9531 1165.6299,98.5625 L1165.6299,100.0156 Q1165.6299,100.625 1165.3955,100.8906 Q1165.1611,101.1563 1164.7861,101.1563 Q1164.4424,101.1563 1164.2393,100.9531 Q1164.0361,100.7656 1163.9268,100.25 Q1163.8799,99.8906 1163.6924,99.7031 Q1163.3643,99.3281 1162.7549,99.1094 Q1162.1455,98.8906 1161.5205,98.8906 Q1160.7549,98.8906 1160.1143,99.2188 Q1159.4893,99.5469 1158.9893,100.2969 Q1158.5049,101.0469 1158.5049,102.0781 L1158.5049,103.1719 Q1158.5049,104.4063 1159.3955,105.2344 Q1160.2861,106.0469 1161.8799,106.0469 Q1162.8174,106.0469 1163.4736,105.7969 Q1163.8643,105.6406 1164.2861,105.2031 Q1164.5518,104.9375 1164.6924,104.8594 Q1164.8486,104.7813 1165.0518,104.7813 Q1165.3799,104.7813 1165.6299,105.0469 Q1165.8955,105.2969 1165.8955,105.6406 Q1165.8955,105.9844 1165.5518,106.3906 Q1165.0518,106.9688 1164.2549,107.2969 Q1163.1768,107.75 1161.8799,107.75 Q1160.3643,107.75 1159.1611,107.125 Q1158.1768,106.625 1157.4893,105.5625 Q1156.8018,104.4844 1156.8018,103.2031 L1156.8018,102.0469 Q1156.8018,100.7188 1157.4111,99.5781 Q1158.0361,98.4219 1159.1299,97.8125 Q1160.2236,97.1875 1161.458,97.1875 Q1162.1924,97.1875 1162.833,97.3594 Q1163.4893,97.5156 1164.0361,97.875 Z " fill="#000000"/><text fill="#000000" font-family="sans-serif" font-size="14" lengthAdjust="spacing" textLength="88.71" x="1181.7705" y="107.7285">TextEditorApp</text><line style="stroke:#181818;stroke-width:0.5;" x1="1108" x2="1311.751" y1="118" y2="118"/><line style="stroke:#181818;stroke-width:0.5;" x1="1108" x2="1311.751" y1="126" y2="126"/><ellipse cx="1118" cy="140.3047" fill="#84BE84" rx="3" ry="3" style="stroke:#038048;stroke-width:1;"/><text fill="#000000" font-family="sans-serif" font-size="14" lengthAdjust="spacing" textLength="98.0342" x="1127" y="144.5332">TextEditorApp()</text><polygon fill="#4177AF" points="1118,153.9141,1114,159.9141,1122,159.9141" style="stroke:#1963A0;stroke-width:1;"/><text fill="#000000" font-family="sans-serif" font-size="14" lengthAdjust="spacing" text-decoration="underline" textLength="179.751" x="1127" y="162.1426">main(java/lang/String[]): Void</text></g><!--class FilterInputStream--><g id="elem_FilterInputStream"><rect fill="#F1F1F1" height="48" id="FilterInputStream" rx="2.5" ry="2.5" style="stroke:#181818;stroke-width:0.5;" width="139.3721" x="1435.5" y="510"/><ellipse cx="1450.5" cy="526" fill="#ADD1B2" rx="11" ry="11" style="stroke:#181818;stroke-width:1;"/><path d="M1453.2656,521.875 Q1453.4219,521.6563 1453.6094,521.5469 Q1453.7969,521.4375 1454.0156,521.4375 Q1454.3906,521.4375 1454.625,521.7031 Q1454.8594,521.9531 1454.8594,522.5625 L1454.8594,524.0156 Q1454.8594,524.625 1454.625,524.8906 Q1454.3906,525.1563 1454.0156,525.1563 Q1453.6719,525.1563 1453.4688,524.9531 Q1453.2656,524.7656 1453.1563,524.25 Q1453.1094,523.8906 1452.9219,523.7031 Q1452.5938,523.3281 1451.9844,523.1094 Q1451.375,522.8906 1450.75,522.8906 Q1449.9844,522.8906 1449.3438,523.2188 Q1448.7188,523.5469 1448.2188,524.2969 Q1447.7344,525.0469 1447.7344,526.0781 L1447.7344,527.1719 Q1447.7344,528.4063 1448.625,529.2344 Q1449.5156,530.0469 1451.1094,530.0469 Q1452.0469,530.0469 1452.7031,529.7969 Q1453.0938,529.6406 1453.5156,529.2031 Q1453.7813,528.9375 1453.9219,528.8594 Q1454.0781,528.7813 1454.2813,528.7813 Q1454.6094,528.7813 1454.8594,529.0469 Q1455.125,529.2969 1455.125,529.6406 Q1455.125,529.9844 1454.7813,530.3906 Q1454.2813,530.9688 1453.4844,531.2969 Q1452.4063,531.75 1451.1094,531.75 Q1449.5938,531.75 1448.3906,531.125 Q1447.4063,530.625 1446.7188,529.5625 Q1446.0313,528.4844 1446.0313,527.2031 L1446.0313,526.0469 Q1446.0313,524.7188 1446.6406,523.5781 Q1447.2656,522.4219 1448.3594,521.8125 Q1449.4531,521.1875 1450.6875,521.1875 Q1451.4219,521.1875 1452.0625,521.3594 Q1452.7188,521.5156 1453.2656,521.875 Z " fill="#000000"/><text fill="#000000" font-family="sans-serif" font-size="14" lengthAdjust="spacing" textLength="107.3721" x="1464.5" y="531.7285">FilterInputStream</text><line style="stroke:#181818;stroke-width:0.5;" x1="1436.5" x2="1573.8721" y1="542" y2="542"/><line style="stroke:#181818;stroke-width:0.5;" x1="1436.5" x2="1573.8721" y1="550" y2="550"/></g><!--class InputStream--><g id="elem_InputStream"><rect fill="#F1F1F1" height="48" id="InputStream" rx="2.5" ry="2.5" style="stroke:#181818;stroke-width:0.5;" width="108.2617" x="1610" y="510"/><ellipse cx="1625" cy="526" fill="#ADD1B2" rx="11" ry="11" style="stroke:#181818;stroke-width:1;"/><path d="M1627.7656,521.875 Q1627.9219,521.6563 1628.1094,521.5469 Q1628.2969,521.4375 1628.5156,521.4375 Q1628.8906,521.4375 1629.125,521.7031 Q1629.3594,521.9531 1629.3594,522.5625 L1629.3594,524.0156 Q1629.3594,524.625 1629.125,524.8906 Q1628.8906,525.1563 1628.5156,525.1563 Q1628.1719,525.1563 1627.9688,524.9531 Q1627.7656,524.7656 1627.6563,524.25 Q1627.6094,523.8906 1627.4219,523.7031 Q1627.0938,523.3281 1626.4844,523.1094 Q1625.875,522.8906 1625.25,522.8906 Q1624.4844,522.8906 1623.8438,523.2188 Q1623.2188,523.5469 1622.7188,524.2969 Q1622.2344,525.0469 1622.2344,526.0781 L1622.2344,527.1719 Q1622.2344,528.4063 1623.125,529.2344 Q1624.0156,530.0469 1625.6094,530.0469 Q1626.5469,530.0469 1627.2031,529.7969 Q1627.5938,529.6406 1628.0156,529.2031 Q1628.2813,528.9375 1628.4219,528.8594 Q1628.5781,528.7813 1628.7813,528.7813 Q1629.1094,528.7813 1629.3594,529.0469 Q1629.625,529.2969 1629.625,529.6406 Q1629.625,529.9844 1629.2813,530.3906 Q1628.7813,530.9688 1627.9844,531.2969 Q1626.9063,531.75 1625.6094,531.75 Q1624.0938,531.75 1622.8906,531.125 Q1621.9063,530.625 1621.2188,529.5625 Q1620.5313,528.4844 1620.5313,527.2031 L1620.5313,526.0469 Q1620.5313,524.7188 1621.1406,523.5781 Q1621.7656,522.4219 1622.8594,521.8125 Q1623.9531,521.1875 1625.1875,521.1875 Q1625.9219,521.1875 1626.5625,521.3594 Q1627.2188,521.5156 1627.7656,521.875 Z " fill="#000000"/><text fill="#000000" font-family="sans-serif" font-size="14" lengthAdjust="spacing" textLength="76.2617" x="1639" y="531.7285">InputStream</text><line style="stroke:#181818;stroke-width:0.5;" x1="1611" x2="1717.2617" y1="542" y2="542"/><line style="stroke:#181818;stroke-width:0.5;" x1="1611" x2="1717.2617" y1="550" y2="550"/></g><!--class FilterOutputStream--><g id="elem_FilterOutputStream"><rect fill="#F1F1F1" height="48" id="FilterOutputStream" rx="2.5" ry="2.5" style="stroke:#181818;stroke-width:0.5;" width="150.2617" x="1753" y="510"/><ellipse cx="1768" cy="526" fill="#ADD1B2" rx="11" ry="11" style="stroke:#181818;stroke-width:1;"/><path d="M1770.7656,521.875 Q1770.9219,521.6563 1771.1094,521.5469 Q1771.2969,521.4375 1771.5156,521.4375 Q1771.8906,521.4375 1772.125,521.7031 Q1772.3594,521.9531 1772.3594,522.5625 L1772.3594,524.0156 Q1772.3594,524.625 1772.125,524.8906 Q1771.8906,525.1563 1771.5156,525.1563 Q1771.1719,525.1563 1770.9688,524.9531 Q1770.7656,524.7656 1770.6563,524.25 Q1770.6094,523.8906 1770.4219,523.7031 Q1770.0938,523.3281 1769.4844,523.1094 Q1768.875,522.8906 1768.25,522.8906 Q1767.4844,522.8906 1766.8438,523.2188 Q1766.2188,523.5469 1765.7188,524.2969 Q1765.2344,525.0469 1765.2344,526.0781 L1765.2344,527.1719 Q1765.2344,528.4063 1766.125,529.2344 Q1767.0156,530.0469 1768.6094,530.0469 Q1769.5469,530.0469 1770.2031,529.7969 Q1770.5938,529.6406 1771.0156,529.2031 Q1771.2813,528.9375 1771.4219,528.8594 Q1771.5781,528.7813 1771.7813,528.7813 Q1772.1094,528.7813 1772.3594,529.0469 Q1772.625,529.2969 1772.625,529.6406 Q1772.625,529.9844 1772.2813,530.3906 Q1771.7813,530.9688 1770.9844,531.2969 Q1769.9063,531.75 1768.6094,531.75 Q1767.0938,531.75 1765.8906,531.125 Q1764.9063,530.625 1764.2188,529.5625 Q1763.5313,528.4844 1763.5313,527.2031 L1763.5313,526.0469 Q1763.5313,524.7188 1764.1406,523.5781 Q1764.7656,522.4219 1765.8594,521.8125 Q1766.9531,521.1875 1768.1875,521.1875 Q1768.9219,521.1875 1769.5625,521.3594 Q1770.2188,521.5156 1770.7656,521.875 Z " fill="#000000"/><text fill="#000000" font-family="sans-serif" font-size="14" lengthAdjust="spacing" textLength="118.2617" x="1782" y="531.7285">FilterOutputStream</text><line style="stroke:#181818;stroke-width:0.5;" x1="1754" x2="1902.2617" y1="542" y2="542"/><line style="stroke:#181818;stroke-width:0.5;" x1="1754" x2="1902.2617" y1="550" y2="550"/></g><!--class OutputStream--><g id="elem_OutputStream"><rect fill="#F1F1F1" height="48" id="OutputStream" rx="2.5" ry="2.5" style="stroke:#181818;stroke-width:0.5;" width="119.1514" x="1938.5" y="510"/><ellipse cx="1953.5" cy="526" fill="#ADD1B2" rx="11" ry="11" style="stroke:#181818;stroke-width:1;"/><path d="M1956.2656,521.875 Q1956.4219,521.6563 1956.6094,521.5469 Q1956.7969,521.4375 1957.0156,521.4375 Q1957.3906,521.4375 1957.625,521.7031 Q1957.8594,521.9531 1957.8594,522.5625 L1957.8594,524.0156 Q1957.8594,524.625 1957.625,524.8906 Q1957.3906,525.1563 1957.0156,525.1563 Q1956.6719,525.1563 1956.4688,524.9531 Q1956.2656,524.7656 1956.1563,524.25 Q1956.1094,523.8906 1955.9219,523.7031 Q1955.5938,523.3281 1954.9844,523.1094 Q1954.375,522.8906 1953.75,522.8906 Q1952.9844,522.8906 1952.3438,523.2188 Q1951.7188,523.5469 1951.2188,524.2969 Q1950.7344,525.0469 1950.7344,526.0781 L1950.7344,527.1719 Q1950.7344,528.4063 1951.625,529.2344 Q1952.5156,530.0469 1954.1094,530.0469 Q1955.0469,530.0469 1955.7031,529.7969 Q1956.0938,529.6406 1956.5156,529.2031 Q1956.7813,528.9375 1956.9219,528.8594 Q1957.0781,528.7813 1957.2813,528.7813 Q1957.6094,528.7813 1957.8594,529.0469 Q1958.125,529.2969 1958.125,529.6406 Q1958.125,529.9844 1957.7813,530.3906 Q1957.2813,530.9688 1956.4844,531.2969 Q1955.4063,531.75 1954.1094,531.75 Q1952.5938,531.75 1951.3906,531.125 Q1950.4063,530.625 1949.7188,529.5625 Q1949.0313,528.4844 1949.0313,527.2031 L1949.0313,526.0469 Q1949.0313,524.7188 1949.6406,523.5781 Q1950.2656,522.4219 1951.3594,521.8125 Q1952.4531,521.1875 1953.6875,521.1875 Q1954.4219,521.1875 1955.0625,521.3594 Q1955.7188,521.5156 1956.2656,521.875 Z " fill="#000000"/><text fill="#000000" font-family="sans-serif" font-size="14" lengthAdjust="spacing" textLength="87.1514" x="1967.5" y="531.7285">OutputStream</text><line style="stroke:#181818;stroke-width:0.5;" x1="1939.5" x2="2056.6514" y1="542" y2="542"/><line style="stroke:#181818;stroke-width:0.5;" x1="1939.5" x2="2056.6514" y1="550" y2="550"/></g><!--class String--><g id="elem_String"><rect fill="#F1F1F1" height="48" id="String" rx="2.5" ry="2.5" style="stroke:#181818;stroke-width:0.5;" width="68.5723" x="2114.5" y="510"/><ellipse cx="2129.5" cy="526" fill="#ADD1B2" rx="11" ry="11" style="stroke:#181818;stroke-width:1;"/><path d="M2132.2656,521.875 Q2132.4219,521.6563 2132.6094,521.5469 Q2132.7969,521.4375 2133.0156,521.4375 Q2133.3906,521.4375 2133.625,521.7031 Q2133.8594,521.9531 2133.8594,522.5625 L2133.8594,524.0156 Q2133.8594,524.625 2133.625,524.8906 Q2133.3906,525.1563 2133.0156,525.1563 Q2132.6719,525.1563 2132.4688,524.9531 Q2132.2656,524.7656 2132.1563,524.25 Q2132.1094,523.8906 2131.9219,523.7031 Q2131.5938,523.3281 2130.9844,523.1094 Q2130.375,522.8906 2129.75,522.8906 Q2128.9844,522.8906 2128.3438,523.2188 Q2127.7188,523.5469 2127.2188,524.2969 Q2126.7344,525.0469 2126.7344,526.0781 L2126.7344,527.1719 Q2126.7344,528.4063 2127.625,529.2344 Q2128.5156,530.0469 2130.1094,530.0469 Q2131.0469,530.0469 2131.7031,529.7969 Q2132.0938,529.6406 2132.5156,529.2031 Q2132.7813,528.9375 2132.9219,528.8594 Q2133.0781,528.7813 2133.2813,528.7813 Q2133.6094,528.7813 2133.8594,529.0469 Q2134.125,529.2969 2134.125,529.6406 Q2134.125,529.9844 2133.7813,530.3906 Q2133.2813,530.9688 2132.4844,531.2969 Q2131.4063,531.75 2130.1094,531.75 Q2128.5938,531.75 2127.3906,531.125 Q2126.4063,530.625 2125.7188,529.5625 Q2125.0313,528.4844 2125.0313,527.2031 L2125.0313,526.0469 Q2125.0313,524.7188 2125.6406,523.5781 Q2126.2656,522.4219 2127.3594,521.8125 Q2128.4531,521.1875 2129.6875,521.1875 Q2130.4219,521.1875 2131.0625,521.3594 Q2131.7188,521.5156 2132.2656,521.875 Z " fill="#000000"/><text fill="#000000" font-family="sans-serif" font-size="14" lengthAdjust="spacing" textLength="36.5723" x="2143.5" y="531.7285">String</text><line style="stroke:#181818;stroke-width:0.5;" x1="2115.5" x2="2182.0723" y1="542" y2="542"/><line style="stroke:#181818;stroke-width:0.5;" x1="2115.5" x2="2182.0723" y1="550" y2="550"/></g><!--link DecryptionInputStream to FilterInputStream--><g id="link_DecryptionInputStream_FilterInputStream"><path codeLine="7" d="M630.34,348.63 C703.52,373.36 796.52,400.75 882,414 C933.06,421.91 1297.87,406 1347,422 C1401.19,439.65 1439.9613,470.4753 1468.7113,497.4853 " fill="transparent" id="DecryptionInputStream-to-FilterInputStream" style="stroke:#181818;stroke-width:1;"/><polygon fill="transparent" points="1481.83,509.81,1472.8195,493.1123,1464.603,501.8582,1481.83,509.81" style="stroke:#181818;stroke-width:1;"/></g><!--link DecryptionInputStream to DecryptionInputStream--><g id="link_DecryptionInputStream_DecryptionInputStream"><path codeLine="8" d="M744.93,283.66 C766.21,286.71 779.5,291.49 779.5,298 C779.5,304.51 772.1493,308.4387 750.8693,311.4887 " fill="transparent" id="DecryptionInputStream-to-DecryptionInputStream" style="stroke:#181818;stroke-width:1;stroke-dasharray:7.0,7.0;"/><polygon fill="#181818" points="744.93,312.34,754.4065,315.0226,749.8794,311.6306,753.2714,307.1036,744.93,312.34" style="stroke:#181818;stroke-width:1;"/></g><!--link DecryptionInputStream to InputStream--><g id="link_DecryptionInputStream_InputStream"><path codeLine="9" d="M691.17,348.56 C720.8,355.08 751.12,361.17 780,366 C992.33,401.54 1047.13,400.72 1262,414 C1280.3,415.13 1575.99,413.05 1592,422 C1625.88,440.94 1644.2891,477.6373 1654.3291,504.2073 " fill="transparent" id="DecryptionInputStream-to-InputStream" style="stroke:#181818;stroke-width:1;"/><polygon fill="#181818" points="1656.45,509.82,1657.0105,499.9871,1654.6826,505.1428,1649.5269,502.8149,1656.45,509.82" style="stroke:#181818;stroke-width:1;"/></g><!--link DecryptionInputStream to IDecryption--><g id="link_DecryptionInputStream_IDecryption"><path codeLine="10" d="M382.41,348.6 C355.92,362.28 328.6,378.3 305,396 C264.25,426.57 229.2447,466.28 205.2647,496.17 " fill="transparent" id="DecryptionInputStream-to-IDecryption" style="stroke:#181818;stroke-width:1;"/><polygon fill="#181818" points="201.51,500.85,210.262,496.3331,204.6389,496.95,204.022,491.3269,201.51,500.85" style="stroke:#181818;stroke-width:1;"/><text fill="#000000" font-family="sans-serif" font-size="13" lengthAdjust="spacing" textLength="54.1899" x="306" y="410.4951">decryptor</text></g><!--link EncryptionOutputStream to FilterOutputStream--><g id="link_EncryptionOutputStream_FilterOutputStream"><path codeLine="16" d="M1131.3,339.51 C1186.03,366.28 1262.45,399.09 1334,414 C1355.87,418.56 1715.88,412.3 1736,422 C1774.1,440.37 1793.3872,467.0489 1807.9472,493.8089 " fill="transparent" id="EncryptionOutputStream-to-FilterOutputStream" style="stroke:#181818;stroke-width:1;"/><polygon fill="transparent" points="1816.55,509.62,1813.2176,490.9413,1802.6768,496.6764,1816.55,509.62" style="stroke:#181818;stroke-width:1;"/></g><!--link EncryptionOutputStream to EncryptionOutputStream--><g id="link_EncryptionOutputStream_EncryptionOutputStream"><path codeLine="17" d="M1312.67,283.8 C1334.14,286.85 1347.5,291.59 1347.5,298 C1347.5,304.41 1340.0804,308.3061 1318.6104,311.3561 " fill="transparent" id="EncryptionOutputStream-to-EncryptionOutputStream" style="stroke:#181818;stroke-width:1;stroke-dasharray:7.0,7.0;"/><polygon fill="#181818" points="1312.67,312.2,1322.1431,314.8944,1317.6203,311.4968,1321.018,306.9739,1312.67,312.2" style="stroke:#181818;stroke-width:1;"/></g><!--link EncryptionOutputStream to OutputStream--><g id="link_EncryptionOutputStream_OutputStream"><path codeLine="18" d="M1268.91,339.52 C1410.57,364.84 1600.76,395.96 1770,414 C1786.71,415.78 1906.33,413.82 1921,422 C1955.62,441.3 1975.7381,477.9702 1987.0081,504.4202 " fill="transparent" id="EncryptionOutputStream-to-OutputStream" style="stroke:#181818;stroke-width:1;"/><polygon fill="#181818" points="1989.36,509.94,1989.512,500.0923,1987.4001,505.3401,1982.1522,503.2282,1989.36,509.94" style="stroke:#181818;stroke-width:1;"/></g><!--link EncryptionOutputStream to IEncryption--><g id="link_EncryptionOutputStream_IEncryption"><path codeLine="19" d="M939.55,339.63 C803.42,387.53 586.7498,463.7684 471.0298,504.4884 " fill="transparent" id="EncryptionOutputStream-to-IEncryption" style="stroke:#181818;stroke-width:1;"/><polygon fill="#181818" points="465.37,506.48,475.1875,507.2658,470.0865,504.8203,472.532,499.7194,465.37,506.48" style="stroke:#181818;stroke-width:1;"/><text fill="#000000" font-family="sans-serif" font-size="13" lengthAdjust="spacing" textLength="54.1899" x="763" y="410.4951">encryptor</text></g><!--link SubstitutionCipher to IEncryption--><g id="link_SubstitutionCipher_IEncryption"><path codeLine="36" d="M194.09,366.08 C213.32,382.51 234.46,399.51 255,414 C260.86,418.13 263.21,417.77 269,422 C301.69,445.87 322.5768,464.7174 346.0668,488.0774 " fill="transparent" id="SubstitutionCipher-to-IEncryption" style="stroke:#181818;stroke-width:1;stroke-dasharray:7.0,7.0;"/><polygon fill="transparent" points="358.83,500.77,350.2977,483.823,341.836,492.3318,358.83,500.77" style="stroke:#181818;stroke-width:1;"/></g><!--link SubstitutionCipher to IDecryption--><g id="link_SubstitutionCipher_IDecryption"><path codeLine="37" d="M137.05,366.06 C147.65,410.35 156.8673,448.9051 165.1473,483.4751 " fill="transparent" id="SubstitutionCipher-to-IDecryption" style="stroke:#181818;stroke-width:1;stroke-dasharray:7.0,7.0;"/><polygon fill="transparent" points="169.34,500.98,170.9823,482.0775,159.3124,484.8727,169.34,500.98" style="stroke:#181818;stroke-width:1;"/></g><!--link SubstitutionCipher to SubstitutionCipher--><g id="link_SubstitutionCipher_SubstitutionCipher"><path codeLine="38" d="M196.06,279.79 C215.94,280.83 231,286.9 231,298 C231,309.1 221.9318,314.8565 202.0518,315.8965 " fill="transparent" id="SubstitutionCipher-to-SubstitutionCipher" style="stroke:#181818;stroke-width:1;stroke-dasharray:7.0,7.0;"/><polygon fill="#181818" points="196.06,316.21,205.2567,319.7344,201.0532,315.9488,204.8387,311.7453,196.06,316.21" style="stroke:#181818;stroke-width:1;"/></g><!--link TextEditorApp to TextEditorApp--><g id="link_TextEditorApp_TextEditorApp"><path codeLine="44" d="M1313.21,114.58 C1333.54,116.06 1348,120.36 1348,127.5 C1348,134.64 1339.5242,138.5044 1319.1942,139.9844 " fill="transparent" id="TextEditorApp-to-TextEditorApp" style="stroke:#181818;stroke-width:1;stroke-dasharray:7.0,7.0;"/><polygon fill="#181818" points="1313.21,140.42,1322.4767,143.756,1318.1968,140.057,1321.8958,135.7771,1313.21,140.42" style="stroke:#181818;stroke-width:1;"/></g><!--link TextEditorApp to SubstitutionCipher--><g id="link_TextEditorApp_SubstitutionCipher"><path codeLine="45" d="M1106.82,133.5 C889.66,144.96 392.24,176.32 232,230 C219.94,234.04 213.1011,236.7495 201.5011,242.8995 " fill="transparent" id="TextEditorApp-to-SubstitutionCipher" style="stroke:#181818;stroke-width:1;stroke-dasharray:7.0,7.0;"/><polygon fill="#181818" points="196.2,245.71,206.0252,245.0283,200.6175,243.3679,202.2779,237.9602,196.2,245.71" style="stroke:#181818;stroke-width:1;"/></g><!--link TextEditorApp to InputStream--><g id="link_TextEditorApp_InputStream"><path codeLine="46" d="M1276.49,169.15 C1357.54,220.9 1495.59,316.37 1592,422 C1616.93,449.32 1636.0961,480.9185 1649.0261,504.5085 " fill="transparent" id="TextEditorApp-to-InputStream" style="stroke:#181818;stroke-width:1;stroke-dasharray:7.0,7.0;"/><polygon fill="#181818" points="1651.91,509.77,1651.0918,499.9552,1649.5068,505.3854,1644.0765,503.8004,1651.91,509.77" style="stroke:#181818;stroke-width:1;"/></g><!--link TextEditorApp to OutputStream--><g id="link_TextEditorApp_OutputStream"><path codeLine="47" d="M1313.16,150.85 C1460.99,187.04 1735.68,270.22 1921,422 C1950.76,446.37 1971.2182,479.7486 1984.0682,504.4186 " fill="transparent" id="TextEditorApp-to-OutputStream" style="stroke:#181818;stroke-width:1;stroke-dasharray:7.0,7.0;"/><polygon fill="#181818" points="1986.84,509.74,1986.2299,499.9101,1984.5302,505.3055,1979.1347,503.6058,1986.84,509.74" style="stroke:#181818;stroke-width:1;"/></g><!--link TextEditorApp to String--><g id="link_TextEditorApp_String"><path codeLine="48" d="M1313.08,138.53 C1420.71,151.27 1593.13,178.15 1734,230 C1896.86,289.95 1946.47,304.3 2074,422 C2101.86,447.71 2121.831,480.3835 2134.711,504.5835 " fill="transparent" id="TextEditorApp-to-String" style="stroke:#181818;stroke-width:1;"/><polygon fill="#181818" points="2137.53,509.88,2136.8325,500.0559,2135.1808,505.4662,2129.7705,503.8145,2137.53,509.88" style="stroke:#181818;stroke-width:1;"/></g><!--SRC=[fPGzRy8m48Rt_0gFGO2pCo2rb4fHXmwWBeZ1JQxWAZYfSscBWFxsseHyWHDSkWJbFXvUttjE4B4q9R5SKGaV6QG8uLmzwGC4SfiWZuKlaWndA85joCuXVMF6VMUVpEEnLuiDDDPhO3s_wkufbYeBtTw8-0ABj_ijmc8vqA7ZuvGzE9OQXyFzM8kXFAQFF4AGjQGjXDAnPQMzh5BLRTsNbRLPaX49yvTOEaxGukbK5FNF6JPDDQTAL-j1ewrLlxRrIt84DpVl9UQXqJtpNrxQLyzQOum6cal_8ArKTck_mSIgLfa8eZIH2tNsDnO0wNPUkRTZhobA5k21_9pMm9sicLJJrpzg-jsqceGpsadFEQrjmMQPQkMOQTI49skG6WWb_WcsEMInT8g5FG_tBo6ktYcJ5D8t7zT66QNxRZl-GwdyiQICRShQ1p-7Rvo6N2tENP8SBtGZeWUuIv4X3vIf6yP5VhCZ9bQUMaukLejbrrrjq8ng6nKt4GpdlOwn-wQsTLsvnessulRhcT5yPiul]--></g></svg>