<svg xmlns="http://www.w3.org/2000/svg" xmlns:xlink="http://www.w3.org/1999/xlink" contentStyleType="text/css" data-diagram-type="CLASS" height="614px" preserveAspectRatio="none" style="width:2321px;height:614px;background:#FFFFFF;" version="1.1" viewBox="0 0 2321 614" width="2321px" zoomAndPan="magnify"><defs/><g><!--cluster org--><g id="cluster_org"><path d="M8.5,6 L32.0518,6 A3.75,3.75 0 0 1 34.5518,8.5 L41.5518,29.6094 L1458.5,29.6094 A2.5,2.5 0 0 1 1461,32.1094 L1461,604.5 A2.5,2.5 0 0 1 1458.5,607 L8.5,607 A2.5,2.5 0 0 1 6,604.5 L6,8.5 A2.5,2.5 0 0 1 8.5,6 " fill="transparent" style="stroke:#000000;stroke-width:1.5;"/><line style="stroke:#000000;stroke-width:1.5;" x1="6" x2="41.5518" y1="29.6094" y2="29.6094"/><text fill="#000000" font-family="sans-serif" font-size="14" font-weight="bold" lengthAdjust="spacing" textLength="22.5518" x="10" y="22.5332">org</text></g><!--cluster requestedTest--><g id="cluster_requestedTest"><path d="M32.5,50 L129.1963,50 A3.75,3.75 0 0 1 131.6963,52.5 L138.6963,73.6094 L1434.5,73.6094 A2.5,2.5 0 0 1 1437,76.1094 L1437,580.5 A2.5,2.5 0 0 1 1434.5,583 L32.5,583 A2.5,2.5 0 0 1 30,580.5 L30,52.5 A2.5,2.5 0 0 1 32.5,50 " fill="transparent" style="stroke:#000000;stroke-width:1.5;"/><line style="stroke:#000000;stroke-width:1.5;" x1="30" x2="138.6963" y1="73.6094" y2="73.6094"/><text fill="#000000" font-family="sans-serif" font-size="14" font-weight="bold" lengthAdjust="spacing" textLength="95.6963" x="34" y="66.5332">requestedTest</text></g><!--cluster java--><g id="cluster_java"><path d="M1487.5,430 L1515.748,430 A3.75,3.75 0 0 1 1518.248,432.5 L1525.248,453.6094 L2311.5,453.6094 A2.5,2.5 0 0 1 2314,456.1094 L2314,595.5 A2.5,2.5 0 0 1 2311.5,598 L1487.5,598 A2.5,2.5 0 0 1 1485,595.5 L1485,432.5 A2.5,2.5 0 0 1 1487.5,430 " fill="transparent" style="stroke:#000000;stroke-width:1.5;"/><line style="stroke:#000000;stroke-width:1.5;" x1="1485" x2="1525.248" y1="453.6094" y2="453.6094"/><text fill="#000000" font-family="sans-serif" font-size="14" font-weight="bold" lengthAdjust="spacing" textLength="27.248" x="1489" y="446.5332">java</text></g><!--cluster io--><g id="cluster_io"><path d="M1511.5,474 L1524.9414,474 A3.75,3.75 0 0 1 1527.4414,476.5 L1534.4414,497.6094 L2161.5,497.6094 A2.5,2.5 0 0 1 2164,500.1094 L2164,571.5 A2.5,2.5 0 0 1 2161.5,574 L1511.5,574 A2.5,2.5 0 0 1 1509,571.5 L1509,476.5 A2.5,2.5 0 0 1 1511.5,474 " fill="transparent" style="stroke:#000000;stroke-width:1.5;"/><line style="stroke:#000000;stroke-width:1.5;" x1="1509" x2="1534.4414" y1="497.6094" y2="497.6094"/><text fill="#000000" font-family="sans-serif" font-size="14" font-weight="bold" lengthAdjust="spacing" textLength="12.4414" x="1513" y="490.5332">io</text></g><!--cluster lang--><g id="cluster_lang"><path d="M2190.5,474 L2220.2793,474 A3.75,3.75 0 0 1 2222.7793,476.5 L2229.7793,497.6094 L2287.5,497.6094 A2.5,2.5 0 0 1 2290,500.1094 L2290,571.5 A2.5,2.5 0 0 1 2287.5,574 L2190.5,574 A2.5,2.5 0 0 1 2188,571.5 L2188,476.5 A2.5,2.5 0 0 1 2190.5,474 " fill="transparent" style="stroke:#000000;stroke-width:1.5;"/><line style="stroke:#000000;stroke-width:1.5;" x1="2188" x2="2229.7793" y1="497.6094" y2="497.6094"/><text fill="#000000" font-family="sans-serif" font-size="14" font-weight="bold" lengthAdjust="spacing" textLength="28.7793" x="2192" y="490.5332">lang</text></g><!--class DecryptionInputStream--><g id="elem_DecryptionInputStream"><rect codeLine="2" fill="#F1F1F1" height="100.8281" id="DecryptionInputStream" rx="2.5" ry="2.5" style="stroke:#181818;stroke-width:0.5;" width="495.2188" x="285.5" y="247.5"/><ellipse cx="457.27" cy="263.5" fill="#ADD1B2" rx="11" ry="11" style="stroke:#181818;stroke-width:1;"/><path d="M460.0356,259.375 Q460.1919,259.1563 460.3794,259.0469 Q460.5669,258.9375 460.7856,258.9375 Q461.1606,258.9375 461.395,259.2031 Q461.6294,259.4531 461.6294,260.0625 L461.6294,261.5156 Q461.6294,262.125 461.395,262.3906 Q461.1606,262.6563 460.7856,262.6563 Q460.4419,262.6563 460.2388,262.4531 Q460.0356,262.2656 459.9263,261.75 Q459.8794,261.3906 459.6919,261.2031 Q459.3638,260.8281 458.7544,260.6094 Q458.145,260.3906 457.52,260.3906 Q456.7544,260.3906 456.1138,260.7188 Q455.4888,261.0469 454.9888,261.7969 Q454.5044,262.5469 454.5044,263.5781 L454.5044,264.6719 Q454.5044,265.9063 455.395,266.7344 Q456.2856,267.5469 457.8794,267.5469 Q458.8169,267.5469 459.4731,267.2969 Q459.8638,267.1406 460.2856,266.7031 Q460.5513,266.4375 460.6919,266.3594 Q460.8481,266.2813 461.0513,266.2813 Q461.3794,266.2813 461.6294,266.5469 Q461.895,266.7969 461.895,267.1406 Q461.895,267.4844 461.5513,267.8906 Q461.0513,268.4688 460.2544,268.7969 Q459.1763,269.25 457.8794,269.25 Q456.3638,269.25 455.1606,268.625 Q454.1763,268.125 453.4888,267.0625 Q452.8013,265.9844 452.8013,264.7031 L452.8013,263.5469 Q452.8013,262.2188 453.4106,261.0781 Q454.0356,259.9219 455.1294,259.3125 Q456.2231,258.6875 457.4575,258.6875 Q458.1919,258.6875 458.8325,258.8594 Q459.4888,259.0156 460.0356,259.375 Z " fill="#000000"/><text fill="#000000" font-family="sans-serif" font-size="14" lengthAdjust="spacing" textLength="143.1787" x="477.77" y="269.2285">DecryptionInputStream</text><line style="stroke:#181818;stroke-width:0.5;" x1="286.5" x2="779.7188" y1="279.5" y2="279.5"/><line style="stroke:#181818;stroke-width:0.5;" x1="286.5" x2="779.7188" y1="287.5" y2="287.5"/><ellipse cx="296.5" cy="301.8047" fill="#84BE84" rx="3" ry="3" style="stroke:#038048;stroke-width:1;"/><text fill="#000000" font-family="sans-serif" font-size="14" lengthAdjust="spacing" textLength="469.2188" x="305.5" y="306.0332">DecryptionInputStream(java/io/InputStream, org/requestedTest/IDecryption)</text><ellipse cx="296.5" cy="319.4141" fill="#84BE84" rx="3" ry="3" style="stroke:#038048;stroke-width:1;"/><text fill="#000000" font-family="sans-serif" font-size="14" lengthAdjust="spacing" textLength="60.6895" x="305.5" y="323.6426">read(): Int</text><ellipse cx="296.5" cy="337.0234" fill="#84BE84" rx="3" ry="3" style="stroke:#038048;stroke-width:1;"/><text fill="#000000" font-family="sans-serif" font-size="14" lengthAdjust="spacing" textLength="143.1719" x="305.5" y="341.252">read(Byte[], Int, Int): Int</text></g><!--class IDecryption--><g id="elem_IDecryption"><rect codeLine="32" fill="#F1F1F1" height="65.6094" id="IDecryption" rx="2.5" ry="2.5" style="stroke:#181818;stroke-width:0.5;" width="149.7031" x="398" y="501"/><ellipse cx="434.1034" cy="517" fill="#B4A7E5" rx="11" ry="11" style="stroke:#181818;stroke-width:1;"/><path d="M435.0565,513.6406 L435.0565,520.2969 L436.7753,520.2969 Q437.3847,520.2969 437.6503,520.5313 Q437.9159,520.7656 437.9159,521.1563 Q437.9159,521.5313 437.6503,521.7656 Q437.3847,522 436.7753,522 L431.6347,522 Q431.0253,522 430.7597,521.7656 Q430.494,521.5313 430.494,521.1406 Q430.494,520.7656 430.7597,520.5313 Q431.0253,520.2969 431.6347,520.2969 L433.3534,520.2969 L433.3534,513.6406 L431.6347,513.6406 Q431.0253,513.6406 430.7597,513.4063 Q430.494,513.1719 430.494,512.7813 Q430.494,512.4063 430.7597,512.1719 Q431.0253,511.9375 431.6347,511.9375 L436.7753,511.9375 Q437.3847,511.9375 437.6503,512.1719 Q437.9159,512.4063 437.9159,512.7813 Q437.9159,513.1719 437.6503,513.4063 Q437.3847,513.6406 436.7753,513.6406 L435.0565,513.6406 Z " fill="#000000"/><text fill="#000000" font-family="sans-serif" font-size="14" font-style="italic" lengthAdjust="spacing" textLength="70.8066" x="452.7931" y="522.7285">IDecryption</text><line style="stroke:#181818;stroke-width:0.5;" x1="399" x2="546.7031" y1="533" y2="533"/><line style="stroke:#181818;stroke-width:0.5;" x1="399" x2="546.7031" y1="541" y2="541"/><polygon fill="#4177AF" points="409,551.3047,405,557.3047,413,557.3047" style="stroke:#1963A0;stroke-width:1;"/><text fill="#000000" font-family="sans-serif" font-size="14" font-style="italic" lengthAdjust="spacing" textLength="123.7031" x="418" y="559.5332">decrypt(Char): Char</text></g><!--class EncryptionOutputStream--><g id="elem_EncryptionOutputStream"><rect codeLine="18" fill="#F1F1F1" height="83.2188" id="EncryptionOutputStream" rx="2.5" ry="2.5" style="stroke:#181818;stroke-width:0.5;" width="515.4531" x="869.5" y="256.5"/><ellipse cx="1046.3286" cy="272.5" fill="#ADD1B2" rx="11" ry="11" style="stroke:#181818;stroke-width:1;"/><path d="M1049.0942,268.375 Q1049.2505,268.1563 1049.438,268.0469 Q1049.6255,267.9375 1049.8442,267.9375 Q1050.2192,267.9375 1050.4536,268.2031 Q1050.688,268.4531 1050.688,269.0625 L1050.688,270.5156 Q1050.688,271.125 1050.4536,271.3906 Q1050.2192,271.6563 1049.8442,271.6563 Q1049.5005,271.6563 1049.2974,271.4531 Q1049.0942,271.2656 1048.9849,270.75 Q1048.938,270.3906 1048.7505,270.2031 Q1048.4224,269.8281 1047.813,269.6094 Q1047.2036,269.3906 1046.5786,269.3906 Q1045.813,269.3906 1045.1724,269.7188 Q1044.5474,270.0469 1044.0474,270.7969 Q1043.563,271.5469 1043.563,272.5781 L1043.563,273.6719 Q1043.563,274.9063 1044.4536,275.7344 Q1045.3442,276.5469 1046.938,276.5469 Q1047.8755,276.5469 1048.5317,276.2969 Q1048.9224,276.1406 1049.3442,275.7031 Q1049.6099,275.4375 1049.7505,275.3594 Q1049.9067,275.2813 1050.1099,275.2813 Q1050.438,275.2813 1050.688,275.5469 Q1050.9536,275.7969 1050.9536,276.1406 Q1050.9536,276.4844 1050.6099,276.8906 Q1050.1099,277.4688 1049.313,277.7969 Q1048.2349,278.25 1046.938,278.25 Q1045.4224,278.25 1044.2192,277.625 Q1043.2349,277.125 1042.5474,276.0625 Q1041.8599,274.9844 1041.8599,273.7031 L1041.8599,272.5469 Q1041.8599,271.2188 1042.4692,270.0781 Q1043.0942,268.9219 1044.188,268.3125 Q1045.2817,267.6875 1046.5161,267.6875 Q1047.2505,267.6875 1047.8911,267.8594 Q1048.5474,268.0156 1049.0942,268.375 Z " fill="#000000"/><text fill="#000000" font-family="sans-serif" font-size="14" lengthAdjust="spacing" textLength="153.2959" x="1066.8286" y="278.2285">EncryptionOutputStream</text><line style="stroke:#181818;stroke-width:0.5;" x1="870.5" x2="1383.9531" y1="288.5" y2="288.5"/><line style="stroke:#181818;stroke-width:0.5;" x1="870.5" x2="1383.9531" y1="296.5" y2="296.5"/><ellipse cx="880.5" cy="310.8047" fill="#84BE84" rx="3" ry="3" style="stroke:#038048;stroke-width:1;"/><text fill="#000000" font-family="sans-serif" font-size="14" lengthAdjust="spacing" textLength="489.4531" x="889.5" y="315.0332">EncryptionOutputStream(java/io/OutputStream, org/requestedTest/IEncryption)</text><ellipse cx="880.5" cy="328.4141" fill="#84BE84" rx="3" ry="3" style="stroke:#038048;stroke-width:1;"/><text fill="#000000" font-family="sans-serif" font-size="14" lengthAdjust="spacing" textLength="90.248" x="889.5" y="332.6426">write(Int): Void</text></g><!--class IEncryption--><g id="elem_IEncryption"><rect codeLine="36" fill="#F1F1F1" height="65.6094" id="IEncryption" rx="2.5" ry="2.5" style="stroke:#181818;stroke-width:0.5;" width="149.7031" x="213" y="501"/><ellipse cx="249.451" cy="517" fill="#B4A7E5" rx="11" ry="11" style="stroke:#181818;stroke-width:1;"/><path d="M250.4042,513.6406 L250.4042,520.2969 L252.1229,520.2969 Q252.7323,520.2969 252.9979,520.5313 Q253.2635,520.7656 253.2635,521.1563 Q253.2635,521.5313 252.9979,521.7656 Q252.7323,522 252.1229,522 L246.9823,522 Q246.3729,522 246.1073,521.7656 Q245.8417,521.5313 245.8417,521.1406 Q245.8417,520.7656 246.1073,520.5313 Q246.3729,520.2969 246.9823,520.2969 L248.701,520.2969 L248.701,513.6406 L246.9823,513.6406 Q246.3729,513.6406 246.1073,513.4063 Q245.8417,513.1719 245.8417,512.7813 Q245.8417,512.4063 246.1073,512.1719 Q246.3729,511.9375 246.9823,511.9375 L252.1229,511.9375 Q252.7323,511.9375 252.9979,512.1719 Q253.2635,512.4063 253.2635,512.7813 Q253.2635,513.1719 252.9979,513.4063 Q252.7323,513.6406 252.1229,513.6406 L250.4042,513.6406 Z " fill="#000000"/><text fill="#000000" font-family="sans-serif" font-size="14" font-style="italic" lengthAdjust="spacing" textLength="70.0342" x="268.2179" y="522.7285">IEncryption</text><line style="stroke:#181818;stroke-width:0.5;" x1="214" x2="361.7031" y1="533" y2="533"/><line style="stroke:#181818;stroke-width:0.5;" x1="214" x2="361.7031" y1="541" y2="541"/><polygon fill="#4177AF" points="224,551.3047,220,557.3047,228,557.3047" style="stroke:#1963A0;stroke-width:1;"/><text fill="#000000" font-family="sans-serif" font-size="14" font-style="italic" lengthAdjust="spacing" textLength="123.7031" x="233" y="559.5332">encrypt(Char): Char</text></g><!--class SubstitutionCipher--><g id="elem_SubstitutionCipher"><rect codeLine="40" fill="#F1F1F1" height="136.0469" id="SubstitutionCipher" rx="2.5" ry="2.5" style="stroke:#181818;stroke-width:0.5;" width="149.7236" x="46" y="230"/><ellipse cx="62.4959" cy="246" fill="#ADD1B2" rx="11" ry="11" style="stroke:#181818;stroke-width:1;"/><path d="M65.2615,241.875 Q65.4178,241.6563 65.6053,241.5469 Q65.7928,241.4375 66.0115,241.4375 Q66.3865,241.4375 66.6209,241.7031 Q66.8553,241.9531 66.8553,242.5625 L66.8553,244.0156 Q66.8553,244.625 66.6209,244.8906 Q66.3865,245.1563 66.0115,245.1563 Q65.6678,245.1563 65.4646,244.9531 Q65.2615,244.7656 65.1521,244.25 Q65.1053,243.8906 64.9178,243.7031 Q64.5896,243.3281 63.9803,243.1094 Q63.3709,242.8906 62.7459,242.8906 Q61.9803,242.8906 61.3396,243.2188 Q60.7146,243.5469 60.2146,244.2969 Q59.7303,245.0469 59.7303,246.0781 L59.7303,247.1719 Q59.7303,248.4063 60.6209,249.2344 Q61.5115,250.0469 63.1053,250.0469 Q64.0428,250.0469 64.699,249.7969 Q65.0896,249.6406 65.5115,249.2031 Q65.7771,248.9375 65.9178,248.8594 Q66.074,248.7813 66.2771,248.7813 Q66.6053,248.7813 66.8553,249.0469 Q67.1209,249.2969 67.1209,249.6406 Q67.1209,249.9844 66.7771,250.3906 Q66.2771,250.9688 65.4803,251.2969 Q64.4021,251.75 63.1053,251.75 Q61.5896,251.75 60.3865,251.125 Q59.4021,250.625 58.7146,249.5625 Q58.0271,248.4844 58.0271,247.2031 L58.0271,246.0469 Q58.0271,244.7188 58.6365,243.5781 Q59.2615,242.4219 60.3553,241.8125 Q61.449,241.1875 62.6834,241.1875 Q63.4178,241.1875 64.0584,241.3594 Q64.7146,241.5156 65.2615,241.875 Z " fill="#000000"/><text fill="#000000" font-family="sans-serif" font-size="14" lengthAdjust="spacing" textLength="114.3994" x="76.8283" y="251.7285">SubstitutionCipher</text><line style="stroke:#181818;stroke-width:0.5;" x1="47" x2="194.7236" y1="262" y2="262"/><text fill="#000000" font-family="sans-serif" font-size="14" lengthAdjust="spacing" textLength="134.6201" x="52" y="280.5332">encryptionKey: Char[]</text><text fill="#000000" font-family="sans-serif" font-size="14" lengthAdjust="spacing" textLength="134.6201" x="52" y="298.1426">decryptionKey: Char[]</text><line style="stroke:#181818;stroke-width:0.5;" x1="47" x2="194.7236" y1="305.2188" y2="305.2188"/><ellipse cx="57" cy="319.5234" fill="#84BE84" rx="3" ry="3" style="stroke:#038048;stroke-width:1;"/><text fill="#000000" font-family="sans-serif" font-size="14" lengthAdjust="spacing" textLength="123.7236" x="66" y="323.752">SubstitutionCipher()</text><ellipse cx="57" cy="337.1328" fill="#84BE84" rx="3" ry="3" style="stroke:#038048;stroke-width:1;"/><text fill="#000000" font-family="sans-serif" font-size="14" lengthAdjust="spacing" textLength="123.7031" x="66" y="341.3613">encrypt(Char): Char</text><ellipse cx="57" cy="354.7422" fill="#84BE84" rx="3" ry="3" style="stroke:#038048;stroke-width:1;"/><text fill="#000000" font-family="sans-serif" font-size="14" lengthAdjust="spacing" textLength="123.7031" x="66" y="358.9707">decrypt(Char): Char</text></g><!--class TextEditorApp--><g id="elem_TextEditorApp"><rect codeLine="53" fill="#F1F1F1" height="83.2188" id="TextEditorApp" rx="2.5" ry="2.5" style="stroke:#181818;stroke-width:0.5;" width="205.751" x="1197" y="86"/><ellipse cx="1251.2705" cy="102" fill="#ADD1B2" rx="11" ry="11" style="stroke:#181818;stroke-width:1;"/><path d="M1254.0361,97.875 Q1254.1924,97.6563 1254.3799,97.5469 Q1254.5674,97.4375 1254.7861,97.4375 Q1255.1611,97.4375 1255.3955,97.7031 Q1255.6299,97.9531 1255.6299,98.5625 L1255.6299,100.0156 Q1255.6299,100.625 1255.3955,100.8906 Q1255.1611,101.1563 1254.7861,101.1563 Q1254.4424,101.1563 1254.2393,100.9531 Q1254.0361,100.7656 1253.9268,100.25 Q1253.8799,99.8906 1253.6924,99.7031 Q1253.3643,99.3281 1252.7549,99.1094 Q1252.1455,98.8906 1251.5205,98.8906 Q1250.7549,98.8906 1250.1143,99.2188 Q1249.4893,99.5469 1248.9893,100.2969 Q1248.5049,101.0469 1248.5049,102.0781 L1248.5049,103.1719 Q1248.5049,104.4063 1249.3955,105.2344 Q1250.2861,106.0469 1251.8799,106.0469 Q1252.8174,106.0469 1253.4736,105.7969 Q1253.8643,105.6406 1254.2861,105.2031 Q1254.5518,104.9375 1254.6924,104.8594 Q1254.8486,104.7813 1255.0518,104.7813 Q1255.3799,104.7813 1255.6299,105.0469 Q1255.8955,105.2969 1255.8955,105.6406 Q1255.8955,105.9844 1255.5518,106.3906 Q1255.0518,106.9688 1254.2549,107.2969 Q1253.1768,107.75 1251.8799,107.75 Q1250.3643,107.75 1249.1611,107.125 Q1248.1768,106.625 1247.4893,105.5625 Q1246.8018,104.4844 1246.8018,103.2031 L1246.8018,102.0469 Q1246.8018,100.7188 1247.4111,99.5781 Q1248.0361,98.4219 1249.1299,97.8125 Q1250.2236,97.1875 1251.458,97.1875 Q1252.1924,97.1875 1252.833,97.3594 Q1253.4893,97.5156 1254.0361,97.875 Z " fill="#000000"/><text fill="#000000" font-family="sans-serif" font-size="14" lengthAdjust="spacing" textLength="88.71" x="1271.7705" y="107.7285">TextEditorApp</text><line style="stroke:#181818;stroke-width:0.5;" x1="1198" x2="1401.751" y1="118" y2="118"/><line style="stroke:#181818;stroke-width:0.5;" x1="1198" x2="1401.751" y1="126" y2="126"/><ellipse cx="1208" cy="140.3047" fill="#84BE84" rx="3" ry="3" style="stroke:#038048;stroke-width:1;"/><text fill="#000000" font-family="sans-serif" font-size="14" lengthAdjust="spacing" textLength="98.0342" x="1217" y="144.5332">TextEditorApp()</text><polygon fill="#4177AF" points="1208,153.9141,1204,159.9141,1212,159.9141" style="stroke:#1963A0;stroke-width:1;"/><text fill="#000000" font-family="sans-serif" font-size="14" lengthAdjust="spacing" text-decoration="underline" textLength="179.751" x="1217" y="162.1426">main(java/lang/String[]): Void</text></g><!--class FilterInputStream--><g id="elem_FilterInputStream"><rect fill="#F1F1F1" height="48" id="FilterInputStream" rx="2.5" ry="2.5" style="stroke:#181818;stroke-width:0.5;" width="139.3721" x="1525.5" y="510"/><ellipse cx="1540.5" cy="526" fill="#ADD1B2" rx="11" ry="11" style="stroke:#181818;stroke-width:1;"/><path d="M1543.2656,521.875 Q1543.4219,521.6563 1543.6094,521.5469 Q1543.7969,521.4375 1544.0156,521.4375 Q1544.3906,521.4375 1544.625,521.7031 Q1544.8594,521.9531 1544.8594,522.5625 L1544.8594,524.0156 Q1544.8594,524.625 1544.625,524.8906 Q1544.3906,525.1563 1544.0156,525.1563 Q1543.6719,525.1563 1543.4688,524.9531 Q1543.2656,524.7656 1543.1563,524.25 Q1543.1094,523.8906 1542.9219,523.7031 Q1542.5938,523.3281 1541.9844,523.1094 Q1541.375,522.8906 1540.75,522.8906 Q1539.9844,522.8906 1539.3438,523.2188 Q1538.7188,523.5469 1538.2188,524.2969 Q1537.7344,525.0469 1537.7344,526.0781 L1537.7344,527.1719 Q1537.7344,528.4063 1538.625,529.2344 Q1539.5156,530.0469 1541.1094,530.0469 Q1542.0469,530.0469 1542.7031,529.7969 Q1543.0938,529.6406 1543.5156,529.2031 Q1543.7813,528.9375 1543.9219,528.8594 Q1544.0781,528.7813 1544.2813,528.7813 Q1544.6094,528.7813 1544.8594,529.0469 Q1545.125,529.2969 1545.125,529.6406 Q1545.125,529.9844 1544.7813,530.3906 Q1544.2813,530.9688 1543.4844,531.2969 Q1542.4063,531.75 1541.1094,531.75 Q1539.5938,531.75 1538.3906,531.125 Q1537.4063,530.625 1536.7188,529.5625 Q1536.0313,528.4844 1536.0313,527.2031 L1536.0313,526.0469 Q1536.0313,524.7188 1536.6406,523.5781 Q1537.2656,522.4219 1538.3594,521.8125 Q1539.4531,521.1875 1540.6875,521.1875 Q1541.4219,521.1875 1542.0625,521.3594 Q1542.7188,521.5156 1543.2656,521.875 Z " fill="#000000"/><text fill="#000000" font-family="sans-serif" font-size="14" lengthAdjust="spacing" textLength="107.3721" x="1554.5" y="531.7285">FilterInputStream</text><line style="stroke:#181818;stroke-width:0.5;" x1="1526.5" x2="1663.8721" y1="542" y2="542"/><line style="stroke:#181818;stroke-width:0.5;" x1="1526.5" x2="1663.8721" y1="550" y2="550"/></g><!--class InputStream--><g id="elem_InputStream"><rect fill="#F1F1F1" height="48" id="InputStream" rx="2.5" ry="2.5" style="stroke:#181818;stroke-width:0.5;" width="108.2617" x="1885" y="510"/><ellipse cx="1900" cy="526" fill="#ADD1B2" rx="11" ry="11" style="stroke:#181818;stroke-width:1;"/><path d="M1902.7656,521.875 Q1902.9219,521.6563 1903.1094,521.5469 Q1903.2969,521.4375 1903.5156,521.4375 Q1903.8906,521.4375 1904.125,521.7031 Q1904.3594,521.9531 1904.3594,522.5625 L1904.3594,524.0156 Q1904.3594,524.625 1904.125,524.8906 Q1903.8906,525.1563 1903.5156,525.1563 Q1903.1719,525.1563 1902.9688,524.9531 Q1902.7656,524.7656 1902.6563,524.25 Q1902.6094,523.8906 1902.4219,523.7031 Q1902.0938,523.3281 1901.4844,523.1094 Q1900.875,522.8906 1900.25,522.8906 Q1899.4844,522.8906 1898.8438,523.2188 Q1898.2188,523.5469 1897.7188,524.2969 Q1897.2344,525.0469 1897.2344,526.0781 L1897.2344,527.1719 Q1897.2344,528.4063 1898.125,529.2344 Q1899.0156,530.0469 1900.6094,530.0469 Q1901.5469,530.0469 1902.2031,529.7969 Q1902.5938,529.6406 1903.0156,529.2031 Q1903.2813,528.9375 1903.4219,528.8594 Q1903.5781,528.7813 1903.7813,528.7813 Q1904.1094,528.7813 1904.3594,529.0469 Q1904.625,529.2969 1904.625,529.6406 Q1904.625,529.9844 1904.2813,530.3906 Q1903.7813,530.9688 1902.9844,531.2969 Q1901.9063,531.75 1900.6094,531.75 Q1899.0938,531.75 1897.8906,531.125 Q1896.9063,530.625 1896.2188,529.5625 Q1895.5313,528.4844 1895.5313,527.2031 L1895.5313,526.0469 Q1895.5313,524.7188 1896.1406,523.5781 Q1896.7656,522.4219 1897.8594,521.8125 Q1898.9531,521.1875 1900.1875,521.1875 Q1900.9219,521.1875 1901.5625,521.3594 Q1902.2188,521.5156 1902.7656,521.875 Z " fill="#000000"/><text fill="#000000" font-family="sans-serif" font-size="14" lengthAdjust="spacing" textLength="76.2617" x="1914" y="531.7285">InputStream</text><line style="stroke:#181818;stroke-width:0.5;" x1="1886" x2="1992.2617" y1="542" y2="542"/><line style="stroke:#181818;stroke-width:0.5;" x1="1886" x2="1992.2617" y1="550" y2="550"/></g><!--class FilterOutputStream--><g id="elem_FilterOutputStream"><rect fill="#F1F1F1" height="48" id="FilterOutputStream" rx="2.5" ry="2.5" style="stroke:#181818;stroke-width:0.5;" width="150.2617" x="1700" y="510"/><ellipse cx="1715" cy="526" fill="#ADD1B2" rx="11" ry="11" style="stroke:#181818;stroke-width:1;"/><path d="M1717.7656,521.875 Q1717.9219,521.6563 1718.1094,521.5469 Q1718.2969,521.4375 1718.5156,521.4375 Q1718.8906,521.4375 1719.125,521.7031 Q1719.3594,521.9531 1719.3594,522.5625 L1719.3594,524.0156 Q1719.3594,524.625 1719.125,524.8906 Q1718.8906,525.1563 1718.5156,525.1563 Q1718.1719,525.1563 1717.9688,524.9531 Q1717.7656,524.7656 1717.6563,524.25 Q1717.6094,523.8906 1717.4219,523.7031 Q1717.0938,523.3281 1716.4844,523.1094 Q1715.875,522.8906 1715.25,522.8906 Q1714.4844,522.8906 1713.8438,523.2188 Q1713.2188,523.5469 1712.7188,524.2969 Q1712.2344,525.0469 1712.2344,526.0781 L1712.2344,527.1719 Q1712.2344,528.4063 1713.125,529.2344 Q1714.0156,530.0469 1715.6094,530.0469 Q1716.5469,530.0469 1717.2031,529.7969 Q1717.5938,529.6406 1718.0156,529.2031 Q1718.2813,528.9375 1718.4219,528.8594 Q1718.5781,528.7813 1718.7813,528.7813 Q1719.1094,528.7813 1719.3594,529.0469 Q1719.625,529.2969 1719.625,529.6406 Q1719.625,529.9844 1719.2813,530.3906 Q1718.7813,530.9688 1717.9844,531.2969 Q1716.9063,531.75 1715.6094,531.75 Q1714.0938,531.75 1712.8906,531.125 Q1711.9063,530.625 1711.2188,529.5625 Q1710.5313,528.4844 1710.5313,527.2031 L1710.5313,526.0469 Q1710.5313,524.7188 1711.1406,523.5781 Q1711.7656,522.4219 1712.8594,521.8125 Q1713.9531,521.1875 1715.1875,521.1875 Q1715.9219,521.1875 1716.5625,521.3594 Q1717.2188,521.5156 1717.7656,521.875 Z " fill="#000000"/><text fill="#000000" font-family="sans-serif" font-size="14" lengthAdjust="spacing" textLength="118.2617" x="1729" y="531.7285">FilterOutputStream</text><line style="stroke:#181818;stroke-width:0.5;" x1="1701" x2="1849.2617" y1="542" y2="542"/><line style="stroke:#181818;stroke-width:0.5;" x1="1701" x2="1849.2617" y1="550" y2="550"/></g><!--class OutputStream--><g id="elem_OutputStream"><rect fill="#F1F1F1" height="48" id="OutputStream" rx="2.5" ry="2.5" style="stroke:#181818;stroke-width:0.5;" width="119.1514" x="2028.5" y="510"/><ellipse cx="2043.5" cy="526" fill="#ADD1B2" rx="11" ry="11" style="stroke:#181818;stroke-width:1;"/><path d="M2046.2656,521.875 Q2046.4219,521.6563 2046.6094,521.5469 Q2046.7969,521.4375 2047.0156,521.4375 Q2047.3906,521.4375 2047.625,521.7031 Q2047.8594,521.9531 2047.8594,522.5625 L2047.8594,524.0156 Q2047.8594,524.625 2047.625,524.8906 Q2047.3906,525.1563 2047.0156,525.1563 Q2046.6719,525.1563 2046.4688,524.9531 Q2046.2656,524.7656 2046.1563,524.25 Q2046.1094,523.8906 2045.9219,523.7031 Q2045.5938,523.3281 2044.9844,523.1094 Q2044.375,522.8906 2043.75,522.8906 Q2042.9844,522.8906 2042.3438,523.2188 Q2041.7188,523.5469 2041.2188,524.2969 Q2040.7344,525.0469 2040.7344,526.0781 L2040.7344,527.1719 Q2040.7344,528.4063 2041.625,529.2344 Q2042.5156,530.0469 2044.1094,530.0469 Q2045.0469,530.0469 2045.7031,529.7969 Q2046.0938,529.6406 2046.5156,529.2031 Q2046.7813,528.9375 2046.9219,528.8594 Q2047.0781,528.7813 2047.2813,528.7813 Q2047.6094,528.7813 2047.8594,529.0469 Q2048.125,529.2969 2048.125,529.6406 Q2048.125,529.9844 2047.7813,530.3906 Q2047.2813,530.9688 2046.4844,531.2969 Q2045.4063,531.75 2044.1094,531.75 Q2042.5938,531.75 2041.3906,531.125 Q2040.4063,530.625 2039.7188,529.5625 Q2039.0313,528.4844 2039.0313,527.2031 L2039.0313,526.0469 Q2039.0313,524.7188 2039.6406,523.5781 Q2040.2656,522.4219 2041.3594,521.8125 Q2042.4531,521.1875 2043.6875,521.1875 Q2044.4219,521.1875 2045.0625,521.3594 Q2045.7188,521.5156 2046.2656,521.875 Z " fill="#000000"/><text fill="#000000" font-family="sans-serif" font-size="14" lengthAdjust="spacing" textLength="87.1514" x="2057.5" y="531.7285">OutputStream</text><line style="stroke:#181818;stroke-width:0.5;" x1="2029.5" x2="2146.6514" y1="542" y2="542"/><line style="stroke:#181818;stroke-width:0.5;" x1="2029.5" x2="2146.6514" y1="550" y2="550"/></g><!--class String--><g id="elem_String"><rect fill="#F1F1F1" height="48" id="String" rx="2.5" ry="2.5" style="stroke:#181818;stroke-width:0.5;" width="68.5723" x="2204.5" y="510"/><ellipse cx="2219.5" cy="526" fill="#ADD1B2" rx="11" ry="11" style="stroke:#181818;stroke-width:1;"/><path d="M2222.2656,521.875 Q2222.4219,521.6563 2222.6094,521.5469 Q2222.7969,521.4375 2223.0156,521.4375 Q2223.3906,521.4375 2223.625,521.7031 Q2223.8594,521.9531 2223.8594,522.5625 L2223.8594,524.0156 Q2223.8594,524.625 2223.625,524.8906 Q2223.3906,525.1563 2223.0156,525.1563 Q2222.6719,525.1563 2222.4688,524.9531 Q2222.2656,524.7656 2222.1563,524.25 Q2222.1094,523.8906 2221.9219,523.7031 Q2221.5938,523.3281 2220.9844,523.1094 Q2220.375,522.8906 2219.75,522.8906 Q2218.9844,522.8906 2218.3438,523.2188 Q2217.7188,523.5469 2217.2188,524.2969 Q2216.7344,525.0469 2216.7344,526.0781 L2216.7344,527.1719 Q2216.7344,528.4063 2217.625,529.2344 Q2218.5156,530.0469 2220.1094,530.0469 Q2221.0469,530.0469 2221.7031,529.7969 Q2222.0938,529.6406 2222.5156,529.2031 Q2222.7813,528.9375 2222.9219,528.8594 Q2223.0781,528.7813 2223.2813,528.7813 Q2223.6094,528.7813 2223.8594,529.0469 Q2224.125,529.2969 2224.125,529.6406 Q2224.125,529.9844 2223.7813,530.3906 Q2223.2813,530.9688 2222.4844,531.2969 Q2221.4063,531.75 2220.1094,531.75 Q2218.5938,531.75 2217.3906,531.125 Q2216.4063,530.625 2215.7188,529.5625 Q2215.0313,528.4844 2215.0313,527.2031 L2215.0313,526.0469 Q2215.0313,524.7188 2215.6406,523.5781 Q2216.2656,522.4219 2217.3594,521.8125 Q2218.4531,521.1875 2219.6875,521.1875 Q2220.4219,521.1875 2221.0625,521.3594 Q2221.7188,521.5156 2222.2656,521.875 Z " fill="#000000"/><text fill="#000000" font-family="sans-serif" font-size="14" lengthAdjust="spacing" textLength="36.5723" x="2233.5" y="531.7285">String</text><line style="stroke:#181818;stroke-width:0.5;" x1="2205.5" x2="2272.0723" y1="542" y2="542"/><line style="stroke:#181818;stroke-width:0.5;" x1="2205.5" x2="2272.0723" y1="550" y2="550"/></g><!--link DecryptionInputStream to FilterInputStream--><g id="link_DecryptionInputStream_FilterInputStream"><path codeLine="7" d="M546.28,348.77 C555.48,372.89 570.44,399.68 594,414 C614.01,426.17 1414.71,414.83 1437,422 C1491.42,439.49 1530.3377,470.5672 1559.0177,497.6272 " fill="transparent" id="DecryptionInputStream-to-FilterInputStream" style="stroke:#181818;stroke-width:1;"/><polygon fill="transparent" points="1572.11,509.98,1563.1353,493.2631,1554.9001,501.9913,1572.11,509.98" style="stroke:#181818;stroke-width:1;"/></g><!--link DecryptionInputStream to DecryptionInputStream--><g id="link_DecryptionInputStream_DecryptionInputStream"><path codeLine="8" d="M780.93,293.22 C802.21,294.24 815.5,295.83 815.5,298 C815.5,300.17 808.2031,301.4727 786.9231,302.4927 " fill="transparent" id="DecryptionInputStream-to-DecryptionInputStream" style="stroke:#181818;stroke-width:1;stroke-dasharray:7.0,7.0;"/><polygon fill="#181818" points="780.93,302.78,790.1112,306.3445,785.9243,302.5406,789.7282,298.3537,780.93,302.78" style="stroke:#181818;stroke-width:1;"/></g><!--link DecryptionInputStream to DecryptionInputStream--><g id="link_DecryptionInputStream_DecryptionInputStream"><path codeLine="13" d="M780.6,286.61 C821.96,288.21 850.5,292 850.5,298 C850.5,304 827.9555,307.5581 786.5955,309.1581 " fill="transparent" id="DecryptionInputStream-to-DecryptionInputStream-1" style="stroke:#181818;stroke-width:1;stroke-dasharray:7.0,7.0;"/><polygon fill="#181818" points="780.6,309.39,789.7479,313.0391,785.5963,309.1967,789.4387,305.0451,780.6,309.39" style="stroke:#181818;stroke-width:1;"/></g><!--link DecryptionInputStream to DecryptionInputStream--><g id="link_DecryptionInputStream_DecryptionInputStream"><path codeLine="14" d="M780.89,279.93 C840.92,281.31 885.5,287.33 885.5,298 C885.5,308.67 846.9184,314.5521 786.8884,315.9321 " fill="transparent" id="DecryptionInputStream-to-DecryptionInputStream-2" style="stroke:#181818;stroke-width:1;stroke-dasharray:7.0,7.0;"/><polygon fill="#181818" points="780.89,316.07,789.9796,319.8621,785.8887,315.9551,789.7957,311.8642,780.89,316.07" style="stroke:#181818;stroke-width:1;"/></g><!--link DecryptionInputStream to InputStream--><g id="link_DecryptionInputStream_InputStream"><path codeLine="9" d="M733.91,348.56 C767.49,355.14 802.1,361.24 835,366 C1098.89,404.15 1166.7,400.78 1433,414 C1456.2,415.15 1830.73,410.65 1851,422 C1884.73,440.89 1901.9701,477.9573 1916.6501,504.5473 " fill="transparent" id="DecryptionInputStream-to-InputStream" style="stroke:#181818;stroke-width:1;stroke-dasharray:7.0,7.0;"/><polygon fill="#181818" points="1919.55,509.8,1918.7019,499.9877,1917.1334,505.4228,1911.6983,503.8543,1919.55,509.8" style="stroke:#181818;stroke-width:1;"/></g><!--link DecryptionInputStream to InputStream--><g id="link_DecryptionInputStream_InputStream"><path codeLine="11" d="M768.49,348.56 C802.49,355.14 837.1,361.24 870,366 C1133.89,404.15 1201.7,400.78 1468,414 C1491.2,415.15 1865.73,410.65 1886,422 C1919.73,440.89 1938.845,477.2982 1943.455,503.8882 " fill="transparent" id="DecryptionInputStream-to-InputStream-1" style="stroke:#181818;stroke-width:1;"/><polygon fill="#181818" points="1944.48,509.8,1946.8838,500.249,1943.6259,504.8735,1939.0014,501.6156,1944.48,509.8" style="stroke:#181818;stroke-width:1;"/></g><!--link DecryptionInputStream to IDecryption--><g id="link_DecryptionInputStream_IDecryption"><path codeLine="10" d="M450.35,348.52 C438.06,362.73 427.86,379.01 422,396 C410.09,430.52 415.1295,467.2887 430.9095,495.6087 " fill="transparent" id="DecryptionInputStream-to-IDecryption" style="stroke:#181818;stroke-width:1;stroke-dasharray:7.0,7.0;"/><polygon fill="#181818" points="433.83,500.85,432.9435,491.0411,431.3963,496.4823,425.9551,494.9351,433.83,500.85" style="stroke:#181818;stroke-width:1;"/></g><!--link DecryptionInputStream to IDecryption--><g id="link_DecryptionInputStream_IDecryption"><path codeLine="12" d="M484.12,348.52 C473.06,362.73 462.86,379.01 457,396 C445.09,430.52 451.3475,466.7766 459.7275,495.0966 " fill="transparent" id="DecryptionInputStream-to-IDecryption-1" style="stroke:#181818;stroke-width:1;"/><polygon fill="#181818" points="461.43,500.85,462.7119,491.0849,460.0113,496.0555,455.0407,493.3549,461.43,500.85" style="stroke:#181818;stroke-width:1;"/></g><!--link DecryptionInputStream to IDecryption--><g id="link_DecryptionInputStream_IDecryption"><path codeLine="15" d="M517.88,348.52 C508.06,362.73 497.86,379.01 492,396 C480.09,430.52 487.8425,466.5336 488.8225,494.8536 " fill="transparent" id="DecryptionInputStream-to-IDecryption-2" style="stroke:#181818;stroke-width:1;"/><polygon fill="#181818" points="489.03,500.85,492.7164,491.717,488.8571,495.853,484.7211,491.9937,489.03,500.85" style="stroke:#181818;stroke-width:1;"/></g><!--link DecryptionInputStream to IDecryption--><g id="link_DecryptionInputStream_IDecryption"><path codeLine="16" d="M507.68,348.56 C500.98,363.48 494.4,380.11 490,396 C480.27,431.11 476.4793,466.832 474.6993,494.932 " fill="transparent" id="DecryptionInputStream-to-IDecryption-3" style="stroke:#181818;stroke-width:1;"/><polygon fill="#181818" points="474.32,500.92,478.881,492.1909,474.6361,495.93,470.897,491.6851,474.32,500.92" style="stroke:#181818;stroke-width:1;"/><text fill="#000000" font-family="sans-serif" font-size="13" lengthAdjust="spacing" textLength="54.1899" x="491" y="410.4951">decryptor</text></g><!--link EncryptionOutputStream to FilterOutputStream--><g id="link_EncryptionOutputStream_FilterOutputStream"><path codeLine="22" d="M1096.36,339.69 C1081.86,364.15 1071.53,394.27 1091,414 C1102.53,425.69 1667.17,414.96 1682,422 C1720.38,440.23 1739.9264,467.0031 1754.6864,493.8031 " fill="transparent" id="EncryptionOutputStream-to-FilterOutputStream" style="stroke:#181818;stroke-width:1;"/><polygon fill="transparent" points="1763.37,509.57,1759.9421,490.9086,1749.4308,496.6976,1763.37,509.57" style="stroke:#181818;stroke-width:1;"/></g><!--link EncryptionOutputStream to EncryptionOutputStream--><g id="link_EncryptionOutputStream_EncryptionOutputStream"><path codeLine="23" d="M1384.67,290.9 C1406.14,292.43 1419.5,294.79 1419.5,298 C1419.5,301.21 1412.1248,303.1435 1390.6548,304.6735 " fill="transparent" id="EncryptionOutputStream-to-EncryptionOutputStream" style="stroke:#181818;stroke-width:1;stroke-dasharray:7.0,7.0;"/><polygon fill="#181818" points="1384.67,305.1,1393.9316,308.4501,1389.6574,304.7446,1393.3629,300.4704,1384.67,305.1" style="stroke:#181818;stroke-width:1;"/></g><!--link EncryptionOutputStream to EncryptionOutputStream--><g id="link_EncryptionOutputStream_EncryptionOutputStream"><path codeLine="28" d="M1384.77,281.06 C1426.15,283.52 1454.5,289.17 1454.5,298 C1454.5,306.83 1432.1394,312.1239 1390.7594,314.5839 " fill="transparent" id="EncryptionOutputStream-to-EncryptionOutputStream-1" style="stroke:#181818;stroke-width:1;stroke-dasharray:7.0,7.0;"/><polygon fill="#181818" points="1384.77,314.94,1393.9915,318.3989,1389.7612,314.6433,1393.5168,310.413,1384.77,314.94" style="stroke:#181818;stroke-width:1;"/></g><!--link EncryptionOutputStream to OutputStream--><g id="link_EncryptionOutputStream_OutputStream"><path codeLine="24" d="M1231.82,339.61 C1313.62,366.34 1430.38,399.05 1536,414 C1561.2,417.57 1971.56,410 1994,422 C2028.96,440.69 2048.2254,477.9296 2064.2754,504.5896 " fill="transparent" id="EncryptionOutputStream-to-OutputStream" style="stroke:#181818;stroke-width:1;stroke-dasharray:7.0,7.0;"/><polygon fill="#181818" points="2067.37,509.73,2066.155,499.9564,2064.7911,505.4464,2059.3012,504.0825,2067.37,509.73" style="stroke:#181818;stroke-width:1;"/></g><!--link EncryptionOutputStream to OutputStream--><g id="link_EncryptionOutputStream_OutputStream"><path codeLine="26" d="M1261.19,339.61 C1348.62,366.34 1465.38,399.05 1571,414 C1596.2,417.57 2006.56,410 2029,422 C2063.96,440.69 2085.0068,477.2155 2090.9868,503.8755 " fill="transparent" id="EncryptionOutputStream-to-OutputStream-1" style="stroke:#181818;stroke-width:1;"/><polygon fill="#181818" points="2092.3,509.73,2094.2332,500.0727,2091.2057,504.8512,2086.4272,501.8237,2092.3,509.73" style="stroke:#181818;stroke-width:1;"/></g><!--link EncryptionOutputStream to IEncryption--><g id="link_EncryptionOutputStream_IEncryption"><path codeLine="25" d="M948.45,339.51 C905.37,349.74 859.64,359.62 817,366 C760.31,374.49 347.88,361.64 302,396 C269.35,420.45 257.4421,462.6553 262.5921,494.8453 " fill="transparent" id="EncryptionOutputStream-to-IEncryption" style="stroke:#181818;stroke-width:1;stroke-dasharray:7.0,7.0;"/><polygon fill="#181818" points="263.54,500.77,266.068,491.2511,262.7501,495.8328,258.1684,492.5149,263.54,500.77" style="stroke:#181818;stroke-width:1;"/></g><!--link EncryptionOutputStream to IEncryption--><g id="link_EncryptionOutputStream_IEncryption"><path codeLine="27" d="M982.04,339.51 C940.37,349.74 894.64,359.62 852,366 C795.31,374.49 382.88,361.64 337,396 C304.35,420.45 294.0642,462.618 290.4242,494.808 " fill="transparent" id="EncryptionOutputStream-to-IEncryption-1" style="stroke:#181818;stroke-width:1;"/><polygon fill="#181818" points="289.75,500.77,294.7359,492.2764,290.3118,495.8017,286.7866,491.3775,289.75,500.77" style="stroke:#181818;stroke-width:1;"/></g><!--link EncryptionOutputStream to IEncryption--><g id="link_EncryptionOutputStream_IEncryption"><path codeLine="29" d="M1015.63,339.51 C975.37,349.74 929.64,359.62 887,366 C830.31,374.49 417.88,361.64 372,396 C339.35,420.45 330.5513,462.9828 318.1213,495.1728 " fill="transparent" id="EncryptionOutputStream-to-IEncryption-2" style="stroke:#181818;stroke-width:1;"/><polygon fill="#181818" points="315.96,500.77,322.9335,493.8151,317.7611,496.1057,315.4705,490.9333,315.96,500.77" style="stroke:#181818;stroke-width:1;"/></g><!--link EncryptionOutputStream to IEncryption--><g id="link_EncryptionOutputStream_IEncryption"><path codeLine="30" d="M980.57,339.54 C939.27,349.64 894.12,359.44 852,366 C663.14,395.39 605.21,338.27 423,396 C369.84,412.84 331.8145,460.9501 309.5545,495.8801 " fill="transparent" id="EncryptionOutputStream-to-IEncryption-3" style="stroke:#181818;stroke-width:1;"/><polygon fill="#181818" points="306.33,500.94,314.5401,495.4999,309.0171,496.7234,307.7935,491.2005,306.33,500.94" style="stroke:#181818;stroke-width:1;"/><text fill="#000000" font-family="sans-serif" font-size="13" lengthAdjust="spacing" textLength="54.1899" x="424" y="410.4951">encryptor</text></g><!--link SubstitutionCipher to IEncryption--><g id="link_SubstitutionCipher_IEncryption"><path codeLine="47" d="M168.86,366.06 C200.47,410.35 230.0113,451.7602 254.6913,486.3302 " fill="transparent" id="SubstitutionCipher-to-IEncryption" style="stroke:#181818;stroke-width:1;stroke-dasharray:7.0,7.0;"/><polygon fill="transparent" points="265.15,500.98,259.5746,482.844,249.8081,489.8164,265.15,500.98" style="stroke:#181818;stroke-width:1;"/></g><!--link SubstitutionCipher to IDecryption--><g id="link_SubstitutionCipher_IDecryption"><path codeLine="48" d="M196.38,346.47 C236.73,369.96 288.08,396.88 337,414 C355.35,420.42 363.21,412.2 380,422 C412.35,440.89 428.8774,460.2134 445.1274,485.7534 " fill="transparent" id="SubstitutionCipher-to-IDecryption" style="stroke:#181818;stroke-width:1;stroke-dasharray:7.0,7.0;"/><polygon fill="transparent" points="454.79,500.94,450.1896,482.5325,440.0652,488.9742,454.79,500.94" style="stroke:#181818;stroke-width:1;"/></g><!--link SubstitutionCipher to SubstitutionCipher--><g id="link_SubstitutionCipher_SubstitutionCipher"><path codeLine="49" d="M196.06,291.93 C215.94,292.28 231,294.3 231,298 C231,301.7 221.9391,303.6144 202.0591,303.9644 " fill="transparent" id="SubstitutionCipher-to-SubstitutionCipher" style="stroke:#181818;stroke-width:1;stroke-dasharray:7.0,7.0;"/><polygon fill="#181818" points="196.06,304.07,205.129,307.911,201.0592,303.982,204.9882,299.9122,196.06,304.07" style="stroke:#181818;stroke-width:1;"/></g><!--link SubstitutionCipher to SubstitutionCipher--><g id="link_SubstitutionCipher_SubstitutionCipher"><path codeLine="50" d="M196.35,286.08 C233.25,284.52 266,288.49 266,298 C266,307.51 239.2446,311.7334 202.3446,310.1734 " fill="transparent" id="SubstitutionCipher-to-SubstitutionCipher-1" style="stroke:#181818;stroke-width:1;stroke-dasharray:7.0,7.0;"/><polygon fill="#181818" points="196.35,309.92,205.173,314.2966,201.3455,310.1312,205.5109,306.3037,196.35,309.92" style="stroke:#181818;stroke-width:1;"/></g><!--link SubstitutionCipher to SubstitutionCipher--><g id="link_SubstitutionCipher_SubstitutionCipher"><path codeLine="51" d="M196.36,281.46 C249.01,276.36 301,281.87 301,298 C301,314.13 254.982,320.2185 202.332,315.1185 " fill="transparent" id="SubstitutionCipher-to-SubstitutionCipher-2" style="stroke:#181818;stroke-width:1;stroke-dasharray:7.0,7.0;"/><polygon fill="#181818" points="196.36,314.54,204.9324,319.3891,201.3367,315.0221,205.7037,311.4264,196.36,314.54" style="stroke:#181818;stroke-width:1;"/></g><!--link TextEditorApp to TextEditorApp--><g id="link_TextEditorApp_TextEditorApp"><path codeLine="57" d="M1403.21,114.58 C1423.54,116.06 1438,120.36 1438,127.5 C1438,134.64 1429.5242,138.5044 1409.1942,139.9844 " fill="transparent" id="TextEditorApp-to-TextEditorApp" style="stroke:#181818;stroke-width:1;stroke-dasharray:7.0,7.0;"/><polygon fill="#181818" points="1403.21,140.42,1412.4767,143.756,1408.1968,140.057,1411.8958,135.7771,1403.21,140.42" style="stroke:#181818;stroke-width:1;"/></g><!--link TextEditorApp to String--><g id="link_TextEditorApp_String"><path codeLine="58" d="M1403.26,168.35 C1432.55,178.32 1464.45,189.02 1494,199 C1784.55,297.15 1903.38,235.71 2147,422 C2177.48,445.31 2196.5184,479.6767 2213.0984,504.7267 " fill="transparent" id="TextEditorApp-to-String" style="stroke:#181818;stroke-width:1;stroke-dasharray:7.0,7.0;"/><polygon fill="#181818" points="2216.41,509.73,2214.7782,500.0173,2213.6503,505.5606,2208.1071,504.4327,2216.41,509.73" style="stroke:#181818;stroke-width:1;"/></g><!--link TextEditorApp to String--><g id="link_TextEditorApp_String"><path codeLine="64" d="M1403.04,157.27 C1442.71,170 1488.11,185.19 1529,199 C1819.55,297.15 1938.38,235.71 2182,422 C2212.48,445.31 2233.1704,478.9141 2240.3804,503.9641 " fill="transparent" id="TextEditorApp-to-String-1" style="stroke:#181818;stroke-width:1;"/><polygon fill="#181818" points="2242.04,509.73,2243.3946,499.9747,2240.657,504.9251,2235.7067,502.1875,2242.04,509.73" style="stroke:#181818;stroke-width:1;"/></g><!--link TextEditorApp to SubstitutionCipher--><g id="link_TextEditorApp_SubstitutionCipher"><path codeLine="59" d="M1196.94,127.53 C1008.94,128.2 599.18,140.89 268,230 C243.9,236.49 224.2282,244.0466 201.7282,254.4266 " fill="transparent" id="TextEditorApp-to-SubstitutionCipher" style="stroke:#181818;stroke-width:1;stroke-dasharray:7.0,7.0;"/><polygon fill="#181818" points="196.28,256.94,206.1279,256.802,200.8202,254.8455,202.7767,249.5377,196.28,256.94" style="stroke:#181818;stroke-width:1;"/></g><!--link TextEditorApp to InputStream--><g id="link_TextEditorApp_InputStream"><path codeLine="60" d="M1349.74,169.12 C1373,186.11 1399.87,207.21 1421,230 C1486.57,300.72 1452.25,366.18 1536,414 C1566.4,431.36 1820.51,404.8 1851,422 C1884.67,440.99 1901.9237,478.0309 1916.6237,504.5809 " fill="transparent" id="TextEditorApp-to-InputStream" style="stroke:#181818;stroke-width:1;stroke-dasharray:7.0,7.0;"/><polygon fill="#181818" points="1919.53,509.83,1918.67,500.0188,1917.1081,505.4557,1911.6711,503.8938,1919.53,509.83" style="stroke:#181818;stroke-width:1;"/></g><!--link TextEditorApp to InputStream--><g id="link_TextEditorApp_InputStream"><path codeLine="62" d="M1382.36,169.12 C1408,186.11 1434.87,207.21 1456,230 C1521.57,300.72 1487.25,366.18 1571,414 C1601.4,431.36 1855.51,404.8 1886,422 C1919.67,440.99 1938.7992,477.3692 1943.4292,503.9192 " fill="transparent" id="TextEditorApp-to-InputStream-1" style="stroke:#181818;stroke-width:1;stroke-dasharray:7.0,7.0;"/><polygon fill="#181818" points="1944.46,509.83,1946.8544,500.2766,1943.601,504.9043,1938.9733,501.651,1944.46,509.83" style="stroke:#181818;stroke-width:1;"/></g><!--link TextEditorApp to OutputStream--><g id="link_TextEditorApp_OutputStream"><path codeLine="61" d="M1393.5,169.12 C1427.65,185.04 1465.28,205.45 1496,230 C1577.34,295 1547.84,367.49 1641,414 C1676.1,431.52 1959.45,403.42 1994,422 C2028.91,440.78 2048.1791,478.0034 2064.2491,504.6234 " fill="transparent" id="TextEditorApp-to-OutputStream" style="stroke:#181818;stroke-width:1;stroke-dasharray:7.0,7.0;"/><polygon fill="#181818" points="2067.35,509.76,2066.1231,499.9879,2064.7659,505.4795,2059.2743,504.1224,2067.35,509.76" style="stroke:#181818;stroke-width:1;"/></g><!--link TextEditorApp to OutputStream--><g id="link_TextEditorApp_OutputStream"><path codeLine="63" d="M1403.09,159.2 C1445.65,176.21 1493.48,200.02 1531,230 C1612.34,295 1582.84,367.49 1676,414 C1711.1,431.52 1994.45,403.42 2029,422 C2063.91,440.78 2084.9607,477.2868 2090.9607,503.9068 " fill="transparent" id="TextEditorApp-to-OutputStream-1" style="stroke:#181818;stroke-width:1;stroke-dasharray:7.0,7.0;"/><polygon fill="#181818" points="2092.28,509.76,2094.2032,500.1007,2091.1806,504.8824,2086.399,501.8598,2092.28,509.76" style="stroke:#181818;stroke-width:1;"/></g><!--SRC=[pPP1Ru8m5CVlV8eUCMgvUp3Pd4lC3ZjeTZ4UEkYqYnPM7jkCki- -LaIBLYYAsIuOsjVV-_Du_uV-dCGn2iKK2_gHq1XeC99N_41ziOo0XNp0emI682XPe9M3ciOTzvry4e-5dhRMKbWlX_K6XzCDoP9XWTlee067xEv-2NGyQQcbxMMtkt4iDRRRwwuIWrc87zaSgD0sRI4OToqZAn0pLNNfqMffNvnhLCZJjQYuINLh9jRrh6KSr451UXCAn_7FkB7Fi_Zd1F9sD6_j_QWl6WrvEAyC-IKOK3UrtKl80gFlp2bFZQVlMcEChz8SMeMPAQjFarQv2ZMwJeYvcouGSeigroQk32GzG_dUCupBLdiZFaN5HfDcMP7N60JnOOD-TgvpUpCYPBEh7zdinJHDmX5jf-UOTixFmqGUPP0eL8z5CoeKaExnJtIPGiOJ9viFnylDKuYhB6oIWfhcnxLHXl6wydkrfXGEL1EbQnFsRrbd6s94lw4VCDdGTr6qdUkv5VLYLp4GOBvijWLXF1tmSyAddZGDuzFnf6XavsX6jRa82y9sZgdyECr_KLAhSXipb_w3ENUgPBJzNRBisw3Nz1S0]--></g></svg>