<svg xmlns="http://www.w3.org/2000/svg" xmlns:xlink="http://www.w3.org/1999/xlink" contentStyleType="text/css" data-diagram-type="CLASS" height="745px" preserveAspectRatio="none" style="width:2308px;height:745px;background:#FFFFFF;" version="1.1" viewBox="0 0 2308 745" width="2308px" zoomAndPan="magnify"><defs/><g><!--cluster org--><g id="cluster_org"><path d="M8.5,6 L32.0518,6 A3.75,3.75 0 0 1 34.5518,8.5 L41.5518,29.6094 L1445.5,29.6094 A2.5,2.5 0 0 1 1448,32.1094 L1448,736 A2.5,2.5 0 0 1 1445.5,738.5 L8.5,738.5 A2.5,2.5 0 0 1 6,736 L6,8.5 A2.5,2.5 0 0 1 8.5,6 " fill="transparent" style="stroke:#000000;stroke-width:1.5;"/><line style="stroke:#000000;stroke-width:1.5;" x1="6" x2="41.5518" y1="29.6094" y2="29.6094"/><text fill="#000000" font-family="sans-serif" font-size="14" font-weight="bold" lengthAdjust="spacing" textLength="22.5518" x="10" y="22.5332">org</text></g><!--cluster requestedTest--><g id="cluster_requestedTest"><path d="M32.5,50 L129.1963,50 A3.75,3.75 0 0 1 131.6963,52.5 L138.6963,73.6094 L1421.5,73.6094 A2.5,2.5 0 0 1 1424,76.1094 L1424,712 A2.5,2.5 0 0 1 1421.5,714.5 L32.5,714.5 A2.5,2.5 0 0 1 30,712 L30,52.5 A2.5,2.5 0 0 1 32.5,50 " fill="transparent" style="stroke:#000000;stroke-width:1.5;"/><line style="stroke:#000000;stroke-width:1.5;" x1="30" x2="138.6963" y1="73.6094" y2="73.6094"/><text fill="#000000" font-family="sans-serif" font-size="14" font-weight="bold" lengthAdjust="spacing" textLength="95.6963" x="34" y="66.5332">requestedTest</text></g><!--cluster java--><g id="cluster_java"><path d="M1474.5,553 L1502.748,553 A3.75,3.75 0 0 1 1505.248,555.5 L1512.248,576.6094 L2298.5,576.6094 A2.5,2.5 0 0 1 2301,579.1094 L2301,718.5 A2.5,2.5 0 0 1 2298.5,721 L1474.5,721 A2.5,2.5 0 0 1 1472,718.5 L1472,555.5 A2.5,2.5 0 0 1 1474.5,553 " fill="transparent" style="stroke:#000000;stroke-width:1.5;"/><line style="stroke:#000000;stroke-width:1.5;" x1="1472" x2="1512.248" y1="576.6094" y2="576.6094"/><text fill="#000000" font-family="sans-serif" font-size="14" font-weight="bold" lengthAdjust="spacing" textLength="27.248" x="1476" y="569.5332">java</text></g><!--cluster io--><g id="cluster_io"><path d="M1498.5,597 L1511.9414,597 A3.75,3.75 0 0 1 1514.4414,599.5 L1521.4414,620.6094 L2148.5,620.6094 A2.5,2.5 0 0 1 2151,623.1094 L2151,694.5 A2.5,2.5 0 0 1 2148.5,697 L1498.5,697 A2.5,2.5 0 0 1 1496,694.5 L1496,599.5 A2.5,2.5 0 0 1 1498.5,597 " fill="transparent" style="stroke:#000000;stroke-width:1.5;"/><line style="stroke:#000000;stroke-width:1.5;" x1="1496" x2="1521.4414" y1="620.6094" y2="620.6094"/><text fill="#000000" font-family="sans-serif" font-size="14" font-weight="bold" lengthAdjust="spacing" textLength="12.4414" x="1500" y="613.5332">io</text></g><!--cluster lang--><g id="cluster_lang"><path d="M2177.5,597 L2207.2793,597 A3.75,3.75 0 0 1 2209.7793,599.5 L2216.7793,620.6094 L2274.5,620.6094 A2.5,2.5 0 0 1 2277,623.1094 L2277,694.5 A2.5,2.5 0 0 1 2274.5,697 L2177.5,697 A2.5,2.5 0 0 1 2175,694.5 L2175,599.5 A2.5,2.5 0 0 1 2177.5,597 " fill="transparent" style="stroke:#000000;stroke-width:1.5;"/><line style="stroke:#000000;stroke-width:1.5;" x1="2175" x2="2216.7793" y1="620.6094" y2="620.6094"/><text fill="#000000" font-family="sans-serif" font-size="14" font-weight="bold" lengthAdjust="spacing" textLength="28.7793" x="2179" y="613.5332">lang</text></g><!--class DecryptionInputStream--><g id="elem_DecryptionInputStream"><rect codeLine="66" fill="#F1F1F1" height="153.6563" id="DecryptionInputStream" rx="2.5" ry="2.5" style="stroke:#181818;stroke-width:0.5;" width="422.0879" x="339" y="300"/><ellipse cx="474.2046" cy="316" fill="#ADD1B2" rx="11" ry="11" style="stroke:#181818;stroke-width:1;"/><path d="M476.9702,311.875 Q477.1265,311.6563 477.314,311.5469 Q477.5015,311.4375 477.7202,311.4375 Q478.0952,311.4375 478.3296,311.7031 Q478.564,311.9531 478.564,312.5625 L478.564,314.0156 Q478.564,314.625 478.3296,314.8906 Q478.0952,315.1563 477.7202,315.1563 Q477.3765,315.1563 477.1733,314.9531 Q476.9702,314.7656 476.8608,314.25 Q476.814,313.8906 476.6265,313.7031 Q476.2983,313.3281 475.689,313.1094 Q475.0796,312.8906 474.4546,312.8906 Q473.689,312.8906 473.0483,313.2188 Q472.4233,313.5469 471.9233,314.2969 Q471.439,315.0469 471.439,316.0781 L471.439,317.1719 Q471.439,318.4063 472.3296,319.2344 Q473.2202,320.0469 474.814,320.0469 Q475.7515,320.0469 476.4077,319.7969 Q476.7983,319.6406 477.2202,319.2031 Q477.4858,318.9375 477.6265,318.8594 Q477.7827,318.7813 477.9858,318.7813 Q478.314,318.7813 478.564,319.0469 Q478.8296,319.2969 478.8296,319.6406 Q478.8296,319.9844 478.4858,320.3906 Q477.9858,320.9688 477.189,321.2969 Q476.1108,321.75 474.814,321.75 Q473.2983,321.75 472.0952,321.125 Q471.1108,320.625 470.4233,319.5625 Q469.7358,318.4844 469.7358,317.2031 L469.7358,316.0469 Q469.7358,314.7188 470.3452,313.5781 Q470.9702,312.4219 472.064,311.8125 Q473.1577,311.1875 474.3921,311.1875 Q475.1265,311.1875 475.7671,311.3594 Q476.4233,311.5156 476.9702,311.875 Z " fill="#000000"/><text fill="#000000" font-family="sans-serif" font-size="14" lengthAdjust="spacing" textLength="143.1787" x="494.7046" y="321.7285">DecryptionInputStream</text><line style="stroke:#181818;stroke-width:0.5;" x1="340" x2="760.0879" y1="332" y2="332"/><line style="stroke:#181818;stroke-width:0.5;" x1="340" x2="760.0879" y1="340" y2="340"/><ellipse cx="350" cy="354.3047" fill="#84BE84" rx="3" ry="3" style="stroke:#038048;stroke-width:1;"/><text fill="#000000" font-family="sans-serif" font-size="14" lengthAdjust="spacing" textLength="396.0879" x="359" y="358.5332">&lt;init&gt;(java/io/InputStream, org/requestedTest/IDecryption): Void</text><ellipse cx="350" cy="371.9141" fill="#84BE84" rx="3" ry="3" style="stroke:#038048;stroke-width:1;"/><text fill="#000000" font-family="sans-serif" font-size="14" lengthAdjust="spacing" textLength="60.6895" x="359" y="376.1426">read(): Int</text><ellipse cx="350" cy="389.5234" fill="#84BE84" rx="3" ry="3" style="stroke:#038048;stroke-width:1;"/><text fill="#000000" font-family="sans-serif" font-size="14" lengthAdjust="spacing" textLength="143.1719" x="359" y="393.752">read(Byte[], Int, Int): Int</text><ellipse cx="350" cy="407.1328" fill="#84BE84" rx="3" ry="3" style="stroke:#038048;stroke-width:1;"/><text fill="#000000" font-family="sans-serif" font-size="14" lengthAdjust="spacing" textLength="396.0879" x="359" y="411.3613">&lt;init&gt;(java/io/InputStream, org/requestedTest/IDecryption): Void</text><ellipse cx="350" cy="424.7422" fill="#84BE84" rx="3" ry="3" style="stroke:#038048;stroke-width:1;"/><text fill="#000000" font-family="sans-serif" font-size="14" lengthAdjust="spacing" textLength="60.6895" x="359" y="428.9707">read(): Int</text><ellipse cx="350" cy="442.3516" fill="#84BE84" rx="3" ry="3" style="stroke:#038048;stroke-width:1;"/><text fill="#000000" font-family="sans-serif" font-size="14" lengthAdjust="spacing" textLength="143.1719" x="359" y="446.5801">read(Byte[], Int, Int): Int</text></g><!--class IDecryption--><g id="elem_IDecryption"><rect codeLine="82" fill="#F1F1F1" height="83.2188" id="IDecryption" rx="2.5" ry="2.5" style="stroke:#181818;stroke-width:0.5;" width="149.7031" x="253" y="615.5"/><ellipse cx="289.1034" cy="631.5" fill="#B4A7E5" rx="11" ry="11" style="stroke:#181818;stroke-width:1;"/><path d="M290.0565,628.1406 L290.0565,634.7969 L291.7753,634.7969 Q292.3847,634.7969 292.6503,635.0313 Q292.9159,635.2656 292.9159,635.6563 Q292.9159,636.0313 292.6503,636.2656 Q292.3847,636.5 291.7753,636.5 L286.6347,636.5 Q286.0253,636.5 285.7597,636.2656 Q285.494,636.0313 285.494,635.6406 Q285.494,635.2656 285.7597,635.0313 Q286.0253,634.7969 286.6347,634.7969 L288.3534,634.7969 L288.3534,628.1406 L286.6347,628.1406 Q286.0253,628.1406 285.7597,627.9063 Q285.494,627.6719 285.494,627.2813 Q285.494,626.9063 285.7597,626.6719 Q286.0253,626.4375 286.6347,626.4375 L291.7753,626.4375 Q292.3847,626.4375 292.6503,626.6719 Q292.9159,626.9063 292.9159,627.2813 Q292.9159,627.6719 292.6503,627.9063 Q292.3847,628.1406 291.7753,628.1406 L290.0565,628.1406 Z " fill="#000000"/><text fill="#000000" font-family="sans-serif" font-size="14" font-style="italic" lengthAdjust="spacing" textLength="70.8066" x="307.7931" y="637.2285">IDecryption</text><line style="stroke:#181818;stroke-width:0.5;" x1="254" x2="401.7031" y1="647.5" y2="647.5"/><line style="stroke:#181818;stroke-width:0.5;" x1="254" x2="401.7031" y1="655.5" y2="655.5"/><polygon fill="#4177AF" points="264,665.8047,260,671.8047,268,671.8047" style="stroke:#1963A0;stroke-width:1;"/><text fill="#000000" font-family="sans-serif" font-size="14" font-style="italic" lengthAdjust="spacing" textLength="123.7031" x="273" y="674.0332">decrypt(Char): Char</text><polygon fill="#4177AF" points="264,683.4141,260,689.4141,268,689.4141" style="stroke:#1963A0;stroke-width:1;"/><text fill="#000000" font-family="sans-serif" font-size="14" font-style="italic" lengthAdjust="spacing" textLength="123.7031" x="273" y="691.6426">decrypt(Char): Char</text></g><!--class EncryptionOutputStream--><g id="elem_EncryptionOutputStream"><rect codeLine="86" fill="#F1F1F1" height="118.4375" id="EncryptionOutputStream" rx="2.5" ry="2.5" style="stroke:#181818;stroke-width:0.5;" width="432.2051" x="904" y="318"/><ellipse cx="1039.2046" cy="334" fill="#ADD1B2" rx="11" ry="11" style="stroke:#181818;stroke-width:1;"/><path d="M1041.9702,329.875 Q1042.1265,329.6563 1042.314,329.5469 Q1042.5015,329.4375 1042.7202,329.4375 Q1043.0952,329.4375 1043.3296,329.7031 Q1043.564,329.9531 1043.564,330.5625 L1043.564,332.0156 Q1043.564,332.625 1043.3296,332.8906 Q1043.0952,333.1563 1042.7202,333.1563 Q1042.3765,333.1563 1042.1733,332.9531 Q1041.9702,332.7656 1041.8608,332.25 Q1041.814,331.8906 1041.6265,331.7031 Q1041.2983,331.3281 1040.689,331.1094 Q1040.0796,330.8906 1039.4546,330.8906 Q1038.689,330.8906 1038.0483,331.2188 Q1037.4233,331.5469 1036.9233,332.2969 Q1036.439,333.0469 1036.439,334.0781 L1036.439,335.1719 Q1036.439,336.4063 1037.3296,337.2344 Q1038.2202,338.0469 1039.814,338.0469 Q1040.7515,338.0469 1041.4077,337.7969 Q1041.7983,337.6406 1042.2202,337.2031 Q1042.4858,336.9375 1042.6265,336.8594 Q1042.7827,336.7813 1042.9858,336.7813 Q1043.314,336.7813 1043.564,337.0469 Q1043.8296,337.2969 1043.8296,337.6406 Q1043.8296,337.9844 1043.4858,338.3906 Q1042.9858,338.9688 1042.189,339.2969 Q1041.1108,339.75 1039.814,339.75 Q1038.2983,339.75 1037.0952,339.125 Q1036.1108,338.625 1035.4233,337.5625 Q1034.7358,336.4844 1034.7358,335.2031 L1034.7358,334.0469 Q1034.7358,332.7188 1035.3452,331.5781 Q1035.9702,330.4219 1037.064,329.8125 Q1038.1577,329.1875 1039.3921,329.1875 Q1040.1265,329.1875 1040.7671,329.3594 Q1041.4233,329.5156 1041.9702,329.875 Z " fill="#000000"/><text fill="#000000" font-family="sans-serif" font-size="14" lengthAdjust="spacing" textLength="153.2959" x="1059.7046" y="339.7285">EncryptionOutputStream</text><line style="stroke:#181818;stroke-width:0.5;" x1="905" x2="1335.2051" y1="350" y2="350"/><line style="stroke:#181818;stroke-width:0.5;" x1="905" x2="1335.2051" y1="358" y2="358"/><ellipse cx="915" cy="372.3047" fill="#84BE84" rx="3" ry="3" style="stroke:#038048;stroke-width:1;"/><text fill="#000000" font-family="sans-serif" font-size="14" lengthAdjust="spacing" textLength="406.2051" x="924" y="376.5332">&lt;init&gt;(java/io/OutputStream, org/requestedTest/IEncryption): Void</text><ellipse cx="915" cy="389.9141" fill="#84BE84" rx="3" ry="3" style="stroke:#038048;stroke-width:1;"/><text fill="#000000" font-family="sans-serif" font-size="14" lengthAdjust="spacing" textLength="90.248" x="924" y="394.1426">write(Int): Void</text><ellipse cx="915" cy="407.5234" fill="#84BE84" rx="3" ry="3" style="stroke:#038048;stroke-width:1;"/><text fill="#000000" font-family="sans-serif" font-size="14" lengthAdjust="spacing" textLength="406.2051" x="924" y="411.752">&lt;init&gt;(java/io/OutputStream, org/requestedTest/IEncryption): Void</text><ellipse cx="915" cy="425.1328" fill="#84BE84" rx="3" ry="3" style="stroke:#038048;stroke-width:1;"/><text fill="#000000" font-family="sans-serif" font-size="14" lengthAdjust="spacing" textLength="90.248" x="924" y="429.3613">write(Int): Void</text></g><!--class IEncryption--><g id="elem_IEncryption"><rect codeLine="100" fill="#F1F1F1" height="83.2188" id="IEncryption" rx="2.5" ry="2.5" style="stroke:#181818;stroke-width:0.5;" width="149.7031" x="58" y="615.5"/><ellipse cx="94.451" cy="631.5" fill="#B4A7E5" rx="11" ry="11" style="stroke:#181818;stroke-width:1;"/><path d="M95.4042,628.1406 L95.4042,634.7969 L97.1229,634.7969 Q97.7323,634.7969 97.9979,635.0313 Q98.2635,635.2656 98.2635,635.6563 Q98.2635,636.0313 97.9979,636.2656 Q97.7323,636.5 97.1229,636.5 L91.9823,636.5 Q91.3729,636.5 91.1073,636.2656 Q90.8417,636.0313 90.8417,635.6406 Q90.8417,635.2656 91.1073,635.0313 Q91.3729,634.7969 91.9823,634.7969 L93.701,634.7969 L93.701,628.1406 L91.9823,628.1406 Q91.3729,628.1406 91.1073,627.9063 Q90.8417,627.6719 90.8417,627.2813 Q90.8417,626.9063 91.1073,626.6719 Q91.3729,626.4375 91.9823,626.4375 L97.1229,626.4375 Q97.7323,626.4375 97.9979,626.6719 Q98.2635,626.9063 98.2635,627.2813 Q98.2635,627.6719 97.9979,627.9063 Q97.7323,628.1406 97.1229,628.1406 L95.4042,628.1406 Z " fill="#000000"/><text fill="#000000" font-family="sans-serif" font-size="14" font-style="italic" lengthAdjust="spacing" textLength="70.0342" x="113.2179" y="637.2285">IEncryption</text><line style="stroke:#181818;stroke-width:0.5;" x1="59" x2="206.7031" y1="647.5" y2="647.5"/><line style="stroke:#181818;stroke-width:0.5;" x1="59" x2="206.7031" y1="655.5" y2="655.5"/><polygon fill="#4177AF" points="69,665.8047,65,671.8047,73,671.8047" style="stroke:#1963A0;stroke-width:1;"/><text fill="#000000" font-family="sans-serif" font-size="14" font-style="italic" lengthAdjust="spacing" textLength="123.7031" x="78" y="674.0332">encrypt(Char): Char</text><polygon fill="#4177AF" points="69,683.4141,65,689.4141,73,689.4141" style="stroke:#1963A0;stroke-width:1;"/><text fill="#000000" font-family="sans-serif" font-size="14" font-style="italic" lengthAdjust="spacing" textLength="123.7031" x="78" y="691.6426">encrypt(Char): Char</text></g><!--class SubstitutionCipher--><g id="elem_SubstitutionCipher"><rect codeLine="104" fill="#F1F1F1" height="224.0938" id="SubstitutionCipher" rx="2.5" ry="2.5" style="stroke:#181818;stroke-width:0.5;" width="149.7031" x="46" y="265"/><ellipse cx="62.4867" cy="281" fill="#ADD1B2" rx="11" ry="11" style="stroke:#181818;stroke-width:1;"/><path d="M65.2523,276.875 Q65.4085,276.6563 65.596,276.5469 Q65.7835,276.4375 66.0023,276.4375 Q66.3773,276.4375 66.6117,276.7031 Q66.846,276.9531 66.846,277.5625 L66.846,279.0156 Q66.846,279.625 66.6117,279.8906 Q66.3773,280.1563 66.0023,280.1563 Q65.6585,280.1563 65.4554,279.9531 Q65.2523,279.7656 65.1429,279.25 Q65.096,278.8906 64.9085,278.7031 Q64.5804,278.3281 63.971,278.1094 Q63.3617,277.8906 62.7367,277.8906 Q61.971,277.8906 61.3304,278.2188 Q60.7054,278.5469 60.2054,279.2969 Q59.721,280.0469 59.721,281.0781 L59.721,282.1719 Q59.721,283.4063 60.6117,284.2344 Q61.5023,285.0469 63.096,285.0469 Q64.0335,285.0469 64.6898,284.7969 Q65.0804,284.6406 65.5023,284.2031 Q65.7679,283.9375 65.9085,283.8594 Q66.0648,283.7813 66.2679,283.7813 Q66.596,283.7813 66.846,284.0469 Q67.1117,284.2969 67.1117,284.6406 Q67.1117,284.9844 66.7679,285.3906 Q66.2679,285.9688 65.471,286.2969 Q64.3929,286.75 63.096,286.75 Q61.5804,286.75 60.3773,286.125 Q59.3929,285.625 58.7054,284.5625 Q58.0179,283.4844 58.0179,282.2031 L58.0179,281.0469 Q58.0179,279.7188 58.6273,278.5781 Q59.2523,277.4219 60.346,276.8125 Q61.4398,276.1875 62.6742,276.1875 Q63.4085,276.1875 64.0492,276.3594 Q64.7054,276.5156 65.2523,276.875 Z " fill="#000000"/><text fill="#000000" font-family="sans-serif" font-size="14" lengthAdjust="spacing" textLength="114.3994" x="76.817" y="286.7285">SubstitutionCipher</text><line style="stroke:#181818;stroke-width:0.5;" x1="47" x2="194.7031" y1="297" y2="297"/><text fill="#000000" font-family="sans-serif" font-size="14" lengthAdjust="spacing" textLength="134.6201" x="52" y="315.5332">encryptionKey: Char[]</text><text fill="#000000" font-family="sans-serif" font-size="14" lengthAdjust="spacing" textLength="134.6201" x="52" y="333.1426">decryptionKey: Char[]</text><text fill="#000000" font-family="sans-serif" font-size="14" lengthAdjust="spacing" textLength="134.6201" x="52" y="350.752">encryptionKey: Char[]</text><text fill="#000000" font-family="sans-serif" font-size="14" lengthAdjust="spacing" textLength="134.6201" x="52" y="368.3613">decryptionKey: Char[]</text><line style="stroke:#181818;stroke-width:0.5;" x1="47" x2="194.7031" y1="375.4375" y2="375.4375"/><ellipse cx="57" cy="389.7422" fill="#84BE84" rx="3" ry="3" style="stroke:#038048;stroke-width:1;"/><text fill="#000000" font-family="sans-serif" font-size="14" lengthAdjust="spacing" textLength="79.3721" x="66" y="393.9707">&lt;init&gt;(): Void</text><ellipse cx="57" cy="407.3516" fill="#84BE84" rx="3" ry="3" style="stroke:#038048;stroke-width:1;"/><text fill="#000000" font-family="sans-serif" font-size="14" lengthAdjust="spacing" textLength="123.7031" x="66" y="411.5801">encrypt(Char): Char</text><ellipse cx="57" cy="424.9609" fill="#84BE84" rx="3" ry="3" style="stroke:#038048;stroke-width:1;"/><text fill="#000000" font-family="sans-serif" font-size="14" lengthAdjust="spacing" textLength="123.7031" x="66" y="429.1895">decrypt(Char): Char</text><ellipse cx="57" cy="442.5703" fill="#84BE84" rx="3" ry="3" style="stroke:#038048;stroke-width:1;"/><text fill="#000000" font-family="sans-serif" font-size="14" lengthAdjust="spacing" textLength="79.3721" x="66" y="446.7988">&lt;init&gt;(): Void</text><ellipse cx="57" cy="460.1797" fill="#84BE84" rx="3" ry="3" style="stroke:#038048;stroke-width:1;"/><text fill="#000000" font-family="sans-serif" font-size="14" lengthAdjust="spacing" textLength="123.7031" x="66" y="464.4082">encrypt(Char): Char</text><ellipse cx="57" cy="477.7891" fill="#84BE84" rx="3" ry="3" style="stroke:#038048;stroke-width:1;"/><text fill="#000000" font-family="sans-serif" font-size="14" lengthAdjust="spacing" textLength="123.7031" x="66" y="482.0176">decrypt(Char): Char</text></g><!--class TextEditorApp--><g id="elem_TextEditorApp"><rect codeLine="117" fill="#F1F1F1" height="118.4375" id="TextEditorApp" rx="2.5" ry="2.5" style="stroke:#181818;stroke-width:0.5;" width="205.751" x="1166" y="86"/><ellipse cx="1220.2705" cy="102" fill="#ADD1B2" rx="11" ry="11" style="stroke:#181818;stroke-width:1;"/><path d="M1223.0361,97.875 Q1223.1924,97.6563 1223.3799,97.5469 Q1223.5674,97.4375 1223.7861,97.4375 Q1224.1611,97.4375 1224.3955,97.7031 Q1224.6299,97.9531 1224.6299,98.5625 L1224.6299,100.0156 Q1224.6299,100.625 1224.3955,100.8906 Q1224.1611,101.1563 1223.7861,101.1563 Q1223.4424,101.1563 1223.2393,100.9531 Q1223.0361,100.7656 1222.9268,100.25 Q1222.8799,99.8906 1222.6924,99.7031 Q1222.3643,99.3281 1221.7549,99.1094 Q1221.1455,98.8906 1220.5205,98.8906 Q1219.7549,98.8906 1219.1143,99.2188 Q1218.4893,99.5469 1217.9893,100.2969 Q1217.5049,101.0469 1217.5049,102.0781 L1217.5049,103.1719 Q1217.5049,104.4063 1218.3955,105.2344 Q1219.2861,106.0469 1220.8799,106.0469 Q1221.8174,106.0469 1222.4736,105.7969 Q1222.8643,105.6406 1223.2861,105.2031 Q1223.5518,104.9375 1223.6924,104.8594 Q1223.8486,104.7813 1224.0518,104.7813 Q1224.3799,104.7813 1224.6299,105.0469 Q1224.8955,105.2969 1224.8955,105.6406 Q1224.8955,105.9844 1224.5518,106.3906 Q1224.0518,106.9688 1223.2549,107.2969 Q1222.1768,107.75 1220.8799,107.75 Q1219.3643,107.75 1218.1611,107.125 Q1217.1768,106.625 1216.4893,105.5625 Q1215.8018,104.4844 1215.8018,103.2031 L1215.8018,102.0469 Q1215.8018,100.7188 1216.4111,99.5781 Q1217.0361,98.4219 1218.1299,97.8125 Q1219.2236,97.1875 1220.458,97.1875 Q1221.1924,97.1875 1221.833,97.3594 Q1222.4893,97.5156 1223.0361,97.875 Z " fill="#000000"/><text fill="#000000" font-family="sans-serif" font-size="14" lengthAdjust="spacing" textLength="88.71" x="1240.7705" y="107.7285">TextEditorApp</text><line style="stroke:#181818;stroke-width:0.5;" x1="1167" x2="1370.751" y1="118" y2="118"/><line style="stroke:#181818;stroke-width:0.5;" x1="1167" x2="1370.751" y1="126" y2="126"/><ellipse cx="1177" cy="140.3047" fill="#84BE84" rx="3" ry="3" style="stroke:#038048;stroke-width:1;"/><text fill="#000000" font-family="sans-serif" font-size="14" lengthAdjust="spacing" textLength="79.3721" x="1186" y="144.5332">&lt;init&gt;(): Void</text><polygon fill="#4177AF" points="1177,153.9141,1173,159.9141,1181,159.9141" style="stroke:#1963A0;stroke-width:1;"/><text fill="#000000" font-family="sans-serif" font-size="14" lengthAdjust="spacing" text-decoration="underline" textLength="179.751" x="1186" y="162.1426">main(java/lang/String[]): Void</text><ellipse cx="1177" cy="175.5234" fill="#84BE84" rx="3" ry="3" style="stroke:#038048;stroke-width:1;"/><text fill="#000000" font-family="sans-serif" font-size="14" lengthAdjust="spacing" textLength="79.3721" x="1186" y="179.752">&lt;init&gt;(): Void</text><polygon fill="#4177AF" points="1177,189.1328,1173,195.1328,1181,195.1328" style="stroke:#1963A0;stroke-width:1;"/><text fill="#000000" font-family="sans-serif" font-size="14" lengthAdjust="spacing" text-decoration="underline" textLength="179.751" x="1186" y="197.3613">main(java/lang/String[]): Void</text></g><!--class FilterInputStream--><g id="elem_FilterInputStream"><rect fill="#F1F1F1" height="48" id="FilterInputStream" rx="2.5" ry="2.5" style="stroke:#181818;stroke-width:0.5;" width="139.3721" x="1512.5" y="633"/><ellipse cx="1527.5" cy="649" fill="#ADD1B2" rx="11" ry="11" style="stroke:#181818;stroke-width:1;"/><path d="M1530.2656,644.875 Q1530.4219,644.6563 1530.6094,644.5469 Q1530.7969,644.4375 1531.0156,644.4375 Q1531.3906,644.4375 1531.625,644.7031 Q1531.8594,644.9531 1531.8594,645.5625 L1531.8594,647.0156 Q1531.8594,647.625 1531.625,647.8906 Q1531.3906,648.1563 1531.0156,648.1563 Q1530.6719,648.1563 1530.4688,647.9531 Q1530.2656,647.7656 1530.1563,647.25 Q1530.1094,646.8906 1529.9219,646.7031 Q1529.5938,646.3281 1528.9844,646.1094 Q1528.375,645.8906 1527.75,645.8906 Q1526.9844,645.8906 1526.3438,646.2188 Q1525.7188,646.5469 1525.2188,647.2969 Q1524.7344,648.0469 1524.7344,649.0781 L1524.7344,650.1719 Q1524.7344,651.4063 1525.625,652.2344 Q1526.5156,653.0469 1528.1094,653.0469 Q1529.0469,653.0469 1529.7031,652.7969 Q1530.0938,652.6406 1530.5156,652.2031 Q1530.7813,651.9375 1530.9219,651.8594 Q1531.0781,651.7813 1531.2813,651.7813 Q1531.6094,651.7813 1531.8594,652.0469 Q1532.125,652.2969 1532.125,652.6406 Q1532.125,652.9844 1531.7813,653.3906 Q1531.2813,653.9688 1530.4844,654.2969 Q1529.4063,654.75 1528.1094,654.75 Q1526.5938,654.75 1525.3906,654.125 Q1524.4063,653.625 1523.7188,652.5625 Q1523.0313,651.4844 1523.0313,650.2031 L1523.0313,649.0469 Q1523.0313,647.7188 1523.6406,646.5781 Q1524.2656,645.4219 1525.3594,644.8125 Q1526.4531,644.1875 1527.6875,644.1875 Q1528.4219,644.1875 1529.0625,644.3594 Q1529.7188,644.5156 1530.2656,644.875 Z " fill="#000000"/><text fill="#000000" font-family="sans-serif" font-size="14" lengthAdjust="spacing" textLength="107.3721" x="1541.5" y="654.7285">FilterInputStream</text><line style="stroke:#181818;stroke-width:0.5;" x1="1513.5" x2="1650.8721" y1="665" y2="665"/><line style="stroke:#181818;stroke-width:0.5;" x1="1513.5" x2="1650.8721" y1="673" y2="673"/></g><!--class InputStream--><g id="elem_InputStream"><rect fill="#F1F1F1" height="48" id="InputStream" rx="2.5" ry="2.5" style="stroke:#181818;stroke-width:0.5;" width="108.2617" x="1872" y="633"/><ellipse cx="1887" cy="649" fill="#ADD1B2" rx="11" ry="11" style="stroke:#181818;stroke-width:1;"/><path d="M1889.7656,644.875 Q1889.9219,644.6563 1890.1094,644.5469 Q1890.2969,644.4375 1890.5156,644.4375 Q1890.8906,644.4375 1891.125,644.7031 Q1891.3594,644.9531 1891.3594,645.5625 L1891.3594,647.0156 Q1891.3594,647.625 1891.125,647.8906 Q1890.8906,648.1563 1890.5156,648.1563 Q1890.1719,648.1563 1889.9688,647.9531 Q1889.7656,647.7656 1889.6563,647.25 Q1889.6094,646.8906 1889.4219,646.7031 Q1889.0938,646.3281 1888.4844,646.1094 Q1887.875,645.8906 1887.25,645.8906 Q1886.4844,645.8906 1885.8438,646.2188 Q1885.2188,646.5469 1884.7188,647.2969 Q1884.2344,648.0469 1884.2344,649.0781 L1884.2344,650.1719 Q1884.2344,651.4063 1885.125,652.2344 Q1886.0156,653.0469 1887.6094,653.0469 Q1888.5469,653.0469 1889.2031,652.7969 Q1889.5938,652.6406 1890.0156,652.2031 Q1890.2813,651.9375 1890.4219,651.8594 Q1890.5781,651.7813 1890.7813,651.7813 Q1891.1094,651.7813 1891.3594,652.0469 Q1891.625,652.2969 1891.625,652.6406 Q1891.625,652.9844 1891.2813,653.3906 Q1890.7813,653.9688 1889.9844,654.2969 Q1888.9063,654.75 1887.6094,654.75 Q1886.0938,654.75 1884.8906,654.125 Q1883.9063,653.625 1883.2188,652.5625 Q1882.5313,651.4844 1882.5313,650.2031 L1882.5313,649.0469 Q1882.5313,647.7188 1883.1406,646.5781 Q1883.7656,645.4219 1884.8594,644.8125 Q1885.9531,644.1875 1887.1875,644.1875 Q1887.9219,644.1875 1888.5625,644.3594 Q1889.2188,644.5156 1889.7656,644.875 Z " fill="#000000"/><text fill="#000000" font-family="sans-serif" font-size="14" lengthAdjust="spacing" textLength="76.2617" x="1901" y="654.7285">InputStream</text><line style="stroke:#181818;stroke-width:0.5;" x1="1873" x2="1979.2617" y1="665" y2="665"/><line style="stroke:#181818;stroke-width:0.5;" x1="1873" x2="1979.2617" y1="673" y2="673"/></g><!--class FilterOutputStream--><g id="elem_FilterOutputStream"><rect fill="#F1F1F1" height="48" id="FilterOutputStream" rx="2.5" ry="2.5" style="stroke:#181818;stroke-width:0.5;" width="150.2617" x="1687" y="633"/><ellipse cx="1702" cy="649" fill="#ADD1B2" rx="11" ry="11" style="stroke:#181818;stroke-width:1;"/><path d="M1704.7656,644.875 Q1704.9219,644.6563 1705.1094,644.5469 Q1705.2969,644.4375 1705.5156,644.4375 Q1705.8906,644.4375 1706.125,644.7031 Q1706.3594,644.9531 1706.3594,645.5625 L1706.3594,647.0156 Q1706.3594,647.625 1706.125,647.8906 Q1705.8906,648.1563 1705.5156,648.1563 Q1705.1719,648.1563 1704.9688,647.9531 Q1704.7656,647.7656 1704.6563,647.25 Q1704.6094,646.8906 1704.4219,646.7031 Q1704.0938,646.3281 1703.4844,646.1094 Q1702.875,645.8906 1702.25,645.8906 Q1701.4844,645.8906 1700.8438,646.2188 Q1700.2188,646.5469 1699.7188,647.2969 Q1699.2344,648.0469 1699.2344,649.0781 L1699.2344,650.1719 Q1699.2344,651.4063 1700.125,652.2344 Q1701.0156,653.0469 1702.6094,653.0469 Q1703.5469,653.0469 1704.2031,652.7969 Q1704.5938,652.6406 1705.0156,652.2031 Q1705.2813,651.9375 1705.4219,651.8594 Q1705.5781,651.7813 1705.7813,651.7813 Q1706.1094,651.7813 1706.3594,652.0469 Q1706.625,652.2969 1706.625,652.6406 Q1706.625,652.9844 1706.2813,653.3906 Q1705.7813,653.9688 1704.9844,654.2969 Q1703.9063,654.75 1702.6094,654.75 Q1701.0938,654.75 1699.8906,654.125 Q1698.9063,653.625 1698.2188,652.5625 Q1697.5313,651.4844 1697.5313,650.2031 L1697.5313,649.0469 Q1697.5313,647.7188 1698.1406,646.5781 Q1698.7656,645.4219 1699.8594,644.8125 Q1700.9531,644.1875 1702.1875,644.1875 Q1702.9219,644.1875 1703.5625,644.3594 Q1704.2188,644.5156 1704.7656,644.875 Z " fill="#000000"/><text fill="#000000" font-family="sans-serif" font-size="14" lengthAdjust="spacing" textLength="118.2617" x="1716" y="654.7285">FilterOutputStream</text><line style="stroke:#181818;stroke-width:0.5;" x1="1688" x2="1836.2617" y1="665" y2="665"/><line style="stroke:#181818;stroke-width:0.5;" x1="1688" x2="1836.2617" y1="673" y2="673"/></g><!--class OutputStream--><g id="elem_OutputStream"><rect fill="#F1F1F1" height="48" id="OutputStream" rx="2.5" ry="2.5" style="stroke:#181818;stroke-width:0.5;" width="119.1514" x="2015.5" y="633"/><ellipse cx="2030.5" cy="649" fill="#ADD1B2" rx="11" ry="11" style="stroke:#181818;stroke-width:1;"/><path d="M2033.2656,644.875 Q2033.4219,644.6563 2033.6094,644.5469 Q2033.7969,644.4375 2034.0156,644.4375 Q2034.3906,644.4375 2034.625,644.7031 Q2034.8594,644.9531 2034.8594,645.5625 L2034.8594,647.0156 Q2034.8594,647.625 2034.625,647.8906 Q2034.3906,648.1563 2034.0156,648.1563 Q2033.6719,648.1563 2033.4688,647.9531 Q2033.2656,647.7656 2033.1563,647.25 Q2033.1094,646.8906 2032.9219,646.7031 Q2032.5938,646.3281 2031.9844,646.1094 Q2031.375,645.8906 2030.75,645.8906 Q2029.9844,645.8906 2029.3438,646.2188 Q2028.7188,646.5469 2028.2188,647.2969 Q2027.7344,648.0469 2027.7344,649.0781 L2027.7344,650.1719 Q2027.7344,651.4063 2028.625,652.2344 Q2029.5156,653.0469 2031.1094,653.0469 Q2032.0469,653.0469 2032.7031,652.7969 Q2033.0938,652.6406 2033.5156,652.2031 Q2033.7813,651.9375 2033.9219,651.8594 Q2034.0781,651.7813 2034.2813,651.7813 Q2034.6094,651.7813 2034.8594,652.0469 Q2035.125,652.2969 2035.125,652.6406 Q2035.125,652.9844 2034.7813,653.3906 Q2034.2813,653.9688 2033.4844,654.2969 Q2032.4063,654.75 2031.1094,654.75 Q2029.5938,654.75 2028.3906,654.125 Q2027.4063,653.625 2026.7188,652.5625 Q2026.0313,651.4844 2026.0313,650.2031 L2026.0313,649.0469 Q2026.0313,647.7188 2026.6406,646.5781 Q2027.2656,645.4219 2028.3594,644.8125 Q2029.4531,644.1875 2030.6875,644.1875 Q2031.4219,644.1875 2032.0625,644.3594 Q2032.7188,644.5156 2033.2656,644.875 Z " fill="#000000"/><text fill="#000000" font-family="sans-serif" font-size="14" lengthAdjust="spacing" textLength="87.1514" x="2044.5" y="654.7285">OutputStream</text><line style="stroke:#181818;stroke-width:0.5;" x1="2016.5" x2="2133.6514" y1="665" y2="665"/><line style="stroke:#181818;stroke-width:0.5;" x1="2016.5" x2="2133.6514" y1="673" y2="673"/></g><!--class String--><g id="elem_String"><rect fill="#F1F1F1" height="48" id="String" rx="2.5" ry="2.5" style="stroke:#181818;stroke-width:0.5;" width="68.5723" x="2191.5" y="633"/><ellipse cx="2206.5" cy="649" fill="#ADD1B2" rx="11" ry="11" style="stroke:#181818;stroke-width:1;"/><path d="M2209.2656,644.875 Q2209.4219,644.6563 2209.6094,644.5469 Q2209.7969,644.4375 2210.0156,644.4375 Q2210.3906,644.4375 2210.625,644.7031 Q2210.8594,644.9531 2210.8594,645.5625 L2210.8594,647.0156 Q2210.8594,647.625 2210.625,647.8906 Q2210.3906,648.1563 2210.0156,648.1563 Q2209.6719,648.1563 2209.4688,647.9531 Q2209.2656,647.7656 2209.1563,647.25 Q2209.1094,646.8906 2208.9219,646.7031 Q2208.5938,646.3281 2207.9844,646.1094 Q2207.375,645.8906 2206.75,645.8906 Q2205.9844,645.8906 2205.3438,646.2188 Q2204.7188,646.5469 2204.2188,647.2969 Q2203.7344,648.0469 2203.7344,649.0781 L2203.7344,650.1719 Q2203.7344,651.4063 2204.625,652.2344 Q2205.5156,653.0469 2207.1094,653.0469 Q2208.0469,653.0469 2208.7031,652.7969 Q2209.0938,652.6406 2209.5156,652.2031 Q2209.7813,651.9375 2209.9219,651.8594 Q2210.0781,651.7813 2210.2813,651.7813 Q2210.6094,651.7813 2210.8594,652.0469 Q2211.125,652.2969 2211.125,652.6406 Q2211.125,652.9844 2210.7813,653.3906 Q2210.2813,653.9688 2209.4844,654.2969 Q2208.4063,654.75 2207.1094,654.75 Q2205.5938,654.75 2204.3906,654.125 Q2203.4063,653.625 2202.7188,652.5625 Q2202.0313,651.4844 2202.0313,650.2031 L2202.0313,649.0469 Q2202.0313,647.7188 2202.6406,646.5781 Q2203.2656,645.4219 2204.3594,644.8125 Q2205.4531,644.1875 2206.6875,644.1875 Q2207.4219,644.1875 2208.0625,644.3594 Q2208.7188,644.5156 2209.2656,644.875 Z " fill="#000000"/><text fill="#000000" font-family="sans-serif" font-size="14" lengthAdjust="spacing" textLength="36.5723" x="2220.5" y="654.7285">String</text><line style="stroke:#181818;stroke-width:0.5;" x1="2192.5" x2="2259.0723" y1="665" y2="665"/><line style="stroke:#181818;stroke-width:0.5;" x1="2192.5" x2="2259.0723" y1="673" y2="673"/></g><!--link DecryptionInputStream to FilterInputStream--><g id="link_DecryptionInputStream_FilterInputStream"><path codeLine="7" d="M533.95,454.39 C536.65,484.92 547.27,517.41 572,537 C590.18,551.4 1384.92,537.9 1407,545 C1461.41,562.49 1499.3947,594.6501 1533.0947,621.7101 " fill="transparent" id="DecryptionInputStream-to-FilterInputStream" style="stroke:#181818;stroke-width:1;"/><polygon fill="transparent" points="1547.13,632.98,1536.8513,617.0317,1529.3381,626.3885,1547.13,632.98" style="stroke:#181818;stroke-width:1;"/></g><!--link DecryptionInputStream to FilterInputStream--><g id="link_DecryptionInputStream_FilterInputStream"><path codeLine="71" d="M566.09,454.39 C571.65,484.92 582.27,517.41 607,537 C625.18,551.4 1419.92,537.9 1442,545 C1496.26,562.44 1536.3414,592.0674 1559.8014,619.1374 " fill="transparent" id="DecryptionInputStream-to-FilterInputStream-1" style="stroke:#181818;stroke-width:1;"/><polygon fill="transparent" points="1571.59,632.74,1564.3356,615.2079,1555.2673,623.067,1571.59,632.74" style="stroke:#181818;stroke-width:1;"/></g><!--link DecryptionInputStream to DecryptionInputStream--><g id="link_DecryptionInputStream_DecryptionInputStream"><path codeLine="8" d="M761.27,373.37 C782.48,374.09 796,375.3 796,377 C796,378.7 788.4765,379.7064 767.2665,380.4264 " fill="transparent" id="DecryptionInputStream-to-DecryptionInputStream" style="stroke:#181818;stroke-width:1;stroke-dasharray:7.0,7.0;"/><polygon fill="#181818" points="761.27,380.63,770.4005,384.3224,766.2671,380.4604,770.1291,376.327,761.27,380.63" style="stroke:#181818;stroke-width:1;"/></g><!--link DecryptionInputStream to DecryptionInputStream--><g id="link_DecryptionInputStream_DecryptionInputStream"><path codeLine="13" d="M761.08,368.53 C801.98,369.52 831,372.34 831,377 C831,381.66 807.9782,384.3348 767.0782,385.3248 " fill="transparent" id="DecryptionInputStream-to-DecryptionInputStream-1" style="stroke:#181818;stroke-width:1;stroke-dasharray:7.0,7.0;"/><polygon fill="#181818" points="761.08,385.47,770.1742,389.251,766.0785,385.349,769.9806,381.2534,761.08,385.47" style="stroke:#181818;stroke-width:1;"/></g><!--link DecryptionInputStream to DecryptionInputStream--><g id="link_DecryptionInputStream_DecryptionInputStream"><path codeLine="14" d="M761.18,363.75 C820.48,364.33 866,368.75 866,377 C866,385.25 826.4797,389.6113 767.1797,390.1913 " fill="transparent" id="DecryptionInputStream-to-DecryptionInputStream-2" style="stroke:#181818;stroke-width:1;stroke-dasharray:7.0,7.0;"/><polygon fill="#181818" points="761.18,390.25,770.2187,394.1618,766.1798,390.2011,770.1404,386.1622,761.18,390.25" style="stroke:#181818;stroke-width:1;"/></g><!--link DecryptionInputStream to DecryptionInputStream--><g id="link_DecryptionInputStream_DecryptionInputStream"><path codeLine="72" d="M761.18,359.27 C838.08,358.82 901,364.73 901,377 C901,389.27 844.0799,395.2151 767.1799,394.7651 " fill="transparent" id="DecryptionInputStream-to-DecryptionInputStream-3" style="stroke:#181818;stroke-width:1;stroke-dasharray:7.0,7.0;"/><polygon fill="#181818" points="761.18,394.73,770.1564,398.7826,766.1799,394.7593,770.2033,390.7827,761.18,394.73" style="stroke:#181818;stroke-width:1;"/></g><!--link DecryptionInputStream to DecryptionInputStream--><g id="link_DecryptionInputStream_DecryptionInputStream"><path codeLine="77" d="M761.41,355.14 C855.14,353.13 936,360.42 936,377 C936,393.58 861.1386,400.9986 767.4086,398.9886 " fill="transparent" id="DecryptionInputStream-to-DecryptionInputStream-4" style="stroke:#181818;stroke-width:1;stroke-dasharray:7.0,7.0;"/><polygon fill="#181818" points="761.41,398.86,770.3222,403.052,766.4089,398.9672,770.4937,395.0539,761.41,398.86" style="stroke:#181818;stroke-width:1;"/></g><!--link DecryptionInputStream to DecryptionInputStream--><g id="link_DecryptionInputStream_DecryptionInputStream"><path codeLine="78" d="M761.2,351.35 C871.4,347.3 971,355.85 971,377 C971,398.15 877.396,406.9204 767.196,402.8704 " fill="transparent" id="DecryptionInputStream-to-DecryptionInputStream-5" style="stroke:#181818;stroke-width:1;stroke-dasharray:7.0,7.0;"/><polygon fill="#181818" points="761.2,402.65,770.047,406.9778,766.1966,402.8336,770.3408,398.9832,761.2,402.65" style="stroke:#181818;stroke-width:1;"/></g><!--link DecryptionInputStream to InputStream--><g id="link_DecryptionInputStream_InputStream"><path codeLine="9" d="M702.72,454.01 C744.76,467.66 790.48,480.29 834,489 C1109.79,544.19 1184.09,523 1465,537 C1483.76,537.93 1786.63,535.79 1803,545 C1836.69,563.96 1852.7478,601.8721 1877.5178,628.4321 " fill="transparent" id="DecryptionInputStream-to-InputStream" style="stroke:#181818;stroke-width:1;stroke-dasharray:7.0,7.0;"/><polygon fill="#181818" points="1881.61,632.82,1878.397,623.51,1878.1998,629.1634,1872.5464,628.9662,1881.61,632.82" style="stroke:#181818;stroke-width:1;"/></g><!--link DecryptionInputStream to InputStream--><g id="link_DecryptionInputStream_InputStream"><path codeLine="11" d="M736.93,454.01 C779.76,467.66 825.48,480.29 869,489 C1144.79,544.19 1219.09,523 1500,537 C1518.76,537.93 1821.63,535.79 1838,545 C1871.69,563.96 1888.9345,601.0104 1903.6345,627.5704 " fill="transparent" id="DecryptionInputStream-to-InputStream-1" style="stroke:#181818;stroke-width:1;"/><polygon fill="#181818" points="1906.54,632.82,1905.6815,623.0086,1904.1188,628.4453,1898.6821,626.8826,1906.54,632.82" style="stroke:#181818;stroke-width:1;"/></g><!--link DecryptionInputStream to InputStream--><g id="link_DecryptionInputStream_InputStream"><path codeLine="73" d="M761.22,450.87 C807.78,465.71 857.16,479.63 904,489 C1179.79,544.19 1254.09,523 1535,537 C1553.76,537.93 1856.63,535.79 1873,545 C1906.69,563.96 1925.8096,600.3491 1930.4396,626.9091 " fill="transparent" id="DecryptionInputStream-to-InputStream-2" style="stroke:#181818;stroke-width:1;stroke-dasharray:7.0,7.0;"/><polygon fill="#181818" points="1931.47,632.82,1933.865,623.2668,1930.6113,627.8943,1925.9838,624.6406,1931.47,632.82" style="stroke:#181818;stroke-width:1;"/></g><!--link DecryptionInputStream to InputStream--><g id="link_DecryptionInputStream_InputStream"><path codeLine="75" d="M761.23,440.03 C818.82,458.73 880.87,477.37 939,489 C1214.79,544.19 1289.09,523 1570,537 C1588.76,537.93 1891.63,535.79 1908,545 C1941.69,563.96 1963.0439,600.382 1957.6039,626.942 " fill="transparent" id="DecryptionInputStream-to-InputStream-3" style="stroke:#181818;stroke-width:1;"/><polygon fill="#181818" points="1956.4,632.82,1962.1245,624.8057,1957.4033,627.9217,1954.2872,623.2004,1956.4,632.82" style="stroke:#181818;stroke-width:1;"/></g><!--link DecryptionInputStream to IDecryption--><g id="link_DecryptionInputStream_IDecryption"><path codeLine="10" d="M438.55,454.07 C418.56,474.33 399.19,496.78 383,519 C377.61,526.4 377.78,529.2 373,537 C356.75,563.54 340.0137,587.1838 328.4337,609.9138 " fill="transparent" id="DecryptionInputStream-to-IDecryption" style="stroke:#181818;stroke-width:1;stroke-dasharray:7.0,7.0;"/><polygon fill="#181818" points="325.71,615.26,333.3596,609.0565,327.9797,610.8048,326.2314,605.425,325.71,615.26" style="stroke:#181818;stroke-width:1;"/></g><!--link DecryptionInputStream to IDecryption--><g id="link_DecryptionInputStream_IDecryption"><path codeLine="12" d="M472.4,454.07 C453.56,474.33 434.19,496.78 418,519 C412.61,526.4 412.78,529.2 408,537 C391.75,563.54 375.6926,587.5881 360.0426,610.3181 " fill="transparent" id="DecryptionInputStream-to-IDecryption-1" style="stroke:#181818;stroke-width:1;"/><polygon fill="#181818" points="356.64,615.26,365.0385,610.1155,359.4755,611.1417,358.4493,605.5788,356.64,615.26" style="stroke:#181818;stroke-width:1;"/></g><!--link DecryptionInputStream to IDecryption--><g id="link_DecryptionInputStream_IDecryption"><path codeLine="15" d="M506.25,454.07 C488.56,474.33 469.19,496.78 453,519 C447.61,526.4 447.78,529.2 443,537 C426.75,563.54 411.2219,587.9979 391.5019,610.7279 " fill="transparent" id="DecryptionInputStream-to-IDecryption-2" style="stroke:#181818;stroke-width:1;"/><polygon fill="#181818" points="387.57,615.26,396.4893,611.0831,390.8466,611.4833,390.4465,605.8406,387.57,615.26" style="stroke:#181818;stroke-width:1;"/></g><!--link DecryptionInputStream to IDecryption--><g id="link_DecryptionInputStream_IDecryption"><path codeLine="16" d="M489.04,454.33 C447.45,506.41 397.7544,568.6517 364.1144,610.7717 " fill="transparent" id="DecryptionInputStream-to-IDecryption-3" style="stroke:#181818;stroke-width:1;"/><polygon fill="#181818" points="360.37,615.46,369.1121,610.9239,363.4903,611.5531,362.8611,605.9314,360.37,615.46" style="stroke:#181818;stroke-width:1;"/><text fill="#000000" font-family="sans-serif" font-size="13" lengthAdjust="spacing" textLength="54.1899" x="434" y="533.4951">decryptor</text></g><!--link DecryptionInputStream to IDecryption--><g id="link_DecryptionInputStream_IDecryption"><path codeLine="74" d="M339.92,454.19 C315.64,472 294.48,493.43 280,519 C263.46,548.21 266.3382,581.2378 280.4882,609.9578 " fill="transparent" id="DecryptionInputStream-to-IDecryption-4" style="stroke:#181818;stroke-width:1;stroke-dasharray:7.0,7.0;"/><polygon fill="#181818" points="283.14,615.34,282.7505,605.4988,280.9302,610.8548,275.5742,609.0345,283.14,615.34" style="stroke:#181818;stroke-width:1;"/></g><!--link DecryptionInputStream to IDecryption--><g id="link_DecryptionInputStream_IDecryption"><path codeLine="76" d="M374.43,454.19 C350.64,472 329.48,493.43 315,519 C298.46,548.21 302.3131,580.8591 310.6731,609.5791 " fill="transparent" id="DecryptionInputStream-to-IDecryption-5" style="stroke:#181818;stroke-width:1;"/><polygon fill="#181818" points="312.35,615.34,313.6752,605.5807,310.9526,610.5393,305.994,607.8166,312.35,615.34" style="stroke:#181818;stroke-width:1;"/></g><!--link DecryptionInputStream to IDecryption--><g id="link_DecryptionInputStream_IDecryption"><path codeLine="79" d="M408.93,454.19 C385.64,472 364.48,493.43 350,519 C333.46,548.21 338.4552,580.6439 341.0252,609.3639 " fill="transparent" id="DecryptionInputStream-to-IDecryption-6" style="stroke:#181818;stroke-width:1;"/><polygon fill="#181818" points="341.56,615.34,344.7419,606.0193,341.1144,610.3599,336.7738,606.7323,341.56,615.34" style="stroke:#181818;stroke-width:1;"/></g><!--link DecryptionInputStream to IDecryption--><g id="link_DecryptionInputStream_IDecryption"><path codeLine="80" d="M404.02,454.03 C380.6,472.32 359.13,493.96 344,519 C326.54,547.9 323.3021,580.5321 324.0621,609.4021 " fill="transparent" id="DecryptionInputStream-to-IDecryption-7" style="stroke:#181818;stroke-width:1;"/><polygon fill="#181818" points="324.22,615.4,327.9818,606.2979,324.0884,610.4017,319.9845,606.5084,324.22,615.4" style="stroke:#181818;stroke-width:1;"/><text fill="#000000" font-family="sans-serif" font-size="13" lengthAdjust="spacing" textLength="54.1899" x="345" y="533.4951">decryptor</text></g><!--link EncryptionOutputStream to FilterOutputStream--><g id="link_EncryptionOutputStream_FilterOutputStream"><path codeLine="22" d="M1050.4,436.12 C1023.65,469.15 1005.67,509.31 1033,537 C1045.08,549.24 1636.47,537.63 1652,545 C1690.38,563.22 1707.9792,591.242 1727.6292,618.052 " fill="transparent" id="EncryptionOutputStream-to-FilterOutputStream" style="stroke:#181818;stroke-width:1;"/><polygon fill="transparent" points="1738.27,632.57,1732.4686,614.505,1722.7899,621.5989,1738.27,632.57" style="stroke:#181818;stroke-width:1;"/></g><!--link EncryptionOutputStream to FilterOutputStream--><g id="link_EncryptionOutputStream_FilterOutputStream"><path codeLine="90" d="M1080.93,436.12 C1058.65,469.15 1040.67,509.31 1068,537 C1080.08,549.24 1671.47,537.63 1687,545 C1725.38,563.22 1747.5631,588.8096 1757.1431,615.6196 " fill="transparent" id="EncryptionOutputStream-to-FilterOutputStream-1" style="stroke:#181818;stroke-width:1;"/><polygon fill="transparent" points="1763.2,632.57,1762.7933,613.6007,1751.493,617.6386,1763.2,632.57" style="stroke:#181818;stroke-width:1;"/></g><!--link EncryptionOutputStream to EncryptionOutputStream--><g id="link_EncryptionOutputStream_EncryptionOutputStream"><path codeLine="23" d="M1336,371.57 C1357.39,372.66 1371,374.47 1371,377 C1371,379.53 1363.3822,381.0346 1341.9922,382.1246 " fill="transparent" id="EncryptionOutputStream-to-EncryptionOutputStream" style="stroke:#181818;stroke-width:1;stroke-dasharray:7.0,7.0;"/><polygon fill="#181818" points="1336,382.43,1345.1919,385.9668,1340.9935,382.1755,1344.7848,377.9772,1336,382.43" style="stroke:#181818;stroke-width:1;"/></g><!--link EncryptionOutputStream to EncryptionOutputStream--><g id="link_EncryptionOutputStream_EncryptionOutputStream"><path codeLine="28" d="M1336.07,364.34 C1377.05,365.86 1406,370.08 1406,377 C1406,383.92 1383.0459,387.9176 1342.0659,389.4376 " fill="transparent" id="EncryptionOutputStream-to-EncryptionOutputStream-1" style="stroke:#181818;stroke-width:1;stroke-dasharray:7.0,7.0;"/><polygon fill="#181818" points="1336.07,389.66,1345.2121,393.3237,1341.0666,389.4747,1344.9156,385.3292,1336.07,389.66" style="stroke:#181818;stroke-width:1;"/></g><!--link EncryptionOutputStream to EncryptionOutputStream--><g id="link_EncryptionOutputStream_EncryptionOutputStream"><path codeLine="91" d="M1336.03,357.15 C1395.53,358.11 1441,364.73 1441,377 C1441,389.27 1401.5292,395.7932 1342.0292,396.7532 " fill="transparent" id="EncryptionOutputStream-to-EncryptionOutputStream-2" style="stroke:#181818;stroke-width:1;stroke-dasharray:7.0,7.0;"/><polygon fill="#181818" points="1336.03,396.85,1345.0934,400.7043,1341.0293,396.7693,1344.9643,392.7053,1336.03,396.85" style="stroke:#181818;stroke-width:1;"/></g><!--link EncryptionOutputStream to EncryptionOutputStream--><g id="link_EncryptionOutputStream_EncryptionOutputStream"><path codeLine="96" d="M1336.38,350.39 C1413.38,349.9 1476,358.76 1476,377 C1476,395.24 1419.3799,404.1382 1342.3799,403.6482 " fill="transparent" id="EncryptionOutputStream-to-EncryptionOutputStream-3" style="stroke:#181818;stroke-width:1;stroke-dasharray:7.0,7.0;"/><polygon fill="#181818" points="1336.38,403.61,1345.3544,407.6672,1341.3799,403.6418,1345.4053,399.6674,1336.38,403.61" style="stroke:#181818;stroke-width:1;"/></g><!--link EncryptionOutputStream to OutputStream--><g id="link_EncryptionOutputStream_OutputStream"><path codeLine="24" d="M1216.74,436.12 C1304.82,472.68 1435.86,516.66 1556,537 C1577.37,540.62 1926.9,534.75 1946,545 C1980.93,563.74 1999.0986,601.8266 2025.2286,628.4666 " fill="transparent" id="EncryptionOutputStream-to-OutputStream" style="stroke:#181818;stroke-width:1;stroke-dasharray:7.0,7.0;"/><polygon fill="#181818" points="2029.43,632.75,2025.9835,623.5239,2025.9288,629.1805,2020.2722,629.1258,2029.43,632.75" style="stroke:#181818;stroke-width:1;"/></g><!--link EncryptionOutputStream to OutputStream--><g id="link_EncryptionOutputStream_OutputStream"><path codeLine="26" d="M1246.15,436.02 C1339.58,472.6 1470.75,516.64 1591,537 C1612.37,540.62 1961.9,534.75 1981,545 C2015.93,563.74 2035.2023,600.9715 2051.2623,627.6115 " fill="transparent" id="EncryptionOutputStream-to-OutputStream-1" style="stroke:#181818;stroke-width:1;"/><polygon fill="#181818" points="2054.36,632.75,2053.139,622.9771,2051.7785,628.4679,2046.2877,627.1074,2054.36,632.75" style="stroke:#181818;stroke-width:1;"/></g><!--link EncryptionOutputStream to OutputStream--><g id="link_EncryptionOutputStream_OutputStream"><path codeLine="92" d="M1275.8,436.02 C1374.58,472.6 1505.75,516.64 1626,537 C1647.37,540.62 1996.9,534.75 2016,545 C2050.93,563.74 2071.9838,600.2562 2077.9738,626.8962 " fill="transparent" id="EncryptionOutputStream-to-OutputStream-2" style="stroke:#181818;stroke-width:1;stroke-dasharray:7.0,7.0;"/><polygon fill="#181818" points="2079.29,632.75,2081.2182,623.0917,2078.1931,627.8718,2073.4131,624.8467,2079.29,632.75" style="stroke:#181818;stroke-width:1;"/></g><!--link EncryptionOutputStream to OutputStream--><g id="link_EncryptionOutputStream_OutputStream"><path codeLine="94" d="M1305.45,436.02 C1409.58,472.6 1540.75,516.64 1661,537 C1682.37,540.62 2031.9,534.75 2051,545 C2085.93,563.74 2109.2083,600.1792 2105.1283,626.8192 " fill="transparent" id="EncryptionOutputStream-to-OutputStream-3" style="stroke:#181818;stroke-width:1;"/><polygon fill="#181818" points="2104.22,632.75,2109.5364,624.4593,2104.9769,627.8076,2101.6286,623.2482,2104.22,632.75" style="stroke:#181818;stroke-width:1;"/></g><!--link EncryptionOutputStream to IEncryption--><g id="link_EncryptionOutputStream_IEncryption"><path codeLine="25" d="M987.99,436.11 C945.13,456.75 897.18,477.66 851,489 C809.05,499.3 103.95,487.87 74,519 C60.98,532.53 69.7875,574.886 88.7875,610.206 " fill="transparent" id="EncryptionOutputStream-to-IEncryption" style="stroke:#181818;stroke-width:1;stroke-dasharray:7.0,7.0;"/><polygon fill="#181818" points="91.63,615.49,90.889,605.6691,89.2613,611.0867,83.8437,609.459,91.63,615.49" style="stroke:#181818;stroke-width:1;"/></g><!--link EncryptionOutputStream to IEncryption--><g id="link_EncryptionOutputStream_IEncryption"><path codeLine="27" d="M1020.52,436.11 C980.13,456.75 932.18,477.66 886,489 C844.05,499.3 138.95,487.87 109,519 C95.98,532.53 105.8223,574.4488 116.9823,609.7688 " fill="transparent" id="EncryptionOutputStream-to-IEncryption-1" style="stroke:#181818;stroke-width:1;"/><polygon fill="#181818" points="118.79,615.49,119.8926,605.7031,117.2836,610.7223,112.2643,608.1133,118.79,615.49" style="stroke:#181818;stroke-width:1;"/></g><!--link EncryptionOutputStream to IEncryption--><g id="link_EncryptionOutputStream_IEncryption"><path codeLine="29" d="M1053.05,436.11 C1015.13,456.75 967.18,477.66 921,489 C879.05,499.3 173.95,487.87 144,519 C130.98,532.53 142.0685,574.1963 145.3885,609.5163 " fill="transparent" id="EncryptionOutputStream-to-IEncryption-2" style="stroke:#181818;stroke-width:1;"/><polygon fill="#181818" points="145.95,615.49,149.0902,606.1552,145.4821,610.5119,141.1253,606.9038,145.95,615.49" style="stroke:#181818;stroke-width:1;"/></g><!--link EncryptionOutputStream to IEncryption--><g id="link_EncryptionOutputStream_IEncryption"><path codeLine="30" d="M1020.51,436.07 C980.12,456.7 932.17,477.62 886,489 C805.67,508.8 201.24,461.24 142,519 C117.08,543.29 116.682,578.5202 121.782,609.3902 " fill="transparent" id="EncryptionOutputStream-to-IEncryption-3" style="stroke:#181818;stroke-width:1;"/><polygon fill="#181818" points="122.76,615.31,125.2395,605.7784,121.945,610.3769,117.3465,607.0824,122.76,615.31" style="stroke:#181818;stroke-width:1;"/><text fill="#000000" font-family="sans-serif" font-size="13" lengthAdjust="spacing" textLength="54.1899" x="143" y="533.4951">encryptor</text></g><!--link EncryptionOutputStream to IEncryption--><g id="link_EncryptionOutputStream_IEncryption"><path codeLine="93" d="M987.65,436.11 C944.87,456.69 897.04,477.55 851,489 C778.25,507.09 240.75,479.56 177,519 C169.22,523.82 171.52,529.04 167,537 C152.15,563.17 137.4355,586.842 128.2255,609.782 " fill="transparent" id="EncryptionOutputStream-to-IEncryption-4" style="stroke:#181818;stroke-width:1;stroke-dasharray:7.0,7.0;"/><polygon fill="#181818" points="125.99,615.35,133.0552,608.4883,127.8529,610.71,125.6312,605.5077,125.99,615.35" style="stroke:#181818;stroke-width:1;"/></g><!--link EncryptionOutputStream to IEncryption--><g id="link_EncryptionOutputStream_IEncryption"><path codeLine="95" d="M1020.2,436.11 C979.87,456.69 932.04,477.55 886,489 C813.25,507.09 275.75,479.56 212,519 C204.22,523.82 206.52,529.04 202,537 C187.15,563.17 173.2229,587.2272 159.8429,610.1672 " fill="transparent" id="EncryptionOutputStream-to-IEncryption-5" style="stroke:#181818;stroke-width:1;"/><polygon fill="#181818" points="156.82,615.35,164.8096,609.591,159.3391,611.031,157.8992,605.5604,156.82,615.35" style="stroke:#181818;stroke-width:1;"/></g><!--link EncryptionOutputStream to IEncryption--><g id="link_EncryptionOutputStream_IEncryption"><path codeLine="97" d="M1052.75,436.11 C1014.87,456.69 967.04,477.55 921,489 C848.25,507.09 310.75,479.56 247,519 C239.22,523.82 241.52,529.04 237,537 C222.15,563.17 208.847,587.6456 191.287,610.5856 " fill="transparent" id="EncryptionOutputStream-to-IEncryption-6" style="stroke:#181818;stroke-width:1;"/><polygon fill="#181818" points="187.64,615.35,196.2868,610.6348,190.6792,611.3797,189.9343,605.7721,187.64,615.35" style="stroke:#181818;stroke-width:1;"/></g><!--link EncryptionOutputStream to IEncryption--><g id="link_EncryptionOutputStream_IEncryption"><path codeLine="98" d="M1020.17,436.01 C979.84,456.57 932.01,477.45 886,489 C753.5,522.25 401.21,474.65 272,519 C222.97,535.83 186.3781,576.5981 162.0781,610.6081 " fill="transparent" id="EncryptionOutputStream-to-IEncryption-7" style="stroke:#181818;stroke-width:1;"/><polygon fill="#181818" points="158.59,615.49,167.0768,610.4925,161.4968,611.4217,160.5676,605.8417,158.59,615.49" style="stroke:#181818;stroke-width:1;"/><text fill="#000000" font-family="sans-serif" font-size="13" lengthAdjust="spacing" textLength="54.1899" x="273" y="533.4951">encryptor</text></g><!--link SubstitutionCipher to IEncryption--><g id="link_SubstitutionCipher_IEncryption"><path codeLine="47" d="M76.95,489.16 C75.48,505.21 75.59,521.52 78,537 C82.17,563.79 83.9055,576.3925 94.1655,599.0525 " fill="transparent" id="SubstitutionCipher-to-IEncryption" style="stroke:#181818;stroke-width:1;stroke-dasharray:7.0,7.0;"/><polygon fill="transparent" points="101.59,615.45,99.6314,596.5777,88.6997,601.5273,101.59,615.45" style="stroke:#181818;stroke-width:1;"/></g><!--link SubstitutionCipher to IEncryption--><g id="link_SubstitutionCipher_IEncryption"><path codeLine="111" d="M111.58,489.16 C110.48,505.21 110.59,521.52 113,537 C117.17,563.79 121.5939,575.4243 127.7739,598.0843 " fill="transparent" id="SubstitutionCipher-to-IEncryption-1" style="stroke:#181818;stroke-width:1;stroke-dasharray:7.0,7.0;"/><polygon fill="transparent" points="132.51,615.45,133.5625,596.5055,121.9853,599.663,132.51,615.45" style="stroke:#181818;stroke-width:1;"/></g><!--link SubstitutionCipher to IDecryption--><g id="link_SubstitutionCipher_IDecryption"><path codeLine="48" d="M79.09,489.02 C76.41,510.55 77.44,528.94 85,537 C94.36,546.99 195.63,539.12 208,545 C240.05,560.24 255.4385,576.4339 276.1885,601.4139 " fill="transparent" id="SubstitutionCipher-to-IDecryption" style="stroke:#181818;stroke-width:1;stroke-dasharray:7.0,7.0;"/><polygon fill="transparent" points="287.69,615.26,280.8039,597.58,271.5731,605.2477,287.69,615.26" style="stroke:#181818;stroke-width:1;"/></g><!--link SubstitutionCipher to IDecryption--><g id="link_SubstitutionCipher_IDecryption"><path codeLine="112" d="M113.04,489.02 C111.41,510.55 112.44,528.94 120,537 C129.36,546.99 230.63,539.12 243,545 C275.05,560.24 292.3967,575.0181 308.0167,599.9981 " fill="transparent" id="SubstitutionCipher-to-IDecryption-1" style="stroke:#181818;stroke-width:1;stroke-dasharray:7.0,7.0;"/><polygon fill="transparent" points="317.56,615.26,313.104,596.817,302.9294,603.1792,317.56,615.26" style="stroke:#181818;stroke-width:1;"/></g><!--link SubstitutionCipher to SubstitutionCipher--><g id="link_SubstitutionCipher_SubstitutionCipher"><path codeLine="49" d="M196.06,372.6 C215.94,372.85 231,374.32 231,377 C231,379.68 221.9395,381.0746 202.0595,381.3246 " fill="transparent" id="SubstitutionCipher-to-SubstitutionCipher" style="stroke:#181818;stroke-width:1;stroke-dasharray:7.0,7.0;"/><polygon fill="#181818" points="196.06,381.4,205.1096,385.2865,201.0596,381.3371,205.009,377.2871,196.06,381.4" style="stroke:#181818;stroke-width:1;"/></g><!--link SubstitutionCipher to SubstitutionCipher--><g id="link_SubstitutionCipher_SubstitutionCipher"><path codeLine="50" d="M196.35,368.36 C233.25,367.23 266,370.11 266,377 C266,383.89 239.2472,386.9537 202.3472,385.8237 " fill="transparent" id="SubstitutionCipher-to-SubstitutionCipher-1" style="stroke:#181818;stroke-width:1;stroke-dasharray:7.0,7.0;"/><polygon fill="#181818" points="196.35,385.64,205.2233,389.9136,201.3477,385.793,205.4682,381.9174,196.35,385.64" style="stroke:#181818;stroke-width:1;"/></g><!--link SubstitutionCipher to SubstitutionCipher--><g id="link_SubstitutionCipher_SubstitutionCipher"><path codeLine="51" d="M196.36,365.02 C249.01,361.32 301,365.32 301,377 C301,388.68 254.9952,393.1006 202.3452,389.4006 " fill="transparent" id="SubstitutionCipher-to-SubstitutionCipher-2" style="stroke:#181818;stroke-width:1;stroke-dasharray:7.0,7.0;"/><polygon fill="#181818" points="196.36,388.98,205.0574,393.6011,201.3477,389.3305,205.6183,385.6208,196.36,388.98" style="stroke:#181818;stroke-width:1;"/></g><!--link SubstitutionCipher to SubstitutionCipher--><g id="link_SubstitutionCipher_SubstitutionCipher"><path codeLine="113" d="M196.2,362.38 C263.75,355.32 336,360.2 336,377 C336,393.8 269.7175,399.3037 202.1675,392.2437 " fill="transparent" id="SubstitutionCipher-to-SubstitutionCipher-3" style="stroke:#181818;stroke-width:1;stroke-dasharray:7.0,7.0;"/><polygon fill="#181818" points="196.2,391.62,204.7354,396.5339,201.1729,392.1397,205.567,388.5772,196.2,391.62" style="stroke:#181818;stroke-width:1;"/></g><!--link SubstitutionCipher to SubstitutionCipher--><g id="link_SubstitutionCipher_SubstitutionCipher"><path codeLine="114" d="M196.18,360.23 C277.98,349.31 371,354.9 371,377 C371,399.1 283.9272,405.4839 202.1272,394.5639 " fill="transparent" id="SubstitutionCipher-to-SubstitutionCipher-4" style="stroke:#181818;stroke-width:1;stroke-dasharray:7.0,7.0;"/><polygon fill="#181818" points="196.18,393.77,204.5716,398.9257,201.136,394.4316,205.6302,390.9961,196.18,393.77" style="stroke:#181818;stroke-width:1;"/></g><!--link SubstitutionCipher to SubstitutionCipher--><g id="link_SubstitutionCipher_SubstitutionCipher"><path codeLine="115" d="M196.16,358.45 C291.77,343.29 406,349.47 406,377 C406,404.53 297.696,411.6496 202.086,396.4896 " fill="transparent" id="SubstitutionCipher-to-SubstitutionCipher-5" style="stroke:#181818;stroke-width:1;stroke-dasharray:7.0,7.0;"/><polygon fill="#181818" points="196.16,395.55,204.4225,400.9101,201.0983,396.333,205.6754,393.0088,196.16,395.55" style="stroke:#181818;stroke-width:1;"/></g><!--link TextEditorApp to TextEditorApp--><g id="link_TextEditorApp_TextEditorApp"><path codeLine="57" d="M1372.21,137.1 C1392.54,138.01 1407,140.64 1407,145 C1407,149.36 1398.534,151.7217 1378.204,152.6317 " fill="transparent" id="TextEditorApp-to-TextEditorApp" style="stroke:#181818;stroke-width:1;stroke-dasharray:7.0,7.0;"/><polygon fill="#181818" points="1372.21,152.9,1381.3799,156.4935,1377.205,152.6764,1381.0221,148.5016,1372.21,152.9" style="stroke:#181818;stroke-width:1;"/></g><!--link TextEditorApp to TextEditorApp--><g id="link_TextEditorApp_TextEditorApp"><path codeLine="121" d="M1372.01,128.54 C1410.4,128 1442,133.48 1442,145 C1442,156.52 1416.3994,162.0844 1378.0094,161.5444 " fill="transparent" id="TextEditorApp-to-TextEditorApp-1" style="stroke:#181818;stroke-width:1;stroke-dasharray:7.0,7.0;"/><polygon fill="#181818" points="1372.01,161.46,1380.9529,165.5862,1377.0095,161.5303,1381.0654,157.587,1372.01,161.46" style="stroke:#181818;stroke-width:1;"/></g><!--link TextEditorApp to String--><g id="link_TextEditorApp_String"><path codeLine="58" d="M1372.32,173.52 C1454.17,192.89 1567.7,222.92 1663,265 C1873.67,358.02 1934.27,384.07 2099,545 C2131.27,576.53 2152.6248,620.8196 2186.1648,641.9696 " fill="transparent" id="TextEditorApp-to-String" style="stroke:#181818;stroke-width:1;stroke-dasharray:7.0,7.0;"/><polygon fill="#181818" points="2191.24,645.17,2185.7608,636.986,2187.0107,642.503,2181.4936,643.7529,2191.24,645.17" style="stroke:#181818;stroke-width:1;"/></g><!--link TextEditorApp to String--><g id="link_TextEditorApp_String"><path codeLine="64" d="M1372.14,166.85 C1460.95,185.68 1590.97,217.74 1698,265 C1908.67,358.02 1969.27,384.07 2134,545 C2160.95,571.33 2180.2941,603.9426 2197.7641,627.8926 " fill="transparent" id="TextEditorApp-to-String-1" style="stroke:#181818;stroke-width:1;"/><polygon fill="#181818" points="2201.3,632.74,2199.2278,623.1116,2198.3534,628.7005,2192.7646,627.8261,2201.3,632.74" style="stroke:#181818;stroke-width:1;"/></g><!--link TextEditorApp to String--><g id="link_TextEditorApp_String"><path codeLine="122" d="M1372.43,161.47 C1469,179.25 1614.97,212.88 1733,265 C1943.67,358.02 2004.27,384.07 2169,545 C2195.95,571.33 2216.8023,603.143 2225.4023,627.093 " fill="transparent" id="TextEditorApp-to-String-2" style="stroke:#181818;stroke-width:1;stroke-dasharray:7.0,7.0;"/><polygon fill="#181818" points="2227.43,632.74,2228.1531,622.9177,2225.7402,628.0342,2220.6238,625.6214,2227.43,632.74" style="stroke:#181818;stroke-width:1;"/></g><!--link TextEditorApp to String--><g id="link_TextEditorApp_String"><path codeLine="128" d="M1372.23,157.19 C1478.4,173.54 1639.71,208.35 1768,265 C1978.67,358.02 2039.27,384.07 2204,545 C2230.95,571.33 2253.8976,602.7904 2253.6276,626.7404 " fill="transparent" id="TextEditorApp-to-String-3" style="stroke:#181818;stroke-width:1;"/><polygon fill="#181818" points="2253.56,632.74,2257.6612,623.7857,2253.6164,627.7403,2249.6617,623.6955,2253.56,632.74" style="stroke:#181818;stroke-width:1;"/></g><!--link TextEditorApp to SubstitutionCipher--><g id="link_TextEditorApp_SubstitutionCipher"><path codeLine="59" d="M1165.7,146.08 C985.63,148.75 605.55,166.48 304,265 C266.63,277.21 233.3991,293.4999 201.3691,312.6599 " fill="transparent" id="TextEditorApp-to-SubstitutionCipher" style="stroke:#181818;stroke-width:1;stroke-dasharray:7.0,7.0;"/><polygon fill="#181818" points="196.22,315.74,205.997,314.5525,200.5109,313.1732,201.8902,307.6871,196.22,315.74" style="stroke:#181818;stroke-width:1;"/></g><!--link TextEditorApp to SubstitutionCipher--><g id="link_TextEditorApp_SubstitutionCipher"><path codeLine="123" d="M1165.67,146.47 C990.94,150.26 628.73,170.35 339,265 C288.98,281.34 242.315,307.4297 201.465,331.7597 " fill="transparent" id="TextEditorApp-to-SubstitutionCipher-1" style="stroke:#181818;stroke-width:1;stroke-dasharray:7.0,7.0;"/><polygon fill="#181818" points="196.31,334.83,206.0893,333.6612,200.6058,332.2715,201.9956,326.788,196.31,334.83" style="stroke:#181818;stroke-width:1;"/></g><!--link TextEditorApp to InputStream--><g id="link_TextEditorApp_InputStream"><path codeLine="60" d="M1306.54,204.19 C1328.35,222.2 1353.35,243.1 1374,265 C1473.78,370.84 1428.82,466.41 1556,537 C1580.01,550.33 1779.13,531.43 1803,545 C1836.61,564.11 1852.6819,601.9776 1877.4819,628.4976 " fill="transparent" id="TextEditorApp-to-InputStream" style="stroke:#181818;stroke-width:1;stroke-dasharray:7.0,7.0;"/><polygon fill="#181818" points="1881.58,632.88,1878.3544,623.5743,1878.1649,629.228,1872.5112,629.0385,1881.58,632.88" style="stroke:#181818;stroke-width:1;"/></g><!--link TextEditorApp to InputStream--><g id="link_TextEditorApp_InputStream"><path codeLine="62" d="M1340.11,204.19 C1363.35,222.2 1388.35,243.1 1409,265 C1508.78,370.84 1463.82,466.41 1591,537 C1615.01,550.33 1814.13,531.43 1838,545 C1871.61,564.11 1888.8666,601.1148 1903.5966,627.6348 " fill="transparent" id="TextEditorApp-to-InputStream-1" style="stroke:#181818;stroke-width:1;stroke-dasharray:7.0,7.0;"/><polygon fill="#181818" points="1906.51,632.88,1905.6368,623.0699,1904.0822,628.509,1898.6432,626.9544,1906.51,632.88" style="stroke:#181818;stroke-width:1;"/></g><!--link TextEditorApp to InputStream--><g id="link_TextEditorApp_InputStream"><path codeLine="124" d="M1372.01,202.97 C1397.21,221.25 1422.88,242.6 1444,265 C1543.78,370.84 1498.82,466.41 1626,537 C1650.01,550.33 1849.13,531.43 1873,545 C1906.61,564.11 1925.7416,600.4505 1930.4016,626.9705 " fill="transparent" id="TextEditorApp-to-InputStream-2" style="stroke:#181818;stroke-width:1;stroke-dasharray:7.0,7.0;"/><polygon fill="#181818" points="1931.44,632.88,1933.8221,623.3235,1930.5747,627.9554,1925.9428,624.7081,1931.44,632.88" style="stroke:#181818;stroke-width:1;"/></g><!--link TextEditorApp to InputStream--><g id="link_TextEditorApp_InputStream"><path codeLine="126" d="M1372.25,182.12 C1410.33,203.86 1449.2,233.4 1479,265 C1578.78,370.84 1533.82,466.41 1661,537 C1685.01,550.33 1884.13,531.43 1908,545 C1941.61,564.11 1962.9793,600.4811 1957.5693,627.0011 " fill="transparent" id="TextEditorApp-to-InputStream-3" style="stroke:#181818;stroke-width:1;stroke-dasharray:7.0,7.0;"/><polygon fill="#181818" points="1956.37,632.88,1962.0882,624.8611,1957.3694,627.9809,1954.2496,623.2621,1956.37,632.88" style="stroke:#181818;stroke-width:1;"/></g><!--link TextEditorApp to OutputStream--><g id="link_TextEditorApp_OutputStream"><path codeLine="61" d="M1372.25,191.22 C1417.27,209.6 1468.25,233.96 1510,265 C1634.55,357.61 1590.27,467.42 1729,537 C1772.13,558.63 1903.67,521.84 1946,545 C1980.77,564.02 1998.9772,602.0277 2025.1572,628.5777 " fill="transparent" id="TextEditorApp-to-OutputStream" style="stroke:#181818;stroke-width:1;stroke-dasharray:7.0,7.0;"/><polygon fill="#181818" points="2029.37,632.85,2025.8991,623.633,2025.8594,629.2897,2020.2026,629.2501,2029.37,632.85" style="stroke:#181818;stroke-width:1;"/></g><!--link TextEditorApp to OutputStream--><g id="link_TextEditorApp_OutputStream"><path codeLine="63" d="M1372.32,178.88 C1426.98,198.16 1493.12,226.43 1545,265 C1669.55,357.61 1625.27,467.42 1764,537 C1807.13,558.63 1938.67,521.84 1981,545 C2015.77,564.02 2035.0775,601.1704 2051.1875,627.7204 " fill="transparent" id="TextEditorApp-to-OutputStream-1" style="stroke:#181818;stroke-width:1;stroke-dasharray:7.0,7.0;"/><polygon fill="#181818" points="2054.3,632.85,2053.0509,623.0807,2051.7062,628.5754,2046.2115,627.2307,2054.3,632.85" style="stroke:#181818;stroke-width:1;"/></g><!--link TextEditorApp to OutputStream--><g id="link_TextEditorApp_OutputStream"><path codeLine="125" d="M1372.02,168.91 C1436.47,187.85 1518.32,219.14 1580,265 C1704.55,357.61 1660.27,467.42 1799,537 C1842.13,558.63 1973.67,521.84 2016,545 C2050.77,564.02 2071.8569,600.45 2077.9069,627 " fill="transparent" id="TextEditorApp-to-OutputStream-2" style="stroke:#181818;stroke-width:1;stroke-dasharray:7.0,7.0;"/><polygon fill="#181818" points="2079.24,632.85,2081.1404,623.1862,2078.1291,627.975,2073.3404,624.9636,2079.24,632.85" style="stroke:#181818;stroke-width:1;"/></g><!--link TextEditorApp to OutputStream--><g id="link_TextEditorApp_OutputStream"><path codeLine="127" d="M1372.03,161.54 C1447.68,179.2 1544.51,212.58 1615,265 C1739.55,357.61 1695.27,467.42 1834,537 C1877.13,558.63 2008.67,521.84 2051,545 C2085.77,564.02 2109.0882,600.3676 2105.0682,626.9176 " fill="transparent" id="TextEditorApp-to-OutputStream-3" style="stroke:#181818;stroke-width:1;stroke-dasharray:7.0,7.0;"/><polygon fill="#181818" points="2104.17,632.85,2109.4723,624.5502,2104.9185,627.9063,2101.5624,623.3526,2104.17,632.85" style="stroke:#181818;stroke-width:1;"/></g><!--SRC=[xLP1Ru8m6BtpAtfaKSlTB2IRSudPOGVDBiP31vrsqS9AsMRK_VOL4QckG57STkW5qlRhw-FhzpwUDqTH108sXGo_nJZYs1-99xp37bk6d0HqGCEO3pd3Q05M5cXT4qguQx-YT-IGm96MsmcESu3Z37AWgovu2eWl84ImRulXWF9iTBlaU3nf9rFRnsvrOsbIwtJMRa89aW3Uapd7J5hK1O7GrOoiWPYnQegFb57zv9p3GknkXCL5ijimObFVMeK3ki1F1m6pBAz0X7sQnJ_6l5I5yhfIXZbKBiCFHZYsKx5jfrHgKtFuAJTvLHj6UO7gq3gO6RFcE4dvgv6ZyuYeQ-W48fV8ScFage24KZ3TAuLGKMeloCEWN5v28Ylq7766FBu1NpkjsRqPOgBOavSezd8qYS8HsexFCLgHYeUns4fud43rI3Z3B074U_W7l4n1nXChwmh7qvdUS_6gI82M-aDrE46uhdsZsYYb3LI5ukg4_Lkimb8OuK_UzuaevPimbFlu_bvN4KUSUABA5eZGjB_F4PqwGYs4JiUJibvz0AyaUn2XWR1jOCdvC3t_f4ErigqykTAm5Esgw6b_TrZsKv1pMbWkneGR4svC-2-Py6QjXR7qnj8RIt-sfJSct9XmOyAD2R-y2Vy6]--></g></svg>