<svg xmlns="http://www.w3.org/2000/svg" xmlns:xlink="http://www.w3.org/1999/xlink" contentStyleType="text/css" data-diagram-type="CLASS" height="459px" preserveAspectRatio="none" style="width:2170px;height:459px;background:#FFFFFF;" version="1.1" viewBox="0 0 2170 459" width="2170px" zoomAndPan="magnify"><defs/><g><!--cluster org--><g id="cluster_org"><path d="M8.5,6 L32.0518,6 A3.75,3.75 0 0 1 34.5518,8.5 L41.5518,29.6094 L2160.5,29.6094 A2.5,2.5 0 0 1 2163,32.1094 L2163,449.5 A2.5,2.5 0 0 1 2160.5,452 L8.5,452 A2.5,2.5 0 0 1 6,449.5 L6,8.5 A2.5,2.5 0 0 1 8.5,6 " fill="transparent" style="stroke:#000000;stroke-width:1.5;"/><line style="stroke:#000000;stroke-width:1.5;" x1="6" x2="41.5518" y1="29.6094" y2="29.6094"/><text fill="#000000" font-family="sans-serif" font-size="14" font-weight="bold" lengthAdjust="spacing" textLength="22.5518" x="10" y="22.5332">org</text></g><!--cluster decorator--><g id="cluster_decorator"><path d="M32.5,50 L98.0723,50 A3.75,3.75 0 0 1 100.5723,52.5 L107.5723,73.6094 L2136.5,73.6094 A2.5,2.5 0 0 1 2139,76.1094 L2139,425.5 A2.5,2.5 0 0 1 2136.5,428 L32.5,428 A2.5,2.5 0 0 1 30,425.5 L30,52.5 A2.5,2.5 0 0 1 32.5,50 " fill="transparent" style="stroke:#000000;stroke-width:1.5;"/><line style="stroke:#000000;stroke-width:1.5;" x1="30" x2="107.5723" y1="73.6094" y2="73.6094"/><text fill="#000000" font-family="sans-serif" font-size="14" font-weight="bold" lengthAdjust="spacing" textLength="64.5723" x="34" y="66.5332">decorator</text></g><!--class DecoyDuck--><g id="elem_DecoyDuck"><rect codeLine="2" fill="#F1F1F1" height="100.8281" id="DecoyDuck" rx="2.5" ry="2.5" style="stroke:#181818;stroke-width:0.5;" width="187.8545" x="1917" y="109"/><ellipse cx="1970.8877" cy="125" fill="#ADD1B2" rx="11" ry="11" style="stroke:#181818;stroke-width:1;"/><path d="M1973.6533,120.875 Q1973.8096,120.6563 1973.9971,120.5469 Q1974.1846,120.4375 1974.4033,120.4375 Q1974.7783,120.4375 1975.0127,120.7031 Q1975.2471,120.9531 1975.2471,121.5625 L1975.2471,123.0156 Q1975.2471,123.625 1975.0127,123.8906 Q1974.7783,124.1563 1974.4033,124.1563 Q1974.0596,124.1563 1973.8564,123.9531 Q1973.6533,123.7656 1973.5439,123.25 Q1973.4971,122.8906 1973.3096,122.7031 Q1972.9814,122.3281 1972.3721,122.1094 Q1971.7627,121.8906 1971.1377,121.8906 Q1970.3721,121.8906 1969.7314,122.2188 Q1969.1064,122.5469 1968.6064,123.2969 Q1968.1221,124.0469 1968.1221,125.0781 L1968.1221,126.1719 Q1968.1221,127.4063 1969.0127,128.2344 Q1969.9033,129.0469 1971.4971,129.0469 Q1972.4346,129.0469 1973.0908,128.7969 Q1973.4814,128.6406 1973.9033,128.2031 Q1974.1689,127.9375 1974.3096,127.8594 Q1974.4658,127.7813 1974.6689,127.7813 Q1974.9971,127.7813 1975.2471,128.0469 Q1975.5127,128.2969 1975.5127,128.6406 Q1975.5127,128.9844 1975.1689,129.3906 Q1974.6689,129.9688 1973.8721,130.2969 Q1972.7939,130.75 1971.4971,130.75 Q1969.9814,130.75 1968.7783,130.125 Q1967.7939,129.625 1967.1064,128.5625 Q1966.4189,127.4844 1966.4189,126.2031 L1966.4189,125.0469 Q1966.4189,123.7188 1967.0283,122.5781 Q1967.6533,121.4219 1968.7471,120.8125 Q1969.8408,120.1875 1971.0752,120.1875 Q1971.8096,120.1875 1972.4502,120.3594 Q1973.1064,120.5156 1973.6533,120.875 Z " fill="#000000"/><text fill="#000000" font-family="sans-serif" font-size="14" lengthAdjust="spacing" textLength="71.5791" x="1991.3877" y="130.7285">DecoyDuck</text><line style="stroke:#181818;stroke-width:0.5;" x1="1918" x2="2103.8545" y1="141" y2="141"/><line style="stroke:#181818;stroke-width:0.5;" x1="1918" x2="2103.8545" y1="149" y2="149"/><ellipse cx="1928" cy="163.3047" fill="#84BE84" rx="3" ry="3" style="stroke:#038048;stroke-width:1;"/><text fill="#000000" font-family="sans-serif" font-size="14" lengthAdjust="spacing" textLength="80.9033" x="1937" y="167.5332">DecoyDuck()</text><ellipse cx="1928" cy="180.9141" fill="#84BE84" rx="3" ry="3" style="stroke:#038048;stroke-width:1;"/><text fill="#000000" font-family="sans-serif" font-size="14" lengthAdjust="spacing" textLength="82.4824" x="1937" y="185.1426">quack(): Void</text><ellipse cx="1928" cy="198.5234" fill="#84BE84" rx="3" ry="3" style="stroke:#038048;stroke-width:1;"/><text fill="#000000" font-family="sans-serif" font-size="14" lengthAdjust="spacing" textLength="161.8545" x="1937" y="202.752">toString(): java/lang/String</text></g><!--class Quackable--><g id="elem_Quackable"><rect codeLine="51" fill="#F1F1F1" height="65.6094" id="Quackable" rx="2.5" ry="2.5" style="stroke:#181818;stroke-width:0.5;" width="108.4824" x="959" y="328.5"/><ellipse cx="978.2983" cy="344.5" fill="#B4A7E5" rx="11" ry="11" style="stroke:#181818;stroke-width:1;"/><path d="M979.2514,341.1406 L979.2514,347.7969 L980.9702,347.7969 Q981.5795,347.7969 981.8452,348.0313 Q982.1108,348.2656 982.1108,348.6563 Q982.1108,349.0313 981.8452,349.2656 Q981.5795,349.5 980.9702,349.5 L975.8295,349.5 Q975.2202,349.5 974.9545,349.2656 Q974.6889,349.0313 974.6889,348.6406 Q974.6889,348.2656 974.9545,348.0313 Q975.2202,347.7969 975.8295,347.7969 L977.5483,347.7969 L977.5483,341.1406 L975.8295,341.1406 Q975.2202,341.1406 974.9545,340.9063 Q974.6889,340.6719 974.6889,340.2813 Q974.6889,339.9063 974.9545,339.6719 Q975.2202,339.4375 975.8295,339.4375 L980.9702,339.4375 Q981.5795,339.4375 981.8452,339.6719 Q982.1108,339.9063 982.1108,340.2813 Q982.1108,340.6719 981.8452,340.9063 Q981.5795,341.1406 980.9702,341.1406 L979.2514,341.1406 Z " fill="#000000"/><text fill="#000000" font-family="sans-serif" font-size="14" font-style="italic" lengthAdjust="spacing" textLength="66.9307" x="993.2535" y="350.2285">Quackable</text><line style="stroke:#181818;stroke-width:0.5;" x1="960" x2="1066.4824" y1="360.5" y2="360.5"/><line style="stroke:#181818;stroke-width:0.5;" x1="960" x2="1066.4824" y1="368.5" y2="368.5"/><polygon fill="#4177AF" points="970,378.8047,966,384.8047,974,384.8047" style="stroke:#1963A0;stroke-width:1;"/><text fill="#000000" font-family="sans-serif" font-size="14" font-style="italic" lengthAdjust="spacing" textLength="82.4824" x="979" y="387.0332">quack(): Void</text></g><!--class DuckCall--><g id="elem_DuckCall"><rect codeLine="10" fill="#F1F1F1" height="100.8281" id="DuckCall" rx="2.5" ry="2.5" style="stroke:#181818;stroke-width:0.5;" width="187.8545" x="1676" y="109"/><ellipse cx="1737.6704" cy="125" fill="#ADD1B2" rx="11" ry="11" style="stroke:#181818;stroke-width:1;"/><path d="M1740.436,120.875 Q1740.5923,120.6563 1740.7798,120.5469 Q1740.9673,120.4375 1741.186,120.4375 Q1741.561,120.4375 1741.7954,120.7031 Q1742.0298,120.9531 1742.0298,121.5625 L1742.0298,123.0156 Q1742.0298,123.625 1741.7954,123.8906 Q1741.561,124.1563 1741.186,124.1563 Q1740.8423,124.1563 1740.6392,123.9531 Q1740.436,123.7656 1740.3267,123.25 Q1740.2798,122.8906 1740.0923,122.7031 Q1739.7642,122.3281 1739.1548,122.1094 Q1738.5454,121.8906 1737.9204,121.8906 Q1737.1548,121.8906 1736.5142,122.2188 Q1735.8892,122.5469 1735.3892,123.2969 Q1734.9048,124.0469 1734.9048,125.0781 L1734.9048,126.1719 Q1734.9048,127.4063 1735.7954,128.2344 Q1736.686,129.0469 1738.2798,129.0469 Q1739.2173,129.0469 1739.8735,128.7969 Q1740.2642,128.6406 1740.686,128.2031 Q1740.9517,127.9375 1741.0923,127.8594 Q1741.2485,127.7813 1741.4517,127.7813 Q1741.7798,127.7813 1742.0298,128.0469 Q1742.2954,128.2969 1742.2954,128.6406 Q1742.2954,128.9844 1741.9517,129.3906 Q1741.4517,129.9688 1740.6548,130.2969 Q1739.5767,130.75 1738.2798,130.75 Q1736.7642,130.75 1735.561,130.125 Q1734.5767,129.625 1733.8892,128.5625 Q1733.2017,127.4844 1733.2017,126.2031 L1733.2017,125.0469 Q1733.2017,123.7188 1733.811,122.5781 Q1734.436,121.4219 1735.5298,120.8125 Q1736.6235,120.1875 1737.8579,120.1875 Q1738.5923,120.1875 1739.2329,120.3594 Q1739.8892,120.5156 1740.436,120.875 Z " fill="#000000"/><text fill="#000000" font-family="sans-serif" font-size="14" lengthAdjust="spacing" textLength="56.0137" x="1758.1704" y="130.7285">DuckCall</text><line style="stroke:#181818;stroke-width:0.5;" x1="1677" x2="1862.8545" y1="141" y2="141"/><line style="stroke:#181818;stroke-width:0.5;" x1="1677" x2="1862.8545" y1="149" y2="149"/><ellipse cx="1687" cy="163.3047" fill="#84BE84" rx="3" ry="3" style="stroke:#038048;stroke-width:1;"/><text fill="#000000" font-family="sans-serif" font-size="14" lengthAdjust="spacing" textLength="65.3379" x="1696" y="167.5332">DuckCall()</text><ellipse cx="1687" cy="180.9141" fill="#84BE84" rx="3" ry="3" style="stroke:#038048;stroke-width:1;"/><text fill="#000000" font-family="sans-serif" font-size="14" lengthAdjust="spacing" textLength="82.4824" x="1696" y="185.1426">quack(): Void</text><ellipse cx="1687" cy="198.5234" fill="#84BE84" rx="3" ry="3" style="stroke:#038048;stroke-width:1;"/><text fill="#000000" font-family="sans-serif" font-size="14" lengthAdjust="spacing" textLength="161.8545" x="1696" y="202.752">toString(): java/lang/String</text></g><!--class DuckSimulator--><g id="elem_DuckSimulator"><rect codeLine="18" fill="#F1F1F1" height="118.4375" id="DuckSimulator" rx="2.5" ry="2.5" style="stroke:#181818;stroke-width:0.5;" width="277.3438" x="46.5" y="100.5"/><ellipse cx="135.4082" cy="116.5" fill="#ADD1B2" rx="11" ry="11" style="stroke:#181818;stroke-width:1;"/><path d="M138.1738,112.375 Q138.3301,112.1563 138.5176,112.0469 Q138.7051,111.9375 138.9238,111.9375 Q139.2988,111.9375 139.5332,112.2031 Q139.7676,112.4531 139.7676,113.0625 L139.7676,114.5156 Q139.7676,115.125 139.5332,115.3906 Q139.2988,115.6563 138.9238,115.6563 Q138.5801,115.6563 138.377,115.4531 Q138.1738,115.2656 138.0645,114.75 Q138.0176,114.3906 137.8301,114.2031 Q137.502,113.8281 136.8926,113.6094 Q136.2832,113.3906 135.6582,113.3906 Q134.8926,113.3906 134.252,113.7188 Q133.627,114.0469 133.127,114.7969 Q132.6426,115.5469 132.6426,116.5781 L132.6426,117.6719 Q132.6426,118.9063 133.5332,119.7344 Q134.4238,120.5469 136.0176,120.5469 Q136.9551,120.5469 137.6113,120.2969 Q138.002,120.1406 138.4238,119.7031 Q138.6895,119.4375 138.8301,119.3594 Q138.9863,119.2813 139.1895,119.2813 Q139.5176,119.2813 139.7676,119.5469 Q140.0332,119.7969 140.0332,120.1406 Q140.0332,120.4844 139.6895,120.8906 Q139.1895,121.4688 138.3926,121.7969 Q137.3145,122.25 136.0176,122.25 Q134.502,122.25 133.2988,121.625 Q132.3145,121.125 131.627,120.0625 Q130.9395,118.9844 130.9395,117.7031 L130.9395,116.5469 Q130.9395,115.2188 131.5488,114.0781 Q132.1738,112.9219 133.2676,112.3125 Q134.3613,111.6875 135.5957,111.6875 Q136.3301,111.6875 136.9707,111.8594 Q137.627,112.0156 138.1738,112.375 Z " fill="#000000"/><text fill="#000000" font-family="sans-serif" font-size="14" lengthAdjust="spacing" textLength="91.0273" x="155.9082" y="122.2285">DuckSimulator</text><line style="stroke:#181818;stroke-width:0.5;" x1="47.5" x2="322.8438" y1="132.5" y2="132.5"/><line style="stroke:#181818;stroke-width:0.5;" x1="47.5" x2="322.8438" y1="140.5" y2="140.5"/><ellipse cx="57.5" cy="154.8047" fill="#84BE84" rx="3" ry="3" style="stroke:#038048;stroke-width:1;"/><text fill="#000000" font-family="sans-serif" font-size="14" lengthAdjust="spacing" textLength="100.3516" x="66.5" y="159.0332">DuckSimulator()</text><polygon fill="#4177AF" points="57.5,168.4141,53.5,174.4141,61.5,174.4141" style="stroke:#1963A0;stroke-width:1;"/><text fill="#000000" font-family="sans-serif" font-size="14" lengthAdjust="spacing" text-decoration="underline" textLength="179.751" x="66.5" y="176.6426">main(java/lang/String[]): Void</text><polygon fill="#4177AF" points="57.5,186.0234,53.5,192.0234,61.5,192.0234" style="stroke:#1963A0;stroke-width:1;"/><text fill="#000000" font-family="sans-serif" font-size="14" lengthAdjust="spacing" textLength="97.2549" x="66.5" y="194.252">simulate(): Void</text><polygon fill="#4177AF" points="57.5,203.6328,53.5,209.6328,61.5,209.6328" style="stroke:#1963A0;stroke-width:1;"/><text fill="#000000" font-family="sans-serif" font-size="14" lengthAdjust="spacing" textLength="251.3438" x="66.5" y="211.8613">simulate(org/decorator/Quackable): Void</text></g><!--class Goose--><g id="elem_Goose"><rect codeLine="27" fill="#F1F1F1" height="100.8281" id="Goose" rx="2.5" ry="2.5" style="stroke:#181818;stroke-width:0.5;" width="187.8545" x="1402" y="311"/><ellipse cx="1471.0532" cy="327" fill="#ADD1B2" rx="11" ry="11" style="stroke:#181818;stroke-width:1;"/><path d="M1473.8188,322.875 Q1473.9751,322.6563 1474.1626,322.5469 Q1474.3501,322.4375 1474.5688,322.4375 Q1474.9438,322.4375 1475.1782,322.7031 Q1475.4126,322.9531 1475.4126,323.5625 L1475.4126,325.0156 Q1475.4126,325.625 1475.1782,325.8906 Q1474.9438,326.1563 1474.5688,326.1563 Q1474.2251,326.1563 1474.022,325.9531 Q1473.8188,325.7656 1473.7095,325.25 Q1473.6626,324.8906 1473.4751,324.7031 Q1473.147,324.3281 1472.5376,324.1094 Q1471.9282,323.8906 1471.3032,323.8906 Q1470.5376,323.8906 1469.897,324.2188 Q1469.272,324.5469 1468.772,325.2969 Q1468.2876,326.0469 1468.2876,327.0781 L1468.2876,328.1719 Q1468.2876,329.4063 1469.1782,330.2344 Q1470.0688,331.0469 1471.6626,331.0469 Q1472.6001,331.0469 1473.2563,330.7969 Q1473.647,330.6406 1474.0688,330.2031 Q1474.3345,329.9375 1474.4751,329.8594 Q1474.6313,329.7813 1474.8345,329.7813 Q1475.1626,329.7813 1475.4126,330.0469 Q1475.6782,330.2969 1475.6782,330.6406 Q1475.6782,330.9844 1475.3345,331.3906 Q1474.8345,331.9688 1474.0376,332.2969 Q1472.9595,332.75 1471.6626,332.75 Q1470.147,332.75 1468.9438,332.125 Q1467.9595,331.625 1467.272,330.5625 Q1466.5845,329.4844 1466.5845,328.2031 L1466.5845,327.0469 Q1466.5845,325.7188 1467.1938,324.5781 Q1467.8188,323.4219 1468.9126,322.8125 Q1470.0063,322.1875 1471.2407,322.1875 Q1471.9751,322.1875 1472.6157,322.3594 Q1473.272,322.5156 1473.8188,322.875 Z " fill="#000000"/><text fill="#000000" font-family="sans-serif" font-size="14" lengthAdjust="spacing" textLength="41.248" x="1491.5532" y="332.7285">Goose</text><line style="stroke:#181818;stroke-width:0.5;" x1="1403" x2="1588.8545" y1="343" y2="343"/><line style="stroke:#181818;stroke-width:0.5;" x1="1403" x2="1588.8545" y1="351" y2="351"/><ellipse cx="1413" cy="365.3047" fill="#84BE84" rx="3" ry="3" style="stroke:#038048;stroke-width:1;"/><text fill="#000000" font-family="sans-serif" font-size="14" lengthAdjust="spacing" textLength="50.5723" x="1422" y="369.5332">Goose()</text><ellipse cx="1413" cy="382.9141" fill="#84BE84" rx="3" ry="3" style="stroke:#038048;stroke-width:1;"/><text fill="#000000" font-family="sans-serif" font-size="14" lengthAdjust="spacing" textLength="75.4824" x="1422" y="387.1426">honk(): Void</text><ellipse cx="1413" cy="400.5234" fill="#84BE84" rx="3" ry="3" style="stroke:#038048;stroke-width:1;"/><text fill="#000000" font-family="sans-serif" font-size="14" lengthAdjust="spacing" textLength="161.8545" x="1422" y="404.752">toString(): java/lang/String</text></g><!--class GooseAdapter--><g id="elem_GooseAdapter"><rect codeLine="34" fill="#F1F1F1" height="100.8281" id="GooseAdapter" rx="2.5" ry="2.5" style="stroke:#181818;stroke-width:0.5;" width="254.0127" x="1369" y="109"/><ellipse cx="1446.6152" cy="125" fill="#ADD1B2" rx="11" ry="11" style="stroke:#181818;stroke-width:1;"/><path d="M1449.3809,120.875 Q1449.5371,120.6563 1449.7246,120.5469 Q1449.9121,120.4375 1450.1309,120.4375 Q1450.5059,120.4375 1450.7402,120.7031 Q1450.9746,120.9531 1450.9746,121.5625 L1450.9746,123.0156 Q1450.9746,123.625 1450.7402,123.8906 Q1450.5059,124.1563 1450.1309,124.1563 Q1449.7871,124.1563 1449.584,123.9531 Q1449.3809,123.7656 1449.2715,123.25 Q1449.2246,122.8906 1449.0371,122.7031 Q1448.709,122.3281 1448.0996,122.1094 Q1447.4902,121.8906 1446.8652,121.8906 Q1446.0996,121.8906 1445.459,122.2188 Q1444.834,122.5469 1444.334,123.2969 Q1443.8496,124.0469 1443.8496,125.0781 L1443.8496,126.1719 Q1443.8496,127.4063 1444.7402,128.2344 Q1445.6309,129.0469 1447.2246,129.0469 Q1448.1621,129.0469 1448.8184,128.7969 Q1449.209,128.6406 1449.6309,128.2031 Q1449.8965,127.9375 1450.0371,127.8594 Q1450.1934,127.7813 1450.3965,127.7813 Q1450.7246,127.7813 1450.9746,128.0469 Q1451.2402,128.2969 1451.2402,128.6406 Q1451.2402,128.9844 1450.8965,129.3906 Q1450.3965,129.9688 1449.5996,130.2969 Q1448.5215,130.75 1447.2246,130.75 Q1445.709,130.75 1444.5059,130.125 Q1443.5215,129.625 1442.834,128.5625 Q1442.1465,127.4844 1442.1465,126.2031 L1442.1465,125.0469 Q1442.1465,123.7188 1442.7559,122.5781 Q1443.3809,121.4219 1444.4746,120.8125 Q1445.5684,120.1875 1446.8027,120.1875 Q1447.5371,120.1875 1448.1777,120.3594 Q1448.834,120.5156 1449.3809,120.875 Z " fill="#000000"/><text fill="#000000" font-family="sans-serif" font-size="14" lengthAdjust="spacing" textLength="90.2822" x="1467.1152" y="130.7285">GooseAdapter</text><line style="stroke:#181818;stroke-width:0.5;" x1="1370" x2="1622.0127" y1="141" y2="141"/><line style="stroke:#181818;stroke-width:0.5;" x1="1370" x2="1622.0127" y1="149" y2="149"/><ellipse cx="1380" cy="163.3047" fill="#84BE84" rx="3" ry="3" style="stroke:#038048;stroke-width:1;"/><text fill="#000000" font-family="sans-serif" font-size="14" lengthAdjust="spacing" textLength="228.0127" x="1389" y="167.5332">GooseAdapter(org/decorator/Goose)</text><ellipse cx="1380" cy="180.9141" fill="#84BE84" rx="3" ry="3" style="stroke:#038048;stroke-width:1;"/><text fill="#000000" font-family="sans-serif" font-size="14" lengthAdjust="spacing" textLength="82.4824" x="1389" y="185.1426">quack(): Void</text><ellipse cx="1380" cy="198.5234" fill="#84BE84" rx="3" ry="3" style="stroke:#038048;stroke-width:1;"/><text fill="#000000" font-family="sans-serif" font-size="14" lengthAdjust="spacing" textLength="161.8545" x="1389" y="202.752">toString(): java/lang/String</text></g><!--class MallardDuck--><g id="elem_MallardDuck"><rect codeLine="43" fill="#F1F1F1" height="100.8281" id="MallardDuck" rx="2.5" ry="2.5" style="stroke:#181818;stroke-width:0.5;" width="187.8545" x="1128" y="109"/><ellipse cx="1178.7773" cy="125" fill="#ADD1B2" rx="11" ry="11" style="stroke:#181818;stroke-width:1;"/><path d="M1181.543,120.875 Q1181.6992,120.6563 1181.8867,120.5469 Q1182.0742,120.4375 1182.293,120.4375 Q1182.668,120.4375 1182.9023,120.7031 Q1183.1367,120.9531 1183.1367,121.5625 L1183.1367,123.0156 Q1183.1367,123.625 1182.9023,123.8906 Q1182.668,124.1563 1182.293,124.1563 Q1181.9492,124.1563 1181.7461,123.9531 Q1181.543,123.7656 1181.4336,123.25 Q1181.3867,122.8906 1181.1992,122.7031 Q1180.8711,122.3281 1180.2617,122.1094 Q1179.6523,121.8906 1179.0273,121.8906 Q1178.2617,121.8906 1177.6211,122.2188 Q1176.9961,122.5469 1176.4961,123.2969 Q1176.0117,124.0469 1176.0117,125.0781 L1176.0117,126.1719 Q1176.0117,127.4063 1176.9023,128.2344 Q1177.793,129.0469 1179.3867,129.0469 Q1180.3242,129.0469 1180.9805,128.7969 Q1181.3711,128.6406 1181.793,128.2031 Q1182.0586,127.9375 1182.1992,127.8594 Q1182.3555,127.7813 1182.5586,127.7813 Q1182.8867,127.7813 1183.1367,128.0469 Q1183.4023,128.2969 1183.4023,128.6406 Q1183.4023,128.9844 1183.0586,129.3906 Q1182.5586,129.9688 1181.7617,130.2969 Q1180.6836,130.75 1179.3867,130.75 Q1177.8711,130.75 1176.668,130.125 Q1175.6836,129.625 1174.9961,128.5625 Q1174.3086,127.4844 1174.3086,126.2031 L1174.3086,125.0469 Q1174.3086,123.7188 1174.918,122.5781 Q1175.543,121.4219 1176.6367,120.8125 Q1177.7305,120.1875 1178.9648,120.1875 Q1179.6992,120.1875 1180.3398,120.3594 Q1180.9961,120.5156 1181.543,120.875 Z " fill="#000000"/><text fill="#000000" font-family="sans-serif" font-size="14" lengthAdjust="spacing" textLength="77.7998" x="1199.2773" y="130.7285">MallardDuck</text><line style="stroke:#181818;stroke-width:0.5;" x1="1129" x2="1314.8545" y1="141" y2="141"/><line style="stroke:#181818;stroke-width:0.5;" x1="1129" x2="1314.8545" y1="149" y2="149"/><ellipse cx="1139" cy="163.3047" fill="#84BE84" rx="3" ry="3" style="stroke:#038048;stroke-width:1;"/><text fill="#000000" font-family="sans-serif" font-size="14" lengthAdjust="spacing" textLength="87.124" x="1148" y="167.5332">MallardDuck()</text><ellipse cx="1139" cy="180.9141" fill="#84BE84" rx="3" ry="3" style="stroke:#038048;stroke-width:1;"/><text fill="#000000" font-family="sans-serif" font-size="14" lengthAdjust="spacing" textLength="82.4824" x="1148" y="185.1426">quack(): Void</text><ellipse cx="1139" cy="198.5234" fill="#84BE84" rx="3" ry="3" style="stroke:#038048;stroke-width:1;"/><text fill="#000000" font-family="sans-serif" font-size="14" lengthAdjust="spacing" textLength="161.8545" x="1148" y="202.752">toString(): java/lang/String</text></g><!--class RedheadDuck--><g id="elem_RedheadDuck"><rect codeLine="55" fill="#F1F1F1" height="83.2188" id="RedheadDuck" rx="2.5" ry="2.5" style="stroke:#181818;stroke-width:0.5;" width="124.0479" x="951" y="118"/><ellipse cx="967.4959" cy="134" fill="#ADD1B2" rx="11" ry="11" style="stroke:#181818;stroke-width:1;"/><path d="M970.2615,129.875 Q970.4178,129.6563 970.6053,129.5469 Q970.7928,129.4375 971.0115,129.4375 Q971.3865,129.4375 971.6209,129.7031 Q971.8553,129.9531 971.8553,130.5625 L971.8553,132.0156 Q971.8553,132.625 971.6209,132.8906 Q971.3865,133.1563 971.0115,133.1563 Q970.6678,133.1563 970.4646,132.9531 Q970.2615,132.7656 970.1521,132.25 Q970.1053,131.8906 969.9178,131.7031 Q969.5896,131.3281 968.9803,131.1094 Q968.3709,130.8906 967.7459,130.8906 Q966.9803,130.8906 966.3396,131.2188 Q965.7146,131.5469 965.2146,132.2969 Q964.7303,133.0469 964.7303,134.0781 L964.7303,135.1719 Q964.7303,136.4063 965.6209,137.2344 Q966.5115,138.0469 968.1053,138.0469 Q969.0428,138.0469 969.699,137.7969 Q970.0896,137.6406 970.5115,137.2031 Q970.7771,136.9375 970.9178,136.8594 Q971.074,136.7813 971.2771,136.7813 Q971.6053,136.7813 971.8553,137.0469 Q972.1209,137.2969 972.1209,137.6406 Q972.1209,137.9844 971.7771,138.3906 Q971.2771,138.9688 970.4803,139.2969 Q969.4021,139.75 968.1053,139.75 Q966.5896,139.75 965.3865,139.125 Q964.4021,138.625 963.7146,137.5625 Q963.0271,136.4844 963.0271,135.2031 L963.0271,134.0469 Q963.0271,132.7188 963.6365,131.5781 Q964.2615,130.4219 965.3553,129.8125 Q966.449,129.1875 967.6834,129.1875 Q968.4178,129.1875 969.0584,129.3594 Q969.7146,129.5156 970.2615,129.875 Z " fill="#000000"/><text fill="#000000" font-family="sans-serif" font-size="14" lengthAdjust="spacing" textLength="88.7236" x="981.8283" y="139.7285">RedheadDuck</text><line style="stroke:#181818;stroke-width:0.5;" x1="952" x2="1074.0479" y1="150" y2="150"/><line style="stroke:#181818;stroke-width:0.5;" x1="952" x2="1074.0479" y1="158" y2="158"/><ellipse cx="962" cy="172.3047" fill="#84BE84" rx="3" ry="3" style="stroke:#038048;stroke-width:1;"/><text fill="#000000" font-family="sans-serif" font-size="14" lengthAdjust="spacing" textLength="98.0479" x="971" y="176.5332">RedheadDuck()</text><ellipse cx="962" cy="189.9141" fill="#84BE84" rx="3" ry="3" style="stroke:#038048;stroke-width:1;"/><text fill="#000000" font-family="sans-serif" font-size="14" lengthAdjust="spacing" textLength="82.4824" x="971" y="194.1426">quack(): Void</text></g><!--class RubberDuck--><g id="elem_RubberDuck"><rect codeLine="62" fill="#F1F1F1" height="100.8281" id="RubberDuck" rx="2.5" ry="2.5" style="stroke:#181818;stroke-width:0.5;" width="187.8545" x="710" y="109"/><ellipse cx="760.7705" cy="125" fill="#ADD1B2" rx="11" ry="11" style="stroke:#181818;stroke-width:1;"/><path d="M763.5361,120.875 Q763.6924,120.6563 763.8799,120.5469 Q764.0674,120.4375 764.2861,120.4375 Q764.6611,120.4375 764.8955,120.7031 Q765.1299,120.9531 765.1299,121.5625 L765.1299,123.0156 Q765.1299,123.625 764.8955,123.8906 Q764.6611,124.1563 764.2861,124.1563 Q763.9424,124.1563 763.7393,123.9531 Q763.5361,123.7656 763.4268,123.25 Q763.3799,122.8906 763.1924,122.7031 Q762.8643,122.3281 762.2549,122.1094 Q761.6455,121.8906 761.0205,121.8906 Q760.2549,121.8906 759.6143,122.2188 Q758.9893,122.5469 758.4893,123.2969 Q758.0049,124.0469 758.0049,125.0781 L758.0049,126.1719 Q758.0049,127.4063 758.8955,128.2344 Q759.7861,129.0469 761.3799,129.0469 Q762.3174,129.0469 762.9736,128.7969 Q763.3643,128.6406 763.7861,128.2031 Q764.0518,127.9375 764.1924,127.8594 Q764.3486,127.7813 764.5518,127.7813 Q764.8799,127.7813 765.1299,128.0469 Q765.3955,128.2969 765.3955,128.6406 Q765.3955,128.9844 765.0518,129.3906 Q764.5518,129.9688 763.7549,130.2969 Q762.6768,130.75 761.3799,130.75 Q759.8643,130.75 758.6611,130.125 Q757.6768,129.625 756.9893,128.5625 Q756.3018,127.4844 756.3018,126.2031 L756.3018,125.0469 Q756.3018,123.7188 756.9111,122.5781 Q757.5361,121.4219 758.6299,120.8125 Q759.7236,120.1875 760.958,120.1875 Q761.6924,120.1875 762.333,120.3594 Q762.9893,120.5156 763.5361,120.875 Z " fill="#000000"/><text fill="#000000" font-family="sans-serif" font-size="14" lengthAdjust="spacing" textLength="77.8135" x="781.2705" y="130.7285">RubberDuck</text><line style="stroke:#181818;stroke-width:0.5;" x1="711" x2="896.8545" y1="141" y2="141"/><line style="stroke:#181818;stroke-width:0.5;" x1="711" x2="896.8545" y1="149" y2="149"/><ellipse cx="721" cy="163.3047" fill="#84BE84" rx="3" ry="3" style="stroke:#038048;stroke-width:1;"/><text fill="#000000" font-family="sans-serif" font-size="14" lengthAdjust="spacing" textLength="87.1377" x="730" y="167.5332">RubberDuck()</text><ellipse cx="721" cy="180.9141" fill="#84BE84" rx="3" ry="3" style="stroke:#038048;stroke-width:1;"/><text fill="#000000" font-family="sans-serif" font-size="14" lengthAdjust="spacing" textLength="82.4824" x="730" y="185.1426">quack(): Void</text><ellipse cx="721" cy="198.5234" fill="#84BE84" rx="3" ry="3" style="stroke:#038048;stroke-width:1;"/><text fill="#000000" font-family="sans-serif" font-size="14" lengthAdjust="spacing" textLength="161.8545" x="730" y="202.752">toString(): java/lang/String</text></g><!--class QuackCounter--><g id="elem_QuackCounter"><rect codeLine="70" fill="#8888FF" height="146.75" id="QuackCounter" rx="2.5" ry="2.5" style="stroke:#0000FF;stroke-width:0.5;" width="279.6816" x="377" y="86"/><ellipse cx="467.4565" cy="107.3516" fill="#ADD1B2" rx="11" ry="11" style="stroke:#181818;stroke-width:1;"/><path d="M470.2222,103.2266 Q470.3784,103.0078 470.5659,102.8984 Q470.7534,102.7891 470.9722,102.7891 Q471.3472,102.7891 471.5815,103.0547 Q471.8159,103.3047 471.8159,103.9141 L471.8159,105.3672 Q471.8159,105.9766 471.5815,106.2422 Q471.3472,106.5078 470.9722,106.5078 Q470.6284,106.5078 470.4253,106.3047 Q470.2222,106.1172 470.1128,105.6016 Q470.0659,105.2422 469.8784,105.0547 Q469.5503,104.6797 468.9409,104.4609 Q468.3315,104.2422 467.7065,104.2422 Q466.9409,104.2422 466.3003,104.5703 Q465.6753,104.8984 465.1753,105.6484 Q464.6909,106.3984 464.6909,107.4297 L464.6909,108.5234 Q464.6909,109.7578 465.5815,110.5859 Q466.4722,111.3984 468.0659,111.3984 Q469.0034,111.3984 469.6597,111.1484 Q470.0503,110.9922 470.4722,110.5547 Q470.7378,110.2891 470.8784,110.2109 Q471.0347,110.1328 471.2378,110.1328 Q471.5659,110.1328 471.8159,110.3984 Q472.0815,110.6484 472.0815,110.9922 Q472.0815,111.3359 471.7378,111.7422 Q471.2378,112.3203 470.4409,112.6484 Q469.3628,113.1016 468.0659,113.1016 Q466.5503,113.1016 465.3472,112.4766 Q464.3628,111.9766 463.6753,110.9141 Q462.9878,109.8359 462.9878,108.5547 L462.9878,107.3984 Q462.9878,106.0703 463.5972,104.9297 Q464.2222,103.7734 465.3159,103.1641 Q466.4097,102.5391 467.644,102.5391 Q468.3784,102.5391 469.019,102.7109 Q469.6753,102.8672 470.2222,103.2266 Z " fill="#000000"/><text fill="#000000" font-family="sans-serif" font-size="12" font-style="italic" lengthAdjust="spacing" textLength="66.0352" x="500.0732" y="103.457">&#171;Decorator&#187;</text><text fill="#000000" font-family="sans-serif" font-size="14" lengthAdjust="spacing" textLength="90.2686" x="487.9565" y="120.627">QuackCounter</text><line style="stroke:#0000FF;stroke-width:0.5;" x1="378" x2="655.6816" y1="128.7031" y2="128.7031"/><text fill="#000000" font-family="sans-serif" font-size="14" lengthAdjust="spacing" textLength="133.0547" x="383" y="147.2363">numberOfQuacks: Int</text><line style="stroke:#0000FF;stroke-width:0.5;" x1="378" x2="655.6816" y1="154.3125" y2="154.3125"/><ellipse cx="388" cy="168.6172" fill="#84BE84" rx="3" ry="3" style="stroke:#038048;stroke-width:1;"/><text fill="#000000" font-family="sans-serif" font-size="14" lengthAdjust="spacing" textLength="253.6816" x="397" y="172.8457">QuackCounter(org/decorator/Quackable)</text><ellipse cx="388" cy="186.2266" fill="#84BE84" rx="3" ry="3" style="stroke:#038048;stroke-width:1;"/><text fill="#000000" font-family="sans-serif" font-size="14" lengthAdjust="spacing" textLength="82.4824" x="397" y="190.4551">quack(): Void</text><polygon fill="#4177AF" points="388,199.8359,384,205.8359,392,205.8359" style="stroke:#1963A0;stroke-width:1;"/><text fill="#000000" font-family="sans-serif" font-size="14" lengthAdjust="spacing" text-decoration="underline" textLength="99.5928" x="397" y="208.0645">getQuacks(): Int</text><ellipse cx="388" cy="221.4453" fill="#84BE84" rx="3" ry="3" style="stroke:#038048;stroke-width:1;"/><text fill="#000000" font-family="sans-serif" font-size="14" lengthAdjust="spacing" textLength="161.8545" x="397" y="225.6738">toString(): java/lang/String</text></g><!--link DecoyDuck to Quackable--><g id="link_DecoyDuck_Quackable"><path codeLine="7" d="M1945.13,210.14 C1930.85,218.97 1915.4,227.19 1900,233 C1860.61,247.86 1271.2951,326.4134 1084.8651,351.0334 " fill="transparent" id="DecoyDuck-to-Quackable" style="stroke:#181818;stroke-width:1;stroke-dasharray:7.0,7.0;"/><polygon fill="transparent" points="1067.02,353.39,1085.6506,356.9817,1084.0795,345.085,1067.02,353.39" style="stroke:#181818;stroke-width:1;"/></g><!--link DecoyDuck to DecoyDuck--><g id="link_DecoyDuck_DecoyDuck"><path codeLine="8" d="M2105.21,139.15 C2125.39,141.18 2140,147.96 2140,159.5 C2140,171.04 2131.3599,177.2195 2111.1799,179.2495 " fill="transparent" id="DecoyDuck-to-DecoyDuck" style="stroke:#181818;stroke-width:1;stroke-dasharray:7.0,7.0;"/><polygon fill="#181818" points="2105.21,179.85,2114.5652,182.9291,2110.1849,179.3496,2113.7644,174.9693,2105.21,179.85" style="stroke:#181818;stroke-width:1;"/></g><!--link DuckCall to Quackable--><g id="link_DuckCall_Quackable"><path codeLine="15" d="M1703.39,210.14 C1689.29,218.86 1674.09,227.04 1659,233 C1587.23,261.34 1563.8,248.57 1488,263 C1335,292.12 1172.6827,326.3091 1084.6427,345.1191 " fill="transparent" id="DuckCall-to-Quackable" style="stroke:#181818;stroke-width:1;stroke-dasharray:7.0,7.0;"/><polygon fill="transparent" points="1067.04,348.88,1085.8963,350.9867,1083.3891,339.2516,1067.04,348.88" style="stroke:#181818;stroke-width:1;"/></g><!--link DuckCall to DuckCall--><g id="link_DuckCall_DuckCall"><path codeLine="16" d="M1864.21,139.15 C1884.39,141.18 1899,147.96 1899,159.5 C1899,171.04 1890.3599,177.2195 1870.1799,179.2495 " fill="transparent" id="DuckCall-to-DuckCall" style="stroke:#181818;stroke-width:1;stroke-dasharray:7.0,7.0;"/><polygon fill="#181818" points="1864.21,179.85,1873.5652,182.9291,1869.1849,179.3496,1872.7644,174.9693,1864.21,179.85" style="stroke:#181818;stroke-width:1;"/></g><!--link DuckSimulator to DuckSimulator--><g id="link_DuckSimulator_DuckSimulator"><path codeLine="24" d="M323.5,140.4 C344.36,143.34 358.5,149.71 358.5,159.5 C358.5,169.29 350.3013,174.8226 329.4413,177.7626 " fill="transparent" id="DuckSimulator-to-DuckSimulator" style="stroke:#181818;stroke-width:1;stroke-dasharray:7.0,7.0;"/><polygon fill="#181818" points="323.5,178.6,332.9702,181.3048,328.4511,177.9022,331.8537,173.3831,323.5,178.6" style="stroke:#181818;stroke-width:1;"/></g><!--link DuckSimulator to Quackable--><g id="link_DuckSimulator_Quackable"><path codeLine="25" d="M317.28,218.54 C331.56,223.83 345.99,228.78 360,233 C577.32,298.51 839.8028,337.7761 952.8428,352.8661 " fill="transparent" id="DuckSimulator-to-Quackable" style="stroke:#181818;stroke-width:1;"/><polygon fill="#181818" points="958.79,353.66,950.3984,348.5043,953.834,352.9984,949.3399,356.434,958.79,353.66" style="stroke:#181818;stroke-width:1;"/></g><!--link Goose to Goose--><g id="link_Goose_Goose"><path codeLine="32" d="M1590.21,345.51 C1610.39,347.1 1625,352.43 1625,361.5 C1625,370.57 1616.3715,375.4287 1596.1915,377.0187 " fill="transparent" id="Goose-to-Goose" style="stroke:#181818;stroke-width:1;stroke-dasharray:7.0,7.0;"/><polygon fill="#181818" points="1590.21,377.49,1599.4964,380.7707,1595.1946,377.0973,1598.868,372.7954,1590.21,377.49" style="stroke:#181818;stroke-width:1;"/></g><!--link GooseAdapter to Quackable--><g id="link_GooseAdapter_Quackable"><path codeLine="39" d="M1401.02,210.11 C1384.8,218.06 1368.02,225.98 1352,233 C1253.23,276.29 1151.6715,312.917 1084.1515,336.267 " fill="transparent" id="GooseAdapter-to-Quackable" style="stroke:#181818;stroke-width:1;stroke-dasharray:7.0,7.0;"/><polygon fill="transparent" points="1067.14,342.15,1086.1125,341.9375,1082.1905,330.5965,1067.14,342.15" style="stroke:#181818;stroke-width:1;"/></g><!--link GooseAdapter to GooseAdapter--><g id="link_GooseAdapter_GooseAdapter"><path codeLine="40" d="M1623.01,140.07 C1643.75,142.85 1658,149.33 1658,159.5 C1658,169.67 1649.6968,175.3529 1628.9568,178.1329 " fill="transparent" id="GooseAdapter-to-GooseAdapter" style="stroke:#181818;stroke-width:1;stroke-dasharray:7.0,7.0;"/><polygon fill="#181818" points="1623.01,178.93,1632.4616,181.6989,1627.9657,178.2657,1631.3988,173.7698,1623.01,178.93" style="stroke:#181818;stroke-width:1;"/></g><!--link GooseAdapter to Goose--><g id="link_GooseAdapter_Goose"><path codeLine="41" d="M1496,210.2 C1496,240.85 1496,274.04 1496,304.71 " fill="transparent" id="GooseAdapter-to-Goose" style="stroke:#181818;stroke-width:1;"/><polygon fill="#181818" points="1496,310.71,1500,301.71,1496,305.71,1492,301.71,1496,310.71" style="stroke:#181818;stroke-width:1;"/><text fill="#000000" font-family="sans-serif" font-size="13" lengthAdjust="spacing" textLength="35.4199" x="1497" y="277.4951">goose</text></g><!--link MallardDuck to Quackable--><g id="link_MallardDuck_Quackable"><path codeLine="48" d="M1170.07,210.2 C1131.5,247.1 1093.0238,283.9141 1059.6938,315.8141 " fill="transparent" id="MallardDuck-to-Quackable" style="stroke:#181818;stroke-width:1;stroke-dasharray:7.0,7.0;"/><polygon fill="transparent" points="1046.69,328.26,1063.8425,320.1487,1055.5452,311.4795,1046.69,328.26" style="stroke:#181818;stroke-width:1;"/></g><!--link MallardDuck to MallardDuck--><g id="link_MallardDuck_MallardDuck"><path codeLine="49" d="M1316.21,139.15 C1336.39,141.18 1351,147.96 1351,159.5 C1351,171.04 1342.3599,177.2195 1322.1799,179.2495 " fill="transparent" id="MallardDuck-to-MallardDuck" style="stroke:#181818;stroke-width:1;stroke-dasharray:7.0,7.0;"/><polygon fill="#181818" points="1316.21,179.85,1325.5652,182.9291,1321.1849,179.3496,1324.7644,174.9693,1316.21,179.85" style="stroke:#181818;stroke-width:1;"/></g><!--link RedheadDuck to Quackable--><g id="link_RedheadDuck_Quackable"><path codeLine="59" d="M1013,201.46 C1013,239.05 1013,276 1013,310.48 " fill="transparent" id="RedheadDuck-to-Quackable" style="stroke:#181818;stroke-width:1;stroke-dasharray:7.0,7.0;"/><polygon fill="transparent" points="1013,328.48,1019,310.48,1007,310.48,1013,328.48" style="stroke:#181818;stroke-width:1;"/></g><!--link RedheadDuck to RedheadDuck--><g id="link_RedheadDuck_RedheadDuck"><path codeLine="60" d="M1075.04,138.51 C1094.58,138.83 1110,145.83 1110,159.5 C1110,173.17 1100.5792,180.0718 1081.0392,180.3918 " fill="transparent" id="RedheadDuck-to-RedheadDuck" style="stroke:#181818;stroke-width:1;stroke-dasharray:7.0,7.0;"/><polygon fill="#181818" points="1075.04,180.49,1084.1043,184.3421,1080.0393,180.4081,1083.9733,176.3432,1075.04,180.49" style="stroke:#181818;stroke-width:1;"/></g><!--link RubberDuck to Quackable--><g id="link_RubberDuck_Quackable"><path codeLine="67" d="M855.93,210.2 C894.5,247.1 932.9762,283.9141 966.3062,315.8141 " fill="transparent" id="RubberDuck-to-Quackable" style="stroke:#181818;stroke-width:1;stroke-dasharray:7.0,7.0;"/><polygon fill="transparent" points="979.31,328.26,970.4548,311.4795,962.1575,320.1487,979.31,328.26" style="stroke:#181818;stroke-width:1;"/></g><!--link RubberDuck to RubberDuck--><g id="link_RubberDuck_RubberDuck"><path codeLine="68" d="M898.21,139.15 C918.39,141.18 933,147.96 933,159.5 C933,171.04 924.3599,177.2195 904.1799,179.2495 " fill="transparent" id="RubberDuck-to-RubberDuck" style="stroke:#181818;stroke-width:1;stroke-dasharray:7.0,7.0;"/><polygon fill="#181818" points="898.21,179.85,907.5652,182.9291,903.1849,179.3496,906.7644,174.9693,898.21,179.85" style="stroke:#181818;stroke-width:1;"/></g><!--link QuackCounter to Quackable--><g id="link_QuackCounter_Quackable"><path codeLine="77" d="M628.34,233.13 C657.97,250.44 690.52,267.73 722,281 C801.5,314.52 881.5752,334.1742 941.1152,346.5242 " fill="transparent" id="QuackCounter-to-Quackable" style="stroke:#181818;stroke-width:1;stroke-dasharray:7.0,7.0;"/><polygon fill="transparent" points="958.74,350.18,942.3338,340.6492,939.8966,352.3991,958.74,350.18" style="stroke:#181818;stroke-width:1;"/></g><!--link QuackCounter to Quackable--><g id="link_QuackCounter_Quackable"><path codeLine="79" d="M657.2,218.42 C669.3,223.37 681.36,228.28 693,233 C786.25,270.78 889.5698,311.7751 953.2698,336.9451 " fill="transparent" id="QuackCounter-to-Quackable-1" style="stroke:#181818;stroke-width:1;"/><polygon fill="#181818" points="958.85,339.15,951.9497,332.1225,954.1999,337.3126,949.0098,339.5627,958.85,339.15" style="stroke:#181818;stroke-width:1;"/><text fill="#000000" font-family="sans-serif" font-size="13" lengthAdjust="spacing" textLength="27.46" x="808" y="277.4951">duck</text></g><!--link QuackCounter to QuackCounter--><g id="link_QuackCounter_QuackCounter"><path codeLine="78" d="M657.05,140.45 C677.9,143.42 692,149.77 692,159.5 C692,169.23 683.84,174.7339 662.99,177.7039 " fill="transparent" id="QuackCounter-to-QuackCounter" style="stroke:#181818;stroke-width:1;stroke-dasharray:7.0,7.0;"/><polygon fill="#181818" points="657.05,178.55,666.5241,181.2408,662,177.8449,665.396,173.3208,657.05,178.55" style="stroke:#181818;stroke-width:1;"/></g><!--SRC=[hLH1IyCm6BttLmIyJCJsEke8o8RYGKG7NiJ3rpRhgbcYRIh8t7wxIRgbwPQKpNdBzxs-b- -zf4afL1NYPHvc9EKb25w64xdwdjJfEre6wC9KWtDPVTQWLZ5wvaKcQy6deYnOhbfly0KH1PP7JIzO1HxXCFp1NUXHwK92YP-2FKWGf2uJ4Xa3fOs7JV4F5ZPAHpWm3Em6_FDFYqLDLMLCc8voigm4Y29TeVK22ZROdVtbrNXSLmsF31mjkMzazesCZUsNhWJC64vJ1krZNbvwytFcSSjvHNGEUgLFSixPdmzIg-oDhxiz0rndy258sSwnQUo4gA6JxvgzmU7thSl2Vh27jtSuJVenoltvtCkh36LctWshFlstiyGEJw93mbui20ecFSyW9SWZh0mj8Qb42QcG_rlNoyeTo1F9vWJQGApQ4SYkO-lhmnrtIDYBUUQjauIKxRYcFFtuMgqZl5WSx8FSJhJacDVgMD5eDDa26AEpuV3cYXQCn0cjzRcoUY757cQQLCNeZWbfpvRmlf3xiRHFSav4ewZ0HlEeoEm13W-joy9-i8VdVvdb0v2fq7y1]--></g></svg>