<svg xmlns="http://www.w3.org/2000/svg" xmlns:xlink="http://www.w3.org/1999/xlink" contentStyleType="text/css" data-diagram-type="CLASS" height="614px" preserveAspectRatio="none" style="width:2164px;height:614px;background:#FFFFFF;" version="1.1" viewBox="0 0 2164 614" width="2164px" zoomAndPan="magnify"><defs/><g><!--cluster org--><g id="cluster_org"><path d="M8.5,6 L32.0518,6 A3.75,3.75 0 0 1 34.5518,8.5 L41.5518,29.6094 L1301.5,29.6094 A2.5,2.5 0 0 1 1304,32.1094 L1304,604.5 A2.5,2.5 0 0 1 1301.5,607 L8.5,607 A2.5,2.5 0 0 1 6,604.5 L6,8.5 A2.5,2.5 0 0 1 8.5,6 " fill="transparent" style="stroke:#000000;stroke-width:1.5;"/><line style="stroke:#000000;stroke-width:1.5;" x1="6" x2="41.5518" y1="29.6094" y2="29.6094"/><text fill="#000000" font-family="sans-serif" font-size="14" font-weight="bold" lengthAdjust="spacing" textLength="22.5518" x="10" y="22.5332">org</text></g><!--cluster requestedTest--><g id="cluster_requestedTest"><path d="M32.5,50 L129.1963,50 A3.75,3.75 0 0 1 131.6963,52.5 L138.6963,73.6094 L1277.5,73.6094 A2.5,2.5 0 0 1 1280,76.1094 L1280,580.5 A2.5,2.5 0 0 1 1277.5,583 L32.5,583 A2.5,2.5 0 0 1 30,580.5 L30,52.5 A2.5,2.5 0 0 1 32.5,50 " fill="transparent" style="stroke:#000000;stroke-width:1.5;"/><line style="stroke:#000000;stroke-width:1.5;" x1="30" x2="138.6963" y1="73.6094" y2="73.6094"/><text fill="#000000" font-family="sans-serif" font-size="14" font-weight="bold" lengthAdjust="spacing" textLength="95.6963" x="34" y="66.5332">requestedTest</text></g><!--cluster java--><g id="cluster_java"><path d="M1330.5,430 L1358.748,430 A3.75,3.75 0 0 1 1361.248,432.5 L1368.248,453.6094 L2154.5,453.6094 A2.5,2.5 0 0 1 2157,456.1094 L2157,595.5 A2.5,2.5 0 0 1 2154.5,598 L1330.5,598 A2.5,2.5 0 0 1 1328,595.5 L1328,432.5 A2.5,2.5 0 0 1 1330.5,430 " fill="transparent" style="stroke:#000000;stroke-width:1.5;"/><line style="stroke:#000000;stroke-width:1.5;" x1="1328" x2="1368.248" y1="453.6094" y2="453.6094"/><text fill="#000000" font-family="sans-serif" font-size="14" font-weight="bold" lengthAdjust="spacing" textLength="27.248" x="1332" y="446.5332">java</text></g><!--cluster io--><g id="cluster_io"><path d="M1354.5,474 L1367.9414,474 A3.75,3.75 0 0 1 1370.4414,476.5 L1377.4414,497.6094 L2004.5,497.6094 A2.5,2.5 0 0 1 2007,500.1094 L2007,571.5 A2.5,2.5 0 0 1 2004.5,574 L1354.5,574 A2.5,2.5 0 0 1 1352,571.5 L1352,476.5 A2.5,2.5 0 0 1 1354.5,474 " fill="transparent" style="stroke:#000000;stroke-width:1.5;"/><line style="stroke:#000000;stroke-width:1.5;" x1="1352" x2="1377.4414" y1="497.6094" y2="497.6094"/><text fill="#000000" font-family="sans-serif" font-size="14" font-weight="bold" lengthAdjust="spacing" textLength="12.4414" x="1356" y="490.5332">io</text></g><!--cluster lang--><g id="cluster_lang"><path d="M2033.5,474 L2063.2793,474 A3.75,3.75 0 0 1 2065.7793,476.5 L2072.7793,497.6094 L2130.5,497.6094 A2.5,2.5 0 0 1 2133,500.1094 L2133,571.5 A2.5,2.5 0 0 1 2130.5,574 L2033.5,574 A2.5,2.5 0 0 1 2031,571.5 L2031,476.5 A2.5,2.5 0 0 1 2033.5,474 " fill="transparent" style="stroke:#000000;stroke-width:1.5;"/><line style="stroke:#000000;stroke-width:1.5;" x1="2031" x2="2072.7793" y1="497.6094" y2="497.6094"/><text fill="#000000" font-family="sans-serif" font-size="14" font-weight="bold" lengthAdjust="spacing" textLength="28.7793" x="2035" y="490.5332">lang</text></g><!--class DecryptionInputStream--><g id="elem_DecryptionInputStream"><rect codeLine="2" fill="#F1F1F1" height="100.8281" id="DecryptionInputStream" rx="2.5" ry="2.5" style="stroke:#181818;stroke-width:0.5;" width="422.0879" x="285" y="247.5"/><ellipse cx="420.2046" cy="263.5" fill="#ADD1B2" rx="11" ry="11" style="stroke:#181818;stroke-width:1;"/><path d="M422.9702,259.375 Q423.1265,259.1563 423.314,259.0469 Q423.5015,258.9375 423.7202,258.9375 Q424.0952,258.9375 424.3296,259.2031 Q424.564,259.4531 424.564,260.0625 L424.564,261.5156 Q424.564,262.125 424.3296,262.3906 Q424.0952,262.6563 423.7202,262.6563 Q423.3765,262.6563 423.1733,262.4531 Q422.9702,262.2656 422.8608,261.75 Q422.814,261.3906 422.6265,261.2031 Q422.2983,260.8281 421.689,260.6094 Q421.0796,260.3906 420.4546,260.3906 Q419.689,260.3906 419.0483,260.7188 Q418.4233,261.0469 417.9233,261.7969 Q417.439,262.5469 417.439,263.5781 L417.439,264.6719 Q417.439,265.9063 418.3296,266.7344 Q419.2202,267.5469 420.814,267.5469 Q421.7515,267.5469 422.4077,267.2969 Q422.7983,267.1406 423.2202,266.7031 Q423.4858,266.4375 423.6265,266.3594 Q423.7827,266.2813 423.9858,266.2813 Q424.314,266.2813 424.564,266.5469 Q424.8296,266.7969 424.8296,267.1406 Q424.8296,267.4844 424.4858,267.8906 Q423.9858,268.4688 423.189,268.7969 Q422.1108,269.25 420.814,269.25 Q419.2983,269.25 418.0952,268.625 Q417.1108,268.125 416.4233,267.0625 Q415.7358,265.9844 415.7358,264.7031 L415.7358,263.5469 Q415.7358,262.2188 416.3452,261.0781 Q416.9702,259.9219 418.064,259.3125 Q419.1577,258.6875 420.3921,258.6875 Q421.1265,258.6875 421.7671,258.8594 Q422.4233,259.0156 422.9702,259.375 Z " fill="#000000"/><text fill="#000000" font-family="sans-serif" font-size="14" lengthAdjust="spacing" textLength="143.1787" x="440.7046" y="269.2285">DecryptionInputStream</text><line style="stroke:#181818;stroke-width:0.5;" x1="286" x2="706.0879" y1="279.5" y2="279.5"/><line style="stroke:#181818;stroke-width:0.5;" x1="286" x2="706.0879" y1="287.5" y2="287.5"/><ellipse cx="296" cy="301.8047" fill="#84BE84" rx="3" ry="3" style="stroke:#038048;stroke-width:1;"/><text fill="#000000" font-family="sans-serif" font-size="14" lengthAdjust="spacing" textLength="396.0879" x="305" y="306.0332">&lt;init&gt;(java/io/InputStream, org/requestedTest/IDecryption): Void</text><ellipse cx="296" cy="319.4141" fill="#84BE84" rx="3" ry="3" style="stroke:#038048;stroke-width:1;"/><text fill="#000000" font-family="sans-serif" font-size="14" lengthAdjust="spacing" textLength="60.6895" x="305" y="323.6426">read(): Int</text><ellipse cx="296" cy="337.0234" fill="#84BE84" rx="3" ry="3" style="stroke:#038048;stroke-width:1;"/><text fill="#000000" font-family="sans-serif" font-size="14" lengthAdjust="spacing" textLength="143.1719" x="305" y="341.252">read(Byte[], Int, Int): Int</text></g><!--class IDecryption--><g id="elem_IDecryption"><rect codeLine="32" fill="#F1F1F1" height="65.6094" id="IDecryption" rx="2.5" ry="2.5" style="stroke:#181818;stroke-width:0.5;" width="149.7031" x="361" y="501"/><ellipse cx="397.1034" cy="517" fill="#B4A7E5" rx="11" ry="11" style="stroke:#181818;stroke-width:1;"/><path d="M398.0565,513.6406 L398.0565,520.2969 L399.7753,520.2969 Q400.3847,520.2969 400.6503,520.5313 Q400.9159,520.7656 400.9159,521.1563 Q400.9159,521.5313 400.6503,521.7656 Q400.3847,522 399.7753,522 L394.6347,522 Q394.0253,522 393.7597,521.7656 Q393.494,521.5313 393.494,521.1406 Q393.494,520.7656 393.7597,520.5313 Q394.0253,520.2969 394.6347,520.2969 L396.3534,520.2969 L396.3534,513.6406 L394.6347,513.6406 Q394.0253,513.6406 393.7597,513.4063 Q393.494,513.1719 393.494,512.7813 Q393.494,512.4063 393.7597,512.1719 Q394.0253,511.9375 394.6347,511.9375 L399.7753,511.9375 Q400.3847,511.9375 400.6503,512.1719 Q400.9159,512.4063 400.9159,512.7813 Q400.9159,513.1719 400.6503,513.4063 Q400.3847,513.6406 399.7753,513.6406 L398.0565,513.6406 Z " fill="#000000"/><text fill="#000000" font-family="sans-serif" font-size="14" font-style="italic" lengthAdjust="spacing" textLength="70.8066" x="415.7931" y="522.7285">IDecryption</text><line style="stroke:#181818;stroke-width:0.5;" x1="362" x2="509.7031" y1="533" y2="533"/><line style="stroke:#181818;stroke-width:0.5;" x1="362" x2="509.7031" y1="541" y2="541"/><polygon fill="#4177AF" points="372,551.3047,368,557.3047,376,557.3047" style="stroke:#1963A0;stroke-width:1;"/><text fill="#000000" font-family="sans-serif" font-size="14" font-style="italic" lengthAdjust="spacing" textLength="123.7031" x="381" y="559.5332">decrypt(Char): Char</text></g><!--class EncryptionOutputStream--><g id="elem_EncryptionOutputStream"><rect codeLine="18" fill="#F1F1F1" height="83.2188" id="EncryptionOutputStream" rx="2.5" ry="2.5" style="stroke:#181818;stroke-width:0.5;" width="432.2051" x="796" y="256.5"/><ellipse cx="931.2046" cy="272.5" fill="#ADD1B2" rx="11" ry="11" style="stroke:#181818;stroke-width:1;"/><path d="M933.9702,268.375 Q934.1265,268.1563 934.314,268.0469 Q934.5015,267.9375 934.7202,267.9375 Q935.0952,267.9375 935.3296,268.2031 Q935.564,268.4531 935.564,269.0625 L935.564,270.5156 Q935.564,271.125 935.3296,271.3906 Q935.0952,271.6563 934.7202,271.6563 Q934.3765,271.6563 934.1733,271.4531 Q933.9702,271.2656 933.8608,270.75 Q933.814,270.3906 933.6265,270.2031 Q933.2983,269.8281 932.689,269.6094 Q932.0796,269.3906 931.4546,269.3906 Q930.689,269.3906 930.0483,269.7188 Q929.4233,270.0469 928.9233,270.7969 Q928.439,271.5469 928.439,272.5781 L928.439,273.6719 Q928.439,274.9063 929.3296,275.7344 Q930.2202,276.5469 931.814,276.5469 Q932.7515,276.5469 933.4077,276.2969 Q933.7983,276.1406 934.2202,275.7031 Q934.4858,275.4375 934.6265,275.3594 Q934.7827,275.2813 934.9858,275.2813 Q935.314,275.2813 935.564,275.5469 Q935.8296,275.7969 935.8296,276.1406 Q935.8296,276.4844 935.4858,276.8906 Q934.9858,277.4688 934.189,277.7969 Q933.1108,278.25 931.814,278.25 Q930.2983,278.25 929.0952,277.625 Q928.1108,277.125 927.4233,276.0625 Q926.7358,274.9844 926.7358,273.7031 L926.7358,272.5469 Q926.7358,271.2188 927.3452,270.0781 Q927.9702,268.9219 929.064,268.3125 Q930.1577,267.6875 931.3921,267.6875 Q932.1265,267.6875 932.7671,267.8594 Q933.4233,268.0156 933.9702,268.375 Z " fill="#000000"/><text fill="#000000" font-family="sans-serif" font-size="14" lengthAdjust="spacing" textLength="153.2959" x="951.7046" y="278.2285">EncryptionOutputStream</text><line style="stroke:#181818;stroke-width:0.5;" x1="797" x2="1227.2051" y1="288.5" y2="288.5"/><line style="stroke:#181818;stroke-width:0.5;" x1="797" x2="1227.2051" y1="296.5" y2="296.5"/><ellipse cx="807" cy="310.8047" fill="#84BE84" rx="3" ry="3" style="stroke:#038048;stroke-width:1;"/><text fill="#000000" font-family="sans-serif" font-size="14" lengthAdjust="spacing" textLength="406.2051" x="816" y="315.0332">&lt;init&gt;(java/io/OutputStream, org/requestedTest/IEncryption): Void</text><ellipse cx="807" cy="328.4141" fill="#84BE84" rx="3" ry="3" style="stroke:#038048;stroke-width:1;"/><text fill="#000000" font-family="sans-serif" font-size="14" lengthAdjust="spacing" textLength="90.248" x="816" y="332.6426">write(Int): Void</text></g><!--class IEncryption--><g id="elem_IEncryption"><rect codeLine="36" fill="#F1F1F1" height="65.6094" id="IEncryption" rx="2.5" ry="2.5" style="stroke:#181818;stroke-width:0.5;" width="149.7031" x="176" y="501"/><ellipse cx="212.451" cy="517" fill="#B4A7E5" rx="11" ry="11" style="stroke:#181818;stroke-width:1;"/><path d="M213.4042,513.6406 L213.4042,520.2969 L215.1229,520.2969 Q215.7323,520.2969 215.9979,520.5313 Q216.2635,520.7656 216.2635,521.1563 Q216.2635,521.5313 215.9979,521.7656 Q215.7323,522 215.1229,522 L209.9823,522 Q209.3729,522 209.1073,521.7656 Q208.8417,521.5313 208.8417,521.1406 Q208.8417,520.7656 209.1073,520.5313 Q209.3729,520.2969 209.9823,520.2969 L211.701,520.2969 L211.701,513.6406 L209.9823,513.6406 Q209.3729,513.6406 209.1073,513.4063 Q208.8417,513.1719 208.8417,512.7813 Q208.8417,512.4063 209.1073,512.1719 Q209.3729,511.9375 209.9823,511.9375 L215.1229,511.9375 Q215.7323,511.9375 215.9979,512.1719 Q216.2635,512.4063 216.2635,512.7813 Q216.2635,513.1719 215.9979,513.4063 Q215.7323,513.6406 215.1229,513.6406 L213.4042,513.6406 Z " fill="#000000"/><text fill="#000000" font-family="sans-serif" font-size="14" font-style="italic" lengthAdjust="spacing" textLength="70.0342" x="231.2179" y="522.7285">IEncryption</text><line style="stroke:#181818;stroke-width:0.5;" x1="177" x2="324.7031" y1="533" y2="533"/><line style="stroke:#181818;stroke-width:0.5;" x1="177" x2="324.7031" y1="541" y2="541"/><polygon fill="#4177AF" points="187,551.3047,183,557.3047,191,557.3047" style="stroke:#1963A0;stroke-width:1;"/><text fill="#000000" font-family="sans-serif" font-size="14" font-style="italic" lengthAdjust="spacing" textLength="123.7031" x="196" y="559.5332">encrypt(Char): Char</text></g><!--class SubstitutionCipher--><g id="elem_SubstitutionCipher"><rect codeLine="40" fill="#F1F1F1" height="136.0469" id="SubstitutionCipher" rx="2.5" ry="2.5" style="stroke:#181818;stroke-width:0.5;" width="149.7031" x="46" y="230"/><ellipse cx="62.4867" cy="246" fill="#ADD1B2" rx="11" ry="11" style="stroke:#181818;stroke-width:1;"/><path d="M65.2523,241.875 Q65.4085,241.6563 65.596,241.5469 Q65.7835,241.4375 66.0023,241.4375 Q66.3773,241.4375 66.6117,241.7031 Q66.846,241.9531 66.846,242.5625 L66.846,244.0156 Q66.846,244.625 66.6117,244.8906 Q66.3773,245.1563 66.0023,245.1563 Q65.6585,245.1563 65.4554,244.9531 Q65.2523,244.7656 65.1429,244.25 Q65.096,243.8906 64.9085,243.7031 Q64.5804,243.3281 63.971,243.1094 Q63.3617,242.8906 62.7367,242.8906 Q61.971,242.8906 61.3304,243.2188 Q60.7054,243.5469 60.2054,244.2969 Q59.721,245.0469 59.721,246.0781 L59.721,247.1719 Q59.721,248.4063 60.6117,249.2344 Q61.5023,250.0469 63.096,250.0469 Q64.0335,250.0469 64.6898,249.7969 Q65.0804,249.6406 65.5023,249.2031 Q65.7679,248.9375 65.9085,248.8594 Q66.0648,248.7813 66.2679,248.7813 Q66.596,248.7813 66.846,249.0469 Q67.1117,249.2969 67.1117,249.6406 Q67.1117,249.9844 66.7679,250.3906 Q66.2679,250.9688 65.471,251.2969 Q64.3929,251.75 63.096,251.75 Q61.5804,251.75 60.3773,251.125 Q59.3929,250.625 58.7054,249.5625 Q58.0179,248.4844 58.0179,247.2031 L58.0179,246.0469 Q58.0179,244.7188 58.6273,243.5781 Q59.2523,242.4219 60.346,241.8125 Q61.4398,241.1875 62.6742,241.1875 Q63.4085,241.1875 64.0492,241.3594 Q64.7054,241.5156 65.2523,241.875 Z " fill="#000000"/><text fill="#000000" font-family="sans-serif" font-size="14" lengthAdjust="spacing" textLength="114.3994" x="76.817" y="251.7285">SubstitutionCipher</text><line style="stroke:#181818;stroke-width:0.5;" x1="47" x2="194.7031" y1="262" y2="262"/><text fill="#000000" font-family="sans-serif" font-size="14" lengthAdjust="spacing" textLength="134.6201" x="52" y="280.5332">encryptionKey: Char[]</text><text fill="#000000" font-family="sans-serif" font-size="14" lengthAdjust="spacing" textLength="134.6201" x="52" y="298.1426">decryptionKey: Char[]</text><line style="stroke:#181818;stroke-width:0.5;" x1="47" x2="194.7031" y1="305.2188" y2="305.2188"/><ellipse cx="57" cy="319.5234" fill="#84BE84" rx="3" ry="3" style="stroke:#038048;stroke-width:1;"/><text fill="#000000" font-family="sans-serif" font-size="14" lengthAdjust="spacing" textLength="79.3721" x="66" y="323.752">&lt;init&gt;(): Void</text><ellipse cx="57" cy="337.1328" fill="#84BE84" rx="3" ry="3" style="stroke:#038048;stroke-width:1;"/><text fill="#000000" font-family="sans-serif" font-size="14" lengthAdjust="spacing" textLength="123.7031" x="66" y="341.3613">encrypt(Char): Char</text><ellipse cx="57" cy="354.7422" fill="#84BE84" rx="3" ry="3" style="stroke:#038048;stroke-width:1;"/><text fill="#000000" font-family="sans-serif" font-size="14" lengthAdjust="spacing" textLength="123.7031" x="66" y="358.9707">decrypt(Char): Char</text></g><!--class TextEditorApp--><g id="elem_TextEditorApp"><rect codeLine="53" fill="#F1F1F1" height="83.2188" id="TextEditorApp" rx="2.5" ry="2.5" style="stroke:#181818;stroke-width:0.5;" width="205.751" x="1040" y="86"/><ellipse cx="1094.2705" cy="102" fill="#ADD1B2" rx="11" ry="11" style="stroke:#181818;stroke-width:1;"/><path d="M1097.0361,97.875 Q1097.1924,97.6563 1097.3799,97.5469 Q1097.5674,97.4375 1097.7861,97.4375 Q1098.1611,97.4375 1098.3955,97.7031 Q1098.6299,97.9531 1098.6299,98.5625 L1098.6299,100.0156 Q1098.6299,100.625 1098.3955,100.8906 Q1098.1611,101.1563 1097.7861,101.1563 Q1097.4424,101.1563 1097.2393,100.9531 Q1097.0361,100.7656 1096.9268,100.25 Q1096.8799,99.8906 1096.6924,99.7031 Q1096.3643,99.3281 1095.7549,99.1094 Q1095.1455,98.8906 1094.5205,98.8906 Q1093.7549,98.8906 1093.1143,99.2188 Q1092.4893,99.5469 1091.9893,100.2969 Q1091.5049,101.0469 1091.5049,102.0781 L1091.5049,103.1719 Q1091.5049,104.4063 1092.3955,105.2344 Q1093.2861,106.0469 1094.8799,106.0469 Q1095.8174,106.0469 1096.4736,105.7969 Q1096.8643,105.6406 1097.2861,105.2031 Q1097.5518,104.9375 1097.6924,104.8594 Q1097.8486,104.7813 1098.0518,104.7813 Q1098.3799,104.7813 1098.6299,105.0469 Q1098.8955,105.2969 1098.8955,105.6406 Q1098.8955,105.9844 1098.5518,106.3906 Q1098.0518,106.9688 1097.2549,107.2969 Q1096.1768,107.75 1094.8799,107.75 Q1093.3643,107.75 1092.1611,107.125 Q1091.1768,106.625 1090.4893,105.5625 Q1089.8018,104.4844 1089.8018,103.2031 L1089.8018,102.0469 Q1089.8018,100.7188 1090.4111,99.5781 Q1091.0361,98.4219 1092.1299,97.8125 Q1093.2236,97.1875 1094.458,97.1875 Q1095.1924,97.1875 1095.833,97.3594 Q1096.4893,97.5156 1097.0361,97.875 Z " fill="#000000"/><text fill="#000000" font-family="sans-serif" font-size="14" lengthAdjust="spacing" textLength="88.71" x="1114.7705" y="107.7285">TextEditorApp</text><line style="stroke:#181818;stroke-width:0.5;" x1="1041" x2="1244.751" y1="118" y2="118"/><line style="stroke:#181818;stroke-width:0.5;" x1="1041" x2="1244.751" y1="126" y2="126"/><ellipse cx="1051" cy="140.3047" fill="#84BE84" rx="3" ry="3" style="stroke:#038048;stroke-width:1;"/><text fill="#000000" font-family="sans-serif" font-size="14" lengthAdjust="spacing" textLength="79.3721" x="1060" y="144.5332">&lt;init&gt;(): Void</text><polygon fill="#4177AF" points="1051,153.9141,1047,159.9141,1055,159.9141" style="stroke:#1963A0;stroke-width:1;"/><text fill="#000000" font-family="sans-serif" font-size="14" lengthAdjust="spacing" text-decoration="underline" textLength="179.751" x="1060" y="162.1426">main(java/lang/String[]): Void</text></g><!--class FilterInputStream--><g id="elem_FilterInputStream"><rect fill="#F1F1F1" height="48" id="FilterInputStream" rx="2.5" ry="2.5" style="stroke:#181818;stroke-width:0.5;" width="139.3721" x="1368.5" y="510"/><ellipse cx="1383.5" cy="526" fill="#ADD1B2" rx="11" ry="11" style="stroke:#181818;stroke-width:1;"/><path d="M1386.2656,521.875 Q1386.4219,521.6563 1386.6094,521.5469 Q1386.7969,521.4375 1387.0156,521.4375 Q1387.3906,521.4375 1387.625,521.7031 Q1387.8594,521.9531 1387.8594,522.5625 L1387.8594,524.0156 Q1387.8594,524.625 1387.625,524.8906 Q1387.3906,525.1563 1387.0156,525.1563 Q1386.6719,525.1563 1386.4688,524.9531 Q1386.2656,524.7656 1386.1563,524.25 Q1386.1094,523.8906 1385.9219,523.7031 Q1385.5938,523.3281 1384.9844,523.1094 Q1384.375,522.8906 1383.75,522.8906 Q1382.9844,522.8906 1382.3438,523.2188 Q1381.7188,523.5469 1381.2188,524.2969 Q1380.7344,525.0469 1380.7344,526.0781 L1380.7344,527.1719 Q1380.7344,528.4063 1381.625,529.2344 Q1382.5156,530.0469 1384.1094,530.0469 Q1385.0469,530.0469 1385.7031,529.7969 Q1386.0938,529.6406 1386.5156,529.2031 Q1386.7813,528.9375 1386.9219,528.8594 Q1387.0781,528.7813 1387.2813,528.7813 Q1387.6094,528.7813 1387.8594,529.0469 Q1388.125,529.2969 1388.125,529.6406 Q1388.125,529.9844 1387.7813,530.3906 Q1387.2813,530.9688 1386.4844,531.2969 Q1385.4063,531.75 1384.1094,531.75 Q1382.5938,531.75 1381.3906,531.125 Q1380.4063,530.625 1379.7188,529.5625 Q1379.0313,528.4844 1379.0313,527.2031 L1379.0313,526.0469 Q1379.0313,524.7188 1379.6406,523.5781 Q1380.2656,522.4219 1381.3594,521.8125 Q1382.4531,521.1875 1383.6875,521.1875 Q1384.4219,521.1875 1385.0625,521.3594 Q1385.7188,521.5156 1386.2656,521.875 Z " fill="#000000"/><text fill="#000000" font-family="sans-serif" font-size="14" lengthAdjust="spacing" textLength="107.3721" x="1397.5" y="531.7285">FilterInputStream</text><line style="stroke:#181818;stroke-width:0.5;" x1="1369.5" x2="1506.8721" y1="542" y2="542"/><line style="stroke:#181818;stroke-width:0.5;" x1="1369.5" x2="1506.8721" y1="550" y2="550"/></g><!--class InputStream--><g id="elem_InputStream"><rect fill="#F1F1F1" height="48" id="InputStream" rx="2.5" ry="2.5" style="stroke:#181818;stroke-width:0.5;" width="108.2617" x="1728" y="510"/><ellipse cx="1743" cy="526" fill="#ADD1B2" rx="11" ry="11" style="stroke:#181818;stroke-width:1;"/><path d="M1745.7656,521.875 Q1745.9219,521.6563 1746.1094,521.5469 Q1746.2969,521.4375 1746.5156,521.4375 Q1746.8906,521.4375 1747.125,521.7031 Q1747.3594,521.9531 1747.3594,522.5625 L1747.3594,524.0156 Q1747.3594,524.625 1747.125,524.8906 Q1746.8906,525.1563 1746.5156,525.1563 Q1746.1719,525.1563 1745.9688,524.9531 Q1745.7656,524.7656 1745.6563,524.25 Q1745.6094,523.8906 1745.4219,523.7031 Q1745.0938,523.3281 1744.4844,523.1094 Q1743.875,522.8906 1743.25,522.8906 Q1742.4844,522.8906 1741.8438,523.2188 Q1741.2188,523.5469 1740.7188,524.2969 Q1740.2344,525.0469 1740.2344,526.0781 L1740.2344,527.1719 Q1740.2344,528.4063 1741.125,529.2344 Q1742.0156,530.0469 1743.6094,530.0469 Q1744.5469,530.0469 1745.2031,529.7969 Q1745.5938,529.6406 1746.0156,529.2031 Q1746.2813,528.9375 1746.4219,528.8594 Q1746.5781,528.7813 1746.7813,528.7813 Q1747.1094,528.7813 1747.3594,529.0469 Q1747.625,529.2969 1747.625,529.6406 Q1747.625,529.9844 1747.2813,530.3906 Q1746.7813,530.9688 1745.9844,531.2969 Q1744.9063,531.75 1743.6094,531.75 Q1742.0938,531.75 1740.8906,531.125 Q1739.9063,530.625 1739.2188,529.5625 Q1738.5313,528.4844 1738.5313,527.2031 L1738.5313,526.0469 Q1738.5313,524.7188 1739.1406,523.5781 Q1739.7656,522.4219 1740.8594,521.8125 Q1741.9531,521.1875 1743.1875,521.1875 Q1743.9219,521.1875 1744.5625,521.3594 Q1745.2188,521.5156 1745.7656,521.875 Z " fill="#000000"/><text fill="#000000" font-family="sans-serif" font-size="14" lengthAdjust="spacing" textLength="76.2617" x="1757" y="531.7285">InputStream</text><line style="stroke:#181818;stroke-width:0.5;" x1="1729" x2="1835.2617" y1="542" y2="542"/><line style="stroke:#181818;stroke-width:0.5;" x1="1729" x2="1835.2617" y1="550" y2="550"/></g><!--class FilterOutputStream--><g id="elem_FilterOutputStream"><rect fill="#F1F1F1" height="48" id="FilterOutputStream" rx="2.5" ry="2.5" style="stroke:#181818;stroke-width:0.5;" width="150.2617" x="1543" y="510"/><ellipse cx="1558" cy="526" fill="#ADD1B2" rx="11" ry="11" style="stroke:#181818;stroke-width:1;"/><path d="M1560.7656,521.875 Q1560.9219,521.6563 1561.1094,521.5469 Q1561.2969,521.4375 1561.5156,521.4375 Q1561.8906,521.4375 1562.125,521.7031 Q1562.3594,521.9531 1562.3594,522.5625 L1562.3594,524.0156 Q1562.3594,524.625 1562.125,524.8906 Q1561.8906,525.1563 1561.5156,525.1563 Q1561.1719,525.1563 1560.9688,524.9531 Q1560.7656,524.7656 1560.6563,524.25 Q1560.6094,523.8906 1560.4219,523.7031 Q1560.0938,523.3281 1559.4844,523.1094 Q1558.875,522.8906 1558.25,522.8906 Q1557.4844,522.8906 1556.8438,523.2188 Q1556.2188,523.5469 1555.7188,524.2969 Q1555.2344,525.0469 1555.2344,526.0781 L1555.2344,527.1719 Q1555.2344,528.4063 1556.125,529.2344 Q1557.0156,530.0469 1558.6094,530.0469 Q1559.5469,530.0469 1560.2031,529.7969 Q1560.5938,529.6406 1561.0156,529.2031 Q1561.2813,528.9375 1561.4219,528.8594 Q1561.5781,528.7813 1561.7813,528.7813 Q1562.1094,528.7813 1562.3594,529.0469 Q1562.625,529.2969 1562.625,529.6406 Q1562.625,529.9844 1562.2813,530.3906 Q1561.7813,530.9688 1560.9844,531.2969 Q1559.9063,531.75 1558.6094,531.75 Q1557.0938,531.75 1555.8906,531.125 Q1554.9063,530.625 1554.2188,529.5625 Q1553.5313,528.4844 1553.5313,527.2031 L1553.5313,526.0469 Q1553.5313,524.7188 1554.1406,523.5781 Q1554.7656,522.4219 1555.8594,521.8125 Q1556.9531,521.1875 1558.1875,521.1875 Q1558.9219,521.1875 1559.5625,521.3594 Q1560.2188,521.5156 1560.7656,521.875 Z " fill="#000000"/><text fill="#000000" font-family="sans-serif" font-size="14" lengthAdjust="spacing" textLength="118.2617" x="1572" y="531.7285">FilterOutputStream</text><line style="stroke:#181818;stroke-width:0.5;" x1="1544" x2="1692.2617" y1="542" y2="542"/><line style="stroke:#181818;stroke-width:0.5;" x1="1544" x2="1692.2617" y1="550" y2="550"/></g><!--class OutputStream--><g id="elem_OutputStream"><rect fill="#F1F1F1" height="48" id="OutputStream" rx="2.5" ry="2.5" style="stroke:#181818;stroke-width:0.5;" width="119.1514" x="1871.5" y="510"/><ellipse cx="1886.5" cy="526" fill="#ADD1B2" rx="11" ry="11" style="stroke:#181818;stroke-width:1;"/><path d="M1889.2656,521.875 Q1889.4219,521.6563 1889.6094,521.5469 Q1889.7969,521.4375 1890.0156,521.4375 Q1890.3906,521.4375 1890.625,521.7031 Q1890.8594,521.9531 1890.8594,522.5625 L1890.8594,524.0156 Q1890.8594,524.625 1890.625,524.8906 Q1890.3906,525.1563 1890.0156,525.1563 Q1889.6719,525.1563 1889.4688,524.9531 Q1889.2656,524.7656 1889.1563,524.25 Q1889.1094,523.8906 1888.9219,523.7031 Q1888.5938,523.3281 1887.9844,523.1094 Q1887.375,522.8906 1886.75,522.8906 Q1885.9844,522.8906 1885.3438,523.2188 Q1884.7188,523.5469 1884.2188,524.2969 Q1883.7344,525.0469 1883.7344,526.0781 L1883.7344,527.1719 Q1883.7344,528.4063 1884.625,529.2344 Q1885.5156,530.0469 1887.1094,530.0469 Q1888.0469,530.0469 1888.7031,529.7969 Q1889.0938,529.6406 1889.5156,529.2031 Q1889.7813,528.9375 1889.9219,528.8594 Q1890.0781,528.7813 1890.2813,528.7813 Q1890.6094,528.7813 1890.8594,529.0469 Q1891.125,529.2969 1891.125,529.6406 Q1891.125,529.9844 1890.7813,530.3906 Q1890.2813,530.9688 1889.4844,531.2969 Q1888.4063,531.75 1887.1094,531.75 Q1885.5938,531.75 1884.3906,531.125 Q1883.4063,530.625 1882.7188,529.5625 Q1882.0313,528.4844 1882.0313,527.2031 L1882.0313,526.0469 Q1882.0313,524.7188 1882.6406,523.5781 Q1883.2656,522.4219 1884.3594,521.8125 Q1885.4531,521.1875 1886.6875,521.1875 Q1887.4219,521.1875 1888.0625,521.3594 Q1888.7188,521.5156 1889.2656,521.875 Z " fill="#000000"/><text fill="#000000" font-family="sans-serif" font-size="14" lengthAdjust="spacing" textLength="87.1514" x="1900.5" y="531.7285">OutputStream</text><line style="stroke:#181818;stroke-width:0.5;" x1="1872.5" x2="1989.6514" y1="542" y2="542"/><line style="stroke:#181818;stroke-width:0.5;" x1="1872.5" x2="1989.6514" y1="550" y2="550"/></g><!--class String--><g id="elem_String"><rect fill="#F1F1F1" height="48" id="String" rx="2.5" ry="2.5" style="stroke:#181818;stroke-width:0.5;" width="68.5723" x="2047.5" y="510"/><ellipse cx="2062.5" cy="526" fill="#ADD1B2" rx="11" ry="11" style="stroke:#181818;stroke-width:1;"/><path d="M2065.2656,521.875 Q2065.4219,521.6563 2065.6094,521.5469 Q2065.7969,521.4375 2066.0156,521.4375 Q2066.3906,521.4375 2066.625,521.7031 Q2066.8594,521.9531 2066.8594,522.5625 L2066.8594,524.0156 Q2066.8594,524.625 2066.625,524.8906 Q2066.3906,525.1563 2066.0156,525.1563 Q2065.6719,525.1563 2065.4688,524.9531 Q2065.2656,524.7656 2065.1563,524.25 Q2065.1094,523.8906 2064.9219,523.7031 Q2064.5938,523.3281 2063.9844,523.1094 Q2063.375,522.8906 2062.75,522.8906 Q2061.9844,522.8906 2061.3438,523.2188 Q2060.7188,523.5469 2060.2188,524.2969 Q2059.7344,525.0469 2059.7344,526.0781 L2059.7344,527.1719 Q2059.7344,528.4063 2060.625,529.2344 Q2061.5156,530.0469 2063.1094,530.0469 Q2064.0469,530.0469 2064.7031,529.7969 Q2065.0938,529.6406 2065.5156,529.2031 Q2065.7813,528.9375 2065.9219,528.8594 Q2066.0781,528.7813 2066.2813,528.7813 Q2066.6094,528.7813 2066.8594,529.0469 Q2067.125,529.2969 2067.125,529.6406 Q2067.125,529.9844 2066.7813,530.3906 Q2066.2813,530.9688 2065.4844,531.2969 Q2064.4063,531.75 2063.1094,531.75 Q2061.5938,531.75 2060.3906,531.125 Q2059.4063,530.625 2058.7188,529.5625 Q2058.0313,528.4844 2058.0313,527.2031 L2058.0313,526.0469 Q2058.0313,524.7188 2058.6406,523.5781 Q2059.2656,522.4219 2060.3594,521.8125 Q2061.4531,521.1875 2062.6875,521.1875 Q2063.4219,521.1875 2064.0625,521.3594 Q2064.7188,521.5156 2065.2656,521.875 Z " fill="#000000"/><text fill="#000000" font-family="sans-serif" font-size="14" lengthAdjust="spacing" textLength="36.5723" x="2076.5" y="531.7285">String</text><line style="stroke:#181818;stroke-width:0.5;" x1="2048.5" x2="2115.0723" y1="542" y2="542"/><line style="stroke:#181818;stroke-width:0.5;" x1="2048.5" x2="2115.0723" y1="550" y2="550"/></g><!--link DecryptionInputStream to FilterInputStream--><g id="link_DecryptionInputStream_FilterInputStream"><path codeLine="7" d="M509.29,348.75 C518.49,372.87 533.45,399.66 557,414 C574.15,424.45 1260.88,415.84 1280,422 C1334.4,439.53 1373.3231,470.602 1402.0031,497.642 " fill="transparent" id="DecryptionInputStream-to-FilterInputStream" style="stroke:#181818;stroke-width:1;"/><polygon fill="transparent" points="1415.1,509.99,1406.1191,493.2764,1397.8871,502.0077,1415.1,509.99" style="stroke:#181818;stroke-width:1;"/></g><!--link DecryptionInputStream to DecryptionInputStream--><g id="link_DecryptionInputStream_DecryptionInputStream"><path codeLine="8" d="M707.27,292.99 C728.48,293.98 742,295.66 742,298 C742,300.34 734.4735,301.7402 713.2635,302.7302 " fill="transparent" id="DecryptionInputStream-to-DecryptionInputStream" style="stroke:#181818;stroke-width:1;stroke-dasharray:7.0,7.0;"/><polygon fill="#181818" points="707.27,303.01,716.4467,306.586,712.2646,302.7769,716.0737,298.5947,707.27,303.01" style="stroke:#181818;stroke-width:1;"/></g><!--link DecryptionInputStream to DecryptionInputStream--><g id="link_DecryptionInputStream_DecryptionInputStream"><path codeLine="13" d="M707.08,286.31 C747.98,287.67 777,291.57 777,298 C777,304.43 753.9767,308.1306 713.0767,309.4906 " fill="transparent" id="DecryptionInputStream-to-DecryptionInputStream-1" style="stroke:#181818;stroke-width:1;stroke-dasharray:7.0,7.0;"/><polygon fill="#181818" points="707.08,309.69,716.208,313.3887,712.0772,309.5238,715.9421,305.3931,707.08,309.69" style="stroke:#181818;stroke-width:1;"/></g><!--link DecryptionInputStream to DecryptionInputStream--><g id="link_DecryptionInputStream_DecryptionInputStream"><path codeLine="14" d="M707.18,279.72 C766.48,280.52 812,286.61 812,298 C812,309.39 772.4795,315.3991 713.1795,316.1991 " fill="transparent" id="DecryptionInputStream-to-DecryptionInputStream-2" style="stroke:#181818;stroke-width:1;stroke-dasharray:7.0,7.0;"/><polygon fill="#181818" points="707.18,316.28,716.2331,320.1582,712.1795,316.2126,716.1252,312.159,707.18,316.28" style="stroke:#181818;stroke-width:1;"/></g><!--link DecryptionInputStream to InputStream--><g id="link_DecryptionInputStream_InputStream"><path codeLine="9" d="M672.19,348.51 C701.98,355.1 732.73,361.22 762,366 C992.37,403.65 1051.94,401.04 1285,414 C1307.69,415.26 1674.17,410.89 1694,422 C1727.73,440.89 1744.9692,477.9678 1759.6492,504.5478 " fill="transparent" id="DecryptionInputStream-to-InputStream" style="stroke:#181818;stroke-width:1;stroke-dasharray:7.0,7.0;"/><polygon fill="#181818" points="1762.55,509.8,1761.7003,499.9879,1760.1327,505.4232,1754.6974,503.8555,1762.55,509.8" style="stroke:#181818;stroke-width:1;"/></g><!--link DecryptionInputStream to InputStream--><g id="link_DecryptionInputStream_InputStream"><path codeLine="11" d="M706.77,348.51 C736.98,355.1 767.73,361.22 797,366 C1027.37,403.65 1086.94,401.04 1320,414 C1342.69,415.26 1709.17,410.89 1729,422 C1762.73,440.89 1781.8447,477.3083 1786.4547,503.8883 " fill="transparent" id="DecryptionInputStream-to-InputStream-1" style="stroke:#181818;stroke-width:1;"/><polygon fill="#181818" points="1787.48,509.8,1789.8832,500.2488,1786.6256,504.8735,1782.0009,501.6159,1787.48,509.8" style="stroke:#181818;stroke-width:1;"/></g><!--link DecryptionInputStream to IDecryption--><g id="link_DecryptionInputStream_IDecryption"><path codeLine="10" d="M413.35,348.52 C401.06,362.73 390.86,379.01 385,396 C373.09,430.52 378.1295,467.2887 393.9095,495.6087 " fill="transparent" id="DecryptionInputStream-to-IDecryption" style="stroke:#181818;stroke-width:1;stroke-dasharray:7.0,7.0;"/><polygon fill="#181818" points="396.83,500.85,395.9435,491.0411,394.3963,496.4823,388.9551,494.9351,396.83,500.85" style="stroke:#181818;stroke-width:1;"/></g><!--link DecryptionInputStream to IDecryption--><g id="link_DecryptionInputStream_IDecryption"><path codeLine="12" d="M447.12,348.52 C436.06,362.73 425.86,379.01 420,396 C408.09,430.52 414.3475,466.7766 422.7275,495.0966 " fill="transparent" id="DecryptionInputStream-to-IDecryption-1" style="stroke:#181818;stroke-width:1;"/><polygon fill="#181818" points="424.43,500.85,425.7119,491.0849,423.0113,496.0555,418.0407,493.3549,424.43,500.85" style="stroke:#181818;stroke-width:1;"/></g><!--link DecryptionInputStream to IDecryption--><g id="link_DecryptionInputStream_IDecryption"><path codeLine="15" d="M480.88,348.52 C471.06,362.73 460.86,379.01 455,396 C443.09,430.52 450.8425,466.5336 451.8225,494.8536 " fill="transparent" id="DecryptionInputStream-to-IDecryption-2" style="stroke:#181818;stroke-width:1;"/><polygon fill="#181818" points="452.03,500.85,455.7164,491.717,451.8571,495.853,447.7211,491.9937,452.03,500.85" style="stroke:#181818;stroke-width:1;"/></g><!--link DecryptionInputStream to IDecryption--><g id="link_DecryptionInputStream_IDecryption"><path codeLine="16" d="M470.68,348.56 C463.98,363.48 457.4,380.11 453,396 C443.27,431.11 439.4793,466.832 437.6993,494.932 " fill="transparent" id="DecryptionInputStream-to-IDecryption-3" style="stroke:#181818;stroke-width:1;"/><polygon fill="#181818" points="437.32,500.92,441.881,492.1909,437.6361,495.93,433.897,491.6851,437.32,500.92" style="stroke:#181818;stroke-width:1;"/><text fill="#000000" font-family="sans-serif" font-size="13" lengthAdjust="spacing" textLength="54.1899" x="454" y="410.4951">decryptor</text></g><!--link EncryptionOutputStream to FilterOutputStream--><g id="link_EncryptionOutputStream_FilterOutputStream"><path codeLine="22" d="M981.36,339.68 C966.87,364.14 956.54,394.26 976,414 C986.71,424.86 1511.23,415.45 1525,422 C1563.37,440.25 1582.9264,467.0131 1597.6864,493.8131 " fill="transparent" id="EncryptionOutputStream-to-FilterOutputStream" style="stroke:#181818;stroke-width:1;"/><polygon fill="transparent" points="1606.37,509.58,1602.9421,490.9186,1592.4308,496.7076,1606.37,509.58" style="stroke:#181818;stroke-width:1;"/></g><!--link EncryptionOutputStream to EncryptionOutputStream--><g id="link_EncryptionOutputStream_EncryptionOutputStream"><path codeLine="23" d="M1228,290.51 C1249.39,292.01 1263,294.51 1263,298 C1263,301.49 1255.3753,303.5703 1233.9853,305.0703 " fill="transparent" id="EncryptionOutputStream-to-EncryptionOutputStream" style="stroke:#181818;stroke-width:1;stroke-dasharray:7.0,7.0;"/><polygon fill="#181818" points="1228,305.49,1237.2578,308.8506,1232.9878,305.1402,1236.6981,300.8702,1228,305.49" style="stroke:#181818;stroke-width:1;"/></g><!--link EncryptionOutputStream to EncryptionOutputStream--><g id="link_EncryptionOutputStream_EncryptionOutputStream"><path codeLine="28" d="M1228.07,280.52 C1269.05,282.63 1298,288.45 1298,298 C1298,307.55 1275.0421,313.0615 1234.0621,315.1715 " fill="transparent" id="EncryptionOutputStream-to-EncryptionOutputStream-1" style="stroke:#181818;stroke-width:1;stroke-dasharray:7.0,7.0;"/><polygon fill="#181818" points="1228.07,315.48,1237.2638,319.0119,1233.0634,315.2229,1236.8524,311.0225,1228.07,315.48" style="stroke:#181818;stroke-width:1;"/></g><!--link EncryptionOutputStream to OutputStream--><g id="link_EncryptionOutputStream_OutputStream"><path codeLine="24" d="M1104.35,339.51 C1177.66,366.28 1283.07,399.09 1379,414 C1404.15,417.91 1814.56,410 1837,422 C1871.96,440.69 1891.2254,477.9296 1907.2754,504.5896 " fill="transparent" id="EncryptionOutputStream-to-OutputStream" style="stroke:#181818;stroke-width:1;stroke-dasharray:7.0,7.0;"/><polygon fill="#181818" points="1910.37,509.73,1909.155,499.9564,1907.7911,505.4464,1902.3012,504.0825,1910.37,509.73" style="stroke:#181818;stroke-width:1;"/></g><!--link EncryptionOutputStream to OutputStream--><g id="link_EncryptionOutputStream_OutputStream"><path codeLine="26" d="M1133.68,339.51 C1212.66,366.28 1318.07,399.09 1414,414 C1439.15,417.91 1849.56,410 1872,422 C1906.96,440.69 1928.0068,477.2155 1933.9868,503.8755 " fill="transparent" id="EncryptionOutputStream-to-OutputStream-1" style="stroke:#181818;stroke-width:1;"/><polygon fill="#181818" points="1935.3,509.73,1937.2332,500.0727,1934.2057,504.8512,1929.4272,501.8237,1935.3,509.73" style="stroke:#181818;stroke-width:1;"/></g><!--link EncryptionOutputStream to IEncryption--><g id="link_EncryptionOutputStream_IEncryption"><path codeLine="25" d="M856.24,339.54 C819.44,349.8 780.5,359.69 744,366 C691.45,375.09 307.62,363.94 265,396 C232.4,420.52 220.4851,462.7049 225.6151,494.8749 " fill="transparent" id="EncryptionOutputStream-to-IEncryption" style="stroke:#181818;stroke-width:1;stroke-dasharray:7.0,7.0;"/><polygon fill="#181818" points="226.56,500.8,229.0928,491.2824,225.7726,495.8624,221.1926,492.5422,226.56,500.8" style="stroke:#181818;stroke-width:1;"/></g><!--link EncryptionOutputStream to IEncryption--><g id="link_EncryptionOutputStream_IEncryption"><path codeLine="27" d="M889.82,339.54 C854.44,349.8 815.5,359.69 779,366 C726.45,375.09 342.62,363.94 300,396 C267.4,420.52 257.1082,462.6685 253.4482,494.8385 " fill="transparent" id="EncryptionOutputStream-to-IEncryption-1" style="stroke:#181818;stroke-width:1;"/><polygon fill="#181818" points="252.77,500.8,257.7617,492.3099,253.3352,495.832,249.813,491.4055,252.77,500.8" style="stroke:#181818;stroke-width:1;"/></g><!--link EncryptionOutputStream to IEncryption--><g id="link_EncryptionOutputStream_IEncryption"><path codeLine="29" d="M923.4,339.54 C889.44,349.8 850.5,359.69 814,366 C761.45,375.09 377.62,363.94 335,396 C302.4,420.52 293.594,463.0338 281.154,495.2038 " fill="transparent" id="EncryptionOutputStream-to-IEncryption-2" style="stroke:#181818;stroke-width:1;"/><polygon fill="#181818" points="278.99,500.8,285.9668,493.8484,280.7933,496.1365,278.5052,490.9631,278.99,500.8" style="stroke:#181818;stroke-width:1;"/></g><!--link EncryptionOutputStream to IEncryption--><g id="link_EncryptionOutputStream_IEncryption"><path codeLine="30" d="M888.56,339.56 C853.49,349.7 815.04,359.51 779,366 C606.6,397.03 552.82,342.56 386,396 C333.05,412.96 295.104,460.7562 272.784,495.6362 " fill="transparent" id="EncryptionOutputStream-to-IEncryption-3" style="stroke:#181818;stroke-width:1;"/><polygon fill="#181818" points="269.55,500.69,277.7702,495.2652,272.245,496.4785,271.0318,490.9532,269.55,500.69" style="stroke:#181818;stroke-width:1;"/><text fill="#000000" font-family="sans-serif" font-size="13" lengthAdjust="spacing" textLength="54.1899" x="387" y="410.4951">encryptor</text></g><!--link SubstitutionCipher to IEncryption--><g id="link_SubstitutionCipher_IEncryption"><path codeLine="47" d="M158.25,366.06 C182.86,410.35 205.2569,450.676 224.4669,485.246 " fill="transparent" id="SubstitutionCipher-to-IEncryption" style="stroke:#181818;stroke-width:1;stroke-dasharray:7.0,7.0;"/><polygon fill="transparent" points="233.21,500.98,229.7115,482.3317,219.2222,488.1604,233.21,500.98" style="stroke:#181818;stroke-width:1;"/></g><!--link SubstitutionCipher to IDecryption--><g id="link_SubstitutionCipher_IDecryption"><path codeLine="48" d="M196.3,356.61 C227.01,377.58 263.78,399.64 300,414 C318.07,421.17 326.21,412.2 343,422 C375.35,440.89 391.8774,460.2134 408.1274,485.7534 " fill="transparent" id="SubstitutionCipher-to-IDecryption" style="stroke:#181818;stroke-width:1;stroke-dasharray:7.0,7.0;"/><polygon fill="transparent" points="417.79,500.94,413.1896,482.5325,403.0652,488.9742,417.79,500.94" style="stroke:#181818;stroke-width:1;"/></g><!--link SubstitutionCipher to SubstitutionCipher--><g id="link_SubstitutionCipher_SubstitutionCipher"><path codeLine="49" d="M196.06,291.93 C215.94,292.28 231,294.3 231,298 C231,301.7 221.9391,303.6144 202.0591,303.9644 " fill="transparent" id="SubstitutionCipher-to-SubstitutionCipher" style="stroke:#181818;stroke-width:1;stroke-dasharray:7.0,7.0;"/><polygon fill="#181818" points="196.06,304.07,205.129,307.911,201.0592,303.982,204.9882,299.9122,196.06,304.07" style="stroke:#181818;stroke-width:1;"/></g><!--link SubstitutionCipher to SubstitutionCipher--><g id="link_SubstitutionCipher_SubstitutionCipher"><path codeLine="50" d="M196.35,286.08 C233.25,284.52 266,288.49 266,298 C266,307.51 239.2446,311.7334 202.3446,310.1734 " fill="transparent" id="SubstitutionCipher-to-SubstitutionCipher-1" style="stroke:#181818;stroke-width:1;stroke-dasharray:7.0,7.0;"/><polygon fill="#181818" points="196.35,309.92,205.173,314.2966,201.3455,310.1312,205.5109,306.3037,196.35,309.92" style="stroke:#181818;stroke-width:1;"/></g><!--link SubstitutionCipher to SubstitutionCipher--><g id="link_SubstitutionCipher_SubstitutionCipher"><path codeLine="51" d="M196.36,281.46 C249.01,276.36 301,281.87 301,298 C301,314.13 254.982,320.2185 202.332,315.1185 " fill="transparent" id="SubstitutionCipher-to-SubstitutionCipher-2" style="stroke:#181818;stroke-width:1;stroke-dasharray:7.0,7.0;"/><polygon fill="#181818" points="196.36,314.54,204.9324,319.3891,201.3367,315.0221,205.7037,311.4264,196.36,314.54" style="stroke:#181818;stroke-width:1;"/></g><!--link TextEditorApp to TextEditorApp--><g id="link_TextEditorApp_TextEditorApp"><path codeLine="57" d="M1246.21,114.58 C1266.54,116.06 1281,120.36 1281,127.5 C1281,134.64 1272.5242,138.5044 1252.1942,139.9844 " fill="transparent" id="TextEditorApp-to-TextEditorApp" style="stroke:#181818;stroke-width:1;stroke-dasharray:7.0,7.0;"/><polygon fill="#181818" points="1246.21,140.42,1255.4767,143.756,1251.1968,140.057,1254.8958,135.7771,1246.21,140.42" style="stroke:#181818;stroke-width:1;"/></g><!--link TextEditorApp to String--><g id="link_TextEditorApp_String"><path codeLine="58" d="M1246.26,168.35 C1275.55,178.32 1307.45,189.02 1337,199 C1627.55,297.15 1746.38,235.71 1990,422 C2020.48,445.31 2039.5184,479.6767 2056.0984,504.7267 " fill="transparent" id="TextEditorApp-to-String" style="stroke:#181818;stroke-width:1;stroke-dasharray:7.0,7.0;"/><polygon fill="#181818" points="2059.41,509.73,2057.7782,500.0173,2056.6503,505.5606,2051.1071,504.4327,2059.41,509.73" style="stroke:#181818;stroke-width:1;"/></g><!--link TextEditorApp to String--><g id="link_TextEditorApp_String"><path codeLine="64" d="M1246.04,157.27 C1285.71,170 1331.11,185.19 1372,199 C1662.55,297.15 1781.38,235.71 2025,422 C2055.48,445.31 2076.1704,478.9141 2083.3804,503.9641 " fill="transparent" id="TextEditorApp-to-String-1" style="stroke:#181818;stroke-width:1;"/><polygon fill="#181818" points="2085.04,509.73,2086.3946,499.9747,2083.657,504.9251,2078.7067,502.1875,2085.04,509.73" style="stroke:#181818;stroke-width:1;"/></g><!--link TextEditorApp to SubstitutionCipher--><g id="link_TextEditorApp_SubstitutionCipher"><path codeLine="59" d="M1039.83,130.02 C873.96,134.77 539.03,153.9 267,230 C243.23,236.65 223.8935,244.1864 201.6335,254.5064 " fill="transparent" id="TextEditorApp-to-SubstitutionCipher" style="stroke:#181818;stroke-width:1;stroke-dasharray:7.0,7.0;"/><polygon fill="#181818" points="196.19,257.03,206.0376,256.8735,200.7262,254.927,202.6727,249.6156,196.19,257.03" style="stroke:#181818;stroke-width:1;"/></g><!--link TextEditorApp to InputStream--><g id="link_TextEditorApp_InputStream"><path codeLine="60" d="M1193.28,169.01 C1216.72,185.98 1243.78,207.1 1265,230 C1330.39,300.56 1295.55,366.14 1379,414 C1409.37,431.42 1663.51,404.8 1694,422 C1727.67,440.99 1744.9237,478.0309 1759.6237,504.5809 " fill="transparent" id="TextEditorApp-to-InputStream" style="stroke:#181818;stroke-width:1;stroke-dasharray:7.0,7.0;"/><polygon fill="#181818" points="1762.53,509.83,1761.67,500.0188,1760.1081,505.4557,1754.6711,503.8938,1762.53,509.83" style="stroke:#181818;stroke-width:1;"/></g><!--link TextEditorApp to InputStream--><g id="link_TextEditorApp_InputStream"><path codeLine="62" d="M1225.9,169.01 C1251.72,185.98 1278.78,207.1 1300,230 C1365.39,300.56 1330.55,366.14 1414,414 C1444.37,431.42 1698.51,404.8 1729,422 C1762.67,440.99 1781.7992,477.3692 1786.4292,503.9192 " fill="transparent" id="TextEditorApp-to-InputStream-1" style="stroke:#181818;stroke-width:1;stroke-dasharray:7.0,7.0;"/><polygon fill="#181818" points="1787.46,509.83,1789.8544,500.2766,1786.601,504.9043,1781.9733,501.651,1787.46,509.83" style="stroke:#181818;stroke-width:1;"/></g><!--link TextEditorApp to OutputStream--><g id="link_TextEditorApp_OutputStream"><path codeLine="61" d="M1236.59,169.01 C1270.74,184.92 1308.35,205.36 1339,230 C1420.14,295.24 1390.84,367.49 1484,414 C1519.1,431.52 1802.45,403.42 1837,422 C1871.91,440.78 1891.1791,478.0034 1907.2491,504.6234 " fill="transparent" id="TextEditorApp-to-OutputStream" style="stroke:#181818;stroke-width:1;stroke-dasharray:7.0,7.0;"/><polygon fill="#181818" points="1910.35,509.76,1909.1231,499.9879,1907.7659,505.4795,1902.2743,504.1224,1910.35,509.76" style="stroke:#181818;stroke-width:1;"/></g><!--link TextEditorApp to OutputStream--><g id="link_TextEditorApp_OutputStream"><path codeLine="63" d="M1246.17,159.1 C1288.75,176.08 1336.57,199.9 1374,230 C1455.14,295.24 1425.84,367.49 1519,414 C1554.1,431.52 1837.45,403.42 1872,422 C1906.91,440.78 1927.9607,477.2868 1933.9607,503.9068 " fill="transparent" id="TextEditorApp-to-OutputStream-1" style="stroke:#181818;stroke-width:1;stroke-dasharray:7.0,7.0;"/><polygon fill="#181818" points="1935.28,509.76,1937.2032,500.1007,1934.1806,504.8824,1929.399,501.8598,1935.28,509.76" style="stroke:#181818;stroke-width:1;"/></g><!--SRC=[pPP1Ru8m5CVlV8eUMTHoDml9vbnYTjX1iulnq47LBbfOUMmpwZxxYeXKLw0ePhjWshx- -kVr_Hzw2n95A10pBEXxJ2EW_aW-yGFrn2e45l013sCOWg1aYTOMQjqopi2rtyW7SLZWACljXECSSPn13hhfefU0-H8XWtrR3WSSij7z2kXuqawcTe_zwjOobDRfRDn44cO1VcGBe49PD8LWx1f6rY1cgfhIesJKF3cNg92x6r5nbUmsJ6pgNQiug8lyT108o_8AJDZdMVnp3AKkLDUrDinHkGq_1GDgfsRRJUdSfjVmssxggZ56Uu7wq3hCJ5bpcfJyrSZHPKBqDNI6a6jakJ5nLI3f5CeFJc5SbjgKU1ILsqjQP4rU8n34WotwtdlDxis9aCMU_CXYBwSf4aveUpsdj28N3sEvbK6Se7eid5EH0Ea1_qHNAMGyiRAkS3gT-Jqthqu4QkbVr4GJnflQDsfCAMsWEefh4lPlMOMbCA9VqFUPBEMxC5Jx-E5Urn4GO9wiiYLXFEtl2y9dZdGBuxFnfAnN7-6rOeyY30Yx1fQSZzFppphKADlQaol_i1JjgkXfVtTOzb5GS_e3]--></g></svg>