<svg xmlns="http://www.w3.org/2000/svg" xmlns:xlink="http://www.w3.org/1999/xlink" contentStyleType="text/css" data-diagram-type="CLASS" height="216px" preserveAspectRatio="none" style="width:319px;height:216px;background:#FFFFFF;" version="1.1" viewBox="0 0 319 216" width="319px" zoomAndPan="magnify"><defs/><g><!--cluster org--><g id="cluster_org"><path d="M8.5,6 L32.0518,6 A3.75,3.75 0 0 1 34.5518,8.5 L41.5518,29.6094 L309.5,29.6094 A2.5,2.5 0 0 1 312,32.1094 L312,206.5 A2.5,2.5 0 0 1 309.5,209 L8.5,209 A2.5,2.5 0 0 1 6,206.5 L6,8.5 A2.5,2.5 0 0 1 8.5,6 " fill="transparent" style="stroke:#000000;stroke-width:1.5;"/><line style="stroke:#000000;stroke-width:1.5;" x1="6" x2="41.5518" y1="29.6094" y2="29.6094"/><text fill="#000000" font-family="sans-serif" font-size="14" font-weight="bold" lengthAdjust="spacing" textLength="22.5518" x="10" y="22.5332">org</text></g><!--cluster Main--><g id="cluster_Main"><path d="M32.5,50 L65.3896,50 A3.75,3.75 0 0 1 67.8896,52.5 L74.8896,73.6094 L285.5,73.6094 A2.5,2.5 0 0 1 288,76.1094 L288,182.5 A2.5,2.5 0 0 1 285.5,185 L32.5,185 A2.5,2.5 0 0 1 30,182.5 L30,52.5 A2.5,2.5 0 0 1 32.5,50 " fill="transparent" style="stroke:#000000;stroke-width:1.5;"/><line style="stroke:#000000;stroke-width:1.5;" x1="30" x2="74.8896" y1="73.6094" y2="73.6094"/><text fill="#000000" font-family="sans-serif" font-size="14" font-weight="bold" lengthAdjust="spacing" textLength="31.8896" x="34" y="66.5332">Main</text></g><!--class Main--><g id="elem_Main"><rect codeLine="2" fill="#F1F1F1" height="83.2188" id="Main" rx="2.5" ry="2.5" style="stroke:#181818;stroke-width:0.5;" width="225.2197" x="46.5" y="86"/><ellipse cx="139.6875" cy="102" fill="#ADD1B2" rx="11" ry="11" style="stroke:#181818;stroke-width:1;"/><path d="M142.4531,97.875 Q142.6094,97.6563 142.7969,97.5469 Q142.9844,97.4375 143.2031,97.4375 Q143.5781,97.4375 143.8125,97.7031 Q144.0469,97.9531 144.0469,98.5625 L144.0469,100.0156 Q144.0469,100.625 143.8125,100.8906 Q143.5781,101.1563 143.2031,101.1563 Q142.8594,101.1563 142.6563,100.9531 Q142.4531,100.7656 142.3438,100.25 Q142.2969,99.8906 142.1094,99.7031 Q141.7813,99.3281 141.1719,99.1094 Q140.5625,98.8906 139.9375,98.8906 Q139.1719,98.8906 138.5313,99.2188 Q137.9063,99.5469 137.4063,100.2969 Q136.9219,101.0469 136.9219,102.0781 L136.9219,103.1719 Q136.9219,104.4063 137.8125,105.2344 Q138.7031,106.0469 140.2969,106.0469 Q141.2344,106.0469 141.8906,105.7969 Q142.2813,105.6406 142.7031,105.2031 Q142.9688,104.9375 143.1094,104.8594 Q143.2656,104.7813 143.4688,104.7813 Q143.7969,104.7813 144.0469,105.0469 Q144.3125,105.2969 144.3125,105.6406 Q144.3125,105.9844 143.9688,106.3906 Q143.4688,106.9688 142.6719,107.2969 Q141.5938,107.75 140.2969,107.75 Q138.7813,107.75 137.5781,107.125 Q136.5938,106.625 135.9063,105.5625 Q135.2188,104.4844 135.2188,103.2031 L135.2188,102.0469 Q135.2188,100.7188 135.8281,99.5781 Q136.4531,98.4219 137.5469,97.8125 Q138.6406,97.1875 139.875,97.1875 Q140.6094,97.1875 141.25,97.3594 Q141.9063,97.5156 142.4531,97.875 Z " fill="#000000"/><text fill="#000000" font-family="sans-serif" font-size="14" lengthAdjust="spacing" textLength="30.3447" x="160.1875" y="107.7285">Main</text><line style="stroke:#181818;stroke-width:0.5;" x1="47.5" x2="270.7197" y1="118" y2="118"/><text fill="#000000" font-family="sans-serif" font-size="14" lengthAdjust="spacing" textLength="213.2197" x="52.5" y="136.5332">java/util/Queue ClassesToAnalyze</text><line style="stroke:#181818;stroke-width:0.5;" x1="47.5" x2="270.7197" y1="143.6094" y2="143.6094"/><text fill="#000000" font-family="sans-serif" font-size="14" lengthAdjust="spacing" textLength="179.751" x="52.5" y="162.1426">main(java/lang/String[]): Void</text></g><!--SRC=[Iyv9B2vMo2zAr_DDpCm34mhLN5c9POdwfIMPEVg1fQcbgGhE85MfnI7vZdc9EPLLgLmAkK256c1bEObvwVh19KMPUUdHiPfM2c7vcIbSjLm0]--></g></svg>