<svg xmlns="http://www.w3.org/2000/svg" xmlns:xlink="http://www.w3.org/1999/xlink" contentStyleType="text/css" data-diagram-type="CLASS" height="275px" preserveAspectRatio="none" style="width:848px;height:275px;background:#FFFFFF;" version="1.1" viewBox="0 0 848 275" width="848px" zoomAndPan="magnify"><defs/><g><!--class DecryptionInputStream--><g id="elem_DecryptionInputStream"><rect codeLine="2" fill="#F1F1F1" height="83.2188" id="DecryptionInputStream" rx="2.5" ry="2.5" style="stroke:#181818;stroke-width:0.5;" width="175.1787" x="35" y="24.5"/><ellipse cx="50" cy="40.5" fill="#ADD1B2" rx="11" ry="11" style="stroke:#181818;stroke-width:1;"/><path d="M52.7656,36.375 Q52.9219,36.1563 53.1094,36.0469 Q53.2969,35.9375 53.5156,35.9375 Q53.8906,35.9375 54.125,36.2031 Q54.3594,36.4531 54.3594,37.0625 L54.3594,38.5156 Q54.3594,39.125 54.125,39.3906 Q53.8906,39.6563 53.5156,39.6563 Q53.1719,39.6563 52.9688,39.4531 Q52.7656,39.2656 52.6563,38.75 Q52.6094,38.3906 52.4219,38.2031 Q52.0938,37.8281 51.4844,37.6094 Q50.875,37.3906 50.25,37.3906 Q49.4844,37.3906 48.8438,37.7188 Q48.2188,38.0469 47.7188,38.7969 Q47.2344,39.5469 47.2344,40.5781 L47.2344,41.6719 Q47.2344,42.9063 48.125,43.7344 Q49.0156,44.5469 50.6094,44.5469 Q51.5469,44.5469 52.2031,44.2969 Q52.5938,44.1406 53.0156,43.7031 Q53.2813,43.4375 53.4219,43.3594 Q53.5781,43.2813 53.7813,43.2813 Q54.1094,43.2813 54.3594,43.5469 Q54.625,43.7969 54.625,44.1406 Q54.625,44.4844 54.2813,44.8906 Q53.7813,45.4688 52.9844,45.7969 Q51.9063,46.25 50.6094,46.25 Q49.0938,46.25 47.8906,45.625 Q46.9063,45.125 46.2188,44.0625 Q45.5313,42.9844 45.5313,41.7031 L45.5313,40.5469 Q45.5313,39.2188 46.1406,38.0781 Q46.7656,36.9219 47.8594,36.3125 Q48.9531,35.6875 50.1875,35.6875 Q50.9219,35.6875 51.5625,35.8594 Q52.2188,36.0156 52.7656,36.375 Z " fill="#000000"/><text fill="#000000" font-family="sans-serif" font-size="14" lengthAdjust="spacing" textLength="143.1787" x="64" y="46.2285">DecryptionInputStream</text><line style="stroke:#181818;stroke-width:0.5;" x1="36" x2="209.1787" y1="56.5" y2="56.5"/><line style="stroke:#181818;stroke-width:0.5;" x1="36" x2="209.1787" y1="64.5" y2="64.5"/><text fill="#000000" font-family="sans-serif" font-size="14" lengthAdjust="spacing" textLength="60.6895" x="41" y="83.0332">read(): Int</text><text fill="#000000" font-family="sans-serif" font-size="14" lengthAdjust="spacing" textLength="143.1719" x="41" y="100.6426">read(Byte[], Int, Int): Int</text></g><!--class FilterInputStream--><g id="elem_FilterInputStream"><rect fill="#F1F1F1" height="48" id="FilterInputStream" rx="2.5" ry="2.5" style="stroke:#181818;stroke-width:0.5;" width="139.3721" x="7" y="212"/><ellipse cx="22" cy="228" fill="#ADD1B2" rx="11" ry="11" style="stroke:#181818;stroke-width:1;"/><path d="M24.7656,223.875 Q24.9219,223.6563 25.1094,223.5469 Q25.2969,223.4375 25.5156,223.4375 Q25.8906,223.4375 26.125,223.7031 Q26.3594,223.9531 26.3594,224.5625 L26.3594,226.0156 Q26.3594,226.625 26.125,226.8906 Q25.8906,227.1563 25.5156,227.1563 Q25.1719,227.1563 24.9688,226.9531 Q24.7656,226.7656 24.6563,226.25 Q24.6094,225.8906 24.4219,225.7031 Q24.0938,225.3281 23.4844,225.1094 Q22.875,224.8906 22.25,224.8906 Q21.4844,224.8906 20.8438,225.2188 Q20.2188,225.5469 19.7188,226.2969 Q19.2344,227.0469 19.2344,228.0781 L19.2344,229.1719 Q19.2344,230.4063 20.125,231.2344 Q21.0156,232.0469 22.6094,232.0469 Q23.5469,232.0469 24.2031,231.7969 Q24.5938,231.6406 25.0156,231.2031 Q25.2813,230.9375 25.4219,230.8594 Q25.5781,230.7813 25.7813,230.7813 Q26.1094,230.7813 26.3594,231.0469 Q26.625,231.2969 26.625,231.6406 Q26.625,231.9844 26.2813,232.3906 Q25.7813,232.9688 24.9844,233.2969 Q23.9063,233.75 22.6094,233.75 Q21.0938,233.75 19.8906,233.125 Q18.9063,232.625 18.2188,231.5625 Q17.5313,230.4844 17.5313,229.2031 L17.5313,228.0469 Q17.5313,226.7188 18.1406,225.5781 Q18.7656,224.4219 19.8594,223.8125 Q20.9531,223.1875 22.1875,223.1875 Q22.9219,223.1875 23.5625,223.3594 Q24.2188,223.5156 24.7656,223.875 Z " fill="#000000"/><text fill="#000000" font-family="sans-serif" font-size="14" lengthAdjust="spacing" textLength="107.3721" x="36" y="233.7285">FilterInputStream</text><line style="stroke:#181818;stroke-width:0.5;" x1="8" x2="145.3721" y1="244" y2="244"/><line style="stroke:#181818;stroke-width:0.5;" x1="8" x2="145.3721" y1="252" y2="252"/></g><!--class IDecryption--><g id="elem_IDecryption"><rect codeLine="15" fill="#F1F1F1" height="65.6094" id="IDecryption" rx="2.5" ry="2.5" style="stroke:#181818;stroke-width:0.5;" width="135.7031" x="181.5" y="203"/><ellipse cx="211.3034" cy="219" fill="#B4A7E5" rx="11" ry="11" style="stroke:#181818;stroke-width:1;"/><path d="M212.2565,215.6406 L212.2565,222.2969 L213.9753,222.2969 Q214.5847,222.2969 214.8503,222.5313 Q215.1159,222.7656 215.1159,223.1563 Q215.1159,223.5313 214.8503,223.7656 Q214.5847,224 213.9753,224 L208.8347,224 Q208.2253,224 207.9597,223.7656 Q207.694,223.5313 207.694,223.1406 Q207.694,222.7656 207.9597,222.5313 Q208.2253,222.2969 208.8347,222.2969 L210.5534,222.2969 L210.5534,215.6406 L208.8347,215.6406 Q208.2253,215.6406 207.9597,215.4063 Q207.694,215.1719 207.694,214.7813 Q207.694,214.4063 207.9597,214.1719 Q208.2253,213.9375 208.8347,213.9375 L213.9753,213.9375 Q214.5847,213.9375 214.8503,214.1719 Q215.1159,214.4063 215.1159,214.7813 Q215.1159,215.1719 214.8503,215.4063 Q214.5847,215.6406 213.9753,215.6406 L212.2565,215.6406 Z " fill="#000000"/><text fill="#000000" font-family="sans-serif" font-size="14" font-style="italic" lengthAdjust="spacing" textLength="70.8066" x="228.5931" y="224.7285">IDecryption</text><line style="stroke:#181818;stroke-width:0.5;" x1="182.5" x2="316.2031" y1="235" y2="235"/><line style="stroke:#181818;stroke-width:0.5;" x1="182.5" x2="316.2031" y1="243" y2="243"/><text fill="#000000" font-family="sans-serif" font-size="14" lengthAdjust="spacing" textLength="123.7031" x="187.5" y="261.5332">decrypt(Char): Char</text></g><!--class EncryptionOutputStream--><g id="elem_EncryptionOutputStream"><rect codeLine="9" fill="#F1F1F1" height="65.6094" id="EncryptionOutputStream" rx="2.5" ry="2.5" style="stroke:#181818;stroke-width:0.5;" width="185.2959" x="489" y="33"/><ellipse cx="504" cy="49" fill="#ADD1B2" rx="11" ry="11" style="stroke:#181818;stroke-width:1;"/><path d="M506.7656,44.875 Q506.9219,44.6563 507.1094,44.5469 Q507.2969,44.4375 507.5156,44.4375 Q507.8906,44.4375 508.125,44.7031 Q508.3594,44.9531 508.3594,45.5625 L508.3594,47.0156 Q508.3594,47.625 508.125,47.8906 Q507.8906,48.1563 507.5156,48.1563 Q507.1719,48.1563 506.9688,47.9531 Q506.7656,47.7656 506.6563,47.25 Q506.6094,46.8906 506.4219,46.7031 Q506.0938,46.3281 505.4844,46.1094 Q504.875,45.8906 504.25,45.8906 Q503.4844,45.8906 502.8438,46.2188 Q502.2188,46.5469 501.7188,47.2969 Q501.2344,48.0469 501.2344,49.0781 L501.2344,50.1719 Q501.2344,51.4063 502.125,52.2344 Q503.0156,53.0469 504.6094,53.0469 Q505.5469,53.0469 506.2031,52.7969 Q506.5938,52.6406 507.0156,52.2031 Q507.2813,51.9375 507.4219,51.8594 Q507.5781,51.7813 507.7813,51.7813 Q508.1094,51.7813 508.3594,52.0469 Q508.625,52.2969 508.625,52.6406 Q508.625,52.9844 508.2813,53.3906 Q507.7813,53.9688 506.9844,54.2969 Q505.9063,54.75 504.6094,54.75 Q503.0938,54.75 501.8906,54.125 Q500.9063,53.625 500.2188,52.5625 Q499.5313,51.4844 499.5313,50.2031 L499.5313,49.0469 Q499.5313,47.7188 500.1406,46.5781 Q500.7656,45.4219 501.8594,44.8125 Q502.9531,44.1875 504.1875,44.1875 Q504.9219,44.1875 505.5625,44.3594 Q506.2188,44.5156 506.7656,44.875 Z " fill="#000000"/><text fill="#000000" font-family="sans-serif" font-size="14" lengthAdjust="spacing" textLength="153.2959" x="518" y="54.7285">EncryptionOutputStream</text><line style="stroke:#181818;stroke-width:0.5;" x1="490" x2="673.2959" y1="65" y2="65"/><line style="stroke:#181818;stroke-width:0.5;" x1="490" x2="673.2959" y1="73" y2="73"/><text fill="#000000" font-family="sans-serif" font-size="14" lengthAdjust="spacing" textLength="90.248" x="495" y="91.5332">write(Int): Void</text></g><!--class FilterOutputStream--><g id="elem_FilterOutputStream"><rect fill="#F1F1F1" height="48" id="FilterOutputStream" rx="2.5" ry="2.5" style="stroke:#181818;stroke-width:0.5;" width="150.2617" x="523.5" y="212"/><ellipse cx="538.5" cy="228" fill="#ADD1B2" rx="11" ry="11" style="stroke:#181818;stroke-width:1;"/><path d="M541.2656,223.875 Q541.4219,223.6563 541.6094,223.5469 Q541.7969,223.4375 542.0156,223.4375 Q542.3906,223.4375 542.625,223.7031 Q542.8594,223.9531 542.8594,224.5625 L542.8594,226.0156 Q542.8594,226.625 542.625,226.8906 Q542.3906,227.1563 542.0156,227.1563 Q541.6719,227.1563 541.4688,226.9531 Q541.2656,226.7656 541.1563,226.25 Q541.1094,225.8906 540.9219,225.7031 Q540.5938,225.3281 539.9844,225.1094 Q539.375,224.8906 538.75,224.8906 Q537.9844,224.8906 537.3438,225.2188 Q536.7188,225.5469 536.2188,226.2969 Q535.7344,227.0469 535.7344,228.0781 L535.7344,229.1719 Q535.7344,230.4063 536.625,231.2344 Q537.5156,232.0469 539.1094,232.0469 Q540.0469,232.0469 540.7031,231.7969 Q541.0938,231.6406 541.5156,231.2031 Q541.7813,230.9375 541.9219,230.8594 Q542.0781,230.7813 542.2813,230.7813 Q542.6094,230.7813 542.8594,231.0469 Q543.125,231.2969 543.125,231.6406 Q543.125,231.9844 542.7813,232.3906 Q542.2813,232.9688 541.4844,233.2969 Q540.4063,233.75 539.1094,233.75 Q537.5938,233.75 536.3906,233.125 Q535.4063,232.625 534.7188,231.5625 Q534.0313,230.4844 534.0313,229.2031 L534.0313,228.0469 Q534.0313,226.7188 534.6406,225.5781 Q535.2656,224.4219 536.3594,223.8125 Q537.4531,223.1875 538.6875,223.1875 Q539.4219,223.1875 540.0625,223.3594 Q540.7188,223.5156 541.2656,223.875 Z " fill="#000000"/><text fill="#000000" font-family="sans-serif" font-size="14" lengthAdjust="spacing" textLength="118.2617" x="552.5" y="233.7285">FilterOutputStream</text><line style="stroke:#181818;stroke-width:0.5;" x1="524.5" x2="672.7617" y1="244" y2="244"/><line style="stroke:#181818;stroke-width:0.5;" x1="524.5" x2="672.7617" y1="252" y2="252"/></g><!--class IEncryption--><g id="elem_IEncryption"><rect codeLine="19" fill="#F1F1F1" height="65.6094" id="IEncryption" rx="2.5" ry="2.5" style="stroke:#181818;stroke-width:0.5;" width="135.7031" x="352.5" y="203"/><ellipse cx="382.651" cy="219" fill="#B4A7E5" rx="11" ry="11" style="stroke:#181818;stroke-width:1;"/><path d="M383.6042,215.6406 L383.6042,222.2969 L385.3229,222.2969 Q385.9323,222.2969 386.1979,222.5313 Q386.4635,222.7656 386.4635,223.1563 Q386.4635,223.5313 386.1979,223.7656 Q385.9323,224 385.3229,224 L380.1823,224 Q379.5729,224 379.3073,223.7656 Q379.0417,223.5313 379.0417,223.1406 Q379.0417,222.7656 379.3073,222.5313 Q379.5729,222.2969 380.1823,222.2969 L381.901,222.2969 L381.901,215.6406 L380.1823,215.6406 Q379.5729,215.6406 379.3073,215.4063 Q379.0417,215.1719 379.0417,214.7813 Q379.0417,214.4063 379.3073,214.1719 Q379.5729,213.9375 380.1823,213.9375 L385.3229,213.9375 Q385.9323,213.9375 386.1979,214.1719 Q386.4635,214.4063 386.4635,214.7813 Q386.4635,215.1719 386.1979,215.4063 Q385.9323,215.6406 385.3229,215.6406 L383.6042,215.6406 Z " fill="#000000"/><text fill="#000000" font-family="sans-serif" font-size="14" font-style="italic" lengthAdjust="spacing" textLength="70.0342" x="400.0179" y="224.7285">IEncryption</text><line style="stroke:#181818;stroke-width:0.5;" x1="353.5" x2="487.2031" y1="235" y2="235"/><line style="stroke:#181818;stroke-width:0.5;" x1="353.5" x2="487.2031" y1="243" y2="243"/><text fill="#000000" font-family="sans-serif" font-size="14" lengthAdjust="spacing" textLength="123.7031" x="358.5" y="261.5332">encrypt(Char): Char</text></g><!--class SubstitutionCipher--><g id="elem_SubstitutionCipher"><rect codeLine="23" fill="#F1F1F1" height="118.4375" id="SubstitutionCipher" rx="2.5" ry="2.5" style="stroke:#181818;stroke-width:0.5;" width="146.6201" x="290" y="7"/><ellipse cx="305.0993" cy="23" fill="#ADD1B2" rx="11" ry="11" style="stroke:#181818;stroke-width:1;"/><path d="M307.8649,18.875 Q308.0212,18.6563 308.2087,18.5469 Q308.3962,18.4375 308.6149,18.4375 Q308.9899,18.4375 309.2243,18.7031 Q309.4587,18.9531 309.4587,19.5625 L309.4587,21.0156 Q309.4587,21.625 309.2243,21.8906 Q308.9899,22.1563 308.6149,22.1563 Q308.2712,22.1563 308.0681,21.9531 Q307.8649,21.7656 307.7556,21.25 Q307.7087,20.8906 307.5212,20.7031 Q307.1931,20.3281 306.5837,20.1094 Q305.9743,19.8906 305.3493,19.8906 Q304.5837,19.8906 303.9431,20.2188 Q303.3181,20.5469 302.8181,21.2969 Q302.3337,22.0469 302.3337,23.0781 L302.3337,24.1719 Q302.3337,25.4063 303.2243,26.2344 Q304.1149,27.0469 305.7087,27.0469 Q306.6462,27.0469 307.3024,26.7969 Q307.6931,26.6406 308.1149,26.2031 Q308.3806,25.9375 308.5212,25.8594 Q308.6774,25.7813 308.8806,25.7813 Q309.2087,25.7813 309.4587,26.0469 Q309.7243,26.2969 309.7243,26.6406 Q309.7243,26.9844 309.3806,27.3906 Q308.8806,27.9688 308.0837,28.2969 Q307.0056,28.75 305.7087,28.75 Q304.1931,28.75 302.9899,28.125 Q302.0056,27.625 301.3181,26.5625 Q300.6306,25.4844 300.6306,24.2031 L300.6306,23.0469 Q300.6306,21.7188 301.2399,20.5781 Q301.8649,19.4219 302.9587,18.8125 Q304.0524,18.1875 305.2868,18.1875 Q306.0212,18.1875 306.6618,18.3594 Q307.3181,18.5156 307.8649,18.875 Z " fill="#000000"/><text fill="#000000" font-family="sans-serif" font-size="14" lengthAdjust="spacing" textLength="114.3994" x="319.1214" y="28.7285">SubstitutionCipher</text><line style="stroke:#181818;stroke-width:0.5;" x1="291" x2="435.6201" y1="39" y2="39"/><text fill="#000000" font-family="sans-serif" font-size="14" lengthAdjust="spacing" textLength="134.6201" x="296" y="57.5332">encryptionKey: Char[]</text><text fill="#000000" font-family="sans-serif" font-size="14" lengthAdjust="spacing" textLength="134.6201" x="296" y="75.1426">decryptionKey: Char[]</text><line style="stroke:#181818;stroke-width:0.5;" x1="291" x2="435.6201" y1="82.2188" y2="82.2188"/><text fill="#000000" font-family="sans-serif" font-size="14" lengthAdjust="spacing" textLength="123.7031" x="296" y="100.752">encrypt(Char): Char</text><text fill="#000000" font-family="sans-serif" font-size="14" lengthAdjust="spacing" textLength="123.7031" x="296" y="118.3613">decrypt(Char): Char</text></g><!--class TextEditorApp--><g id="elem_TextEditorApp"><rect codeLine="32" fill="#F1F1F1" height="65.6094" id="TextEditorApp" rx="2.5" ry="2.5" style="stroke:#181818;stroke-width:0.5;" width="131.8203" x="709.5" y="33"/><ellipse cx="729.4997" cy="49" fill="#ADD1B2" rx="11" ry="11" style="stroke:#181818;stroke-width:1;"/><path d="M732.2653,44.875 Q732.4215,44.6563 732.609,44.5469 Q732.7965,44.4375 733.0153,44.4375 Q733.3903,44.4375 733.6247,44.7031 Q733.859,44.9531 733.859,45.5625 L733.859,47.0156 Q733.859,47.625 733.6247,47.8906 Q733.3903,48.1563 733.0153,48.1563 Q732.6715,48.1563 732.4684,47.9531 Q732.2653,47.7656 732.1559,47.25 Q732.109,46.8906 731.9215,46.7031 Q731.5934,46.3281 730.984,46.1094 Q730.3747,45.8906 729.7497,45.8906 Q728.984,45.8906 728.3434,46.2188 Q727.7184,46.5469 727.2184,47.2969 Q726.734,48.0469 726.734,49.0781 L726.734,50.1719 Q726.734,51.4063 727.6247,52.2344 Q728.5153,53.0469 730.109,53.0469 Q731.0465,53.0469 731.7028,52.7969 Q732.0934,52.6406 732.5153,52.2031 Q732.7809,51.9375 732.9215,51.8594 Q733.0778,51.7813 733.2809,51.7813 Q733.609,51.7813 733.859,52.0469 Q734.1247,52.2969 734.1247,52.6406 Q734.1247,52.9844 733.7809,53.3906 Q733.2809,53.9688 732.484,54.2969 Q731.4059,54.75 730.109,54.75 Q728.5934,54.75 727.3903,54.125 Q726.4059,53.625 725.7184,52.5625 Q725.0309,51.4844 725.0309,50.2031 L725.0309,49.0469 Q725.0309,47.7188 725.6403,46.5781 Q726.2653,45.4219 727.359,44.8125 Q728.4528,44.1875 729.6872,44.1875 Q730.4215,44.1875 731.0622,44.3594 Q731.7184,44.5156 732.2653,44.875 Z " fill="#000000"/><text fill="#000000" font-family="sans-serif" font-size="14" lengthAdjust="spacing" textLength="88.71" x="744.6107" y="54.7285">TextEditorApp</text><line style="stroke:#181818;stroke-width:0.5;" x1="710.5" x2="840.3203" y1="65" y2="65"/><line style="stroke:#181818;stroke-width:0.5;" x1="710.5" x2="840.3203" y1="73" y2="73"/><text fill="#000000" font-family="sans-serif" font-size="14" lengthAdjust="spacing" textLength="119.8203" x="715.5" y="91.5332">main(String[]): Void</text></g><!--link DecryptionInputStream to FilterInputStream--><g id="link_DecryptionInputStream_FilterInputStream"><path codeLine="6" d="M111.36,107.67 C102.43,140.3 94.9658,167.5796 87.6158,194.4096 " fill="transparent" id="DecryptionInputStream-to-FilterInputStream" style="stroke:#181818;stroke-width:1;"/><polygon fill="transparent" points="82.86,211.77,93.4026,195.9949,81.829,192.8244,82.86,211.77" style="stroke:#181818;stroke-width:1;"/><text fill="#000000" font-family="sans-serif" font-size="13" lengthAdjust="spacing" textLength="22.3945" x="99.5" y="169.4951">Is A</text></g><!--link DecryptionInputStream to IDecryption--><g id="link_DecryptionInputStream_IDecryption"><path codeLine="7" d="M153.24,107.67 C175.34,136.9 201.1011,170.9843 221.5711,198.0543 " fill="transparent" id="DecryptionInputStream-to-IDecryption" style="stroke:#181818;stroke-width:1;"/><polygon fill="#181818" points="225.19,202.84,222.9521,193.2488,222.1742,198.8519,216.5711,198.074,225.19,202.84" style="stroke:#181818;stroke-width:1;"/><text fill="#000000" font-family="sans-serif" font-size="13" lengthAdjust="spacing" textLength="54.1899" x="202.5" y="169.4951">decryptor</text></g><!--link EncryptionOutputStream to FilterOutputStream--><g id="link_EncryptionOutputStream_FilterOutputStream"><path codeLine="12" d="M584.78,99.39 C588.12,132.38 591.3989,164.8013 594.3489,193.9713 " fill="transparent" id="EncryptionOutputStream-to-FilterOutputStream" style="stroke:#181818;stroke-width:1;"/><polygon fill="transparent" points="596.16,211.88,600.3184,193.3676,588.3793,194.5751,596.16,211.88" style="stroke:#181818;stroke-width:1;"/><text fill="#000000" font-family="sans-serif" font-size="13" lengthAdjust="spacing" textLength="22.3945" x="592.5" y="169.4951">Is A</text></g><!--link EncryptionOutputStream to IEncryption--><g id="link_EncryptionOutputStream_IEncryption"><path codeLine="13" d="M550.46,99.39 C521.86,129.24 483.8121,168.9387 455.3221,198.6587 " fill="transparent" id="EncryptionOutputStream-to-IEncryption" style="stroke:#181818;stroke-width:1;"/><polygon fill="#181818" points="451.17,202.99,460.2856,199.2611,454.6301,199.3806,454.5105,193.725,451.17,202.99" style="stroke:#181818;stroke-width:1;"/><text fill="#000000" font-family="sans-serif" font-size="13" lengthAdjust="spacing" textLength="54.1899" x="497.5" y="169.4951">encryptor</text></g><!--link SubstitutionCipher to IEncryption--><g id="link_SubstitutionCipher_IEncryption"><path codeLine="29" d="M383.28,125.29 C392.09,151.25 396.3469,163.8043 403.7769,185.7043 " fill="transparent" id="SubstitutionCipher-to-IEncryption" style="stroke:#181818;stroke-width:1;stroke-dasharray:7.0,7.0;"/><polygon fill="transparent" points="409.56,202.75,409.4588,183.7766,398.095,187.632,409.56,202.75" style="stroke:#181818;stroke-width:1;"/></g><!--link SubstitutionCipher to IDecryption--><g id="link_SubstitutionCipher_IDecryption"><path codeLine="30" d="M323.95,125.29 C306.33,151.25 296.3613,165.9584 281.4913,187.8584 " fill="transparent" id="SubstitutionCipher-to-IDecryption" style="stroke:#181818;stroke-width:1;stroke-dasharray:7.0,7.0;"/><polygon fill="transparent" points="271.38,202.75,286.4552,191.2288,276.5275,184.4879,271.38,202.75" style="stroke:#181818;stroke-width:1;"/></g><!--SRC=[TP71he8m44NtV4MNcAWVu894VRw4k72XSKDOzC7ud4HBKuOeKV_TGQgj2XkQpjnxvtJ83h8inGzafjQ4XOgLhcXD1kHHN0B1PnuE9Y9MP2-pcY19XqtbyR7DMz2PCHfTeryy41W_c2sbcFOvejWrM9gtby84GVQ0NQXdTrNH6-t9847OGcqBp9cgM-omtY8iLvydYbs7jQ1UOAWuQYSp43ux4rduSBwNXg6QWw5ylHV9UflvgMyVlgx-IaAg6l4SzHwCP-7Q4khMagIloP_bhW4zbD_ZnkEhluC-XLl1atm3PrhaoBkQQjr07oMgaFUAwZz9tT-w0m00]--></g></svg>