<svg xmlns="http://www.w3.org/2000/svg" xmlns:xlink="http://www.w3.org/1999/xlink" contentStyleType="text/css" data-diagram-type="CLASS" height="275px" preserveAspectRatio="none" style="width:786px;height:275px;background:#FFFFFF;" version="1.1" viewBox="0 0 786 275" width="786px" zoomAndPan="magnify"><defs/><g><!--class DecryptionInputStream--><g id="elem_DecryptionInputStream"><rect codeLine="2" fill="#F1F1F1" height="83.2188" id="DecryptionInputStream" rx="2.5" ry="2.5" style="stroke:#181818;stroke-width:0.5;" width="175.1787" x="14" y="24.5"/><ellipse cx="29" cy="40.5" fill="#ADD1B2" rx="11" ry="11" style="stroke:#181818;stroke-width:1;"/><path d="M31.7656,36.375 Q31.9219,36.1563 32.1094,36.0469 Q32.2969,35.9375 32.5156,35.9375 Q32.8906,35.9375 33.125,36.2031 Q33.3594,36.4531 33.3594,37.0625 L33.3594,38.5156 Q33.3594,39.125 33.125,39.3906 Q32.8906,39.6563 32.5156,39.6563 Q32.1719,39.6563 31.9688,39.4531 Q31.7656,39.2656 31.6563,38.75 Q31.6094,38.3906 31.4219,38.2031 Q31.0938,37.8281 30.4844,37.6094 Q29.875,37.3906 29.25,37.3906 Q28.4844,37.3906 27.8438,37.7188 Q27.2188,38.0469 26.7188,38.7969 Q26.2344,39.5469 26.2344,40.5781 L26.2344,41.6719 Q26.2344,42.9063 27.125,43.7344 Q28.0156,44.5469 29.6094,44.5469 Q30.5469,44.5469 31.2031,44.2969 Q31.5938,44.1406 32.0156,43.7031 Q32.2813,43.4375 32.4219,43.3594 Q32.5781,43.2813 32.7813,43.2813 Q33.1094,43.2813 33.3594,43.5469 Q33.625,43.7969 33.625,44.1406 Q33.625,44.4844 33.2813,44.8906 Q32.7813,45.4688 31.9844,45.7969 Q30.9063,46.25 29.6094,46.25 Q28.0938,46.25 26.8906,45.625 Q25.9063,45.125 25.2188,44.0625 Q24.5313,42.9844 24.5313,41.7031 L24.5313,40.5469 Q24.5313,39.2188 25.1406,38.0781 Q25.7656,36.9219 26.8594,36.3125 Q27.9531,35.6875 29.1875,35.6875 Q29.9219,35.6875 30.5625,35.8594 Q31.2188,36.0156 31.7656,36.375 Z " fill="#000000"/><text fill="#000000" font-family="sans-serif" font-size="14" lengthAdjust="spacing" textLength="143.1787" x="43" y="46.2285">DecryptionInputStream</text><line style="stroke:#181818;stroke-width:0.5;" x1="15" x2="188.1787" y1="56.5" y2="56.5"/><line style="stroke:#181818;stroke-width:0.5;" x1="15" x2="188.1787" y1="64.5" y2="64.5"/><text fill="#000000" font-family="sans-serif" font-size="14" lengthAdjust="spacing" textLength="60.6895" x="20" y="83.0332">read(): Int</text><text fill="#000000" font-family="sans-serif" font-size="14" lengthAdjust="spacing" textLength="143.1719" x="20" y="100.6426">read(Byte[], Int, Int): Int</text></g><!--class FilterInputStream--><g id="elem_FilterInputStream"><rect fill="#F1F1F1" height="48" id="FilterInputStream" rx="2.5" ry="2.5" style="stroke:#181818;stroke-width:0.5;" width="139.3721" x="7" y="212"/><ellipse cx="22" cy="228" fill="#ADD1B2" rx="11" ry="11" style="stroke:#181818;stroke-width:1;"/><path d="M24.7656,223.875 Q24.9219,223.6563 25.1094,223.5469 Q25.2969,223.4375 25.5156,223.4375 Q25.8906,223.4375 26.125,223.7031 Q26.3594,223.9531 26.3594,224.5625 L26.3594,226.0156 Q26.3594,226.625 26.125,226.8906 Q25.8906,227.1563 25.5156,227.1563 Q25.1719,227.1563 24.9688,226.9531 Q24.7656,226.7656 24.6563,226.25 Q24.6094,225.8906 24.4219,225.7031 Q24.0938,225.3281 23.4844,225.1094 Q22.875,224.8906 22.25,224.8906 Q21.4844,224.8906 20.8438,225.2188 Q20.2188,225.5469 19.7188,226.2969 Q19.2344,227.0469 19.2344,228.0781 L19.2344,229.1719 Q19.2344,230.4063 20.125,231.2344 Q21.0156,232.0469 22.6094,232.0469 Q23.5469,232.0469 24.2031,231.7969 Q24.5938,231.6406 25.0156,231.2031 Q25.2813,230.9375 25.4219,230.8594 Q25.5781,230.7813 25.7813,230.7813 Q26.1094,230.7813 26.3594,231.0469 Q26.625,231.2969 26.625,231.6406 Q26.625,231.9844 26.2813,232.3906 Q25.7813,232.9688 24.9844,233.2969 Q23.9063,233.75 22.6094,233.75 Q21.0938,233.75 19.8906,233.125 Q18.9063,232.625 18.2188,231.5625 Q17.5313,230.4844 17.5313,229.2031 L17.5313,228.0469 Q17.5313,226.7188 18.1406,225.5781 Q18.7656,224.4219 19.8594,223.8125 Q20.9531,223.1875 22.1875,223.1875 Q22.9219,223.1875 23.5625,223.3594 Q24.2188,223.5156 24.7656,223.875 Z " fill="#000000"/><text fill="#000000" font-family="sans-serif" font-size="14" lengthAdjust="spacing" textLength="107.3721" x="36" y="233.7285">FilterInputStream</text><line style="stroke:#181818;stroke-width:0.5;" x1="8" x2="145.3721" y1="244" y2="244"/><line style="stroke:#181818;stroke-width:0.5;" x1="8" x2="145.3721" y1="252" y2="252"/></g><!--class IDecryption--><g id="elem_IDecryption"><rect codeLine="15" fill="#F1F1F1" height="65.6094" id="IDecryption" rx="2.5" ry="2.5" style="stroke:#181818;stroke-width:0.5;" width="135.7031" x="181.5" y="203"/><ellipse cx="211.3034" cy="219" fill="#B4A7E5" rx="11" ry="11" style="stroke:#181818;stroke-width:1;"/><path d="M212.2565,215.6406 L212.2565,222.2969 L213.9753,222.2969 Q214.5847,222.2969 214.8503,222.5313 Q215.1159,222.7656 215.1159,223.1563 Q215.1159,223.5313 214.8503,223.7656 Q214.5847,224 213.9753,224 L208.8347,224 Q208.2253,224 207.9597,223.7656 Q207.694,223.5313 207.694,223.1406 Q207.694,222.7656 207.9597,222.5313 Q208.2253,222.2969 208.8347,222.2969 L210.5534,222.2969 L210.5534,215.6406 L208.8347,215.6406 Q208.2253,215.6406 207.9597,215.4063 Q207.694,215.1719 207.694,214.7813 Q207.694,214.4063 207.9597,214.1719 Q208.2253,213.9375 208.8347,213.9375 L213.9753,213.9375 Q214.5847,213.9375 214.8503,214.1719 Q215.1159,214.4063 215.1159,214.7813 Q215.1159,215.1719 214.8503,215.4063 Q214.5847,215.6406 213.9753,215.6406 L212.2565,215.6406 Z " fill="#000000"/><text fill="#000000" font-family="sans-serif" font-size="14" font-style="italic" lengthAdjust="spacing" textLength="70.8066" x="228.5931" y="224.7285">IDecryption</text><line style="stroke:#181818;stroke-width:0.5;" x1="182.5" x2="316.2031" y1="235" y2="235"/><line style="stroke:#181818;stroke-width:0.5;" x1="182.5" x2="316.2031" y1="243" y2="243"/><text fill="#000000" font-family="sans-serif" font-size="14" lengthAdjust="spacing" textLength="123.7031" x="187.5" y="261.5332">decrypt(Char): Char</text></g><!--class EncryptionOutputStream--><g id="elem_EncryptionOutputStream"><rect codeLine="9" fill="#F1F1F1" height="65.6094" id="EncryptionOutputStream" rx="2.5" ry="2.5" style="stroke:#181818;stroke-width:0.5;" width="185.2959" x="427" y="33"/><ellipse cx="442" cy="49" fill="#ADD1B2" rx="11" ry="11" style="stroke:#181818;stroke-width:1;"/><path d="M444.7656,44.875 Q444.9219,44.6563 445.1094,44.5469 Q445.2969,44.4375 445.5156,44.4375 Q445.8906,44.4375 446.125,44.7031 Q446.3594,44.9531 446.3594,45.5625 L446.3594,47.0156 Q446.3594,47.625 446.125,47.8906 Q445.8906,48.1563 445.5156,48.1563 Q445.1719,48.1563 444.9688,47.9531 Q444.7656,47.7656 444.6563,47.25 Q444.6094,46.8906 444.4219,46.7031 Q444.0938,46.3281 443.4844,46.1094 Q442.875,45.8906 442.25,45.8906 Q441.4844,45.8906 440.8438,46.2188 Q440.2188,46.5469 439.7188,47.2969 Q439.2344,48.0469 439.2344,49.0781 L439.2344,50.1719 Q439.2344,51.4063 440.125,52.2344 Q441.0156,53.0469 442.6094,53.0469 Q443.5469,53.0469 444.2031,52.7969 Q444.5938,52.6406 445.0156,52.2031 Q445.2813,51.9375 445.4219,51.8594 Q445.5781,51.7813 445.7813,51.7813 Q446.1094,51.7813 446.3594,52.0469 Q446.625,52.2969 446.625,52.6406 Q446.625,52.9844 446.2813,53.3906 Q445.7813,53.9688 444.9844,54.2969 Q443.9063,54.75 442.6094,54.75 Q441.0938,54.75 439.8906,54.125 Q438.9063,53.625 438.2188,52.5625 Q437.5313,51.4844 437.5313,50.2031 L437.5313,49.0469 Q437.5313,47.7188 438.1406,46.5781 Q438.7656,45.4219 439.8594,44.8125 Q440.9531,44.1875 442.1875,44.1875 Q442.9219,44.1875 443.5625,44.3594 Q444.2188,44.5156 444.7656,44.875 Z " fill="#000000"/><text fill="#000000" font-family="sans-serif" font-size="14" lengthAdjust="spacing" textLength="153.2959" x="456" y="54.7285">EncryptionOutputStream</text><line style="stroke:#181818;stroke-width:0.5;" x1="428" x2="611.2959" y1="65" y2="65"/><line style="stroke:#181818;stroke-width:0.5;" x1="428" x2="611.2959" y1="73" y2="73"/><text fill="#000000" font-family="sans-serif" font-size="14" lengthAdjust="spacing" textLength="90.248" x="433" y="91.5332">write(Int): Void</text></g><!--class FilterOutputStream--><g id="elem_FilterOutputStream"><rect fill="#F1F1F1" height="48" id="FilterOutputStream" rx="2.5" ry="2.5" style="stroke:#181818;stroke-width:0.5;" width="150.2617" x="523.5" y="212"/><ellipse cx="538.5" cy="228" fill="#ADD1B2" rx="11" ry="11" style="stroke:#181818;stroke-width:1;"/><path d="M541.2656,223.875 Q541.4219,223.6563 541.6094,223.5469 Q541.7969,223.4375 542.0156,223.4375 Q542.3906,223.4375 542.625,223.7031 Q542.8594,223.9531 542.8594,224.5625 L542.8594,226.0156 Q542.8594,226.625 542.625,226.8906 Q542.3906,227.1563 542.0156,227.1563 Q541.6719,227.1563 541.4688,226.9531 Q541.2656,226.7656 541.1563,226.25 Q541.1094,225.8906 540.9219,225.7031 Q540.5938,225.3281 539.9844,225.1094 Q539.375,224.8906 538.75,224.8906 Q537.9844,224.8906 537.3438,225.2188 Q536.7188,225.5469 536.2188,226.2969 Q535.7344,227.0469 535.7344,228.0781 L535.7344,229.1719 Q535.7344,230.4063 536.625,231.2344 Q537.5156,232.0469 539.1094,232.0469 Q540.0469,232.0469 540.7031,231.7969 Q541.0938,231.6406 541.5156,231.2031 Q541.7813,230.9375 541.9219,230.8594 Q542.0781,230.7813 542.2813,230.7813 Q542.6094,230.7813 542.8594,231.0469 Q543.125,231.2969 543.125,231.6406 Q543.125,231.9844 542.7813,232.3906 Q542.2813,232.9688 541.4844,233.2969 Q540.4063,233.75 539.1094,233.75 Q537.5938,233.75 536.3906,233.125 Q535.4063,232.625 534.7188,231.5625 Q534.0313,230.4844 534.0313,229.2031 L534.0313,228.0469 Q534.0313,226.7188 534.6406,225.5781 Q535.2656,224.4219 536.3594,223.8125 Q537.4531,223.1875 538.6875,223.1875 Q539.4219,223.1875 540.0625,223.3594 Q540.7188,223.5156 541.2656,223.875 Z " fill="#000000"/><text fill="#000000" font-family="sans-serif" font-size="14" lengthAdjust="spacing" textLength="118.2617" x="552.5" y="233.7285">FilterOutputStream</text><line style="stroke:#181818;stroke-width:0.5;" x1="524.5" x2="672.7617" y1="244" y2="244"/><line style="stroke:#181818;stroke-width:0.5;" x1="524.5" x2="672.7617" y1="252" y2="252"/></g><!--class IEncryption--><g id="elem_IEncryption"><rect codeLine="19" fill="#F1F1F1" height="65.6094" id="IEncryption" rx="2.5" ry="2.5" style="stroke:#181818;stroke-width:0.5;" width="135.7031" x="352.5" y="203"/><ellipse cx="382.651" cy="219" fill="#B4A7E5" rx="11" ry="11" style="stroke:#181818;stroke-width:1;"/><path d="M383.6042,215.6406 L383.6042,222.2969 L385.3229,222.2969 Q385.9323,222.2969 386.1979,222.5313 Q386.4635,222.7656 386.4635,223.1563 Q386.4635,223.5313 386.1979,223.7656 Q385.9323,224 385.3229,224 L380.1823,224 Q379.5729,224 379.3073,223.7656 Q379.0417,223.5313 379.0417,223.1406 Q379.0417,222.7656 379.3073,222.5313 Q379.5729,222.2969 380.1823,222.2969 L381.901,222.2969 L381.901,215.6406 L380.1823,215.6406 Q379.5729,215.6406 379.3073,215.4063 Q379.0417,215.1719 379.0417,214.7813 Q379.0417,214.4063 379.3073,214.1719 Q379.5729,213.9375 380.1823,213.9375 L385.3229,213.9375 Q385.9323,213.9375 386.1979,214.1719 Q386.4635,214.4063 386.4635,214.7813 Q386.4635,215.1719 386.1979,215.4063 Q385.9323,215.6406 385.3229,215.6406 L383.6042,215.6406 Z " fill="#000000"/><text fill="#000000" font-family="sans-serif" font-size="14" font-style="italic" lengthAdjust="spacing" textLength="70.0342" x="400.0179" y="224.7285">IEncryption</text><line style="stroke:#181818;stroke-width:0.5;" x1="353.5" x2="487.2031" y1="235" y2="235"/><line style="stroke:#181818;stroke-width:0.5;" x1="353.5" x2="487.2031" y1="243" y2="243"/><text fill="#000000" font-family="sans-serif" font-size="14" lengthAdjust="spacing" textLength="123.7031" x="358.5" y="261.5332">encrypt(Char): Char</text></g><!--class SubstitutionCipher--><g id="elem_SubstitutionCipher"><rect codeLine="23" fill="#F1F1F1" height="118.4375" id="SubstitutionCipher" rx="2.5" ry="2.5" style="stroke:#181818;stroke-width:0.5;" width="146.6201" x="238" y="7"/><ellipse cx="253.0993" cy="23" fill="#ADD1B2" rx="11" ry="11" style="stroke:#181818;stroke-width:1;"/><path d="M255.8649,18.875 Q256.0212,18.6563 256.2087,18.5469 Q256.3962,18.4375 256.6149,18.4375 Q256.9899,18.4375 257.2243,18.7031 Q257.4587,18.9531 257.4587,19.5625 L257.4587,21.0156 Q257.4587,21.625 257.2243,21.8906 Q256.9899,22.1563 256.6149,22.1563 Q256.2712,22.1563 256.0681,21.9531 Q255.8649,21.7656 255.7556,21.25 Q255.7087,20.8906 255.5212,20.7031 Q255.1931,20.3281 254.5837,20.1094 Q253.9743,19.8906 253.3493,19.8906 Q252.5837,19.8906 251.9431,20.2188 Q251.3181,20.5469 250.8181,21.2969 Q250.3337,22.0469 250.3337,23.0781 L250.3337,24.1719 Q250.3337,25.4063 251.2243,26.2344 Q252.1149,27.0469 253.7087,27.0469 Q254.6462,27.0469 255.3024,26.7969 Q255.6931,26.6406 256.1149,26.2031 Q256.3806,25.9375 256.5212,25.8594 Q256.6774,25.7813 256.8806,25.7813 Q257.2087,25.7813 257.4587,26.0469 Q257.7243,26.2969 257.7243,26.6406 Q257.7243,26.9844 257.3806,27.3906 Q256.8806,27.9688 256.0837,28.2969 Q255.0056,28.75 253.7087,28.75 Q252.1931,28.75 250.9899,28.125 Q250.0056,27.625 249.3181,26.5625 Q248.6306,25.4844 248.6306,24.2031 L248.6306,23.0469 Q248.6306,21.7188 249.2399,20.5781 Q249.8649,19.4219 250.9587,18.8125 Q252.0524,18.1875 253.2868,18.1875 Q254.0212,18.1875 254.6618,18.3594 Q255.3181,18.5156 255.8649,18.875 Z " fill="#000000"/><text fill="#000000" font-family="sans-serif" font-size="14" lengthAdjust="spacing" textLength="114.3994" x="267.1214" y="28.7285">SubstitutionCipher</text><line style="stroke:#181818;stroke-width:0.5;" x1="239" x2="383.6201" y1="39" y2="39"/><text fill="#000000" font-family="sans-serif" font-size="14" lengthAdjust="spacing" textLength="134.6201" x="244" y="57.5332">encryptionKey: Char[]</text><text fill="#000000" font-family="sans-serif" font-size="14" lengthAdjust="spacing" textLength="134.6201" x="244" y="75.1426">decryptionKey: Char[]</text><line style="stroke:#181818;stroke-width:0.5;" x1="239" x2="383.6201" y1="82.2188" y2="82.2188"/><text fill="#000000" font-family="sans-serif" font-size="14" lengthAdjust="spacing" textLength="123.7031" x="244" y="100.752">encrypt(Char): Char</text><text fill="#000000" font-family="sans-serif" font-size="14" lengthAdjust="spacing" textLength="123.7031" x="244" y="118.3613">decrypt(Char): Char</text></g><!--class TextEditorApp--><g id="elem_TextEditorApp"><rect codeLine="32" fill="#F1F1F1" height="65.6094" id="TextEditorApp" rx="2.5" ry="2.5" style="stroke:#181818;stroke-width:0.5;" width="131.8203" x="647.5" y="33"/><ellipse cx="667.4997" cy="49" fill="#ADD1B2" rx="11" ry="11" style="stroke:#181818;stroke-width:1;"/><path d="M670.2653,44.875 Q670.4215,44.6563 670.609,44.5469 Q670.7965,44.4375 671.0153,44.4375 Q671.3903,44.4375 671.6247,44.7031 Q671.859,44.9531 671.859,45.5625 L671.859,47.0156 Q671.859,47.625 671.6247,47.8906 Q671.3903,48.1563 671.0153,48.1563 Q670.6715,48.1563 670.4684,47.9531 Q670.2653,47.7656 670.1559,47.25 Q670.109,46.8906 669.9215,46.7031 Q669.5934,46.3281 668.984,46.1094 Q668.3747,45.8906 667.7497,45.8906 Q666.984,45.8906 666.3434,46.2188 Q665.7184,46.5469 665.2184,47.2969 Q664.734,48.0469 664.734,49.0781 L664.734,50.1719 Q664.734,51.4063 665.6247,52.2344 Q666.5153,53.0469 668.109,53.0469 Q669.0465,53.0469 669.7028,52.7969 Q670.0934,52.6406 670.5153,52.2031 Q670.7809,51.9375 670.9215,51.8594 Q671.0778,51.7813 671.2809,51.7813 Q671.609,51.7813 671.859,52.0469 Q672.1247,52.2969 672.1247,52.6406 Q672.1247,52.9844 671.7809,53.3906 Q671.2809,53.9688 670.484,54.2969 Q669.4059,54.75 668.109,54.75 Q666.5934,54.75 665.3903,54.125 Q664.4059,53.625 663.7184,52.5625 Q663.0309,51.4844 663.0309,50.2031 L663.0309,49.0469 Q663.0309,47.7188 663.6403,46.5781 Q664.2653,45.4219 665.359,44.8125 Q666.4528,44.1875 667.6872,44.1875 Q668.4215,44.1875 669.0622,44.3594 Q669.7184,44.5156 670.2653,44.875 Z " fill="#000000"/><text fill="#000000" font-family="sans-serif" font-size="14" lengthAdjust="spacing" textLength="88.71" x="682.6107" y="54.7285">TextEditorApp</text><line style="stroke:#181818;stroke-width:0.5;" x1="648.5" x2="778.3203" y1="65" y2="65"/><line style="stroke:#181818;stroke-width:0.5;" x1="648.5" x2="778.3203" y1="73" y2="73"/><text fill="#000000" font-family="sans-serif" font-size="14" lengthAdjust="spacing" textLength="119.8203" x="653.5" y="91.5332">main(String[]): Void</text></g><!--link DecryptionInputStream to FilterInputStream--><g id="link_DecryptionInputStream_FilterInputStream"><path codeLine="6" d="M94.84,107.72 C92.45,122.59 89.79,139.54 87.5,155 C84.66,174.14 82.4859,189.943 80.3459,205.933 " fill="transparent" id="DecryptionInputStream-to-FilterInputStream" style="stroke:#181818;stroke-width:1;"/><polygon fill="#181818" points="79.55,211.88,84.7085,203.4901,80.2133,206.9242,76.7792,202.4289,79.55,211.88" style="stroke:#181818;stroke-width:1;"/><text fill="#000000" font-family="sans-serif" font-size="13" lengthAdjust="spacing" textLength="22.3945" x="88.5" y="169.4951">Is A</text></g><!--link DecryptionInputStream to IDecryption--><g id="link_DecryptionInputStream_IDecryption"><path codeLine="7" d="M136.48,107.68 C153.58,127.47 174.52,151.56 193.5,173 C202.15,182.77 207.6162,188.8892 216.2862,198.4792 " fill="transparent" id="DecryptionInputStream-to-IDecryption" style="stroke:#181818;stroke-width:1;"/><polygon fill="#181818" points="220.31,202.93,217.2415,193.5714,216.9569,199.221,211.3072,198.9364,220.31,202.93" style="stroke:#181818;stroke-width:1;"/><text fill="#000000" font-family="sans-serif" font-size="13" lengthAdjust="spacing" textLength="54.1899" x="194.5" y="169.4951">decryptor</text></g><!--link EncryptionOutputStream to FilterOutputStream--><g id="link_EncryptionOutputStream_FilterOutputStream"><path codeLine="12" d="M534.73,99.39 C550.25,132.38 571.3563,177.2806 585.0763,206.4506 " fill="transparent" id="EncryptionOutputStream-to-FilterOutputStream" style="stroke:#181818;stroke-width:1;"/><polygon fill="#181818" points="587.63,211.88,587.4191,202.0334,585.5019,207.3555,580.1798,205.4383,587.63,211.88" style="stroke:#181818;stroke-width:1;"/><text fill="#000000" font-family="sans-serif" font-size="13" lengthAdjust="spacing" textLength="22.3945" x="568.5" y="169.4951">Is A</text></g><!--link EncryptionOutputStream to IEncryption--><g id="link_EncryptionOutputStream_IEncryption"><path codeLine="13" d="M500.41,99.39 C482.82,129.24 459.927,168.1013 442.407,197.8213 " fill="transparent" id="EncryptionOutputStream-to-IEncryption" style="stroke:#181818;stroke-width:1;"/><polygon fill="#181818" points="439.36,202.99,447.3763,197.2682,441.8992,198.6827,440.4846,193.2056,439.36,202.99" style="stroke:#181818;stroke-width:1;"/><text fill="#000000" font-family="sans-serif" font-size="13" lengthAdjust="spacing" textLength="54.1899" x="468.5" y="169.4951">encryptor</text></g><!--link SubstitutionCipher to IEncryption--><g id="link_SubstitutionCipher_IEncryption"><path codeLine="29" d="M349.32,125.29 C366.16,151.25 382.1041,175.8167 396.3141,197.7167 " fill="transparent" id="SubstitutionCipher-to-IEncryption" style="stroke:#181818;stroke-width:1;"/><polygon fill="#181818" points="399.58,202.75,398.0367,193.0228,396.8584,198.5556,391.3256,197.3773,399.58,202.75" style="stroke:#181818;stroke-width:1;"/><text fill="#000000" font-family="sans-serif" font-size="13" lengthAdjust="spacing" textLength="56.3672" x="380.5" y="169.4951">&#171;inherits&#187;</text></g><!--link SubstitutionCipher to IDecryption--><g id="link_SubstitutionCipher_IDecryption"><path codeLine="30" d="M274.51,125.24 C269.52,134.91 264.94,145.04 261.5,155 C256.22,170.26 253.9361,181.9971 252.2761,196.8571 " fill="transparent" id="SubstitutionCipher-to-IDecryption" style="stroke:#181818;stroke-width:1;"/><polygon fill="#181818" points="251.61,202.82,256.5844,194.3197,252.1651,197.8509,248.6339,193.4316,251.61,202.82" style="stroke:#181818;stroke-width:1;"/><text fill="#000000" font-family="sans-serif" font-size="13" lengthAdjust="spacing" textLength="56.3672" x="262.5" y="169.4951">&#171;inherits&#187;</text></g><!--SRC=[VP71Ri8m38RlVOeSEscy04AL60Efsc479YvL3rdh3KlWHeahgD3UVIxDQCDQBebY_x_zsIaEsZdr2eLj36D5APcQjsn17zKbKdANyTDSfSJ-yT8mPFbp6xaUFlaJZTUOpHArmGE37KR5uzJoWINjKo8kkqTbewYuygxfB_jUSm1yiiWGTrox2ai1cn3tP47OepqmfNrEr40tDYGfzgKB2F05olF7gxssmjLUmZNK3qgAtjUyrtUpR-jFnyXrArwXsOCTM2Js1ardoV9Rv_lmM8C9of5s_vUmM2191jaboQGZ-DB0uIVxW3ElIvHTBerfXpfgf5WsZ_ITvVs7_W80]--></g></svg>