<svg xmlns="http://www.w3.org/2000/svg" xmlns:xlink="http://www.w3.org/1999/xlink" contentStyleType="text/css" data-diagram-type="CLASS" height="470px" preserveAspectRatio="none" style="width:2261px;height:470px;background:#FFFFFF;" version="1.1" viewBox="0 0 2261 470" width="2261px" zoomAndPan="magnify"><defs/><g><!--cluster org--><g id="cluster_org"><path d="M8.5,6 L32.0518,6 A3.75,3.75 0 0 1 34.5518,8.5 L41.5518,29.6094 L1398.5,29.6094 A2.5,2.5 0 0 1 1401,32.1094 L1401,460.5 A2.5,2.5 0 0 1 1398.5,463 L8.5,463 A2.5,2.5 0 0 1 6,460.5 L6,8.5 A2.5,2.5 0 0 1 8.5,6 " fill="transparent" style="stroke:#000000;stroke-width:1.5;"/><line style="stroke:#000000;stroke-width:1.5;" x1="6" x2="41.5518" y1="29.6094" y2="29.6094"/><text fill="#000000" font-family="sans-serif" font-size="14" font-weight="bold" lengthAdjust="spacing" textLength="22.5518" x="10" y="22.5332">org</text></g><!--cluster requestedTest--><g id="cluster_requestedTest"><path d="M32.5,50 L129.1963,50 A3.75,3.75 0 0 1 131.6963,52.5 L138.6963,73.6094 L1374.5,73.6094 A2.5,2.5 0 0 1 1377,76.1094 L1377,436.5 A2.5,2.5 0 0 1 1374.5,439 L32.5,439 A2.5,2.5 0 0 1 30,436.5 L30,52.5 A2.5,2.5 0 0 1 32.5,50 " fill="transparent" style="stroke:#000000;stroke-width:1.5;"/><line style="stroke:#000000;stroke-width:1.5;" x1="30" x2="138.6963" y1="73.6094" y2="73.6094"/><text fill="#000000" font-family="sans-serif" font-size="14" font-weight="bold" lengthAdjust="spacing" textLength="95.6963" x="34" y="66.5332">requestedTest</text></g><!--cluster java--><g id="cluster_java"><path d="M1427.5,286 L1455.748,286 A3.75,3.75 0 0 1 1458.248,288.5 L1465.248,309.6094 L2251.5,309.6094 A2.5,2.5 0 0 1 2254,312.1094 L2254,451.5 A2.5,2.5 0 0 1 2251.5,454 L1427.5,454 A2.5,2.5 0 0 1 1425,451.5 L1425,288.5 A2.5,2.5 0 0 1 1427.5,286 " fill="transparent" style="stroke:#000000;stroke-width:1.5;"/><line style="stroke:#000000;stroke-width:1.5;" x1="1425" x2="1465.248" y1="309.6094" y2="309.6094"/><text fill="#000000" font-family="sans-serif" font-size="14" font-weight="bold" lengthAdjust="spacing" textLength="27.248" x="1429" y="302.5332">java</text></g><!--cluster io--><g id="cluster_io"><path d="M1451.5,330 L1464.9414,330 A3.75,3.75 0 0 1 1467.4414,332.5 L1474.4414,353.6094 L2101.5,353.6094 A2.5,2.5 0 0 1 2104,356.1094 L2104,427.5 A2.5,2.5 0 0 1 2101.5,430 L1451.5,430 A2.5,2.5 0 0 1 1449,427.5 L1449,332.5 A2.5,2.5 0 0 1 1451.5,330 " fill="transparent" style="stroke:#000000;stroke-width:1.5;"/><line style="stroke:#000000;stroke-width:1.5;" x1="1449" x2="1474.4414" y1="353.6094" y2="353.6094"/><text fill="#000000" font-family="sans-serif" font-size="14" font-weight="bold" lengthAdjust="spacing" textLength="12.4414" x="1453" y="346.5332">io</text></g><!--cluster lang--><g id="cluster_lang"><path d="M2130.5,330 L2160.2793,330 A3.75,3.75 0 0 1 2162.7793,332.5 L2169.7793,353.6094 L2227.5,353.6094 A2.5,2.5 0 0 1 2230,356.1094 L2230,427.5 A2.5,2.5 0 0 1 2227.5,430 L2130.5,430 A2.5,2.5 0 0 1 2128,427.5 L2128,332.5 A2.5,2.5 0 0 1 2130.5,330 " fill="transparent" style="stroke:#000000;stroke-width:1.5;"/><line style="stroke:#000000;stroke-width:1.5;" x1="2128" x2="2169.7793" y1="353.6094" y2="353.6094"/><text fill="#000000" font-family="sans-serif" font-size="14" font-weight="bold" lengthAdjust="spacing" textLength="28.7793" x="2132" y="346.5332">lang</text></g><!--class DecryptionInputStream--><g id="elem_DecryptionInputStream"><rect codeLine="2" fill="#F1F1F1" height="100.8281" id="DecryptionInputStream" rx="2.5" ry="2.5" style="stroke:#181818;stroke-width:0.5;" width="422.0879" x="698" y="103.5"/><ellipse cx="833.2046" cy="119.5" fill="#ADD1B2" rx="11" ry="11" style="stroke:#181818;stroke-width:1;"/><path d="M835.9702,115.375 Q836.1265,115.1563 836.314,115.0469 Q836.5015,114.9375 836.7202,114.9375 Q837.0952,114.9375 837.3296,115.2031 Q837.564,115.4531 837.564,116.0625 L837.564,117.5156 Q837.564,118.125 837.3296,118.3906 Q837.0952,118.6563 836.7202,118.6563 Q836.3765,118.6563 836.1733,118.4531 Q835.9702,118.2656 835.8608,117.75 Q835.814,117.3906 835.6265,117.2031 Q835.2983,116.8281 834.689,116.6094 Q834.0796,116.3906 833.4546,116.3906 Q832.689,116.3906 832.0483,116.7188 Q831.4233,117.0469 830.9233,117.7969 Q830.439,118.5469 830.439,119.5781 L830.439,120.6719 Q830.439,121.9063 831.3296,122.7344 Q832.2202,123.5469 833.814,123.5469 Q834.7515,123.5469 835.4077,123.2969 Q835.7983,123.1406 836.2202,122.7031 Q836.4858,122.4375 836.6265,122.3594 Q836.7827,122.2813 836.9858,122.2813 Q837.314,122.2813 837.564,122.5469 Q837.8296,122.7969 837.8296,123.1406 Q837.8296,123.4844 837.4858,123.8906 Q836.9858,124.4688 836.189,124.7969 Q835.1108,125.25 833.814,125.25 Q832.2983,125.25 831.0952,124.625 Q830.1108,124.125 829.4233,123.0625 Q828.7358,121.9844 828.7358,120.7031 L828.7358,119.5469 Q828.7358,118.2188 829.3452,117.0781 Q829.9702,115.9219 831.064,115.3125 Q832.1577,114.6875 833.3921,114.6875 Q834.1265,114.6875 834.7671,114.8594 Q835.4233,115.0156 835.9702,115.375 Z " fill="#000000"/><text fill="#000000" font-family="sans-serif" font-size="14" lengthAdjust="spacing" textLength="143.1787" x="853.7046" y="125.2285">DecryptionInputStream</text><line style="stroke:#181818;stroke-width:0.5;" x1="699" x2="1119.0879" y1="135.5" y2="135.5"/><line style="stroke:#181818;stroke-width:0.5;" x1="699" x2="1119.0879" y1="143.5" y2="143.5"/><ellipse cx="709" cy="157.8047" fill="#84BE84" rx="3" ry="3" style="stroke:#038048;stroke-width:1;"/><text fill="#000000" font-family="sans-serif" font-size="14" lengthAdjust="spacing" textLength="396.0879" x="718" y="162.0332">&lt;init&gt;(java/io/InputStream, org/requestedTest/IDecryption): Void</text><ellipse cx="709" cy="175.4141" fill="#84BE84" rx="3" ry="3" style="stroke:#038048;stroke-width:1;"/><text fill="#000000" font-family="sans-serif" font-size="14" lengthAdjust="spacing" textLength="60.6895" x="718" y="179.6426">read(): Int</text><ellipse cx="709" cy="193.0234" fill="#84BE84" rx="3" ry="3" style="stroke:#038048;stroke-width:1;"/><text fill="#000000" font-family="sans-serif" font-size="14" lengthAdjust="spacing" textLength="143.1719" x="718" y="197.252">read(Byte[], Int, Int): Int</text></g><!--class IDecryption--><g id="elem_IDecryption"><rect codeLine="23" fill="#F1F1F1" height="65.6094" id="IDecryption" rx="2.5" ry="2.5" style="stroke:#181818;stroke-width:0.5;" width="149.7031" x="803" y="357"/><ellipse cx="839.1034" cy="373" fill="#B4A7E5" rx="11" ry="11" style="stroke:#181818;stroke-width:1;"/><path d="M840.0565,369.6406 L840.0565,376.2969 L841.7753,376.2969 Q842.3847,376.2969 842.6503,376.5313 Q842.9159,376.7656 842.9159,377.1563 Q842.9159,377.5313 842.6503,377.7656 Q842.3847,378 841.7753,378 L836.6347,378 Q836.0253,378 835.7597,377.7656 Q835.494,377.5313 835.494,377.1406 Q835.494,376.7656 835.7597,376.5313 Q836.0253,376.2969 836.6347,376.2969 L838.3534,376.2969 L838.3534,369.6406 L836.6347,369.6406 Q836.0253,369.6406 835.7597,369.4063 Q835.494,369.1719 835.494,368.7813 Q835.494,368.4063 835.7597,368.1719 Q836.0253,367.9375 836.6347,367.9375 L841.7753,367.9375 Q842.3847,367.9375 842.6503,368.1719 Q842.9159,368.4063 842.9159,368.7813 Q842.9159,369.1719 842.6503,369.4063 Q842.3847,369.6406 841.7753,369.6406 L840.0565,369.6406 Z " fill="#000000"/><text fill="#000000" font-family="sans-serif" font-size="14" font-style="italic" lengthAdjust="spacing" textLength="70.8066" x="857.7931" y="378.7285">IDecryption</text><line style="stroke:#181818;stroke-width:0.5;" x1="804" x2="951.7031" y1="389" y2="389"/><line style="stroke:#181818;stroke-width:0.5;" x1="804" x2="951.7031" y1="397" y2="397"/><polygon fill="#4177AF" points="814,407.3047,810,413.3047,818,413.3047" style="stroke:#1963A0;stroke-width:1;"/><text fill="#000000" font-family="sans-serif" font-size="14" font-style="italic" lengthAdjust="spacing" textLength="123.7031" x="823" y="415.5332">decrypt(Char): Char</text></g><!--class EncryptionOutputStream--><g id="elem_EncryptionOutputStream"><rect codeLine="13" fill="#F1F1F1" height="83.2188" id="EncryptionOutputStream" rx="2.5" ry="2.5" style="stroke:#181818;stroke-width:0.5;" width="432.2051" x="231" y="112.5"/><ellipse cx="366.2046" cy="128.5" fill="#ADD1B2" rx="11" ry="11" style="stroke:#181818;stroke-width:1;"/><path d="M368.9702,124.375 Q369.1265,124.1563 369.314,124.0469 Q369.5015,123.9375 369.7202,123.9375 Q370.0952,123.9375 370.3296,124.2031 Q370.564,124.4531 370.564,125.0625 L370.564,126.5156 Q370.564,127.125 370.3296,127.3906 Q370.0952,127.6563 369.7202,127.6563 Q369.3765,127.6563 369.1733,127.4531 Q368.9702,127.2656 368.8608,126.75 Q368.814,126.3906 368.6265,126.2031 Q368.2983,125.8281 367.689,125.6094 Q367.0796,125.3906 366.4546,125.3906 Q365.689,125.3906 365.0483,125.7188 Q364.4233,126.0469 363.9233,126.7969 Q363.439,127.5469 363.439,128.5781 L363.439,129.6719 Q363.439,130.9063 364.3296,131.7344 Q365.2202,132.5469 366.814,132.5469 Q367.7515,132.5469 368.4077,132.2969 Q368.7983,132.1406 369.2202,131.7031 Q369.4858,131.4375 369.6265,131.3594 Q369.7827,131.2813 369.9858,131.2813 Q370.314,131.2813 370.564,131.5469 Q370.8296,131.7969 370.8296,132.1406 Q370.8296,132.4844 370.4858,132.8906 Q369.9858,133.4688 369.189,133.7969 Q368.1108,134.25 366.814,134.25 Q365.2983,134.25 364.0952,133.625 Q363.1108,133.125 362.4233,132.0625 Q361.7358,130.9844 361.7358,129.7031 L361.7358,128.5469 Q361.7358,127.2188 362.3452,126.0781 Q362.9702,124.9219 364.064,124.3125 Q365.1577,123.6875 366.3921,123.6875 Q367.1265,123.6875 367.7671,123.8594 Q368.4233,124.0156 368.9702,124.375 Z " fill="#000000"/><text fill="#000000" font-family="sans-serif" font-size="14" lengthAdjust="spacing" textLength="153.2959" x="386.7046" y="134.2285">EncryptionOutputStream</text><line style="stroke:#181818;stroke-width:0.5;" x1="232" x2="662.2051" y1="144.5" y2="144.5"/><line style="stroke:#181818;stroke-width:0.5;" x1="232" x2="662.2051" y1="152.5" y2="152.5"/><ellipse cx="242" cy="166.8047" fill="#84BE84" rx="3" ry="3" style="stroke:#038048;stroke-width:1;"/><text fill="#000000" font-family="sans-serif" font-size="14" lengthAdjust="spacing" textLength="406.2051" x="251" y="171.0332">&lt;init&gt;(java/io/OutputStream, org/requestedTest/IEncryption): Void</text><ellipse cx="242" cy="184.4141" fill="#84BE84" rx="3" ry="3" style="stroke:#038048;stroke-width:1;"/><text fill="#000000" font-family="sans-serif" font-size="14" lengthAdjust="spacing" textLength="90.248" x="251" y="188.6426">write(Int): Void</text></g><!--class IEncryption--><g id="elem_IEncryption"><rect codeLine="27" fill="#F1F1F1" height="65.6094" id="IEncryption" rx="2.5" ry="2.5" style="stroke:#181818;stroke-width:0.5;" width="149.7031" x="341" y="357"/><ellipse cx="377.451" cy="373" fill="#B4A7E5" rx="11" ry="11" style="stroke:#181818;stroke-width:1;"/><path d="M378.4042,369.6406 L378.4042,376.2969 L380.1229,376.2969 Q380.7323,376.2969 380.9979,376.5313 Q381.2635,376.7656 381.2635,377.1563 Q381.2635,377.5313 380.9979,377.7656 Q380.7323,378 380.1229,378 L374.9823,378 Q374.3729,378 374.1073,377.7656 Q373.8417,377.5313 373.8417,377.1406 Q373.8417,376.7656 374.1073,376.5313 Q374.3729,376.2969 374.9823,376.2969 L376.701,376.2969 L376.701,369.6406 L374.9823,369.6406 Q374.3729,369.6406 374.1073,369.4063 Q373.8417,369.1719 373.8417,368.7813 Q373.8417,368.4063 374.1073,368.1719 Q374.3729,367.9375 374.9823,367.9375 L380.1229,367.9375 Q380.7323,367.9375 380.9979,368.1719 Q381.2635,368.4063 381.2635,368.7813 Q381.2635,369.1719 380.9979,369.4063 Q380.7323,369.6406 380.1229,369.6406 L378.4042,369.6406 Z " fill="#000000"/><text fill="#000000" font-family="sans-serif" font-size="14" font-style="italic" lengthAdjust="spacing" textLength="70.0342" x="396.2179" y="378.7285">IEncryption</text><line style="stroke:#181818;stroke-width:0.5;" x1="342" x2="489.7031" y1="389" y2="389"/><line style="stroke:#181818;stroke-width:0.5;" x1="342" x2="489.7031" y1="397" y2="397"/><polygon fill="#4177AF" points="352,407.3047,348,413.3047,356,413.3047" style="stroke:#1963A0;stroke-width:1;"/><text fill="#000000" font-family="sans-serif" font-size="14" font-style="italic" lengthAdjust="spacing" textLength="123.7031" x="361" y="415.5332">encrypt(Char): Char</text></g><!--class SubstitutionCipher--><g id="elem_SubstitutionCipher"><rect codeLine="31" fill="#F1F1F1" height="136.0469" id="SubstitutionCipher" rx="2.5" ry="2.5" style="stroke:#181818;stroke-width:0.5;" width="149.7031" x="46" y="86"/><ellipse cx="62.4867" cy="102" fill="#ADD1B2" rx="11" ry="11" style="stroke:#181818;stroke-width:1;"/><path d="M65.2523,97.875 Q65.4085,97.6563 65.596,97.5469 Q65.7835,97.4375 66.0023,97.4375 Q66.3773,97.4375 66.6117,97.7031 Q66.846,97.9531 66.846,98.5625 L66.846,100.0156 Q66.846,100.625 66.6117,100.8906 Q66.3773,101.1563 66.0023,101.1563 Q65.6585,101.1563 65.4554,100.9531 Q65.2523,100.7656 65.1429,100.25 Q65.096,99.8906 64.9085,99.7031 Q64.5804,99.3281 63.971,99.1094 Q63.3617,98.8906 62.7367,98.8906 Q61.971,98.8906 61.3304,99.2188 Q60.7054,99.5469 60.2054,100.2969 Q59.721,101.0469 59.721,102.0781 L59.721,103.1719 Q59.721,104.4063 60.6117,105.2344 Q61.5023,106.0469 63.096,106.0469 Q64.0335,106.0469 64.6898,105.7969 Q65.0804,105.6406 65.5023,105.2031 Q65.7679,104.9375 65.9085,104.8594 Q66.0648,104.7813 66.2679,104.7813 Q66.596,104.7813 66.846,105.0469 Q67.1117,105.2969 67.1117,105.6406 Q67.1117,105.9844 66.7679,106.3906 Q66.2679,106.9688 65.471,107.2969 Q64.3929,107.75 63.096,107.75 Q61.5804,107.75 60.3773,107.125 Q59.3929,106.625 58.7054,105.5625 Q58.0179,104.4844 58.0179,103.2031 L58.0179,102.0469 Q58.0179,100.7188 58.6273,99.5781 Q59.2523,98.4219 60.346,97.8125 Q61.4398,97.1875 62.6742,97.1875 Q63.4085,97.1875 64.0492,97.3594 Q64.7054,97.5156 65.2523,97.875 Z " fill="#000000"/><text fill="#000000" font-family="sans-serif" font-size="14" lengthAdjust="spacing" textLength="114.3994" x="76.817" y="107.7285">SubstitutionCipher</text><line style="stroke:#181818;stroke-width:0.5;" x1="47" x2="194.7031" y1="118" y2="118"/><text fill="#000000" font-family="sans-serif" font-size="14" lengthAdjust="spacing" textLength="134.6201" x="52" y="136.5332">encryptionKey: Char[]</text><text fill="#000000" font-family="sans-serif" font-size="14" lengthAdjust="spacing" textLength="134.6201" x="52" y="154.1426">decryptionKey: Char[]</text><line style="stroke:#181818;stroke-width:0.5;" x1="47" x2="194.7031" y1="161.2188" y2="161.2188"/><ellipse cx="57" cy="175.5234" fill="#84BE84" rx="3" ry="3" style="stroke:#038048;stroke-width:1;"/><text fill="#000000" font-family="sans-serif" font-size="14" lengthAdjust="spacing" textLength="79.3721" x="66" y="179.752">&lt;init&gt;(): Void</text><ellipse cx="57" cy="193.1328" fill="#84BE84" rx="3" ry="3" style="stroke:#038048;stroke-width:1;"/><text fill="#000000" font-family="sans-serif" font-size="14" lengthAdjust="spacing" textLength="123.7031" x="66" y="197.3613">encrypt(Char): Char</text><ellipse cx="57" cy="210.7422" fill="#84BE84" rx="3" ry="3" style="stroke:#038048;stroke-width:1;"/><text fill="#000000" font-family="sans-serif" font-size="14" lengthAdjust="spacing" textLength="123.7031" x="66" y="214.9707">decrypt(Char): Char</text></g><!--class TextEditorApp--><g id="elem_TextEditorApp"><rect codeLine="41" fill="#F1F1F1" height="83.2188" id="TextEditorApp" rx="2.5" ry="2.5" style="stroke:#181818;stroke-width:0.5;" width="205.751" x="1155" y="112.5"/><ellipse cx="1209.2705" cy="128.5" fill="#ADD1B2" rx="11" ry="11" style="stroke:#181818;stroke-width:1;"/><path d="M1212.0361,124.375 Q1212.1924,124.1563 1212.3799,124.0469 Q1212.5674,123.9375 1212.7861,123.9375 Q1213.1611,123.9375 1213.3955,124.2031 Q1213.6299,124.4531 1213.6299,125.0625 L1213.6299,126.5156 Q1213.6299,127.125 1213.3955,127.3906 Q1213.1611,127.6563 1212.7861,127.6563 Q1212.4424,127.6563 1212.2393,127.4531 Q1212.0361,127.2656 1211.9268,126.75 Q1211.8799,126.3906 1211.6924,126.2031 Q1211.3643,125.8281 1210.7549,125.6094 Q1210.1455,125.3906 1209.5205,125.3906 Q1208.7549,125.3906 1208.1143,125.7188 Q1207.4893,126.0469 1206.9893,126.7969 Q1206.5049,127.5469 1206.5049,128.5781 L1206.5049,129.6719 Q1206.5049,130.9063 1207.3955,131.7344 Q1208.2861,132.5469 1209.8799,132.5469 Q1210.8174,132.5469 1211.4736,132.2969 Q1211.8643,132.1406 1212.2861,131.7031 Q1212.5518,131.4375 1212.6924,131.3594 Q1212.8486,131.2813 1213.0518,131.2813 Q1213.3799,131.2813 1213.6299,131.5469 Q1213.8955,131.7969 1213.8955,132.1406 Q1213.8955,132.4844 1213.5518,132.8906 Q1213.0518,133.4688 1212.2549,133.7969 Q1211.1768,134.25 1209.8799,134.25 Q1208.3643,134.25 1207.1611,133.625 Q1206.1768,133.125 1205.4893,132.0625 Q1204.8018,130.9844 1204.8018,129.7031 L1204.8018,128.5469 Q1204.8018,127.2188 1205.4111,126.0781 Q1206.0361,124.9219 1207.1299,124.3125 Q1208.2236,123.6875 1209.458,123.6875 Q1210.1924,123.6875 1210.833,123.8594 Q1211.4893,124.0156 1212.0361,124.375 Z " fill="#000000"/><text fill="#000000" font-family="sans-serif" font-size="14" lengthAdjust="spacing" textLength="88.71" x="1229.7705" y="134.2285">TextEditorApp</text><line style="stroke:#181818;stroke-width:0.5;" x1="1156" x2="1359.751" y1="144.5" y2="144.5"/><line style="stroke:#181818;stroke-width:0.5;" x1="1156" x2="1359.751" y1="152.5" y2="152.5"/><ellipse cx="1166" cy="166.8047" fill="#84BE84" rx="3" ry="3" style="stroke:#038048;stroke-width:1;"/><text fill="#000000" font-family="sans-serif" font-size="14" lengthAdjust="spacing" textLength="79.3721" x="1175" y="171.0332">&lt;init&gt;(): Void</text><polygon fill="#4177AF" points="1166,180.4141,1162,186.4141,1170,186.4141" style="stroke:#1963A0;stroke-width:1;"/><text fill="#000000" font-family="sans-serif" font-size="14" lengthAdjust="spacing" text-decoration="underline" textLength="179.751" x="1175" y="188.6426">main(java/lang/String[]): Void</text></g><!--class FilterInputStream--><g id="elem_FilterInputStream"><rect fill="#F1F1F1" height="48" id="FilterInputStream" rx="2.5" ry="2.5" style="stroke:#181818;stroke-width:0.5;" width="139.3721" x="1948.5" y="366"/><ellipse cx="1963.5" cy="382" fill="#ADD1B2" rx="11" ry="11" style="stroke:#181818;stroke-width:1;"/><path d="M1966.2656,377.875 Q1966.4219,377.6563 1966.6094,377.5469 Q1966.7969,377.4375 1967.0156,377.4375 Q1967.3906,377.4375 1967.625,377.7031 Q1967.8594,377.9531 1967.8594,378.5625 L1967.8594,380.0156 Q1967.8594,380.625 1967.625,380.8906 Q1967.3906,381.1563 1967.0156,381.1563 Q1966.6719,381.1563 1966.4688,380.9531 Q1966.2656,380.7656 1966.1563,380.25 Q1966.1094,379.8906 1965.9219,379.7031 Q1965.5938,379.3281 1964.9844,379.1094 Q1964.375,378.8906 1963.75,378.8906 Q1962.9844,378.8906 1962.3438,379.2188 Q1961.7188,379.5469 1961.2188,380.2969 Q1960.7344,381.0469 1960.7344,382.0781 L1960.7344,383.1719 Q1960.7344,384.4063 1961.625,385.2344 Q1962.5156,386.0469 1964.1094,386.0469 Q1965.0469,386.0469 1965.7031,385.7969 Q1966.0938,385.6406 1966.5156,385.2031 Q1966.7813,384.9375 1966.9219,384.8594 Q1967.0781,384.7813 1967.2813,384.7813 Q1967.6094,384.7813 1967.8594,385.0469 Q1968.125,385.2969 1968.125,385.6406 Q1968.125,385.9844 1967.7813,386.3906 Q1967.2813,386.9688 1966.4844,387.2969 Q1965.4063,387.75 1964.1094,387.75 Q1962.5938,387.75 1961.3906,387.125 Q1960.4063,386.625 1959.7188,385.5625 Q1959.0313,384.4844 1959.0313,383.2031 L1959.0313,382.0469 Q1959.0313,380.7188 1959.6406,379.5781 Q1960.2656,378.4219 1961.3594,377.8125 Q1962.4531,377.1875 1963.6875,377.1875 Q1964.4219,377.1875 1965.0625,377.3594 Q1965.7188,377.5156 1966.2656,377.875 Z " fill="#000000"/><text fill="#000000" font-family="sans-serif" font-size="14" lengthAdjust="spacing" textLength="107.3721" x="1977.5" y="387.7285">FilterInputStream</text><line style="stroke:#181818;stroke-width:0.5;" x1="1949.5" x2="2086.8721" y1="398" y2="398"/><line style="stroke:#181818;stroke-width:0.5;" x1="1949.5" x2="2086.8721" y1="406" y2="406"/></g><!--class InputStream--><g id="elem_InputStream"><rect fill="#F1F1F1" height="48" id="InputStream" rx="2.5" ry="2.5" style="stroke:#181818;stroke-width:0.5;" width="108.2617" x="1805" y="366"/><ellipse cx="1820" cy="382" fill="#ADD1B2" rx="11" ry="11" style="stroke:#181818;stroke-width:1;"/><path d="M1822.7656,377.875 Q1822.9219,377.6563 1823.1094,377.5469 Q1823.2969,377.4375 1823.5156,377.4375 Q1823.8906,377.4375 1824.125,377.7031 Q1824.3594,377.9531 1824.3594,378.5625 L1824.3594,380.0156 Q1824.3594,380.625 1824.125,380.8906 Q1823.8906,381.1563 1823.5156,381.1563 Q1823.1719,381.1563 1822.9688,380.9531 Q1822.7656,380.7656 1822.6563,380.25 Q1822.6094,379.8906 1822.4219,379.7031 Q1822.0938,379.3281 1821.4844,379.1094 Q1820.875,378.8906 1820.25,378.8906 Q1819.4844,378.8906 1818.8438,379.2188 Q1818.2188,379.5469 1817.7188,380.2969 Q1817.2344,381.0469 1817.2344,382.0781 L1817.2344,383.1719 Q1817.2344,384.4063 1818.125,385.2344 Q1819.0156,386.0469 1820.6094,386.0469 Q1821.5469,386.0469 1822.2031,385.7969 Q1822.5938,385.6406 1823.0156,385.2031 Q1823.2813,384.9375 1823.4219,384.8594 Q1823.5781,384.7813 1823.7813,384.7813 Q1824.1094,384.7813 1824.3594,385.0469 Q1824.625,385.2969 1824.625,385.6406 Q1824.625,385.9844 1824.2813,386.3906 Q1823.7813,386.9688 1822.9844,387.2969 Q1821.9063,387.75 1820.6094,387.75 Q1819.0938,387.75 1817.8906,387.125 Q1816.9063,386.625 1816.2188,385.5625 Q1815.5313,384.4844 1815.5313,383.2031 L1815.5313,382.0469 Q1815.5313,380.7188 1816.1406,379.5781 Q1816.7656,378.4219 1817.8594,377.8125 Q1818.9531,377.1875 1820.1875,377.1875 Q1820.9219,377.1875 1821.5625,377.3594 Q1822.2188,377.5156 1822.7656,377.875 Z " fill="#000000"/><text fill="#000000" font-family="sans-serif" font-size="14" lengthAdjust="spacing" textLength="76.2617" x="1834" y="387.7285">InputStream</text><line style="stroke:#181818;stroke-width:0.5;" x1="1806" x2="1912.2617" y1="398" y2="398"/><line style="stroke:#181818;stroke-width:0.5;" x1="1806" x2="1912.2617" y1="406" y2="406"/></g><!--class FilterOutputStream--><g id="elem_FilterOutputStream"><rect fill="#F1F1F1" height="48" id="FilterOutputStream" rx="2.5" ry="2.5" style="stroke:#181818;stroke-width:0.5;" width="150.2617" x="1620" y="366"/><ellipse cx="1635" cy="382" fill="#ADD1B2" rx="11" ry="11" style="stroke:#181818;stroke-width:1;"/><path d="M1637.7656,377.875 Q1637.9219,377.6563 1638.1094,377.5469 Q1638.2969,377.4375 1638.5156,377.4375 Q1638.8906,377.4375 1639.125,377.7031 Q1639.3594,377.9531 1639.3594,378.5625 L1639.3594,380.0156 Q1639.3594,380.625 1639.125,380.8906 Q1638.8906,381.1563 1638.5156,381.1563 Q1638.1719,381.1563 1637.9688,380.9531 Q1637.7656,380.7656 1637.6563,380.25 Q1637.6094,379.8906 1637.4219,379.7031 Q1637.0938,379.3281 1636.4844,379.1094 Q1635.875,378.8906 1635.25,378.8906 Q1634.4844,378.8906 1633.8438,379.2188 Q1633.2188,379.5469 1632.7188,380.2969 Q1632.2344,381.0469 1632.2344,382.0781 L1632.2344,383.1719 Q1632.2344,384.4063 1633.125,385.2344 Q1634.0156,386.0469 1635.6094,386.0469 Q1636.5469,386.0469 1637.2031,385.7969 Q1637.5938,385.6406 1638.0156,385.2031 Q1638.2813,384.9375 1638.4219,384.8594 Q1638.5781,384.7813 1638.7813,384.7813 Q1639.1094,384.7813 1639.3594,385.0469 Q1639.625,385.2969 1639.625,385.6406 Q1639.625,385.9844 1639.2813,386.3906 Q1638.7813,386.9688 1637.9844,387.2969 Q1636.9063,387.75 1635.6094,387.75 Q1634.0938,387.75 1632.8906,387.125 Q1631.9063,386.625 1631.2188,385.5625 Q1630.5313,384.4844 1630.5313,383.2031 L1630.5313,382.0469 Q1630.5313,380.7188 1631.1406,379.5781 Q1631.7656,378.4219 1632.8594,377.8125 Q1633.9531,377.1875 1635.1875,377.1875 Q1635.9219,377.1875 1636.5625,377.3594 Q1637.2188,377.5156 1637.7656,377.875 Z " fill="#000000"/><text fill="#000000" font-family="sans-serif" font-size="14" lengthAdjust="spacing" textLength="118.2617" x="1649" y="387.7285">FilterOutputStream</text><line style="stroke:#181818;stroke-width:0.5;" x1="1621" x2="1769.2617" y1="398" y2="398"/><line style="stroke:#181818;stroke-width:0.5;" x1="1621" x2="1769.2617" y1="406" y2="406"/></g><!--class OutputStream--><g id="elem_OutputStream"><rect fill="#F1F1F1" height="48" id="OutputStream" rx="2.5" ry="2.5" style="stroke:#181818;stroke-width:0.5;" width="119.1514" x="1465.5" y="366"/><ellipse cx="1480.5" cy="382" fill="#ADD1B2" rx="11" ry="11" style="stroke:#181818;stroke-width:1;"/><path d="M1483.2656,377.875 Q1483.4219,377.6563 1483.6094,377.5469 Q1483.7969,377.4375 1484.0156,377.4375 Q1484.3906,377.4375 1484.625,377.7031 Q1484.8594,377.9531 1484.8594,378.5625 L1484.8594,380.0156 Q1484.8594,380.625 1484.625,380.8906 Q1484.3906,381.1563 1484.0156,381.1563 Q1483.6719,381.1563 1483.4688,380.9531 Q1483.2656,380.7656 1483.1563,380.25 Q1483.1094,379.8906 1482.9219,379.7031 Q1482.5938,379.3281 1481.9844,379.1094 Q1481.375,378.8906 1480.75,378.8906 Q1479.9844,378.8906 1479.3438,379.2188 Q1478.7188,379.5469 1478.2188,380.2969 Q1477.7344,381.0469 1477.7344,382.0781 L1477.7344,383.1719 Q1477.7344,384.4063 1478.625,385.2344 Q1479.5156,386.0469 1481.1094,386.0469 Q1482.0469,386.0469 1482.7031,385.7969 Q1483.0938,385.6406 1483.5156,385.2031 Q1483.7813,384.9375 1483.9219,384.8594 Q1484.0781,384.7813 1484.2813,384.7813 Q1484.6094,384.7813 1484.8594,385.0469 Q1485.125,385.2969 1485.125,385.6406 Q1485.125,385.9844 1484.7813,386.3906 Q1484.2813,386.9688 1483.4844,387.2969 Q1482.4063,387.75 1481.1094,387.75 Q1479.5938,387.75 1478.3906,387.125 Q1477.4063,386.625 1476.7188,385.5625 Q1476.0313,384.4844 1476.0313,383.2031 L1476.0313,382.0469 Q1476.0313,380.7188 1476.6406,379.5781 Q1477.2656,378.4219 1478.3594,377.8125 Q1479.4531,377.1875 1480.6875,377.1875 Q1481.4219,377.1875 1482.0625,377.3594 Q1482.7188,377.5156 1483.2656,377.875 Z " fill="#000000"/><text fill="#000000" font-family="sans-serif" font-size="14" lengthAdjust="spacing" textLength="87.1514" x="1494.5" y="387.7285">OutputStream</text><line style="stroke:#181818;stroke-width:0.5;" x1="1466.5" x2="1583.6514" y1="398" y2="398"/><line style="stroke:#181818;stroke-width:0.5;" x1="1466.5" x2="1583.6514" y1="406" y2="406"/></g><!--class String--><g id="elem_String"><rect fill="#F1F1F1" height="48" id="String" rx="2.5" ry="2.5" style="stroke:#181818;stroke-width:0.5;" width="68.5723" x="2144.5" y="366"/><ellipse cx="2159.5" cy="382" fill="#ADD1B2" rx="11" ry="11" style="stroke:#181818;stroke-width:1;"/><path d="M2162.2656,377.875 Q2162.4219,377.6563 2162.6094,377.5469 Q2162.7969,377.4375 2163.0156,377.4375 Q2163.3906,377.4375 2163.625,377.7031 Q2163.8594,377.9531 2163.8594,378.5625 L2163.8594,380.0156 Q2163.8594,380.625 2163.625,380.8906 Q2163.3906,381.1563 2163.0156,381.1563 Q2162.6719,381.1563 2162.4688,380.9531 Q2162.2656,380.7656 2162.1563,380.25 Q2162.1094,379.8906 2161.9219,379.7031 Q2161.5938,379.3281 2160.9844,379.1094 Q2160.375,378.8906 2159.75,378.8906 Q2158.9844,378.8906 2158.3438,379.2188 Q2157.7188,379.5469 2157.2188,380.2969 Q2156.7344,381.0469 2156.7344,382.0781 L2156.7344,383.1719 Q2156.7344,384.4063 2157.625,385.2344 Q2158.5156,386.0469 2160.1094,386.0469 Q2161.0469,386.0469 2161.7031,385.7969 Q2162.0938,385.6406 2162.5156,385.2031 Q2162.7813,384.9375 2162.9219,384.8594 Q2163.0781,384.7813 2163.2813,384.7813 Q2163.6094,384.7813 2163.8594,385.0469 Q2164.125,385.2969 2164.125,385.6406 Q2164.125,385.9844 2163.7813,386.3906 Q2163.2813,386.9688 2162.4844,387.2969 Q2161.4063,387.75 2160.1094,387.75 Q2158.5938,387.75 2157.3906,387.125 Q2156.4063,386.625 2155.7188,385.5625 Q2155.0313,384.4844 2155.0313,383.2031 L2155.0313,382.0469 Q2155.0313,380.7188 2155.6406,379.5781 Q2156.2656,378.4219 2157.3594,377.8125 Q2158.4531,377.1875 2159.6875,377.1875 Q2160.4219,377.1875 2161.0625,377.3594 Q2161.7188,377.5156 2162.2656,377.875 Z " fill="#000000"/><text fill="#000000" font-family="sans-serif" font-size="14" lengthAdjust="spacing" textLength="36.5723" x="2173.5" y="387.7285">String</text><line style="stroke:#181818;stroke-width:0.5;" x1="2145.5" x2="2212.0723" y1="398" y2="398"/><line style="stroke:#181818;stroke-width:0.5;" x1="2145.5" x2="2212.0723" y1="406" y2="406"/></g><!--link DecryptionInputStream to FilterInputStream--><g id="link_DecryptionInputStream_FilterInputStream"><path codeLine="7" d="M1061.59,204.55 C1086.89,211.35 1113.03,217.52 1138,222 C1311.88,253.2 1774.98,195.13 1931,278 C1967.54,297.41 1985.5092,323.5672 1999.1092,349.9772 " fill="transparent" id="DecryptionInputStream-to-FilterInputStream" style="stroke:#181818;stroke-width:1;"/><polygon fill="transparent" points="2007.35,365.98,2004.4435,347.2303,1993.775,352.7241,2007.35,365.98" style="stroke:#181818;stroke-width:1;"/></g><!--link DecryptionInputStream to InputStream--><g id="link_DecryptionInputStream_InputStream"><path codeLine="8" d="M1065.84,204.52 C1089.85,211.04 1114.47,217.14 1138,222 C1244.57,244.02 1273.57,234.65 1381,252 C1421.27,258.5 1430.46,265.47 1471,270 C1488.51,271.96 1772.66,269.35 1788,278 C1821.67,296.99 1839.7505,333.6519 1849.5605,360.2019 " fill="transparent" id="DecryptionInputStream-to-InputStream" style="stroke:#181818;stroke-width:1;"/><polygon fill="#181818" points="1851.64,365.83,1852.2728,356.0015,1849.9071,361.1399,1844.7686,358.7742,1851.64,365.83" style="stroke:#181818;stroke-width:1;"/></g><!--link DecryptionInputStream to IDecryption--><g id="link_DecryptionInputStream_IDecryption"><path codeLine="9" d="M892.96,204.69 C891.09,225.01 889.77,248.7 887,270 C883.13,299.78 876.3197,327.1796 873.2397,350.9896 " fill="transparent" id="DecryptionInputStream-to-IDecryption" style="stroke:#181818;stroke-width:1;"/><polygon fill="#181818" points="872.47,356.94,877.5915,348.5275,873.1114,351.9813,869.6576,347.5012,872.47,356.94" style="stroke:#181818;stroke-width:1;"/></g><!--link DecryptionInputStream to IDecryption--><g id="link_DecryptionInputStream_IDecryption"><path codeLine="10" d="M925.37,204.69 C926.09,225.01 924.77,248.7 922,270 C918.13,299.78 912.6818,327.5215 903.6318,351.3315 " fill="transparent" id="DecryptionInputStream-to-IDecryption-1" style="stroke:#181818;stroke-width:1;"/><polygon fill="#181818" points="901.5,356.94,908.4367,349.9484,903.2765,352.2662,900.9586,347.106,901.5,356.94" style="stroke:#181818;stroke-width:1;"/></g><!--link DecryptionInputStream to IDecryption--><g id="link_DecryptionInputStream_IDecryption"><path codeLine="11" d="M864.92,204.62 C854.75,218.95 845.34,235.27 840,252 C828.62,287.62 841.2576,323.7337 855.7276,351.6337 " fill="transparent" id="DecryptionInputStream-to-IDecryption-2" style="stroke:#181818;stroke-width:1;"/><polygon fill="#181818" points="858.49,356.96,857.8972,347.129,856.188,352.5214,850.7955,350.8122,858.49,356.96" style="stroke:#181818;stroke-width:1;"/><text fill="#000000" font-family="sans-serif" font-size="13" lengthAdjust="spacing" textLength="54.1899" x="841" y="266.4951">decryptor</text></g><!--link EncryptionOutputStream to FilterOutputStream--><g id="link_EncryptionOutputStream_FilterOutputStream"><path codeLine="17" d="M569.07,195.56 C604.77,205.89 644.12,215.81 681,222 C925.93,263.11 991.69,229.26 1239,252 C1300.59,257.66 1315.36,264.9 1377,270 C1401.93,272.06 1579.52,267.02 1602,278 C1640.17,296.65 1659.7369,323.316 1674.5569,349.986 " fill="transparent" id="EncryptionOutputStream-to-FilterOutputStream" style="stroke:#181818;stroke-width:1;"/><polygon fill="transparent" points="1683.3,365.72,1679.8016,347.0716,1669.3123,352.9004,1683.3,365.72" style="stroke:#181818;stroke-width:1;"/></g><!--link EncryptionOutputStream to OutputStream--><g id="link_EncryptionOutputStream_OutputStream"><path codeLine="18" d="M571.3,195.55 C606.44,205.65 644.93,215.45 681,222 C719.17,228.93 1340.72,264.27 1377,278 C1427.76,297.22 1471.721,335.2341 1498.651,361.7041 " fill="transparent" id="EncryptionOutputStream-to-OutputStream" style="stroke:#181818;stroke-width:1;"/><polygon fill="#181818" points="1502.93,365.91,1499.3154,356.7484,1499.3641,362.4051,1493.7075,362.4538,1502.93,365.91" style="stroke:#181818;stroke-width:1;"/></g><!--link EncryptionOutputStream to IEncryption--><g id="link_EncryptionOutputStream_IEncryption"><path codeLine="19" d="M431.86,195.59 C429.47,217.68 428.19,245.43 425,270 C421.13,299.78 414.3197,327.1796 411.2397,350.9896 " fill="transparent" id="EncryptionOutputStream-to-IEncryption" style="stroke:#181818;stroke-width:1;"/><polygon fill="#181818" points="410.47,356.94,415.5915,348.5275,411.1114,351.9813,407.6576,347.5012,410.47,356.94" style="stroke:#181818;stroke-width:1;"/></g><!--link EncryptionOutputStream to IEncryption--><g id="link_EncryptionOutputStream_IEncryption"><path codeLine="20" d="M462.89,195.59 C464.47,217.68 463.19,245.43 460,270 C456.13,299.78 450.6818,327.5215 441.6318,351.3315 " fill="transparent" id="EncryptionOutputStream-to-IEncryption-1" style="stroke:#181818;stroke-width:1;"/><polygon fill="#181818" points="439.5,356.94,446.4367,349.9484,441.2765,352.2662,438.9586,347.106,439.5,356.94" style="stroke:#181818;stroke-width:1;"/></g><!--link EncryptionOutputStream to IEncryption--><g id="link_EncryptionOutputStream_IEncryption"><path codeLine="21" d="M409.46,195.8 C396.91,212.06 384.48,231.72 378,252 C366.62,287.62 379.2576,323.7337 393.7276,351.6337 " fill="transparent" id="EncryptionOutputStream-to-IEncryption-2" style="stroke:#181818;stroke-width:1;"/><polygon fill="#181818" points="396.49,356.96,395.8972,347.129,394.188,352.5214,388.7955,350.8122,396.49,356.96" style="stroke:#181818;stroke-width:1;"/><text fill="#000000" font-family="sans-serif" font-size="13" lengthAdjust="spacing" textLength="54.1899" x="379" y="266.4951">encryptor</text></g><!--link SubstitutionCipher to IEncryption--><g id="link_SubstitutionCipher_IEncryption"><path codeLine="38" d="M177.34,222.12 C192.65,238.64 209.78,255.67 227,270 C267.24,303.48 301.9746,325.8043 340.5846,347.8843 " fill="transparent" id="SubstitutionCipher-to-IEncryption" style="stroke:#181818;stroke-width:1;stroke-dasharray:7.0,7.0;"/><polygon fill="transparent" points="356.21,356.82,343.5632,342.6758,337.606,353.0927,356.21,356.82" style="stroke:#181818;stroke-width:1;"/></g><!--link SubstitutionCipher to IDecryption--><g id="link_SubstitutionCipher_IDecryption"><path codeLine="39" d="M196.07,212.6 C201.68,215.98 207.35,219.16 213,222 C277.05,254.2 296.46,257.22 367,270 C429.2,281.27 446.75,267.04 509,278 C613.1,296.32 712.3149,328.2385 785.9949,354.6385 " fill="transparent" id="SubstitutionCipher-to-IDecryption" style="stroke:#181818;stroke-width:1;stroke-dasharray:7.0,7.0;"/><polygon fill="transparent" points="802.94,360.71,788.0187,348.9901,783.9711,360.2868,802.94,360.71" style="stroke:#181818;stroke-width:1;"/></g><!--link TextEditorApp to String--><g id="link_TextEditorApp_String"><path codeLine="45" d="M1361.37,159.68 C1559.09,170.29 1982.06,201.47 2104,278 C2136.9,298.65 2156.4058,334.084 2167.6558,360.064 " fill="transparent" id="TextEditorApp-to-String" style="stroke:#181818;stroke-width:1;"/><polygon fill="#181818" points="2170.04,365.57,2170.1343,355.7216,2168.0532,360.9817,2162.793,358.9005,2170.04,365.57" style="stroke:#181818;stroke-width:1;"/></g><!--SRC=[pPInRi8m48RtF8N7L82pemgffLH27Jg0kY06Dxd2LU2apgKj0lhijGb9J4YYmCJYoBwxJsV__yLVYJXceLfm1Ly9n0J1LA_y2NorYGX3EPPHGXDI8DPiwx3EFKgaWVifleM7eMU5kuRZdN2ySG6wwxEt40EDqCc1gxTZITdkSKCmctVDqM4vHlTEozPwlTt0jCGnvC-u8b1Mi3qaPrnNVPvftV_MEApFWdGJAiVnQummabd-QqADJh3ZbLOeK8KLVXGIkAdWXwCgnQjxE9VSZbw0oIdNrbSySv5xUo0jFCXSU9JwvJw43wpPBLhnhNYFIGcVzkplQ1rtk1HAQsS-MhjccjL2YNRifqohC-KaqQL8YK4DCLg2Ca38yI-mII6pkPEPl7oSsRVmObKJh5DzqJOzSRwxMD7M5Ej_KFjCK_YbKO1QveSeiaSsl_Cs9a7eQmNM0cKwoYiX5vvs4ih5RDuqbYVuR8nCDK-hdNy0]--></g></svg>