<svg xmlns="http://www.w3.org/2000/svg" xmlns:xlink="http://www.w3.org/1999/xlink" contentStyleType="text/css" data-diagram-type="CLASS" height="1554px" preserveAspectRatio="none" style="width:1475px;height:1554px;background:#FFFFFF;" version="1.1" viewBox="0 0 1475 1554" width="1475px" zoomAndPan="magnify"><defs/><g><!--cluster org--><g id="cluster_org"><path d="M8.5,6 L32.0518,6 A3.75,3.75 0 0 1 34.5518,8.5 L41.5518,29.6094 L888.5,29.6094 A2.5,2.5 0 0 1 891,32.1094 L891,530 A2.5,2.5 0 0 1 888.5,532.5 L8.5,532.5 A2.5,2.5 0 0 1 6,530 L6,8.5 A2.5,2.5 0 0 1 8.5,6 " fill="transparent" style="stroke:#000000;stroke-width:1.5;"/><line style="stroke:#000000;stroke-width:1.5;" x1="6" x2="41.5518" y1="29.6094" y2="29.6094"/><text fill="#000000" font-family="sans-serif" font-size="14" font-weight="bold" lengthAdjust="spacing" textLength="22.5518" x="10" y="22.5332">org</text></g><!--cluster requestedTest--><g id="cluster_requestedTest"><path d="M32.5,50 L129.1963,50 A3.75,3.75 0 0 1 131.6963,52.5 L138.6963,73.6094 L864.5,73.6094 A2.5,2.5 0 0 1 867,76.1094 L867,506 A2.5,2.5 0 0 1 864.5,508.5 L32.5,508.5 A2.5,2.5 0 0 1 30,506 L30,52.5 A2.5,2.5 0 0 1 32.5,50 " fill="transparent" style="stroke:#000000;stroke-width:1.5;"/><line style="stroke:#000000;stroke-width:1.5;" x1="30" x2="138.6963" y1="73.6094" y2="73.6094"/><text fill="#000000" font-family="sans-serif" font-size="14" font-weight="bold" lengthAdjust="spacing" textLength="95.6963" x="34" y="66.5332">requestedTest</text></g><!--cluster java--><g id="cluster_java"><path d="M917.5,268 L945.748,268 A3.75,3.75 0 0 1 948.248,270.5 L955.248,291.6094 L1465.5,291.6094 A2.5,2.5 0 0 1 1468,294.1094 L1468,1544.5 A2.5,2.5 0 0 1 1465.5,1547 L917.5,1547 A2.5,2.5 0 0 1 915,1544.5 L915,270.5 A2.5,2.5 0 0 1 917.5,268 " fill="transparent" style="stroke:#000000;stroke-width:1.5;"/><line style="stroke:#000000;stroke-width:1.5;" x1="915" x2="955.248" y1="291.6094" y2="291.6094"/><text fill="#000000" font-family="sans-serif" font-size="14" font-weight="bold" lengthAdjust="spacing" textLength="27.248" x="919" y="284.5332">java</text></g><!--cluster io--><g id="cluster_io"><path d="M941.5,312 L954.9414,312 A3.75,3.75 0 0 1 957.4414,314.5 L964.4414,335.6094 L1441.5,335.6094 A2.5,2.5 0 0 1 1444,338.1094 L1444,1369.5 A2.5,2.5 0 0 1 1441.5,1372 L941.5,1372 A2.5,2.5 0 0 1 939,1369.5 L939,314.5 A2.5,2.5 0 0 1 941.5,312 " fill="transparent" style="stroke:#000000;stroke-width:1.5;"/><line style="stroke:#000000;stroke-width:1.5;" x1="939" x2="964.4414" y1="335.6094" y2="335.6094"/><text fill="#000000" font-family="sans-serif" font-size="14" font-weight="bold" lengthAdjust="spacing" textLength="12.4414" x="943" y="328.5332">io</text></g><!--cluster lang--><g id="cluster_lang"><path d="M1036.5,1405 L1066.2793,1405 A3.75,3.75 0 0 1 1068.7793,1407.5 L1075.7793,1428.6094 L1187.5,1428.6094 A2.5,2.5 0 0 1 1190,1431.1094 L1190,1520.5 A2.5,2.5 0 0 1 1187.5,1523 L1036.5,1523 A2.5,2.5 0 0 1 1034,1520.5 L1034,1407.5 A2.5,2.5 0 0 1 1036.5,1405 " fill="transparent" style="stroke:#000000;stroke-width:1.5;"/><line style="stroke:#000000;stroke-width:1.5;" x1="1034" x2="1075.7793" y1="1428.6094" y2="1428.6094"/><text fill="#000000" font-family="sans-serif" font-size="14" font-weight="bold" lengthAdjust="spacing" textLength="28.7793" x="1038" y="1421.5332">lang</text></g><!--class DecryptionInputStream--><g id="elem_DecryptionInputStream"><rect codeLine="2" fill="#F1F1F1" height="83.2188" id="DecryptionInputStream" rx="2.5" ry="2.5" style="stroke:#181818;stroke-width:0.5;" width="175.1787" x="455.5" y="103.5"/><ellipse cx="470.5" cy="119.5" fill="#ADD1B2" rx="11" ry="11" style="stroke:#181818;stroke-width:1;"/><path d="M473.2656,115.375 Q473.4219,115.1563 473.6094,115.0469 Q473.7969,114.9375 474.0156,114.9375 Q474.3906,114.9375 474.625,115.2031 Q474.8594,115.4531 474.8594,116.0625 L474.8594,117.5156 Q474.8594,118.125 474.625,118.3906 Q474.3906,118.6563 474.0156,118.6563 Q473.6719,118.6563 473.4688,118.4531 Q473.2656,118.2656 473.1563,117.75 Q473.1094,117.3906 472.9219,117.2031 Q472.5938,116.8281 471.9844,116.6094 Q471.375,116.3906 470.75,116.3906 Q469.9844,116.3906 469.3438,116.7188 Q468.7188,117.0469 468.2188,117.7969 Q467.7344,118.5469 467.7344,119.5781 L467.7344,120.6719 Q467.7344,121.9063 468.625,122.7344 Q469.5156,123.5469 471.1094,123.5469 Q472.0469,123.5469 472.7031,123.2969 Q473.0938,123.1406 473.5156,122.7031 Q473.7813,122.4375 473.9219,122.3594 Q474.0781,122.2813 474.2813,122.2813 Q474.6094,122.2813 474.8594,122.5469 Q475.125,122.7969 475.125,123.1406 Q475.125,123.4844 474.7813,123.8906 Q474.2813,124.4688 473.4844,124.7969 Q472.4063,125.25 471.1094,125.25 Q469.5938,125.25 468.3906,124.625 Q467.4063,124.125 466.7188,123.0625 Q466.0313,121.9844 466.0313,120.7031 L466.0313,119.5469 Q466.0313,118.2188 466.6406,117.0781 Q467.2656,115.9219 468.3594,115.3125 Q469.4531,114.6875 470.6875,114.6875 Q471.4219,114.6875 472.0625,114.8594 Q472.7188,115.0156 473.2656,115.375 Z " fill="#000000"/><text fill="#000000" font-family="sans-serif" font-size="14" lengthAdjust="spacing" textLength="143.1787" x="484.5" y="125.2285">DecryptionInputStream</text><line style="stroke:#181818;stroke-width:0.5;" x1="456.5" x2="629.6787" y1="135.5" y2="135.5"/><line style="stroke:#181818;stroke-width:0.5;" x1="456.5" x2="629.6787" y1="143.5" y2="143.5"/><text fill="#000000" font-family="sans-serif" font-size="14" lengthAdjust="spacing" textLength="60.6895" x="461.5" y="162.0332">read(): Int</text><text fill="#000000" font-family="sans-serif" font-size="14" lengthAdjust="spacing" textLength="143.1719" x="461.5" y="179.6426">read(Byte[], Int, Int): Int</text></g><!--class IDecryption--><g id="elem_IDecryption"><rect codeLine="66" fill="#F1F1F1" height="83.2188" id="IDecryption" rx="2.5" ry="2.5" style="stroke:#181818;stroke-width:0.5;" width="135.7031" x="319" y="409.5"/><ellipse cx="348.8034" cy="425.5" fill="#B4A7E5" rx="11" ry="11" style="stroke:#181818;stroke-width:1;"/><path d="M349.7565,422.1406 L349.7565,428.7969 L351.4753,428.7969 Q352.0847,428.7969 352.3503,429.0313 Q352.6159,429.2656 352.6159,429.6563 Q352.6159,430.0313 352.3503,430.2656 Q352.0847,430.5 351.4753,430.5 L346.3347,430.5 Q345.7253,430.5 345.4597,430.2656 Q345.194,430.0313 345.194,429.6406 Q345.194,429.2656 345.4597,429.0313 Q345.7253,428.7969 346.3347,428.7969 L348.0534,428.7969 L348.0534,422.1406 L346.3347,422.1406 Q345.7253,422.1406 345.4597,421.9063 Q345.194,421.6719 345.194,421.2813 Q345.194,420.9063 345.4597,420.6719 Q345.7253,420.4375 346.3347,420.4375 L351.4753,420.4375 Q352.0847,420.4375 352.3503,420.6719 Q352.6159,420.9063 352.6159,421.2813 Q352.6159,421.6719 352.3503,421.9063 Q352.0847,422.1406 351.4753,422.1406 L349.7565,422.1406 Z " fill="#000000"/><text fill="#000000" font-family="sans-serif" font-size="14" font-style="italic" lengthAdjust="spacing" textLength="70.8066" x="366.0931" y="431.2285">IDecryption</text><line style="stroke:#181818;stroke-width:0.5;" x1="320" x2="453.7031" y1="441.5" y2="441.5"/><line style="stroke:#181818;stroke-width:0.5;" x1="320" x2="453.7031" y1="449.5" y2="449.5"/><text fill="#000000" font-family="sans-serif" font-size="14" lengthAdjust="spacing" textLength="123.7031" x="325" y="468.0332">decrypt(Char): Char</text><text fill="#000000" font-family="sans-serif" font-size="14" lengthAdjust="spacing" textLength="123.7031" x="325" y="485.6426">decrypt(Char): Char</text></g><!--class EncryptionOutputStream--><g id="elem_EncryptionOutputStream"><rect codeLine="9" fill="#F1F1F1" height="65.6094" id="EncryptionOutputStream" rx="2.5" ry="2.5" style="stroke:#181818;stroke-width:0.5;" width="185.2959" x="665.5" y="112"/><ellipse cx="680.5" cy="128" fill="#ADD1B2" rx="11" ry="11" style="stroke:#181818;stroke-width:1;"/><path d="M683.2656,123.875 Q683.4219,123.6563 683.6094,123.5469 Q683.7969,123.4375 684.0156,123.4375 Q684.3906,123.4375 684.625,123.7031 Q684.8594,123.9531 684.8594,124.5625 L684.8594,126.0156 Q684.8594,126.625 684.625,126.8906 Q684.3906,127.1563 684.0156,127.1563 Q683.6719,127.1563 683.4688,126.9531 Q683.2656,126.7656 683.1563,126.25 Q683.1094,125.8906 682.9219,125.7031 Q682.5938,125.3281 681.9844,125.1094 Q681.375,124.8906 680.75,124.8906 Q679.9844,124.8906 679.3438,125.2188 Q678.7188,125.5469 678.2188,126.2969 Q677.7344,127.0469 677.7344,128.0781 L677.7344,129.1719 Q677.7344,130.4063 678.625,131.2344 Q679.5156,132.0469 681.1094,132.0469 Q682.0469,132.0469 682.7031,131.7969 Q683.0938,131.6406 683.5156,131.2031 Q683.7813,130.9375 683.9219,130.8594 Q684.0781,130.7813 684.2813,130.7813 Q684.6094,130.7813 684.8594,131.0469 Q685.125,131.2969 685.125,131.6406 Q685.125,131.9844 684.7813,132.3906 Q684.2813,132.9688 683.4844,133.2969 Q682.4063,133.75 681.1094,133.75 Q679.5938,133.75 678.3906,133.125 Q677.4063,132.625 676.7188,131.5625 Q676.0313,130.4844 676.0313,129.2031 L676.0313,128.0469 Q676.0313,126.7188 676.6406,125.5781 Q677.2656,124.4219 678.3594,123.8125 Q679.4531,123.1875 680.6875,123.1875 Q681.4219,123.1875 682.0625,123.3594 Q682.7188,123.5156 683.2656,123.875 Z " fill="#000000"/><text fill="#000000" font-family="sans-serif" font-size="14" lengthAdjust="spacing" textLength="153.2959" x="694.5" y="133.7285">EncryptionOutputStream</text><line style="stroke:#181818;stroke-width:0.5;" x1="666.5" x2="849.7959" y1="144" y2="144"/><line style="stroke:#181818;stroke-width:0.5;" x1="666.5" x2="849.7959" y1="152" y2="152"/><text fill="#000000" font-family="sans-serif" font-size="14" lengthAdjust="spacing" textLength="90.248" x="671.5" y="170.5332">write(Int): Void</text></g><!--class IEncryption--><g id="elem_IEncryption"><rect codeLine="62" fill="#F1F1F1" height="83.2188" id="IEncryption" rx="2.5" ry="2.5" style="stroke:#181818;stroke-width:0.5;" width="135.7031" x="554" y="409.5"/><ellipse cx="584.151" cy="425.5" fill="#B4A7E5" rx="11" ry="11" style="stroke:#181818;stroke-width:1;"/><path d="M585.1042,422.1406 L585.1042,428.7969 L586.8229,428.7969 Q587.4323,428.7969 587.6979,429.0313 Q587.9635,429.2656 587.9635,429.6563 Q587.9635,430.0313 587.6979,430.2656 Q587.4323,430.5 586.8229,430.5 L581.6823,430.5 Q581.0729,430.5 580.8073,430.2656 Q580.5417,430.0313 580.5417,429.6406 Q580.5417,429.2656 580.8073,429.0313 Q581.0729,428.7969 581.6823,428.7969 L583.401,428.7969 L583.401,422.1406 L581.6823,422.1406 Q581.0729,422.1406 580.8073,421.9063 Q580.5417,421.6719 580.5417,421.2813 Q580.5417,420.9063 580.8073,420.6719 Q581.0729,420.4375 581.6823,420.4375 L586.8229,420.4375 Q587.4323,420.4375 587.6979,420.6719 Q587.9635,420.9063 587.9635,421.2813 Q587.9635,421.6719 587.6979,421.9063 Q587.4323,422.1406 586.8229,422.1406 L585.1042,422.1406 Z " fill="#000000"/><text fill="#000000" font-family="sans-serif" font-size="14" font-style="italic" lengthAdjust="spacing" textLength="70.0342" x="601.5179" y="431.2285">IEncryption</text><line style="stroke:#181818;stroke-width:0.5;" x1="555" x2="688.7031" y1="441.5" y2="441.5"/><line style="stroke:#181818;stroke-width:0.5;" x1="555" x2="688.7031" y1="449.5" y2="449.5"/><text fill="#000000" font-family="sans-serif" font-size="14" lengthAdjust="spacing" textLength="123.7031" x="560" y="468.0332">encrypt(Char): Char</text><text fill="#000000" font-family="sans-serif" font-size="14" lengthAdjust="spacing" textLength="123.7031" x="560" y="485.6426">encrypt(Char): Char</text></g><!--class SubstitutionCipher--><g id="elem_SubstitutionCipher"><rect codeLine="23" fill="#F1F1F1" height="118.4375" id="SubstitutionCipher" rx="2.5" ry="2.5" style="stroke:#181818;stroke-width:0.5;" width="146.6201" x="273.5" y="86"/><ellipse cx="288.5993" cy="102" fill="#ADD1B2" rx="11" ry="11" style="stroke:#181818;stroke-width:1;"/><path d="M291.3649,97.875 Q291.5212,97.6563 291.7087,97.5469 Q291.8962,97.4375 292.1149,97.4375 Q292.4899,97.4375 292.7243,97.7031 Q292.9587,97.9531 292.9587,98.5625 L292.9587,100.0156 Q292.9587,100.625 292.7243,100.8906 Q292.4899,101.1563 292.1149,101.1563 Q291.7712,101.1563 291.5681,100.9531 Q291.3649,100.7656 291.2556,100.25 Q291.2087,99.8906 291.0212,99.7031 Q290.6931,99.3281 290.0837,99.1094 Q289.4743,98.8906 288.8493,98.8906 Q288.0837,98.8906 287.4431,99.2188 Q286.8181,99.5469 286.3181,100.2969 Q285.8337,101.0469 285.8337,102.0781 L285.8337,103.1719 Q285.8337,104.4063 286.7243,105.2344 Q287.6149,106.0469 289.2087,106.0469 Q290.1462,106.0469 290.8024,105.7969 Q291.1931,105.6406 291.6149,105.2031 Q291.8806,104.9375 292.0212,104.8594 Q292.1774,104.7813 292.3806,104.7813 Q292.7087,104.7813 292.9587,105.0469 Q293.2243,105.2969 293.2243,105.6406 Q293.2243,105.9844 292.8806,106.3906 Q292.3806,106.9688 291.5837,107.2969 Q290.5056,107.75 289.2087,107.75 Q287.6931,107.75 286.4899,107.125 Q285.5056,106.625 284.8181,105.5625 Q284.1306,104.4844 284.1306,103.2031 L284.1306,102.0469 Q284.1306,100.7188 284.7399,99.5781 Q285.3649,98.4219 286.4587,97.8125 Q287.5524,97.1875 288.7868,97.1875 Q289.5212,97.1875 290.1618,97.3594 Q290.8181,97.5156 291.3649,97.875 Z " fill="#000000"/><text fill="#000000" font-family="sans-serif" font-size="14" lengthAdjust="spacing" textLength="114.3994" x="302.6214" y="107.7285">SubstitutionCipher</text><line style="stroke:#181818;stroke-width:0.5;" x1="274.5" x2="419.1201" y1="118" y2="118"/><text fill="#000000" font-family="sans-serif" font-size="14" lengthAdjust="spacing" textLength="134.6201" x="279.5" y="136.5332">encryptionKey: Char[]</text><text fill="#000000" font-family="sans-serif" font-size="14" lengthAdjust="spacing" textLength="134.6201" x="279.5" y="154.1426">decryptionKey: Char[]</text><line style="stroke:#181818;stroke-width:0.5;" x1="274.5" x2="419.1201" y1="161.2188" y2="161.2188"/><text fill="#000000" font-family="sans-serif" font-size="14" lengthAdjust="spacing" textLength="123.7031" x="279.5" y="179.752">encrypt(Char): Char</text><text fill="#000000" font-family="sans-serif" font-size="14" lengthAdjust="spacing" textLength="123.7031" x="279.5" y="197.3613">decrypt(Char): Char</text></g><!--class TextEditorApp--><g id="elem_TextEditorApp"><rect codeLine="32" fill="#F1F1F1" height="65.6094" id="TextEditorApp" rx="2.5" ry="2.5" style="stroke:#181818;stroke-width:0.5;" width="191.751" x="46" y="112"/><ellipse cx="93.2705" cy="128" fill="#ADD1B2" rx="11" ry="11" style="stroke:#181818;stroke-width:1;"/><path d="M96.0361,123.875 Q96.1924,123.6563 96.3799,123.5469 Q96.5674,123.4375 96.7861,123.4375 Q97.1611,123.4375 97.3955,123.7031 Q97.6299,123.9531 97.6299,124.5625 L97.6299,126.0156 Q97.6299,126.625 97.3955,126.8906 Q97.1611,127.1563 96.7861,127.1563 Q96.4424,127.1563 96.2393,126.9531 Q96.0361,126.7656 95.9268,126.25 Q95.8799,125.8906 95.6924,125.7031 Q95.3643,125.3281 94.7549,125.1094 Q94.1455,124.8906 93.5205,124.8906 Q92.7549,124.8906 92.1143,125.2188 Q91.4893,125.5469 90.9893,126.2969 Q90.5049,127.0469 90.5049,128.0781 L90.5049,129.1719 Q90.5049,130.4063 91.3955,131.2344 Q92.2861,132.0469 93.8799,132.0469 Q94.8174,132.0469 95.4736,131.7969 Q95.8643,131.6406 96.2861,131.2031 Q96.5518,130.9375 96.6924,130.8594 Q96.8486,130.7813 97.0518,130.7813 Q97.3799,130.7813 97.6299,131.0469 Q97.8955,131.2969 97.8955,131.6406 Q97.8955,131.9844 97.5518,132.3906 Q97.0518,132.9688 96.2549,133.2969 Q95.1768,133.75 93.8799,133.75 Q92.3643,133.75 91.1611,133.125 Q90.1768,132.625 89.4893,131.5625 Q88.8018,130.4844 88.8018,129.2031 L88.8018,128.0469 Q88.8018,126.7188 89.4111,125.5781 Q90.0361,124.4219 91.1299,123.8125 Q92.2236,123.1875 93.458,123.1875 Q94.1924,123.1875 94.833,123.3594 Q95.4893,123.5156 96.0361,123.875 Z " fill="#000000"/><text fill="#000000" font-family="sans-serif" font-size="14" lengthAdjust="spacing" textLength="88.71" x="113.7705" y="133.7285">TextEditorApp</text><line style="stroke:#181818;stroke-width:0.5;" x1="47" x2="236.751" y1="144" y2="144"/><line style="stroke:#181818;stroke-width:0.5;" x1="47" x2="236.751" y1="152" y2="152"/><text fill="#000000" font-family="sans-serif" font-size="14" lengthAdjust="spacing" textLength="179.751" x="52" y="170.5332">main(java/lang/String[]): Void</text></g><!--class FilterInputStream--><g id="elem_FilterInputStream"><rect codeLine="36" fill="#F1F1F1" height="206.4844" id="FilterInputStream" rx="2.5" ry="2.5" style="stroke:#181818;stroke-width:0.5;" width="176.1992" x="955" y="348"/><ellipse cx="986.5722" cy="364" fill="#ADD1B2" rx="11" ry="11" style="stroke:#181818;stroke-width:1;"/><path d="M989.3378,359.875 Q989.4941,359.6563 989.6816,359.5469 Q989.8691,359.4375 990.0878,359.4375 Q990.4628,359.4375 990.6972,359.7031 Q990.9316,359.9531 990.9316,360.5625 L990.9316,362.0156 Q990.9316,362.625 990.6972,362.8906 Q990.4628,363.1563 990.0878,363.1563 Q989.7441,363.1563 989.541,362.9531 Q989.3378,362.7656 989.2285,362.25 Q989.1816,361.8906 988.9941,361.7031 Q988.666,361.3281 988.0566,361.1094 Q987.4472,360.8906 986.8222,360.8906 Q986.0566,360.8906 985.416,361.2188 Q984.791,361.5469 984.291,362.2969 Q983.8066,363.0469 983.8066,364.0781 L983.8066,365.1719 Q983.8066,366.4063 984.6972,367.2344 Q985.5878,368.0469 987.1816,368.0469 Q988.1191,368.0469 988.7753,367.7969 Q989.166,367.6406 989.5878,367.2031 Q989.8535,366.9375 989.9941,366.8594 Q990.1503,366.7813 990.3535,366.7813 Q990.6816,366.7813 990.9316,367.0469 Q991.1972,367.2969 991.1972,367.6406 Q991.1972,367.9844 990.8535,368.3906 Q990.3535,368.9688 989.5566,369.2969 Q988.4785,369.75 987.1816,369.75 Q985.666,369.75 984.4628,369.125 Q983.4785,368.625 982.791,367.5625 Q982.1035,366.4844 982.1035,365.2031 L982.1035,364.0469 Q982.1035,362.7188 982.7128,361.5781 Q983.3378,360.4219 984.4316,359.8125 Q985.5253,359.1875 986.7597,359.1875 Q987.4941,359.1875 988.1347,359.3594 Q988.791,359.5156 989.3378,359.875 Z " fill="#000000"/><text fill="#000000" font-family="sans-serif" font-size="14" lengthAdjust="spacing" textLength="107.3721" x="1004.2549" y="369.7285">FilterInputStream</text><line style="stroke:#181818;stroke-width:0.5;" x1="956" x2="1130.1992" y1="380" y2="380"/><line style="stroke:#181818;stroke-width:0.5;" x1="956" x2="1130.1992" y1="388" y2="388"/><text fill="#000000" font-family="sans-serif" font-size="14" lengthAdjust="spacing" textLength="60.6895" x="961" y="406.5332">read(): Int</text><text fill="#000000" font-family="sans-serif" font-size="14" lengthAdjust="spacing" textLength="96.4824" x="961" y="424.1426">read(Byte[]): Int</text><text fill="#000000" font-family="sans-serif" font-size="14" lengthAdjust="spacing" textLength="143.1719" x="961" y="441.752">read(Byte[], Int, Int): Int</text><text fill="#000000" font-family="sans-serif" font-size="14" lengthAdjust="spacing" textLength="104.2891" x="961" y="459.3613">skip(Long): Long</text><text fill="#000000" font-family="sans-serif" font-size="14" lengthAdjust="spacing" textLength="87.9307" x="961" y="476.9707">available(): Int</text><text fill="#000000" font-family="sans-serif" font-size="14" lengthAdjust="spacing" textLength="77.8066" x="961" y="494.5801">close(): Void</text><text fill="#000000" font-family="sans-serif" font-size="14" lengthAdjust="spacing" textLength="91.7998" x="961" y="512.1895">mark(Int): Void</text><text fill="#000000" font-family="sans-serif" font-size="14" lengthAdjust="spacing" textLength="76.248" x="961" y="529.7988">reset(): Void</text><text fill="#000000" font-family="sans-serif" font-size="14" lengthAdjust="spacing" textLength="164.1992" x="961" y="547.4082">markSupported(): Boolean</text></g><!--class FilterOutputStream--><g id="elem_FilterOutputStream"><rect codeLine="50" fill="#F1F1F1" height="171.2656" id="FilterOutputStream" rx="2.5" ry="2.5" style="stroke:#181818;stroke-width:0.5;" width="182.4268" x="1246" y="729"/><ellipse cx="1275.4743" cy="745" fill="#ADD1B2" rx="11" ry="11" style="stroke:#181818;stroke-width:1;"/><path d="M1278.2399,740.875 Q1278.3961,740.6563 1278.5836,740.5469 Q1278.7711,740.4375 1278.9899,740.4375 Q1279.3649,740.4375 1279.5993,740.7031 Q1279.8336,740.9531 1279.8336,741.5625 L1279.8336,743.0156 Q1279.8336,743.625 1279.5993,743.8906 Q1279.3649,744.1563 1278.9899,744.1563 Q1278.6461,744.1563 1278.443,743.9531 Q1278.2399,743.7656 1278.1305,743.25 Q1278.0836,742.8906 1277.8961,742.7031 Q1277.568,742.3281 1276.9586,742.1094 Q1276.3493,741.8906 1275.7243,741.8906 Q1274.9586,741.8906 1274.318,742.2188 Q1273.693,742.5469 1273.193,743.2969 Q1272.7086,744.0469 1272.7086,745.0781 L1272.7086,746.1719 Q1272.7086,747.4063 1273.5993,748.2344 Q1274.4899,749.0469 1276.0836,749.0469 Q1277.0211,749.0469 1277.6774,748.7969 Q1278.068,748.6406 1278.4899,748.2031 Q1278.7555,747.9375 1278.8961,747.8594 Q1279.0524,747.7813 1279.2555,747.7813 Q1279.5836,747.7813 1279.8336,748.0469 Q1280.0993,748.2969 1280.0993,748.6406 Q1280.0993,748.9844 1279.7555,749.3906 Q1279.2555,749.9688 1278.4586,750.2969 Q1277.3805,750.75 1276.0836,750.75 Q1274.568,750.75 1273.3649,750.125 Q1272.3805,749.625 1271.693,748.5625 Q1271.0055,747.4844 1271.0055,746.2031 L1271.0055,745.0469 Q1271.0055,743.7188 1271.6149,742.5781 Q1272.2399,741.4219 1273.3336,740.8125 Q1274.4274,740.1875 1275.6618,740.1875 Q1276.3961,740.1875 1277.0368,740.3594 Q1277.693,740.5156 1278.2399,740.875 Z " fill="#000000"/><text fill="#000000" font-family="sans-serif" font-size="14" lengthAdjust="spacing" textLength="118.2617" x="1292.6908" y="750.7285">FilterOutputStream</text><line style="stroke:#181818;stroke-width:0.5;" x1="1247" x2="1427.4268" y1="761" y2="761"/><text fill="#000000" font-family="sans-serif" font-size="14" lengthAdjust="spacing" textLength="99.627" x="1252" y="779.5332">closed: Boolean</text><text fill="#000000" font-family="sans-serif" font-size="14" lengthAdjust="spacing" textLength="170.4268" x="1252" y="797.1426">closeLock: java/lang/Object</text><line style="stroke:#181818;stroke-width:0.5;" x1="1247" x2="1427.4268" y1="804.2188" y2="804.2188"/><text fill="#000000" font-family="sans-serif" font-size="14" lengthAdjust="spacing" textLength="90.248" x="1252" y="822.752">write(Int): Void</text><text fill="#000000" font-family="sans-serif" font-size="14" lengthAdjust="spacing" textLength="110.4756" x="1252" y="840.3613">write(Byte[]): Void</text><text fill="#000000" font-family="sans-serif" font-size="14" lengthAdjust="spacing" textLength="157.165" x="1252" y="857.9707">write(Byte[], Int, Int): Void</text><text fill="#000000" font-family="sans-serif" font-size="14" lengthAdjust="spacing" textLength="74.6963" x="1252" y="875.5801">flush(): Void</text><text fill="#000000" font-family="sans-serif" font-size="14" lengthAdjust="spacing" textLength="77.8066" x="1252" y="893.1895">close(): Void</text></g><!--class InputStream--><g id="elem_InputStream"><rect codeLine="70" fill="#F1F1F1" height="364.9688" id="InputStream" rx="2.5" ry="2.5" style="stroke:#181818;stroke-width:0.5;" width="255.5576" x="955" y="632"/><ellipse cx="1040.3979" cy="648" fill="#A9DCDF" rx="11" ry="11" style="stroke:#181818;stroke-width:1;"/><path d="M1042.5854,649.7656 L1038.4448,649.7656 L1038.0229,650.7969 L1038.4448,650.7969 Q1039.0542,650.7969 1039.3198,651.0313 Q1039.5854,651.2656 1039.5854,651.6563 Q1039.5854,652.0313 1039.3198,652.2656 Q1039.0542,652.5 1038.4448,652.5 L1036.1479,652.5 Q1035.5386,652.5 1035.2886,652.2656 Q1035.0229,652.0313 1035.0229,651.6406 Q1035.0229,651.2656 1035.3042,651.0313 Q1035.5698,650.7813 1036.1948,650.7969 L1038.8667,644.1406 L1037.7573,644.1406 Q1037.1479,644.1406 1036.8823,643.9063 Q1036.6167,643.6719 1036.6167,643.2813 Q1036.6167,642.9063 1036.8823,642.6719 Q1037.1479,642.4375 1037.7573,642.4375 L1041.4292,642.4375 L1044.8198,650.7969 Q1045.4136,650.7969 1045.6011,650.9375 Q1045.9917,651.2031 1045.9917,651.6563 Q1045.9917,652.0313 1045.7261,652.2656 Q1045.4761,652.5 1044.8667,652.5 L1042.5698,652.5 Q1041.9604,652.5 1041.6948,652.2656 Q1041.4292,652.0313 1041.4292,651.6406 Q1041.4292,651.2656 1041.6948,651.0313 Q1041.9604,650.7969 1042.5698,650.7969 L1042.9917,650.7969 L1042.5854,649.7656 Z M1041.8667,648.0625 L1040.5073,644.6875 L1039.1323,648.0625 L1041.8667,648.0625 Z " fill="#000000"/><text fill="#000000" font-family="sans-serif" font-size="14" font-style="italic" lengthAdjust="spacing" textLength="76.2617" x="1060.8979" y="653.7285">InputStream</text><line style="stroke:#181818;stroke-width:0.5;" x1="956" x2="1209.5576" y1="664" y2="664"/><text fill="#000000" font-family="sans-serif" font-size="14" lengthAdjust="spacing" textLength="196.0615" x="961" y="682.5332">MAX_SKIP_BUFFER_SIZE: Int</text><text fill="#000000" font-family="sans-serif" font-size="14" lengthAdjust="spacing" textLength="189.8203" x="961" y="700.1426">DEFAULT_BUFFER_SIZE: Int</text><text fill="#000000" font-family="sans-serif" font-size="14" lengthAdjust="spacing" textLength="156.3721" x="961" y="717.752">MAX_BUFFER_SIZE: Int</text><line style="stroke:#181818;stroke-width:0.5;" x1="956" x2="1209.5576" y1="724.8281" y2="724.8281"/><text fill="#000000" font-family="sans-serif" font-size="14" lengthAdjust="spacing" textLength="235.7783" x="961" y="743.3613">nullInputStream(): java/io/InputStream</text><text fill="#000000" font-family="sans-serif" font-size="14" lengthAdjust="spacing" textLength="60.6895" x="961" y="760.9707">read(): Int</text><text fill="#000000" font-family="sans-serif" font-size="14" lengthAdjust="spacing" textLength="96.4824" x="961" y="778.5801">read(Byte[]): Int</text><text fill="#000000" font-family="sans-serif" font-size="14" lengthAdjust="spacing" textLength="143.1719" x="961" y="796.1895">read(Byte[], Int, Int): Int</text><text fill="#000000" font-family="sans-serif" font-size="14" lengthAdjust="spacing" textLength="131.4893" x="961" y="813.7988">readAllBytes(): Byte[]</text><text fill="#000000" font-family="sans-serif" font-size="14" lengthAdjust="spacing" textLength="141.6064" x="961" y="831.4082">readNBytes(Int): Byte[]</text><text fill="#000000" font-family="sans-serif" font-size="14" lengthAdjust="spacing" textLength="188.2959" x="961" y="849.0176">readNBytes(Byte[], Int, Int): Int</text><text fill="#000000" font-family="sans-serif" font-size="14" lengthAdjust="spacing" textLength="104.2891" x="961" y="866.627">skip(Long): Long</text><text fill="#000000" font-family="sans-serif" font-size="14" lengthAdjust="spacing" textLength="146.2891" x="961" y="884.2363">skipNBytes(Long): Void</text><text fill="#000000" font-family="sans-serif" font-size="14" lengthAdjust="spacing" textLength="87.9307" x="961" y="901.8457">available(): Int</text><text fill="#000000" font-family="sans-serif" font-size="14" lengthAdjust="spacing" textLength="77.8066" x="961" y="919.4551">close(): Void</text><text fill="#000000" font-family="sans-serif" font-size="14" lengthAdjust="spacing" textLength="91.7998" x="961" y="937.0645">mark(Int): Void</text><text fill="#000000" font-family="sans-serif" font-size="14" lengthAdjust="spacing" textLength="76.248" x="961" y="954.6738">reset(): Void</text><text fill="#000000" font-family="sans-serif" font-size="14" lengthAdjust="spacing" textLength="164.1992" x="961" y="972.2832">markSupported(): Boolean</text><text fill="#000000" font-family="sans-serif" font-size="14" lengthAdjust="spacing" textLength="243.5576" x="961" y="989.8926">transferTo(java/io/OutputStream): Long</text></g><!--class OutputStream--><g id="elem_OutputStream"><rect codeLine="93" fill="#F1F1F1" height="153.6563" id="OutputStream" rx="2.5" ry="2.5" style="stroke:#181818;stroke-width:0.5;" width="269.5576" x="1132" y="1075"/><ellipse cx="1218.9531" cy="1091" fill="#A9DCDF" rx="11" ry="11" style="stroke:#181818;stroke-width:1;"/><path d="M1221.1406,1092.7656 L1217,1092.7656 L1216.5781,1093.7969 L1217,1093.7969 Q1217.6094,1093.7969 1217.875,1094.0313 Q1218.1406,1094.2656 1218.1406,1094.6563 Q1218.1406,1095.0313 1217.875,1095.2656 Q1217.6094,1095.5 1217,1095.5 L1214.7031,1095.5 Q1214.0938,1095.5 1213.8438,1095.2656 Q1213.5781,1095.0313 1213.5781,1094.6406 Q1213.5781,1094.2656 1213.8594,1094.0313 Q1214.125,1093.7813 1214.75,1093.7969 L1217.4219,1087.1406 L1216.3125,1087.1406 Q1215.7031,1087.1406 1215.4375,1086.9063 Q1215.1719,1086.6719 1215.1719,1086.2813 Q1215.1719,1085.9063 1215.4375,1085.6719 Q1215.7031,1085.4375 1216.3125,1085.4375 L1219.9844,1085.4375 L1223.375,1093.7969 Q1223.9688,1093.7969 1224.1563,1093.9375 Q1224.5469,1094.2031 1224.5469,1094.6563 Q1224.5469,1095.0313 1224.2813,1095.2656 Q1224.0313,1095.5 1223.4219,1095.5 L1221.125,1095.5 Q1220.5156,1095.5 1220.25,1095.2656 Q1219.9844,1095.0313 1219.9844,1094.6406 Q1219.9844,1094.2656 1220.25,1094.0313 Q1220.5156,1093.7969 1221.125,1093.7969 L1221.5469,1093.7969 L1221.1406,1092.7656 Z M1220.4219,1091.0625 L1219.0625,1087.6875 L1217.6875,1091.0625 L1220.4219,1091.0625 Z " fill="#000000"/><text fill="#000000" font-family="sans-serif" font-size="14" font-style="italic" lengthAdjust="spacing" textLength="87.1514" x="1239.4531" y="1096.7285">OutputStream</text><line style="stroke:#181818;stroke-width:0.5;" x1="1133" x2="1400.5576" y1="1107" y2="1107"/><line style="stroke:#181818;stroke-width:0.5;" x1="1133" x2="1400.5576" y1="1115" y2="1115"/><text fill="#000000" font-family="sans-serif" font-size="14" lengthAdjust="spacing" textLength="257.5576" x="1138" y="1133.5332">nullOutputStream(): java/io/OutputStream</text><text fill="#000000" font-family="sans-serif" font-size="14" lengthAdjust="spacing" textLength="90.248" x="1138" y="1151.1426">write(Int): Void</text><text fill="#000000" font-family="sans-serif" font-size="14" lengthAdjust="spacing" textLength="110.4756" x="1138" y="1168.752">write(Byte[]): Void</text><text fill="#000000" font-family="sans-serif" font-size="14" lengthAdjust="spacing" textLength="157.165" x="1138" y="1186.3613">write(Byte[], Int, Int): Void</text><text fill="#000000" font-family="sans-serif" font-size="14" lengthAdjust="spacing" textLength="74.6963" x="1138" y="1203.9707">flush(): Void</text><text fill="#000000" font-family="sans-serif" font-size="14" lengthAdjust="spacing" textLength="77.8066" x="1138" y="1221.5801">close(): Void</text></g><!--class Closeable--><g id="elem_Closeable"><rect codeLine="104" fill="#F1F1F1" height="65.6094" id="Closeable" rx="2.5" ry="2.5" style="stroke:#181818;stroke-width:0.5;" width="94.2617" x="1065" y="1290"/><ellipse cx="1080" cy="1306" fill="#B4A7E5" rx="11" ry="11" style="stroke:#181818;stroke-width:1;"/><path d="M1080.9531,1302.6406 L1080.9531,1309.2969 L1082.6719,1309.2969 Q1083.2813,1309.2969 1083.5469,1309.5313 Q1083.8125,1309.7656 1083.8125,1310.1563 Q1083.8125,1310.5313 1083.5469,1310.7656 Q1083.2813,1311 1082.6719,1311 L1077.5313,1311 Q1076.9219,1311 1076.6563,1310.7656 Q1076.3906,1310.5313 1076.3906,1310.1406 Q1076.3906,1309.7656 1076.6563,1309.5313 Q1076.9219,1309.2969 1077.5313,1309.2969 L1079.25,1309.2969 L1079.25,1302.6406 L1077.5313,1302.6406 Q1076.9219,1302.6406 1076.6563,1302.4063 Q1076.3906,1302.1719 1076.3906,1301.7813 Q1076.3906,1301.4063 1076.6563,1301.1719 Q1076.9219,1300.9375 1077.5313,1300.9375 L1082.6719,1300.9375 Q1083.2813,1300.9375 1083.5469,1301.1719 Q1083.8125,1301.4063 1083.8125,1301.7813 Q1083.8125,1302.1719 1083.5469,1302.4063 Q1083.2813,1302.6406 1082.6719,1302.6406 L1080.9531,1302.6406 Z " fill="#000000"/><text fill="#000000" font-family="sans-serif" font-size="14" font-style="italic" lengthAdjust="spacing" textLength="62.2617" x="1094" y="1311.7285">Closeable</text><line style="stroke:#181818;stroke-width:0.5;" x1="1066" x2="1158.2617" y1="1322" y2="1322"/><line style="stroke:#181818;stroke-width:0.5;" x1="1066" x2="1158.2617" y1="1330" y2="1330"/><text fill="#000000" font-family="sans-serif" font-size="14" lengthAdjust="spacing" textLength="77.8066" x="1071" y="1348.5332">close(): Void</text></g><!--class Flushable--><g id="elem_Flushable"><rect codeLine="109" fill="#F1F1F1" height="65.6094" id="Flushable" rx="2.5" ry="2.5" style="stroke:#181818;stroke-width:0.5;" width="92.7031" x="1220.5" y="1290"/><ellipse cx="1235.5" cy="1306" fill="#B4A7E5" rx="11" ry="11" style="stroke:#181818;stroke-width:1;"/><path d="M1236.4531,1302.6406 L1236.4531,1309.2969 L1238.1719,1309.2969 Q1238.7813,1309.2969 1239.0469,1309.5313 Q1239.3125,1309.7656 1239.3125,1310.1563 Q1239.3125,1310.5313 1239.0469,1310.7656 Q1238.7813,1311 1238.1719,1311 L1233.0313,1311 Q1232.4219,1311 1232.1563,1310.7656 Q1231.8906,1310.5313 1231.8906,1310.1406 Q1231.8906,1309.7656 1232.1563,1309.5313 Q1232.4219,1309.2969 1233.0313,1309.2969 L1234.75,1309.2969 L1234.75,1302.6406 L1233.0313,1302.6406 Q1232.4219,1302.6406 1232.1563,1302.4063 Q1231.8906,1302.1719 1231.8906,1301.7813 Q1231.8906,1301.4063 1232.1563,1301.1719 Q1232.4219,1300.9375 1233.0313,1300.9375 L1238.1719,1300.9375 Q1238.7813,1300.9375 1239.0469,1301.1719 Q1239.3125,1301.4063 1239.3125,1301.7813 Q1239.3125,1302.1719 1239.0469,1302.4063 Q1238.7813,1302.6406 1238.1719,1302.6406 L1236.4531,1302.6406 Z " fill="#000000"/><text fill="#000000" font-family="sans-serif" font-size="14" font-style="italic" lengthAdjust="spacing" textLength="60.7031" x="1249.5" y="1311.7285">Flushable</text><line style="stroke:#181818;stroke-width:0.5;" x1="1221.5" x2="1312.2031" y1="1322" y2="1322"/><line style="stroke:#181818;stroke-width:0.5;" x1="1221.5" x2="1312.2031" y1="1330" y2="1330"/><text fill="#000000" font-family="sans-serif" font-size="14" lengthAdjust="spacing" textLength="74.6963" x="1226.5" y="1348.5332">flush(): Void</text></g><!--class AutoCloseable--><g id="elem_AutoCloseable"><rect codeLine="113" fill="#F1F1F1" height="65.6094" id="AutoCloseable" rx="2.5" ry="2.5" style="stroke:#181818;stroke-width:0.5;" width="123.0615" x="1050.5" y="1441"/><ellipse cx="1065.5" cy="1457" fill="#B4A7E5" rx="11" ry="11" style="stroke:#181818;stroke-width:1;"/><path d="M1066.4531,1453.6406 L1066.4531,1460.2969 L1068.1719,1460.2969 Q1068.7813,1460.2969 1069.0469,1460.5313 Q1069.3125,1460.7656 1069.3125,1461.1563 Q1069.3125,1461.5313 1069.0469,1461.7656 Q1068.7813,1462 1068.1719,1462 L1063.0313,1462 Q1062.4219,1462 1062.1563,1461.7656 Q1061.8906,1461.5313 1061.8906,1461.1406 Q1061.8906,1460.7656 1062.1563,1460.5313 Q1062.4219,1460.2969 1063.0313,1460.2969 L1064.75,1460.2969 L1064.75,1453.6406 L1063.0313,1453.6406 Q1062.4219,1453.6406 1062.1563,1453.4063 Q1061.8906,1453.1719 1061.8906,1452.7813 Q1061.8906,1452.4063 1062.1563,1452.1719 Q1062.4219,1451.9375 1063.0313,1451.9375 L1068.1719,1451.9375 Q1068.7813,1451.9375 1069.0469,1452.1719 Q1069.3125,1452.4063 1069.3125,1452.7813 Q1069.3125,1453.1719 1069.0469,1453.4063 Q1068.7813,1453.6406 1068.1719,1453.6406 L1066.4531,1453.6406 Z " fill="#000000"/><text fill="#000000" font-family="sans-serif" font-size="14" font-style="italic" lengthAdjust="spacing" textLength="91.0615" x="1079.5" y="1462.7285">AutoCloseable</text><line style="stroke:#181818;stroke-width:0.5;" x1="1051.5" x2="1172.5615" y1="1473" y2="1473"/><line style="stroke:#181818;stroke-width:0.5;" x1="1051.5" x2="1172.5615" y1="1481" y2="1481"/><text fill="#000000" font-family="sans-serif" font-size="14" lengthAdjust="spacing" textLength="77.8066" x="1056.5" y="1499.5332">close(): Void</text></g><!--link DecryptionInputStream to FilterInputStream--><g id="link_DecryptionInputStream_FilterInputStream"><path codeLine="6" d="M609.71,186.5 C622.15,192.99 635.25,199.15 648,204 C741.91,239.7 781.81,206.75 867,260 C903.98,283.12 926.2806,302.5108 954.5306,334.4308 " fill="transparent" id="DecryptionInputStream-to-FilterInputStream" style="stroke:#181818;stroke-width:1;"/><polygon fill="transparent" points="966.46,347.91,959.0236,330.4543,950.0375,338.4073,966.46,347.91" style="stroke:#181818;stroke-width:1;"/></g><!--link DecryptionInputStream to IDecryption--><g id="link_DecryptionInputStream_IDecryption"><path codeLine="7" d="M522.12,186.68 C492.32,244.77 440.6196,345.512 410.7396,403.732 " fill="transparent" id="DecryptionInputStream-to-IDecryption" style="stroke:#181818;stroke-width:1;"/><polygon fill="#181818" points="408,409.07,415.6681,402.8894,410.283,404.6216,408.5507,399.2366,408,409.07" style="stroke:#181818;stroke-width:1;"/><text fill="#000000" font-family="sans-serif" font-size="13" lengthAdjust="spacing" textLength="54.1899" x="497" y="248.4951">decryptor</text></g><!--link EncryptionOutputStream to FilterOutputStream--><g id="link_EncryptionOutputStream_FilterOutputStream"><path codeLine="12" d="M850.55,149.37 C938.27,157.43 1068.29,182.75 1149,260 C1280.69,386.05 1318.3806,589.8052 1330.2006,710.8452 " fill="transparent" id="EncryptionOutputStream-to-FilterOutputStream" style="stroke:#181818;stroke-width:1;"/><polygon fill="transparent" points="1331.95,728.76,1336.1722,710.2621,1324.229,711.4284,1331.95,728.76" style="stroke:#181818;stroke-width:1;"/></g><!--link EncryptionOutputStream to IEncryption--><g id="link_EncryptionOutputStream_IEncryption"><path codeLine="13" d="M743.57,178.25 C718.62,234.02 669.9101,342.9031 642.5901,403.9731 " fill="transparent" id="EncryptionOutputStream-to-IEncryption" style="stroke:#181818;stroke-width:1;"/><polygon fill="#181818" points="640.14,409.45,647.4665,402.868,642.1818,404.8859,640.1639,399.6012,640.14,409.45" style="stroke:#181818;stroke-width:1;"/><text fill="#000000" font-family="sans-serif" font-size="13" lengthAdjust="spacing" textLength="54.1899" x="718" y="248.4951">encryptor</text></g><!--link SubstitutionCipher to IEncryption--><g id="link_SubstitutionCipher_IEncryption"><path codeLine="29" d="M415.38,204.02 C434.65,221.38 455.2,240.9 473,260 C518.3,308.61 554.0522,355.2888 582.7722,394.8888 " fill="transparent" id="SubstitutionCipher-to-IEncryption" style="stroke:#181818;stroke-width:1;stroke-dasharray:7.0,7.0;"/><polygon fill="transparent" points="593.34,409.46,587.6293,391.3662,577.9151,398.4114,593.34,409.46" style="stroke:#181818;stroke-width:1;"/></g><!--link SubstitutionCipher to IDecryption--><g id="link_SubstitutionCipher_IDecryption"><path codeLine="30" d="M354.67,204.25 C362.58,264.42 372.3823,338.9038 379.3123,391.5838 " fill="transparent" id="SubstitutionCipher-to-IDecryption" style="stroke:#181818;stroke-width:1;stroke-dasharray:7.0,7.0;"/><polygon fill="transparent" points="381.66,409.43,385.2611,390.8012,373.3636,392.3663,381.66,409.43" style="stroke:#181818;stroke-width:1;"/></g><!--link FilterInputStream to InputStream--><g id="link_FilterInputStream_InputStream"><path codeLine="47" d="M1043.78,554.19 C1044.46,570.21 1045.49,586.57 1047,602 C1047.95,611.73 1046.8311,603.8323 1048.1011,613.8723 " fill="transparent" id="FilterInputStream-to-InputStream" style="stroke:#181818;stroke-width:1;"/><polygon fill="transparent" points="1050.36,631.73,1054.0537,613.1193,1042.1485,614.6253,1050.36,631.73" style="stroke:#181818;stroke-width:1;"/></g><!--link FilterInputStream to InputStream--><g id="link_FilterInputStream_InputStream"><path codeLine="48" d="M1054.3,554.14 C1056.99,578.47 1059.2913,599.1863 1062.2413,625.8963 " fill="transparent" id="FilterInputStream-to-InputStream-1" style="stroke:#181818;stroke-width:1;"/><polygon fill="#181818" points="1062.9,631.86,1065.8878,622.4753,1062.3511,626.8902,1057.9362,623.3535,1062.9,631.86" style="stroke:#181818;stroke-width:1;"/><text fill="#000000" font-family="sans-serif" font-size="13" lengthAdjust="spacing" textLength="10.1182" x="1060" y="598.4951">in</text></g><!--link FilterOutputStream to OutputStream--><g id="link_FilterOutputStream_OutputStream"><path codeLine="59" d="M1318.14,900.05 C1309.64,938.71 1299.6,985.13 1291,1027 C1287.82,1042.46 1287.9657,1041.3709 1284.8857,1057.2109 " fill="transparent" id="FilterOutputStream-to-OutputStream" style="stroke:#181818;stroke-width:1;"/><polygon fill="transparent" points="1281.45,1074.88,1290.7753,1058.3561,1278.996,1056.0657,1281.45,1074.88" style="stroke:#181818;stroke-width:1;"/></g><!--link FilterOutputStream to OutputStream--><g id="link_FilterOutputStream_OutputStream"><path codeLine="60" d="M1323.14,900.02 C1315.6,943.5 1305.66,997.26 1295,1045 C1292.84,1054.66 1291.8734,1058.9512 1289.3634,1068.9312 " fill="transparent" id="FilterOutputStream-to-OutputStream-1" style="stroke:#181818;stroke-width:1;"/><polygon fill="#181818" points="1287.9,1074.75,1293.9744,1066.9974,1289.1195,1069.901,1286.216,1065.0462,1287.9,1074.75" style="stroke:#181818;stroke-width:1;"/><text fill="#000000" font-family="sans-serif" font-size="13" lengthAdjust="spacing" textLength="18.0718" x="1298" y="1041.4951">out</text></g><!--link InputStream to Closeable--><g id="link_InputStream_Closeable"><path codeLine="90" d="M1093.41,997.28 C1099.58,1105.1 1105.8006,1213.7795 1109.1306,1271.9095 " fill="transparent" id="InputStream-to-Closeable" style="stroke:#181818;stroke-width:1;stroke-dasharray:7.0,7.0;"/><polygon fill="transparent" points="1110.16,1289.88,1115.1207,1271.5663,1103.1404,1272.2526,1110.16,1289.88" style="stroke:#181818;stroke-width:1;"/></g><!--link InputStream to OutputStream--><g id="link_InputStream_OutputStream"><path codeLine="91" d="M1182.81,997.49 C1197.76,1024.75 1209.5558,1046.2487 1222.3558,1069.5987 " fill="transparent" id="InputStream-to-OutputStream" style="stroke:#181818;stroke-width:1;"/><polygon fill="#181818" points="1225.24,1074.86,1224.4213,1065.0452,1222.8365,1070.4756,1217.4062,1068.8908,1225.24,1074.86" style="stroke:#181818;stroke-width:1;"/></g><!--link OutputStream to Closeable--><g id="link_OutputStream_Closeable"><path codeLine="101" d="M1197.21,1229.1 C1177.6,1250.47 1169.4934,1259.3015 1153.6434,1276.5915 " fill="transparent" id="OutputStream-to-Closeable" style="stroke:#181818;stroke-width:1;stroke-dasharray:7.0,7.0;"/><polygon fill="transparent" points="1141.48,1289.86,1158.0662,1280.646,1149.2206,1272.5371,1141.48,1289.86" style="stroke:#181818;stroke-width:1;"/></g><!--link OutputStream to Flushable--><g id="link_OutputStream_Flushable"><path codeLine="102" d="M1267,1229.1 C1267,1250.47 1267,1254.57 1267,1271.86 " fill="transparent" id="OutputStream-to-Flushable" style="stroke:#181818;stroke-width:1;stroke-dasharray:7.0,7.0;"/><polygon fill="transparent" points="1267,1289.86,1273,1271.86,1261,1271.86,1267,1289.86" style="stroke:#181818;stroke-width:1;"/></g><!--link Closeable to AutoCloseable--><g id="link_Closeable_AutoCloseable"><path codeLine="107" d="M1112,1356.33 C1112,1381.41 1112,1397.99 1112,1422.99 " fill="transparent" id="Closeable-to-AutoCloseable" style="stroke:#181818;stroke-width:1;stroke-dasharray:7.0,7.0;"/><polygon fill="transparent" points="1112,1440.99,1118,1422.99,1106,1422.99,1112,1440.99" style="stroke:#181818;stroke-width:1;"/></g><!--SRC=[lLHHRzem47xdL_WnazRmpaCbe4IAojPfq6aQGiWa1bnSExETRMZjVzyv2OcJE14LsrvYvUxytNsVxovYM2aavDwNv7jAb2Rn4hx-7OdaAT5Ky90dgLveIV0p-Zr0SCRUkn4AkIv-9YTDLkltnf9z2kVhu4BKcvkNsoVy0_jK-05bcaZBUJd8RJioh4BH2CNvZv23GTJ1UiRFyG-fhj7-AQacNixkYw2navxxUfkVxNq3Z8jX5GiC2IyPKWvvTZWYg5yMe5ReuaqFM08xSm2xVWGhBI0KUPi8NIelqgtILAVc-fGc1o8j4B3TarCEibgNrJNDhfGTJ2ufmFTV-jMz1gMIkrkJ9VcbPp65jnidYP7Z6LFkcROPCiptG-W1olUhTTL-1LJdvFGDwoNpYzIH9jvSy3qOp350a8eol6Man8oOKDbVLXGKBO_sa402HNJTlqYJH4ZWRSmJ8HZ17EXqyh37nruCFHTSyJ0UbBj5QyvwHYgkYiiDSn4THwXwaOVj4ucqOpCKbbBfjh6cTUxUiLGTAg7gkZRLwTekjRtITyLv0nGIgVuRWt_zyi4mMX976jNVgz7U7yPVDulxyDDcyXW4iy-RHVXjLZJctImOFywN3e-vrBRob34BtKYVFJKLGxlfhfieunmpPjmgw_uiBhT_pArvjCDn-PGQIt6fiESzzU-c5y5RSRKZSYcyisfsPvrBg_hOqjGipRDvQWeo9Re2EzgsircQOssUsBRPRrm3_ByZRQVkrw8hCZ29iaXhybemvMPpr506bR1cnVdZL8kg30TucTc0r_c-jkBRaAwI_W00]--></g></svg>