<svg xmlns="http://www.w3.org/2000/svg" xmlns:xlink="http://www.w3.org/1999/xlink" contentStyleType="text/css" data-diagram-type="CLASS" height="592px" preserveAspectRatio="none" style="width:3337px;height:592px;background:#FFFFFF;" version="1.1" viewBox="0 0 3337 592" width="3337px" zoomAndPan="magnify"><defs/><g><!--cluster headfirst--><g id="cluster_headfirst"><path d="M8.5,6 L68.624,6 A3.75,3.75 0 0 1 71.124,8.5 L78.124,29.6094 L3327.5,29.6094 A2.5,2.5 0 0 1 3330,32.1094 L3330,582.5 A2.5,2.5 0 0 1 3327.5,585 L8.5,585 A2.5,2.5 0 0 1 6,582.5 L6,8.5 A2.5,2.5 0 0 1 8.5,6 " fill="transparent" style="stroke:#000000;stroke-width:1.5;"/><line style="stroke:#000000;stroke-width:1.5;" x1="6" x2="78.124" y1="29.6094" y2="29.6094"/><text fill="#000000" font-family="sans-serif" font-size="14" font-weight="bold" lengthAdjust="spacing" textLength="59.124" x="10" y="22.5332">headfirst</text></g><!--cluster singleton--><g id="cluster_singleton"><path d="M32.5,50 L95.7207,50 A3.75,3.75 0 0 1 98.2207,52.5 L105.2207,73.6094 L3303.5,73.6094 A2.5,2.5 0 0 1 3306,76.1094 L3306,558.5 A2.5,2.5 0 0 1 3303.5,561 L32.5,561 A2.5,2.5 0 0 1 30,558.5 L30,52.5 A2.5,2.5 0 0 1 32.5,50 " fill="transparent" style="stroke:#000000;stroke-width:1.5;"/><line style="stroke:#000000;stroke-width:1.5;" x1="30" x2="105.2207" y1="73.6094" y2="73.6094"/><text fill="#000000" font-family="sans-serif" font-size="14" font-weight="bold" lengthAdjust="spacing" textLength="62.2207" x="34" y="66.5332">singleton</text></g><!--cluster chocolate--><g id="cluster_chocolate"><path d="M2738.5,99.5 L2804.8516,99.5 A3.75,3.75 0 0 1 2807.3516,102 L2814.3516,123.1094 L3279.5,123.1094 A2.5,2.5 0 0 1 3282,125.6094 L3282,534.5 A2.5,2.5 0 0 1 3279.5,537 L2738.5,537 A2.5,2.5 0 0 1 2736,534.5 L2736,102 A2.5,2.5 0 0 1 2738.5,99.5 " fill="transparent" style="stroke:#000000;stroke-width:1.5;"/><line style="stroke:#000000;stroke-width:1.5;" x1="2736" x2="2814.3516" y1="123.1094" y2="123.1094"/><text fill="#000000" font-family="sans-serif" font-size="14" font-weight="bold" lengthAdjust="spacing" textLength="65.3516" x="2740" y="116.0332">chocolate</text></g><!--cluster classic--><g id="cluster_classic"><path d="M2226.5,94 L2274.21,94 A3.75,3.75 0 0 1 2276.71,96.5 L2283.71,117.6094 L2709.5,117.6094 A2.5,2.5 0 0 1 2712,120.1094 L2712,237.5 A2.5,2.5 0 0 1 2709.5,240 L2226.5,240 A2.5,2.5 0 0 1 2224,237.5 L2224,96.5 A2.5,2.5 0 0 1 2226.5,94 " fill="transparent" style="stroke:#000000;stroke-width:1.5;"/><line style="stroke:#000000;stroke-width:1.5;" x1="2224" x2="2283.71" y1="117.6094" y2="117.6094"/><text fill="#000000" font-family="sans-serif" font-size="14" font-weight="bold" lengthAdjust="spacing" textLength="46.71" x="2228" y="110.5332">classic</text></g><!--cluster dcl--><g id="cluster_dcl"><path d="M1738.5,99.5 L1759.7275,99.5 A3.75,3.75 0 0 1 1762.2275,102 L1769.2275,123.1094 L2197.5,123.1094 A2.5,2.5 0 0 1 2200,125.6094 L2200,473 A2.5,2.5 0 0 1 2197.5,475.5 L1738.5,475.5 A2.5,2.5 0 0 1 1736,473 L1736,102 A2.5,2.5 0 0 1 1738.5,99.5 " fill="transparent" style="stroke:#000000;stroke-width:1.5;"/><line style="stroke:#000000;stroke-width:1.5;" x1="1736" x2="1769.2275" y1="123.1094" y2="123.1094"/><text fill="#000000" font-family="sans-serif" font-size="14" font-weight="bold" lengthAdjust="spacing" textLength="20.2275" x="1740" y="116.0332">dcl</text></g><!--cluster stat--><g id="cluster_stat"><path d="M1246.5,99.5 L1272.3965,99.5 A3.75,3.75 0 0 1 1274.8965,102 L1281.8965,123.1094 L1709.5,123.1094 A2.5,2.5 0 0 1 1712,125.6094 L1712,482 A2.5,2.5 0 0 1 1709.5,484.5 L1246.5,484.5 A2.5,2.5 0 0 1 1244,482 L1244,102 A2.5,2.5 0 0 1 1246.5,99.5 " fill="transparent" style="stroke:#000000;stroke-width:1.5;"/><line style="stroke:#000000;stroke-width:1.5;" x1="1244" x2="1281.8965" y1="123.1094" y2="123.1094"/><text fill="#000000" font-family="sans-serif" font-size="14" font-weight="bold" lengthAdjust="spacing" textLength="24.8965" x="1248" y="116.0332">stat</text></g><!--cluster subclass--><g id="cluster_subclass"><path d="M592.5,99.5 L653.4238,99.5 A3.75,3.75 0 0 1 655.9238,102 L662.9238,123.1094 L1217.5,123.1094 A2.5,2.5 0 0 1 1220,125.6094 L1220,473 A2.5,2.5 0 0 1 1217.5,475.5 L592.5,475.5 A2.5,2.5 0 0 1 590,473 L590,102 A2.5,2.5 0 0 1 592.5,99.5 " fill="transparent" style="stroke:#000000;stroke-width:1.5;"/><line style="stroke:#000000;stroke-width:1.5;" x1="590" x2="662.9238" y1="123.1094" y2="123.1094"/><text fill="#000000" font-family="sans-serif" font-size="14" font-weight="bold" lengthAdjust="spacing" textLength="59.9238" x="594" y="116.0332">subclass</text></g><!--cluster threadsafe--><g id="cluster_threadsafe"><path d="M56.5,94 L128.3066,94 A3.75,3.75 0 0 1 130.8066,96.5 L137.8066,117.6094 L563.5,117.6094 A2.5,2.5 0 0 1 566,120.1094 L566,237.5 A2.5,2.5 0 0 1 563.5,240 L56.5,240 A2.5,2.5 0 0 1 54,237.5 L54,96.5 A2.5,2.5 0 0 1 56.5,94 " fill="transparent" style="stroke:#000000;stroke-width:1.5;"/><line style="stroke:#000000;stroke-width:1.5;" x1="54" x2="137.8066" y1="117.6094" y2="117.6094"/><text fill="#000000" font-family="sans-serif" font-size="14" font-weight="bold" lengthAdjust="spacing" textLength="70.8066" x="58" y="110.5332">threadsafe</text></g><!--class ChocolateBoiler--><g id="elem_ChocolateBoiler"><rect codeLine="2" fill="#FF8888" height="217.1875" id="ChocolateBoiler" rx="2.5" ry="2.5" style="stroke:#FF0000;stroke-width:0.5;" width="395.6602" x="2752" y="304"/><ellipse cx="2896.1631" cy="325.3516" fill="#ADD1B2" rx="11" ry="11" style="stroke:#181818;stroke-width:1;"/><path d="M2898.9287,321.2266 Q2899.085,321.0078 2899.2725,320.8984 Q2899.46,320.7891 2899.6787,320.7891 Q2900.0537,320.7891 2900.2881,321.0547 Q2900.5225,321.3047 2900.5225,321.9141 L2900.5225,323.3672 Q2900.5225,323.9766 2900.2881,324.2422 Q2900.0537,324.5078 2899.6787,324.5078 Q2899.335,324.5078 2899.1318,324.3047 Q2898.9287,324.1172 2898.8193,323.6016 Q2898.7725,323.2422 2898.585,323.0547 Q2898.2568,322.6797 2897.6475,322.4609 Q2897.0381,322.2422 2896.4131,322.2422 Q2895.6475,322.2422 2895.0068,322.5703 Q2894.3818,322.8984 2893.8818,323.6484 Q2893.3975,324.3984 2893.3975,325.4297 L2893.3975,326.5234 Q2893.3975,327.7578 2894.2881,328.5859 Q2895.1787,329.3984 2896.7725,329.3984 Q2897.71,329.3984 2898.3662,329.1484 Q2898.7568,328.9922 2899.1787,328.5547 Q2899.4443,328.2891 2899.585,328.2109 Q2899.7412,328.1328 2899.9443,328.1328 Q2900.2725,328.1328 2900.5225,328.3984 Q2900.7881,328.6484 2900.7881,328.9922 Q2900.7881,329.3359 2900.4443,329.7422 Q2899.9443,330.3203 2899.1475,330.6484 Q2898.0693,331.1016 2896.7725,331.1016 Q2895.2568,331.1016 2894.0537,330.4766 Q2893.0693,329.9766 2892.3818,328.9141 Q2891.6943,327.8359 2891.6943,326.5547 L2891.6943,325.3984 Q2891.6943,324.0703 2892.3037,322.9297 Q2892.9287,321.7734 2894.0225,321.1641 Q2895.1162,320.5391 2896.3506,320.5391 Q2897.085,320.5391 2897.7256,320.7109 Q2898.3818,320.8672 2898.9287,321.2266 Z " fill="#000000"/><text fill="#000000" font-family="sans-serif" font-size="12" font-style="italic" lengthAdjust="spacing" textLength="63.3867" x="2934.3867" y="321.457">&#171;Singleton&#187;</text><text fill="#000000" font-family="sans-serif" font-size="14" lengthAdjust="spacing" textLength="98.834" x="2916.6631" y="338.627">ChocolateBoiler</text><line style="stroke:#FF0000;stroke-width:0.5;" x1="2753" x2="3146.6602" y1="346.7031" y2="346.7031"/><text fill="#000000" font-family="sans-serif" font-size="14" lengthAdjust="spacing" textLength="97.2822" x="2758" y="365.2363">empty: Boolean</text><text fill="#000000" font-family="sans-serif" font-size="14" lengthAdjust="spacing" textLength="96.5234" x="2758" y="382.8457">boiled: Boolean</text><line style="stroke:#FF0000;stroke-width:0.5;" x1="2753" x2="3146.6602" y1="389.9219" y2="389.9219"/><rect fill="#F24D5C" height="6" style="stroke:#C82930;stroke-width:1;" width="6" x="2760" y="401.2266"/><text fill="#000000" font-family="sans-serif" font-size="14" lengthAdjust="spacing" textLength="108.1582" x="2772" y="408.4551">ChocolateBoiler()</text><polygon fill="#4177AF" points="2763,417.8359,2759,423.8359,2767,423.8359" style="stroke:#1963A0;stroke-width:1;"/><text fill="#000000" font-family="sans-serif" font-size="14" lengthAdjust="spacing" text-decoration="underline" textLength="369.6602" x="2772" y="426.0645">getInstance(): headfirst/singleton/chocolate/ChocolateBoiler</text><ellipse cx="2763" cy="439.4453" fill="#84BE84" rx="3" ry="3" style="stroke:#038048;stroke-width:1;"/><text fill="#000000" font-family="sans-serif" font-size="14" lengthAdjust="spacing" textLength="58.3447" x="2772" y="443.6738">fill(): Void</text><ellipse cx="2763" cy="457.0547" fill="#84BE84" rx="3" ry="3" style="stroke:#038048;stroke-width:1;"/><text fill="#000000" font-family="sans-serif" font-size="14" lengthAdjust="spacing" textLength="76.2549" x="2772" y="461.2832">drain(): Void</text><ellipse cx="2763" cy="474.6641" fill="#84BE84" rx="3" ry="3" style="stroke:#038048;stroke-width:1;"/><text fill="#000000" font-family="sans-serif" font-size="14" lengthAdjust="spacing" textLength="66.917" x="2772" y="478.8926">boil(): Void</text><ellipse cx="2763" cy="492.2734" fill="#84BE84" rx="3" ry="3" style="stroke:#038048;stroke-width:1;"/><text fill="#000000" font-family="sans-serif" font-size="14" lengthAdjust="spacing" textLength="118.2686" x="2772" y="496.502">isEmpty(): Boolean</text><ellipse cx="2763" cy="509.8828" fill="#84BE84" rx="3" ry="3" style="stroke:#038048;stroke-width:1;"/><text fill="#000000" font-family="sans-serif" font-size="14" lengthAdjust="spacing" textLength="117.5098" x="2772" y="514.1113">isBoiled(): Boolean</text></g><!--class ChocolateController--><g id="elem_ChocolateController"><rect codeLine="15" fill="#F1F1F1" height="83.2188" id="ChocolateController" rx="2.5" ry="2.5" style="stroke:#181818;stroke-width:0.5;" width="205.751" x="2847" y="135.5"/><ellipse cx="2884.5092" cy="151.5" fill="#ADD1B2" rx="11" ry="11" style="stroke:#181818;stroke-width:1;"/><path d="M2887.2749,147.375 Q2887.4311,147.1563 2887.6186,147.0469 Q2887.8061,146.9375 2888.0249,146.9375 Q2888.3999,146.9375 2888.6342,147.2031 Q2888.8686,147.4531 2888.8686,148.0625 L2888.8686,149.5156 Q2888.8686,150.125 2888.6342,150.3906 Q2888.3999,150.6563 2888.0249,150.6563 Q2887.6811,150.6563 2887.478,150.4531 Q2887.2749,150.2656 2887.1655,149.75 Q2887.1186,149.3906 2886.9311,149.2031 Q2886.603,148.8281 2885.9936,148.6094 Q2885.3842,148.3906 2884.7592,148.3906 Q2883.9936,148.3906 2883.353,148.7188 Q2882.728,149.0469 2882.228,149.7969 Q2881.7436,150.5469 2881.7436,151.5781 L2881.7436,152.6719 Q2881.7436,153.9063 2882.6342,154.7344 Q2883.5249,155.5469 2885.1186,155.5469 Q2886.0561,155.5469 2886.7124,155.2969 Q2887.103,155.1406 2887.5249,154.7031 Q2887.7905,154.4375 2887.9311,154.3594 Q2888.0874,154.2813 2888.2905,154.2813 Q2888.6186,154.2813 2888.8686,154.5469 Q2889.1342,154.7969 2889.1342,155.1406 Q2889.1342,155.4844 2888.7905,155.8906 Q2888.2905,156.4688 2887.4936,156.7969 Q2886.4155,157.25 2885.1186,157.25 Q2883.603,157.25 2882.3999,156.625 Q2881.4155,156.125 2880.728,155.0625 Q2880.0405,153.9844 2880.0405,152.7031 L2880.0405,151.5469 Q2880.0405,150.2188 2880.6499,149.0781 Q2881.2749,147.9219 2882.3686,147.3125 Q2883.4624,146.6875 2884.6967,146.6875 Q2885.4311,146.6875 2886.0717,146.8594 Q2886.728,147.0156 2887.2749,147.375 Z " fill="#000000"/><text fill="#000000" font-family="sans-serif" font-size="14" lengthAdjust="spacing" textLength="123.7305" x="2903.5113" y="157.2285">ChocolateController</text><line style="stroke:#181818;stroke-width:0.5;" x1="2848" x2="3051.751" y1="167.5" y2="167.5"/><line style="stroke:#181818;stroke-width:0.5;" x1="2848" x2="3051.751" y1="175.5" y2="175.5"/><ellipse cx="2858" cy="189.8047" fill="#84BE84" rx="3" ry="3" style="stroke:#038048;stroke-width:1;"/><text fill="#000000" font-family="sans-serif" font-size="14" lengthAdjust="spacing" textLength="133.0547" x="2867" y="194.0332">ChocolateController()</text><polygon fill="#4177AF" points="2858,203.4141,2854,209.4141,2862,209.4141" style="stroke:#1963A0;stroke-width:1;"/><text fill="#000000" font-family="sans-serif" font-size="14" lengthAdjust="spacing" text-decoration="underline" textLength="179.751" x="2867" y="211.6426">main(java/lang/String[]): Void</text></g><!--class Singleton--><g id="elem_Singleton"><rect codeLine="22" fill="#FF8888" height="93.9219" id="Singleton" rx="2.5" ry="2.5" style="stroke:#FF0000;stroke-width:0.5;" width="337.2813" x="2240.5" y="130"/><ellipse cx="2375.1973" cy="151.3516" fill="#ADD1B2" rx="11" ry="11" style="stroke:#181818;stroke-width:1;"/><path d="M2377.9629,147.2266 Q2378.1191,147.0078 2378.3066,146.8984 Q2378.4941,146.7891 2378.7129,146.7891 Q2379.0879,146.7891 2379.3223,147.0547 Q2379.5566,147.3047 2379.5566,147.9141 L2379.5566,149.3672 Q2379.5566,149.9766 2379.3223,150.2422 Q2379.0879,150.5078 2378.7129,150.5078 Q2378.3691,150.5078 2378.166,150.3047 Q2377.9629,150.1172 2377.8535,149.6016 Q2377.8066,149.2422 2377.6191,149.0547 Q2377.291,148.6797 2376.6816,148.4609 Q2376.0723,148.2422 2375.4473,148.2422 Q2374.6816,148.2422 2374.041,148.5703 Q2373.416,148.8984 2372.916,149.6484 Q2372.4316,150.3984 2372.4316,151.4297 L2372.4316,152.5234 Q2372.4316,153.7578 2373.3223,154.5859 Q2374.2129,155.3984 2375.8066,155.3984 Q2376.7441,155.3984 2377.4004,155.1484 Q2377.791,154.9922 2378.2129,154.5547 Q2378.4785,154.2891 2378.6191,154.2109 Q2378.7754,154.1328 2378.9785,154.1328 Q2379.3066,154.1328 2379.5566,154.3984 Q2379.8223,154.6484 2379.8223,154.9922 Q2379.8223,155.3359 2379.4785,155.7422 Q2378.9785,156.3203 2378.1816,156.6484 Q2377.1035,157.1016 2375.8066,157.1016 Q2374.291,157.1016 2373.0879,156.4766 Q2372.1035,155.9766 2371.416,154.9141 Q2370.7285,153.8359 2370.7285,152.5547 L2370.7285,151.3984 Q2370.7285,150.0703 2371.3379,148.9297 Q2371.9629,147.7734 2373.0566,147.1641 Q2374.1504,146.5391 2375.3848,146.5391 Q2376.1191,146.5391 2376.7598,146.7109 Q2377.416,146.8672 2377.9629,147.2266 Z " fill="#000000"/><text fill="#000000" font-family="sans-serif" font-size="12" font-style="italic" lengthAdjust="spacing" textLength="63.3867" x="2393.6973" y="147.457">&#171;Singleton&#187;</text><text fill="#000000" font-family="sans-serif" font-size="14" lengthAdjust="spacing" textLength="58.3789" x="2396.2012" y="164.627">Singleton</text><line style="stroke:#FF0000;stroke-width:0.5;" x1="2241.5" x2="2576.7813" y1="172.7031" y2="172.7031"/><line style="stroke:#FF0000;stroke-width:0.5;" x1="2241.5" x2="2576.7813" y1="180.7031" y2="180.7031"/><rect fill="#F24D5C" height="6" style="stroke:#C82930;stroke-width:1;" width="6" x="2248.5" y="192.0078"/><text fill="#000000" font-family="sans-serif" font-size="14" lengthAdjust="spacing" textLength="67.7031" x="2260.5" y="199.2363">Singleton()</text><polygon fill="#4177AF" points="2251.5,208.6172,2247.5,214.6172,2255.5,214.6172" style="stroke:#1963A0;stroke-width:1;"/><text fill="#000000" font-family="sans-serif" font-size="14" lengthAdjust="spacing" text-decoration="underline" textLength="311.2813" x="2260.5" y="216.8457">getInstance(): headfirst/singleton/classic/Singleton</text></g><!--class Singleton--><g id="elem_Singleton"><rect codeLine="28" fill="#FF8888" height="93.9219" id="Singleton" rx="2.5" ry="2.5" style="stroke:#FF0000;stroke-width:0.5;" width="313.1709" x="1752.5" y="365.5"/><ellipse cx="1875.1421" cy="386.8516" fill="#ADD1B2" rx="11" ry="11" style="stroke:#181818;stroke-width:1;"/><path d="M1877.9077,382.7266 Q1878.064,382.5078 1878.2515,382.3984 Q1878.439,382.2891 1878.6577,382.2891 Q1879.0327,382.2891 1879.2671,382.5547 Q1879.5015,382.8047 1879.5015,383.4141 L1879.5015,384.8672 Q1879.5015,385.4766 1879.2671,385.7422 Q1879.0327,386.0078 1878.6577,386.0078 Q1878.314,386.0078 1878.1108,385.8047 Q1877.9077,385.6172 1877.7983,385.1016 Q1877.7515,384.7422 1877.564,384.5547 Q1877.2358,384.1797 1876.6265,383.9609 Q1876.0171,383.7422 1875.3921,383.7422 Q1874.6265,383.7422 1873.9858,384.0703 Q1873.3608,384.3984 1872.8608,385.1484 Q1872.3765,385.8984 1872.3765,386.9297 L1872.3765,388.0234 Q1872.3765,389.2578 1873.2671,390.0859 Q1874.1577,390.8984 1875.7515,390.8984 Q1876.689,390.8984 1877.3452,390.6484 Q1877.7358,390.4922 1878.1577,390.0547 Q1878.4233,389.7891 1878.564,389.7109 Q1878.7202,389.6328 1878.9233,389.6328 Q1879.2515,389.6328 1879.5015,389.8984 Q1879.7671,390.1484 1879.7671,390.4922 Q1879.7671,390.8359 1879.4233,391.2422 Q1878.9233,391.8203 1878.1265,392.1484 Q1877.0483,392.6016 1875.7515,392.6016 Q1874.2358,392.6016 1873.0327,391.9766 Q1872.0483,391.4766 1871.3608,390.4141 Q1870.6733,389.3359 1870.6733,388.0547 L1870.6733,386.8984 Q1870.6733,385.5703 1871.2827,384.4297 Q1871.9077,383.2734 1873.0015,382.6641 Q1874.0952,382.0391 1875.3296,382.0391 Q1876.064,382.0391 1876.7046,382.2109 Q1877.3608,382.3672 1877.9077,382.7266 Z " fill="#000000"/><text fill="#000000" font-family="sans-serif" font-size="12" font-style="italic" lengthAdjust="spacing" textLength="63.3867" x="1893.6421" y="382.957">&#171;Singleton&#187;</text><text fill="#000000" font-family="sans-serif" font-size="14" lengthAdjust="spacing" textLength="58.3789" x="1896.146" y="400.127">Singleton</text><line style="stroke:#FF0000;stroke-width:0.5;" x1="1753.5" x2="2064.6709" y1="408.2031" y2="408.2031"/><line style="stroke:#FF0000;stroke-width:0.5;" x1="1753.5" x2="2064.6709" y1="416.2031" y2="416.2031"/><rect fill="#F24D5C" height="6" style="stroke:#C82930;stroke-width:1;" width="6" x="1760.5" y="427.5078"/><text fill="#000000" font-family="sans-serif" font-size="14" lengthAdjust="spacing" textLength="67.7031" x="1772.5" y="434.7363">Singleton()</text><polygon fill="#4177AF" points="1763.5,444.1172,1759.5,450.1172,1767.5,450.1172" style="stroke:#1963A0;stroke-width:1;"/><text fill="#000000" font-family="sans-serif" font-size="14" lengthAdjust="spacing" text-decoration="underline" textLength="287.1709" x="1772.5" y="452.3457">getInstance(): headfirst/singleton/dcl/Singleton</text></g><!--class SingletonClient--><g id="elem_SingletonClient"><rect codeLine="34" fill="#F1F1F1" height="83.2188" id="SingletonClient" rx="2.5" ry="2.5" style="stroke:#181818;stroke-width:0.5;" width="205.751" x="1806" y="135.5"/><ellipse cx="1857.5396" cy="151.5" fill="#ADD1B2" rx="11" ry="11" style="stroke:#181818;stroke-width:1;"/><path d="M1860.3052,147.375 Q1860.4614,147.1563 1860.6489,147.0469 Q1860.8364,146.9375 1861.0552,146.9375 Q1861.4302,146.9375 1861.6646,147.2031 Q1861.8989,147.4531 1861.8989,148.0625 L1861.8989,149.5156 Q1861.8989,150.125 1861.6646,150.3906 Q1861.4302,150.6563 1861.0552,150.6563 Q1860.7114,150.6563 1860.5083,150.4531 Q1860.3052,150.2656 1860.1958,149.75 Q1860.1489,149.3906 1859.9614,149.2031 Q1859.6333,148.8281 1859.0239,148.6094 Q1858.4146,148.3906 1857.7896,148.3906 Q1857.0239,148.3906 1856.3833,148.7188 Q1855.7583,149.0469 1855.2583,149.7969 Q1854.7739,150.5469 1854.7739,151.5781 L1854.7739,152.6719 Q1854.7739,153.9063 1855.6646,154.7344 Q1856.5552,155.5469 1858.1489,155.5469 Q1859.0864,155.5469 1859.7427,155.2969 Q1860.1333,155.1406 1860.5552,154.7031 Q1860.8208,154.4375 1860.9614,154.3594 Q1861.1177,154.2813 1861.3208,154.2813 Q1861.6489,154.2813 1861.8989,154.5469 Q1862.1646,154.7969 1862.1646,155.1406 Q1862.1646,155.4844 1861.8208,155.8906 Q1861.3208,156.4688 1860.5239,156.7969 Q1859.4458,157.25 1858.1489,157.25 Q1856.6333,157.25 1855.4302,156.625 Q1854.4458,156.125 1853.7583,155.0625 Q1853.0708,153.9844 1853.0708,152.7031 L1853.0708,151.5469 Q1853.0708,150.2188 1853.6802,149.0781 Q1854.3052,147.9219 1855.3989,147.3125 Q1856.4927,146.6875 1857.7271,146.6875 Q1858.4614,146.6875 1859.1021,146.8594 Q1859.7583,147.0156 1860.3052,147.375 Z " fill="#000000"/><text fill="#000000" font-family="sans-serif" font-size="14" lengthAdjust="spacing" textLength="94.1719" x="1878.0396" y="157.2285">SingletonClient</text><line style="stroke:#181818;stroke-width:0.5;" x1="1807" x2="2010.751" y1="167.5" y2="167.5"/><line style="stroke:#181818;stroke-width:0.5;" x1="1807" x2="2010.751" y1="175.5" y2="175.5"/><ellipse cx="1817" cy="189.8047" fill="#84BE84" rx="3" ry="3" style="stroke:#038048;stroke-width:1;"/><text fill="#000000" font-family="sans-serif" font-size="14" lengthAdjust="spacing" textLength="103.4961" x="1826" y="194.0332">SingletonClient()</text><polygon fill="#4177AF" points="1817,203.4141,1813,209.4141,1821,209.4141" style="stroke:#1963A0;stroke-width:1;"/><text fill="#000000" font-family="sans-serif" font-size="14" lengthAdjust="spacing" text-decoration="underline" textLength="179.751" x="1826" y="211.6426">main(java/lang/String[]): Void</text></g><!--class Singleton--><g id="elem_Singleton"><rect codeLine="41" fill="#FF8888" height="111.5313" id="Singleton" rx="2.5" ry="2.5" style="stroke:#FF0000;stroke-width:0.5;" width="317.8398" x="1260" y="356.5"/><ellipse cx="1384.9766" cy="377.8516" fill="#ADD1B2" rx="11" ry="11" style="stroke:#181818;stroke-width:1;"/><path d="M1387.7422,373.7266 Q1387.8984,373.5078 1388.0859,373.3984 Q1388.2734,373.2891 1388.4922,373.2891 Q1388.8672,373.2891 1389.1016,373.5547 Q1389.3359,373.8047 1389.3359,374.4141 L1389.3359,375.8672 Q1389.3359,376.4766 1389.1016,376.7422 Q1388.8672,377.0078 1388.4922,377.0078 Q1388.1484,377.0078 1387.9453,376.8047 Q1387.7422,376.6172 1387.6328,376.1016 Q1387.5859,375.7422 1387.3984,375.5547 Q1387.0703,375.1797 1386.4609,374.9609 Q1385.8516,374.7422 1385.2266,374.7422 Q1384.4609,374.7422 1383.8203,375.0703 Q1383.1953,375.3984 1382.6953,376.1484 Q1382.2109,376.8984 1382.2109,377.9297 L1382.2109,379.0234 Q1382.2109,380.2578 1383.1016,381.0859 Q1383.9922,381.8984 1385.5859,381.8984 Q1386.5234,381.8984 1387.1797,381.6484 Q1387.5703,381.4922 1387.9922,381.0547 Q1388.2578,380.7891 1388.3984,380.7109 Q1388.5547,380.6328 1388.7578,380.6328 Q1389.0859,380.6328 1389.3359,380.8984 Q1389.6016,381.1484 1389.6016,381.4922 Q1389.6016,381.8359 1389.2578,382.2422 Q1388.7578,382.8203 1387.9609,383.1484 Q1386.8828,383.6016 1385.5859,383.6016 Q1384.0703,383.6016 1382.8672,382.9766 Q1381.8828,382.4766 1381.1953,381.4141 Q1380.5078,380.3359 1380.5078,379.0547 L1380.5078,377.8984 Q1380.5078,376.5703 1381.1172,375.4297 Q1381.7422,374.2734 1382.8359,373.6641 Q1383.9297,373.0391 1385.1641,373.0391 Q1385.8984,373.0391 1386.5391,373.2109 Q1387.1953,373.3672 1387.7422,373.7266 Z " fill="#000000"/><text fill="#000000" font-family="sans-serif" font-size="12" font-style="italic" lengthAdjust="spacing" textLength="63.3867" x="1403.4766" y="373.957">&#171;Singleton&#187;</text><text fill="#000000" font-family="sans-serif" font-size="14" lengthAdjust="spacing" textLength="58.3789" x="1405.9805" y="391.127">Singleton</text><line style="stroke:#FF0000;stroke-width:0.5;" x1="1261" x2="1576.8398" y1="399.2031" y2="399.2031"/><line style="stroke:#FF0000;stroke-width:0.5;" x1="1261" x2="1576.8398" y1="407.2031" y2="407.2031"/><rect fill="#F24D5C" height="6" style="stroke:#C82930;stroke-width:1;" width="6" x="1268" y="418.5078"/><text fill="#000000" font-family="sans-serif" font-size="14" lengthAdjust="spacing" textLength="67.7031" x="1280" y="425.7363">Singleton()</text><polygon fill="#4177AF" points="1271,435.1172,1267,441.1172,1275,441.1172" style="stroke:#1963A0;stroke-width:1;"/><text fill="#000000" font-family="sans-serif" font-size="14" lengthAdjust="spacing" text-decoration="underline" textLength="291.8398" x="1280" y="443.3457">getInstance(): headfirst/singleton/stat/Singleton</text><polygon fill="#4177AF" points="1271,452.7266,1267,458.7266,1275,458.7266" style="stroke:#1963A0;stroke-width:1;"/><text fill="#000000" font-family="sans-serif" font-size="14" lengthAdjust="spacing" text-decoration="underline" textLength="67.7031" x="1280" y="460.9551">Singleton()</text></g><!--class SingletonClient--><g id="elem_SingletonClient"><rect codeLine="48" fill="#F1F1F1" height="83.2188" id="SingletonClient" rx="2.5" ry="2.5" style="stroke:#181818;stroke-width:0.5;" width="205.751" x="1316" y="135.5"/><ellipse cx="1367.5396" cy="151.5" fill="#ADD1B2" rx="11" ry="11" style="stroke:#181818;stroke-width:1;"/><path d="M1370.3052,147.375 Q1370.4614,147.1563 1370.6489,147.0469 Q1370.8364,146.9375 1371.0552,146.9375 Q1371.4302,146.9375 1371.6646,147.2031 Q1371.8989,147.4531 1371.8989,148.0625 L1371.8989,149.5156 Q1371.8989,150.125 1371.6646,150.3906 Q1371.4302,150.6563 1371.0552,150.6563 Q1370.7114,150.6563 1370.5083,150.4531 Q1370.3052,150.2656 1370.1958,149.75 Q1370.1489,149.3906 1369.9614,149.2031 Q1369.6333,148.8281 1369.0239,148.6094 Q1368.4146,148.3906 1367.7896,148.3906 Q1367.0239,148.3906 1366.3833,148.7188 Q1365.7583,149.0469 1365.2583,149.7969 Q1364.7739,150.5469 1364.7739,151.5781 L1364.7739,152.6719 Q1364.7739,153.9063 1365.6646,154.7344 Q1366.5552,155.5469 1368.1489,155.5469 Q1369.0864,155.5469 1369.7427,155.2969 Q1370.1333,155.1406 1370.5552,154.7031 Q1370.8208,154.4375 1370.9614,154.3594 Q1371.1177,154.2813 1371.3208,154.2813 Q1371.6489,154.2813 1371.8989,154.5469 Q1372.1646,154.7969 1372.1646,155.1406 Q1372.1646,155.4844 1371.8208,155.8906 Q1371.3208,156.4688 1370.5239,156.7969 Q1369.4458,157.25 1368.1489,157.25 Q1366.6333,157.25 1365.4302,156.625 Q1364.4458,156.125 1363.7583,155.0625 Q1363.0708,153.9844 1363.0708,152.7031 L1363.0708,151.5469 Q1363.0708,150.2188 1363.6802,149.0781 Q1364.3052,147.9219 1365.3989,147.3125 Q1366.4927,146.6875 1367.7271,146.6875 Q1368.4614,146.6875 1369.1021,146.8594 Q1369.7583,147.0156 1370.3052,147.375 Z " fill="#000000"/><text fill="#000000" font-family="sans-serif" font-size="14" lengthAdjust="spacing" textLength="94.1719" x="1388.0396" y="157.2285">SingletonClient</text><line style="stroke:#181818;stroke-width:0.5;" x1="1317" x2="1520.751" y1="167.5" y2="167.5"/><line style="stroke:#181818;stroke-width:0.5;" x1="1317" x2="1520.751" y1="175.5" y2="175.5"/><ellipse cx="1327" cy="189.8047" fill="#84BE84" rx="3" ry="3" style="stroke:#038048;stroke-width:1;"/><text fill="#000000" font-family="sans-serif" font-size="14" lengthAdjust="spacing" textLength="103.4961" x="1336" y="194.0332">SingletonClient()</text><polygon fill="#4177AF" points="1327,203.4141,1323,209.4141,1331,209.4141" style="stroke:#1963A0;stroke-width:1;"/><text fill="#000000" font-family="sans-serif" font-size="14" lengthAdjust="spacing" text-decoration="underline" textLength="179.751" x="1336" y="211.6426">main(java/lang/String[]): Void</text></g><!--class CoolerSingleton--><g id="elem_CoolerSingleton"><rect codeLine="55" fill="#F1F1F1" height="65.6094" id="CoolerSingleton" rx="2.5" ry="2.5" style="stroke:#181818;stroke-width:0.5;" width="134.9443" x="1050.5" y="144"/><ellipse cx="1066.9959" cy="160" fill="#ADD1B2" rx="11" ry="11" style="stroke:#181818;stroke-width:1;"/><path d="M1069.7615,155.875 Q1069.9178,155.6563 1070.1053,155.5469 Q1070.2928,155.4375 1070.5115,155.4375 Q1070.8865,155.4375 1071.1209,155.7031 Q1071.3553,155.9531 1071.3553,156.5625 L1071.3553,158.0156 Q1071.3553,158.625 1071.1209,158.8906 Q1070.8865,159.1563 1070.5115,159.1563 Q1070.1678,159.1563 1069.9646,158.9531 Q1069.7615,158.7656 1069.6521,158.25 Q1069.6053,157.8906 1069.4178,157.7031 Q1069.0896,157.3281 1068.4803,157.1094 Q1067.8709,156.8906 1067.2459,156.8906 Q1066.4803,156.8906 1065.8396,157.2188 Q1065.2146,157.5469 1064.7146,158.2969 Q1064.2303,159.0469 1064.2303,160.0781 L1064.2303,161.1719 Q1064.2303,162.4063 1065.1209,163.2344 Q1066.0115,164.0469 1067.6053,164.0469 Q1068.5428,164.0469 1069.199,163.7969 Q1069.5896,163.6406 1070.0115,163.2031 Q1070.2771,162.9375 1070.4178,162.8594 Q1070.574,162.7813 1070.7771,162.7813 Q1071.1053,162.7813 1071.3553,163.0469 Q1071.6209,163.2969 1071.6209,163.6406 Q1071.6209,163.9844 1071.2771,164.3906 Q1070.7771,164.9688 1069.9803,165.2969 Q1068.9021,165.75 1067.6053,165.75 Q1066.0896,165.75 1064.8865,165.125 Q1063.9021,164.625 1063.2146,163.5625 Q1062.5271,162.4844 1062.5271,161.2031 L1062.5271,160.0469 Q1062.5271,158.7188 1063.1365,157.5781 Q1063.7615,156.4219 1064.8553,155.8125 Q1065.949,155.1875 1067.1834,155.1875 Q1067.9178,155.1875 1068.5584,155.3594 Q1069.2146,155.5156 1069.7615,155.875 Z " fill="#000000"/><text fill="#000000" font-family="sans-serif" font-size="14" lengthAdjust="spacing" textLength="99.6201" x="1081.3283" y="165.7285">CoolerSingleton</text><line style="stroke:#181818;stroke-width:0.5;" x1="1051.5" x2="1184.4443" y1="176" y2="176"/><line style="stroke:#181818;stroke-width:0.5;" x1="1051.5" x2="1184.4443" y1="184" y2="184"/><rect fill="#F24D5C" height="6" style="stroke:#C82930;stroke-width:1;" width="6" x="1058.5" y="195.3047"/><text fill="#000000" font-family="sans-serif" font-size="14" lengthAdjust="spacing" textLength="108.9443" x="1070.5" y="202.5332">CoolerSingleton()</text></g><!--class Singleton--><g id="elem_Singleton"><rect codeLine="68" fill="#FF8888" height="93.9219" id="Singleton" rx="2.5" ry="2.5" style="stroke:#FF0000;stroke-width:0.5;" width="349.7432" x="736" y="365.5"/><ellipse cx="876.9282" cy="386.8516" fill="#ADD1B2" rx="11" ry="11" style="stroke:#181818;stroke-width:1;"/><path d="M879.6938,382.7266 Q879.8501,382.5078 880.0376,382.3984 Q880.2251,382.2891 880.4438,382.2891 Q880.8188,382.2891 881.0532,382.5547 Q881.2876,382.8047 881.2876,383.4141 L881.2876,384.8672 Q881.2876,385.4766 881.0532,385.7422 Q880.8188,386.0078 880.4438,386.0078 Q880.1001,386.0078 879.897,385.8047 Q879.6938,385.6172 879.5845,385.1016 Q879.5376,384.7422 879.3501,384.5547 Q879.022,384.1797 878.4126,383.9609 Q877.8032,383.7422 877.1782,383.7422 Q876.4126,383.7422 875.772,384.0703 Q875.147,384.3984 874.647,385.1484 Q874.1626,385.8984 874.1626,386.9297 L874.1626,388.0234 Q874.1626,389.2578 875.0532,390.0859 Q875.9438,390.8984 877.5376,390.8984 Q878.4751,390.8984 879.1313,390.6484 Q879.522,390.4922 879.9438,390.0547 Q880.2095,389.7891 880.3501,389.7109 Q880.5063,389.6328 880.7095,389.6328 Q881.0376,389.6328 881.2876,389.8984 Q881.5532,390.1484 881.5532,390.4922 Q881.5532,390.8359 881.2095,391.2422 Q880.7095,391.8203 879.9126,392.1484 Q878.8345,392.6016 877.5376,392.6016 Q876.022,392.6016 874.8188,391.9766 Q873.8345,391.4766 873.147,390.4141 Q872.4595,389.3359 872.4595,388.0547 L872.4595,386.8984 Q872.4595,385.5703 873.0688,384.4297 Q873.6938,383.2734 874.7876,382.6641 Q875.8813,382.0391 877.1157,382.0391 Q877.8501,382.0391 878.4907,382.2109 Q879.147,382.3672 879.6938,382.7266 Z " fill="#000000"/><text fill="#000000" font-family="sans-serif" font-size="12" font-style="italic" lengthAdjust="spacing" textLength="63.3867" x="895.4282" y="382.957">&#171;Singleton&#187;</text><text fill="#000000" font-family="sans-serif" font-size="14" lengthAdjust="spacing" textLength="58.3789" x="897.9321" y="400.127">Singleton</text><line style="stroke:#FF0000;stroke-width:0.5;" x1="737" x2="1084.7432" y1="408.2031" y2="408.2031"/><line style="stroke:#FF0000;stroke-width:0.5;" x1="737" x2="1084.7432" y1="416.2031" y2="416.2031"/><polygon fill="#FFFF44" points="747,425.5078,751,429.5078,747,433.5078,743,429.5078" style="stroke:#B38D22;stroke-width:1;"/><text fill="#000000" font-family="sans-serif" font-size="14" lengthAdjust="spacing" textLength="67.7031" x="756" y="434.7363">Singleton()</text><polygon fill="#4177AF" points="747,444.1172,743,450.1172,751,450.1172" style="stroke:#1963A0;stroke-width:1;"/><text fill="#000000" font-family="sans-serif" font-size="14" lengthAdjust="spacing" text-decoration="underline" textLength="323.7432" x="756" y="452.3457">getInstance(): headfirst/singleton/subclass/Singleton</text></g><!--class HotterSingleton--><g id="elem_HotterSingleton"><rect codeLine="62" fill="#F1F1F1" height="65.6094" id="HotterSingleton" rx="2.5" ry="2.5" style="stroke:#181818;stroke-width:0.5;" width="131.8271" x="865" y="144"/><ellipse cx="881.4959" cy="160" fill="#ADD1B2" rx="11" ry="11" style="stroke:#181818;stroke-width:1;"/><path d="M884.2615,155.875 Q884.4178,155.6563 884.6053,155.5469 Q884.7928,155.4375 885.0115,155.4375 Q885.3865,155.4375 885.6209,155.7031 Q885.8553,155.9531 885.8553,156.5625 L885.8553,158.0156 Q885.8553,158.625 885.6209,158.8906 Q885.3865,159.1563 885.0115,159.1563 Q884.6678,159.1563 884.4646,158.9531 Q884.2615,158.7656 884.1521,158.25 Q884.1053,157.8906 883.9178,157.7031 Q883.5896,157.3281 882.9803,157.1094 Q882.3709,156.8906 881.7459,156.8906 Q880.9803,156.8906 880.3396,157.2188 Q879.7146,157.5469 879.2146,158.2969 Q878.7303,159.0469 878.7303,160.0781 L878.7303,161.1719 Q878.7303,162.4063 879.6209,163.2344 Q880.5115,164.0469 882.1053,164.0469 Q883.0428,164.0469 883.699,163.7969 Q884.0896,163.6406 884.5115,163.2031 Q884.7771,162.9375 884.9178,162.8594 Q885.074,162.7813 885.2771,162.7813 Q885.6053,162.7813 885.8553,163.0469 Q886.1209,163.2969 886.1209,163.6406 Q886.1209,163.9844 885.7771,164.3906 Q885.2771,164.9688 884.4803,165.2969 Q883.4021,165.75 882.1053,165.75 Q880.5896,165.75 879.3865,165.125 Q878.4021,164.625 877.7146,163.5625 Q877.0271,162.4844 877.0271,161.2031 L877.0271,160.0469 Q877.0271,158.7188 877.6365,157.5781 Q878.2615,156.4219 879.3553,155.8125 Q880.449,155.1875 881.6834,155.1875 Q882.4178,155.1875 883.0584,155.3594 Q883.7146,155.5156 884.2615,155.875 Z " fill="#000000"/><text fill="#000000" font-family="sans-serif" font-size="14" lengthAdjust="spacing" textLength="96.5029" x="895.8283" y="165.7285">HotterSingleton</text><line style="stroke:#181818;stroke-width:0.5;" x1="866" x2="995.8271" y1="176" y2="176"/><line style="stroke:#181818;stroke-width:0.5;" x1="866" x2="995.8271" y1="184" y2="184"/><rect fill="#F24D5C" height="6" style="stroke:#C82930;stroke-width:1;" width="6" x="873" y="195.3047"/><text fill="#000000" font-family="sans-serif" font-size="14" lengthAdjust="spacing" textLength="105.8271" x="885" y="202.5332">HotterSingleton()</text></g><!--class SingletonTestDrive--><g id="elem_SingletonTestDrive"><rect codeLine="74" fill="#F1F1F1" height="83.2188" id="SingletonTestDrive" rx="2.5" ry="2.5" style="stroke:#181818;stroke-width:0.5;" width="205.751" x="606" y="135.5"/><ellipse cx="645.964" cy="151.5" fill="#ADD1B2" rx="11" ry="11" style="stroke:#181818;stroke-width:1;"/><path d="M648.7296,147.375 Q648.8859,147.1563 649.0734,147.0469 Q649.2609,146.9375 649.4796,146.9375 Q649.8546,146.9375 650.089,147.2031 Q650.3234,147.4531 650.3234,148.0625 L650.3234,149.5156 Q650.3234,150.125 650.089,150.3906 Q649.8546,150.6563 649.4796,150.6563 Q649.1359,150.6563 648.9328,150.4531 Q648.7296,150.2656 648.6203,149.75 Q648.5734,149.3906 648.3859,149.2031 Q648.0578,148.8281 647.4484,148.6094 Q646.839,148.3906 646.214,148.3906 Q645.4484,148.3906 644.8078,148.7188 Q644.1828,149.0469 643.6828,149.7969 Q643.1984,150.5469 643.1984,151.5781 L643.1984,152.6719 Q643.1984,153.9063 644.089,154.7344 Q644.9796,155.5469 646.5734,155.5469 Q647.5109,155.5469 648.1671,155.2969 Q648.5578,155.1406 648.9796,154.7031 Q649.2453,154.4375 649.3859,154.3594 Q649.5421,154.2813 649.7453,154.2813 Q650.0734,154.2813 650.3234,154.5469 Q650.589,154.7969 650.589,155.1406 Q650.589,155.4844 650.2453,155.8906 Q649.7453,156.4688 648.9484,156.7969 Q647.8703,157.25 646.5734,157.25 Q645.0578,157.25 643.8546,156.625 Q642.8703,156.125 642.1828,155.0625 Q641.4953,153.9844 641.4953,152.7031 L641.4953,151.5469 Q641.4953,150.2188 642.1046,149.0781 Q642.7296,147.9219 643.8234,147.3125 Q644.9171,146.6875 646.1515,146.6875 Q646.8859,146.6875 647.5265,146.8594 Q648.1828,147.0156 648.7296,147.375 Z " fill="#000000"/><text fill="#000000" font-family="sans-serif" font-size="14" lengthAdjust="spacing" textLength="118.2754" x="665.5116" y="157.2285">SingletonTestDrive</text><line style="stroke:#181818;stroke-width:0.5;" x1="607" x2="810.751" y1="167.5" y2="167.5"/><line style="stroke:#181818;stroke-width:0.5;" x1="607" x2="810.751" y1="175.5" y2="175.5"/><ellipse cx="617" cy="189.8047" fill="#84BE84" rx="3" ry="3" style="stroke:#038048;stroke-width:1;"/><text fill="#000000" font-family="sans-serif" font-size="14" lengthAdjust="spacing" textLength="127.5996" x="626" y="194.0332">SingletonTestDrive()</text><polygon fill="#4177AF" points="617,203.4141,613,209.4141,621,209.4141" style="stroke:#1963A0;stroke-width:1;"/><text fill="#000000" font-family="sans-serif" font-size="14" lengthAdjust="spacing" text-decoration="underline" textLength="179.751" x="626" y="211.6426">main(java/lang/String[]): Void</text></g><!--class Singleton--><g id="elem_Singleton"><rect codeLine="81" fill="#FF8888" height="93.9219" id="Singleton" rx="2.5" ry="2.5" style="stroke:#FF0000;stroke-width:0.5;" width="361.4326" x="70.5" y="130"/><ellipse cx="217.2729" cy="151.3516" fill="#ADD1B2" rx="11" ry="11" style="stroke:#181818;stroke-width:1;"/><path d="M220.0386,147.2266 Q220.1948,147.0078 220.3823,146.8984 Q220.5698,146.7891 220.7886,146.7891 Q221.1636,146.7891 221.3979,147.0547 Q221.6323,147.3047 221.6323,147.9141 L221.6323,149.3672 Q221.6323,149.9766 221.3979,150.2422 Q221.1636,150.5078 220.7886,150.5078 Q220.4448,150.5078 220.2417,150.3047 Q220.0386,150.1172 219.9292,149.6016 Q219.8823,149.2422 219.6948,149.0547 Q219.3667,148.6797 218.7573,148.4609 Q218.1479,148.2422 217.5229,148.2422 Q216.7573,148.2422 216.1167,148.5703 Q215.4917,148.8984 214.9917,149.6484 Q214.5073,150.3984 214.5073,151.4297 L214.5073,152.5234 Q214.5073,153.7578 215.3979,154.5859 Q216.2886,155.3984 217.8823,155.3984 Q218.8198,155.3984 219.4761,155.1484 Q219.8667,154.9922 220.2886,154.5547 Q220.5542,154.2891 220.6948,154.2109 Q220.8511,154.1328 221.0542,154.1328 Q221.3823,154.1328 221.6323,154.3984 Q221.8979,154.6484 221.8979,154.9922 Q221.8979,155.3359 221.5542,155.7422 Q221.0542,156.3203 220.2573,156.6484 Q219.1792,157.1016 217.8823,157.1016 Q216.3667,157.1016 215.1636,156.4766 Q214.1792,155.9766 213.4917,154.9141 Q212.8042,153.8359 212.8042,152.5547 L212.8042,151.3984 Q212.8042,150.0703 213.4136,148.9297 Q214.0386,147.7734 215.1323,147.1641 Q216.2261,146.5391 217.4604,146.5391 Q218.1948,146.5391 218.8354,146.7109 Q219.4917,146.8672 220.0386,147.2266 Z " fill="#000000"/><text fill="#000000" font-family="sans-serif" font-size="12" font-style="italic" lengthAdjust="spacing" textLength="63.3867" x="235.7729" y="147.457">&#171;Singleton&#187;</text><text fill="#000000" font-family="sans-serif" font-size="14" lengthAdjust="spacing" textLength="58.3789" x="238.2769" y="164.627">Singleton</text><line style="stroke:#FF0000;stroke-width:0.5;" x1="71.5" x2="430.9326" y1="172.7031" y2="172.7031"/><line style="stroke:#FF0000;stroke-width:0.5;" x1="71.5" x2="430.9326" y1="180.7031" y2="180.7031"/><rect fill="#F24D5C" height="6" style="stroke:#C82930;stroke-width:1;" width="6" x="78.5" y="192.0078"/><text fill="#000000" font-family="sans-serif" font-size="14" lengthAdjust="spacing" textLength="67.7031" x="90.5" y="199.2363">Singleton()</text><polygon fill="#4177AF" points="81.5,208.6172,77.5,214.6172,85.5,214.6172" style="stroke:#1963A0;stroke-width:1;"/><text fill="#000000" font-family="sans-serif" font-size="14" lengthAdjust="spacing" text-decoration="underline" textLength="335.4326" x="90.5" y="216.8457">getInstance(): headfirst/singleton/threadsafe/Singleton</text></g><!--link ChocolateBoiler to ChocolateBoiler--><g id="link_ChocolateBoiler_ChocolateBoiler"><path codeLine="13" d="M3148.03,389.64 C3169.31,394.05 3183,401.66 3183,412.5 C3183,423.34 3175.1852,429.7324 3153.9052,434.1424 " fill="transparent" id="ChocolateBoiler-to-ChocolateBoiler" style="stroke:#181818;stroke-width:1;"/><polygon fill="#181818" points="3148.03,435.36,3157.6544,437.4505,3152.926,434.3454,3156.031,429.6169,3148.03,435.36" style="stroke:#181818;stroke-width:1;"/><text fill="#000000" font-family="sans-serif" font-size="13" lengthAdjust="spacing" textLength="88.1816" x="3189" y="417.9951">uniqueInstance</text><text fill="#000000" font-family="sans-serif" font-size="13" lengthAdjust="spacing" textLength="7.23" x="3155.9134" y="385.9329">1</text><text fill="#000000" font-family="sans-serif" font-size="13" lengthAdjust="spacing" textLength="7.23" x="3155.9134" y="433.4388">1</text></g><!--link ChocolateController to ChocolateController--><g id="link_ChocolateController_ChocolateController"><path codeLine="19" d="M3053.21,161.21 C3073.54,163.01 3088,168.28 3088,177 C3088,185.72 3079.5166,190.4608 3059.1866,192.2608 " fill="transparent" id="ChocolateController-to-ChocolateController" style="stroke:#181818;stroke-width:1;stroke-dasharray:7.0,7.0;"/><polygon fill="#181818" points="3053.21,192.79,3062.5277,195.9807,3058.1905,192.349,3061.8222,188.0118,3053.21,192.79" style="stroke:#181818;stroke-width:1;"/></g><!--link ChocolateController to ChocolateBoiler--><g id="link_ChocolateController_ChocolateBoiler"><path codeLine="20" d="M2950,218.67 C2950,242.39 2950,267.52 2950,297.83 " fill="transparent" id="ChocolateController-to-ChocolateBoiler" style="stroke:#181818;stroke-width:1;stroke-dasharray:7.0,7.0;"/><polygon fill="#181818" points="2950,303.83,2954,294.83,2950,298.83,2946,294.83,2950,303.83" style="stroke:#181818;stroke-width:1;"/></g><!--link Singleton to Singleton--><g id="link_Singleton_Singleton"><path codeLine="26" d="M2577.82,162.68 C2598.75,165.22 2612.5,170 2612.5,177 C2612.5,184 2604.7063,188.0572 2583.7763,190.5972 " fill="transparent" id="Singleton-to-Singleton" style="stroke:#181818;stroke-width:1;"/><polygon fill="#181818" points="2577.82,191.32,2587.2363,194.2066,2582.7836,190.7176,2586.2726,186.2649,2577.82,191.32" style="stroke:#181818;stroke-width:1;"/><text fill="#000000" font-family="sans-serif" font-size="13" lengthAdjust="spacing" textLength="88.1816" x="2618.5" y="182.4951">uniqueInstance</text><text fill="#000000" font-family="sans-serif" font-size="13" lengthAdjust="spacing" textLength="7.23" x="2585.6271" y="159.1735">1</text><text fill="#000000" font-family="sans-serif" font-size="13" lengthAdjust="spacing" textLength="7.23" x="2585.6271" y="189.1112">1</text></g><!--link Singleton to Singleton--><g id="link_Singleton_Singleton"><path codeLine="32" d="M2065.66,388.29 C2086.59,392.38 2100.5,400.45 2100.5,412.5 C2100.5,424.55 2092.4786,431.4693 2071.5486,435.5593 " fill="transparent" id="Singleton-to-Singleton-1" style="stroke:#181818;stroke-width:1;"/><polygon fill="#181818" points="2065.66,436.71,2075.2601,438.9097,2070.5672,435.7511,2073.7258,431.0582,2065.66,436.71" style="stroke:#181818;stroke-width:1;"/><text fill="#000000" font-family="sans-serif" font-size="13" lengthAdjust="spacing" textLength="88.1816" x="2106.5" y="417.9951">uniqueInstance</text><text fill="#000000" font-family="sans-serif" font-size="13" lengthAdjust="spacing" textLength="7.23" x="2073.9198" y="384.1354">1</text><text fill="#000000" font-family="sans-serif" font-size="13" lengthAdjust="spacing" textLength="7.23" x="2073.9198" y="435.052">1</text></g><!--link SingletonClient to SingletonClient--><g id="link_SingletonClient_SingletonClient"><path codeLine="38" d="M2012.21,161.21 C2032.54,163.01 2047,168.28 2047,177 C2047,185.72 2038.5166,190.4608 2018.1866,192.2608 " fill="transparent" id="SingletonClient-to-SingletonClient" style="stroke:#181818;stroke-width:1;stroke-dasharray:7.0,7.0;"/><polygon fill="#181818" points="2012.21,192.79,2021.5277,195.9807,2017.1905,192.349,2020.8222,188.0118,2012.21,192.79" style="stroke:#181818;stroke-width:1;"/></g><!--link SingletonClient to Singleton--><g id="link_SingletonClient_Singleton"><path codeLine="39" d="M1909,218.67 C1909,259.57 1909,316.53 1909,359.29 " fill="transparent" id="SingletonClient-to-Singleton" style="stroke:#181818;stroke-width:1;stroke-dasharray:7.0,7.0;"/><polygon fill="#181818" points="1909,365.29,1913,356.29,1909,360.29,1905,356.29,1909,365.29" style="stroke:#181818;stroke-width:1;"/></g><!--link Singleton to Singleton--><g id="link_Singleton_Singleton"><path codeLine="46" d="M1578.08,388.36 C1599.08,392.48 1613,400.52 1613,412.5 C1613,424.48 1604.9678,431.3649 1583.9678,435.4849 " fill="transparent" id="Singleton-to-Singleton-2" style="stroke:#181818;stroke-width:1;"/><polygon fill="#181818" points="1578.08,436.64,1587.6817,438.8325,1582.9865,435.6774,1586.1416,430.9821,1578.08,436.64" style="stroke:#181818;stroke-width:1;"/><text fill="#000000" font-family="sans-serif" font-size="13" lengthAdjust="spacing" textLength="88.1816" x="1619" y="417.9951">uniqueInstance</text><text fill="#000000" font-family="sans-serif" font-size="13" lengthAdjust="spacing" textLength="7.23" x="1585.9644" y="384.3182">1</text><text fill="#000000" font-family="sans-serif" font-size="13" lengthAdjust="spacing" textLength="7.23" x="1585.9644" y="434.9368">1</text></g><!--link SingletonClient to SingletonClient--><g id="link_SingletonClient_SingletonClient"><path codeLine="52" d="M1522.21,161.21 C1542.54,163.01 1557,168.28 1557,177 C1557,185.72 1548.5166,190.4608 1528.1866,192.2608 " fill="transparent" id="SingletonClient-to-SingletonClient-1" style="stroke:#181818;stroke-width:1;stroke-dasharray:7.0,7.0;"/><polygon fill="#181818" points="1522.21,192.79,1531.5277,195.9807,1527.1905,192.349,1530.8222,188.0118,1522.21,192.79" style="stroke:#181818;stroke-width:1;"/></g><!--link SingletonClient to Singleton--><g id="link_SingletonClient_Singleton"><path codeLine="53" d="M1419,218.67 C1419,256.83 1419,308.18 1419,350.42 " fill="transparent" id="SingletonClient-to-Singleton-1" style="stroke:#181818;stroke-width:1;stroke-dasharray:7.0,7.0;"/><polygon fill="#181818" points="1419,356.42,1423,347.42,1419,351.42,1415,347.42,1419,356.42" style="stroke:#181818;stroke-width:1;"/></g><!--link CoolerSingleton to Singleton--><g id="link_CoolerSingleton_Singleton"><path codeLine="58" d="M1085.66,210.13 C1071.96,224.02 1055.97,240.59 1042,256 C1009.53,291.83 985.7187,319.9437 959.9787,351.2637 " fill="transparent" id="CoolerSingleton-to-Singleton" style="stroke:#181818;stroke-width:1;"/><polygon fill="transparent" points="948.55,365.17,964.6141,355.0733,955.3433,347.4542,948.55,365.17" style="stroke:#181818;stroke-width:1;"/><text fill="#000000" font-family="sans-serif" font-size="13" lengthAdjust="spacing" textLength="7.23" x="1072.3014" y="231.0175">1</text><text fill="#000000" font-family="sans-serif" font-size="13" lengthAdjust="spacing" textLength="7.23" x="946.5868" y="354.5701">1</text></g><!--link CoolerSingleton to Singleton--><g id="link_CoolerSingleton_Singleton"><path codeLine="59" d="M1094.54,210.27 C1080.4,229.25 1061.75,253.46 1044,274 C1016.74,305.53 988.4869,334.9517 962.4369,361.0717 " fill="transparent" id="CoolerSingleton-to-Singleton-1" style="stroke:#181818;stroke-width:1;"/><polygon fill="#181818" points="958.2,365.32,967.3876,361.7721,961.7308,361.7797,961.7232,356.1229,958.2,365.32" style="stroke:#181818;stroke-width:1;"/><text fill="#000000" font-family="sans-serif" font-size="13" lengthAdjust="spacing" textLength="88.1816" x="1060" y="270.4951">uniqueInstance</text><text fill="#000000" font-family="sans-serif" font-size="13" lengthAdjust="spacing" textLength="7.23" x="1082.7632" y="231.1824">1</text><text fill="#000000" font-family="sans-serif" font-size="13" lengthAdjust="spacing" textLength="7.23" x="957.6542" y="354.7421">1</text></g><!--link CoolerSingleton to CoolerSingleton--><g id="link_CoolerSingleton_CoolerSingleton"><path codeLine="60" d="M1185.53,160.55 C1205.23,161.12 1220.5,166.6 1220.5,177 C1220.5,187.4 1211.2275,192.7065 1191.5275,193.2765 " fill="transparent" id="CoolerSingleton-to-CoolerSingleton" style="stroke:#181818;stroke-width:1;stroke-dasharray:7.0,7.0;"/><polygon fill="#181818" points="1185.53,193.45,1194.6419,197.188,1190.5279,193.3054,1194.4105,189.1914,1185.53,193.45" style="stroke:#181818;stroke-width:1;"/></g><!--link HotterSingleton to Singleton--><g id="link_HotterSingleton_Singleton"><path codeLine="65" d="M928.22,210.47 C924.77,250.69 920.417,301.5657 916.497,347.3057 " fill="transparent" id="HotterSingleton-to-Singleton" style="stroke:#181818;stroke-width:1;"/><polygon fill="transparent" points="914.96,365.24,922.4751,347.8181,910.5189,346.7934,914.96,365.24" style="stroke:#181818;stroke-width:1;"/><text fill="#000000" font-family="sans-serif" font-size="13" lengthAdjust="spacing" textLength="7.23" x="920.1752" y="231.1566">1</text><text fill="#000000" font-family="sans-serif" font-size="13" lengthAdjust="spacing" textLength="7.23" x="908.0633" y="354.6504">1</text></g><!--link HotterSingleton to HotterSingleton--><g id="link_HotterSingleton_HotterSingleton"><path codeLine="66" d="M997.05,160.54 C1016.71,161.03 1032,166.52 1032,177 C1032,187.48 1022.7081,192.8205 1003.0481,193.3105 " fill="transparent" id="HotterSingleton-to-HotterSingleton" style="stroke:#181818;stroke-width:1;stroke-dasharray:7.0,7.0;"/><polygon fill="#181818" points="997.05,193.46,1006.1469,197.2345,1002.0484,193.3354,1005.9475,189.237,997.05,193.46" style="stroke:#181818;stroke-width:1;"/></g><!--link Singleton to Singleton--><g id="link_Singleton_Singleton"><path codeLine="72" d="M1086.39,388.97 C1107.33,393.25 1121,401.09 1121,412.5 C1121,423.91 1113.2085,430.5485 1092.2685,434.8285 " fill="transparent" id="Singleton-to-Singleton-3" style="stroke:#181818;stroke-width:1;"/><polygon fill="#181818" points="1086.39,436.03,1096.0087,438.1467,1091.2887,435.0287,1094.4067,430.3087,1086.39,436.03" style="stroke:#181818;stroke-width:1;"/><text fill="#000000" font-family="sans-serif" font-size="13" lengthAdjust="spacing" textLength="88.1816" x="1127" y="417.9951">uniqueInstance</text><text fill="#000000" font-family="sans-serif" font-size="13" lengthAdjust="spacing" textLength="7.23" x="1093.9472" y="385.144">1</text><text fill="#000000" font-family="sans-serif" font-size="13" lengthAdjust="spacing" textLength="7.23" x="1093.9472" y="434.1894">1</text></g><!--link SingletonTestDrive to SingletonTestDrive--><g id="link_SingletonTestDrive_SingletonTestDrive"><path codeLine="78" d="M812.21,161.21 C832.54,163.01 847,168.28 847,177 C847,185.72 838.5166,190.4608 818.1866,192.2608 " fill="transparent" id="SingletonTestDrive-to-SingletonTestDrive" style="stroke:#181818;stroke-width:1;stroke-dasharray:7.0,7.0;"/><polygon fill="#181818" points="812.21,192.79,821.5277,195.9807,817.1905,192.349,820.8222,188.0118,812.21,192.79" style="stroke:#181818;stroke-width:1;"/></g><!--link SingletonTestDrive to Singleton--><g id="link_SingletonTestDrive_Singleton"><path codeLine="79" d="M744.19,218.67 C779.57,259.57 830.1046,317.9923 867.0946,360.7523 " fill="transparent" id="SingletonTestDrive-to-Singleton" style="stroke:#181818;stroke-width:1;stroke-dasharray:7.0,7.0;"/><polygon fill="#181818" points="871.02,365.29,868.157,355.8664,867.7488,361.5086,862.1067,361.1003,871.02,365.29" style="stroke:#181818;stroke-width:1;"/></g><!--link Singleton to Singleton--><g id="link_Singleton_Singleton"><path codeLine="85" d="M431.79,162.92 C452.82,165.52 466.5,170.21 466.5,177 C466.5,183.79 458.7747,187.7438 437.7447,190.3438 " fill="transparent" id="Singleton-to-Singleton-4" style="stroke:#181818;stroke-width:1;"/><polygon fill="#181818" points="431.79,191.08,441.2128,193.9455,436.7522,190.4665,440.2312,186.0059,431.79,191.08" style="stroke:#181818;stroke-width:1;"/><text fill="#000000" font-family="sans-serif" font-size="13" lengthAdjust="spacing" textLength="88.1816" x="472.5" y="182.4951">uniqueInstance</text><text fill="#000000" font-family="sans-serif" font-size="13" lengthAdjust="spacing" textLength="7.23" x="440.136" y="159.4244">1</text><text fill="#000000" font-family="sans-serif" font-size="13" lengthAdjust="spacing" textLength="7.23" x="440.136" y="188.8604">1</text></g><!--SRC=[lLL1Jy8m5BxlLpHmWH2sU2FJxC3Kw1dZnNWeMu6QqcfNI0pYRtS5DhQkMoaEJj3NllTzxtlVseZ0904B1ECPvebm4qpd10b6tMZ18aQWG6wO_HipJ107TtUJx5GGT1z7erk2AV8vYi760MZvARvzC6QC84WTC9L9SI4mLEhr-WxO908A76t1xno9PvgkQ8HwVV_8pCkPUJapJwdaWC4C4oBpNXcEqsNC8QQ5jIHJMEBaGRALaPnU6jnLYulHhMCdKUUc0uR3OFThb-c35SLVAvI9u3YHpOX2HWLdH5PAPp7GnCjoBwK-7t0DFGBft9i8dbP_UyyaEhdl0gxh1lPiBujpi4UJb787HsxkR8FBX_cclNttK5vUeKxb2YMZgoePDcwA8tADzbCOO-jbAgQsowVFRZaa656n-soKM0kVZ0wfpi2Qi-tMR994jdaD6yYp1HyKaeirzM8g74t-K8xR6AISUb67QA7gngaxt7RLHbrMqzsc6ye7aX_5bQPGOlLZh2ko7-XFmqIpp2FPCm1iwbTTOmLOgtXDmadQFp4XLEsLc5bxjKZhsgi0HYcKX9EaEFN2wlxZmZfW6Hyl3Qas_6ObmmjAn3t7QrI-hF9m6_TL0wXnnjMS2s8qIISMF8qcS8QkyUWTqOmkqX8p-KYRL77I7m00]--></g></svg>