<svg xmlns="http://www.w3.org/2000/svg" xmlns:xlink="http://www.w3.org/1999/xlink" contentStyleType="text/css" data-diagram-type="CLASS" height="665px" preserveAspectRatio="none" style="width:3899px;height:665px;background:#FFFFFF;" version="1.1" viewBox="0 0 3899 665" width="3899px" zoomAndPan="magnify"><defs/><g><!--cluster headfirst--><g id="cluster_headfirst"><path d="M8.5,6 L68.624,6 A3.75,3.75 0 0 1 71.124,8.5 L78.124,29.6094 L3327.5,29.6094 A2.5,2.5 0 0 1 3330,32.1094 L3330,582.5 A2.5,2.5 0 0 1 3327.5,585 L8.5,585 A2.5,2.5 0 0 1 6,582.5 L6,8.5 A2.5,2.5 0 0 1 8.5,6 " fill="transparent" style="stroke:#000000;stroke-width:1.5;"/><line style="stroke:#000000;stroke-width:1.5;" x1="6" x2="78.124" y1="29.6094" y2="29.6094"/><text fill="#000000" font-family="sans-serif" font-size="14" font-weight="bold" lengthAdjust="spacing" textLength="59.124" x="10" y="22.5332">headfirst</text></g><!--cluster singleton--><g id="cluster_singleton"><path d="M32.5,50 L95.7207,50 A3.75,3.75 0 0 1 98.2207,52.5 L105.2207,73.6094 L3303.5,73.6094 A2.5,2.5 0 0 1 3306,76.1094 L3306,558.5 A2.5,2.5 0 0 1 3303.5,561 L32.5,561 A2.5,2.5 0 0 1 30,558.5 L30,52.5 A2.5,2.5 0 0 1 32.5,50 " fill="transparent" style="stroke:#000000;stroke-width:1.5;"/><line style="stroke:#000000;stroke-width:1.5;" x1="30" x2="105.2207" y1="73.6094" y2="73.6094"/><text fill="#000000" font-family="sans-serif" font-size="14" font-weight="bold" lengthAdjust="spacing" textLength="62.2207" x="34" y="66.5332">singleton</text></g><!--cluster chocolate--><g id="cluster_chocolate"><path d="M1690.5,99.5 L1756.8516,99.5 A3.75,3.75 0 0 1 1759.3516,102 L1766.3516,123.1094 L2231.5,123.1094 A2.5,2.5 0 0 1 2234,125.6094 L2234,534.5 A2.5,2.5 0 0 1 2231.5,537 L1690.5,537 A2.5,2.5 0 0 1 1688,534.5 L1688,102 A2.5,2.5 0 0 1 1690.5,99.5 " fill="transparent" style="stroke:#000000;stroke-width:1.5;"/><line style="stroke:#000000;stroke-width:1.5;" x1="1688" x2="1766.3516" y1="123.1094" y2="123.1094"/><text fill="#000000" font-family="sans-serif" font-size="14" font-weight="bold" lengthAdjust="spacing" textLength="65.3516" x="1692" y="116.0332">chocolate</text></g><!--cluster classic--><g id="cluster_classic"><path d="M2260.5,94 L2308.21,94 A3.75,3.75 0 0 1 2310.71,96.5 L2317.71,117.6094 L2743.5,117.6094 A2.5,2.5 0 0 1 2746,120.1094 L2746,237.5 A2.5,2.5 0 0 1 2743.5,240 L2260.5,240 A2.5,2.5 0 0 1 2258,237.5 L2258,96.5 A2.5,2.5 0 0 1 2260.5,94 " fill="transparent" style="stroke:#000000;stroke-width:1.5;"/><line style="stroke:#000000;stroke-width:1.5;" x1="2258" x2="2317.71" y1="117.6094" y2="117.6094"/><text fill="#000000" font-family="sans-serif" font-size="14" font-weight="bold" lengthAdjust="spacing" textLength="46.71" x="2262" y="110.5332">classic</text></g><!--cluster dcl--><g id="cluster_dcl"><path d="M56.5,99.5 L77.7275,99.5 A3.75,3.75 0 0 1 80.2275,102 L87.2275,123.1094 L515.5,123.1094 A2.5,2.5 0 0 1 518,125.6094 L518,473 A2.5,2.5 0 0 1 515.5,475.5 L56.5,475.5 A2.5,2.5 0 0 1 54,473 L54,102 A2.5,2.5 0 0 1 56.5,99.5 " fill="transparent" style="stroke:#000000;stroke-width:1.5;"/><line style="stroke:#000000;stroke-width:1.5;" x1="54" x2="87.2275" y1="123.1094" y2="123.1094"/><text fill="#000000" font-family="sans-serif" font-size="14" font-weight="bold" lengthAdjust="spacing" textLength="20.2275" x="58" y="116.0332">dcl</text></g><!--cluster stat--><g id="cluster_stat"><path d="M544.5,99.5 L570.3965,99.5 A3.75,3.75 0 0 1 572.8965,102 L579.8965,123.1094 L1007.5,123.1094 A2.5,2.5 0 0 1 1010,125.6094 L1010,482 A2.5,2.5 0 0 1 1007.5,484.5 L544.5,484.5 A2.5,2.5 0 0 1 542,482 L542,102 A2.5,2.5 0 0 1 544.5,99.5 " fill="transparent" style="stroke:#000000;stroke-width:1.5;"/><line style="stroke:#000000;stroke-width:1.5;" x1="542" x2="579.8965" y1="123.1094" y2="123.1094"/><text fill="#000000" font-family="sans-serif" font-size="14" font-weight="bold" lengthAdjust="spacing" textLength="24.8965" x="546" y="116.0332">stat</text></g><!--cluster subclass--><g id="cluster_subclass"><path d="M1036.5,99.5 L1097.4238,99.5 A3.75,3.75 0 0 1 1099.9238,102 L1106.9238,123.1094 L1661.5,123.1094 A2.5,2.5 0 0 1 1664,125.6094 L1664,473 A2.5,2.5 0 0 1 1661.5,475.5 L1036.5,475.5 A2.5,2.5 0 0 1 1034,473 L1034,102 A2.5,2.5 0 0 1 1036.5,99.5 " fill="transparent" style="stroke:#000000;stroke-width:1.5;"/><line style="stroke:#000000;stroke-width:1.5;" x1="1034" x2="1106.9238" y1="123.1094" y2="123.1094"/><text fill="#000000" font-family="sans-serif" font-size="14" font-weight="bold" lengthAdjust="spacing" textLength="59.9238" x="1038" y="116.0332">subclass</text></g><!--cluster threadsafe--><g id="cluster_threadsafe"><path d="M2772.5,94 L2844.3066,94 A3.75,3.75 0 0 1 2846.8066,96.5 L2853.8066,117.6094 L3279.5,117.6094 A2.5,2.5 0 0 1 3282,120.1094 L3282,237.5 A2.5,2.5 0 0 1 3279.5,240 L2772.5,240 A2.5,2.5 0 0 1 2770,237.5 L2770,96.5 A2.5,2.5 0 0 1 2772.5,94 " fill="transparent" style="stroke:#000000;stroke-width:1.5;"/><line style="stroke:#000000;stroke-width:1.5;" x1="2770" x2="2853.8066" y1="117.6094" y2="117.6094"/><text fill="#000000" font-family="sans-serif" font-size="14" font-weight="bold" lengthAdjust="spacing" textLength="70.8066" x="2774" y="110.5332">threadsafe</text></g><!--class ChocolateBoiler--><g id="elem_ChocolateBoiler"><rect codeLine="2" fill="#FF8888" height="217.1875" id="ChocolateBoiler" rx="2.5" ry="2.5" style="stroke:#FF0000;stroke-width:0.5;" width="395.6602" x="1704" y="304"/><ellipse cx="1848.1631" cy="325.3516" fill="#ADD1B2" rx="11" ry="11" style="stroke:#181818;stroke-width:1;"/><path d="M1850.9287,321.2266 Q1851.085,321.0078 1851.2725,320.8984 Q1851.46,320.7891 1851.6787,320.7891 Q1852.0537,320.7891 1852.2881,321.0547 Q1852.5225,321.3047 1852.5225,321.9141 L1852.5225,323.3672 Q1852.5225,323.9766 1852.2881,324.2422 Q1852.0537,324.5078 1851.6787,324.5078 Q1851.335,324.5078 1851.1318,324.3047 Q1850.9287,324.1172 1850.8193,323.6016 Q1850.7725,323.2422 1850.585,323.0547 Q1850.2568,322.6797 1849.6475,322.4609 Q1849.0381,322.2422 1848.4131,322.2422 Q1847.6475,322.2422 1847.0068,322.5703 Q1846.3818,322.8984 1845.8818,323.6484 Q1845.3975,324.3984 1845.3975,325.4297 L1845.3975,326.5234 Q1845.3975,327.7578 1846.2881,328.5859 Q1847.1787,329.3984 1848.7725,329.3984 Q1849.71,329.3984 1850.3662,329.1484 Q1850.7568,328.9922 1851.1787,328.5547 Q1851.4443,328.2891 1851.585,328.2109 Q1851.7412,328.1328 1851.9443,328.1328 Q1852.2725,328.1328 1852.5225,328.3984 Q1852.7881,328.6484 1852.7881,328.9922 Q1852.7881,329.3359 1852.4443,329.7422 Q1851.9443,330.3203 1851.1475,330.6484 Q1850.0693,331.1016 1848.7725,331.1016 Q1847.2568,331.1016 1846.0537,330.4766 Q1845.0693,329.9766 1844.3818,328.9141 Q1843.6943,327.8359 1843.6943,326.5547 L1843.6943,325.3984 Q1843.6943,324.0703 1844.3037,322.9297 Q1844.9287,321.7734 1846.0225,321.1641 Q1847.1162,320.5391 1848.3506,320.5391 Q1849.085,320.5391 1849.7256,320.7109 Q1850.3818,320.8672 1850.9287,321.2266 Z " fill="#000000"/><text fill="#000000" font-family="sans-serif" font-size="12" font-style="italic" lengthAdjust="spacing" textLength="63.3867" x="1886.3867" y="321.457">&#171;Singleton&#187;</text><text fill="#000000" font-family="sans-serif" font-size="14" lengthAdjust="spacing" textLength="98.834" x="1868.6631" y="338.627">ChocolateBoiler</text><line style="stroke:#FF0000;stroke-width:0.5;" x1="1705" x2="2098.6602" y1="346.7031" y2="346.7031"/><text fill="#000000" font-family="sans-serif" font-size="14" lengthAdjust="spacing" textLength="97.2822" x="1710" y="365.2363">empty: Boolean</text><text fill="#000000" font-family="sans-serif" font-size="14" lengthAdjust="spacing" textLength="96.5234" x="1710" y="382.8457">boiled: Boolean</text><line style="stroke:#FF0000;stroke-width:0.5;" x1="1705" x2="2098.6602" y1="389.9219" y2="389.9219"/><rect fill="#F24D5C" height="6" style="stroke:#C82930;stroke-width:1;" width="6" x="1712" y="401.2266"/><text fill="#000000" font-family="sans-serif" font-size="14" lengthAdjust="spacing" textLength="108.1582" x="1724" y="408.4551">ChocolateBoiler()</text><polygon fill="#4177AF" points="1715,417.8359,1711,423.8359,1719,423.8359" style="stroke:#1963A0;stroke-width:1;"/><text fill="#000000" font-family="sans-serif" font-size="14" lengthAdjust="spacing" text-decoration="underline" textLength="369.6602" x="1724" y="426.0645">getInstance(): headfirst/singleton/chocolate/ChocolateBoiler</text><ellipse cx="1715" cy="439.4453" fill="#84BE84" rx="3" ry="3" style="stroke:#038048;stroke-width:1;"/><text fill="#000000" font-family="sans-serif" font-size="14" lengthAdjust="spacing" textLength="58.3447" x="1724" y="443.6738">fill(): Void</text><ellipse cx="1715" cy="457.0547" fill="#84BE84" rx="3" ry="3" style="stroke:#038048;stroke-width:1;"/><text fill="#000000" font-family="sans-serif" font-size="14" lengthAdjust="spacing" textLength="76.2549" x="1724" y="461.2832">drain(): Void</text><ellipse cx="1715" cy="474.6641" fill="#84BE84" rx="3" ry="3" style="stroke:#038048;stroke-width:1;"/><text fill="#000000" font-family="sans-serif" font-size="14" lengthAdjust="spacing" textLength="66.917" x="1724" y="478.8926">boil(): Void</text><ellipse cx="1715" cy="492.2734" fill="#84BE84" rx="3" ry="3" style="stroke:#038048;stroke-width:1;"/><text fill="#000000" font-family="sans-serif" font-size="14" lengthAdjust="spacing" textLength="118.2686" x="1724" y="496.502">isEmpty(): Boolean</text><ellipse cx="1715" cy="509.8828" fill="#84BE84" rx="3" ry="3" style="stroke:#038048;stroke-width:1;"/><text fill="#000000" font-family="sans-serif" font-size="14" lengthAdjust="spacing" textLength="117.5098" x="1724" y="514.1113">isBoiled(): Boolean</text></g><!--class ChocolateController--><g id="elem_ChocolateController"><rect codeLine="15" fill="#F1F1F1" height="83.2188" id="ChocolateController" rx="2.5" ry="2.5" style="stroke:#181818;stroke-width:0.5;" width="205.751" x="1799" y="135.5"/><ellipse cx="1836.5092" cy="151.5" fill="#ADD1B2" rx="11" ry="11" style="stroke:#181818;stroke-width:1;"/><path d="M1839.2749,147.375 Q1839.4311,147.1563 1839.6186,147.0469 Q1839.8061,146.9375 1840.0249,146.9375 Q1840.3999,146.9375 1840.6342,147.2031 Q1840.8686,147.4531 1840.8686,148.0625 L1840.8686,149.5156 Q1840.8686,150.125 1840.6342,150.3906 Q1840.3999,150.6563 1840.0249,150.6563 Q1839.6811,150.6563 1839.478,150.4531 Q1839.2749,150.2656 1839.1655,149.75 Q1839.1186,149.3906 1838.9311,149.2031 Q1838.603,148.8281 1837.9936,148.6094 Q1837.3842,148.3906 1836.7592,148.3906 Q1835.9936,148.3906 1835.353,148.7188 Q1834.728,149.0469 1834.228,149.7969 Q1833.7436,150.5469 1833.7436,151.5781 L1833.7436,152.6719 Q1833.7436,153.9063 1834.6342,154.7344 Q1835.5249,155.5469 1837.1186,155.5469 Q1838.0561,155.5469 1838.7124,155.2969 Q1839.103,155.1406 1839.5249,154.7031 Q1839.7905,154.4375 1839.9311,154.3594 Q1840.0874,154.2813 1840.2905,154.2813 Q1840.6186,154.2813 1840.8686,154.5469 Q1841.1342,154.7969 1841.1342,155.1406 Q1841.1342,155.4844 1840.7905,155.8906 Q1840.2905,156.4688 1839.4936,156.7969 Q1838.4155,157.25 1837.1186,157.25 Q1835.603,157.25 1834.3999,156.625 Q1833.4155,156.125 1832.728,155.0625 Q1832.0405,153.9844 1832.0405,152.7031 L1832.0405,151.5469 Q1832.0405,150.2188 1832.6499,149.0781 Q1833.2749,147.9219 1834.3686,147.3125 Q1835.4624,146.6875 1836.6967,146.6875 Q1837.4311,146.6875 1838.0717,146.8594 Q1838.728,147.0156 1839.2749,147.375 Z " fill="#000000"/><text fill="#000000" font-family="sans-serif" font-size="14" lengthAdjust="spacing" textLength="123.7305" x="1855.5113" y="157.2285">ChocolateController</text><line style="stroke:#181818;stroke-width:0.5;" x1="1800" x2="2003.751" y1="167.5" y2="167.5"/><line style="stroke:#181818;stroke-width:0.5;" x1="1800" x2="2003.751" y1="175.5" y2="175.5"/><ellipse cx="1810" cy="189.8047" fill="#84BE84" rx="3" ry="3" style="stroke:#038048;stroke-width:1;"/><text fill="#000000" font-family="sans-serif" font-size="14" lengthAdjust="spacing" textLength="133.0547" x="1819" y="194.0332">ChocolateController()</text><polygon fill="#4177AF" points="1810,203.4141,1806,209.4141,1814,209.4141" style="stroke:#1963A0;stroke-width:1;"/><text fill="#000000" font-family="sans-serif" font-size="14" lengthAdjust="spacing" text-decoration="underline" textLength="179.751" x="1819" y="211.6426">main(java/lang/String[]): Void</text></g><!--class Singleton--><g id="elem_Singleton"><rect codeLine="22" fill="#FF8888" height="93.9219" id="Singleton" rx="2.5" ry="2.5" style="stroke:#FF0000;stroke-width:0.5;" width="337.2813" x="2274.5" y="130"/><ellipse cx="2409.1973" cy="151.3516" fill="#ADD1B2" rx="11" ry="11" style="stroke:#181818;stroke-width:1;"/><path d="M2411.9629,147.2266 Q2412.1191,147.0078 2412.3066,146.8984 Q2412.4941,146.7891 2412.7129,146.7891 Q2413.0879,146.7891 2413.3223,147.0547 Q2413.5566,147.3047 2413.5566,147.9141 L2413.5566,149.3672 Q2413.5566,149.9766 2413.3223,150.2422 Q2413.0879,150.5078 2412.7129,150.5078 Q2412.3691,150.5078 2412.166,150.3047 Q2411.9629,150.1172 2411.8535,149.6016 Q2411.8066,149.2422 2411.6191,149.0547 Q2411.291,148.6797 2410.6816,148.4609 Q2410.0723,148.2422 2409.4473,148.2422 Q2408.6816,148.2422 2408.041,148.5703 Q2407.416,148.8984 2406.916,149.6484 Q2406.4316,150.3984 2406.4316,151.4297 L2406.4316,152.5234 Q2406.4316,153.7578 2407.3223,154.5859 Q2408.2129,155.3984 2409.8066,155.3984 Q2410.7441,155.3984 2411.4004,155.1484 Q2411.791,154.9922 2412.2129,154.5547 Q2412.4785,154.2891 2412.6191,154.2109 Q2412.7754,154.1328 2412.9785,154.1328 Q2413.3066,154.1328 2413.5566,154.3984 Q2413.8223,154.6484 2413.8223,154.9922 Q2413.8223,155.3359 2413.4785,155.7422 Q2412.9785,156.3203 2412.1816,156.6484 Q2411.1035,157.1016 2409.8066,157.1016 Q2408.291,157.1016 2407.0879,156.4766 Q2406.1035,155.9766 2405.416,154.9141 Q2404.7285,153.8359 2404.7285,152.5547 L2404.7285,151.3984 Q2404.7285,150.0703 2405.3379,148.9297 Q2405.9629,147.7734 2407.0566,147.1641 Q2408.1504,146.5391 2409.3848,146.5391 Q2410.1191,146.5391 2410.7598,146.7109 Q2411.416,146.8672 2411.9629,147.2266 Z " fill="#000000"/><text fill="#000000" font-family="sans-serif" font-size="12" font-style="italic" lengthAdjust="spacing" textLength="63.3867" x="2427.6973" y="147.457">&#171;Singleton&#187;</text><text fill="#000000" font-family="sans-serif" font-size="14" lengthAdjust="spacing" textLength="58.3789" x="2430.2012" y="164.627">Singleton</text><line style="stroke:#FF0000;stroke-width:0.5;" x1="2275.5" x2="2610.7813" y1="172.7031" y2="172.7031"/><line style="stroke:#FF0000;stroke-width:0.5;" x1="2275.5" x2="2610.7813" y1="180.7031" y2="180.7031"/><rect fill="#F24D5C" height="6" style="stroke:#C82930;stroke-width:1;" width="6" x="2282.5" y="192.0078"/><text fill="#000000" font-family="sans-serif" font-size="14" lengthAdjust="spacing" textLength="67.7031" x="2294.5" y="199.2363">Singleton()</text><polygon fill="#4177AF" points="2285.5,208.6172,2281.5,214.6172,2289.5,214.6172" style="stroke:#1963A0;stroke-width:1;"/><text fill="#000000" font-family="sans-serif" font-size="14" lengthAdjust="spacing" text-decoration="underline" textLength="311.2813" x="2294.5" y="216.8457">getInstance(): headfirst/singleton/classic/Singleton</text></g><!--class Singleton--><g id="elem_Singleton"><rect codeLine="31" fill="#FF8888" height="93.9219" id="Singleton" rx="2.5" ry="2.5" style="stroke:#FF0000;stroke-width:0.5;" width="313.1709" x="70.5" y="365.5"/><ellipse cx="193.1421" cy="386.8516" fill="#ADD1B2" rx="11" ry="11" style="stroke:#181818;stroke-width:1;"/><path d="M195.9077,382.7266 Q196.064,382.5078 196.2515,382.3984 Q196.439,382.2891 196.6577,382.2891 Q197.0327,382.2891 197.2671,382.5547 Q197.5015,382.8047 197.5015,383.4141 L197.5015,384.8672 Q197.5015,385.4766 197.2671,385.7422 Q197.0327,386.0078 196.6577,386.0078 Q196.314,386.0078 196.1108,385.8047 Q195.9077,385.6172 195.7983,385.1016 Q195.7515,384.7422 195.564,384.5547 Q195.2358,384.1797 194.6265,383.9609 Q194.0171,383.7422 193.3921,383.7422 Q192.6265,383.7422 191.9858,384.0703 Q191.3608,384.3984 190.8608,385.1484 Q190.3765,385.8984 190.3765,386.9297 L190.3765,388.0234 Q190.3765,389.2578 191.2671,390.0859 Q192.1577,390.8984 193.7515,390.8984 Q194.689,390.8984 195.3452,390.6484 Q195.7358,390.4922 196.1577,390.0547 Q196.4233,389.7891 196.564,389.7109 Q196.7202,389.6328 196.9233,389.6328 Q197.2515,389.6328 197.5015,389.8984 Q197.7671,390.1484 197.7671,390.4922 Q197.7671,390.8359 197.4233,391.2422 Q196.9233,391.8203 196.1265,392.1484 Q195.0483,392.6016 193.7515,392.6016 Q192.2358,392.6016 191.0327,391.9766 Q190.0483,391.4766 189.3608,390.4141 Q188.6733,389.3359 188.6733,388.0547 L188.6733,386.8984 Q188.6733,385.5703 189.2827,384.4297 Q189.9077,383.2734 191.0015,382.6641 Q192.0952,382.0391 193.3296,382.0391 Q194.064,382.0391 194.7046,382.2109 Q195.3608,382.3672 195.9077,382.7266 Z " fill="#000000"/><text fill="#000000" font-family="sans-serif" font-size="12" font-style="italic" lengthAdjust="spacing" textLength="63.3867" x="211.6421" y="382.957">&#171;Singleton&#187;</text><text fill="#000000" font-family="sans-serif" font-size="14" lengthAdjust="spacing" textLength="58.3789" x="214.146" y="400.127">Singleton</text><line style="stroke:#FF0000;stroke-width:0.5;" x1="71.5" x2="382.6709" y1="408.2031" y2="408.2031"/><line style="stroke:#FF0000;stroke-width:0.5;" x1="71.5" x2="382.6709" y1="416.2031" y2="416.2031"/><rect fill="#F24D5C" height="6" style="stroke:#C82930;stroke-width:1;" width="6" x="78.5" y="427.5078"/><text fill="#000000" font-family="sans-serif" font-size="14" lengthAdjust="spacing" textLength="67.7031" x="90.5" y="434.7363">Singleton()</text><polygon fill="#4177AF" points="81.5,444.1172,77.5,450.1172,85.5,450.1172" style="stroke:#1963A0;stroke-width:1;"/><text fill="#000000" font-family="sans-serif" font-size="14" lengthAdjust="spacing" text-decoration="underline" textLength="287.1709" x="90.5" y="452.3457">getInstance(): headfirst/singleton/dcl/Singleton</text></g><!--class SingletonClient--><g id="elem_SingletonClient"><rect codeLine="40" fill="#F1F1F1" height="83.2188" id="SingletonClient" rx="2.5" ry="2.5" style="stroke:#181818;stroke-width:0.5;" width="205.751" x="124" y="135.5"/><ellipse cx="175.5396" cy="151.5" fill="#ADD1B2" rx="11" ry="11" style="stroke:#181818;stroke-width:1;"/><path d="M178.3052,147.375 Q178.4614,147.1563 178.6489,147.0469 Q178.8364,146.9375 179.0552,146.9375 Q179.4302,146.9375 179.6646,147.2031 Q179.8989,147.4531 179.8989,148.0625 L179.8989,149.5156 Q179.8989,150.125 179.6646,150.3906 Q179.4302,150.6563 179.0552,150.6563 Q178.7114,150.6563 178.5083,150.4531 Q178.3052,150.2656 178.1958,149.75 Q178.1489,149.3906 177.9614,149.2031 Q177.6333,148.8281 177.0239,148.6094 Q176.4146,148.3906 175.7896,148.3906 Q175.0239,148.3906 174.3833,148.7188 Q173.7583,149.0469 173.2583,149.7969 Q172.7739,150.5469 172.7739,151.5781 L172.7739,152.6719 Q172.7739,153.9063 173.6646,154.7344 Q174.5552,155.5469 176.1489,155.5469 Q177.0864,155.5469 177.7427,155.2969 Q178.1333,155.1406 178.5552,154.7031 Q178.8208,154.4375 178.9614,154.3594 Q179.1177,154.2813 179.3208,154.2813 Q179.6489,154.2813 179.8989,154.5469 Q180.1646,154.7969 180.1646,155.1406 Q180.1646,155.4844 179.8208,155.8906 Q179.3208,156.4688 178.5239,156.7969 Q177.4458,157.25 176.1489,157.25 Q174.6333,157.25 173.4302,156.625 Q172.4458,156.125 171.7583,155.0625 Q171.0708,153.9844 171.0708,152.7031 L171.0708,151.5469 Q171.0708,150.2188 171.6802,149.0781 Q172.3052,147.9219 173.3989,147.3125 Q174.4927,146.6875 175.7271,146.6875 Q176.4614,146.6875 177.1021,146.8594 Q177.7583,147.0156 178.3052,147.375 Z " fill="#000000"/><text fill="#000000" font-family="sans-serif" font-size="14" lengthAdjust="spacing" textLength="94.1719" x="196.0396" y="157.2285">SingletonClient</text><line style="stroke:#181818;stroke-width:0.5;" x1="125" x2="328.751" y1="167.5" y2="167.5"/><line style="stroke:#181818;stroke-width:0.5;" x1="125" x2="328.751" y1="175.5" y2="175.5"/><ellipse cx="135" cy="189.8047" fill="#84BE84" rx="3" ry="3" style="stroke:#038048;stroke-width:1;"/><text fill="#000000" font-family="sans-serif" font-size="14" lengthAdjust="spacing" textLength="103.4961" x="144" y="194.0332">SingletonClient()</text><polygon fill="#4177AF" points="135,203.4141,131,209.4141,139,209.4141" style="stroke:#1963A0;stroke-width:1;"/><text fill="#000000" font-family="sans-serif" font-size="14" lengthAdjust="spacing" text-decoration="underline" textLength="179.751" x="144" y="211.6426">main(java/lang/String[]): Void</text></g><!--class Singleton--><g id="elem_Singleton"><rect codeLine="47" fill="#FF8888" height="111.5313" id="Singleton" rx="2.5" ry="2.5" style="stroke:#FF0000;stroke-width:0.5;" width="317.8398" x="558" y="356.5"/><ellipse cx="682.9766" cy="377.8516" fill="#ADD1B2" rx="11" ry="11" style="stroke:#181818;stroke-width:1;"/><path d="M685.7422,373.7266 Q685.8984,373.5078 686.0859,373.3984 Q686.2734,373.2891 686.4922,373.2891 Q686.8672,373.2891 687.1016,373.5547 Q687.3359,373.8047 687.3359,374.4141 L687.3359,375.8672 Q687.3359,376.4766 687.1016,376.7422 Q686.8672,377.0078 686.4922,377.0078 Q686.1484,377.0078 685.9453,376.8047 Q685.7422,376.6172 685.6328,376.1016 Q685.5859,375.7422 685.3984,375.5547 Q685.0703,375.1797 684.4609,374.9609 Q683.8516,374.7422 683.2266,374.7422 Q682.4609,374.7422 681.8203,375.0703 Q681.1953,375.3984 680.6953,376.1484 Q680.2109,376.8984 680.2109,377.9297 L680.2109,379.0234 Q680.2109,380.2578 681.1016,381.0859 Q681.9922,381.8984 683.5859,381.8984 Q684.5234,381.8984 685.1797,381.6484 Q685.5703,381.4922 685.9922,381.0547 Q686.2578,380.7891 686.3984,380.7109 Q686.5547,380.6328 686.7578,380.6328 Q687.0859,380.6328 687.3359,380.8984 Q687.6016,381.1484 687.6016,381.4922 Q687.6016,381.8359 687.2578,382.2422 Q686.7578,382.8203 685.9609,383.1484 Q684.8828,383.6016 683.5859,383.6016 Q682.0703,383.6016 680.8672,382.9766 Q679.8828,382.4766 679.1953,381.4141 Q678.5078,380.3359 678.5078,379.0547 L678.5078,377.8984 Q678.5078,376.5703 679.1172,375.4297 Q679.7422,374.2734 680.8359,373.6641 Q681.9297,373.0391 683.1641,373.0391 Q683.8984,373.0391 684.5391,373.2109 Q685.1953,373.3672 685.7422,373.7266 Z " fill="#000000"/><text fill="#000000" font-family="sans-serif" font-size="12" font-style="italic" lengthAdjust="spacing" textLength="63.3867" x="701.4766" y="373.957">&#171;Singleton&#187;</text><text fill="#000000" font-family="sans-serif" font-size="14" lengthAdjust="spacing" textLength="58.3789" x="703.9805" y="391.127">Singleton</text><line style="stroke:#FF0000;stroke-width:0.5;" x1="559" x2="874.8398" y1="399.2031" y2="399.2031"/><line style="stroke:#FF0000;stroke-width:0.5;" x1="559" x2="874.8398" y1="407.2031" y2="407.2031"/><rect fill="#F24D5C" height="6" style="stroke:#C82930;stroke-width:1;" width="6" x="566" y="418.5078"/><text fill="#000000" font-family="sans-serif" font-size="14" lengthAdjust="spacing" textLength="67.7031" x="578" y="425.7363">Singleton()</text><polygon fill="#4177AF" points="569,435.1172,565,441.1172,573,441.1172" style="stroke:#1963A0;stroke-width:1;"/><text fill="#000000" font-family="sans-serif" font-size="14" lengthAdjust="spacing" text-decoration="underline" textLength="291.8398" x="578" y="443.3457">getInstance(): headfirst/singleton/stat/Singleton</text><polygon fill="#4177AF" points="569,452.7266,565,458.7266,573,458.7266" style="stroke:#1963A0;stroke-width:1;"/><text fill="#000000" font-family="sans-serif" font-size="14" lengthAdjust="spacing" text-decoration="underline" textLength="67.7031" x="578" y="460.9551">Singleton()</text></g><!--class SingletonClient--><g id="elem_SingletonClient"><rect codeLine="57" fill="#F1F1F1" height="83.2188" id="SingletonClient" rx="2.5" ry="2.5" style="stroke:#181818;stroke-width:0.5;" width="205.751" x="614" y="135.5"/><ellipse cx="665.5396" cy="151.5" fill="#ADD1B2" rx="11" ry="11" style="stroke:#181818;stroke-width:1;"/><path d="M668.3052,147.375 Q668.4614,147.1563 668.6489,147.0469 Q668.8364,146.9375 669.0552,146.9375 Q669.4302,146.9375 669.6646,147.2031 Q669.8989,147.4531 669.8989,148.0625 L669.8989,149.5156 Q669.8989,150.125 669.6646,150.3906 Q669.4302,150.6563 669.0552,150.6563 Q668.7114,150.6563 668.5083,150.4531 Q668.3052,150.2656 668.1958,149.75 Q668.1489,149.3906 667.9614,149.2031 Q667.6333,148.8281 667.0239,148.6094 Q666.4146,148.3906 665.7896,148.3906 Q665.0239,148.3906 664.3833,148.7188 Q663.7583,149.0469 663.2583,149.7969 Q662.7739,150.5469 662.7739,151.5781 L662.7739,152.6719 Q662.7739,153.9063 663.6646,154.7344 Q664.5552,155.5469 666.1489,155.5469 Q667.0864,155.5469 667.7427,155.2969 Q668.1333,155.1406 668.5552,154.7031 Q668.8208,154.4375 668.9614,154.3594 Q669.1177,154.2813 669.3208,154.2813 Q669.6489,154.2813 669.8989,154.5469 Q670.1646,154.7969 670.1646,155.1406 Q670.1646,155.4844 669.8208,155.8906 Q669.3208,156.4688 668.5239,156.7969 Q667.4458,157.25 666.1489,157.25 Q664.6333,157.25 663.4302,156.625 Q662.4458,156.125 661.7583,155.0625 Q661.0708,153.9844 661.0708,152.7031 L661.0708,151.5469 Q661.0708,150.2188 661.6802,149.0781 Q662.3052,147.9219 663.3989,147.3125 Q664.4927,146.6875 665.7271,146.6875 Q666.4614,146.6875 667.1021,146.8594 Q667.7583,147.0156 668.3052,147.375 Z " fill="#000000"/><text fill="#000000" font-family="sans-serif" font-size="14" lengthAdjust="spacing" textLength="94.1719" x="686.0396" y="157.2285">SingletonClient</text><line style="stroke:#181818;stroke-width:0.5;" x1="615" x2="818.751" y1="167.5" y2="167.5"/><line style="stroke:#181818;stroke-width:0.5;" x1="615" x2="818.751" y1="175.5" y2="175.5"/><ellipse cx="625" cy="189.8047" fill="#84BE84" rx="3" ry="3" style="stroke:#038048;stroke-width:1;"/><text fill="#000000" font-family="sans-serif" font-size="14" lengthAdjust="spacing" textLength="103.4961" x="634" y="194.0332">SingletonClient()</text><polygon fill="#4177AF" points="625,203.4141,621,209.4141,629,209.4141" style="stroke:#1963A0;stroke-width:1;"/><text fill="#000000" font-family="sans-serif" font-size="14" lengthAdjust="spacing" text-decoration="underline" textLength="179.751" x="634" y="211.6426">main(java/lang/String[]): Void</text></g><!--class CoolerSingleton--><g id="elem_CoolerSingleton"><rect codeLine="64" fill="#F1F1F1" height="65.6094" id="CoolerSingleton" rx="2.5" ry="2.5" style="stroke:#181818;stroke-width:0.5;" width="134.9443" x="1494.5" y="144"/><ellipse cx="1510.9959" cy="160" fill="#ADD1B2" rx="11" ry="11" style="stroke:#181818;stroke-width:1;"/><path d="M1513.7615,155.875 Q1513.9178,155.6563 1514.1053,155.5469 Q1514.2928,155.4375 1514.5115,155.4375 Q1514.8865,155.4375 1515.1209,155.7031 Q1515.3553,155.9531 1515.3553,156.5625 L1515.3553,158.0156 Q1515.3553,158.625 1515.1209,158.8906 Q1514.8865,159.1563 1514.5115,159.1563 Q1514.1678,159.1563 1513.9646,158.9531 Q1513.7615,158.7656 1513.6521,158.25 Q1513.6053,157.8906 1513.4178,157.7031 Q1513.0896,157.3281 1512.4803,157.1094 Q1511.8709,156.8906 1511.2459,156.8906 Q1510.4803,156.8906 1509.8396,157.2188 Q1509.2146,157.5469 1508.7146,158.2969 Q1508.2303,159.0469 1508.2303,160.0781 L1508.2303,161.1719 Q1508.2303,162.4063 1509.1209,163.2344 Q1510.0115,164.0469 1511.6053,164.0469 Q1512.5428,164.0469 1513.199,163.7969 Q1513.5896,163.6406 1514.0115,163.2031 Q1514.2771,162.9375 1514.4178,162.8594 Q1514.574,162.7813 1514.7771,162.7813 Q1515.1053,162.7813 1515.3553,163.0469 Q1515.6209,163.2969 1515.6209,163.6406 Q1515.6209,163.9844 1515.2771,164.3906 Q1514.7771,164.9688 1513.9803,165.2969 Q1512.9021,165.75 1511.6053,165.75 Q1510.0896,165.75 1508.8865,165.125 Q1507.9021,164.625 1507.2146,163.5625 Q1506.5271,162.4844 1506.5271,161.2031 L1506.5271,160.0469 Q1506.5271,158.7188 1507.1365,157.5781 Q1507.7615,156.4219 1508.8553,155.8125 Q1509.949,155.1875 1511.1834,155.1875 Q1511.9178,155.1875 1512.5584,155.3594 Q1513.2146,155.5156 1513.7615,155.875 Z " fill="#000000"/><text fill="#000000" font-family="sans-serif" font-size="14" lengthAdjust="spacing" textLength="99.6201" x="1525.3283" y="165.7285">CoolerSingleton</text><line style="stroke:#181818;stroke-width:0.5;" x1="1495.5" x2="1628.4443" y1="176" y2="176"/><line style="stroke:#181818;stroke-width:0.5;" x1="1495.5" x2="1628.4443" y1="184" y2="184"/><rect fill="#F24D5C" height="6" style="stroke:#C82930;stroke-width:1;" width="6" x="1502.5" y="195.3047"/><text fill="#000000" font-family="sans-serif" font-size="14" lengthAdjust="spacing" textLength="108.9443" x="1514.5" y="202.5332">CoolerSingleton()</text></g><!--class Singleton--><g id="elem_Singleton"><rect codeLine="77" fill="#FF8888" height="93.9219" id="Singleton" rx="2.5" ry="2.5" style="stroke:#FF0000;stroke-width:0.5;" width="349.7432" x="1180" y="365.5"/><ellipse cx="1320.9282" cy="386.8516" fill="#ADD1B2" rx="11" ry="11" style="stroke:#181818;stroke-width:1;"/><path d="M1323.6938,382.7266 Q1323.8501,382.5078 1324.0376,382.3984 Q1324.2251,382.2891 1324.4438,382.2891 Q1324.8188,382.2891 1325.0532,382.5547 Q1325.2876,382.8047 1325.2876,383.4141 L1325.2876,384.8672 Q1325.2876,385.4766 1325.0532,385.7422 Q1324.8188,386.0078 1324.4438,386.0078 Q1324.1001,386.0078 1323.897,385.8047 Q1323.6938,385.6172 1323.5845,385.1016 Q1323.5376,384.7422 1323.3501,384.5547 Q1323.022,384.1797 1322.4126,383.9609 Q1321.8032,383.7422 1321.1782,383.7422 Q1320.4126,383.7422 1319.772,384.0703 Q1319.147,384.3984 1318.647,385.1484 Q1318.1626,385.8984 1318.1626,386.9297 L1318.1626,388.0234 Q1318.1626,389.2578 1319.0532,390.0859 Q1319.9438,390.8984 1321.5376,390.8984 Q1322.4751,390.8984 1323.1313,390.6484 Q1323.522,390.4922 1323.9438,390.0547 Q1324.2095,389.7891 1324.3501,389.7109 Q1324.5063,389.6328 1324.7095,389.6328 Q1325.0376,389.6328 1325.2876,389.8984 Q1325.5532,390.1484 1325.5532,390.4922 Q1325.5532,390.8359 1325.2095,391.2422 Q1324.7095,391.8203 1323.9126,392.1484 Q1322.8345,392.6016 1321.5376,392.6016 Q1320.022,392.6016 1318.8188,391.9766 Q1317.8345,391.4766 1317.147,390.4141 Q1316.4595,389.3359 1316.4595,388.0547 L1316.4595,386.8984 Q1316.4595,385.5703 1317.0688,384.4297 Q1317.6938,383.2734 1318.7876,382.6641 Q1319.8813,382.0391 1321.1157,382.0391 Q1321.8501,382.0391 1322.4907,382.2109 Q1323.147,382.3672 1323.6938,382.7266 Z " fill="#000000"/><text fill="#000000" font-family="sans-serif" font-size="12" font-style="italic" lengthAdjust="spacing" textLength="63.3867" x="1339.4282" y="382.957">&#171;Singleton&#187;</text><text fill="#000000" font-family="sans-serif" font-size="14" lengthAdjust="spacing" textLength="58.3789" x="1341.9321" y="400.127">Singleton</text><line style="stroke:#FF0000;stroke-width:0.5;" x1="1181" x2="1528.7432" y1="408.2031" y2="408.2031"/><line style="stroke:#FF0000;stroke-width:0.5;" x1="1181" x2="1528.7432" y1="416.2031" y2="416.2031"/><polygon fill="#FFFF44" points="1191,425.5078,1195,429.5078,1191,433.5078,1187,429.5078" style="stroke:#B38D22;stroke-width:1;"/><text fill="#000000" font-family="sans-serif" font-size="14" lengthAdjust="spacing" textLength="67.7031" x="1200" y="434.7363">Singleton()</text><polygon fill="#4177AF" points="1191,444.1172,1187,450.1172,1195,450.1172" style="stroke:#1963A0;stroke-width:1;"/><text fill="#000000" font-family="sans-serif" font-size="14" lengthAdjust="spacing" text-decoration="underline" textLength="323.7432" x="1200" y="452.3457">getInstance(): headfirst/singleton/subclass/Singleton</text></g><!--class HotterSingleton--><g id="elem_HotterSingleton"><rect codeLine="71" fill="#F1F1F1" height="65.6094" id="HotterSingleton" rx="2.5" ry="2.5" style="stroke:#181818;stroke-width:0.5;" width="131.8271" x="1309" y="144"/><ellipse cx="1325.4959" cy="160" fill="#ADD1B2" rx="11" ry="11" style="stroke:#181818;stroke-width:1;"/><path d="M1328.2615,155.875 Q1328.4178,155.6563 1328.6053,155.5469 Q1328.7928,155.4375 1329.0115,155.4375 Q1329.3865,155.4375 1329.6209,155.7031 Q1329.8553,155.9531 1329.8553,156.5625 L1329.8553,158.0156 Q1329.8553,158.625 1329.6209,158.8906 Q1329.3865,159.1563 1329.0115,159.1563 Q1328.6678,159.1563 1328.4646,158.9531 Q1328.2615,158.7656 1328.1521,158.25 Q1328.1053,157.8906 1327.9178,157.7031 Q1327.5896,157.3281 1326.9803,157.1094 Q1326.3709,156.8906 1325.7459,156.8906 Q1324.9803,156.8906 1324.3396,157.2188 Q1323.7146,157.5469 1323.2146,158.2969 Q1322.7303,159.0469 1322.7303,160.0781 L1322.7303,161.1719 Q1322.7303,162.4063 1323.6209,163.2344 Q1324.5115,164.0469 1326.1053,164.0469 Q1327.0428,164.0469 1327.699,163.7969 Q1328.0896,163.6406 1328.5115,163.2031 Q1328.7771,162.9375 1328.9178,162.8594 Q1329.074,162.7813 1329.2771,162.7813 Q1329.6053,162.7813 1329.8553,163.0469 Q1330.1209,163.2969 1330.1209,163.6406 Q1330.1209,163.9844 1329.7771,164.3906 Q1329.2771,164.9688 1328.4803,165.2969 Q1327.4021,165.75 1326.1053,165.75 Q1324.5896,165.75 1323.3865,165.125 Q1322.4021,164.625 1321.7146,163.5625 Q1321.0271,162.4844 1321.0271,161.2031 L1321.0271,160.0469 Q1321.0271,158.7188 1321.6365,157.5781 Q1322.2615,156.4219 1323.3553,155.8125 Q1324.449,155.1875 1325.6834,155.1875 Q1326.4178,155.1875 1327.0584,155.3594 Q1327.7146,155.5156 1328.2615,155.875 Z " fill="#000000"/><text fill="#000000" font-family="sans-serif" font-size="14" lengthAdjust="spacing" textLength="96.5029" x="1339.8283" y="165.7285">HotterSingleton</text><line style="stroke:#181818;stroke-width:0.5;" x1="1310" x2="1439.8271" y1="176" y2="176"/><line style="stroke:#181818;stroke-width:0.5;" x1="1310" x2="1439.8271" y1="184" y2="184"/><rect fill="#F24D5C" height="6" style="stroke:#C82930;stroke-width:1;" width="6" x="1317" y="195.3047"/><text fill="#000000" font-family="sans-serif" font-size="14" lengthAdjust="spacing" textLength="105.8271" x="1329" y="202.5332">HotterSingleton()</text></g><!--class SingletonTestDrive--><g id="elem_SingletonTestDrive"><rect codeLine="86" fill="#F1F1F1" height="83.2188" id="SingletonTestDrive" rx="2.5" ry="2.5" style="stroke:#181818;stroke-width:0.5;" width="205.751" x="1050" y="135.5"/><ellipse cx="1089.964" cy="151.5" fill="#ADD1B2" rx="11" ry="11" style="stroke:#181818;stroke-width:1;"/><path d="M1092.7296,147.375 Q1092.8859,147.1563 1093.0734,147.0469 Q1093.2609,146.9375 1093.4796,146.9375 Q1093.8546,146.9375 1094.089,147.2031 Q1094.3234,147.4531 1094.3234,148.0625 L1094.3234,149.5156 Q1094.3234,150.125 1094.089,150.3906 Q1093.8546,150.6563 1093.4796,150.6563 Q1093.1359,150.6563 1092.9328,150.4531 Q1092.7296,150.2656 1092.6203,149.75 Q1092.5734,149.3906 1092.3859,149.2031 Q1092.0578,148.8281 1091.4484,148.6094 Q1090.839,148.3906 1090.214,148.3906 Q1089.4484,148.3906 1088.8078,148.7188 Q1088.1828,149.0469 1087.6828,149.7969 Q1087.1984,150.5469 1087.1984,151.5781 L1087.1984,152.6719 Q1087.1984,153.9063 1088.089,154.7344 Q1088.9796,155.5469 1090.5734,155.5469 Q1091.5109,155.5469 1092.1671,155.2969 Q1092.5578,155.1406 1092.9796,154.7031 Q1093.2453,154.4375 1093.3859,154.3594 Q1093.5421,154.2813 1093.7453,154.2813 Q1094.0734,154.2813 1094.3234,154.5469 Q1094.589,154.7969 1094.589,155.1406 Q1094.589,155.4844 1094.2453,155.8906 Q1093.7453,156.4688 1092.9484,156.7969 Q1091.8703,157.25 1090.5734,157.25 Q1089.0578,157.25 1087.8546,156.625 Q1086.8703,156.125 1086.1828,155.0625 Q1085.4953,153.9844 1085.4953,152.7031 L1085.4953,151.5469 Q1085.4953,150.2188 1086.1046,149.0781 Q1086.7296,147.9219 1087.8234,147.3125 Q1088.9171,146.6875 1090.1515,146.6875 Q1090.8859,146.6875 1091.5265,146.8594 Q1092.1828,147.0156 1092.7296,147.375 Z " fill="#000000"/><text fill="#000000" font-family="sans-serif" font-size="14" lengthAdjust="spacing" textLength="118.2754" x="1109.5116" y="157.2285">SingletonTestDrive</text><line style="stroke:#181818;stroke-width:0.5;" x1="1051" x2="1254.751" y1="167.5" y2="167.5"/><line style="stroke:#181818;stroke-width:0.5;" x1="1051" x2="1254.751" y1="175.5" y2="175.5"/><ellipse cx="1061" cy="189.8047" fill="#84BE84" rx="3" ry="3" style="stroke:#038048;stroke-width:1;"/><text fill="#000000" font-family="sans-serif" font-size="14" lengthAdjust="spacing" textLength="127.5996" x="1070" y="194.0332">SingletonTestDrive()</text><polygon fill="#4177AF" points="1061,203.4141,1057,209.4141,1065,209.4141" style="stroke:#1963A0;stroke-width:1;"/><text fill="#000000" font-family="sans-serif" font-size="14" lengthAdjust="spacing" text-decoration="underline" textLength="179.751" x="1070" y="211.6426">main(java/lang/String[]): Void</text></g><!--class Singleton--><g id="elem_Singleton"><rect codeLine="93" fill="#FF8888" height="93.9219" id="Singleton" rx="2.5" ry="2.5" style="stroke:#FF0000;stroke-width:0.5;" width="361.4326" x="2786.5" y="130"/><ellipse cx="2933.2729" cy="151.3516" fill="#ADD1B2" rx="11" ry="11" style="stroke:#181818;stroke-width:1;"/><path d="M2936.0386,147.2266 Q2936.1948,147.0078 2936.3823,146.8984 Q2936.5698,146.7891 2936.7886,146.7891 Q2937.1636,146.7891 2937.3979,147.0547 Q2937.6323,147.3047 2937.6323,147.9141 L2937.6323,149.3672 Q2937.6323,149.9766 2937.3979,150.2422 Q2937.1636,150.5078 2936.7886,150.5078 Q2936.4448,150.5078 2936.2417,150.3047 Q2936.0386,150.1172 2935.9292,149.6016 Q2935.8823,149.2422 2935.6948,149.0547 Q2935.3667,148.6797 2934.7573,148.4609 Q2934.1479,148.2422 2933.5229,148.2422 Q2932.7573,148.2422 2932.1167,148.5703 Q2931.4917,148.8984 2930.9917,149.6484 Q2930.5073,150.3984 2930.5073,151.4297 L2930.5073,152.5234 Q2930.5073,153.7578 2931.3979,154.5859 Q2932.2886,155.3984 2933.8823,155.3984 Q2934.8198,155.3984 2935.4761,155.1484 Q2935.8667,154.9922 2936.2886,154.5547 Q2936.5542,154.2891 2936.6948,154.2109 Q2936.8511,154.1328 2937.0542,154.1328 Q2937.3823,154.1328 2937.6323,154.3984 Q2937.8979,154.6484 2937.8979,154.9922 Q2937.8979,155.3359 2937.5542,155.7422 Q2937.0542,156.3203 2936.2573,156.6484 Q2935.1792,157.1016 2933.8823,157.1016 Q2932.3667,157.1016 2931.1636,156.4766 Q2930.1792,155.9766 2929.4917,154.9141 Q2928.8042,153.8359 2928.8042,152.5547 L2928.8042,151.3984 Q2928.8042,150.0703 2929.4136,148.9297 Q2930.0386,147.7734 2931.1323,147.1641 Q2932.2261,146.5391 2933.4604,146.5391 Q2934.1948,146.5391 2934.8354,146.7109 Q2935.4917,146.8672 2936.0386,147.2266 Z " fill="#000000"/><text fill="#000000" font-family="sans-serif" font-size="12" font-style="italic" lengthAdjust="spacing" textLength="63.3867" x="2951.7729" y="147.457">&#171;Singleton&#187;</text><text fill="#000000" font-family="sans-serif" font-size="14" lengthAdjust="spacing" textLength="58.3789" x="2954.2769" y="164.627">Singleton</text><line style="stroke:#FF0000;stroke-width:0.5;" x1="2787.5" x2="3146.9326" y1="172.7031" y2="172.7031"/><line style="stroke:#FF0000;stroke-width:0.5;" x1="2787.5" x2="3146.9326" y1="180.7031" y2="180.7031"/><rect fill="#F24D5C" height="6" style="stroke:#C82930;stroke-width:1;" width="6" x="2794.5" y="192.0078"/><text fill="#000000" font-family="sans-serif" font-size="14" lengthAdjust="spacing" textLength="67.7031" x="2806.5" y="199.2363">Singleton()</text><polygon fill="#4177AF" points="2797.5,208.6172,2793.5,214.6172,2801.5,214.6172" style="stroke:#1963A0;stroke-width:1;"/><text fill="#000000" font-family="sans-serif" font-size="14" lengthAdjust="spacing" text-decoration="underline" textLength="335.4326" x="2806.5" y="216.8457">getInstance(): headfirst/singleton/threadsafe/Singleton</text></g><g id="elem_note0"><path d="M3346,399.5 L3346,425.8516 A0,0 0 0 0 3346,425.8516 L3601.8569,425.8516 A0,0 0 0 0 3601.8569,425.8516 L3601.8569,409.5 L3591.8569,399.5 L3424.8,399.5 L2611.52,216.17 L3416.8,399.5 L3346,399.5 A0,0 0 0 0 3346,399.5 " fill="#FEFFDD" style="stroke:#181818;stroke-width:0.5;"/><path d="M3591.8569,399.5 L3591.8569,409.5 L3601.8569,409.5 L3591.8569,399.5 " fill="#FEFFDD" style="stroke:#181818;stroke-width:0.5;"/><text fill="#000000" font-family="sans-serif" font-size="13" lengthAdjust="spacing" textLength="234.8569" x="3352" y="417.9951">This class might be an abused singleton.</text></g><g id="elem_note1"><path d="M99,632 L99,658.3516 A0,0 0 0 0 99,658.3516 L354.8569,658.3516 A0,0 0 0 0 354.8569,658.3516 L354.8569,642 L344.8569,632 L231,632 L227,459.59 L223,632 L99,632 A0,0 0 0 0 99,632 " fill="#FEFFDD" style="stroke:#181818;stroke-width:0.5;"/><path d="M344.8569,632 L344.8569,642 L354.8569,642 L344.8569,632 " fill="#FEFFDD" style="stroke:#181818;stroke-width:0.5;"/><text fill="#000000" font-family="sans-serif" font-size="13" lengthAdjust="spacing" textLength="234.8569" x="105" y="650.4951">This class might be an abused singleton.</text></g><g id="elem_note2"><path d="M589,632 L589,658.3516 A0,0 0 0 0 589,658.3516 L844.8569,658.3516 A0,0 0 0 0 844.8569,658.3516 L844.8569,642 L834.8569,632 L721,632 L717,468.71 L713,632 L589,632 A0,0 0 0 0 589,632 " fill="#FEFFDD" style="stroke:#181818;stroke-width:0.5;"/><path d="M834.8569,632 L834.8569,642 L844.8569,642 L834.8569,632 " fill="#FEFFDD" style="stroke:#181818;stroke-width:0.5;"/><text fill="#000000" font-family="sans-serif" font-size="13" lengthAdjust="spacing" textLength="234.8569" x="595" y="650.4951">This class might be an abused singleton.</text></g><g id="elem_note3"><path d="M1227,632 L1227,658.3516 A0,0 0 0 0 1227,658.3516 L1482.8569,658.3516 A0,0 0 0 0 1482.8569,658.3516 L1482.8569,642 L1472.8569,632 L1359,632 L1355,459.59 L1351,632 L1227,632 A0,0 0 0 0 1227,632 " fill="#FEFFDD" style="stroke:#181818;stroke-width:0.5;"/><path d="M1472.8569,632 L1472.8569,642 L1482.8569,642 L1472.8569,632 " fill="#FEFFDD" style="stroke:#181818;stroke-width:0.5;"/><text fill="#000000" font-family="sans-serif" font-size="13" lengthAdjust="spacing" textLength="234.8569" x="1233" y="650.4951">This class might be an abused singleton.</text></g><g id="elem_note4"><path d="M3637,399.5 L3637,425.8516 L3892.8569,425.8516 L3892.8569,409.5 L3882.8569,399.5 L3637,399.5 " fill="#FEFFDD" style="stroke:#181818;stroke-width:0.5;"/><path d="M3882.8569,399.5 L3882.8569,409.5 L3892.8569,409.5 L3882.8569,399.5 " fill="#FEFFDD" style="stroke:#181818;stroke-width:1;"/><text fill="#000000" font-family="sans-serif" font-size="13" lengthAdjust="spacing" textLength="234.8569" x="3643" y="417.9951">This class might be an abused singleton.</text></g><!--link ChocolateBoiler to ChocolateBoiler--><g id="link_ChocolateBoiler_ChocolateBoiler"><path codeLine="13" d="M2100.03,389.64 C2121.31,394.05 2135,401.66 2135,412.5 C2135,423.34 2127.1852,429.7324 2105.9052,434.1424 " fill="transparent" id="ChocolateBoiler-to-ChocolateBoiler" style="stroke:#181818;stroke-width:1;"/><polygon fill="#181818" points="2100.03,435.36,2109.6544,437.4505,2104.926,434.3454,2108.031,429.6169,2100.03,435.36" style="stroke:#181818;stroke-width:1;"/><text fill="#000000" font-family="sans-serif" font-size="13" lengthAdjust="spacing" textLength="88.1816" x="2141" y="417.9951">uniqueInstance</text><text fill="#000000" font-family="sans-serif" font-size="13" lengthAdjust="spacing" textLength="7.23" x="2107.9134" y="385.9329">1</text><text fill="#000000" font-family="sans-serif" font-size="13" lengthAdjust="spacing" textLength="7.23" x="2107.9134" y="433.4388">1</text></g><!--link ChocolateController to ChocolateController--><g id="link_ChocolateController_ChocolateController"><path codeLine="19" d="M2005.21,161.21 C2025.54,163.01 2040,168.28 2040,177 C2040,185.72 2031.5166,190.4608 2011.1866,192.2608 " fill="transparent" id="ChocolateController-to-ChocolateController" style="stroke:#181818;stroke-width:1;stroke-dasharray:7.0,7.0;"/><polygon fill="#181818" points="2005.21,192.79,2014.5277,195.9807,2010.1905,192.349,2013.8222,188.0118,2005.21,192.79" style="stroke:#181818;stroke-width:1;"/></g><!--link ChocolateController to ChocolateBoiler--><g id="link_ChocolateController_ChocolateBoiler"><path codeLine="20" d="M1902,218.67 C1902,242.39 1902,267.52 1902,297.83 " fill="transparent" id="ChocolateController-to-ChocolateBoiler" style="stroke:#181818;stroke-width:1;stroke-dasharray:7.0,7.0;"/><polygon fill="#181818" points="1902,303.83,1906,294.83,1902,298.83,1898,294.83,1902,303.83" style="stroke:#181818;stroke-width:1;"/></g><!--link Singleton to Singleton--><g id="link_Singleton_Singleton"><path codeLine="29" d="M2611.82,162.68 C2632.75,165.22 2646.5,170 2646.5,177 C2646.5,184 2638.7063,188.0572 2617.7763,190.5972 " fill="transparent" id="Singleton-to-Singleton" style="stroke:#181818;stroke-width:1;"/><polygon fill="#181818" points="2611.82,191.32,2621.2363,194.2066,2616.7836,190.7176,2620.2726,186.2649,2611.82,191.32" style="stroke:#181818;stroke-width:1;"/><text fill="#000000" font-family="sans-serif" font-size="13" lengthAdjust="spacing" textLength="88.1816" x="2652.5" y="182.4951">uniqueInstance</text><text fill="#000000" font-family="sans-serif" font-size="13" lengthAdjust="spacing" textLength="7.23" x="2619.6271" y="159.1735">1</text><text fill="#000000" font-family="sans-serif" font-size="13" lengthAdjust="spacing" textLength="7.23" x="2619.6271" y="189.1112">1</text></g><!--link Singleton to Singleton--><g id="link_Singleton_Singleton"><path codeLine="38" d="M383.66,388.29 C404.59,392.38 418.5,400.45 418.5,412.5 C418.5,424.55 410.4786,431.4693 389.5486,435.5593 " fill="transparent" id="Singleton-to-Singleton-1" style="stroke:#181818;stroke-width:1;"/><polygon fill="#181818" points="383.66,436.71,393.2601,438.9097,388.5672,435.7511,391.7258,431.0582,383.66,436.71" style="stroke:#181818;stroke-width:1;"/><text fill="#000000" font-family="sans-serif" font-size="13" lengthAdjust="spacing" textLength="88.1816" x="424.5" y="417.9951">uniqueInstance</text><text fill="#000000" font-family="sans-serif" font-size="13" lengthAdjust="spacing" textLength="7.23" x="391.9198" y="384.1354">1</text><text fill="#000000" font-family="sans-serif" font-size="13" lengthAdjust="spacing" textLength="7.23" x="391.9198" y="435.052">1</text></g><!--link SingletonClient to SingletonClient--><g id="link_SingletonClient_SingletonClient"><path codeLine="44" d="M330.21,161.21 C350.54,163.01 365,168.28 365,177 C365,185.72 356.5166,190.4608 336.1866,192.2608 " fill="transparent" id="SingletonClient-to-SingletonClient" style="stroke:#181818;stroke-width:1;stroke-dasharray:7.0,7.0;"/><polygon fill="#181818" points="330.21,192.79,339.5277,195.9807,335.1905,192.349,338.8222,188.0118,330.21,192.79" style="stroke:#181818;stroke-width:1;"/></g><!--link SingletonClient to Singleton--><g id="link_SingletonClient_Singleton"><path codeLine="45" d="M227,218.67 C227,259.57 227,316.53 227,359.29 " fill="transparent" id="SingletonClient-to-Singleton" style="stroke:#181818;stroke-width:1;stroke-dasharray:7.0,7.0;"/><polygon fill="#181818" points="227,365.29,231,356.29,227,360.29,223,356.29,227,365.29" style="stroke:#181818;stroke-width:1;"/></g><!--link Singleton to Singleton--><g id="link_Singleton_Singleton"><path codeLine="55" d="M876.08,388.36 C897.08,392.48 911,400.52 911,412.5 C911,424.48 902.9678,431.3649 881.9678,435.4849 " fill="transparent" id="Singleton-to-Singleton-2" style="stroke:#181818;stroke-width:1;"/><polygon fill="#181818" points="876.08,436.64,885.6817,438.8325,880.9865,435.6774,884.1416,430.9821,876.08,436.64" style="stroke:#181818;stroke-width:1;"/><text fill="#000000" font-family="sans-serif" font-size="13" lengthAdjust="spacing" textLength="88.1816" x="917" y="417.9951">uniqueInstance</text><text fill="#000000" font-family="sans-serif" font-size="13" lengthAdjust="spacing" textLength="7.23" x="883.9644" y="384.3182">1</text><text fill="#000000" font-family="sans-serif" font-size="13" lengthAdjust="spacing" textLength="7.23" x="883.9644" y="434.9368">1</text></g><!--link SingletonClient to SingletonClient--><g id="link_SingletonClient_SingletonClient"><path codeLine="61" d="M820.21,161.21 C840.54,163.01 855,168.28 855,177 C855,185.72 846.5166,190.4608 826.1866,192.2608 " fill="transparent" id="SingletonClient-to-SingletonClient-1" style="stroke:#181818;stroke-width:1;stroke-dasharray:7.0,7.0;"/><polygon fill="#181818" points="820.21,192.79,829.5277,195.9807,825.1905,192.349,828.8222,188.0118,820.21,192.79" style="stroke:#181818;stroke-width:1;"/></g><!--link SingletonClient to Singleton--><g id="link_SingletonClient_Singleton"><path codeLine="62" d="M717,218.67 C717,256.83 717,308.18 717,350.42 " fill="transparent" id="SingletonClient-to-Singleton-1" style="stroke:#181818;stroke-width:1;stroke-dasharray:7.0,7.0;"/><polygon fill="#181818" points="717,356.42,721,347.42,717,351.42,713,347.42,717,356.42" style="stroke:#181818;stroke-width:1;"/></g><!--link CoolerSingleton to Singleton--><g id="link_CoolerSingleton_Singleton"><path codeLine="67" d="M1529.66,210.13 C1515.96,224.02 1499.97,240.59 1486,256 C1453.53,291.83 1429.7187,319.9437 1403.9787,351.2637 " fill="transparent" id="CoolerSingleton-to-Singleton" style="stroke:#181818;stroke-width:1;"/><polygon fill="transparent" points="1392.55,365.17,1408.6141,355.0733,1399.3433,347.4542,1392.55,365.17" style="stroke:#181818;stroke-width:1;"/><text fill="#000000" font-family="sans-serif" font-size="13" lengthAdjust="spacing" textLength="7.23" x="1516.3014" y="231.0175">1</text><text fill="#000000" font-family="sans-serif" font-size="13" lengthAdjust="spacing" textLength="7.23" x="1390.5868" y="354.5701">1</text></g><!--link CoolerSingleton to Singleton--><g id="link_CoolerSingleton_Singleton"><path codeLine="68" d="M1538.54,210.27 C1524.4,229.25 1505.75,253.46 1488,274 C1460.74,305.53 1432.4869,334.9517 1406.4369,361.0717 " fill="transparent" id="CoolerSingleton-to-Singleton-1" style="stroke:#181818;stroke-width:1;"/><polygon fill="#181818" points="1402.2,365.32,1411.3876,361.7721,1405.7308,361.7797,1405.7232,356.1229,1402.2,365.32" style="stroke:#181818;stroke-width:1;"/><text fill="#000000" font-family="sans-serif" font-size="13" lengthAdjust="spacing" textLength="88.1816" x="1504" y="270.4951">uniqueInstance</text><text fill="#000000" font-family="sans-serif" font-size="13" lengthAdjust="spacing" textLength="7.23" x="1526.7632" y="231.1824">1</text><text fill="#000000" font-family="sans-serif" font-size="13" lengthAdjust="spacing" textLength="7.23" x="1401.6542" y="354.7421">1</text></g><!--link CoolerSingleton to CoolerSingleton--><g id="link_CoolerSingleton_CoolerSingleton"><path codeLine="69" d="M1629.53,160.55 C1649.23,161.12 1664.5,166.6 1664.5,177 C1664.5,187.4 1655.2275,192.7065 1635.5275,193.2765 " fill="transparent" id="CoolerSingleton-to-CoolerSingleton" style="stroke:#181818;stroke-width:1;stroke-dasharray:7.0,7.0;"/><polygon fill="#181818" points="1629.53,193.45,1638.6419,197.188,1634.5279,193.3054,1638.4105,189.1914,1629.53,193.45" style="stroke:#181818;stroke-width:1;"/></g><!--link HotterSingleton to Singleton--><g id="link_HotterSingleton_Singleton"><path codeLine="74" d="M1372.22,210.47 C1368.77,250.69 1364.417,301.5657 1360.497,347.3057 " fill="transparent" id="HotterSingleton-to-Singleton" style="stroke:#181818;stroke-width:1;"/><polygon fill="transparent" points="1358.96,365.24,1366.4751,347.8181,1354.5189,346.7934,1358.96,365.24" style="stroke:#181818;stroke-width:1;"/><text fill="#000000" font-family="sans-serif" font-size="13" lengthAdjust="spacing" textLength="7.23" x="1364.1752" y="231.1566">1</text><text fill="#000000" font-family="sans-serif" font-size="13" lengthAdjust="spacing" textLength="7.23" x="1352.0633" y="354.6504">1</text></g><!--link HotterSingleton to HotterSingleton--><g id="link_HotterSingleton_HotterSingleton"><path codeLine="75" d="M1441.05,160.54 C1460.71,161.03 1476,166.52 1476,177 C1476,187.48 1466.7081,192.8205 1447.0481,193.3105 " fill="transparent" id="HotterSingleton-to-HotterSingleton" style="stroke:#181818;stroke-width:1;stroke-dasharray:7.0,7.0;"/><polygon fill="#181818" points="1441.05,193.46,1450.1469,197.2345,1446.0484,193.3354,1449.9475,189.237,1441.05,193.46" style="stroke:#181818;stroke-width:1;"/></g><!--link Singleton to Singleton--><g id="link_Singleton_Singleton"><path codeLine="84" d="M1530.39,388.97 C1551.33,393.25 1565,401.09 1565,412.5 C1565,423.91 1557.2085,430.5485 1536.2685,434.8285 " fill="transparent" id="Singleton-to-Singleton-3" style="stroke:#181818;stroke-width:1;"/><polygon fill="#181818" points="1530.39,436.03,1540.0087,438.1467,1535.2887,435.0287,1538.4067,430.3087,1530.39,436.03" style="stroke:#181818;stroke-width:1;"/><text fill="#000000" font-family="sans-serif" font-size="13" lengthAdjust="spacing" textLength="88.1816" x="1571" y="417.9951">uniqueInstance</text><text fill="#000000" font-family="sans-serif" font-size="13" lengthAdjust="spacing" textLength="7.23" x="1537.9472" y="385.144">1</text><text fill="#000000" font-family="sans-serif" font-size="13" lengthAdjust="spacing" textLength="7.23" x="1537.9472" y="434.1894">1</text></g><!--link SingletonTestDrive to SingletonTestDrive--><g id="link_SingletonTestDrive_SingletonTestDrive"><path codeLine="90" d="M1256.21,161.21 C1276.54,163.01 1291,168.28 1291,177 C1291,185.72 1282.5166,190.4608 1262.1866,192.2608 " fill="transparent" id="SingletonTestDrive-to-SingletonTestDrive" style="stroke:#181818;stroke-width:1;stroke-dasharray:7.0,7.0;"/><polygon fill="#181818" points="1256.21,192.79,1265.5277,195.9807,1261.1905,192.349,1264.8222,188.0118,1256.21,192.79" style="stroke:#181818;stroke-width:1;"/></g><!--link SingletonTestDrive to Singleton--><g id="link_SingletonTestDrive_Singleton"><path codeLine="91" d="M1188.19,218.67 C1223.57,259.57 1274.1046,317.9923 1311.0946,360.7523 " fill="transparent" id="SingletonTestDrive-to-Singleton" style="stroke:#181818;stroke-width:1;stroke-dasharray:7.0,7.0;"/><polygon fill="#181818" points="1315.02,365.29,1312.157,355.8664,1311.7488,361.5086,1306.1067,361.1003,1315.02,365.29" style="stroke:#181818;stroke-width:1;"/></g><!--link Singleton to note4--><g id="link_Singleton_note4"><path codeLine="99" d="M3147.82,182.6 C3285.06,193 3474.33,222.66 3620,304 C3671.71,332.87 3726.1,377.71 3751.03,399.2 " fill="transparent" id="Singleton-note4" style="stroke:#181818;stroke-width:1;stroke-dasharray:7.0,7.0;"/></g><!--link Singleton to Singleton--><g id="link_Singleton_Singleton"><path codeLine="100" d="M3147.79,162.92 C3168.82,165.52 3182.5,170.21 3182.5,177 C3182.5,183.79 3174.7747,187.7438 3153.7447,190.3438 " fill="transparent" id="Singleton-to-Singleton-4" style="stroke:#181818;stroke-width:1;"/><polygon fill="#181818" points="3147.79,191.08,3157.2128,193.9455,3152.7522,190.4665,3156.2312,186.0059,3147.79,191.08" style="stroke:#181818;stroke-width:1;"/><text fill="#000000" font-family="sans-serif" font-size="13" lengthAdjust="spacing" textLength="88.1816" x="3188.5" y="182.4951">uniqueInstance</text><text fill="#000000" font-family="sans-serif" font-size="13" lengthAdjust="spacing" textLength="7.23" x="3156.136" y="159.4244">1</text><text fill="#000000" font-family="sans-serif" font-size="13" lengthAdjust="spacing" textLength="7.23" x="3156.136" y="188.8604">1</text></g><!--SRC=[lLPDRnen4BtxLrZaaYXYDsbxY6Z48IHLUqxKIvM3sJMiAsCtjebKfUblhxti5sPPszHm0i_EcpVp_9WbeqXAM62KBuYGAf64BIbMd2LPmJDEaSB9hFvsnmd50jxUFjPPq-dPbvkRpvGmF14uXsy0ujKlzNi2xpYd6340vmQKTm9Zgzxv1O1lKY55idVuTudLDwPFBCFd5vEsixJfB6qwIwrA05uk2AK6zvsJN1zpWGZhd4qpdIEH3wPR4sdQqy6oMjwDleCmYKRN8pWUJylFCEG4hXbvMUDQ102oa2kQSQO4fwQIlelBdlYst2kZpq_qYbAAs39zL49N__5SI-GzTuStIQRXtHwNfxB7a9Jc2ScInjaEbu-RX-7stL2bJGMjCc1SOJXwAeY4coPNP5aeECSGCOZcQwbfssv744be85V0RvWa2KftsdS74MBRFAEdq5dJHD7u6hY7gFJrINLfkvrziAupIZ1JvHAmOX4MG1_JlfzZJsxScaEIc35FuJMJsp5R1zojURW7Fm2FwIeJUkMwN6YbXzXm6tfK7_PIxJDDNtBigeEwhEVbmsHc_bI8LbnZFIjMcYMeoEP2_mpSQ8ricps08AJ-hck22FSglWVWfVrNhfIjlHLpQsyNYQwzJU2KmW9uIU6x5i_-OorMN57Umn-1vpZL7lJEZ-7i8C6Vi5JtWhpYxRNOX6DinW5IfvjsCKVa699E5K979LhWKxp4MxOeVlq4l4Ug71k0S7cs5xJZsdy0]--></g></svg>