<svg xmlns="http://www.w3.org/2000/svg" xmlns:xlink="http://www.w3.org/1999/xlink" contentStyleType="text/css" data-diagram-type="CLASS" height="701px" preserveAspectRatio="none" style="width:4695px;height:701px;background:#FFFFFF;" version="1.1" viewBox="0 0 4695 701" width="4695px" zoomAndPan="magnify"><defs/><g><!--cluster headfirst--><g id="cluster_headfirst"><path d="M8.5,6 L68.624,6 A3.75,3.75 0 0 1 71.124,8.5 L78.124,29.6094 L3541.5,29.6094 A2.5,2.5 0 0 1 3544,32.1094 L3544,618.5 A2.5,2.5 0 0 1 3541.5,621 L8.5,621 A2.5,2.5 0 0 1 6,618.5 L6,8.5 A2.5,2.5 0 0 1 8.5,6 " fill="transparent" style="stroke:#000000;stroke-width:1.5;"/><line style="stroke:#000000;stroke-width:1.5;" x1="6" x2="78.124" y1="29.6094" y2="29.6094"/><text fill="#000000" font-family="sans-serif" font-size="14" font-weight="bold" lengthAdjust="spacing" textLength="59.124" x="10" y="22.5332">headfirst</text></g><!--cluster singleton--><g id="cluster_singleton"><path d="M32.5,50 L95.7207,50 A3.75,3.75 0 0 1 98.2207,52.5 L105.2207,73.6094 L3517.5,73.6094 A2.5,2.5 0 0 1 3520,76.1094 L3520,594.5 A2.5,2.5 0 0 1 3517.5,597 L32.5,597 A2.5,2.5 0 0 1 30,594.5 L30,52.5 A2.5,2.5 0 0 1 32.5,50 " fill="transparent" style="stroke:#000000;stroke-width:1.5;"/><line style="stroke:#000000;stroke-width:1.5;" x1="30" x2="105.2207" y1="73.6094" y2="73.6094"/><text fill="#000000" font-family="sans-serif" font-size="14" font-weight="bold" lengthAdjust="spacing" textLength="62.2207" x="34" y="66.5332">singleton</text></g><!--cluster chocolate--><g id="cluster_chocolate"><path d="M1036.5,108.5 L1102.8516,108.5 A3.75,3.75 0 0 1 1105.3516,111 L1112.3516,132.1094 L1577.5,132.1094 A2.5,2.5 0 0 1 1580,134.6094 L1580,570.5 A2.5,2.5 0 0 1 1577.5,573 L1036.5,573 A2.5,2.5 0 0 1 1034,570.5 L1034,111 A2.5,2.5 0 0 1 1036.5,108.5 " fill="transparent" style="stroke:#000000;stroke-width:1.5;"/><line style="stroke:#000000;stroke-width:1.5;" x1="1034" x2="1112.3516" y1="132.1094" y2="132.1094"/><text fill="#000000" font-family="sans-serif" font-size="14" font-weight="bold" lengthAdjust="spacing" textLength="65.3516" x="1038" y="125.0332">chocolate</text></g><!--cluster classic--><g id="cluster_classic"><path d="M2474.5,94 L2522.21,94 A3.75,3.75 0 0 1 2524.71,96.5 L2531.71,117.6094 L2957.5,117.6094 A2.5,2.5 0 0 1 2960,120.1094 L2960,255.5 A2.5,2.5 0 0 1 2957.5,258 L2474.5,258 A2.5,2.5 0 0 1 2472,255.5 L2472,96.5 A2.5,2.5 0 0 1 2474.5,94 " fill="transparent" style="stroke:#000000;stroke-width:1.5;"/><line style="stroke:#000000;stroke-width:1.5;" x1="2472" x2="2531.71" y1="117.6094" y2="117.6094"/><text fill="#000000" font-family="sans-serif" font-size="14" font-weight="bold" lengthAdjust="spacing" textLength="46.71" x="2476" y="110.5332">classic</text></g><!--cluster dcl--><g id="cluster_dcl"><path d="M56.5,108.5 L77.7275,108.5 A3.75,3.75 0 0 1 80.2275,111 L87.2275,132.1094 L515.5,132.1094 A2.5,2.5 0 0 1 518,134.6094 L518,509 A2.5,2.5 0 0 1 515.5,511.5 L56.5,511.5 A2.5,2.5 0 0 1 54,509 L54,111 A2.5,2.5 0 0 1 56.5,108.5 " fill="transparent" style="stroke:#000000;stroke-width:1.5;"/><line style="stroke:#000000;stroke-width:1.5;" x1="54" x2="87.2275" y1="132.1094" y2="132.1094"/><text fill="#000000" font-family="sans-serif" font-size="14" font-weight="bold" lengthAdjust="spacing" textLength="20.2275" x="58" y="125.0332">dcl</text></g><!--cluster stat--><g id="cluster_stat"><path d="M544.5,108.5 L570.3965,108.5 A3.75,3.75 0 0 1 572.8965,111 L579.8965,132.1094 L1007.5,132.1094 A2.5,2.5 0 0 1 1010,134.6094 L1010,517.5 A2.5,2.5 0 0 1 1007.5,520 L544.5,520 A2.5,2.5 0 0 1 542,517.5 L542,111 A2.5,2.5 0 0 1 544.5,108.5 " fill="transparent" style="stroke:#000000;stroke-width:1.5;"/><line style="stroke:#000000;stroke-width:1.5;" x1="542" x2="579.8965" y1="132.1094" y2="132.1094"/><text fill="#000000" font-family="sans-serif" font-size="14" font-weight="bold" lengthAdjust="spacing" textLength="24.8965" x="546" y="125.0332">stat</text></g><!--cluster subclass--><g id="cluster_subclass"><path d="M1606.5,103 L1667.4238,103 A3.75,3.75 0 0 1 1669.9238,105.5 L1676.9238,126.6094 L2445.5,126.6094 A2.5,2.5 0 0 1 2448,129.1094 L2448,509 A2.5,2.5 0 0 1 2445.5,511.5 L1606.5,511.5 A2.5,2.5 0 0 1 1604,509 L1604,105.5 A2.5,2.5 0 0 1 1606.5,103 " fill="transparent" style="stroke:#000000;stroke-width:1.5;"/><line style="stroke:#000000;stroke-width:1.5;" x1="1604" x2="1676.9238" y1="126.6094" y2="126.6094"/><text fill="#000000" font-family="sans-serif" font-size="14" font-weight="bold" lengthAdjust="spacing" textLength="59.9238" x="1608" y="119.5332">subclass</text></g><!--cluster threadsafe--><g id="cluster_threadsafe"><path d="M2986.5,94 L3058.3066,94 A3.75,3.75 0 0 1 3060.8066,96.5 L3067.8066,117.6094 L3493.5,117.6094 A2.5,2.5 0 0 1 3496,120.1094 L3496,255.5 A2.5,2.5 0 0 1 3493.5,258 L2986.5,258 A2.5,2.5 0 0 1 2984,255.5 L2984,96.5 A2.5,2.5 0 0 1 2986.5,94 " fill="transparent" style="stroke:#000000;stroke-width:1.5;"/><line style="stroke:#000000;stroke-width:1.5;" x1="2984" x2="3067.8066" y1="117.6094" y2="117.6094"/><text fill="#000000" font-family="sans-serif" font-size="14" font-weight="bold" lengthAdjust="spacing" textLength="70.8066" x="2988" y="110.5332">threadsafe</text></g><!--class ChocolateBoiler--><g id="elem_ChocolateBoiler"><rect codeLine="2" fill="#FF8888" height="234.7969" id="ChocolateBoiler" rx="2.5" ry="2.5" style="stroke:#FF0000;stroke-width:0.5;" width="395.6602" x="1050" y="322"/><ellipse cx="1194.1631" cy="343.3516" fill="#ADD1B2" rx="11" ry="11" style="stroke:#181818;stroke-width:1;"/><path d="M1196.9287,339.2266 Q1197.085,339.0078 1197.2725,338.8984 Q1197.46,338.7891 1197.6787,338.7891 Q1198.0537,338.7891 1198.2881,339.0547 Q1198.5225,339.3047 1198.5225,339.9141 L1198.5225,341.3672 Q1198.5225,341.9766 1198.2881,342.2422 Q1198.0537,342.5078 1197.6787,342.5078 Q1197.335,342.5078 1197.1318,342.3047 Q1196.9287,342.1172 1196.8193,341.6016 Q1196.7725,341.2422 1196.585,341.0547 Q1196.2568,340.6797 1195.6475,340.4609 Q1195.0381,340.2422 1194.4131,340.2422 Q1193.6475,340.2422 1193.0068,340.5703 Q1192.3818,340.8984 1191.8818,341.6484 Q1191.3975,342.3984 1191.3975,343.4297 L1191.3975,344.5234 Q1191.3975,345.7578 1192.2881,346.5859 Q1193.1787,347.3984 1194.7725,347.3984 Q1195.71,347.3984 1196.3662,347.1484 Q1196.7568,346.9922 1197.1787,346.5547 Q1197.4443,346.2891 1197.585,346.2109 Q1197.7412,346.1328 1197.9443,346.1328 Q1198.2725,346.1328 1198.5225,346.3984 Q1198.7881,346.6484 1198.7881,346.9922 Q1198.7881,347.3359 1198.4443,347.7422 Q1197.9443,348.3203 1197.1475,348.6484 Q1196.0693,349.1016 1194.7725,349.1016 Q1193.2568,349.1016 1192.0537,348.4766 Q1191.0693,347.9766 1190.3818,346.9141 Q1189.6943,345.8359 1189.6943,344.5547 L1189.6943,343.3984 Q1189.6943,342.0703 1190.3037,340.9297 Q1190.9287,339.7734 1192.0225,339.1641 Q1193.1162,338.5391 1194.3506,338.5391 Q1195.085,338.5391 1195.7256,338.7109 Q1196.3818,338.8672 1196.9287,339.2266 Z " fill="#000000"/><text fill="#000000" font-family="sans-serif" font-size="12" font-style="italic" lengthAdjust="spacing" textLength="63.3867" x="1232.3867" y="339.457">&#171;Singleton&#187;</text><text fill="#000000" font-family="sans-serif" font-size="14" lengthAdjust="spacing" textLength="98.834" x="1214.6631" y="356.627">ChocolateBoiler</text><line style="stroke:#FF0000;stroke-width:0.5;" x1="1051" x2="1444.6602" y1="364.7031" y2="364.7031"/><text fill="#000000" font-family="sans-serif" font-size="14" lengthAdjust="spacing" textLength="97.2822" x="1056" y="383.2363">empty: Boolean</text><text fill="#000000" font-family="sans-serif" font-size="14" lengthAdjust="spacing" textLength="96.5234" x="1056" y="400.8457">boiled: Boolean</text><text fill="#000000" font-family="sans-serif" font-size="14" lengthAdjust="spacing" textLength="382.915" x="1056" y="418.4551">uniqueInstance: headfirst/singleton/chocolate/ChocolateBoiler</text><line style="stroke:#FF0000;stroke-width:0.5;" x1="1051" x2="1444.6602" y1="425.5313" y2="425.5313"/><rect fill="#F24D5C" height="6" style="stroke:#C82930;stroke-width:1;" width="6" x="1058" y="436.8359"/><text fill="#000000" font-family="sans-serif" font-size="14" lengthAdjust="spacing" textLength="108.1582" x="1070" y="444.0645">ChocolateBoiler()</text><polygon fill="#4177AF" points="1061,453.4453,1057,459.4453,1065,459.4453" style="stroke:#1963A0;stroke-width:1;"/><text fill="#000000" font-family="sans-serif" font-size="14" lengthAdjust="spacing" text-decoration="underline" textLength="369.6602" x="1070" y="461.6738">getInstance(): headfirst/singleton/chocolate/ChocolateBoiler</text><ellipse cx="1061" cy="475.0547" fill="#84BE84" rx="3" ry="3" style="stroke:#038048;stroke-width:1;"/><text fill="#000000" font-family="sans-serif" font-size="14" lengthAdjust="spacing" textLength="58.3447" x="1070" y="479.2832">fill(): Void</text><ellipse cx="1061" cy="492.6641" fill="#84BE84" rx="3" ry="3" style="stroke:#038048;stroke-width:1;"/><text fill="#000000" font-family="sans-serif" font-size="14" lengthAdjust="spacing" textLength="76.2549" x="1070" y="496.8926">drain(): Void</text><ellipse cx="1061" cy="510.2734" fill="#84BE84" rx="3" ry="3" style="stroke:#038048;stroke-width:1;"/><text fill="#000000" font-family="sans-serif" font-size="14" lengthAdjust="spacing" textLength="66.917" x="1070" y="514.502">boil(): Void</text><ellipse cx="1061" cy="527.8828" fill="#84BE84" rx="3" ry="3" style="stroke:#038048;stroke-width:1;"/><text fill="#000000" font-family="sans-serif" font-size="14" lengthAdjust="spacing" textLength="118.2686" x="1070" y="532.1113">isEmpty(): Boolean</text><ellipse cx="1061" cy="545.4922" fill="#84BE84" rx="3" ry="3" style="stroke:#038048;stroke-width:1;"/><text fill="#000000" font-family="sans-serif" font-size="14" lengthAdjust="spacing" textLength="117.5098" x="1070" y="549.7207">isBoiled(): Boolean</text></g><!--class ChocolateController--><g id="elem_ChocolateController"><rect codeLine="16" fill="#F1F1F1" height="83.2188" id="ChocolateController" rx="2.5" ry="2.5" style="stroke:#181818;stroke-width:0.5;" width="205.751" x="1145" y="144.5"/><ellipse cx="1182.5092" cy="160.5" fill="#ADD1B2" rx="11" ry="11" style="stroke:#181818;stroke-width:1;"/><path d="M1185.2749,156.375 Q1185.4311,156.1563 1185.6186,156.0469 Q1185.8061,155.9375 1186.0249,155.9375 Q1186.3999,155.9375 1186.6342,156.2031 Q1186.8686,156.4531 1186.8686,157.0625 L1186.8686,158.5156 Q1186.8686,159.125 1186.6342,159.3906 Q1186.3999,159.6563 1186.0249,159.6563 Q1185.6811,159.6563 1185.478,159.4531 Q1185.2749,159.2656 1185.1655,158.75 Q1185.1186,158.3906 1184.9311,158.2031 Q1184.603,157.8281 1183.9936,157.6094 Q1183.3842,157.3906 1182.7592,157.3906 Q1181.9936,157.3906 1181.353,157.7188 Q1180.728,158.0469 1180.228,158.7969 Q1179.7436,159.5469 1179.7436,160.5781 L1179.7436,161.6719 Q1179.7436,162.9063 1180.6342,163.7344 Q1181.5249,164.5469 1183.1186,164.5469 Q1184.0561,164.5469 1184.7124,164.2969 Q1185.103,164.1406 1185.5249,163.7031 Q1185.7905,163.4375 1185.9311,163.3594 Q1186.0874,163.2813 1186.2905,163.2813 Q1186.6186,163.2813 1186.8686,163.5469 Q1187.1342,163.7969 1187.1342,164.1406 Q1187.1342,164.4844 1186.7905,164.8906 Q1186.2905,165.4688 1185.4936,165.7969 Q1184.4155,166.25 1183.1186,166.25 Q1181.603,166.25 1180.3999,165.625 Q1179.4155,165.125 1178.728,164.0625 Q1178.0405,162.9844 1178.0405,161.7031 L1178.0405,160.5469 Q1178.0405,159.2188 1178.6499,158.0781 Q1179.2749,156.9219 1180.3686,156.3125 Q1181.4624,155.6875 1182.6967,155.6875 Q1183.4311,155.6875 1184.0717,155.8594 Q1184.728,156.0156 1185.2749,156.375 Z " fill="#000000"/><text fill="#000000" font-family="sans-serif" font-size="14" lengthAdjust="spacing" textLength="123.7305" x="1201.5113" y="166.2285">ChocolateController</text><line style="stroke:#181818;stroke-width:0.5;" x1="1146" x2="1349.751" y1="176.5" y2="176.5"/><line style="stroke:#181818;stroke-width:0.5;" x1="1146" x2="1349.751" y1="184.5" y2="184.5"/><ellipse cx="1156" cy="198.8047" fill="#84BE84" rx="3" ry="3" style="stroke:#038048;stroke-width:1;"/><text fill="#000000" font-family="sans-serif" font-size="14" lengthAdjust="spacing" textLength="133.0547" x="1165" y="203.0332">ChocolateController()</text><polygon fill="#4177AF" points="1156,212.4141,1152,218.4141,1160,218.4141" style="stroke:#1963A0;stroke-width:1;"/><text fill="#000000" font-family="sans-serif" font-size="14" lengthAdjust="spacing" text-decoration="underline" textLength="179.751" x="1165" y="220.6426">main(java/lang/String[]): Void</text></g><!--class Singleton--><g id="elem_Singleton"><rect codeLine="23" fill="#FF8888" height="111.5313" id="Singleton" rx="2.5" ry="2.5" style="stroke:#FF0000;stroke-width:0.5;" width="337.2813" x="2488.5" y="130"/><ellipse cx="2623.1973" cy="151.3516" fill="#ADD1B2" rx="11" ry="11" style="stroke:#181818;stroke-width:1;"/><path d="M2625.9629,147.2266 Q2626.1191,147.0078 2626.3066,146.8984 Q2626.4941,146.7891 2626.7129,146.7891 Q2627.0879,146.7891 2627.3223,147.0547 Q2627.5566,147.3047 2627.5566,147.9141 L2627.5566,149.3672 Q2627.5566,149.9766 2627.3223,150.2422 Q2627.0879,150.5078 2626.7129,150.5078 Q2626.3691,150.5078 2626.166,150.3047 Q2625.9629,150.1172 2625.8535,149.6016 Q2625.8066,149.2422 2625.6191,149.0547 Q2625.291,148.6797 2624.6816,148.4609 Q2624.0723,148.2422 2623.4473,148.2422 Q2622.6816,148.2422 2622.041,148.5703 Q2621.416,148.8984 2620.916,149.6484 Q2620.4316,150.3984 2620.4316,151.4297 L2620.4316,152.5234 Q2620.4316,153.7578 2621.3223,154.5859 Q2622.2129,155.3984 2623.8066,155.3984 Q2624.7441,155.3984 2625.4004,155.1484 Q2625.791,154.9922 2626.2129,154.5547 Q2626.4785,154.2891 2626.6191,154.2109 Q2626.7754,154.1328 2626.9785,154.1328 Q2627.3066,154.1328 2627.5566,154.3984 Q2627.8223,154.6484 2627.8223,154.9922 Q2627.8223,155.3359 2627.4785,155.7422 Q2626.9785,156.3203 2626.1816,156.6484 Q2625.1035,157.1016 2623.8066,157.1016 Q2622.291,157.1016 2621.0879,156.4766 Q2620.1035,155.9766 2619.416,154.9141 Q2618.7285,153.8359 2618.7285,152.5547 L2618.7285,151.3984 Q2618.7285,150.0703 2619.3379,148.9297 Q2619.9629,147.7734 2621.0566,147.1641 Q2622.1504,146.5391 2623.3848,146.5391 Q2624.1191,146.5391 2624.7598,146.7109 Q2625.416,146.8672 2625.9629,147.2266 Z " fill="#000000"/><text fill="#000000" font-family="sans-serif" font-size="12" font-style="italic" lengthAdjust="spacing" textLength="63.3867" x="2641.6973" y="147.457">&#171;Singleton&#187;</text><text fill="#000000" font-family="sans-serif" font-size="14" lengthAdjust="spacing" textLength="58.3789" x="2644.2012" y="164.627">Singleton</text><line style="stroke:#FF0000;stroke-width:0.5;" x1="2489.5" x2="2824.7813" y1="172.7031" y2="172.7031"/><text fill="#000000" font-family="sans-serif" font-size="14" lengthAdjust="spacing" textLength="324.5361" x="2494.5" y="191.2363">uniqueInstance: headfirst/singleton/classic/Singleton</text><line style="stroke:#FF0000;stroke-width:0.5;" x1="2489.5" x2="2824.7813" y1="198.3125" y2="198.3125"/><rect fill="#F24D5C" height="6" style="stroke:#C82930;stroke-width:1;" width="6" x="2496.5" y="209.6172"/><text fill="#000000" font-family="sans-serif" font-size="14" lengthAdjust="spacing" textLength="67.7031" x="2508.5" y="216.8457">Singleton()</text><polygon fill="#4177AF" points="2499.5,226.2266,2495.5,232.2266,2503.5,232.2266" style="stroke:#1963A0;stroke-width:1;"/><text fill="#000000" font-family="sans-serif" font-size="14" lengthAdjust="spacing" text-decoration="underline" textLength="311.2813" x="2508.5" y="234.4551">getInstance(): headfirst/singleton/classic/Singleton</text></g><!--class Singleton--><g id="elem_Singleton"><rect codeLine="33" fill="#FF8888" height="111.5313" id="Singleton" rx="2.5" ry="2.5" style="stroke:#FF0000;stroke-width:0.5;" width="313.1709" x="70.5" y="383.5"/><ellipse cx="193.1421" cy="404.8516" fill="#ADD1B2" rx="11" ry="11" style="stroke:#181818;stroke-width:1;"/><path d="M195.9077,400.7266 Q196.064,400.5078 196.2515,400.3984 Q196.439,400.2891 196.6577,400.2891 Q197.0327,400.2891 197.2671,400.5547 Q197.5015,400.8047 197.5015,401.4141 L197.5015,402.8672 Q197.5015,403.4766 197.2671,403.7422 Q197.0327,404.0078 196.6577,404.0078 Q196.314,404.0078 196.1108,403.8047 Q195.9077,403.6172 195.7983,403.1016 Q195.7515,402.7422 195.564,402.5547 Q195.2358,402.1797 194.6265,401.9609 Q194.0171,401.7422 193.3921,401.7422 Q192.6265,401.7422 191.9858,402.0703 Q191.3608,402.3984 190.8608,403.1484 Q190.3765,403.8984 190.3765,404.9297 L190.3765,406.0234 Q190.3765,407.2578 191.2671,408.0859 Q192.1577,408.8984 193.7515,408.8984 Q194.689,408.8984 195.3452,408.6484 Q195.7358,408.4922 196.1577,408.0547 Q196.4233,407.7891 196.564,407.7109 Q196.7202,407.6328 196.9233,407.6328 Q197.2515,407.6328 197.5015,407.8984 Q197.7671,408.1484 197.7671,408.4922 Q197.7671,408.8359 197.4233,409.2422 Q196.9233,409.8203 196.1265,410.1484 Q195.0483,410.6016 193.7515,410.6016 Q192.2358,410.6016 191.0327,409.9766 Q190.0483,409.4766 189.3608,408.4141 Q188.6733,407.3359 188.6733,406.0547 L188.6733,404.8984 Q188.6733,403.5703 189.2827,402.4297 Q189.9077,401.2734 191.0015,400.6641 Q192.0952,400.0391 193.3296,400.0391 Q194.064,400.0391 194.7046,400.2109 Q195.3608,400.3672 195.9077,400.7266 Z " fill="#000000"/><text fill="#000000" font-family="sans-serif" font-size="12" font-style="italic" lengthAdjust="spacing" textLength="63.3867" x="211.6421" y="400.957">&#171;Singleton&#187;</text><text fill="#000000" font-family="sans-serif" font-size="14" lengthAdjust="spacing" textLength="58.3789" x="214.146" y="418.127">Singleton</text><line style="stroke:#FF0000;stroke-width:0.5;" x1="71.5" x2="382.6709" y1="426.2031" y2="426.2031"/><text fill="#000000" font-family="sans-serif" font-size="14" lengthAdjust="spacing" textLength="300.4258" x="76.5" y="444.7363">uniqueInstance: headfirst/singleton/dcl/Singleton</text><line style="stroke:#FF0000;stroke-width:0.5;" x1="71.5" x2="382.6709" y1="451.8125" y2="451.8125"/><rect fill="#F24D5C" height="6" style="stroke:#C82930;stroke-width:1;" width="6" x="78.5" y="463.1172"/><text fill="#000000" font-family="sans-serif" font-size="14" lengthAdjust="spacing" textLength="67.7031" x="90.5" y="470.3457">Singleton()</text><polygon fill="#4177AF" points="81.5,479.7266,77.5,485.7266,85.5,485.7266" style="stroke:#1963A0;stroke-width:1;"/><text fill="#000000" font-family="sans-serif" font-size="14" lengthAdjust="spacing" text-decoration="underline" textLength="287.1709" x="90.5" y="487.9551">getInstance(): headfirst/singleton/dcl/Singleton</text></g><!--class SingletonClient--><g id="elem_SingletonClient"><rect codeLine="43" fill="#F1F1F1" height="83.2188" id="SingletonClient" rx="2.5" ry="2.5" style="stroke:#181818;stroke-width:0.5;" width="205.751" x="124" y="144.5"/><ellipse cx="175.5396" cy="160.5" fill="#ADD1B2" rx="11" ry="11" style="stroke:#181818;stroke-width:1;"/><path d="M178.3052,156.375 Q178.4614,156.1563 178.6489,156.0469 Q178.8364,155.9375 179.0552,155.9375 Q179.4302,155.9375 179.6646,156.2031 Q179.8989,156.4531 179.8989,157.0625 L179.8989,158.5156 Q179.8989,159.125 179.6646,159.3906 Q179.4302,159.6563 179.0552,159.6563 Q178.7114,159.6563 178.5083,159.4531 Q178.3052,159.2656 178.1958,158.75 Q178.1489,158.3906 177.9614,158.2031 Q177.6333,157.8281 177.0239,157.6094 Q176.4146,157.3906 175.7896,157.3906 Q175.0239,157.3906 174.3833,157.7188 Q173.7583,158.0469 173.2583,158.7969 Q172.7739,159.5469 172.7739,160.5781 L172.7739,161.6719 Q172.7739,162.9063 173.6646,163.7344 Q174.5552,164.5469 176.1489,164.5469 Q177.0864,164.5469 177.7427,164.2969 Q178.1333,164.1406 178.5552,163.7031 Q178.8208,163.4375 178.9614,163.3594 Q179.1177,163.2813 179.3208,163.2813 Q179.6489,163.2813 179.8989,163.5469 Q180.1646,163.7969 180.1646,164.1406 Q180.1646,164.4844 179.8208,164.8906 Q179.3208,165.4688 178.5239,165.7969 Q177.4458,166.25 176.1489,166.25 Q174.6333,166.25 173.4302,165.625 Q172.4458,165.125 171.7583,164.0625 Q171.0708,162.9844 171.0708,161.7031 L171.0708,160.5469 Q171.0708,159.2188 171.6802,158.0781 Q172.3052,156.9219 173.3989,156.3125 Q174.4927,155.6875 175.7271,155.6875 Q176.4614,155.6875 177.1021,155.8594 Q177.7583,156.0156 178.3052,156.375 Z " fill="#000000"/><text fill="#000000" font-family="sans-serif" font-size="14" lengthAdjust="spacing" textLength="94.1719" x="196.0396" y="166.2285">SingletonClient</text><line style="stroke:#181818;stroke-width:0.5;" x1="125" x2="328.751" y1="176.5" y2="176.5"/><line style="stroke:#181818;stroke-width:0.5;" x1="125" x2="328.751" y1="184.5" y2="184.5"/><ellipse cx="135" cy="198.8047" fill="#84BE84" rx="3" ry="3" style="stroke:#038048;stroke-width:1;"/><text fill="#000000" font-family="sans-serif" font-size="14" lengthAdjust="spacing" textLength="103.4961" x="144" y="203.0332">SingletonClient()</text><polygon fill="#4177AF" points="135,212.4141,131,218.4141,139,218.4141" style="stroke:#1963A0;stroke-width:1;"/><text fill="#000000" font-family="sans-serif" font-size="14" lengthAdjust="spacing" text-decoration="underline" textLength="179.751" x="144" y="220.6426">main(java/lang/String[]): Void</text></g><!--class Singleton--><g id="elem_Singleton"><rect codeLine="50" fill="#FF8888" height="129.1406" id="Singleton" rx="2.5" ry="2.5" style="stroke:#FF0000;stroke-width:0.5;" width="317.8398" x="558" y="375"/><ellipse cx="682.9766" cy="396.3516" fill="#ADD1B2" rx="11" ry="11" style="stroke:#181818;stroke-width:1;"/><path d="M685.7422,392.2266 Q685.8984,392.0078 686.0859,391.8984 Q686.2734,391.7891 686.4922,391.7891 Q686.8672,391.7891 687.1016,392.0547 Q687.3359,392.3047 687.3359,392.9141 L687.3359,394.3672 Q687.3359,394.9766 687.1016,395.2422 Q686.8672,395.5078 686.4922,395.5078 Q686.1484,395.5078 685.9453,395.3047 Q685.7422,395.1172 685.6328,394.6016 Q685.5859,394.2422 685.3984,394.0547 Q685.0703,393.6797 684.4609,393.4609 Q683.8516,393.2422 683.2266,393.2422 Q682.4609,393.2422 681.8203,393.5703 Q681.1953,393.8984 680.6953,394.6484 Q680.2109,395.3984 680.2109,396.4297 L680.2109,397.5234 Q680.2109,398.7578 681.1016,399.5859 Q681.9922,400.3984 683.5859,400.3984 Q684.5234,400.3984 685.1797,400.1484 Q685.5703,399.9922 685.9922,399.5547 Q686.2578,399.2891 686.3984,399.2109 Q686.5547,399.1328 686.7578,399.1328 Q687.0859,399.1328 687.3359,399.3984 Q687.6016,399.6484 687.6016,399.9922 Q687.6016,400.3359 687.2578,400.7422 Q686.7578,401.3203 685.9609,401.6484 Q684.8828,402.1016 683.5859,402.1016 Q682.0703,402.1016 680.8672,401.4766 Q679.8828,400.9766 679.1953,399.9141 Q678.5078,398.8359 678.5078,397.5547 L678.5078,396.3984 Q678.5078,395.0703 679.1172,393.9297 Q679.7422,392.7734 680.8359,392.1641 Q681.9297,391.5391 683.1641,391.5391 Q683.8984,391.5391 684.5391,391.7109 Q685.1953,391.8672 685.7422,392.2266 Z " fill="#000000"/><text fill="#000000" font-family="sans-serif" font-size="12" font-style="italic" lengthAdjust="spacing" textLength="63.3867" x="701.4766" y="392.457">&#171;Singleton&#187;</text><text fill="#000000" font-family="sans-serif" font-size="14" lengthAdjust="spacing" textLength="58.3789" x="703.9805" y="409.627">Singleton</text><line style="stroke:#FF0000;stroke-width:0.5;" x1="559" x2="874.8398" y1="417.7031" y2="417.7031"/><text fill="#000000" font-family="sans-serif" font-size="14" lengthAdjust="spacing" textLength="305.0947" x="564" y="436.2363">uniqueInstance: headfirst/singleton/stat/Singleton</text><line style="stroke:#FF0000;stroke-width:0.5;" x1="559" x2="874.8398" y1="443.3125" y2="443.3125"/><rect fill="#F24D5C" height="6" style="stroke:#C82930;stroke-width:1;" width="6" x="566" y="454.6172"/><text fill="#000000" font-family="sans-serif" font-size="14" lengthAdjust="spacing" textLength="67.7031" x="578" y="461.8457">Singleton()</text><polygon fill="#4177AF" points="569,471.2266,565,477.2266,573,477.2266" style="stroke:#1963A0;stroke-width:1;"/><text fill="#000000" font-family="sans-serif" font-size="14" lengthAdjust="spacing" text-decoration="underline" textLength="291.8398" x="578" y="479.4551">getInstance(): headfirst/singleton/stat/Singleton</text><polygon fill="#4177AF" points="569,488.8359,565,494.8359,573,494.8359" style="stroke:#1963A0;stroke-width:1;"/><text fill="#000000" font-family="sans-serif" font-size="14" lengthAdjust="spacing" text-decoration="underline" textLength="67.7031" x="578" y="497.0645">Singleton()</text></g><!--class SingletonClient--><g id="elem_SingletonClient"><rect codeLine="61" fill="#F1F1F1" height="83.2188" id="SingletonClient" rx="2.5" ry="2.5" style="stroke:#181818;stroke-width:0.5;" width="205.751" x="614" y="144.5"/><ellipse cx="665.5396" cy="160.5" fill="#ADD1B2" rx="11" ry="11" style="stroke:#181818;stroke-width:1;"/><path d="M668.3052,156.375 Q668.4614,156.1563 668.6489,156.0469 Q668.8364,155.9375 669.0552,155.9375 Q669.4302,155.9375 669.6646,156.2031 Q669.8989,156.4531 669.8989,157.0625 L669.8989,158.5156 Q669.8989,159.125 669.6646,159.3906 Q669.4302,159.6563 669.0552,159.6563 Q668.7114,159.6563 668.5083,159.4531 Q668.3052,159.2656 668.1958,158.75 Q668.1489,158.3906 667.9614,158.2031 Q667.6333,157.8281 667.0239,157.6094 Q666.4146,157.3906 665.7896,157.3906 Q665.0239,157.3906 664.3833,157.7188 Q663.7583,158.0469 663.2583,158.7969 Q662.7739,159.5469 662.7739,160.5781 L662.7739,161.6719 Q662.7739,162.9063 663.6646,163.7344 Q664.5552,164.5469 666.1489,164.5469 Q667.0864,164.5469 667.7427,164.2969 Q668.1333,164.1406 668.5552,163.7031 Q668.8208,163.4375 668.9614,163.3594 Q669.1177,163.2813 669.3208,163.2813 Q669.6489,163.2813 669.8989,163.5469 Q670.1646,163.7969 670.1646,164.1406 Q670.1646,164.4844 669.8208,164.8906 Q669.3208,165.4688 668.5239,165.7969 Q667.4458,166.25 666.1489,166.25 Q664.6333,166.25 663.4302,165.625 Q662.4458,165.125 661.7583,164.0625 Q661.0708,162.9844 661.0708,161.7031 L661.0708,160.5469 Q661.0708,159.2188 661.6802,158.0781 Q662.3052,156.9219 663.3989,156.3125 Q664.4927,155.6875 665.7271,155.6875 Q666.4614,155.6875 667.1021,155.8594 Q667.7583,156.0156 668.3052,156.375 Z " fill="#000000"/><text fill="#000000" font-family="sans-serif" font-size="14" lengthAdjust="spacing" textLength="94.1719" x="686.0396" y="166.2285">SingletonClient</text><line style="stroke:#181818;stroke-width:0.5;" x1="615" x2="818.751" y1="176.5" y2="176.5"/><line style="stroke:#181818;stroke-width:0.5;" x1="615" x2="818.751" y1="184.5" y2="184.5"/><ellipse cx="625" cy="198.8047" fill="#84BE84" rx="3" ry="3" style="stroke:#038048;stroke-width:1;"/><text fill="#000000" font-family="sans-serif" font-size="14" lengthAdjust="spacing" textLength="103.4961" x="634" y="203.0332">SingletonClient()</text><polygon fill="#4177AF" points="625,212.4141,621,218.4141,629,218.4141" style="stroke:#1963A0;stroke-width:1;"/><text fill="#000000" font-family="sans-serif" font-size="14" lengthAdjust="spacing" text-decoration="underline" textLength="179.751" x="634" y="220.6426">main(java/lang/String[]): Void</text></g><!--class CoolerSingleton--><g id="elem_CoolerSingleton"><rect codeLine="68" fill="#FF8888" height="93.9219" id="CoolerSingleton" rx="2.5" ry="2.5" style="stroke:#FF0000;stroke-width:0.5;" width="348.998" x="1879.5" y="139"/><ellipse cx="1999.939" cy="160.3516" fill="#ADD1B2" rx="11" ry="11" style="stroke:#181818;stroke-width:1;"/><path d="M2002.7046,156.2266 Q2002.8608,156.0078 2003.0483,155.8984 Q2003.2358,155.7891 2003.4546,155.7891 Q2003.8296,155.7891 2004.064,156.0547 Q2004.2983,156.3047 2004.2983,156.9141 L2004.2983,158.3672 Q2004.2983,158.9766 2004.064,159.2422 Q2003.8296,159.5078 2003.4546,159.5078 Q2003.1108,159.5078 2002.9077,159.3047 Q2002.7046,159.1172 2002.5952,158.6016 Q2002.5483,158.2422 2002.3608,158.0547 Q2002.0327,157.6797 2001.4233,157.4609 Q2000.814,157.2422 2000.189,157.2422 Q1999.4233,157.2422 1998.7827,157.5703 Q1998.1577,157.8984 1997.6577,158.6484 Q1997.1733,159.3984 1997.1733,160.4297 L1997.1733,161.5234 Q1997.1733,162.7578 1998.064,163.5859 Q1998.9546,164.3984 2000.5483,164.3984 Q2001.4858,164.3984 2002.1421,164.1484 Q2002.5327,163.9922 2002.9546,163.5547 Q2003.2202,163.2891 2003.3608,163.2109 Q2003.5171,163.1328 2003.7202,163.1328 Q2004.0483,163.1328 2004.2983,163.3984 Q2004.564,163.6484 2004.564,163.9922 Q2004.564,164.3359 2004.2202,164.7422 Q2003.7202,165.3203 2002.9233,165.6484 Q2001.8452,166.1016 2000.5483,166.1016 Q1999.0327,166.1016 1997.8296,165.4766 Q1996.8452,164.9766 1996.1577,163.9141 Q1995.4702,162.8359 1995.4702,161.5547 L1995.4702,160.3984 Q1995.4702,159.0703 1996.0796,157.9297 Q1996.7046,156.7734 1997.7983,156.1641 Q1998.8921,155.5391 2000.1265,155.5391 Q2000.8608,155.5391 2001.5015,155.7109 Q2002.1577,155.8672 2002.7046,156.2266 Z " fill="#000000"/><text fill="#000000" font-family="sans-serif" font-size="12" font-style="italic" lengthAdjust="spacing" textLength="63.3867" x="2038.5557" y="156.457">&#171;Singleton&#187;</text><text fill="#000000" font-family="sans-serif" font-size="14" lengthAdjust="spacing" textLength="99.6201" x="2020.439" y="173.627">CoolerSingleton</text><line style="stroke:#FF0000;stroke-width:0.5;" x1="1880.5" x2="2227.498" y1="181.7031" y2="181.7031"/><text fill="#000000" font-family="sans-serif" font-size="14" lengthAdjust="spacing" textLength="336.998" x="1885.5" y="200.2363">uniqueInstance: headfirst/singleton/subclass/Singleton</text><line style="stroke:#FF0000;stroke-width:0.5;" x1="1880.5" x2="2227.498" y1="207.3125" y2="207.3125"/><rect fill="#F24D5C" height="6" style="stroke:#C82930;stroke-width:1;" width="6" x="1887.5" y="218.6172"/><text fill="#000000" font-family="sans-serif" font-size="14" lengthAdjust="spacing" textLength="108.9443" x="1899.5" y="225.8457">CoolerSingleton()</text></g><!--class Singleton--><g id="elem_Singleton"><rect codeLine="88" fill="#FF8888" height="111.5313" id="Singleton" rx="2.5" ry="2.5" style="stroke:#FF0000;stroke-width:0.5;" width="349.7432" x="1879" y="383.5"/><ellipse cx="2019.9282" cy="404.8516" fill="#ADD1B2" rx="11" ry="11" style="stroke:#181818;stroke-width:1;"/><path d="M2022.6938,400.7266 Q2022.8501,400.5078 2023.0376,400.3984 Q2023.2251,400.2891 2023.4438,400.2891 Q2023.8188,400.2891 2024.0532,400.5547 Q2024.2876,400.8047 2024.2876,401.4141 L2024.2876,402.8672 Q2024.2876,403.4766 2024.0532,403.7422 Q2023.8188,404.0078 2023.4438,404.0078 Q2023.1001,404.0078 2022.897,403.8047 Q2022.6938,403.6172 2022.5845,403.1016 Q2022.5376,402.7422 2022.3501,402.5547 Q2022.022,402.1797 2021.4126,401.9609 Q2020.8032,401.7422 2020.1782,401.7422 Q2019.4126,401.7422 2018.772,402.0703 Q2018.147,402.3984 2017.647,403.1484 Q2017.1626,403.8984 2017.1626,404.9297 L2017.1626,406.0234 Q2017.1626,407.2578 2018.0532,408.0859 Q2018.9438,408.8984 2020.5376,408.8984 Q2021.4751,408.8984 2022.1313,408.6484 Q2022.522,408.4922 2022.9438,408.0547 Q2023.2095,407.7891 2023.3501,407.7109 Q2023.5063,407.6328 2023.7095,407.6328 Q2024.0376,407.6328 2024.2876,407.8984 Q2024.5532,408.1484 2024.5532,408.4922 Q2024.5532,408.8359 2024.2095,409.2422 Q2023.7095,409.8203 2022.9126,410.1484 Q2021.8345,410.6016 2020.5376,410.6016 Q2019.022,410.6016 2017.8188,409.9766 Q2016.8345,409.4766 2016.147,408.4141 Q2015.4595,407.3359 2015.4595,406.0547 L2015.4595,404.8984 Q2015.4595,403.5703 2016.0688,402.4297 Q2016.6938,401.2734 2017.7876,400.6641 Q2018.8813,400.0391 2020.1157,400.0391 Q2020.8501,400.0391 2021.4907,400.2109 Q2022.147,400.3672 2022.6938,400.7266 Z " fill="#000000"/><text fill="#000000" font-family="sans-serif" font-size="12" font-style="italic" lengthAdjust="spacing" textLength="63.3867" x="2038.4282" y="400.957">&#171;Singleton&#187;</text><text fill="#000000" font-family="sans-serif" font-size="14" lengthAdjust="spacing" textLength="58.3789" x="2040.9321" y="418.127">Singleton</text><line style="stroke:#FF0000;stroke-width:0.5;" x1="1880" x2="2227.7432" y1="426.2031" y2="426.2031"/><text fill="#000000" font-family="sans-serif" font-size="14" lengthAdjust="spacing" textLength="336.998" x="1885" y="444.7363">uniqueInstance: headfirst/singleton/subclass/Singleton</text><line style="stroke:#FF0000;stroke-width:0.5;" x1="1880" x2="2227.7432" y1="451.8125" y2="451.8125"/><polygon fill="#FFFF44" points="1890,461.1172,1894,465.1172,1890,469.1172,1886,465.1172" style="stroke:#B38D22;stroke-width:1;"/><text fill="#000000" font-family="sans-serif" font-size="14" lengthAdjust="spacing" textLength="67.7031" x="1899" y="470.3457">Singleton()</text><polygon fill="#4177AF" points="1890,479.7266,1886,485.7266,1894,485.7266" style="stroke:#1963A0;stroke-width:1;"/><text fill="#000000" font-family="sans-serif" font-size="14" lengthAdjust="spacing" text-decoration="underline" textLength="323.7432" x="1899" y="487.9551">getInstance(): headfirst/singleton/subclass/Singleton</text></g><!--class HotterSingleton--><g id="elem_HotterSingleton"><rect codeLine="79" fill="#FF8888" height="76.3125" id="HotterSingleton" rx="2.5" ry="2.5" style="stroke:#FF0000;stroke-width:0.5;" width="131.8271" x="2282" y="148"/><ellipse cx="2298.4959" cy="169.3516" fill="#ADD1B2" rx="11" ry="11" style="stroke:#181818;stroke-width:1;"/><path d="M2301.2615,165.2266 Q2301.4178,165.0078 2301.6053,164.8984 Q2301.7928,164.7891 2302.0115,164.7891 Q2302.3865,164.7891 2302.6209,165.0547 Q2302.8553,165.3047 2302.8553,165.9141 L2302.8553,167.3672 Q2302.8553,167.9766 2302.6209,168.2422 Q2302.3865,168.5078 2302.0115,168.5078 Q2301.6678,168.5078 2301.4646,168.3047 Q2301.2615,168.1172 2301.1521,167.6016 Q2301.1053,167.2422 2300.9178,167.0547 Q2300.5896,166.6797 2299.9803,166.4609 Q2299.3709,166.2422 2298.7459,166.2422 Q2297.9803,166.2422 2297.3396,166.5703 Q2296.7146,166.8984 2296.2146,167.6484 Q2295.7303,168.3984 2295.7303,169.4297 L2295.7303,170.5234 Q2295.7303,171.7578 2296.6209,172.5859 Q2297.5115,173.3984 2299.1053,173.3984 Q2300.0428,173.3984 2300.699,173.1484 Q2301.0896,172.9922 2301.5115,172.5547 Q2301.7771,172.2891 2301.9178,172.2109 Q2302.074,172.1328 2302.2771,172.1328 Q2302.6053,172.1328 2302.8553,172.3984 Q2303.1209,172.6484 2303.1209,172.9922 Q2303.1209,173.3359 2302.7771,173.7422 Q2302.2771,174.3203 2301.4803,174.6484 Q2300.4021,175.1016 2299.1053,175.1016 Q2297.5896,175.1016 2296.3865,174.4766 Q2295.4021,173.9766 2294.7146,172.9141 Q2294.0271,171.8359 2294.0271,170.5547 L2294.0271,169.3984 Q2294.0271,168.0703 2294.6365,166.9297 Q2295.2615,165.7734 2296.3553,165.1641 Q2297.449,164.5391 2298.6834,164.5391 Q2299.4178,164.5391 2300.0584,164.7109 Q2300.7146,164.8672 2301.2615,165.2266 Z " fill="#000000"/><text fill="#000000" font-family="sans-serif" font-size="12" font-style="italic" lengthAdjust="spacing" textLength="63.3867" x="2329.3864" y="165.457">&#171;Singleton&#187;</text><text fill="#000000" font-family="sans-serif" font-size="14" lengthAdjust="spacing" textLength="96.5029" x="2312.8283" y="182.627">HotterSingleton</text><line style="stroke:#FF0000;stroke-width:0.5;" x1="2283" x2="2412.8271" y1="190.7031" y2="190.7031"/><line style="stroke:#FF0000;stroke-width:0.5;" x1="2283" x2="2412.8271" y1="198.7031" y2="198.7031"/><rect fill="#F24D5C" height="6" style="stroke:#C82930;stroke-width:1;" width="6" x="2290" y="210.0078"/><text fill="#000000" font-family="sans-serif" font-size="14" lengthAdjust="spacing" textLength="105.8271" x="2302" y="217.2363">HotterSingleton()</text></g><!--class SingletonTestDrive--><g id="elem_SingletonTestDrive"><rect codeLine="98" fill="#F1F1F1" height="83.2188" id="SingletonTestDrive" rx="2.5" ry="2.5" style="stroke:#181818;stroke-width:0.5;" width="205.751" x="1620" y="144.5"/><ellipse cx="1659.964" cy="160.5" fill="#ADD1B2" rx="11" ry="11" style="stroke:#181818;stroke-width:1;"/><path d="M1662.7296,156.375 Q1662.8859,156.1563 1663.0734,156.0469 Q1663.2609,155.9375 1663.4796,155.9375 Q1663.8546,155.9375 1664.089,156.2031 Q1664.3234,156.4531 1664.3234,157.0625 L1664.3234,158.5156 Q1664.3234,159.125 1664.089,159.3906 Q1663.8546,159.6563 1663.4796,159.6563 Q1663.1359,159.6563 1662.9328,159.4531 Q1662.7296,159.2656 1662.6203,158.75 Q1662.5734,158.3906 1662.3859,158.2031 Q1662.0578,157.8281 1661.4484,157.6094 Q1660.839,157.3906 1660.214,157.3906 Q1659.4484,157.3906 1658.8078,157.7188 Q1658.1828,158.0469 1657.6828,158.7969 Q1657.1984,159.5469 1657.1984,160.5781 L1657.1984,161.6719 Q1657.1984,162.9063 1658.089,163.7344 Q1658.9796,164.5469 1660.5734,164.5469 Q1661.5109,164.5469 1662.1671,164.2969 Q1662.5578,164.1406 1662.9796,163.7031 Q1663.2453,163.4375 1663.3859,163.3594 Q1663.5421,163.2813 1663.7453,163.2813 Q1664.0734,163.2813 1664.3234,163.5469 Q1664.589,163.7969 1664.589,164.1406 Q1664.589,164.4844 1664.2453,164.8906 Q1663.7453,165.4688 1662.9484,165.7969 Q1661.8703,166.25 1660.5734,166.25 Q1659.0578,166.25 1657.8546,165.625 Q1656.8703,165.125 1656.1828,164.0625 Q1655.4953,162.9844 1655.4953,161.7031 L1655.4953,160.5469 Q1655.4953,159.2188 1656.1046,158.0781 Q1656.7296,156.9219 1657.8234,156.3125 Q1658.9171,155.6875 1660.1515,155.6875 Q1660.8859,155.6875 1661.5265,155.8594 Q1662.1828,156.0156 1662.7296,156.375 Z " fill="#000000"/><text fill="#000000" font-family="sans-serif" font-size="14" lengthAdjust="spacing" textLength="118.2754" x="1679.5116" y="166.2285">SingletonTestDrive</text><line style="stroke:#181818;stroke-width:0.5;" x1="1621" x2="1824.751" y1="176.5" y2="176.5"/><line style="stroke:#181818;stroke-width:0.5;" x1="1621" x2="1824.751" y1="184.5" y2="184.5"/><ellipse cx="1631" cy="198.8047" fill="#84BE84" rx="3" ry="3" style="stroke:#038048;stroke-width:1;"/><text fill="#000000" font-family="sans-serif" font-size="14" lengthAdjust="spacing" textLength="127.5996" x="1640" y="203.0332">SingletonTestDrive()</text><polygon fill="#4177AF" points="1631,212.4141,1627,218.4141,1635,218.4141" style="stroke:#1963A0;stroke-width:1;"/><text fill="#000000" font-family="sans-serif" font-size="14" lengthAdjust="spacing" text-decoration="underline" textLength="179.751" x="1640" y="220.6426">main(java/lang/String[]): Void</text></g><!--class Singleton--><g id="elem_Singleton"><rect codeLine="105" fill="#FF8888" height="111.5313" id="Singleton" rx="2.5" ry="2.5" style="stroke:#FF0000;stroke-width:0.5;" width="361.4326" x="3000.5" y="130"/><ellipse cx="3147.2729" cy="151.3516" fill="#ADD1B2" rx="11" ry="11" style="stroke:#181818;stroke-width:1;"/><path d="M3150.0386,147.2266 Q3150.1948,147.0078 3150.3823,146.8984 Q3150.5698,146.7891 3150.7886,146.7891 Q3151.1636,146.7891 3151.3979,147.0547 Q3151.6323,147.3047 3151.6323,147.9141 L3151.6323,149.3672 Q3151.6323,149.9766 3151.3979,150.2422 Q3151.1636,150.5078 3150.7886,150.5078 Q3150.4448,150.5078 3150.2417,150.3047 Q3150.0386,150.1172 3149.9292,149.6016 Q3149.8823,149.2422 3149.6948,149.0547 Q3149.3667,148.6797 3148.7573,148.4609 Q3148.1479,148.2422 3147.5229,148.2422 Q3146.7573,148.2422 3146.1167,148.5703 Q3145.4917,148.8984 3144.9917,149.6484 Q3144.5073,150.3984 3144.5073,151.4297 L3144.5073,152.5234 Q3144.5073,153.7578 3145.3979,154.5859 Q3146.2886,155.3984 3147.8823,155.3984 Q3148.8198,155.3984 3149.4761,155.1484 Q3149.8667,154.9922 3150.2886,154.5547 Q3150.5542,154.2891 3150.6948,154.2109 Q3150.8511,154.1328 3151.0542,154.1328 Q3151.3823,154.1328 3151.6323,154.3984 Q3151.8979,154.6484 3151.8979,154.9922 Q3151.8979,155.3359 3151.5542,155.7422 Q3151.0542,156.3203 3150.2573,156.6484 Q3149.1792,157.1016 3147.8823,157.1016 Q3146.3667,157.1016 3145.1636,156.4766 Q3144.1792,155.9766 3143.4917,154.9141 Q3142.8042,153.8359 3142.8042,152.5547 L3142.8042,151.3984 Q3142.8042,150.0703 3143.4136,148.9297 Q3144.0386,147.7734 3145.1323,147.1641 Q3146.2261,146.5391 3147.4604,146.5391 Q3148.1948,146.5391 3148.8354,146.7109 Q3149.4917,146.8672 3150.0386,147.2266 Z " fill="#000000"/><text fill="#000000" font-family="sans-serif" font-size="12" font-style="italic" lengthAdjust="spacing" textLength="63.3867" x="3165.7729" y="147.457">&#171;Singleton&#187;</text><text fill="#000000" font-family="sans-serif" font-size="14" lengthAdjust="spacing" textLength="58.3789" x="3168.2769" y="164.627">Singleton</text><line style="stroke:#FF0000;stroke-width:0.5;" x1="3001.5" x2="3360.9326" y1="172.7031" y2="172.7031"/><text fill="#000000" font-family="sans-serif" font-size="14" lengthAdjust="spacing" textLength="348.6875" x="3006.5" y="191.2363">uniqueInstance: headfirst/singleton/threadsafe/Singleton</text><line style="stroke:#FF0000;stroke-width:0.5;" x1="3001.5" x2="3360.9326" y1="198.3125" y2="198.3125"/><rect fill="#F24D5C" height="6" style="stroke:#C82930;stroke-width:1;" width="6" x="3008.5" y="209.6172"/><text fill="#000000" font-family="sans-serif" font-size="14" lengthAdjust="spacing" textLength="67.7031" x="3020.5" y="216.8457">Singleton()</text><polygon fill="#4177AF" points="3011.5,226.2266,3007.5,232.2266,3015.5,232.2266" style="stroke:#1963A0;stroke-width:1;"/><text fill="#000000" font-family="sans-serif" font-size="14" lengthAdjust="spacing" text-decoration="underline" textLength="335.4326" x="3020.5" y="234.4551">getInstance(): headfirst/singleton/threadsafe/Singleton</text></g><g id="elem_note0"><path d="M4142,426.5 L4142,452.8516 L4397.8569,452.8516 L4397.8569,436.5 L4387.8569,426.5 L4142,426.5 " fill="#FEFFDD" style="stroke:#181818;stroke-width:0.5;"/><path d="M4387.8569,426.5 L4387.8569,436.5 L4397.8569,436.5 L4387.8569,426.5 " fill="#FEFFDD" style="stroke:#181818;stroke-width:1;"/><text fill="#000000" font-family="sans-serif" font-size="13" lengthAdjust="spacing" textLength="234.8569" x="4148" y="444.9951">This class might be an abused singleton.</text></g><g id="elem_note1"><path d="M99,668 L99,694.3516 A0,0 0 0 0 99,694.3516 L354.8569,694.3516 A0,0 0 0 0 354.8569,694.3516 L354.8569,678 L344.8569,668 L231,668 L227,495.75 L223,668 L99,668 A0,0 0 0 0 99,668 " fill="#FEFFDD" style="stroke:#181818;stroke-width:0.5;"/><path d="M344.8569,668 L344.8569,678 L354.8569,678 L344.8569,668 " fill="#FEFFDD" style="stroke:#181818;stroke-width:0.5;"/><text fill="#000000" font-family="sans-serif" font-size="13" lengthAdjust="spacing" textLength="234.8569" x="105" y="686.4951">This class might be an abused singleton.</text></g><g id="elem_note2"><path d="M589,668 L589,694.3516 A0,0 0 0 0 589,694.3516 L844.8569,694.3516 A0,0 0 0 0 844.8569,694.3516 L844.8569,678 L834.8569,668 L721,668 L717,504.05 L713,668 L589,668 A0,0 0 0 0 589,668 " fill="#FEFFDD" style="stroke:#181818;stroke-width:0.5;"/><path d="M834.8569,668 L834.8569,678 L844.8569,678 L834.8569,668 " fill="#FEFFDD" style="stroke:#181818;stroke-width:0.5;"/><text fill="#000000" font-family="sans-serif" font-size="13" lengthAdjust="spacing" textLength="234.8569" x="595" y="686.4951">This class might be an abused singleton.</text></g><g id="elem_note3"><path d="M3560,426.5 L3560,452.8516 L3815.8569,452.8516 L3815.8569,436.5 L3805.8569,426.5 L3560,426.5 " fill="#FEFFDD" style="stroke:#181818;stroke-width:0.5;"/><path d="M3805.8569,426.5 L3805.8569,436.5 L3815.8569,436.5 L3805.8569,426.5 " fill="#FEFFDD" style="stroke:#181818;stroke-width:1;"/><text fill="#000000" font-family="sans-serif" font-size="13" lengthAdjust="spacing" textLength="234.8569" x="3566" y="444.9951">This class might be an abused singleton.</text></g><g id="elem_note4"><path d="M3851,426.5 L3851,452.8516 L4106.8569,452.8516 L4106.8569,436.5 L4096.8569,426.5 L3851,426.5 " fill="#FEFFDD" style="stroke:#181818;stroke-width:0.5;"/><path d="M4096.8569,426.5 L4096.8569,436.5 L4106.8569,436.5 L4096.8569,426.5 " fill="#FEFFDD" style="stroke:#181818;stroke-width:1;"/><text fill="#000000" font-family="sans-serif" font-size="13" lengthAdjust="spacing" textLength="234.8569" x="3857" y="444.9951">This class might be an abused singleton.</text></g><g id="elem_note5"><path d="M1926,668 L1926,694.3516 A0,0 0 0 0 1926,694.3516 L2181.8569,694.3516 A0,0 0 0 0 2181.8569,694.3516 L2181.8569,678 L2171.8569,668 L2058,668 L2054,495.75 L2050,668 L1926,668 A0,0 0 0 0 1926,668 " fill="#FEFFDD" style="stroke:#181818;stroke-width:0.5;"/><path d="M2171.8569,668 L2171.8569,678 L2181.8569,678 L2171.8569,668 " fill="#FEFFDD" style="stroke:#181818;stroke-width:0.5;"/><text fill="#000000" font-family="sans-serif" font-size="13" lengthAdjust="spacing" textLength="234.8569" x="1932" y="686.4951">This class might be an abused singleton.</text></g><g id="elem_note6"><path d="M4433,426.5 L4433,452.8516 L4688.8569,452.8516 L4688.8569,436.5 L4678.8569,426.5 L4433,426.5 " fill="#FEFFDD" style="stroke:#181818;stroke-width:0.5;"/><path d="M4678.8569,426.5 L4678.8569,436.5 L4688.8569,436.5 L4678.8569,426.5 " fill="#FEFFDD" style="stroke:#181818;stroke-width:1;"/><text fill="#000000" font-family="sans-serif" font-size="13" lengthAdjust="spacing" textLength="234.8569" x="4439" y="444.9951">This class might be an abused singleton.</text></g><!--link ChocolateBoiler to ChocolateBoiler--><g id="link_ChocolateBoiler_ChocolateBoiler"><path codeLine="14" d="M1446.03,415.08 C1467.31,419.78 1481,427.92 1481,439.5 C1481,451.08 1473.1688,457.926 1451.8888,462.626 " fill="transparent" id="ChocolateBoiler-to-ChocolateBoiler" style="stroke:#181818;stroke-width:1;"/><polygon fill="#181818" points="1446.03,463.92,1455.6809,465.8849,1450.9123,462.8417,1453.9555,458.0731,1446.03,463.92" style="stroke:#181818;stroke-width:1;"/><text fill="#000000" font-family="sans-serif" font-size="13" lengthAdjust="spacing" textLength="88.1816" x="1487" y="444.9951">uniqueInstance</text></g><!--link ChocolateController to ChocolateController--><g id="link_ChocolateController_ChocolateController"><path codeLine="20" d="M1351.21,168.77 C1371.54,170.74 1386,176.48 1386,186 C1386,195.52 1377.512,200.6813 1357.182,202.6513 " fill="transparent" id="ChocolateController-to-ChocolateController" style="stroke:#181818;stroke-width:1;stroke-dasharray:7.0,7.0;"/><polygon fill="#181818" points="1351.21,203.23,1360.5538,206.3433,1356.1867,202.7478,1359.7822,198.3806,1351.21,203.23" style="stroke:#181818;stroke-width:1;"/></g><!--link ChocolateController to ChocolateBoiler--><g id="link_ChocolateController_ChocolateBoiler"><path codeLine="21" d="M1248,227.69 C1248,253.41 1248,282.06 1248,315.84 " fill="transparent" id="ChocolateController-to-ChocolateBoiler" style="stroke:#181818;stroke-width:1;stroke-dasharray:7.0,7.0;"/><polygon fill="#181818" points="1248,321.84,1252,312.84,1248,316.84,1244,312.84,1248,321.84" style="stroke:#181818;stroke-width:1;"/></g><!--link Singleton to note0--><g id="link_Singleton_note0"><path codeLine="30" d="M2825.78,235.58 C2876.24,247.97 2931.97,259.6 2984,266 C3040.3,272.93 3949.34,263.05 4005,274 C4061.36,285.08 4075.4,293.03 4125,322 C4178.54,353.27 4233.33,403.17 4257.38,426.16 " fill="transparent" id="Singleton-note0" style="stroke:#181818;stroke-width:1;stroke-dasharray:7.0,7.0;"/></g><!--link Singleton to Singleton--><g id="link_Singleton_Singleton"><path codeLine="31" d="M2825.82,170.38 C2846.75,173.15 2860.5,178.36 2860.5,186 C2860.5,193.64 2852.6981,198.0628 2831.7681,200.8328 " fill="transparent" id="Singleton-to-Singleton" style="stroke:#181818;stroke-width:1;"/><polygon fill="#181818" points="2825.82,201.62,2835.267,204.4046,2830.7768,200.964,2834.2174,196.4738,2825.82,201.62" style="stroke:#181818;stroke-width:1;"/><text fill="#000000" font-family="sans-serif" font-size="13" lengthAdjust="spacing" textLength="88.1816" x="2866.5" y="191.4951">uniqueInstance</text></g><!--link Singleton to Singleton--><g id="link_Singleton_Singleton"><path codeLine="41" d="M383.66,413.63 C404.59,418 418.5,426.63 418.5,439.5 C418.5,452.37 410.4633,459.7737 389.5333,464.1437 " fill="transparent" id="Singleton-to-Singleton-1" style="stroke:#181818;stroke-width:1;"/><polygon fill="#181818" points="383.66,465.37,393.2876,467.4461,388.5545,464.3481,391.6525,459.615,383.66,465.37" style="stroke:#181818;stroke-width:1;"/><text fill="#000000" font-family="sans-serif" font-size="13" lengthAdjust="spacing" textLength="88.1816" x="424.5" y="444.9951">uniqueInstance</text></g><!--link SingletonClient to SingletonClient--><g id="link_SingletonClient_SingletonClient"><path codeLine="47" d="M330.21,168.77 C350.54,170.74 365,176.48 365,186 C365,195.52 356.512,200.6813 336.182,202.6513 " fill="transparent" id="SingletonClient-to-SingletonClient" style="stroke:#181818;stroke-width:1;stroke-dasharray:7.0,7.0;"/><polygon fill="#181818" points="330.21,203.23,339.5538,206.3433,335.1867,202.7478,338.7822,198.3806,330.21,203.23" style="stroke:#181818;stroke-width:1;"/></g><!--link SingletonClient to Singleton--><g id="link_SingletonClient_Singleton"><path codeLine="48" d="M227,227.69 C227,269.95 227,330.35 227,377.32 " fill="transparent" id="SingletonClient-to-Singleton" style="stroke:#181818;stroke-width:1;stroke-dasharray:7.0,7.0;"/><polygon fill="#181818" points="227,383.32,231,374.32,227,378.32,223,374.32,227,383.32" style="stroke:#181818;stroke-width:1;"/></g><!--link Singleton to Singleton--><g id="link_Singleton_Singleton"><path codeLine="59" d="M876.08,413.71 C897.08,418.11 911,426.7 911,439.5 C911,452.3 902.9525,459.6596 881.9525,464.0596 " fill="transparent" id="Singleton-to-Singleton-2" style="stroke:#181818;stroke-width:1;"/><polygon fill="#181818" points="876.08,465.29,885.709,467.3594,880.9737,464.2646,884.0684,459.5294,876.08,465.29" style="stroke:#181818;stroke-width:1;"/><text fill="#000000" font-family="sans-serif" font-size="13" lengthAdjust="spacing" textLength="88.1816" x="917" y="444.9951">uniqueInstance</text></g><!--link SingletonClient to SingletonClient--><g id="link_SingletonClient_SingletonClient"><path codeLine="65" d="M820.21,168.77 C840.54,170.74 855,176.48 855,186 C855,195.52 846.512,200.6813 826.182,202.6513 " fill="transparent" id="SingletonClient-to-SingletonClient-1" style="stroke:#181818;stroke-width:1;stroke-dasharray:7.0,7.0;"/><polygon fill="#181818" points="820.21,203.23,829.5538,206.3433,825.1867,202.7478,828.7822,198.3806,820.21,203.23" style="stroke:#181818;stroke-width:1;"/></g><!--link SingletonClient to Singleton--><g id="link_SingletonClient_Singleton"><path codeLine="66" d="M717,227.69 C717,267.45 717,322.57 717,368.78 " fill="transparent" id="SingletonClient-to-Singleton-1" style="stroke:#181818;stroke-width:1;stroke-dasharray:7.0,7.0;"/><polygon fill="#181818" points="717,374.78,721,365.78,717,369.78,713,365.78,717,374.78" style="stroke:#181818;stroke-width:1;"/></g><!--link CoolerSingleton to note3--><g id="link_CoolerSingleton_note3"><path codeLine="74" d="M2161.43,233.05 C2193.88,245.42 2229.95,257.66 2264,266 C2732.95,380.85 3308.33,420.68 3559.97,433.25 " fill="transparent" id="CoolerSingleton-note3" style="stroke:#181818;stroke-width:1;stroke-dasharray:7.0,7.0;"/></g><!--link CoolerSingleton to Singleton--><g id="link_CoolerSingleton_Singleton"><path codeLine="75" d="M2081.79,233.38 C2088.04,246.11 2093.78,260.22 2097,274 C2105.56,310.65 2101.6521,334.9023 2088.8221,366.7723 " fill="transparent" id="CoolerSingleton-to-Singleton" style="stroke:#181818;stroke-width:1;"/><polygon fill="transparent" points="2082.1,383.47,2094.388,369.013,2083.2561,364.5316,2082.1,383.47" style="stroke:#181818;stroke-width:1;"/><text fill="#000000" font-family="sans-serif" font-size="13" lengthAdjust="spacing" textLength="7.23" x="2078.0696" y="254.3457">1</text><text fill="#000000" font-family="sans-serif" font-size="13" lengthAdjust="spacing" textLength="7.23" x="2078.2831" y="372.8138">1</text></g><!--link CoolerSingleton to Singleton--><g id="link_CoolerSingleton_Singleton"><path codeLine="76" d="M2017.96,233.43 C2010.18,245.94 2003.08,259.93 1999,274 C1988.36,310.73 1999.0871,346.1686 2015.3371,377.9286 " fill="transparent" id="CoolerSingleton-to-Singleton-1" style="stroke:#181818;stroke-width:1;"/><polygon fill="#181818" points="2018.07,383.27,2017.5315,373.4359,2015.7925,378.8188,2010.4096,377.0798,2018.07,383.27" style="stroke:#181818;stroke-width:1;"/><text fill="#000000" font-family="sans-serif" font-size="13" lengthAdjust="spacing" textLength="88.1816" x="2000" y="288.4951">uniqueInstance</text></g><!--link CoolerSingleton to CoolerSingleton--><g id="link_CoolerSingleton_CoolerSingleton"><path codeLine="77" d="M2228.58,170.48 C2249.69,173.28 2263.5,178.45 2263.5,186 C2263.5,193.55 2255.6379,197.9311 2234.5279,200.7311 " fill="transparent" id="CoolerSingleton-to-CoolerSingleton" style="stroke:#181818;stroke-width:1;stroke-dasharray:7.0,7.0;"/><polygon fill="#181818" points="2228.58,201.52,2238.0278,204.3019,2233.5366,200.8626,2236.9759,196.3713,2228.58,201.52" style="stroke:#181818;stroke-width:1;"/></g><!--link HotterSingleton to note4--><g id="link_HotterSingleton_note4"><path codeLine="84" d="M2392.64,224.11 C2414.99,240.32 2443.36,257.55 2472,266 C2538.18,285.52 3646.29,260.73 3714,274 C3770.37,285.04 3784.4,293.03 3834,322 C3887.54,353.27 3942.33,403.17 3966.38,426.16 " fill="transparent" id="HotterSingleton-note4" style="stroke:#181818;stroke-width:1;stroke-dasharray:7.0,7.0;"/></g><!--link HotterSingleton to Singleton--><g id="link_HotterSingleton_Singleton"><path codeLine="85" d="M2309.61,224.13 C2295.46,237.54 2279.19,252.65 2264,266 C2218.11,306.34 2178.9302,338.7213 2137.5602,372.0313 " fill="transparent" id="HotterSingleton-to-Singleton" style="stroke:#181818;stroke-width:1;"/><polygon fill="transparent" points="2123.54,383.32,2141.3231,376.7047,2133.7973,367.3579,2123.54,383.32" style="stroke:#181818;stroke-width:1;"/><text fill="#000000" font-family="sans-serif" font-size="13" lengthAdjust="spacing" textLength="7.23" x="2295.1842" y="245.8455">1</text><text fill="#000000" font-family="sans-serif" font-size="13" lengthAdjust="spacing" textLength="7.23" x="2125.0326" y="372.6446">1</text></g><!--link HotterSingleton to HotterSingleton--><g id="link_HotterSingleton_HotterSingleton"><path codeLine="86" d="M2414.05,168.04 C2433.71,168.58 2449,174.56 2449,186 C2449,197.44 2439.7077,203.2553 2420.0477,203.7953 " fill="transparent" id="HotterSingleton-to-HotterSingleton" style="stroke:#181818;stroke-width:1;stroke-dasharray:7.0,7.0;"/><polygon fill="#181818" points="2414.05,203.96,2423.1564,207.7114,2419.0481,203.8227,2422.9368,199.7144,2414.05,203.96" style="stroke:#181818;stroke-width:1;"/></g><!--link Singleton to Singleton--><g id="link_Singleton_Singleton"><path codeLine="96" d="M2229.39,414.36 C2250.33,418.93 2264,427.31 2264,439.5 C2264,451.69 2256.192,458.7907 2235.252,463.3607 " fill="transparent" id="Singleton-to-Singleton-3" style="stroke:#181818;stroke-width:1;"/><polygon fill="#181818" points="2229.39,464.64,2239.0359,466.629,2234.275,463.5739,2237.3301,458.813,2229.39,464.64" style="stroke:#181818;stroke-width:1;"/><text fill="#000000" font-family="sans-serif" font-size="13" lengthAdjust="spacing" textLength="88.1816" x="2270" y="444.9951">uniqueInstance</text></g><!--link SingletonTestDrive to SingletonTestDrive--><g id="link_SingletonTestDrive_SingletonTestDrive"><path codeLine="102" d="M1826.21,168.77 C1846.54,170.74 1861,176.48 1861,186 C1861,195.52 1852.512,200.6813 1832.182,202.6513 " fill="transparent" id="SingletonTestDrive-to-SingletonTestDrive" style="stroke:#181818;stroke-width:1;stroke-dasharray:7.0,7.0;"/><polygon fill="#181818" points="1826.21,203.23,1835.5538,206.3433,1831.1867,202.7478,1834.7822,198.3806,1826.21,203.23" style="stroke:#181818;stroke-width:1;"/></g><!--link SingletonTestDrive to Singleton--><g id="link_SingletonTestDrive_Singleton"><path codeLine="103" d="M1776.55,227.69 C1832.17,269.95 1914.7725,332.7201 1976.5925,379.6901 " fill="transparent" id="SingletonTestDrive-to-Singleton" style="stroke:#181818;stroke-width:1;stroke-dasharray:7.0,7.0;"/><polygon fill="#181818" points="1981.37,383.32,1976.6237,374.6902,1977.3888,380.2951,1971.7839,381.0602,1981.37,383.32" style="stroke:#181818;stroke-width:1;"/></g><!--link Singleton to note6--><g id="link_Singleton_note6"><path codeLine="112" d="M3361.56,194.46 C3630.6,206.69 4123.52,233.76 4296,274 C4351.94,287.05 4366.4,293.03 4416,322 C4469.54,353.27 4524.33,403.17 4548.38,426.16 " fill="transparent" id="Singleton-note6" style="stroke:#181818;stroke-width:1;stroke-dasharray:7.0,7.0;"/></g><!--link Singleton to Singleton--><g id="link_Singleton_Singleton"><path codeLine="113" d="M3361.79,170.64 C3382.82,173.47 3396.5,178.59 3396.5,186 C3396.5,193.41 3388.7664,197.7298 3367.7364,200.5598 " fill="transparent" id="Singleton-to-Singleton-4" style="stroke:#181818;stroke-width:1;"/><polygon fill="#181818" points="3361.79,201.36,3371.2431,204.124,3366.7453,200.6932,3370.1761,196.1954,3361.79,201.36" style="stroke:#181818;stroke-width:1;"/><text fill="#000000" font-family="sans-serif" font-size="13" lengthAdjust="spacing" textLength="88.1816" x="3402.5" y="191.4951">uniqueInstance</text></g><!--SRC=[jPRBRjim44Nt_0h2sIG8B3Nf0u4RQ16tGRfEq4tH1ItH5WkQR4KwG92wtrxIaVMMp97fdJIUkQEPUsWfvaGfd5AIB5ccTA2OM76gfGZYLCQI4qs3-VxgJZ9ECtnx-xZFYgAp-vkRpvm9EijeWbyHfklV-cM6xwJab0Y45xOegGGsWltPq6z2QI9YEYkRXqNpi6WUDfeZF6r4pYyGVZLQciLR_6z5zLxv_0AiVRbadDkwxv8bvZR921ELUpjBvPQfhtPO6occCy6TMbADRX5imzDf1FHarbWhGZ74sRaKEfFSAXaBBplYzJMlxLv-aMSISY9MuQFEZFgFd_lLECzRwHi44VnfJzidns9ebVON5WV5WJXmE9pOVzCC2nt3V74DfxsbjaL8I4tnv2bb2h_DjcQhLEC5nKHWijWeyxJba1DC5BObxv3R3e80bDvBUoiJGdaISw-s63rFbjILnjjnXGxFdLlXajfdGprhj0LppgZGkx-NHip3NqjNfxw3tf7hLtDe9NPChrXQGKzSDgNAughcU5wlaSD6Sc2TSlk8RQH1aAsNdfJPpbPzW7Kb-rOTtCjciVincDjFcimhmRbqZU96cwEuUuz04-K40gicLnF3uzzeTp5OMOu9Qj0BUqkt3Jnm_WY4W1Cs3r9hTsocZVIZxF-0G4-Msm-iycv_-x4Yq8QTN3drCJuxucNKbXkFm4Vak8RSVEVyOmuboA0dglINZ3tJ-ike2Fju7mqqFKXVk-Q4FOPMfzFCH1LPKgzqbxAUFhOw1SSJ_WavBoDd753HHtbdSelp_m00]--></g></svg>