<svg xmlns="http://www.w3.org/2000/svg" xmlns:xlink="http://www.w3.org/1999/xlink" contentStyleType="text/css" data-diagram-type="CLASS" height="636px" preserveAspectRatio="none" style="width:2454px;height:636px;background:#FFFFFF;" version="1.1" viewBox="0 0 2454 636" width="2454px" zoomAndPan="magnify"><defs/><g><!--cluster headfirst--><g id="cluster_headfirst"><path d="M8.5,6 L68.624,6 A3.75,3.75 0 0 1 71.124,8.5 L78.124,29.6094 L2444.5,29.6094 A2.5,2.5 0 0 1 2447,32.1094 L2447,626.5 A2.5,2.5 0 0 1 2444.5,629 L8.5,629 A2.5,2.5 0 0 1 6,626.5 L6,8.5 A2.5,2.5 0 0 1 8.5,6 " fill="transparent" style="stroke:#000000;stroke-width:1.5;"/><line style="stroke:#000000;stroke-width:1.5;" x1="6" x2="78.124" y1="29.6094" y2="29.6094"/><text fill="#000000" font-family="sans-serif" font-size="14" font-weight="bold" lengthAdjust="spacing" textLength="59.124" x="10" y="22.5332">headfirst</text></g><!--cluster decorator--><g id="cluster_decorator"><path d="M32.5,50 L98.0723,50 A3.75,3.75 0 0 1 100.5723,52.5 L107.5723,73.6094 L2420.5,73.6094 A2.5,2.5 0 0 1 2423,76.1094 L2423,602.5 A2.5,2.5 0 0 1 2420.5,605 L32.5,605 A2.5,2.5 0 0 1 30,602.5 L30,52.5 A2.5,2.5 0 0 1 32.5,50 " fill="transparent" style="stroke:#000000;stroke-width:1.5;"/><line style="stroke:#000000;stroke-width:1.5;" x1="30" x2="107.5723" y1="73.6094" y2="73.6094"/><text fill="#000000" font-family="sans-serif" font-size="14" font-weight="bold" lengthAdjust="spacing" textLength="64.5723" x="34" y="66.5332">decorator</text></g><!--cluster io--><g id="cluster_io"><path d="M1788.5,99.5 L1801.9414,99.5 A3.75,3.75 0 0 1 1804.4414,102 L1811.4414,123.1094 L2396.5,123.1094 A2.5,2.5 0 0 1 2399,125.6094 L2399,250 A2.5,2.5 0 0 1 2396.5,252.5 L1788.5,252.5 A2.5,2.5 0 0 1 1786,250 L1786,102 A2.5,2.5 0 0 1 1788.5,99.5 " fill="transparent" style="stroke:#000000;stroke-width:1.5;"/><line style="stroke:#000000;stroke-width:1.5;" x1="1786" x2="1811.4414" y1="123.1094" y2="123.1094"/><text fill="#000000" font-family="sans-serif" font-size="14" font-weight="bold" lengthAdjust="spacing" textLength="12.4414" x="1790" y="116.0332">io</text></g><!--cluster starbuzz--><g id="cluster_starbuzz"><path d="M56.5,94 L114.2861,94 A3.75,3.75 0 0 1 116.7861,96.5 L123.7861,117.6094 L1759.5,117.6094 A2.5,2.5 0 0 1 1762,120.1094 L1762,578.5 A2.5,2.5 0 0 1 1759.5,581 L56.5,581 A2.5,2.5 0 0 1 54,578.5 L54,96.5 A2.5,2.5 0 0 1 56.5,94 " fill="transparent" style="stroke:#000000;stroke-width:1.5;"/><line style="stroke:#000000;stroke-width:1.5;" x1="54" x2="123.7861" y1="117.6094" y2="117.6094"/><text fill="#000000" font-family="sans-serif" font-size="14" font-weight="bold" lengthAdjust="spacing" textLength="56.7861" x="58" y="110.5332">starbuzz</text></g><!--class InputTest--><g id="elem_InputTest"><rect codeLine="2" fill="#F1F1F1" height="83.2188" id="InputTest" rx="2.5" ry="2.5" style="stroke:#181818;stroke-width:0.5;" width="205.751" x="2159" y="144.5"/><ellipse cx="2228.4429" cy="160.5" fill="#ADD1B2" rx="11" ry="11" style="stroke:#181818;stroke-width:1;"/><path d="M2231.2085,156.375 Q2231.3647,156.1563 2231.5522,156.0469 Q2231.7397,155.9375 2231.9585,155.9375 Q2232.3335,155.9375 2232.5679,156.2031 Q2232.8022,156.4531 2232.8022,157.0625 L2232.8022,158.5156 Q2232.8022,159.125 2232.5679,159.3906 Q2232.3335,159.6563 2231.9585,159.6563 Q2231.6147,159.6563 2231.4116,159.4531 Q2231.2085,159.2656 2231.0991,158.75 Q2231.0522,158.3906 2230.8647,158.2031 Q2230.5366,157.8281 2229.9272,157.6094 Q2229.3179,157.3906 2228.6929,157.3906 Q2227.9272,157.3906 2227.2866,157.7188 Q2226.6616,158.0469 2226.1616,158.7969 Q2225.6772,159.5469 2225.6772,160.5781 L2225.6772,161.6719 Q2225.6772,162.9063 2226.5679,163.7344 Q2227.4585,164.5469 2229.0522,164.5469 Q2229.9897,164.5469 2230.646,164.2969 Q2231.0366,164.1406 2231.4585,163.7031 Q2231.7241,163.4375 2231.8647,163.3594 Q2232.021,163.2813 2232.2241,163.2813 Q2232.5522,163.2813 2232.8022,163.5469 Q2233.0679,163.7969 2233.0679,164.1406 Q2233.0679,164.4844 2232.7241,164.8906 Q2232.2241,165.4688 2231.4272,165.7969 Q2230.3491,166.25 2229.0522,166.25 Q2227.5366,166.25 2226.3335,165.625 Q2225.3491,165.125 2224.6616,164.0625 Q2223.9741,162.9844 2223.9741,161.7031 L2223.9741,160.5469 Q2223.9741,159.2188 2224.5835,158.0781 Q2225.2085,156.9219 2226.3022,156.3125 Q2227.396,155.6875 2228.6304,155.6875 Q2229.3647,155.6875 2230.0054,155.8594 Q2230.6616,156.0156 2231.2085,156.375 Z " fill="#000000"/><text fill="#000000" font-family="sans-serif" font-size="14" lengthAdjust="spacing" textLength="58.3652" x="2248.9429" y="166.2285">InputTest</text><line style="stroke:#181818;stroke-width:0.5;" x1="2160" x2="2363.751" y1="176.5" y2="176.5"/><line style="stroke:#181818;stroke-width:0.5;" x1="2160" x2="2363.751" y1="184.5" y2="184.5"/><ellipse cx="2170" cy="198.8047" fill="#84BE84" rx="3" ry="3" style="stroke:#038048;stroke-width:1;"/><text fill="#000000" font-family="sans-serif" font-size="14" lengthAdjust="spacing" textLength="67.6895" x="2179" y="203.0332">InputTest()</text><polygon fill="#4177AF" points="2170,212.4141,2166,218.4141,2174,218.4141" style="stroke:#1963A0;stroke-width:1;"/><text fill="#000000" font-family="sans-serif" font-size="14" lengthAdjust="spacing" text-decoration="underline" textLength="179.751" x="2179" y="220.6426">main(java/lang/String[]): Void</text></g><!--class LowerCaseInputStream--><g id="elem_LowerCaseInputStream"><rect codeLine="8" fill="#F1F1F1" height="100.8281" id="LowerCaseInputStream" rx="2.5" ry="2.5" style="stroke:#181818;stroke-width:0.5;" width="303.0195" x="1802.5" y="135.5"/><ellipse cx="1876.2222" cy="151.5" fill="#ADD1B2" rx="11" ry="11" style="stroke:#181818;stroke-width:1;"/><path d="M1878.9878,147.375 Q1879.144,147.1563 1879.3315,147.0469 Q1879.519,146.9375 1879.7378,146.9375 Q1880.1128,146.9375 1880.3472,147.2031 Q1880.5815,147.4531 1880.5815,148.0625 L1880.5815,149.5156 Q1880.5815,150.125 1880.3472,150.3906 Q1880.1128,150.6563 1879.7378,150.6563 Q1879.394,150.6563 1879.1909,150.4531 Q1878.9878,150.2656 1878.8784,149.75 Q1878.8315,149.3906 1878.644,149.2031 Q1878.3159,148.8281 1877.7065,148.6094 Q1877.0972,148.3906 1876.4722,148.3906 Q1875.7065,148.3906 1875.0659,148.7188 Q1874.4409,149.0469 1873.9409,149.7969 Q1873.4565,150.5469 1873.4565,151.5781 L1873.4565,152.6719 Q1873.4565,153.9063 1874.3472,154.7344 Q1875.2378,155.5469 1876.8315,155.5469 Q1877.769,155.5469 1878.4253,155.2969 Q1878.8159,155.1406 1879.2378,154.7031 Q1879.5034,154.4375 1879.644,154.3594 Q1879.8003,154.2813 1880.0034,154.2813 Q1880.3315,154.2813 1880.5815,154.5469 Q1880.8472,154.7969 1880.8472,155.1406 Q1880.8472,155.4844 1880.5034,155.8906 Q1880.0034,156.4688 1879.2065,156.7969 Q1878.1284,157.25 1876.8315,157.25 Q1875.3159,157.25 1874.1128,156.625 Q1873.1284,156.125 1872.4409,155.0625 Q1871.7534,153.9844 1871.7534,152.7031 L1871.7534,151.5469 Q1871.7534,150.2188 1872.3628,149.0781 Q1872.9878,147.9219 1874.0815,147.3125 Q1875.1753,146.6875 1876.4097,146.6875 Q1877.144,146.6875 1877.7847,146.8594 Q1878.4409,147.0156 1878.9878,147.375 Z " fill="#000000"/><text fill="#000000" font-family="sans-serif" font-size="14" lengthAdjust="spacing" textLength="147.0752" x="1896.7222" y="157.2285">LowerCaseInputStream</text><line style="stroke:#181818;stroke-width:0.5;" x1="1803.5" x2="2104.5195" y1="167.5" y2="167.5"/><line style="stroke:#181818;stroke-width:0.5;" x1="1803.5" x2="2104.5195" y1="175.5" y2="175.5"/><ellipse cx="1813.5" cy="189.8047" fill="#84BE84" rx="3" ry="3" style="stroke:#038048;stroke-width:1;"/><text fill="#000000" font-family="sans-serif" font-size="14" lengthAdjust="spacing" textLength="277.0195" x="1822.5" y="194.0332">LowerCaseInputStream(java/io/InputStream)</text><ellipse cx="1813.5" cy="207.4141" fill="#84BE84" rx="3" ry="3" style="stroke:#038048;stroke-width:1;"/><text fill="#000000" font-family="sans-serif" font-size="14" lengthAdjust="spacing" textLength="60.6895" x="1822.5" y="211.6426">read(): Int</text><ellipse cx="1813.5" cy="225.0234" fill="#84BE84" rx="3" ry="3" style="stroke:#038048;stroke-width:1;"/><text fill="#000000" font-family="sans-serif" font-size="14" lengthAdjust="spacing" textLength="143.1719" x="1822.5" y="229.252">read(Byte[], Int, Int): Int</text></g><!--class Beverage--><g id="elem_Beverage"><rect codeLine="15" fill="#F1F1F1" height="118.4375" id="Beverage" rx="2.5" ry="2.5" style="stroke:#181818;stroke-width:0.5;" width="229.0957" x="847.5" y="447"/><ellipse cx="927.8325" cy="463" fill="#A9DCDF" rx="11" ry="11" style="stroke:#181818;stroke-width:1;"/><path d="M930.02,464.7656 L925.8794,464.7656 L925.4575,465.7969 L925.8794,465.7969 Q926.4888,465.7969 926.7544,466.0313 Q927.02,466.2656 927.02,466.6563 Q927.02,467.0313 926.7544,467.2656 Q926.4888,467.5 925.8794,467.5 L923.5825,467.5 Q922.9731,467.5 922.7231,467.2656 Q922.4575,467.0313 922.4575,466.6406 Q922.4575,466.2656 922.7388,466.0313 Q923.0044,465.7813 923.6294,465.7969 L926.3013,459.1406 L925.1919,459.1406 Q924.5825,459.1406 924.3169,458.9063 Q924.0513,458.6719 924.0513,458.2813 Q924.0513,457.9063 924.3169,457.6719 Q924.5825,457.4375 925.1919,457.4375 L928.8638,457.4375 L932.2544,465.7969 Q932.8481,465.7969 933.0356,465.9375 Q933.4263,466.2031 933.4263,466.6563 Q933.4263,467.0313 933.1606,467.2656 Q932.9106,467.5 932.3013,467.5 L930.0044,467.5 Q929.395,467.5 929.1294,467.2656 Q928.8638,467.0313 928.8638,466.6406 Q928.8638,466.2656 929.1294,466.0313 Q929.395,465.7969 930.0044,465.7969 L930.4263,465.7969 L930.02,464.7656 Z M929.3013,463.0625 L927.9419,459.6875 L926.5669,463.0625 L929.3013,463.0625 Z " fill="#000000"/><text fill="#000000" font-family="sans-serif" font-size="14" font-style="italic" lengthAdjust="spacing" textLength="59.9307" x="948.3325" y="468.7285">Beverage</text><line style="stroke:#181818;stroke-width:0.5;" x1="848.5" x2="1075.5957" y1="479" y2="479"/><text fill="#000000" font-family="sans-serif" font-size="14" lengthAdjust="spacing" textLength="171.9854" x="853.5" y="497.5332">description: java/lang/String</text><line style="stroke:#181818;stroke-width:0.5;" x1="848.5" x2="1075.5957" y1="504.6094" y2="504.6094"/><ellipse cx="858.5" cy="518.9141" fill="#84BE84" rx="3" ry="3" style="stroke:#038048;stroke-width:1;"/><text fill="#000000" font-family="sans-serif" font-size="14" lengthAdjust="spacing" textLength="69.2549" x="867.5" y="523.1426">Beverage()</text><ellipse cx="858.5" cy="536.5234" fill="#84BE84" rx="3" ry="3" style="stroke:#038048;stroke-width:1;"/><text fill="#000000" font-family="sans-serif" font-size="14" lengthAdjust="spacing" textLength="203.0957" x="867.5" y="540.752">getDescription(): java/lang/String</text><polygon fill="#4177AF" points="858.5,550.1328,854.5,556.1328,862.5,556.1328" style="stroke:#1963A0;stroke-width:1;"/><text fill="#000000" font-family="sans-serif" font-size="14" font-style="italic" lengthAdjust="spacing" textLength="87.1445" x="867.5" y="558.3613">cost(): Double</text></g><!--class CondimentDecorator--><g id="elem_CondimentDecorator"><rect codeLine="23" fill="#F1F1F1" height="83.2188" id="CondimentDecorator" rx="2.5" ry="2.5" style="stroke:#181818;stroke-width:0.5;" width="229.0957" x="581.5" y="303"/><ellipse cx="627.2119" cy="319" fill="#A9DCDF" rx="11" ry="11" style="stroke:#181818;stroke-width:1;"/><path d="M629.3994,320.7656 L625.2588,320.7656 L624.8369,321.7969 L625.2588,321.7969 Q625.8682,321.7969 626.1338,322.0313 Q626.3994,322.2656 626.3994,322.6563 Q626.3994,323.0313 626.1338,323.2656 Q625.8682,323.5 625.2588,323.5 L622.9619,323.5 Q622.3525,323.5 622.1025,323.2656 Q621.8369,323.0313 621.8369,322.6406 Q621.8369,322.2656 622.1182,322.0313 Q622.3838,321.7813 623.0088,321.7969 L625.6807,315.1406 L624.5713,315.1406 Q623.9619,315.1406 623.6963,314.9063 Q623.4307,314.6719 623.4307,314.2813 Q623.4307,313.9063 623.6963,313.6719 Q623.9619,313.4375 624.5713,313.4375 L628.2432,313.4375 L631.6338,321.7969 Q632.2275,321.7969 632.415,321.9375 Q632.8057,322.2031 632.8057,322.6563 Q632.8057,323.0313 632.54,323.2656 Q632.29,323.5 631.6807,323.5 L629.3838,323.5 Q628.7744,323.5 628.5088,323.2656 Q628.2432,323.0313 628.2432,322.6406 Q628.2432,322.2656 628.5088,322.0313 Q628.7744,321.7969 629.3838,321.7969 L629.8057,321.7969 L629.3994,320.7656 Z M628.6807,319.0625 L627.3213,315.6875 L625.9463,319.0625 L628.6807,319.0625 Z " fill="#000000"/><text fill="#000000" font-family="sans-serif" font-size="14" font-style="italic" lengthAdjust="spacing" textLength="129.1719" x="647.7119" y="324.7285">CondimentDecorator</text><line style="stroke:#181818;stroke-width:0.5;" x1="582.5" x2="809.5957" y1="335" y2="335"/><line style="stroke:#181818;stroke-width:0.5;" x1="582.5" x2="809.5957" y1="343" y2="343"/><ellipse cx="592.5" cy="357.3047" fill="#84BE84" rx="3" ry="3" style="stroke:#038048;stroke-width:1;"/><text fill="#000000" font-family="sans-serif" font-size="14" lengthAdjust="spacing" textLength="138.4961" x="601.5" y="361.5332">CondimentDecorator()</text><polygon fill="#4177AF" points="592.5,370.9141,588.5,376.9141,596.5,376.9141" style="stroke:#1963A0;stroke-width:1;"/><text fill="#000000" font-family="sans-serif" font-size="14" font-style="italic" lengthAdjust="spacing" textLength="203.0957" x="601.5" y="379.1426">getDescription(): java/lang/String</text></g><!--class DarkRoast--><g id="elem_DarkRoast"><rect codeLine="30" fill="#F1F1F1" height="83.2188" id="DarkRoast" rx="2.5" ry="2.5" style="stroke:#181818;stroke-width:0.5;" width="113.1445" x="1614.5" y="303"/><ellipse cx="1636.2562" cy="319" fill="#ADD1B2" rx="11" ry="11" style="stroke:#181818;stroke-width:1;"/><path d="M1639.0218,314.875 Q1639.178,314.6563 1639.3655,314.5469 Q1639.553,314.4375 1639.7718,314.4375 Q1640.1468,314.4375 1640.3812,314.7031 Q1640.6155,314.9531 1640.6155,315.5625 L1640.6155,317.0156 Q1640.6155,317.625 1640.3812,317.8906 Q1640.1468,318.1563 1639.7718,318.1563 Q1639.428,318.1563 1639.2249,317.9531 Q1639.0218,317.7656 1638.9124,317.25 Q1638.8655,316.8906 1638.678,316.7031 Q1638.3499,316.3281 1637.7405,316.1094 Q1637.1312,315.8906 1636.5062,315.8906 Q1635.7405,315.8906 1635.0999,316.2188 Q1634.4749,316.5469 1633.9749,317.2969 Q1633.4905,318.0469 1633.4905,319.0781 L1633.4905,320.1719 Q1633.4905,321.4063 1634.3812,322.2344 Q1635.2718,323.0469 1636.8655,323.0469 Q1637.803,323.0469 1638.4593,322.7969 Q1638.8499,322.6406 1639.2718,322.2031 Q1639.5374,321.9375 1639.678,321.8594 Q1639.8343,321.7813 1640.0374,321.7813 Q1640.3655,321.7813 1640.6155,322.0469 Q1640.8812,322.2969 1640.8812,322.6406 Q1640.8812,322.9844 1640.5374,323.3906 Q1640.0374,323.9688 1639.2405,324.2969 Q1638.1624,324.75 1636.8655,324.75 Q1635.3499,324.75 1634.1468,324.125 Q1633.1624,323.625 1632.4749,322.5625 Q1631.7874,321.4844 1631.7874,320.2031 L1631.7874,319.0469 Q1631.7874,317.7188 1632.3968,316.5781 Q1633.0218,315.4219 1634.1155,314.8125 Q1635.2093,314.1875 1636.4437,314.1875 Q1637.178,314.1875 1637.8187,314.3594 Q1638.4749,314.5156 1639.0218,314.875 Z " fill="#000000"/><text fill="#000000" font-family="sans-serif" font-size="14" lengthAdjust="spacing" textLength="66.1309" x="1651.7575" y="324.7285">DarkRoast</text><line style="stroke:#181818;stroke-width:0.5;" x1="1615.5" x2="1726.6445" y1="335" y2="335"/><line style="stroke:#181818;stroke-width:0.5;" x1="1615.5" x2="1726.6445" y1="343" y2="343"/><ellipse cx="1625.5" cy="357.3047" fill="#84BE84" rx="3" ry="3" style="stroke:#038048;stroke-width:1;"/><text fill="#000000" font-family="sans-serif" font-size="14" lengthAdjust="spacing" textLength="75.4551" x="1634.5" y="361.5332">DarkRoast()</text><ellipse cx="1625.5" cy="374.9141" fill="#84BE84" rx="3" ry="3" style="stroke:#038048;stroke-width:1;"/><text fill="#000000" font-family="sans-serif" font-size="14" lengthAdjust="spacing" textLength="87.1445" x="1634.5" y="379.1426">cost(): Double</text></g><!--class Decaf--><g id="elem_Decaf"><rect codeLine="37" fill="#F1F1F1" height="83.2188" id="Decaf" rx="2.5" ry="2.5" style="stroke:#181818;stroke-width:0.5;" width="113.1445" x="1448.5" y="303"/><ellipse cx="1483.5575" cy="319" fill="#ADD1B2" rx="11" ry="11" style="stroke:#181818;stroke-width:1;"/><path d="M1486.3231,314.875 Q1486.4794,314.6563 1486.6669,314.5469 Q1486.8544,314.4375 1487.0731,314.4375 Q1487.4481,314.4375 1487.6825,314.7031 Q1487.9169,314.9531 1487.9169,315.5625 L1487.9169,317.0156 Q1487.9169,317.625 1487.6825,317.8906 Q1487.4481,318.1563 1487.0731,318.1563 Q1486.7294,318.1563 1486.5263,317.9531 Q1486.3231,317.7656 1486.2138,317.25 Q1486.1669,316.8906 1485.9794,316.7031 Q1485.6513,316.3281 1485.0419,316.1094 Q1484.4325,315.8906 1483.8075,315.8906 Q1483.0419,315.8906 1482.4013,316.2188 Q1481.7763,316.5469 1481.2763,317.2969 Q1480.7919,318.0469 1480.7919,319.0781 L1480.7919,320.1719 Q1480.7919,321.4063 1481.6825,322.2344 Q1482.5731,323.0469 1484.1669,323.0469 Q1485.1044,323.0469 1485.7606,322.7969 Q1486.1513,322.6406 1486.5731,322.2031 Q1486.8388,321.9375 1486.9794,321.8594 Q1487.1356,321.7813 1487.3388,321.7813 Q1487.6669,321.7813 1487.9169,322.0469 Q1488.1825,322.2969 1488.1825,322.6406 Q1488.1825,322.9844 1487.8388,323.3906 Q1487.3388,323.9688 1486.5419,324.2969 Q1485.4638,324.75 1484.1669,324.75 Q1482.6513,324.75 1481.4481,324.125 Q1480.4638,323.625 1479.7763,322.5625 Q1479.0888,321.4844 1479.0888,320.2031 L1479.0888,319.0469 Q1479.0888,317.7188 1479.6981,316.5781 Q1480.3231,315.4219 1481.4169,314.8125 Q1482.5106,314.1875 1483.745,314.1875 Q1484.4794,314.1875 1485.12,314.3594 Q1485.7763,314.5156 1486.3231,314.875 Z " fill="#000000"/><text fill="#000000" font-family="sans-serif" font-size="14" lengthAdjust="spacing" textLength="36.5723" x="1502.0147" y="324.7285">Decaf</text><line style="stroke:#181818;stroke-width:0.5;" x1="1449.5" x2="1560.6445" y1="335" y2="335"/><line style="stroke:#181818;stroke-width:0.5;" x1="1449.5" x2="1560.6445" y1="343" y2="343"/><ellipse cx="1459.5" cy="357.3047" fill="#84BE84" rx="3" ry="3" style="stroke:#038048;stroke-width:1;"/><text fill="#000000" font-family="sans-serif" font-size="14" lengthAdjust="spacing" textLength="45.8965" x="1468.5" y="361.5332">Decaf()</text><ellipse cx="1459.5" cy="374.9141" fill="#84BE84" rx="3" ry="3" style="stroke:#038048;stroke-width:1;"/><text fill="#000000" font-family="sans-serif" font-size="14" lengthAdjust="spacing" textLength="87.1445" x="1468.5" y="379.1426">cost(): Double</text></g><!--class Espresso--><g id="elem_Espresso"><rect codeLine="44" fill="#F1F1F1" height="83.2188" id="Espresso" rx="2.5" ry="2.5" style="stroke:#181818;stroke-width:0.5;" width="113.1445" x="1282.5" y="303"/><ellipse cx="1307.7538" cy="319" fill="#ADD1B2" rx="11" ry="11" style="stroke:#181818;stroke-width:1;"/><path d="M1310.5194,314.875 Q1310.6756,314.6563 1310.8631,314.5469 Q1311.0506,314.4375 1311.2694,314.4375 Q1311.6444,314.4375 1311.8788,314.7031 Q1312.1131,314.9531 1312.1131,315.5625 L1312.1131,317.0156 Q1312.1131,317.625 1311.8788,317.8906 Q1311.6444,318.1563 1311.2694,318.1563 Q1310.9256,318.1563 1310.7225,317.9531 Q1310.5194,317.7656 1310.41,317.25 Q1310.3631,316.8906 1310.1756,316.7031 Q1309.8475,316.3281 1309.2381,316.1094 Q1308.6288,315.8906 1308.0038,315.8906 Q1307.2381,315.8906 1306.5975,316.2188 Q1305.9725,316.5469 1305.4725,317.2969 Q1304.9881,318.0469 1304.9881,319.0781 L1304.9881,320.1719 Q1304.9881,321.4063 1305.8788,322.2344 Q1306.7694,323.0469 1308.3631,323.0469 Q1309.3006,323.0469 1309.9569,322.7969 Q1310.3475,322.6406 1310.7694,322.2031 Q1311.035,321.9375 1311.1756,321.8594 Q1311.3319,321.7813 1311.535,321.7813 Q1311.8631,321.7813 1312.1131,322.0469 Q1312.3788,322.2969 1312.3788,322.6406 Q1312.3788,322.9844 1312.035,323.3906 Q1311.535,323.9688 1310.7381,324.2969 Q1309.66,324.75 1308.3631,324.75 Q1306.8475,324.75 1305.6444,324.125 Q1304.66,323.625 1303.9725,322.5625 Q1303.285,321.4844 1303.285,320.2031 L1303.285,319.0469 Q1303.285,317.7188 1303.8944,316.5781 Q1304.5194,315.4219 1305.6131,314.8125 Q1306.7069,314.1875 1307.9413,314.1875 Q1308.6756,314.1875 1309.3163,314.3594 Q1309.9725,314.5156 1310.5194,314.875 Z " fill="#000000"/><text fill="#000000" font-family="sans-serif" font-size="14" lengthAdjust="spacing" textLength="58.3584" x="1324.0324" y="324.7285">Espresso</text><line style="stroke:#181818;stroke-width:0.5;" x1="1283.5" x2="1394.6445" y1="335" y2="335"/><line style="stroke:#181818;stroke-width:0.5;" x1="1283.5" x2="1394.6445" y1="343" y2="343"/><ellipse cx="1293.5" cy="357.3047" fill="#84BE84" rx="3" ry="3" style="stroke:#038048;stroke-width:1;"/><text fill="#000000" font-family="sans-serif" font-size="14" lengthAdjust="spacing" textLength="67.6826" x="1302.5" y="361.5332">Espresso()</text><ellipse cx="1293.5" cy="374.9141" fill="#84BE84" rx="3" ry="3" style="stroke:#038048;stroke-width:1;"/><text fill="#000000" font-family="sans-serif" font-size="14" lengthAdjust="spacing" textLength="87.1445" x="1302.5" y="379.1426">cost(): Double</text></g><!--class HouseBlend--><g id="elem_HouseBlend"><rect codeLine="51" fill="#F1F1F1" height="83.2188" id="HouseBlend" rx="2.5" ry="2.5" style="stroke:#181818;stroke-width:0.5;" width="113.1445" x="1116.5" y="303"/><ellipse cx="1133.6911" cy="319" fill="#ADD1B2" rx="11" ry="11" style="stroke:#181818;stroke-width:1;"/><path d="M1136.4567,314.875 Q1136.613,314.6563 1136.8005,314.5469 Q1136.988,314.4375 1137.2067,314.4375 Q1137.5817,314.4375 1137.8161,314.7031 Q1138.0505,314.9531 1138.0505,315.5625 L1138.0505,317.0156 Q1138.0505,317.625 1137.8161,317.8906 Q1137.5817,318.1563 1137.2067,318.1563 Q1136.863,318.1563 1136.6599,317.9531 Q1136.4567,317.7656 1136.3474,317.25 Q1136.3005,316.8906 1136.113,316.7031 Q1135.7849,316.3281 1135.1755,316.1094 Q1134.5661,315.8906 1133.9411,315.8906 Q1133.1755,315.8906 1132.5349,316.2188 Q1131.9099,316.5469 1131.4099,317.2969 Q1130.9255,318.0469 1130.9255,319.0781 L1130.9255,320.1719 Q1130.9255,321.4063 1131.8161,322.2344 Q1132.7067,323.0469 1134.3005,323.0469 Q1135.238,323.0469 1135.8942,322.7969 Q1136.2849,322.6406 1136.7067,322.2031 Q1136.9724,321.9375 1137.113,321.8594 Q1137.2692,321.7813 1137.4724,321.7813 Q1137.8005,321.7813 1138.0505,322.0469 Q1138.3161,322.2969 1138.3161,322.6406 Q1138.3161,322.9844 1137.9724,323.3906 Q1137.4724,323.9688 1136.6755,324.2969 Q1135.5974,324.75 1134.3005,324.75 Q1132.7849,324.75 1131.5817,324.125 Q1130.5974,323.625 1129.9099,322.5625 Q1129.2224,321.4844 1129.2224,320.2031 L1129.2224,319.0469 Q1129.2224,317.7188 1129.8317,316.5781 Q1130.4567,315.4219 1131.5505,314.8125 Q1132.6442,314.1875 1133.8786,314.1875 Q1134.613,314.1875 1135.2536,314.3594 Q1135.9099,314.5156 1136.4567,314.875 Z " fill="#000000"/><text fill="#000000" font-family="sans-serif" font-size="14" lengthAdjust="spacing" textLength="76.2754" x="1148.178" y="324.7285">HouseBlend</text><line style="stroke:#181818;stroke-width:0.5;" x1="1117.5" x2="1228.6445" y1="335" y2="335"/><line style="stroke:#181818;stroke-width:0.5;" x1="1117.5" x2="1228.6445" y1="343" y2="343"/><ellipse cx="1127.5" cy="357.3047" fill="#84BE84" rx="3" ry="3" style="stroke:#038048;stroke-width:1;"/><text fill="#000000" font-family="sans-serif" font-size="14" lengthAdjust="spacing" textLength="85.5996" x="1136.5" y="361.5332">HouseBlend()</text><ellipse cx="1127.5" cy="374.9141" fill="#84BE84" rx="3" ry="3" style="stroke:#038048;stroke-width:1;"/><text fill="#000000" font-family="sans-serif" font-size="14" lengthAdjust="spacing" textLength="87.1445" x="1136.5" y="379.1426">cost(): Double</text></g><!--class Milk--><g id="elem_Milk"><rect codeLine="58" fill="#8888FF" height="111.5313" id="Milk" rx="2.5" ry="2.5" style="stroke:#0000FF;stroke-width:0.5;" width="297.5576" x="1147" y="130"/><ellipse cx="1260.5112" cy="151.3516" fill="#ADD1B2" rx="11" ry="11" style="stroke:#181818;stroke-width:1;"/><path d="M1263.2769,147.2266 Q1263.4331,147.0078 1263.6206,146.8984 Q1263.8081,146.7891 1264.0269,146.7891 Q1264.4019,146.7891 1264.6362,147.0547 Q1264.8706,147.3047 1264.8706,147.9141 L1264.8706,149.3672 Q1264.8706,149.9766 1264.6362,150.2422 Q1264.4019,150.5078 1264.0269,150.5078 Q1263.6831,150.5078 1263.48,150.3047 Q1263.2769,150.1172 1263.1675,149.6016 Q1263.1206,149.2422 1262.9331,149.0547 Q1262.605,148.6797 1261.9956,148.4609 Q1261.3862,148.2422 1260.7612,148.2422 Q1259.9956,148.2422 1259.355,148.5703 Q1258.73,148.8984 1258.23,149.6484 Q1257.7456,150.3984 1257.7456,151.4297 L1257.7456,152.5234 Q1257.7456,153.7578 1258.6362,154.5859 Q1259.5269,155.3984 1261.1206,155.3984 Q1262.0581,155.3984 1262.7144,155.1484 Q1263.105,154.9922 1263.5269,154.5547 Q1263.7925,154.2891 1263.9331,154.2109 Q1264.0894,154.1328 1264.2925,154.1328 Q1264.6206,154.1328 1264.8706,154.3984 Q1265.1362,154.6484 1265.1362,154.9922 Q1265.1362,155.3359 1264.7925,155.7422 Q1264.2925,156.3203 1263.4956,156.6484 Q1262.4175,157.1016 1261.1206,157.1016 Q1259.605,157.1016 1258.4019,156.4766 Q1257.4175,155.9766 1256.73,154.9141 Q1256.0425,153.8359 1256.0425,152.5547 L1256.0425,151.3984 Q1256.0425,150.0703 1256.6519,148.9297 Q1257.2769,147.7734 1258.3706,147.1641 Q1259.4644,146.5391 1260.6987,146.5391 Q1261.4331,146.5391 1262.0737,146.7109 Q1262.73,146.8672 1263.2769,147.2266 Z " fill="#000000"/><text fill="#000000" font-family="sans-serif" font-size="12" font-style="italic" lengthAdjust="spacing" textLength="66.0352" x="1279.0112" y="147.457">&#171;Decorator&#187;</text><text fill="#000000" font-family="sans-serif" font-size="14" lengthAdjust="spacing" textLength="24.8828" x="1299.5874" y="164.627">Milk</text><line style="stroke:#0000FF;stroke-width:0.5;" x1="1148" x2="1443.5576" y1="172.7031" y2="172.7031"/><line style="stroke:#0000FF;stroke-width:0.5;" x1="1148" x2="1443.5576" y1="180.7031" y2="180.7031"/><ellipse cx="1158" cy="195.0078" fill="#84BE84" rx="3" ry="3" style="stroke:#038048;stroke-width:1;"/><text fill="#000000" font-family="sans-serif" font-size="14" lengthAdjust="spacing" textLength="271.5576" x="1167" y="199.2363">Milk(headfirst/decorator/starbuzz/Beverage)</text><ellipse cx="1158" cy="212.6172" fill="#84BE84" rx="3" ry="3" style="stroke:#038048;stroke-width:1;"/><text fill="#000000" font-family="sans-serif" font-size="14" lengthAdjust="spacing" textLength="203.0957" x="1167" y="216.8457">getDescription(): java/lang/String</text><ellipse cx="1158" cy="230.2266" fill="#84BE84" rx="3" ry="3" style="stroke:#038048;stroke-width:1;"/><text fill="#000000" font-family="sans-serif" font-size="14" lengthAdjust="spacing" textLength="87.1445" x="1167" y="234.4551">cost(): Double</text></g><!--class Mocha--><g id="elem_Mocha"><rect codeLine="67" fill="#8888FF" height="111.5313" id="Mocha" rx="2.5" ry="2.5" style="stroke:#0000FF;stroke-width:0.5;" width="314.6953" x="778.5" y="130"/><ellipse cx="900.5801" cy="151.3516" fill="#ADD1B2" rx="11" ry="11" style="stroke:#181818;stroke-width:1;"/><path d="M903.3457,147.2266 Q903.502,147.0078 903.6895,146.8984 Q903.877,146.7891 904.0957,146.7891 Q904.4707,146.7891 904.7051,147.0547 Q904.9395,147.3047 904.9395,147.9141 L904.9395,149.3672 Q904.9395,149.9766 904.7051,150.2422 Q904.4707,150.5078 904.0957,150.5078 Q903.752,150.5078 903.5488,150.3047 Q903.3457,150.1172 903.2363,149.6016 Q903.1895,149.2422 903.002,149.0547 Q902.6738,148.6797 902.0645,148.4609 Q901.4551,148.2422 900.8301,148.2422 Q900.0645,148.2422 899.4238,148.5703 Q898.7988,148.8984 898.2988,149.6484 Q897.8145,150.3984 897.8145,151.4297 L897.8145,152.5234 Q897.8145,153.7578 898.7051,154.5859 Q899.5957,155.3984 901.1895,155.3984 Q902.127,155.3984 902.7832,155.1484 Q903.1738,154.9922 903.5957,154.5547 Q903.8613,154.2891 904.002,154.2109 Q904.1582,154.1328 904.3613,154.1328 Q904.6895,154.1328 904.9395,154.3984 Q905.2051,154.6484 905.2051,154.9922 Q905.2051,155.3359 904.8613,155.7422 Q904.3613,156.3203 903.5645,156.6484 Q902.4863,157.1016 901.1895,157.1016 Q899.6738,157.1016 898.4707,156.4766 Q897.4863,155.9766 896.7988,154.9141 Q896.1113,153.8359 896.1113,152.5547 L896.1113,151.3984 Q896.1113,150.0703 896.7207,148.9297 Q897.3457,147.7734 898.4395,147.1641 Q899.5332,146.5391 900.7676,146.5391 Q901.502,146.5391 902.1426,146.7109 Q902.7988,146.8672 903.3457,147.2266 Z " fill="#000000"/><text fill="#000000" font-family="sans-serif" font-size="12" font-style="italic" lengthAdjust="spacing" textLength="66.0352" x="919.0801" y="147.457">&#171;Decorator&#187;</text><text fill="#000000" font-family="sans-serif" font-size="14" lengthAdjust="spacing" textLength="42.0205" x="931.0874" y="164.627">Mocha</text><line style="stroke:#0000FF;stroke-width:0.5;" x1="779.5" x2="1092.1953" y1="172.7031" y2="172.7031"/><line style="stroke:#0000FF;stroke-width:0.5;" x1="779.5" x2="1092.1953" y1="180.7031" y2="180.7031"/><ellipse cx="789.5" cy="195.0078" fill="#84BE84" rx="3" ry="3" style="stroke:#038048;stroke-width:1;"/><text fill="#000000" font-family="sans-serif" font-size="14" lengthAdjust="spacing" textLength="288.6953" x="798.5" y="199.2363">Mocha(headfirst/decorator/starbuzz/Beverage)</text><ellipse cx="789.5" cy="212.6172" fill="#84BE84" rx="3" ry="3" style="stroke:#038048;stroke-width:1;"/><text fill="#000000" font-family="sans-serif" font-size="14" lengthAdjust="spacing" textLength="203.0957" x="798.5" y="216.8457">getDescription(): java/lang/String</text><ellipse cx="789.5" cy="230.2266" fill="#84BE84" rx="3" ry="3" style="stroke:#038048;stroke-width:1;"/><text fill="#000000" font-family="sans-serif" font-size="14" lengthAdjust="spacing" textLength="87.1445" x="798.5" y="234.4551">cost(): Double</text></g><!--class Soy--><g id="elem_Soy"><rect codeLine="76" fill="#8888FF" height="111.5313" id="Soy" rx="2.5" ry="2.5" style="stroke:#0000FF;stroke-width:0.5;" width="296.7988" x="428.5" y="130"/><ellipse cx="541.6318" cy="151.3516" fill="#ADD1B2" rx="11" ry="11" style="stroke:#181818;stroke-width:1;"/><path d="M544.3975,147.2266 Q544.5537,147.0078 544.7412,146.8984 Q544.9287,146.7891 545.1475,146.7891 Q545.5225,146.7891 545.7568,147.0547 Q545.9912,147.3047 545.9912,147.9141 L545.9912,149.3672 Q545.9912,149.9766 545.7568,150.2422 Q545.5225,150.5078 545.1475,150.5078 Q544.8037,150.5078 544.6006,150.3047 Q544.3975,150.1172 544.2881,149.6016 Q544.2412,149.2422 544.0537,149.0547 Q543.7256,148.6797 543.1162,148.4609 Q542.5068,148.2422 541.8818,148.2422 Q541.1162,148.2422 540.4756,148.5703 Q539.8506,148.8984 539.3506,149.6484 Q538.8662,150.3984 538.8662,151.4297 L538.8662,152.5234 Q538.8662,153.7578 539.7568,154.5859 Q540.6475,155.3984 542.2412,155.3984 Q543.1787,155.3984 543.835,155.1484 Q544.2256,154.9922 544.6475,154.5547 Q544.9131,154.2891 545.0537,154.2109 Q545.21,154.1328 545.4131,154.1328 Q545.7412,154.1328 545.9912,154.3984 Q546.2568,154.6484 546.2568,154.9922 Q546.2568,155.3359 545.9131,155.7422 Q545.4131,156.3203 544.6162,156.6484 Q543.5381,157.1016 542.2412,157.1016 Q540.7256,157.1016 539.5225,156.4766 Q538.5381,155.9766 537.8506,154.9141 Q537.1631,153.8359 537.1631,152.5547 L537.1631,151.3984 Q537.1631,150.0703 537.7725,148.9297 Q538.3975,147.7734 539.4912,147.1641 Q540.585,146.5391 541.8193,146.5391 Q542.5537,146.5391 543.1943,146.7109 Q543.8506,146.8672 544.3975,147.2266 Z " fill="#000000"/><text fill="#000000" font-family="sans-serif" font-size="12" font-style="italic" lengthAdjust="spacing" textLength="66.0352" x="560.1318" y="147.457">&#171;Decorator&#187;</text><text fill="#000000" font-family="sans-serif" font-size="14" lengthAdjust="spacing" textLength="24.124" x="581.0874" y="164.627">Soy</text><line style="stroke:#0000FF;stroke-width:0.5;" x1="429.5" x2="724.2988" y1="172.7031" y2="172.7031"/><line style="stroke:#0000FF;stroke-width:0.5;" x1="429.5" x2="724.2988" y1="180.7031" y2="180.7031"/><ellipse cx="439.5" cy="195.0078" fill="#84BE84" rx="3" ry="3" style="stroke:#038048;stroke-width:1;"/><text fill="#000000" font-family="sans-serif" font-size="14" lengthAdjust="spacing" textLength="270.7988" x="448.5" y="199.2363">Soy(headfirst/decorator/starbuzz/Beverage)</text><ellipse cx="439.5" cy="212.6172" fill="#84BE84" rx="3" ry="3" style="stroke:#038048;stroke-width:1;"/><text fill="#000000" font-family="sans-serif" font-size="14" lengthAdjust="spacing" textLength="203.0957" x="448.5" y="216.8457">getDescription(): java/lang/String</text><ellipse cx="439.5" cy="230.2266" fill="#84BE84" rx="3" ry="3" style="stroke:#038048;stroke-width:1;"/><text fill="#000000" font-family="sans-serif" font-size="14" lengthAdjust="spacing" textLength="87.1445" x="448.5" y="234.4551">cost(): Double</text></g><!--class StarbuzzCoffee--><g id="elem_StarbuzzCoffee"><rect codeLine="85" fill="#F1F1F1" height="83.2188" id="StarbuzzCoffee" rx="2.5" ry="2.5" style="stroke:#181818;stroke-width:0.5;" width="205.751" x="322" y="303"/><ellipse cx="372.3774" cy="319" fill="#ADD1B2" rx="11" ry="11" style="stroke:#181818;stroke-width:1;"/><path d="M375.1431,314.875 Q375.2993,314.6563 375.4868,314.5469 Q375.6743,314.4375 375.8931,314.4375 Q376.2681,314.4375 376.5024,314.7031 Q376.7368,314.9531 376.7368,315.5625 L376.7368,317.0156 Q376.7368,317.625 376.5024,317.8906 Q376.2681,318.1563 375.8931,318.1563 Q375.5493,318.1563 375.3462,317.9531 Q375.1431,317.7656 375.0337,317.25 Q374.9868,316.8906 374.7993,316.7031 Q374.4712,316.3281 373.8618,316.1094 Q373.2524,315.8906 372.6274,315.8906 Q371.8618,315.8906 371.2212,316.2188 Q370.5962,316.5469 370.0962,317.2969 Q369.6118,318.0469 369.6118,319.0781 L369.6118,320.1719 Q369.6118,321.4063 370.5024,322.2344 Q371.3931,323.0469 372.9868,323.0469 Q373.9243,323.0469 374.5806,322.7969 Q374.9712,322.6406 375.3931,322.2031 Q375.6587,321.9375 375.7993,321.8594 Q375.9556,321.7813 376.1587,321.7813 Q376.4868,321.7813 376.7368,322.0469 Q377.0024,322.2969 377.0024,322.6406 Q377.0024,322.9844 376.6587,323.3906 Q376.1587,323.9688 375.3618,324.2969 Q374.2837,324.75 372.9868,324.75 Q371.4712,324.75 370.2681,324.125 Q369.2837,323.625 368.5962,322.5625 Q367.9087,321.4844 367.9087,320.2031 L367.9087,319.0469 Q367.9087,317.7188 368.5181,316.5781 Q369.1431,315.4219 370.2368,314.8125 Q371.3306,314.1875 372.5649,314.1875 Q373.2993,314.1875 373.9399,314.3594 Q374.5962,314.5156 375.1431,314.875 Z " fill="#000000"/><text fill="#000000" font-family="sans-serif" font-size="14" lengthAdjust="spacing" textLength="96.4961" x="392.8774" y="324.7285">StarbuzzCoffee</text><line style="stroke:#181818;stroke-width:0.5;" x1="323" x2="526.751" y1="335" y2="335"/><line style="stroke:#181818;stroke-width:0.5;" x1="323" x2="526.751" y1="343" y2="343"/><ellipse cx="333" cy="357.3047" fill="#84BE84" rx="3" ry="3" style="stroke:#038048;stroke-width:1;"/><text fill="#000000" font-family="sans-serif" font-size="14" lengthAdjust="spacing" textLength="105.8203" x="342" y="361.5332">StarbuzzCoffee()</text><polygon fill="#4177AF" points="333,370.9141,329,376.9141,337,376.9141" style="stroke:#1963A0;stroke-width:1;"/><text fill="#000000" font-family="sans-serif" font-size="14" lengthAdjust="spacing" text-decoration="underline" textLength="179.751" x="342" y="379.1426">main(java/lang/String[]): Void</text></g><!--class Whip--><g id="elem_Whip"><rect codeLine="92" fill="#8888FF" height="111.5313" id="Whip" rx="2.5" ry="2.5" style="stroke:#0000FF;stroke-width:0.5;" width="304.5713" x="70.5" y="130"/><ellipse cx="187.5181" cy="151.3516" fill="#ADD1B2" rx="11" ry="11" style="stroke:#181818;stroke-width:1;"/><path d="M190.2837,147.2266 Q190.4399,147.0078 190.6274,146.8984 Q190.8149,146.7891 191.0337,146.7891 Q191.4087,146.7891 191.6431,147.0547 Q191.8774,147.3047 191.8774,147.9141 L191.8774,149.3672 Q191.8774,149.9766 191.6431,150.2422 Q191.4087,150.5078 191.0337,150.5078 Q190.6899,150.5078 190.4868,150.3047 Q190.2837,150.1172 190.1743,149.6016 Q190.1274,149.2422 189.9399,149.0547 Q189.6118,148.6797 189.0024,148.4609 Q188.3931,148.2422 187.7681,148.2422 Q187.0024,148.2422 186.3618,148.5703 Q185.7368,148.8984 185.2368,149.6484 Q184.7524,150.3984 184.7524,151.4297 L184.7524,152.5234 Q184.7524,153.7578 185.6431,154.5859 Q186.5337,155.3984 188.1274,155.3984 Q189.0649,155.3984 189.7212,155.1484 Q190.1118,154.9922 190.5337,154.5547 Q190.7993,154.2891 190.9399,154.2109 Q191.0962,154.1328 191.2993,154.1328 Q191.6274,154.1328 191.8774,154.3984 Q192.1431,154.6484 192.1431,154.9922 Q192.1431,155.3359 191.7993,155.7422 Q191.2993,156.3203 190.5024,156.6484 Q189.4243,157.1016 188.1274,157.1016 Q186.6118,157.1016 185.4087,156.4766 Q184.4243,155.9766 183.7368,154.9141 Q183.0493,153.8359 183.0493,152.5547 L183.0493,151.3984 Q183.0493,150.0703 183.6587,148.9297 Q184.2837,147.7734 185.3774,147.1641 Q186.4712,146.5391 187.7056,146.5391 Q188.4399,146.5391 189.0806,146.7109 Q189.7368,146.8672 190.2837,147.2266 Z " fill="#000000"/><text fill="#000000" font-family="sans-serif" font-size="12" font-style="italic" lengthAdjust="spacing" textLength="66.0352" x="206.0181" y="147.457">&#171;Decorator&#187;</text><text fill="#000000" font-family="sans-serif" font-size="14" lengthAdjust="spacing" textLength="31.8965" x="223.0874" y="164.627">Whip</text><line style="stroke:#0000FF;stroke-width:0.5;" x1="71.5" x2="374.0713" y1="172.7031" y2="172.7031"/><line style="stroke:#0000FF;stroke-width:0.5;" x1="71.5" x2="374.0713" y1="180.7031" y2="180.7031"/><ellipse cx="81.5" cy="195.0078" fill="#84BE84" rx="3" ry="3" style="stroke:#038048;stroke-width:1;"/><text fill="#000000" font-family="sans-serif" font-size="14" lengthAdjust="spacing" textLength="278.5713" x="90.5" y="199.2363">Whip(headfirst/decorator/starbuzz/Beverage)</text><ellipse cx="81.5" cy="212.6172" fill="#84BE84" rx="3" ry="3" style="stroke:#038048;stroke-width:1;"/><text fill="#000000" font-family="sans-serif" font-size="14" lengthAdjust="spacing" textLength="203.0957" x="90.5" y="216.8457">getDescription(): java/lang/String</text><ellipse cx="81.5" cy="230.2266" fill="#84BE84" rx="3" ry="3" style="stroke:#038048;stroke-width:1;"/><text fill="#000000" font-family="sans-serif" font-size="14" lengthAdjust="spacing" textLength="87.1445" x="90.5" y="234.4551">cost(): Double</text></g><!--link InputTest to InputTest--><g id="link_InputTest_InputTest"><path codeLine="6" d="M2365.21,170.57 C2385.54,172.33 2400,177.48 2400,186 C2400,194.52 2391.5176,199.1525 2371.1876,200.9125 " fill="transparent" id="InputTest-to-InputTest" style="stroke:#181818;stroke-width:1;stroke-dasharray:7.0,7.0;"/><polygon fill="#181818" points="2365.21,201.43,2374.5215,204.6389,2370.1914,200.9988,2373.8315,196.6687,2365.21,201.43" style="stroke:#181818;stroke-width:1;"/></g><!--link LowerCaseInputStream to LowerCaseInputStream--><g id="link_LowerCaseInputStream_LowerCaseInputStream"><path codeLine="13" d="M2105.84,171.65 C2126.63,174.04 2140.5,178.82 2140.5,186 C2140.5,193.18 2132.5907,197.2748 2111.8007,199.6648 " fill="transparent" id="LowerCaseInputStream-to-LowerCaseInputStream" style="stroke:#181818;stroke-width:1;stroke-dasharray:7.0,7.0;"/><polygon fill="#181818" points="2105.84,200.35,2115.2379,203.296,2110.8073,199.779,2114.3243,195.3483,2105.84,200.35" style="stroke:#181818;stroke-width:1;"/></g><!--link Beverage to Beverage--><g id="link_Beverage_Beverage"><path codeLine="21" d="M1076.71,490.47 C1097.19,492.49 1111.5,497.66 1111.5,506 C1111.5,514.34 1103.161,518.9211 1082.681,520.9411 " fill="transparent" id="Beverage-to-Beverage" style="stroke:#181818;stroke-width:1;stroke-dasharray:7.0,7.0;"/><polygon fill="#181818" points="1076.71,521.53,1086.0592,524.6273,1081.6859,521.0392,1085.2739,516.6659,1076.71,521.53" style="stroke:#181818;stroke-width:1;"/></g><!--link CondimentDecorator to Beverage--><g id="link_CondimentDecorator_Beverage"><path codeLine="27" d="M763.81,386.16 C794.6,404.62 816.1335,417.5318 849.7635,437.7018 " fill="transparent" id="CondimentDecorator-to-Beverage" style="stroke:#181818;stroke-width:1;"/><polygon fill="transparent" points="865.2,446.96,852.8496,432.5563,846.6774,442.8473,865.2,446.96" style="stroke:#181818;stroke-width:1;"/><text fill="#000000" font-family="sans-serif" font-size="13" lengthAdjust="spacing" textLength="7.23" x="767.0701" y="407.5803">1</text><text fill="#000000" font-family="sans-serif" font-size="13" lengthAdjust="spacing" textLength="7.23" x="845.9841" y="436.2794">1</text></g><!--link CondimentDecorator to CondimentDecorator--><g id="link_CondimentDecorator_CondimentDecorator"><path codeLine="28" d="M810.71,331.79 C831.19,333.44 845.5,337.68 845.5,344.5 C845.5,351.32 837.1706,355.0782 816.6906,356.7282 " fill="transparent" id="CondimentDecorator-to-CondimentDecorator" style="stroke:#181818;stroke-width:1;stroke-dasharray:7.0,7.0;"/><polygon fill="#181818" points="810.71,357.21,820.0022,360.4743,815.6939,356.8085,819.3597,352.5002,810.71,357.21" style="stroke:#181818;stroke-width:1;"/></g><!--link DarkRoast to Beverage--><g id="link_DarkRoast_Beverage"><path codeLine="34" d="M1614.47,378.75 C1608.68,381.45 1602.79,383.93 1597,386 C1421.39,448.71 1223.9605,478.1774 1094.5605,492.5174 " fill="transparent" id="DarkRoast-to-Beverage" style="stroke:#181818;stroke-width:1;"/><polygon fill="transparent" points="1076.67,494.5,1095.2213,498.4809,1093.8996,486.5539,1076.67,494.5" style="stroke:#181818;stroke-width:1;"/><text fill="#000000" font-family="sans-serif" font-size="13" lengthAdjust="spacing" textLength="7.23" x="1599.4092" y="379.7814">1</text><text fill="#000000" font-family="sans-serif" font-size="13" lengthAdjust="spacing" textLength="7.23" x="1084.6141" y="507.7571">1</text></g><!--link DarkRoast to DarkRoast--><g id="link_DarkRoast_DarkRoast"><path codeLine="35" d="M1727.74,331 C1747.01,330.93 1762.5,335.43 1762.5,344.5 C1762.5,353.57 1753.01,358.0918 1733.74,358.0218 " fill="transparent" id="DarkRoast-to-DarkRoast" style="stroke:#181818;stroke-width:1;stroke-dasharray:7.0,7.0;"/><polygon fill="#181818" points="1727.74,358,1736.7254,362.0327,1732.74,358.0182,1736.7545,354.0327,1727.74,358" style="stroke:#181818;stroke-width:1;"/></g><!--link Decaf to Beverage--><g id="link_Decaf_Beverage"><path codeLine="41" d="M1448.32,378.37 C1442.56,381.15 1436.72,383.75 1431,386 C1313.93,432.03 1190.9878,461.3869 1094.4578,480.7669 " fill="transparent" id="Decaf-to-Beverage" style="stroke:#181818;stroke-width:1;"/><polygon fill="transparent" points="1076.81,484.31,1095.6389,486.6495,1093.2768,474.8843,1076.81,484.31" style="stroke:#181818;stroke-width:1;"/><text fill="#000000" font-family="sans-serif" font-size="13" lengthAdjust="spacing" textLength="7.23" x="1433.2391" y="379.3503">1</text><text fill="#000000" font-family="sans-serif" font-size="13" lengthAdjust="spacing" textLength="7.23" x="1084.7635" y="479.8074">1</text></g><!--link Decaf to Decaf--><g id="link_Decaf_Decaf"><path codeLine="42" d="M1561.74,331 C1581.01,330.93 1596.5,335.43 1596.5,344.5 C1596.5,353.57 1587.01,358.0918 1567.74,358.0218 " fill="transparent" id="Decaf-to-Decaf" style="stroke:#181818;stroke-width:1;stroke-dasharray:7.0,7.0;"/><polygon fill="#181818" points="1561.74,358,1570.7254,362.0327,1566.74,358.0182,1570.7545,354.0327,1561.74,358" style="stroke:#181818;stroke-width:1;"/></g><!--link Espresso to Beverage--><g id="link_Espresso_Beverage"><path codeLine="48" d="M1282.41,377.41 C1276.58,380.42 1270.7,383.33 1265,386 C1203.95,414.55 1150.8801,435.9995 1093.6001,457.5195 " fill="transparent" id="Espresso-to-Beverage" style="stroke:#181818;stroke-width:1;"/><polygon fill="transparent" points="1076.75,463.85,1095.7102,463.1361,1091.4899,451.9028,1076.75,463.85" style="stroke:#181818;stroke-width:1;"/><text fill="#000000" font-family="sans-serif" font-size="13" lengthAdjust="spacing" textLength="7.23" x="1267.3411" y="378.2613">1</text><text fill="#000000" font-family="sans-serif" font-size="13" lengthAdjust="spacing" textLength="7.23" x="1084.6994" y="457.9728">1</text></g><!--link Espresso to Espresso--><g id="link_Espresso_Espresso"><path codeLine="49" d="M1395.74,331 C1415.01,330.93 1430.5,335.43 1430.5,344.5 C1430.5,353.57 1421.01,358.0918 1401.74,358.0218 " fill="transparent" id="Espresso-to-Espresso" style="stroke:#181818;stroke-width:1;stroke-dasharray:7.0,7.0;"/><polygon fill="#181818" points="1395.74,358,1404.7254,362.0327,1400.74,358.0182,1404.7545,354.0327,1395.74,358" style="stroke:#181818;stroke-width:1;"/></g><!--link HouseBlend to Beverage--><g id="link_HouseBlend_Beverage"><path codeLine="55" d="M1119.21,386.16 C1094.79,404.62 1079.8186,415.935 1053.1386,436.105 " fill="transparent" id="HouseBlend-to-Beverage" style="stroke:#181818;stroke-width:1;"/><polygon fill="transparent" points="1038.78,446.96,1056.7569,440.8912,1049.5202,431.3188,1038.78,446.96" style="stroke:#181818;stroke-width:1;"/><text fill="#000000" font-family="sans-serif" font-size="13" lengthAdjust="spacing" textLength="7.23" x="1103.0862" y="407.5803">1</text><text fill="#000000" font-family="sans-serif" font-size="13" lengthAdjust="spacing" textLength="7.23" x="1040.7192" y="436.2794">1</text></g><!--link HouseBlend to HouseBlend--><g id="link_HouseBlend_HouseBlend"><path codeLine="56" d="M1229.74,331 C1249.01,330.93 1264.5,335.43 1264.5,344.5 C1264.5,353.57 1255.01,358.0918 1235.74,358.0218 " fill="transparent" id="HouseBlend-to-HouseBlend" style="stroke:#181818;stroke-width:1;stroke-dasharray:7.0,7.0;"/><polygon fill="#181818" points="1229.74,358,1238.7254,362.0327,1234.74,358.0182,1238.7545,354.0327,1229.74,358" style="stroke:#181818;stroke-width:1;"/></g><!--link Milk to CondimentDecorator--><g id="link_Milk_CondimentDecorator"><path codeLine="63" d="M1183.63,242.12 C1165.68,249.26 1147.07,255.73 1129,260.5 C1080.19,273.38 1065.94,264.64 1016,272 C944.34,282.57 926.69,287.22 856,303 C841.32,306.28 843.416,305.6392 828.226,309.3492 " fill="transparent" id="Milk-to-CondimentDecorator" style="stroke:#181818;stroke-width:1;"/><polygon fill="transparent" points="810.74,313.62,829.6496,315.1779,826.8024,303.5206,810.74,313.62" style="stroke:#181818;stroke-width:1;"/><text fill="#000000" font-family="sans-serif" font-size="13" lengthAdjust="spacing" textLength="7.23" x="1163.2714" y="263.0764">1</text><text fill="#000000" font-family="sans-serif" font-size="13" lengthAdjust="spacing" textLength="7.23" x="818.6888" y="308.5073">1</text></g><!--link Milk to Beverage--><g id="link_Milk_Beverage"><path codeLine="64" d="M1170.6,242.1 C1109.62,269.3 1048.25,297.49 1043,303 C1005.08,342.81 985.5549,396.7991 974.5049,441.0091 " fill="transparent" id="Milk-to-Beverage" style="stroke:#181818;stroke-width:1;"/><polygon fill="#181818" points="973.05,446.83,979.113,439.0685,974.2624,441.9792,971.3517,437.1287,973.05,446.83" style="stroke:#181818;stroke-width:1;"/><text fill="#000000" font-family="sans-serif" font-size="13" lengthAdjust="spacing" textLength="54.209" x="1044" y="349.9951">beverage</text><text fill="#000000" font-family="sans-serif" font-size="13" lengthAdjust="spacing" textLength="7.23" x="1148.7348" y="263.0541">1</text><text fill="#000000" font-family="sans-serif" font-size="13" lengthAdjust="spacing" textLength="7.23" x="966.9783" y="436.1335">1</text></g><!--link Milk to Milk--><g id="link_Milk_Milk"><path codeLine="65" d="M1445.08,171.57 C1466,173.93 1480,178.74 1480,186 C1480,193.26 1471.9622,197.3974 1451.0422,199.7574 " fill="transparent" id="Milk-to-Milk" style="stroke:#181818;stroke-width:1;stroke-dasharray:7.0,7.0;"/><polygon fill="#181818" points="1445.08,200.43,1454.4717,203.3959,1450.0485,199.8695,1453.5749,195.4463,1445.08,200.43" style="stroke:#181818;stroke-width:1;"/></g><!--link Mocha to CondimentDecorator--><g id="link_Mocha_CondimentDecorator"><path codeLine="72" d="M836.47,242.18 C820.38,251.77 804.07,261.92 789,272 C774.78,281.52 774.1531,281.5128 760.5531,291.9628 " fill="transparent" id="Mocha-to-CondimentDecorator" style="stroke:#181818;stroke-width:1;"/><polygon fill="transparent" points="746.28,302.93,764.2088,296.7205,756.8974,287.2051,746.28,302.93" style="stroke:#181818;stroke-width:1;"/><text fill="#000000" font-family="sans-serif" font-size="13" lengthAdjust="spacing" textLength="7.23" x="817.5881" y="263.1434">1</text><text fill="#000000" font-family="sans-serif" font-size="13" lengthAdjust="spacing" textLength="7.23" x="747.0391" y="292.2261">1</text></g><!--link Mocha to Beverage--><g id="link_Mocha_Beverage"><path codeLine="73" d="M927.44,242.18 C922.62,282.28 918.86,337.75 926,386 C928.99,406.18 932.8745,421.9449 938.8645,441.0449 " fill="transparent" id="Mocha-to-Beverage" style="stroke:#181818;stroke-width:1;"/><polygon fill="#181818" points="940.66,446.77,941.7835,436.9854,939.1638,441.9991,934.1501,439.3794,940.66,446.77" style="stroke:#181818;stroke-width:1;"/><text fill="#000000" font-family="sans-serif" font-size="13" lengthAdjust="spacing" textLength="54.209" x="927" y="349.9951">beverage</text><text fill="#000000" font-family="sans-serif" font-size="13" lengthAdjust="spacing" textLength="7.23" x="919.0765" y="263.1434">1</text><text fill="#000000" font-family="sans-serif" font-size="13" lengthAdjust="spacing" textLength="7.23" x="930.6408" y="436.0662">1</text></g><!--link Mocha to Mocha--><g id="link_Mocha_Mocha"><path codeLine="74" d="M1093.85,171.78 C1114.68,174.21 1128.5,178.95 1128.5,186 C1128.5,193.05 1120.6396,197.0948 1099.8096,199.5248 " fill="transparent" id="Mocha-to-Mocha" style="stroke:#181818;stroke-width:1;stroke-dasharray:7.0,7.0;"/><polygon fill="#181818" points="1093.85,200.22,1103.2529,203.1502,1098.8163,199.6406,1102.3259,195.2041,1093.85,200.22" style="stroke:#181818;stroke-width:1;"/></g><!--link Soy to CondimentDecorator--><g id="link_Soy_CondimentDecorator"><path codeLine="81" d="M618.95,242.18 C634.08,262.06 639.9646,269.8121 653.9946,288.2621 " fill="transparent" id="Soy-to-CondimentDecorator" style="stroke:#181818;stroke-width:1;"/><polygon fill="transparent" points="664.89,302.59,658.7705,284.6303,649.2186,291.8939,664.89,302.59" style="stroke:#181818;stroke-width:1;"/><text fill="#000000" font-family="sans-serif" font-size="13" lengthAdjust="spacing" textLength="7.23" x="616.4207" y="263.1434">1</text><text fill="#000000" font-family="sans-serif" font-size="13" lengthAdjust="spacing" textLength="7.23" x="652.3847" y="292.1413">1</text></g><!--link Soy to Beverage--><g id="link_Soy_Beverage"><path codeLine="82" d="M458.69,242.13 C442.81,248.72 426.62,255.03 411,260.5 C340.74,285.09 294.47,244.06 249,303 C226.47,332.21 225.16,357.85 249,386 C324.33,474.94 659.7229,497.2728 841.4129,502.9428 " fill="transparent" id="Soy-to-Beverage" style="stroke:#181818;stroke-width:1;"/><polygon fill="#181818" points="847.41,503.13,838.5391,498.8512,842.4124,502.974,838.2896,506.8473,847.41,503.13" style="stroke:#181818;stroke-width:1;"/><text fill="#000000" font-family="sans-serif" font-size="13" lengthAdjust="spacing" textLength="54.209" x="250" y="349.9951">beverage</text><text fill="#000000" font-family="sans-serif" font-size="13" lengthAdjust="spacing" textLength="7.23" x="437.6306" y="263.0876">1</text><text fill="#000000" font-family="sans-serif" font-size="13" lengthAdjust="spacing" textLength="7.23" x="832.1115" y="499.8578">1</text></g><!--link Soy to Soy--><g id="link_Soy_Soy"><path codeLine="83" d="M725.68,171.57 C746.53,173.93 760.5,178.74 760.5,186 C760.5,193.26 752.4919,197.3952 731.6419,199.7552 " fill="transparent" id="Soy-to-Soy" style="stroke:#181818;stroke-width:1;stroke-dasharray:7.0,7.0;"/><polygon fill="#181818" points="725.68,200.43,735.0728,203.3924,730.6483,199.8676,734.173,195.4431,725.68,200.43" style="stroke:#181818;stroke-width:1;"/></g><!--link StarbuzzCoffee to StarbuzzCoffee--><g id="link_StarbuzzCoffee_StarbuzzCoffee"><path codeLine="89" d="M528.21,331.58 C548.54,333.06 563,337.36 563,344.5 C563,351.64 554.5242,355.5044 534.1942,356.9844 " fill="transparent" id="StarbuzzCoffee-to-StarbuzzCoffee" style="stroke:#181818;stroke-width:1;stroke-dasharray:7.0,7.0;"/><polygon fill="#181818" points="528.21,357.42,537.4767,360.756,533.1968,357.057,536.8958,352.7771,528.21,357.42" style="stroke:#181818;stroke-width:1;"/></g><!--link StarbuzzCoffee to Beverage--><g id="link_StarbuzzCoffee_Beverage"><path codeLine="90" d="M528.22,376.16 C619.62,403.31 747.0885,441.1612 841.7385,469.2812 " fill="transparent" id="StarbuzzCoffee-to-Beverage" style="stroke:#181818;stroke-width:1;stroke-dasharray:7.0,7.0;"/><polygon fill="#181818" points="847.49,470.99,840.0019,464.5925,842.6971,469.566,837.7235,472.2612,847.49,470.99" style="stroke:#181818;stroke-width:1;"/></g><!--link Whip to CondimentDecorator--><g id="link_Whip_CondimentDecorator"><path codeLine="97" d="M358.97,242.04 C376.38,248.53 394.04,254.85 411,260.5 C477.95,282.82 496.26,283.2 564,303 C569.64,304.65 558.1461,301.2213 563.9661,302.9513 " fill="transparent" id="Whip-to-CondimentDecorator" style="stroke:#181818;stroke-width:1;"/><polygon fill="transparent" points="581.22,308.08,565.6757,297.2,562.2566,308.7026,581.22,308.08" style="stroke:#181818;stroke-width:1;"/><text fill="#000000" font-family="sans-serif" font-size="13" lengthAdjust="spacing" textLength="7.23" x="367.3249" y="262.9872">1</text><text fill="#000000" font-family="sans-serif" font-size="13" lengthAdjust="spacing" textLength="7.23" x="566.2776" y="302.5951">1</text></g><!--link Whip to Beverage--><g id="link_Whip_Beverage"><path codeLine="98" d="M183.5,242.15 C158.02,285.09 135.07,344.23 167,386 C207.81,439.39 631.3289,479.3336 841.4789,496.0736 " fill="transparent" id="Whip-to-Beverage" style="stroke:#181818;stroke-width:1;"/><polygon fill="#181818" points="847.46,496.55,838.806,491.848,842.4758,496.153,838.1708,499.8227,847.46,496.55" style="stroke:#181818;stroke-width:1;"/><text fill="#000000" font-family="sans-serif" font-size="13" lengthAdjust="spacing" textLength="54.209" x="168" y="349.9951">beverage</text><text fill="#000000" font-family="sans-serif" font-size="13" lengthAdjust="spacing" textLength="7.23" x="171.5662" y="263.1099">1</text><text fill="#000000" font-family="sans-serif" font-size="13" lengthAdjust="spacing" textLength="7.23" x="832.165" y="509.9401">1</text></g><!--link Whip to Whip--><g id="link_Whip_Whip"><path codeLine="99" d="M375.66,171.65 C396.56,174.04 410.5,178.82 410.5,186 C410.5,193.18 402.5212,197.2783 381.6212,199.6683 " fill="transparent" id="Whip-to-Whip" style="stroke:#181818;stroke-width:1;stroke-dasharray:7.0,7.0;"/><polygon fill="#181818" points="375.66,200.35,385.0562,203.3016,380.6276,199.7819,384.1473,195.3534,375.66,200.35" style="stroke:#181818;stroke-width:1;"/></g><!--SRC=[nPTFRvim6CRlV0ghkwHA2zgjObKEIJQjqdPPf-rGzM3WJUALs95jEhLPzzbdk_phWDX4e5mIR1u_lB_tCP34AHO2RG0dAyA5z1E86SUISPym_uRkClaTX4Hx3qtBqUJSGtiXiIJn2_gxnOHEVk577AIOheDRoGbTtzsVX-W78udtubdDVNzchS3puaELVc6_WI-m0BD0rG1uQufkE_5QBM51RKuXJTLtCb5rtr1PZEPF4kxkB_IK-SZFTaArrd60hqtlUJWIakDOecvcrNuUPS_F_XmUWUCrQDe4HCp9JX96G_H_90gfqEe0fskGoqglkPihzaKbAkUOwUH3j6HPb4972vfbTS4tbFsm5umcP0jKCUJdJDpDQRDPQnWEs1QqbakVlJz3bvT_PkR0ZRRl9QnzRAuvTC-KovQOFtnZEB_7ov7P8lqYhvo6RaVbREr2ANM3XnYlNi7rqJ7Gnc5mOEDgXzKo9z2FOiT126POYy4HkANFqCIbiHMwK3fnVsQPW7aAD37arV08zfhNqFGrQoj_fNNgm5UIFg3hw_AXC9kXTrTNdpwaX48OfPbvSKorQbBw1ALFKFW41OZhgwDdSqsPxcrjUTYvslS83OKeSihFs5kJqogtp5YymGwXQTbfKpE5ZXXRpN-Kt8o_FJWjSqhkbZtPSrEYawQcYnmliyfzZCIqkpKl9N9BApzOiDKAycpUJ0tmJwVhOdQ8D_fXlQlVt0vT-haXE_kcrggJxcfJvdZRkcO_nhuszjRSjChx1m00]--></g></svg>