<svg xmlns="http://www.w3.org/2000/svg" xmlns:xlink="http://www.w3.org/1999/xlink" contentStyleType="text/css" data-diagram-type="CLASS" height="653px" preserveAspectRatio="none" style="width:2454px;height:653px;background:#FFFFFF;" version="1.1" viewBox="0 0 2454 653" width="2454px" zoomAndPan="magnify"><defs/><g><!--cluster headfirst--><g id="cluster_headfirst"><path d="M8.5,6 L68.624,6 A3.75,3.75 0 0 1 71.124,8.5 L78.124,29.6094 L2444.5,29.6094 A2.5,2.5 0 0 1 2447,32.1094 L2447,643.5 A2.5,2.5 0 0 1 2444.5,646 L8.5,646 A2.5,2.5 0 0 1 6,643.5 L6,8.5 A2.5,2.5 0 0 1 8.5,6 " fill="transparent" style="stroke:#000000;stroke-width:1.5;"/><line style="stroke:#000000;stroke-width:1.5;" x1="6" x2="78.124" y1="29.6094" y2="29.6094"/><text fill="#000000" font-family="sans-serif" font-size="14" font-weight="bold" lengthAdjust="spacing" textLength="59.124" x="10" y="22.5332">headfirst</text></g><!--cluster decorator--><g id="cluster_decorator"><path d="M32.5,50 L98.0723,50 A3.75,3.75 0 0 1 100.5723,52.5 L107.5723,73.6094 L2420.5,73.6094 A2.5,2.5 0 0 1 2423,76.1094 L2423,619.5 A2.5,2.5 0 0 1 2420.5,622 L32.5,622 A2.5,2.5 0 0 1 30,619.5 L30,52.5 A2.5,2.5 0 0 1 32.5,50 " fill="transparent" style="stroke:#000000;stroke-width:1.5;"/><line style="stroke:#000000;stroke-width:1.5;" x1="30" x2="107.5723" y1="73.6094" y2="73.6094"/><text fill="#000000" font-family="sans-serif" font-size="14" font-weight="bold" lengthAdjust="spacing" textLength="64.5723" x="34" y="66.5332">decorator</text></g><!--cluster io--><g id="cluster_io"><path d="M1788.5,108 L1801.9414,108 A3.75,3.75 0 0 1 1804.4414,110.5 L1811.4414,131.6094 L2396.5,131.6094 A2.5,2.5 0 0 1 2399,134.1094 L2399,258.5 A2.5,2.5 0 0 1 2396.5,261 L1788.5,261 A2.5,2.5 0 0 1 1786,258.5 L1786,110.5 A2.5,2.5 0 0 1 1788.5,108 " fill="transparent" style="stroke:#000000;stroke-width:1.5;"/><line style="stroke:#000000;stroke-width:1.5;" x1="1786" x2="1811.4414" y1="131.6094" y2="131.6094"/><text fill="#000000" font-family="sans-serif" font-size="14" font-weight="bold" lengthAdjust="spacing" textLength="12.4414" x="1790" y="124.5332">io</text></g><!--cluster starbuzz--><g id="cluster_starbuzz"><path d="M56.5,94 L114.2861,94 A3.75,3.75 0 0 1 116.7861,96.5 L123.7861,117.6094 L1759.5,117.6094 A2.5,2.5 0 0 1 1762,120.1094 L1762,595.5 A2.5,2.5 0 0 1 1759.5,598 L56.5,598 A2.5,2.5 0 0 1 54,595.5 L54,96.5 A2.5,2.5 0 0 1 56.5,94 " fill="transparent" style="stroke:#000000;stroke-width:1.5;"/><line style="stroke:#000000;stroke-width:1.5;" x1="54" x2="123.7861" y1="117.6094" y2="117.6094"/><text fill="#000000" font-family="sans-serif" font-size="14" font-weight="bold" lengthAdjust="spacing" textLength="56.7861" x="58" y="110.5332">starbuzz</text></g><!--class InputTest--><g id="elem_InputTest"><rect codeLine="2" fill="#F1F1F1" height="83.2188" id="InputTest" rx="2.5" ry="2.5" style="stroke:#181818;stroke-width:0.5;" width="205.751" x="2159" y="153"/><ellipse cx="2228.4429" cy="169" fill="#ADD1B2" rx="11" ry="11" style="stroke:#181818;stroke-width:1;"/><path d="M2231.2085,164.875 Q2231.3647,164.6563 2231.5522,164.5469 Q2231.7397,164.4375 2231.9585,164.4375 Q2232.3335,164.4375 2232.5679,164.7031 Q2232.8022,164.9531 2232.8022,165.5625 L2232.8022,167.0156 Q2232.8022,167.625 2232.5679,167.8906 Q2232.3335,168.1563 2231.9585,168.1563 Q2231.6147,168.1563 2231.4116,167.9531 Q2231.2085,167.7656 2231.0991,167.25 Q2231.0522,166.8906 2230.8647,166.7031 Q2230.5366,166.3281 2229.9272,166.1094 Q2229.3179,165.8906 2228.6929,165.8906 Q2227.9272,165.8906 2227.2866,166.2188 Q2226.6616,166.5469 2226.1616,167.2969 Q2225.6772,168.0469 2225.6772,169.0781 L2225.6772,170.1719 Q2225.6772,171.4063 2226.5679,172.2344 Q2227.4585,173.0469 2229.0522,173.0469 Q2229.9897,173.0469 2230.646,172.7969 Q2231.0366,172.6406 2231.4585,172.2031 Q2231.7241,171.9375 2231.8647,171.8594 Q2232.021,171.7813 2232.2241,171.7813 Q2232.5522,171.7813 2232.8022,172.0469 Q2233.0679,172.2969 2233.0679,172.6406 Q2233.0679,172.9844 2232.7241,173.3906 Q2232.2241,173.9688 2231.4272,174.2969 Q2230.3491,174.75 2229.0522,174.75 Q2227.5366,174.75 2226.3335,174.125 Q2225.3491,173.625 2224.6616,172.5625 Q2223.9741,171.4844 2223.9741,170.2031 L2223.9741,169.0469 Q2223.9741,167.7188 2224.5835,166.5781 Q2225.2085,165.4219 2226.3022,164.8125 Q2227.396,164.1875 2228.6304,164.1875 Q2229.3647,164.1875 2230.0054,164.3594 Q2230.6616,164.5156 2231.2085,164.875 Z " fill="#000000"/><text fill="#000000" font-family="sans-serif" font-size="14" lengthAdjust="spacing" textLength="58.3652" x="2248.9429" y="174.7285">InputTest</text><line style="stroke:#181818;stroke-width:0.5;" x1="2160" x2="2363.751" y1="185" y2="185"/><line style="stroke:#181818;stroke-width:0.5;" x1="2160" x2="2363.751" y1="193" y2="193"/><ellipse cx="2170" cy="207.3047" fill="#84BE84" rx="3" ry="3" style="stroke:#038048;stroke-width:1;"/><text fill="#000000" font-family="sans-serif" font-size="14" lengthAdjust="spacing" textLength="67.6895" x="2179" y="211.5332">InputTest()</text><polygon fill="#4177AF" points="2170,220.9141,2166,226.9141,2174,226.9141" style="stroke:#1963A0;stroke-width:1;"/><text fill="#000000" font-family="sans-serif" font-size="14" lengthAdjust="spacing" text-decoration="underline" textLength="179.751" x="2179" y="229.1426">main(java/lang/String[]): Void</text></g><!--class LowerCaseInputStream--><g id="elem_LowerCaseInputStream"><rect codeLine="8" fill="#F1F1F1" height="100.8281" id="LowerCaseInputStream" rx="2.5" ry="2.5" style="stroke:#181818;stroke-width:0.5;" width="303.0195" x="1802.5" y="144"/><ellipse cx="1876.2222" cy="160" fill="#ADD1B2" rx="11" ry="11" style="stroke:#181818;stroke-width:1;"/><path d="M1878.9878,155.875 Q1879.144,155.6563 1879.3315,155.5469 Q1879.519,155.4375 1879.7378,155.4375 Q1880.1128,155.4375 1880.3472,155.7031 Q1880.5815,155.9531 1880.5815,156.5625 L1880.5815,158.0156 Q1880.5815,158.625 1880.3472,158.8906 Q1880.1128,159.1563 1879.7378,159.1563 Q1879.394,159.1563 1879.1909,158.9531 Q1878.9878,158.7656 1878.8784,158.25 Q1878.8315,157.8906 1878.644,157.7031 Q1878.3159,157.3281 1877.7065,157.1094 Q1877.0972,156.8906 1876.4722,156.8906 Q1875.7065,156.8906 1875.0659,157.2188 Q1874.4409,157.5469 1873.9409,158.2969 Q1873.4565,159.0469 1873.4565,160.0781 L1873.4565,161.1719 Q1873.4565,162.4063 1874.3472,163.2344 Q1875.2378,164.0469 1876.8315,164.0469 Q1877.769,164.0469 1878.4253,163.7969 Q1878.8159,163.6406 1879.2378,163.2031 Q1879.5034,162.9375 1879.644,162.8594 Q1879.8003,162.7813 1880.0034,162.7813 Q1880.3315,162.7813 1880.5815,163.0469 Q1880.8472,163.2969 1880.8472,163.6406 Q1880.8472,163.9844 1880.5034,164.3906 Q1880.0034,164.9688 1879.2065,165.2969 Q1878.1284,165.75 1876.8315,165.75 Q1875.3159,165.75 1874.1128,165.125 Q1873.1284,164.625 1872.4409,163.5625 Q1871.7534,162.4844 1871.7534,161.2031 L1871.7534,160.0469 Q1871.7534,158.7188 1872.3628,157.5781 Q1872.9878,156.4219 1874.0815,155.8125 Q1875.1753,155.1875 1876.4097,155.1875 Q1877.144,155.1875 1877.7847,155.3594 Q1878.4409,155.5156 1878.9878,155.875 Z " fill="#000000"/><text fill="#000000" font-family="sans-serif" font-size="14" lengthAdjust="spacing" textLength="147.0752" x="1896.7222" y="165.7285">LowerCaseInputStream</text><line style="stroke:#181818;stroke-width:0.5;" x1="1803.5" x2="2104.5195" y1="176" y2="176"/><line style="stroke:#181818;stroke-width:0.5;" x1="1803.5" x2="2104.5195" y1="184" y2="184"/><ellipse cx="1813.5" cy="198.3047" fill="#84BE84" rx="3" ry="3" style="stroke:#038048;stroke-width:1;"/><text fill="#000000" font-family="sans-serif" font-size="14" lengthAdjust="spacing" textLength="277.0195" x="1822.5" y="202.5332">LowerCaseInputStream(java/io/InputStream)</text><ellipse cx="1813.5" cy="215.9141" fill="#84BE84" rx="3" ry="3" style="stroke:#038048;stroke-width:1;"/><text fill="#000000" font-family="sans-serif" font-size="14" lengthAdjust="spacing" textLength="60.6895" x="1822.5" y="220.1426">read(): Int</text><ellipse cx="1813.5" cy="233.5234" fill="#84BE84" rx="3" ry="3" style="stroke:#038048;stroke-width:1;"/><text fill="#000000" font-family="sans-serif" font-size="14" lengthAdjust="spacing" textLength="143.1719" x="1822.5" y="237.752">read(Byte[], Int, Int): Int</text></g><!--class Beverage--><g id="elem_Beverage"><rect codeLine="15" fill="#F1F1F1" height="118.4375" id="Beverage" rx="2.5" ry="2.5" style="stroke:#181818;stroke-width:0.5;" width="229.0957" x="847.5" y="464"/><ellipse cx="927.8325" cy="480" fill="#A9DCDF" rx="11" ry="11" style="stroke:#181818;stroke-width:1;"/><path d="M930.02,481.7656 L925.8794,481.7656 L925.4575,482.7969 L925.8794,482.7969 Q926.4888,482.7969 926.7544,483.0313 Q927.02,483.2656 927.02,483.6563 Q927.02,484.0313 926.7544,484.2656 Q926.4888,484.5 925.8794,484.5 L923.5825,484.5 Q922.9731,484.5 922.7231,484.2656 Q922.4575,484.0313 922.4575,483.6406 Q922.4575,483.2656 922.7388,483.0313 Q923.0044,482.7813 923.6294,482.7969 L926.3013,476.1406 L925.1919,476.1406 Q924.5825,476.1406 924.3169,475.9063 Q924.0513,475.6719 924.0513,475.2813 Q924.0513,474.9063 924.3169,474.6719 Q924.5825,474.4375 925.1919,474.4375 L928.8638,474.4375 L932.2544,482.7969 Q932.8481,482.7969 933.0356,482.9375 Q933.4263,483.2031 933.4263,483.6563 Q933.4263,484.0313 933.1606,484.2656 Q932.9106,484.5 932.3013,484.5 L930.0044,484.5 Q929.395,484.5 929.1294,484.2656 Q928.8638,484.0313 928.8638,483.6406 Q928.8638,483.2656 929.1294,483.0313 Q929.395,482.7969 930.0044,482.7969 L930.4263,482.7969 L930.02,481.7656 Z M929.3013,480.0625 L927.9419,476.6875 L926.5669,480.0625 L929.3013,480.0625 Z " fill="#000000"/><text fill="#000000" font-family="sans-serif" font-size="14" font-style="italic" lengthAdjust="spacing" textLength="59.9307" x="948.3325" y="485.7285">Beverage</text><line style="stroke:#181818;stroke-width:0.5;" x1="848.5" x2="1075.5957" y1="496" y2="496"/><text fill="#000000" font-family="sans-serif" font-size="14" lengthAdjust="spacing" textLength="171.9854" x="853.5" y="514.5332">description: java/lang/String</text><line style="stroke:#181818;stroke-width:0.5;" x1="848.5" x2="1075.5957" y1="521.6094" y2="521.6094"/><ellipse cx="858.5" cy="535.9141" fill="#84BE84" rx="3" ry="3" style="stroke:#038048;stroke-width:1;"/><text fill="#000000" font-family="sans-serif" font-size="14" lengthAdjust="spacing" textLength="69.2549" x="867.5" y="540.1426">Beverage()</text><ellipse cx="858.5" cy="553.5234" fill="#84BE84" rx="3" ry="3" style="stroke:#038048;stroke-width:1;"/><text fill="#000000" font-family="sans-serif" font-size="14" lengthAdjust="spacing" textLength="203.0957" x="867.5" y="557.752">getDescription(): java/lang/String</text><polygon fill="#4177AF" points="858.5,567.1328,854.5,573.1328,862.5,573.1328" style="stroke:#1963A0;stroke-width:1;"/><text fill="#000000" font-family="sans-serif" font-size="14" font-style="italic" lengthAdjust="spacing" textLength="87.1445" x="867.5" y="575.3613">cost(): Double</text></g><!--class CondimentDecorator--><g id="elem_CondimentDecorator"><rect codeLine="23" fill="#F1F1F1" height="83.2188" id="CondimentDecorator" rx="2.5" ry="2.5" style="stroke:#181818;stroke-width:0.5;" width="229.0957" x="581.5" y="320"/><ellipse cx="627.2119" cy="336" fill="#A9DCDF" rx="11" ry="11" style="stroke:#181818;stroke-width:1;"/><path d="M629.3994,337.7656 L625.2588,337.7656 L624.8369,338.7969 L625.2588,338.7969 Q625.8682,338.7969 626.1338,339.0313 Q626.3994,339.2656 626.3994,339.6563 Q626.3994,340.0313 626.1338,340.2656 Q625.8682,340.5 625.2588,340.5 L622.9619,340.5 Q622.3525,340.5 622.1025,340.2656 Q621.8369,340.0313 621.8369,339.6406 Q621.8369,339.2656 622.1182,339.0313 Q622.3838,338.7813 623.0088,338.7969 L625.6807,332.1406 L624.5713,332.1406 Q623.9619,332.1406 623.6963,331.9063 Q623.4307,331.6719 623.4307,331.2813 Q623.4307,330.9063 623.6963,330.6719 Q623.9619,330.4375 624.5713,330.4375 L628.2432,330.4375 L631.6338,338.7969 Q632.2275,338.7969 632.415,338.9375 Q632.8057,339.2031 632.8057,339.6563 Q632.8057,340.0313 632.54,340.2656 Q632.29,340.5 631.6807,340.5 L629.3838,340.5 Q628.7744,340.5 628.5088,340.2656 Q628.2432,340.0313 628.2432,339.6406 Q628.2432,339.2656 628.5088,339.0313 Q628.7744,338.7969 629.3838,338.7969 L629.8057,338.7969 L629.3994,337.7656 Z M628.6807,336.0625 L627.3213,332.6875 L625.9463,336.0625 L628.6807,336.0625 Z " fill="#000000"/><text fill="#000000" font-family="sans-serif" font-size="14" font-style="italic" lengthAdjust="spacing" textLength="129.1719" x="647.7119" y="341.7285">CondimentDecorator</text><line style="stroke:#181818;stroke-width:0.5;" x1="582.5" x2="809.5957" y1="352" y2="352"/><line style="stroke:#181818;stroke-width:0.5;" x1="582.5" x2="809.5957" y1="360" y2="360"/><ellipse cx="592.5" cy="374.3047" fill="#84BE84" rx="3" ry="3" style="stroke:#038048;stroke-width:1;"/><text fill="#000000" font-family="sans-serif" font-size="14" lengthAdjust="spacing" textLength="138.4961" x="601.5" y="378.5332">CondimentDecorator()</text><polygon fill="#4177AF" points="592.5,387.9141,588.5,393.9141,596.5,393.9141" style="stroke:#1963A0;stroke-width:1;"/><text fill="#000000" font-family="sans-serif" font-size="14" font-style="italic" lengthAdjust="spacing" textLength="203.0957" x="601.5" y="396.1426">getDescription(): java/lang/String</text></g><!--class DarkRoast--><g id="elem_DarkRoast"><rect codeLine="30" fill="#F1F1F1" height="83.2188" id="DarkRoast" rx="2.5" ry="2.5" style="stroke:#181818;stroke-width:0.5;" width="113.1445" x="1614.5" y="320"/><ellipse cx="1636.2562" cy="336" fill="#ADD1B2" rx="11" ry="11" style="stroke:#181818;stroke-width:1;"/><path d="M1639.0218,331.875 Q1639.178,331.6563 1639.3655,331.5469 Q1639.553,331.4375 1639.7718,331.4375 Q1640.1468,331.4375 1640.3812,331.7031 Q1640.6155,331.9531 1640.6155,332.5625 L1640.6155,334.0156 Q1640.6155,334.625 1640.3812,334.8906 Q1640.1468,335.1563 1639.7718,335.1563 Q1639.428,335.1563 1639.2249,334.9531 Q1639.0218,334.7656 1638.9124,334.25 Q1638.8655,333.8906 1638.678,333.7031 Q1638.3499,333.3281 1637.7405,333.1094 Q1637.1312,332.8906 1636.5062,332.8906 Q1635.7405,332.8906 1635.0999,333.2188 Q1634.4749,333.5469 1633.9749,334.2969 Q1633.4905,335.0469 1633.4905,336.0781 L1633.4905,337.1719 Q1633.4905,338.4063 1634.3812,339.2344 Q1635.2718,340.0469 1636.8655,340.0469 Q1637.803,340.0469 1638.4593,339.7969 Q1638.8499,339.6406 1639.2718,339.2031 Q1639.5374,338.9375 1639.678,338.8594 Q1639.8343,338.7813 1640.0374,338.7813 Q1640.3655,338.7813 1640.6155,339.0469 Q1640.8812,339.2969 1640.8812,339.6406 Q1640.8812,339.9844 1640.5374,340.3906 Q1640.0374,340.9688 1639.2405,341.2969 Q1638.1624,341.75 1636.8655,341.75 Q1635.3499,341.75 1634.1468,341.125 Q1633.1624,340.625 1632.4749,339.5625 Q1631.7874,338.4844 1631.7874,337.2031 L1631.7874,336.0469 Q1631.7874,334.7188 1632.3968,333.5781 Q1633.0218,332.4219 1634.1155,331.8125 Q1635.2093,331.1875 1636.4437,331.1875 Q1637.178,331.1875 1637.8187,331.3594 Q1638.4749,331.5156 1639.0218,331.875 Z " fill="#000000"/><text fill="#000000" font-family="sans-serif" font-size="14" lengthAdjust="spacing" textLength="66.1309" x="1651.7575" y="341.7285">DarkRoast</text><line style="stroke:#181818;stroke-width:0.5;" x1="1615.5" x2="1726.6445" y1="352" y2="352"/><line style="stroke:#181818;stroke-width:0.5;" x1="1615.5" x2="1726.6445" y1="360" y2="360"/><ellipse cx="1625.5" cy="374.3047" fill="#84BE84" rx="3" ry="3" style="stroke:#038048;stroke-width:1;"/><text fill="#000000" font-family="sans-serif" font-size="14" lengthAdjust="spacing" textLength="75.4551" x="1634.5" y="378.5332">DarkRoast()</text><ellipse cx="1625.5" cy="391.9141" fill="#84BE84" rx="3" ry="3" style="stroke:#038048;stroke-width:1;"/><text fill="#000000" font-family="sans-serif" font-size="14" lengthAdjust="spacing" textLength="87.1445" x="1634.5" y="396.1426">cost(): Double</text></g><!--class Decaf--><g id="elem_Decaf"><rect codeLine="37" fill="#F1F1F1" height="83.2188" id="Decaf" rx="2.5" ry="2.5" style="stroke:#181818;stroke-width:0.5;" width="113.1445" x="1448.5" y="320"/><ellipse cx="1483.5575" cy="336" fill="#ADD1B2" rx="11" ry="11" style="stroke:#181818;stroke-width:1;"/><path d="M1486.3231,331.875 Q1486.4794,331.6563 1486.6669,331.5469 Q1486.8544,331.4375 1487.0731,331.4375 Q1487.4481,331.4375 1487.6825,331.7031 Q1487.9169,331.9531 1487.9169,332.5625 L1487.9169,334.0156 Q1487.9169,334.625 1487.6825,334.8906 Q1487.4481,335.1563 1487.0731,335.1563 Q1486.7294,335.1563 1486.5263,334.9531 Q1486.3231,334.7656 1486.2138,334.25 Q1486.1669,333.8906 1485.9794,333.7031 Q1485.6513,333.3281 1485.0419,333.1094 Q1484.4325,332.8906 1483.8075,332.8906 Q1483.0419,332.8906 1482.4013,333.2188 Q1481.7763,333.5469 1481.2763,334.2969 Q1480.7919,335.0469 1480.7919,336.0781 L1480.7919,337.1719 Q1480.7919,338.4063 1481.6825,339.2344 Q1482.5731,340.0469 1484.1669,340.0469 Q1485.1044,340.0469 1485.7606,339.7969 Q1486.1513,339.6406 1486.5731,339.2031 Q1486.8388,338.9375 1486.9794,338.8594 Q1487.1356,338.7813 1487.3388,338.7813 Q1487.6669,338.7813 1487.9169,339.0469 Q1488.1825,339.2969 1488.1825,339.6406 Q1488.1825,339.9844 1487.8388,340.3906 Q1487.3388,340.9688 1486.5419,341.2969 Q1485.4638,341.75 1484.1669,341.75 Q1482.6513,341.75 1481.4481,341.125 Q1480.4638,340.625 1479.7763,339.5625 Q1479.0888,338.4844 1479.0888,337.2031 L1479.0888,336.0469 Q1479.0888,334.7188 1479.6981,333.5781 Q1480.3231,332.4219 1481.4169,331.8125 Q1482.5106,331.1875 1483.745,331.1875 Q1484.4794,331.1875 1485.12,331.3594 Q1485.7763,331.5156 1486.3231,331.875 Z " fill="#000000"/><text fill="#000000" font-family="sans-serif" font-size="14" lengthAdjust="spacing" textLength="36.5723" x="1502.0147" y="341.7285">Decaf</text><line style="stroke:#181818;stroke-width:0.5;" x1="1449.5" x2="1560.6445" y1="352" y2="352"/><line style="stroke:#181818;stroke-width:0.5;" x1="1449.5" x2="1560.6445" y1="360" y2="360"/><ellipse cx="1459.5" cy="374.3047" fill="#84BE84" rx="3" ry="3" style="stroke:#038048;stroke-width:1;"/><text fill="#000000" font-family="sans-serif" font-size="14" lengthAdjust="spacing" textLength="45.8965" x="1468.5" y="378.5332">Decaf()</text><ellipse cx="1459.5" cy="391.9141" fill="#84BE84" rx="3" ry="3" style="stroke:#038048;stroke-width:1;"/><text fill="#000000" font-family="sans-serif" font-size="14" lengthAdjust="spacing" textLength="87.1445" x="1468.5" y="396.1426">cost(): Double</text></g><!--class Espresso--><g id="elem_Espresso"><rect codeLine="44" fill="#F1F1F1" height="83.2188" id="Espresso" rx="2.5" ry="2.5" style="stroke:#181818;stroke-width:0.5;" width="113.1445" x="1282.5" y="320"/><ellipse cx="1307.7538" cy="336" fill="#ADD1B2" rx="11" ry="11" style="stroke:#181818;stroke-width:1;"/><path d="M1310.5194,331.875 Q1310.6756,331.6563 1310.8631,331.5469 Q1311.0506,331.4375 1311.2694,331.4375 Q1311.6444,331.4375 1311.8788,331.7031 Q1312.1131,331.9531 1312.1131,332.5625 L1312.1131,334.0156 Q1312.1131,334.625 1311.8788,334.8906 Q1311.6444,335.1563 1311.2694,335.1563 Q1310.9256,335.1563 1310.7225,334.9531 Q1310.5194,334.7656 1310.41,334.25 Q1310.3631,333.8906 1310.1756,333.7031 Q1309.8475,333.3281 1309.2381,333.1094 Q1308.6288,332.8906 1308.0038,332.8906 Q1307.2381,332.8906 1306.5975,333.2188 Q1305.9725,333.5469 1305.4725,334.2969 Q1304.9881,335.0469 1304.9881,336.0781 L1304.9881,337.1719 Q1304.9881,338.4063 1305.8788,339.2344 Q1306.7694,340.0469 1308.3631,340.0469 Q1309.3006,340.0469 1309.9569,339.7969 Q1310.3475,339.6406 1310.7694,339.2031 Q1311.035,338.9375 1311.1756,338.8594 Q1311.3319,338.7813 1311.535,338.7813 Q1311.8631,338.7813 1312.1131,339.0469 Q1312.3788,339.2969 1312.3788,339.6406 Q1312.3788,339.9844 1312.035,340.3906 Q1311.535,340.9688 1310.7381,341.2969 Q1309.66,341.75 1308.3631,341.75 Q1306.8475,341.75 1305.6444,341.125 Q1304.66,340.625 1303.9725,339.5625 Q1303.285,338.4844 1303.285,337.2031 L1303.285,336.0469 Q1303.285,334.7188 1303.8944,333.5781 Q1304.5194,332.4219 1305.6131,331.8125 Q1306.7069,331.1875 1307.9413,331.1875 Q1308.6756,331.1875 1309.3163,331.3594 Q1309.9725,331.5156 1310.5194,331.875 Z " fill="#000000"/><text fill="#000000" font-family="sans-serif" font-size="14" lengthAdjust="spacing" textLength="58.3584" x="1324.0324" y="341.7285">Espresso</text><line style="stroke:#181818;stroke-width:0.5;" x1="1283.5" x2="1394.6445" y1="352" y2="352"/><line style="stroke:#181818;stroke-width:0.5;" x1="1283.5" x2="1394.6445" y1="360" y2="360"/><ellipse cx="1293.5" cy="374.3047" fill="#84BE84" rx="3" ry="3" style="stroke:#038048;stroke-width:1;"/><text fill="#000000" font-family="sans-serif" font-size="14" lengthAdjust="spacing" textLength="67.6826" x="1302.5" y="378.5332">Espresso()</text><ellipse cx="1293.5" cy="391.9141" fill="#84BE84" rx="3" ry="3" style="stroke:#038048;stroke-width:1;"/><text fill="#000000" font-family="sans-serif" font-size="14" lengthAdjust="spacing" textLength="87.1445" x="1302.5" y="396.1426">cost(): Double</text></g><!--class HouseBlend--><g id="elem_HouseBlend"><rect codeLine="51" fill="#F1F1F1" height="83.2188" id="HouseBlend" rx="2.5" ry="2.5" style="stroke:#181818;stroke-width:0.5;" width="113.1445" x="1116.5" y="320"/><ellipse cx="1133.6911" cy="336" fill="#ADD1B2" rx="11" ry="11" style="stroke:#181818;stroke-width:1;"/><path d="M1136.4567,331.875 Q1136.613,331.6563 1136.8005,331.5469 Q1136.988,331.4375 1137.2067,331.4375 Q1137.5817,331.4375 1137.8161,331.7031 Q1138.0505,331.9531 1138.0505,332.5625 L1138.0505,334.0156 Q1138.0505,334.625 1137.8161,334.8906 Q1137.5817,335.1563 1137.2067,335.1563 Q1136.863,335.1563 1136.6599,334.9531 Q1136.4567,334.7656 1136.3474,334.25 Q1136.3005,333.8906 1136.113,333.7031 Q1135.7849,333.3281 1135.1755,333.1094 Q1134.5661,332.8906 1133.9411,332.8906 Q1133.1755,332.8906 1132.5349,333.2188 Q1131.9099,333.5469 1131.4099,334.2969 Q1130.9255,335.0469 1130.9255,336.0781 L1130.9255,337.1719 Q1130.9255,338.4063 1131.8161,339.2344 Q1132.7067,340.0469 1134.3005,340.0469 Q1135.238,340.0469 1135.8942,339.7969 Q1136.2849,339.6406 1136.7067,339.2031 Q1136.9724,338.9375 1137.113,338.8594 Q1137.2692,338.7813 1137.4724,338.7813 Q1137.8005,338.7813 1138.0505,339.0469 Q1138.3161,339.2969 1138.3161,339.6406 Q1138.3161,339.9844 1137.9724,340.3906 Q1137.4724,340.9688 1136.6755,341.2969 Q1135.5974,341.75 1134.3005,341.75 Q1132.7849,341.75 1131.5817,341.125 Q1130.5974,340.625 1129.9099,339.5625 Q1129.2224,338.4844 1129.2224,337.2031 L1129.2224,336.0469 Q1129.2224,334.7188 1129.8317,333.5781 Q1130.4567,332.4219 1131.5505,331.8125 Q1132.6442,331.1875 1133.8786,331.1875 Q1134.613,331.1875 1135.2536,331.3594 Q1135.9099,331.5156 1136.4567,331.875 Z " fill="#000000"/><text fill="#000000" font-family="sans-serif" font-size="14" lengthAdjust="spacing" textLength="76.2754" x="1148.178" y="341.7285">HouseBlend</text><line style="stroke:#181818;stroke-width:0.5;" x1="1117.5" x2="1228.6445" y1="352" y2="352"/><line style="stroke:#181818;stroke-width:0.5;" x1="1117.5" x2="1228.6445" y1="360" y2="360"/><ellipse cx="1127.5" cy="374.3047" fill="#84BE84" rx="3" ry="3" style="stroke:#038048;stroke-width:1;"/><text fill="#000000" font-family="sans-serif" font-size="14" lengthAdjust="spacing" textLength="85.5996" x="1136.5" y="378.5332">HouseBlend()</text><ellipse cx="1127.5" cy="391.9141" fill="#84BE84" rx="3" ry="3" style="stroke:#038048;stroke-width:1;"/><text fill="#000000" font-family="sans-serif" font-size="14" lengthAdjust="spacing" textLength="87.1445" x="1136.5" y="396.1426">cost(): Double</text></g><!--class Milk--><g id="elem_Milk"><rect codeLine="58" fill="#8888FF" height="129.1406" id="Milk" rx="2.5" ry="2.5" style="stroke:#0000FF;stroke-width:0.5;" width="315.5088" x="1177" y="130"/><ellipse cx="1299.4868" cy="151.3516" fill="#ADD1B2" rx="11" ry="11" style="stroke:#181818;stroke-width:1;"/><path d="M1302.2524,147.2266 Q1302.4087,147.0078 1302.5962,146.8984 Q1302.7837,146.7891 1303.0024,146.7891 Q1303.3774,146.7891 1303.6118,147.0547 Q1303.8462,147.3047 1303.8462,147.9141 L1303.8462,149.3672 Q1303.8462,149.9766 1303.6118,150.2422 Q1303.3774,150.5078 1303.0024,150.5078 Q1302.6587,150.5078 1302.4556,150.3047 Q1302.2524,150.1172 1302.1431,149.6016 Q1302.0962,149.2422 1301.9087,149.0547 Q1301.5806,148.6797 1300.9712,148.4609 Q1300.3618,148.2422 1299.7368,148.2422 Q1298.9712,148.2422 1298.3306,148.5703 Q1297.7056,148.8984 1297.2056,149.6484 Q1296.7212,150.3984 1296.7212,151.4297 L1296.7212,152.5234 Q1296.7212,153.7578 1297.6118,154.5859 Q1298.5024,155.3984 1300.0962,155.3984 Q1301.0337,155.3984 1301.6899,155.1484 Q1302.0806,154.9922 1302.5024,154.5547 Q1302.7681,154.2891 1302.9087,154.2109 Q1303.0649,154.1328 1303.2681,154.1328 Q1303.5962,154.1328 1303.8462,154.3984 Q1304.1118,154.6484 1304.1118,154.9922 Q1304.1118,155.3359 1303.7681,155.7422 Q1303.2681,156.3203 1302.4712,156.6484 Q1301.3931,157.1016 1300.0962,157.1016 Q1298.5806,157.1016 1297.3774,156.4766 Q1296.3931,155.9766 1295.7056,154.9141 Q1295.0181,153.8359 1295.0181,152.5547 L1295.0181,151.3984 Q1295.0181,150.0703 1295.6274,148.9297 Q1296.2524,147.7734 1297.3462,147.1641 Q1298.4399,146.5391 1299.6743,146.5391 Q1300.4087,146.5391 1301.0493,146.7109 Q1301.7056,146.8672 1302.2524,147.2266 Z " fill="#000000"/><text fill="#000000" font-family="sans-serif" font-size="12" font-style="italic" lengthAdjust="spacing" textLength="66.0352" x="1317.9868" y="147.457">&#171;Decorator&#187;</text><text fill="#000000" font-family="sans-serif" font-size="14" lengthAdjust="spacing" textLength="24.8828" x="1338.563" y="164.627">Milk</text><line style="stroke:#0000FF;stroke-width:0.5;" x1="1178" x2="1491.5088" y1="172.7031" y2="172.7031"/><text fill="#000000" font-family="sans-serif" font-size="14" lengthAdjust="spacing" textLength="303.5088" x="1183" y="191.2363">beverage: headfirst/decorator/starbuzz/Beverage</text><line style="stroke:#0000FF;stroke-width:0.5;" x1="1178" x2="1491.5088" y1="198.3125" y2="198.3125"/><ellipse cx="1188" cy="212.6172" fill="#84BE84" rx="3" ry="3" style="stroke:#038048;stroke-width:1;"/><text fill="#000000" font-family="sans-serif" font-size="14" lengthAdjust="spacing" textLength="271.5576" x="1197" y="216.8457">Milk(headfirst/decorator/starbuzz/Beverage)</text><ellipse cx="1188" cy="230.2266" fill="#84BE84" rx="3" ry="3" style="stroke:#038048;stroke-width:1;"/><text fill="#000000" font-family="sans-serif" font-size="14" lengthAdjust="spacing" textLength="203.0957" x="1197" y="234.4551">getDescription(): java/lang/String</text><ellipse cx="1188" cy="247.8359" fill="#84BE84" rx="3" ry="3" style="stroke:#038048;stroke-width:1;"/><text fill="#000000" font-family="sans-serif" font-size="14" lengthAdjust="spacing" textLength="87.1445" x="1197" y="252.0645">cost(): Double</text></g><!--class Mocha--><g id="elem_Mocha"><rect codeLine="68" fill="#8888FF" height="129.1406" id="Mocha" rx="2.5" ry="2.5" style="stroke:#0000FF;stroke-width:0.5;" width="315.5088" x="808" y="130"/><ellipse cx="930.4868" cy="151.3516" fill="#ADD1B2" rx="11" ry="11" style="stroke:#181818;stroke-width:1;"/><path d="M933.2524,147.2266 Q933.4087,147.0078 933.5962,146.8984 Q933.7837,146.7891 934.0024,146.7891 Q934.3774,146.7891 934.6118,147.0547 Q934.8462,147.3047 934.8462,147.9141 L934.8462,149.3672 Q934.8462,149.9766 934.6118,150.2422 Q934.3774,150.5078 934.0024,150.5078 Q933.6587,150.5078 933.4556,150.3047 Q933.2524,150.1172 933.1431,149.6016 Q933.0962,149.2422 932.9087,149.0547 Q932.5806,148.6797 931.9712,148.4609 Q931.3618,148.2422 930.7368,148.2422 Q929.9712,148.2422 929.3306,148.5703 Q928.7056,148.8984 928.2056,149.6484 Q927.7212,150.3984 927.7212,151.4297 L927.7212,152.5234 Q927.7212,153.7578 928.6118,154.5859 Q929.5024,155.3984 931.0962,155.3984 Q932.0337,155.3984 932.6899,155.1484 Q933.0806,154.9922 933.5024,154.5547 Q933.7681,154.2891 933.9087,154.2109 Q934.0649,154.1328 934.2681,154.1328 Q934.5962,154.1328 934.8462,154.3984 Q935.1118,154.6484 935.1118,154.9922 Q935.1118,155.3359 934.7681,155.7422 Q934.2681,156.3203 933.4712,156.6484 Q932.3931,157.1016 931.0962,157.1016 Q929.5806,157.1016 928.3774,156.4766 Q927.3931,155.9766 926.7056,154.9141 Q926.0181,153.8359 926.0181,152.5547 L926.0181,151.3984 Q926.0181,150.0703 926.6274,148.9297 Q927.2524,147.7734 928.3462,147.1641 Q929.4399,146.5391 930.6743,146.5391 Q931.4087,146.5391 932.0493,146.7109 Q932.7056,146.8672 933.2524,147.2266 Z " fill="#000000"/><text fill="#000000" font-family="sans-serif" font-size="12" font-style="italic" lengthAdjust="spacing" textLength="66.0352" x="948.9868" y="147.457">&#171;Decorator&#187;</text><text fill="#000000" font-family="sans-serif" font-size="14" lengthAdjust="spacing" textLength="42.0205" x="960.9941" y="164.627">Mocha</text><line style="stroke:#0000FF;stroke-width:0.5;" x1="809" x2="1122.5088" y1="172.7031" y2="172.7031"/><text fill="#000000" font-family="sans-serif" font-size="14" lengthAdjust="spacing" textLength="303.5088" x="814" y="191.2363">beverage: headfirst/decorator/starbuzz/Beverage</text><line style="stroke:#0000FF;stroke-width:0.5;" x1="809" x2="1122.5088" y1="198.3125" y2="198.3125"/><ellipse cx="819" cy="212.6172" fill="#84BE84" rx="3" ry="3" style="stroke:#038048;stroke-width:1;"/><text fill="#000000" font-family="sans-serif" font-size="14" lengthAdjust="spacing" textLength="288.6953" x="828" y="216.8457">Mocha(headfirst/decorator/starbuzz/Beverage)</text><ellipse cx="819" cy="230.2266" fill="#84BE84" rx="3" ry="3" style="stroke:#038048;stroke-width:1;"/><text fill="#000000" font-family="sans-serif" font-size="14" lengthAdjust="spacing" textLength="203.0957" x="828" y="234.4551">getDescription(): java/lang/String</text><ellipse cx="819" cy="247.8359" fill="#84BE84" rx="3" ry="3" style="stroke:#038048;stroke-width:1;"/><text fill="#000000" font-family="sans-serif" font-size="14" lengthAdjust="spacing" textLength="87.1445" x="828" y="252.0645">cost(): Double</text></g><!--class Soy--><g id="elem_Soy"><rect codeLine="78" fill="#8888FF" height="129.1406" id="Soy" rx="2.5" ry="2.5" style="stroke:#0000FF;stroke-width:0.5;" width="315.5088" x="439" y="130"/><ellipse cx="561.4868" cy="151.3516" fill="#ADD1B2" rx="11" ry="11" style="stroke:#181818;stroke-width:1;"/><path d="M564.2524,147.2266 Q564.4087,147.0078 564.5962,146.8984 Q564.7837,146.7891 565.0024,146.7891 Q565.3774,146.7891 565.6118,147.0547 Q565.8462,147.3047 565.8462,147.9141 L565.8462,149.3672 Q565.8462,149.9766 565.6118,150.2422 Q565.3774,150.5078 565.0024,150.5078 Q564.6587,150.5078 564.4556,150.3047 Q564.2524,150.1172 564.1431,149.6016 Q564.0962,149.2422 563.9087,149.0547 Q563.5806,148.6797 562.9712,148.4609 Q562.3618,148.2422 561.7368,148.2422 Q560.9712,148.2422 560.3306,148.5703 Q559.7056,148.8984 559.2056,149.6484 Q558.7212,150.3984 558.7212,151.4297 L558.7212,152.5234 Q558.7212,153.7578 559.6118,154.5859 Q560.5024,155.3984 562.0962,155.3984 Q563.0337,155.3984 563.6899,155.1484 Q564.0806,154.9922 564.5024,154.5547 Q564.7681,154.2891 564.9087,154.2109 Q565.0649,154.1328 565.2681,154.1328 Q565.5962,154.1328 565.8462,154.3984 Q566.1118,154.6484 566.1118,154.9922 Q566.1118,155.3359 565.7681,155.7422 Q565.2681,156.3203 564.4712,156.6484 Q563.3931,157.1016 562.0962,157.1016 Q560.5806,157.1016 559.3774,156.4766 Q558.3931,155.9766 557.7056,154.9141 Q557.0181,153.8359 557.0181,152.5547 L557.0181,151.3984 Q557.0181,150.0703 557.6274,148.9297 Q558.2524,147.7734 559.3462,147.1641 Q560.4399,146.5391 561.6743,146.5391 Q562.4087,146.5391 563.0493,146.7109 Q563.7056,146.8672 564.2524,147.2266 Z " fill="#000000"/><text fill="#000000" font-family="sans-serif" font-size="12" font-style="italic" lengthAdjust="spacing" textLength="66.0352" x="579.9868" y="147.457">&#171;Decorator&#187;</text><text fill="#000000" font-family="sans-serif" font-size="14" lengthAdjust="spacing" textLength="24.124" x="600.9424" y="164.627">Soy</text><line style="stroke:#0000FF;stroke-width:0.5;" x1="440" x2="753.5088" y1="172.7031" y2="172.7031"/><text fill="#000000" font-family="sans-serif" font-size="14" lengthAdjust="spacing" textLength="303.5088" x="445" y="191.2363">beverage: headfirst/decorator/starbuzz/Beverage</text><line style="stroke:#0000FF;stroke-width:0.5;" x1="440" x2="753.5088" y1="198.3125" y2="198.3125"/><ellipse cx="450" cy="212.6172" fill="#84BE84" rx="3" ry="3" style="stroke:#038048;stroke-width:1;"/><text fill="#000000" font-family="sans-serif" font-size="14" lengthAdjust="spacing" textLength="270.7988" x="459" y="216.8457">Soy(headfirst/decorator/starbuzz/Beverage)</text><ellipse cx="450" cy="230.2266" fill="#84BE84" rx="3" ry="3" style="stroke:#038048;stroke-width:1;"/><text fill="#000000" font-family="sans-serif" font-size="14" lengthAdjust="spacing" textLength="203.0957" x="459" y="234.4551">getDescription(): java/lang/String</text><ellipse cx="450" cy="247.8359" fill="#84BE84" rx="3" ry="3" style="stroke:#038048;stroke-width:1;"/><text fill="#000000" font-family="sans-serif" font-size="14" lengthAdjust="spacing" textLength="87.1445" x="459" y="252.0645">cost(): Double</text></g><!--class StarbuzzCoffee--><g id="elem_StarbuzzCoffee"><rect codeLine="88" fill="#F1F1F1" height="83.2188" id="StarbuzzCoffee" rx="2.5" ry="2.5" style="stroke:#181818;stroke-width:0.5;" width="205.751" x="322" y="320"/><ellipse cx="372.3774" cy="336" fill="#ADD1B2" rx="11" ry="11" style="stroke:#181818;stroke-width:1;"/><path d="M375.1431,331.875 Q375.2993,331.6563 375.4868,331.5469 Q375.6743,331.4375 375.8931,331.4375 Q376.2681,331.4375 376.5024,331.7031 Q376.7368,331.9531 376.7368,332.5625 L376.7368,334.0156 Q376.7368,334.625 376.5024,334.8906 Q376.2681,335.1563 375.8931,335.1563 Q375.5493,335.1563 375.3462,334.9531 Q375.1431,334.7656 375.0337,334.25 Q374.9868,333.8906 374.7993,333.7031 Q374.4712,333.3281 373.8618,333.1094 Q373.2524,332.8906 372.6274,332.8906 Q371.8618,332.8906 371.2212,333.2188 Q370.5962,333.5469 370.0962,334.2969 Q369.6118,335.0469 369.6118,336.0781 L369.6118,337.1719 Q369.6118,338.4063 370.5024,339.2344 Q371.3931,340.0469 372.9868,340.0469 Q373.9243,340.0469 374.5806,339.7969 Q374.9712,339.6406 375.3931,339.2031 Q375.6587,338.9375 375.7993,338.8594 Q375.9556,338.7813 376.1587,338.7813 Q376.4868,338.7813 376.7368,339.0469 Q377.0024,339.2969 377.0024,339.6406 Q377.0024,339.9844 376.6587,340.3906 Q376.1587,340.9688 375.3618,341.2969 Q374.2837,341.75 372.9868,341.75 Q371.4712,341.75 370.2681,341.125 Q369.2837,340.625 368.5962,339.5625 Q367.9087,338.4844 367.9087,337.2031 L367.9087,336.0469 Q367.9087,334.7188 368.5181,333.5781 Q369.1431,332.4219 370.2368,331.8125 Q371.3306,331.1875 372.5649,331.1875 Q373.2993,331.1875 373.9399,331.3594 Q374.5962,331.5156 375.1431,331.875 Z " fill="#000000"/><text fill="#000000" font-family="sans-serif" font-size="14" lengthAdjust="spacing" textLength="96.4961" x="392.8774" y="341.7285">StarbuzzCoffee</text><line style="stroke:#181818;stroke-width:0.5;" x1="323" x2="526.751" y1="352" y2="352"/><line style="stroke:#181818;stroke-width:0.5;" x1="323" x2="526.751" y1="360" y2="360"/><ellipse cx="333" cy="374.3047" fill="#84BE84" rx="3" ry="3" style="stroke:#038048;stroke-width:1;"/><text fill="#000000" font-family="sans-serif" font-size="14" lengthAdjust="spacing" textLength="105.8203" x="342" y="378.5332">StarbuzzCoffee()</text><polygon fill="#4177AF" points="333,387.9141,329,393.9141,337,393.9141" style="stroke:#1963A0;stroke-width:1;"/><text fill="#000000" font-family="sans-serif" font-size="14" lengthAdjust="spacing" text-decoration="underline" textLength="179.751" x="342" y="396.1426">main(java/lang/String[]): Void</text></g><!--class Whip--><g id="elem_Whip"><rect codeLine="95" fill="#8888FF" height="129.1406" id="Whip" rx="2.5" ry="2.5" style="stroke:#0000FF;stroke-width:0.5;" width="315.5088" x="70" y="130"/><ellipse cx="192.4868" cy="151.3516" fill="#ADD1B2" rx="11" ry="11" style="stroke:#181818;stroke-width:1;"/><path d="M195.2524,147.2266 Q195.4087,147.0078 195.5962,146.8984 Q195.7837,146.7891 196.0024,146.7891 Q196.3774,146.7891 196.6118,147.0547 Q196.8462,147.3047 196.8462,147.9141 L196.8462,149.3672 Q196.8462,149.9766 196.6118,150.2422 Q196.3774,150.5078 196.0024,150.5078 Q195.6587,150.5078 195.4556,150.3047 Q195.2524,150.1172 195.1431,149.6016 Q195.0962,149.2422 194.9087,149.0547 Q194.5806,148.6797 193.9712,148.4609 Q193.3618,148.2422 192.7368,148.2422 Q191.9712,148.2422 191.3306,148.5703 Q190.7056,148.8984 190.2056,149.6484 Q189.7212,150.3984 189.7212,151.4297 L189.7212,152.5234 Q189.7212,153.7578 190.6118,154.5859 Q191.5024,155.3984 193.0962,155.3984 Q194.0337,155.3984 194.6899,155.1484 Q195.0806,154.9922 195.5024,154.5547 Q195.7681,154.2891 195.9087,154.2109 Q196.0649,154.1328 196.2681,154.1328 Q196.5962,154.1328 196.8462,154.3984 Q197.1118,154.6484 197.1118,154.9922 Q197.1118,155.3359 196.7681,155.7422 Q196.2681,156.3203 195.4712,156.6484 Q194.3931,157.1016 193.0962,157.1016 Q191.5806,157.1016 190.3774,156.4766 Q189.3931,155.9766 188.7056,154.9141 Q188.0181,153.8359 188.0181,152.5547 L188.0181,151.3984 Q188.0181,150.0703 188.6274,148.9297 Q189.2524,147.7734 190.3462,147.1641 Q191.4399,146.5391 192.6743,146.5391 Q193.4087,146.5391 194.0493,146.7109 Q194.7056,146.8672 195.2524,147.2266 Z " fill="#000000"/><text fill="#000000" font-family="sans-serif" font-size="12" font-style="italic" lengthAdjust="spacing" textLength="66.0352" x="210.9868" y="147.457">&#171;Decorator&#187;</text><text fill="#000000" font-family="sans-serif" font-size="14" lengthAdjust="spacing" textLength="31.8965" x="228.0562" y="164.627">Whip</text><line style="stroke:#0000FF;stroke-width:0.5;" x1="71" x2="384.5088" y1="172.7031" y2="172.7031"/><text fill="#000000" font-family="sans-serif" font-size="14" lengthAdjust="spacing" textLength="303.5088" x="76" y="191.2363">beverage: headfirst/decorator/starbuzz/Beverage</text><line style="stroke:#0000FF;stroke-width:0.5;" x1="71" x2="384.5088" y1="198.3125" y2="198.3125"/><ellipse cx="81" cy="212.6172" fill="#84BE84" rx="3" ry="3" style="stroke:#038048;stroke-width:1;"/><text fill="#000000" font-family="sans-serif" font-size="14" lengthAdjust="spacing" textLength="278.5713" x="90" y="216.8457">Whip(headfirst/decorator/starbuzz/Beverage)</text><ellipse cx="81" cy="230.2266" fill="#84BE84" rx="3" ry="3" style="stroke:#038048;stroke-width:1;"/><text fill="#000000" font-family="sans-serif" font-size="14" lengthAdjust="spacing" textLength="203.0957" x="90" y="234.4551">getDescription(): java/lang/String</text><ellipse cx="81" cy="247.8359" fill="#84BE84" rx="3" ry="3" style="stroke:#038048;stroke-width:1;"/><text fill="#000000" font-family="sans-serif" font-size="14" lengthAdjust="spacing" textLength="87.1445" x="90" y="252.0645">cost(): Double</text></g><!--link InputTest to InputTest--><g id="link_InputTest_InputTest"><path codeLine="6" d="M2365.21,177.63 C2385.54,179.56 2400,185.18 2400,194.5 C2400,203.82 2391.5131,208.8729 2371.1831,210.8029 " fill="transparent" id="InputTest-to-InputTest" style="stroke:#181818;stroke-width:1;stroke-dasharray:7.0,7.0;"/><polygon fill="#181818" points="2365.21,211.37,2374.5478,214.5015,2370.1876,210.8975,2373.7917,206.5373,2365.21,211.37" style="stroke:#181818;stroke-width:1;"/></g><!--link LowerCaseInputStream to LowerCaseInputStream--><g id="link_LowerCaseInputStream_LowerCaseInputStream"><path codeLine="13" d="M2105.84,178.82 C2126.63,181.42 2140.5,186.65 2140.5,194.5 C2140.5,202.35 2132.5836,206.8354 2111.7936,209.4354 " fill="transparent" id="LowerCaseInputStream-to-LowerCaseInputStream" style="stroke:#181818;stroke-width:1;stroke-dasharray:7.0,7.0;"/><polygon fill="#181818" points="2105.84,210.18,2115.2668,213.0322,2110.8014,209.5595,2114.2741,205.0941,2105.84,210.18" style="stroke:#181818;stroke-width:1;"/></g><!--link Beverage to Beverage--><g id="link_Beverage_Beverage"><path codeLine="21" d="M1076.71,507.47 C1097.19,509.49 1111.5,514.66 1111.5,523 C1111.5,531.34 1103.161,535.9211 1082.681,537.9411 " fill="transparent" id="Beverage-to-Beverage" style="stroke:#181818;stroke-width:1;stroke-dasharray:7.0,7.0;"/><polygon fill="#181818" points="1076.71,538.53,1086.0592,541.6273,1081.6859,538.0392,1085.2739,533.6659,1076.71,538.53" style="stroke:#181818;stroke-width:1;"/></g><!--link CondimentDecorator to Beverage--><g id="link_CondimentDecorator_Beverage"><path codeLine="27" d="M763.81,403.16 C794.6,421.62 816.1335,434.5318 849.7635,454.7018 " fill="transparent" id="CondimentDecorator-to-Beverage" style="stroke:#181818;stroke-width:1;"/><polygon fill="transparent" points="865.2,463.96,852.8496,449.5563,846.6774,459.8473,865.2,463.96" style="stroke:#181818;stroke-width:1;"/><text fill="#000000" font-family="sans-serif" font-size="13" lengthAdjust="spacing" textLength="7.23" x="767.0701" y="424.5803">1</text><text fill="#000000" font-family="sans-serif" font-size="13" lengthAdjust="spacing" textLength="7.23" x="845.9841" y="453.2794">1</text></g><!--link CondimentDecorator to CondimentDecorator--><g id="link_CondimentDecorator_CondimentDecorator"><path codeLine="28" d="M810.71,348.79 C831.19,350.44 845.5,354.68 845.5,361.5 C845.5,368.32 837.1706,372.0782 816.6906,373.7282 " fill="transparent" id="CondimentDecorator-to-CondimentDecorator" style="stroke:#181818;stroke-width:1;stroke-dasharray:7.0,7.0;"/><polygon fill="#181818" points="810.71,374.21,820.0022,377.4743,815.6939,373.8085,819.3597,369.5002,810.71,374.21" style="stroke:#181818;stroke-width:1;"/></g><!--link DarkRoast to Beverage--><g id="link_DarkRoast_Beverage"><path codeLine="34" d="M1614.47,395.75 C1608.68,398.45 1602.79,400.93 1597,403 C1421.39,465.71 1223.9605,495.1774 1094.5605,509.5174 " fill="transparent" id="DarkRoast-to-Beverage" style="stroke:#181818;stroke-width:1;"/><polygon fill="transparent" points="1076.67,511.5,1095.2213,515.4809,1093.8996,503.5539,1076.67,511.5" style="stroke:#181818;stroke-width:1;"/><text fill="#000000" font-family="sans-serif" font-size="13" lengthAdjust="spacing" textLength="7.23" x="1599.4092" y="396.7814">1</text><text fill="#000000" font-family="sans-serif" font-size="13" lengthAdjust="spacing" textLength="7.23" x="1084.6141" y="524.7571">1</text></g><!--link DarkRoast to DarkRoast--><g id="link_DarkRoast_DarkRoast"><path codeLine="35" d="M1727.74,348 C1747.01,347.93 1762.5,352.43 1762.5,361.5 C1762.5,370.57 1753.01,375.0918 1733.74,375.0218 " fill="transparent" id="DarkRoast-to-DarkRoast" style="stroke:#181818;stroke-width:1;stroke-dasharray:7.0,7.0;"/><polygon fill="#181818" points="1727.74,375,1736.7254,379.0327,1732.74,375.0182,1736.7545,371.0327,1727.74,375" style="stroke:#181818;stroke-width:1;"/></g><!--link Decaf to Beverage--><g id="link_Decaf_Beverage"><path codeLine="41" d="M1448.32,395.37 C1442.56,398.15 1436.72,400.75 1431,403 C1313.93,449.03 1190.9878,478.3869 1094.4578,497.7669 " fill="transparent" id="Decaf-to-Beverage" style="stroke:#181818;stroke-width:1;"/><polygon fill="transparent" points="1076.81,501.31,1095.6389,503.6495,1093.2768,491.8843,1076.81,501.31" style="stroke:#181818;stroke-width:1;"/><text fill="#000000" font-family="sans-serif" font-size="13" lengthAdjust="spacing" textLength="7.23" x="1433.2391" y="396.3503">1</text><text fill="#000000" font-family="sans-serif" font-size="13" lengthAdjust="spacing" textLength="7.23" x="1084.7635" y="496.8074">1</text></g><!--link Decaf to Decaf--><g id="link_Decaf_Decaf"><path codeLine="42" d="M1561.74,348 C1581.01,347.93 1596.5,352.43 1596.5,361.5 C1596.5,370.57 1587.01,375.0918 1567.74,375.0218 " fill="transparent" id="Decaf-to-Decaf" style="stroke:#181818;stroke-width:1;stroke-dasharray:7.0,7.0;"/><polygon fill="#181818" points="1561.74,375,1570.7254,379.0327,1566.74,375.0182,1570.7545,371.0327,1561.74,375" style="stroke:#181818;stroke-width:1;"/></g><!--link Espresso to Beverage--><g id="link_Espresso_Beverage"><path codeLine="48" d="M1282.41,394.41 C1276.58,397.42 1270.7,400.33 1265,403 C1203.95,431.55 1150.8801,452.9995 1093.6001,474.5195 " fill="transparent" id="Espresso-to-Beverage" style="stroke:#181818;stroke-width:1;"/><polygon fill="transparent" points="1076.75,480.85,1095.7102,480.1361,1091.4899,468.9028,1076.75,480.85" style="stroke:#181818;stroke-width:1;"/><text fill="#000000" font-family="sans-serif" font-size="13" lengthAdjust="spacing" textLength="7.23" x="1267.3411" y="395.2613">1</text><text fill="#000000" font-family="sans-serif" font-size="13" lengthAdjust="spacing" textLength="7.23" x="1084.6994" y="474.9728">1</text></g><!--link Espresso to Espresso--><g id="link_Espresso_Espresso"><path codeLine="49" d="M1395.74,348 C1415.01,347.93 1430.5,352.43 1430.5,361.5 C1430.5,370.57 1421.01,375.0918 1401.74,375.0218 " fill="transparent" id="Espresso-to-Espresso" style="stroke:#181818;stroke-width:1;stroke-dasharray:7.0,7.0;"/><polygon fill="#181818" points="1395.74,375,1404.7254,379.0327,1400.74,375.0182,1404.7545,371.0327,1395.74,375" style="stroke:#181818;stroke-width:1;"/></g><!--link HouseBlend to Beverage--><g id="link_HouseBlend_Beverage"><path codeLine="55" d="M1119.21,403.16 C1094.79,421.62 1079.8186,432.935 1053.1386,453.105 " fill="transparent" id="HouseBlend-to-Beverage" style="stroke:#181818;stroke-width:1;"/><polygon fill="transparent" points="1038.78,463.96,1056.7569,457.8912,1049.5202,448.3188,1038.78,463.96" style="stroke:#181818;stroke-width:1;"/><text fill="#000000" font-family="sans-serif" font-size="13" lengthAdjust="spacing" textLength="7.23" x="1103.0862" y="424.5803">1</text><text fill="#000000" font-family="sans-serif" font-size="13" lengthAdjust="spacing" textLength="7.23" x="1040.7192" y="453.2794">1</text></g><!--link HouseBlend to HouseBlend--><g id="link_HouseBlend_HouseBlend"><path codeLine="56" d="M1229.74,348 C1249.01,347.93 1264.5,352.43 1264.5,361.5 C1264.5,370.57 1255.01,375.0918 1235.74,375.0218 " fill="transparent" id="HouseBlend-to-HouseBlend" style="stroke:#181818;stroke-width:1;stroke-dasharray:7.0,7.0;"/><polygon fill="#181818" points="1229.74,375,1238.7254,379.0327,1234.74,375.0182,1238.7545,371.0327,1229.74,375" style="stroke:#181818;stroke-width:1;"/></g><!--link Milk to CondimentDecorator--><g id="link_Milk_CondimentDecorator"><path codeLine="64" d="M1191.85,259.1 C1181.18,262.77 1170.49,266.12 1160,269 C1097.69,286.1 1079.74,278.41 1016,289 C944.55,300.88 926.69,304.22 856,320 C841.32,323.28 843.416,322.6392 828.226,326.3492 " fill="transparent" id="Milk-to-CondimentDecorator" style="stroke:#181818;stroke-width:1;"/><polygon fill="transparent" points="810.74,330.62,829.6496,332.1779,826.8024,320.5206,810.74,330.62" style="stroke:#181818;stroke-width:1;"/><text fill="#000000" font-family="sans-serif" font-size="13" lengthAdjust="spacing" textLength="7.23" x="1168.8496" y="280.5473">1</text><text fill="#000000" font-family="sans-serif" font-size="13" lengthAdjust="spacing" textLength="7.23" x="818.6888" y="325.5073">1</text></g><!--link Milk to Beverage--><g id="link_Milk_Beverage"><path codeLine="65" d="M1184.2,259.09 C1113.6,288.98 1044.5,318.47 1043,320 C1004.55,359.29 985.0699,413.3429 974.1799,457.7229 " fill="transparent" id="Milk-to-Beverage" style="stroke:#181818;stroke-width:1;"/><polygon fill="#181818" points="972.75,463.55,978.7796,455.7625,973.9416,458.6941,971.01,453.8561,972.75,463.55" style="stroke:#181818;stroke-width:1;"/><text fill="#000000" font-family="sans-serif" font-size="13" lengthAdjust="spacing" textLength="54.209" x="1044" y="366.9951">beverage</text></g><!--link Milk to Milk--><g id="link_Milk_Milk"><path codeLine="66" d="M1493.26,178.96 C1514.15,181.61 1528,186.79 1528,194.5 C1528,202.21 1520.1023,206.6349 1499.2123,209.2849 " fill="transparent" id="Milk-to-Milk" style="stroke:#181818;stroke-width:1;stroke-dasharray:7.0,7.0;"/><polygon fill="#181818" points="1493.26,210.04,1502.6918,212.8756,1498.2202,209.4108,1501.6851,204.9392,1493.26,210.04" style="stroke:#181818;stroke-width:1;"/></g><!--link Mocha to CondimentDecorator--><g id="link_Mocha_CondimentDecorator"><path codeLine="74" d="M839.27,259.07 C822.11,268.65 804.94,278.77 789,289 C774.43,298.35 773.5669,298.4178 759.8269,308.9678 " fill="transparent" id="Mocha-to-CondimentDecorator" style="stroke:#181818;stroke-width:1;"/><polygon fill="transparent" points="745.55,319.93,763.481,313.7267,756.1728,304.2088,745.55,319.93" style="stroke:#181818;stroke-width:1;"/><text fill="#000000" font-family="sans-serif" font-size="13" lengthAdjust="spacing" textLength="7.23" x="818.0655" y="280.514">1</text><text fill="#000000" font-family="sans-serif" font-size="13" lengthAdjust="spacing" textLength="7.23" x="746.1882" y="309.2261">1</text></g><!--link Mocha to Beverage--><g id="link_Mocha_Beverage"><path codeLine="75" d="M941.35,259.19 C935.05,278.43 929.16,299.81 926,320 C920.29,356.44 920.6,366.51 926,403 C928.99,423.18 932.8745,438.9449 938.8645,458.0449 " fill="transparent" id="Mocha-to-Beverage" style="stroke:#181818;stroke-width:1;"/><polygon fill="#181818" points="940.66,463.77,941.7835,453.9854,939.1638,458.9991,934.1501,456.3794,940.66,463.77" style="stroke:#181818;stroke-width:1;"/><text fill="#000000" font-family="sans-serif" font-size="13" lengthAdjust="spacing" textLength="54.209" x="927" y="366.9951">beverage</text></g><!--link Mocha to Mocha--><g id="link_Mocha_Mocha"><path codeLine="76" d="M1124.26,178.96 C1145.15,181.61 1159,186.79 1159,194.5 C1159,202.21 1151.1023,206.6349 1130.2123,209.2849 " fill="transparent" id="Mocha-to-Mocha" style="stroke:#181818;stroke-width:1;stroke-dasharray:7.0,7.0;"/><polygon fill="#181818" points="1124.26,210.04,1133.6918,212.8756,1129.2202,209.4108,1132.6851,204.9392,1124.26,210.04" style="stroke:#181818;stroke-width:1;"/></g><!--link Soy to CondimentDecorator--><g id="link_Soy_CondimentDecorator"><path codeLine="84" d="M635.28,259.29 C647.46,279.61 651.3503,286.0844 662.2803,304.3044 " fill="transparent" id="Soy-to-CondimentDecorator" style="stroke:#181818;stroke-width:1;"/><polygon fill="transparent" points="671.54,319.74,667.4255,301.2178,657.1351,307.3909,671.54,319.74" style="stroke:#181818;stroke-width:1;"/><text fill="#000000" font-family="sans-serif" font-size="13" lengthAdjust="spacing" textLength="7.23" x="632.1235" y="280.7581">1</text><text fill="#000000" font-family="sans-serif" font-size="13" lengthAdjust="spacing" textLength="7.23" x="659.9202" y="309.0046">1</text></g><!--link Soy to Beverage--><g id="link_Soy_Beverage"><path codeLine="85" d="M448.98,259 C439.89,262.49 430.85,265.85 422,269 C346.49,295.9 297,255.8 249,320 C226.91,349.54 225.16,374.85 249,403 C324.33,491.94 659.7229,514.2728 841.4129,519.9428 " fill="transparent" id="Soy-to-Beverage" style="stroke:#181818;stroke-width:1;"/><polygon fill="#181818" points="847.41,520.13,838.5391,515.8512,842.4124,519.974,838.2896,523.8473,847.41,520.13" style="stroke:#181818;stroke-width:1;"/><text fill="#000000" font-family="sans-serif" font-size="13" lengthAdjust="spacing" textLength="54.209" x="250" y="366.9951">beverage</text></g><!--link Soy to Soy--><g id="link_Soy_Soy"><path codeLine="86" d="M755.26,178.96 C776.15,181.61 790,186.79 790,194.5 C790,202.21 782.1023,206.6349 761.2123,209.2849 " fill="transparent" id="Soy-to-Soy" style="stroke:#181818;stroke-width:1;stroke-dasharray:7.0,7.0;"/><polygon fill="#181818" points="755.26,210.04,764.6918,212.8756,760.2202,209.4108,763.6851,204.9392,755.26,210.04" style="stroke:#181818;stroke-width:1;"/></g><!--link StarbuzzCoffee to StarbuzzCoffee--><g id="link_StarbuzzCoffee_StarbuzzCoffee"><path codeLine="92" d="M528.21,348.58 C548.54,350.06 563,354.36 563,361.5 C563,368.64 554.5242,372.5044 534.1942,373.9844 " fill="transparent" id="StarbuzzCoffee-to-StarbuzzCoffee" style="stroke:#181818;stroke-width:1;stroke-dasharray:7.0,7.0;"/><polygon fill="#181818" points="528.21,374.42,537.4767,377.756,533.1968,374.057,536.8958,369.7771,528.21,374.42" style="stroke:#181818;stroke-width:1;"/></g><!--link StarbuzzCoffee to Beverage--><g id="link_StarbuzzCoffee_Beverage"><path codeLine="93" d="M528.22,393.16 C619.62,420.31 747.0885,458.1612 841.7385,486.2812 " fill="transparent" id="StarbuzzCoffee-to-Beverage" style="stroke:#181818;stroke-width:1;stroke-dasharray:7.0,7.0;"/><polygon fill="#181818" points="847.49,487.99,840.0019,481.5925,842.6971,486.566,837.7235,489.2612,847.49,487.99" style="stroke:#181818;stroke-width:1;"/></g><!--link Whip to CondimentDecorator--><g id="link_Whip_CondimentDecorator"><path codeLine="101" d="M386.09,255.99 C398.22,260.45 410.29,264.83 422,269 C474.09,287.56 515.0368,301.459 564.2468,317.699 " fill="transparent" id="Whip-to-CondimentDecorator" style="stroke:#181818;stroke-width:1;"/><polygon fill="transparent" points="581.34,323.34,566.1271,312.0012,562.3664,323.3967,581.34,323.34" style="stroke:#181818;stroke-width:1;"/><text fill="#000000" font-family="sans-serif" font-size="13" lengthAdjust="spacing" textLength="7.23" x="393.4284" y="255.9137">1</text><text fill="#000000" font-family="sans-serif" font-size="13" lengthAdjust="spacing" textLength="7.23" x="566.4056" y="317.7382">1</text></g><!--link Whip to Beverage--><g id="link_Whip_Beverage"><path codeLine="102" d="M181.84,259.45 C156.16,303.51 135.19,361.38 167,403 C207.81,456.39 631.3289,496.3336 841.4789,513.0736 " fill="transparent" id="Whip-to-Beverage" style="stroke:#181818;stroke-width:1;"/><polygon fill="#181818" points="847.46,513.55,838.806,508.848,842.4758,513.153,838.1708,516.8227,847.46,513.55" style="stroke:#181818;stroke-width:1;"/><text fill="#000000" font-family="sans-serif" font-size="13" lengthAdjust="spacing" textLength="54.209" x="168" y="366.9951">beverage</text></g><!--link Whip to Whip--><g id="link_Whip_Whip"><path codeLine="103" d="M386.26,178.96 C407.15,181.61 421,186.79 421,194.5 C421,202.21 413.1023,206.6349 392.2123,209.2849 " fill="transparent" id="Whip-to-Whip" style="stroke:#181818;stroke-width:1;stroke-dasharray:7.0,7.0;"/><polygon fill="#181818" points="386.26,210.04,395.6918,212.8756,391.2202,209.4108,394.6851,204.9392,386.26,210.04" style="stroke:#181818;stroke-width:1;"/></g><!--SRC=[nPT1Rvim68Rl_0ghkwIY0UrMiIg799rMQRkiqtQeUZ3m9N5BxCWsdTgi- -t3BfXqGEn4e5mIR5w_VC_t6aYI30k1Le3J1U521YaaZ6F9U41OS4CtkVm1GgAjXtmp6frxQ2iabYHvHN_NcD3H0tx2OORfChoLdD3btVrvX7uoadgldjKy22RM2ZmlsLVfL_OR-0mBq0kA6W2lTT5j9zwg9IpScIkG_E8x7HLrtr1PZQRF4kxkBzIK_YZFTaArrh67hqtlUJWMakD4ecxcelqypbzUWYay0STBKBGfY8IJZIICHkZ_I0gaIgi2z9SWvxLUSJTNRAjAYfmJffAFq9pbSGOTBMYMrGNVK1w6FMCq9MkW1KDvJiVTdDQRTGV30Tk2rdBfiuzdQ3p-Cz47RhI7NiBQn-QQVVUCMJR7_F4xm-KzRaPwYnmMUUtKTpjgPsiNZDGD7XAyU0DNHyT0QuVUWRMh7LR9d42lnOQ344opLeCZS8rFtyJ6s0fTAPsulx1Sm3G3cchoUdW4-uvNt_GxrbR-MklKWMyaUqHNL-QXC9cW3vUNdpzbX48KPxb-SSHbbL7j5HgliF8A3GpobUt8IUpwhZam3StbdaFBqz5kFnuxlhjGP5heO6kDMAdSmcN92W-Hhl8zRRoQRC1yjVy00MjVUy9AvXJnBNiU8E32zQJnAghXmbNk_KUhNAt15YAtMCk36LiiG8Velv_guKzMryNi4E_q_NhNF_STklHhHJO3x7vbUzBjhxc6s__QllyRGDjQ0rOgxny0]--></g></svg>