<svg xmlns="http://www.w3.org/2000/svg" xmlns:xlink="http://www.w3.org/1999/xlink" contentStyleType="text/css" data-diagram-type="CLASS" height="642px" preserveAspectRatio="none" style="width:2454px;height:642px;background:#FFFFFF;" version="1.1" viewBox="0 0 2454 642" width="2454px" zoomAndPan="magnify"><defs/><g><!--cluster headfirst--><g id="cluster_headfirst"><path d="M8.5,6 L68.624,6 A3.75,3.75 0 0 1 71.124,8.5 L78.124,29.6094 L2444.5,29.6094 A2.5,2.5 0 0 1 2447,32.1094 L2447,632.5 A2.5,2.5 0 0 1 2444.5,635 L8.5,635 A2.5,2.5 0 0 1 6,632.5 L6,8.5 A2.5,2.5 0 0 1 8.5,6 " fill="transparent" style="stroke:#000000;stroke-width:1.5;"/><line style="stroke:#000000;stroke-width:1.5;" x1="6" x2="78.124" y1="29.6094" y2="29.6094"/><text fill="#000000" font-family="sans-serif" font-size="14" font-weight="bold" lengthAdjust="spacing" textLength="59.124" x="10" y="22.5332">headfirst</text></g><!--cluster decorator--><g id="cluster_decorator"><path d="M32.5,50 L98.0723,50 A3.75,3.75 0 0 1 100.5723,52.5 L107.5723,73.6094 L2420.5,73.6094 A2.5,2.5 0 0 1 2423,76.1094 L2423,608.5 A2.5,2.5 0 0 1 2420.5,611 L32.5,611 A2.5,2.5 0 0 1 30,608.5 L30,52.5 A2.5,2.5 0 0 1 32.5,50 " fill="transparent" style="stroke:#000000;stroke-width:1.5;"/><line style="stroke:#000000;stroke-width:1.5;" x1="30" x2="107.5723" y1="73.6094" y2="73.6094"/><text fill="#000000" font-family="sans-serif" font-size="14" font-weight="bold" lengthAdjust="spacing" textLength="64.5723" x="34" y="66.5332">decorator</text></g><!--cluster io--><g id="cluster_io"><path d="M1788.5,102.5 L1801.9414,102.5 A3.75,3.75 0 0 1 1804.4414,105 L1811.4414,126.1094 L2396.5,126.1094 A2.5,2.5 0 0 1 2399,128.6094 L2399,253 A2.5,2.5 0 0 1 2396.5,255.5 L1788.5,255.5 A2.5,2.5 0 0 1 1786,253 L1786,105 A2.5,2.5 0 0 1 1788.5,102.5 " fill="transparent" style="stroke:#000000;stroke-width:1.5;"/><line style="stroke:#000000;stroke-width:1.5;" x1="1786" x2="1811.4414" y1="126.1094" y2="126.1094"/><text fill="#000000" font-family="sans-serif" font-size="14" font-weight="bold" lengthAdjust="spacing" textLength="12.4414" x="1790" y="119.0332">io</text></g><!--cluster starbuzz--><g id="cluster_starbuzz"><path d="M56.5,94 L114.2861,94 A3.75,3.75 0 0 1 116.7861,96.5 L123.7861,117.6094 L1759.5,117.6094 A2.5,2.5 0 0 1 1762,120.1094 L1762,584.5 A2.5,2.5 0 0 1 1759.5,587 L56.5,587 A2.5,2.5 0 0 1 54,584.5 L54,96.5 A2.5,2.5 0 0 1 56.5,94 " fill="transparent" style="stroke:#000000;stroke-width:1.5;"/><line style="stroke:#000000;stroke-width:1.5;" x1="54" x2="123.7861" y1="117.6094" y2="117.6094"/><text fill="#000000" font-family="sans-serif" font-size="14" font-weight="bold" lengthAdjust="spacing" textLength="56.7861" x="58" y="110.5332">starbuzz</text></g><!--class InputTest--><g id="elem_InputTest"><rect codeLine="2" fill="#F1F1F1" height="83.2188" id="InputTest" rx="2.5" ry="2.5" style="stroke:#181818;stroke-width:0.5;" width="205.751" x="2159" y="147.5"/><ellipse cx="2228.4429" cy="163.5" fill="#ADD1B2" rx="11" ry="11" style="stroke:#181818;stroke-width:1;"/><path d="M2231.2085,159.375 Q2231.3647,159.1563 2231.5522,159.0469 Q2231.7397,158.9375 2231.9585,158.9375 Q2232.3335,158.9375 2232.5679,159.2031 Q2232.8022,159.4531 2232.8022,160.0625 L2232.8022,161.5156 Q2232.8022,162.125 2232.5679,162.3906 Q2232.3335,162.6563 2231.9585,162.6563 Q2231.6147,162.6563 2231.4116,162.4531 Q2231.2085,162.2656 2231.0991,161.75 Q2231.0522,161.3906 2230.8647,161.2031 Q2230.5366,160.8281 2229.9272,160.6094 Q2229.3179,160.3906 2228.6929,160.3906 Q2227.9272,160.3906 2227.2866,160.7188 Q2226.6616,161.0469 2226.1616,161.7969 Q2225.6772,162.5469 2225.6772,163.5781 L2225.6772,164.6719 Q2225.6772,165.9063 2226.5679,166.7344 Q2227.4585,167.5469 2229.0522,167.5469 Q2229.9897,167.5469 2230.646,167.2969 Q2231.0366,167.1406 2231.4585,166.7031 Q2231.7241,166.4375 2231.8647,166.3594 Q2232.021,166.2813 2232.2241,166.2813 Q2232.5522,166.2813 2232.8022,166.5469 Q2233.0679,166.7969 2233.0679,167.1406 Q2233.0679,167.4844 2232.7241,167.8906 Q2232.2241,168.4688 2231.4272,168.7969 Q2230.3491,169.25 2229.0522,169.25 Q2227.5366,169.25 2226.3335,168.625 Q2225.3491,168.125 2224.6616,167.0625 Q2223.9741,165.9844 2223.9741,164.7031 L2223.9741,163.5469 Q2223.9741,162.2188 2224.5835,161.0781 Q2225.2085,159.9219 2226.3022,159.3125 Q2227.396,158.6875 2228.6304,158.6875 Q2229.3647,158.6875 2230.0054,158.8594 Q2230.6616,159.0156 2231.2085,159.375 Z " fill="#000000"/><text fill="#000000" font-family="sans-serif" font-size="14" lengthAdjust="spacing" textLength="58.3652" x="2248.9429" y="169.2285">InputTest</text><line style="stroke:#181818;stroke-width:0.5;" x1="2160" x2="2363.751" y1="179.5" y2="179.5"/><line style="stroke:#181818;stroke-width:0.5;" x1="2160" x2="2363.751" y1="187.5" y2="187.5"/><ellipse cx="2170" cy="201.8047" fill="#84BE84" rx="3" ry="3" style="stroke:#038048;stroke-width:1;"/><text fill="#000000" font-family="sans-serif" font-size="14" lengthAdjust="spacing" textLength="67.6895" x="2179" y="206.0332">InputTest()</text><polygon fill="#4177AF" points="2170,215.4141,2166,221.4141,2174,221.4141" style="stroke:#1963A0;stroke-width:1;"/><text fill="#000000" font-family="sans-serif" font-size="14" lengthAdjust="spacing" text-decoration="underline" textLength="179.751" x="2179" y="223.6426">main(java/lang/String[]): Void</text></g><!--class LowerCaseInputStream--><g id="elem_LowerCaseInputStream"><rect codeLine="8" fill="#F1F1F1" height="100.8281" id="LowerCaseInputStream" rx="2.5" ry="2.5" style="stroke:#181818;stroke-width:0.5;" width="303.0195" x="1802.5" y="138.5"/><ellipse cx="1876.2222" cy="154.5" fill="#ADD1B2" rx="11" ry="11" style="stroke:#181818;stroke-width:1;"/><path d="M1878.9878,150.375 Q1879.144,150.1563 1879.3315,150.0469 Q1879.519,149.9375 1879.7378,149.9375 Q1880.1128,149.9375 1880.3472,150.2031 Q1880.5815,150.4531 1880.5815,151.0625 L1880.5815,152.5156 Q1880.5815,153.125 1880.3472,153.3906 Q1880.1128,153.6563 1879.7378,153.6563 Q1879.394,153.6563 1879.1909,153.4531 Q1878.9878,153.2656 1878.8784,152.75 Q1878.8315,152.3906 1878.644,152.2031 Q1878.3159,151.8281 1877.7065,151.6094 Q1877.0972,151.3906 1876.4722,151.3906 Q1875.7065,151.3906 1875.0659,151.7188 Q1874.4409,152.0469 1873.9409,152.7969 Q1873.4565,153.5469 1873.4565,154.5781 L1873.4565,155.6719 Q1873.4565,156.9063 1874.3472,157.7344 Q1875.2378,158.5469 1876.8315,158.5469 Q1877.769,158.5469 1878.4253,158.2969 Q1878.8159,158.1406 1879.2378,157.7031 Q1879.5034,157.4375 1879.644,157.3594 Q1879.8003,157.2813 1880.0034,157.2813 Q1880.3315,157.2813 1880.5815,157.5469 Q1880.8472,157.7969 1880.8472,158.1406 Q1880.8472,158.4844 1880.5034,158.8906 Q1880.0034,159.4688 1879.2065,159.7969 Q1878.1284,160.25 1876.8315,160.25 Q1875.3159,160.25 1874.1128,159.625 Q1873.1284,159.125 1872.4409,158.0625 Q1871.7534,156.9844 1871.7534,155.7031 L1871.7534,154.5469 Q1871.7534,153.2188 1872.3628,152.0781 Q1872.9878,150.9219 1874.0815,150.3125 Q1875.1753,149.6875 1876.4097,149.6875 Q1877.144,149.6875 1877.7847,149.8594 Q1878.4409,150.0156 1878.9878,150.375 Z " fill="#000000"/><text fill="#000000" font-family="sans-serif" font-size="14" lengthAdjust="spacing" textLength="147.0752" x="1896.7222" y="160.2285">LowerCaseInputStream</text><line style="stroke:#181818;stroke-width:0.5;" x1="1803.5" x2="2104.5195" y1="170.5" y2="170.5"/><line style="stroke:#181818;stroke-width:0.5;" x1="1803.5" x2="2104.5195" y1="178.5" y2="178.5"/><ellipse cx="1813.5" cy="192.8047" fill="#84BE84" rx="3" ry="3" style="stroke:#038048;stroke-width:1;"/><text fill="#000000" font-family="sans-serif" font-size="14" lengthAdjust="spacing" textLength="277.0195" x="1822.5" y="197.0332">LowerCaseInputStream(java/io/InputStream)</text><ellipse cx="1813.5" cy="210.4141" fill="#84BE84" rx="3" ry="3" style="stroke:#038048;stroke-width:1;"/><text fill="#000000" font-family="sans-serif" font-size="14" lengthAdjust="spacing" textLength="60.6895" x="1822.5" y="214.6426">read(): Int</text><ellipse cx="1813.5" cy="228.0234" fill="#84BE84" rx="3" ry="3" style="stroke:#038048;stroke-width:1;"/><text fill="#000000" font-family="sans-serif" font-size="14" lengthAdjust="spacing" textLength="143.1719" x="1822.5" y="232.252">read(Byte[], Int, Int): Int</text></g><!--class Beverage--><g id="elem_Beverage"><rect codeLine="15" fill="#F1F1F1" height="118.4375" id="Beverage" rx="2.5" ry="2.5" style="stroke:#181818;stroke-width:0.5;" width="229.0957" x="847.5" y="453"/><ellipse cx="927.8325" cy="469" fill="#A9DCDF" rx="11" ry="11" style="stroke:#181818;stroke-width:1;"/><path d="M930.02,470.7656 L925.8794,470.7656 L925.4575,471.7969 L925.8794,471.7969 Q926.4888,471.7969 926.7544,472.0313 Q927.02,472.2656 927.02,472.6563 Q927.02,473.0313 926.7544,473.2656 Q926.4888,473.5 925.8794,473.5 L923.5825,473.5 Q922.9731,473.5 922.7231,473.2656 Q922.4575,473.0313 922.4575,472.6406 Q922.4575,472.2656 922.7388,472.0313 Q923.0044,471.7813 923.6294,471.7969 L926.3013,465.1406 L925.1919,465.1406 Q924.5825,465.1406 924.3169,464.9063 Q924.0513,464.6719 924.0513,464.2813 Q924.0513,463.9063 924.3169,463.6719 Q924.5825,463.4375 925.1919,463.4375 L928.8638,463.4375 L932.2544,471.7969 Q932.8481,471.7969 933.0356,471.9375 Q933.4263,472.2031 933.4263,472.6563 Q933.4263,473.0313 933.1606,473.2656 Q932.9106,473.5 932.3013,473.5 L930.0044,473.5 Q929.395,473.5 929.1294,473.2656 Q928.8638,473.0313 928.8638,472.6406 Q928.8638,472.2656 929.1294,472.0313 Q929.395,471.7969 930.0044,471.7969 L930.4263,471.7969 L930.02,470.7656 Z M929.3013,469.0625 L927.9419,465.6875 L926.5669,469.0625 L929.3013,469.0625 Z " fill="#000000"/><text fill="#000000" font-family="sans-serif" font-size="14" font-style="italic" lengthAdjust="spacing" textLength="59.9307" x="948.3325" y="474.7285">Beverage</text><line style="stroke:#181818;stroke-width:0.5;" x1="848.5" x2="1075.5957" y1="485" y2="485"/><text fill="#000000" font-family="sans-serif" font-size="14" lengthAdjust="spacing" textLength="171.9854" x="853.5" y="503.5332">description: java/lang/String</text><line style="stroke:#181818;stroke-width:0.5;" x1="848.5" x2="1075.5957" y1="510.6094" y2="510.6094"/><ellipse cx="858.5" cy="524.9141" fill="#84BE84" rx="3" ry="3" style="stroke:#038048;stroke-width:1;"/><text fill="#000000" font-family="sans-serif" font-size="14" lengthAdjust="spacing" textLength="69.2549" x="867.5" y="529.1426">Beverage()</text><ellipse cx="858.5" cy="542.5234" fill="#84BE84" rx="3" ry="3" style="stroke:#038048;stroke-width:1;"/><text fill="#000000" font-family="sans-serif" font-size="14" lengthAdjust="spacing" textLength="203.0957" x="867.5" y="546.752">getDescription(): java/lang/String</text><polygon fill="#4177AF" points="858.5,556.1328,854.5,562.1328,862.5,562.1328" style="stroke:#1963A0;stroke-width:1;"/><text fill="#000000" font-family="sans-serif" font-size="14" font-style="italic" lengthAdjust="spacing" textLength="87.1445" x="867.5" y="564.3613">cost(): Double</text></g><!--class CondimentDecorator--><g id="elem_CondimentDecorator"><rect codeLine="23" fill="#F1F1F1" height="83.2188" id="CondimentDecorator" rx="2.5" ry="2.5" style="stroke:#181818;stroke-width:0.5;" width="229.0957" x="581.5" y="309"/><ellipse cx="627.2119" cy="325" fill="#A9DCDF" rx="11" ry="11" style="stroke:#181818;stroke-width:1;"/><path d="M629.3994,326.7656 L625.2588,326.7656 L624.8369,327.7969 L625.2588,327.7969 Q625.8682,327.7969 626.1338,328.0313 Q626.3994,328.2656 626.3994,328.6563 Q626.3994,329.0313 626.1338,329.2656 Q625.8682,329.5 625.2588,329.5 L622.9619,329.5 Q622.3525,329.5 622.1025,329.2656 Q621.8369,329.0313 621.8369,328.6406 Q621.8369,328.2656 622.1182,328.0313 Q622.3838,327.7813 623.0088,327.7969 L625.6807,321.1406 L624.5713,321.1406 Q623.9619,321.1406 623.6963,320.9063 Q623.4307,320.6719 623.4307,320.2813 Q623.4307,319.9063 623.6963,319.6719 Q623.9619,319.4375 624.5713,319.4375 L628.2432,319.4375 L631.6338,327.7969 Q632.2275,327.7969 632.415,327.9375 Q632.8057,328.2031 632.8057,328.6563 Q632.8057,329.0313 632.54,329.2656 Q632.29,329.5 631.6807,329.5 L629.3838,329.5 Q628.7744,329.5 628.5088,329.2656 Q628.2432,329.0313 628.2432,328.6406 Q628.2432,328.2656 628.5088,328.0313 Q628.7744,327.7969 629.3838,327.7969 L629.8057,327.7969 L629.3994,326.7656 Z M628.6807,325.0625 L627.3213,321.6875 L625.9463,325.0625 L628.6807,325.0625 Z " fill="#000000"/><text fill="#000000" font-family="sans-serif" font-size="14" font-style="italic" lengthAdjust="spacing" textLength="129.1719" x="647.7119" y="330.7285">CondimentDecorator</text><line style="stroke:#181818;stroke-width:0.5;" x1="582.5" x2="809.5957" y1="341" y2="341"/><line style="stroke:#181818;stroke-width:0.5;" x1="582.5" x2="809.5957" y1="349" y2="349"/><ellipse cx="592.5" cy="363.3047" fill="#84BE84" rx="3" ry="3" style="stroke:#038048;stroke-width:1;"/><text fill="#000000" font-family="sans-serif" font-size="14" lengthAdjust="spacing" textLength="138.4961" x="601.5" y="367.5332">CondimentDecorator()</text><polygon fill="#4177AF" points="592.5,376.9141,588.5,382.9141,596.5,382.9141" style="stroke:#1963A0;stroke-width:1;"/><text fill="#000000" font-family="sans-serif" font-size="14" font-style="italic" lengthAdjust="spacing" textLength="203.0957" x="601.5" y="385.1426">getDescription(): java/lang/String</text></g><!--class DarkRoast--><g id="elem_DarkRoast"><rect codeLine="30" fill="#F1F1F1" height="83.2188" id="DarkRoast" rx="2.5" ry="2.5" style="stroke:#181818;stroke-width:0.5;" width="113.1445" x="1614.5" y="309"/><ellipse cx="1636.2562" cy="325" fill="#ADD1B2" rx="11" ry="11" style="stroke:#181818;stroke-width:1;"/><path d="M1639.0218,320.875 Q1639.178,320.6563 1639.3655,320.5469 Q1639.553,320.4375 1639.7718,320.4375 Q1640.1468,320.4375 1640.3812,320.7031 Q1640.6155,320.9531 1640.6155,321.5625 L1640.6155,323.0156 Q1640.6155,323.625 1640.3812,323.8906 Q1640.1468,324.1563 1639.7718,324.1563 Q1639.428,324.1563 1639.2249,323.9531 Q1639.0218,323.7656 1638.9124,323.25 Q1638.8655,322.8906 1638.678,322.7031 Q1638.3499,322.3281 1637.7405,322.1094 Q1637.1312,321.8906 1636.5062,321.8906 Q1635.7405,321.8906 1635.0999,322.2188 Q1634.4749,322.5469 1633.9749,323.2969 Q1633.4905,324.0469 1633.4905,325.0781 L1633.4905,326.1719 Q1633.4905,327.4063 1634.3812,328.2344 Q1635.2718,329.0469 1636.8655,329.0469 Q1637.803,329.0469 1638.4593,328.7969 Q1638.8499,328.6406 1639.2718,328.2031 Q1639.5374,327.9375 1639.678,327.8594 Q1639.8343,327.7813 1640.0374,327.7813 Q1640.3655,327.7813 1640.6155,328.0469 Q1640.8812,328.2969 1640.8812,328.6406 Q1640.8812,328.9844 1640.5374,329.3906 Q1640.0374,329.9688 1639.2405,330.2969 Q1638.1624,330.75 1636.8655,330.75 Q1635.3499,330.75 1634.1468,330.125 Q1633.1624,329.625 1632.4749,328.5625 Q1631.7874,327.4844 1631.7874,326.2031 L1631.7874,325.0469 Q1631.7874,323.7188 1632.3968,322.5781 Q1633.0218,321.4219 1634.1155,320.8125 Q1635.2093,320.1875 1636.4437,320.1875 Q1637.178,320.1875 1637.8187,320.3594 Q1638.4749,320.5156 1639.0218,320.875 Z " fill="#000000"/><text fill="#000000" font-family="sans-serif" font-size="14" lengthAdjust="spacing" textLength="66.1309" x="1651.7575" y="330.7285">DarkRoast</text><line style="stroke:#181818;stroke-width:0.5;" x1="1615.5" x2="1726.6445" y1="341" y2="341"/><line style="stroke:#181818;stroke-width:0.5;" x1="1615.5" x2="1726.6445" y1="349" y2="349"/><ellipse cx="1625.5" cy="363.3047" fill="#84BE84" rx="3" ry="3" style="stroke:#038048;stroke-width:1;"/><text fill="#000000" font-family="sans-serif" font-size="14" lengthAdjust="spacing" textLength="75.4551" x="1634.5" y="367.5332">DarkRoast()</text><ellipse cx="1625.5" cy="380.9141" fill="#84BE84" rx="3" ry="3" style="stroke:#038048;stroke-width:1;"/><text fill="#000000" font-family="sans-serif" font-size="14" lengthAdjust="spacing" textLength="87.1445" x="1634.5" y="385.1426">cost(): Double</text></g><!--class Decaf--><g id="elem_Decaf"><rect codeLine="37" fill="#F1F1F1" height="83.2188" id="Decaf" rx="2.5" ry="2.5" style="stroke:#181818;stroke-width:0.5;" width="113.1445" x="1448.5" y="309"/><ellipse cx="1483.5575" cy="325" fill="#ADD1B2" rx="11" ry="11" style="stroke:#181818;stroke-width:1;"/><path d="M1486.3231,320.875 Q1486.4794,320.6563 1486.6669,320.5469 Q1486.8544,320.4375 1487.0731,320.4375 Q1487.4481,320.4375 1487.6825,320.7031 Q1487.9169,320.9531 1487.9169,321.5625 L1487.9169,323.0156 Q1487.9169,323.625 1487.6825,323.8906 Q1487.4481,324.1563 1487.0731,324.1563 Q1486.7294,324.1563 1486.5263,323.9531 Q1486.3231,323.7656 1486.2138,323.25 Q1486.1669,322.8906 1485.9794,322.7031 Q1485.6513,322.3281 1485.0419,322.1094 Q1484.4325,321.8906 1483.8075,321.8906 Q1483.0419,321.8906 1482.4013,322.2188 Q1481.7763,322.5469 1481.2763,323.2969 Q1480.7919,324.0469 1480.7919,325.0781 L1480.7919,326.1719 Q1480.7919,327.4063 1481.6825,328.2344 Q1482.5731,329.0469 1484.1669,329.0469 Q1485.1044,329.0469 1485.7606,328.7969 Q1486.1513,328.6406 1486.5731,328.2031 Q1486.8388,327.9375 1486.9794,327.8594 Q1487.1356,327.7813 1487.3388,327.7813 Q1487.6669,327.7813 1487.9169,328.0469 Q1488.1825,328.2969 1488.1825,328.6406 Q1488.1825,328.9844 1487.8388,329.3906 Q1487.3388,329.9688 1486.5419,330.2969 Q1485.4638,330.75 1484.1669,330.75 Q1482.6513,330.75 1481.4481,330.125 Q1480.4638,329.625 1479.7763,328.5625 Q1479.0888,327.4844 1479.0888,326.2031 L1479.0888,325.0469 Q1479.0888,323.7188 1479.6981,322.5781 Q1480.3231,321.4219 1481.4169,320.8125 Q1482.5106,320.1875 1483.745,320.1875 Q1484.4794,320.1875 1485.12,320.3594 Q1485.7763,320.5156 1486.3231,320.875 Z " fill="#000000"/><text fill="#000000" font-family="sans-serif" font-size="14" lengthAdjust="spacing" textLength="36.5723" x="1502.0147" y="330.7285">Decaf</text><line style="stroke:#181818;stroke-width:0.5;" x1="1449.5" x2="1560.6445" y1="341" y2="341"/><line style="stroke:#181818;stroke-width:0.5;" x1="1449.5" x2="1560.6445" y1="349" y2="349"/><ellipse cx="1459.5" cy="363.3047" fill="#84BE84" rx="3" ry="3" style="stroke:#038048;stroke-width:1;"/><text fill="#000000" font-family="sans-serif" font-size="14" lengthAdjust="spacing" textLength="45.8965" x="1468.5" y="367.5332">Decaf()</text><ellipse cx="1459.5" cy="380.9141" fill="#84BE84" rx="3" ry="3" style="stroke:#038048;stroke-width:1;"/><text fill="#000000" font-family="sans-serif" font-size="14" lengthAdjust="spacing" textLength="87.1445" x="1468.5" y="385.1426">cost(): Double</text></g><!--class Espresso--><g id="elem_Espresso"><rect codeLine="44" fill="#F1F1F1" height="83.2188" id="Espresso" rx="2.5" ry="2.5" style="stroke:#181818;stroke-width:0.5;" width="113.1445" x="1282.5" y="309"/><ellipse cx="1307.7538" cy="325" fill="#ADD1B2" rx="11" ry="11" style="stroke:#181818;stroke-width:1;"/><path d="M1310.5194,320.875 Q1310.6756,320.6563 1310.8631,320.5469 Q1311.0506,320.4375 1311.2694,320.4375 Q1311.6444,320.4375 1311.8788,320.7031 Q1312.1131,320.9531 1312.1131,321.5625 L1312.1131,323.0156 Q1312.1131,323.625 1311.8788,323.8906 Q1311.6444,324.1563 1311.2694,324.1563 Q1310.9256,324.1563 1310.7225,323.9531 Q1310.5194,323.7656 1310.41,323.25 Q1310.3631,322.8906 1310.1756,322.7031 Q1309.8475,322.3281 1309.2381,322.1094 Q1308.6288,321.8906 1308.0038,321.8906 Q1307.2381,321.8906 1306.5975,322.2188 Q1305.9725,322.5469 1305.4725,323.2969 Q1304.9881,324.0469 1304.9881,325.0781 L1304.9881,326.1719 Q1304.9881,327.4063 1305.8788,328.2344 Q1306.7694,329.0469 1308.3631,329.0469 Q1309.3006,329.0469 1309.9569,328.7969 Q1310.3475,328.6406 1310.7694,328.2031 Q1311.035,327.9375 1311.1756,327.8594 Q1311.3319,327.7813 1311.535,327.7813 Q1311.8631,327.7813 1312.1131,328.0469 Q1312.3788,328.2969 1312.3788,328.6406 Q1312.3788,328.9844 1312.035,329.3906 Q1311.535,329.9688 1310.7381,330.2969 Q1309.66,330.75 1308.3631,330.75 Q1306.8475,330.75 1305.6444,330.125 Q1304.66,329.625 1303.9725,328.5625 Q1303.285,327.4844 1303.285,326.2031 L1303.285,325.0469 Q1303.285,323.7188 1303.8944,322.5781 Q1304.5194,321.4219 1305.6131,320.8125 Q1306.7069,320.1875 1307.9413,320.1875 Q1308.6756,320.1875 1309.3163,320.3594 Q1309.9725,320.5156 1310.5194,320.875 Z " fill="#000000"/><text fill="#000000" font-family="sans-serif" font-size="14" lengthAdjust="spacing" textLength="58.3584" x="1324.0324" y="330.7285">Espresso</text><line style="stroke:#181818;stroke-width:0.5;" x1="1283.5" x2="1394.6445" y1="341" y2="341"/><line style="stroke:#181818;stroke-width:0.5;" x1="1283.5" x2="1394.6445" y1="349" y2="349"/><ellipse cx="1293.5" cy="363.3047" fill="#84BE84" rx="3" ry="3" style="stroke:#038048;stroke-width:1;"/><text fill="#000000" font-family="sans-serif" font-size="14" lengthAdjust="spacing" textLength="67.6826" x="1302.5" y="367.5332">Espresso()</text><ellipse cx="1293.5" cy="380.9141" fill="#84BE84" rx="3" ry="3" style="stroke:#038048;stroke-width:1;"/><text fill="#000000" font-family="sans-serif" font-size="14" lengthAdjust="spacing" textLength="87.1445" x="1302.5" y="385.1426">cost(): Double</text></g><!--class HouseBlend--><g id="elem_HouseBlend"><rect codeLine="51" fill="#F1F1F1" height="83.2188" id="HouseBlend" rx="2.5" ry="2.5" style="stroke:#181818;stroke-width:0.5;" width="113.1445" x="1116.5" y="309"/><ellipse cx="1133.6911" cy="325" fill="#ADD1B2" rx="11" ry="11" style="stroke:#181818;stroke-width:1;"/><path d="M1136.4567,320.875 Q1136.613,320.6563 1136.8005,320.5469 Q1136.988,320.4375 1137.2067,320.4375 Q1137.5817,320.4375 1137.8161,320.7031 Q1138.0505,320.9531 1138.0505,321.5625 L1138.0505,323.0156 Q1138.0505,323.625 1137.8161,323.8906 Q1137.5817,324.1563 1137.2067,324.1563 Q1136.863,324.1563 1136.6599,323.9531 Q1136.4567,323.7656 1136.3474,323.25 Q1136.3005,322.8906 1136.113,322.7031 Q1135.7849,322.3281 1135.1755,322.1094 Q1134.5661,321.8906 1133.9411,321.8906 Q1133.1755,321.8906 1132.5349,322.2188 Q1131.9099,322.5469 1131.4099,323.2969 Q1130.9255,324.0469 1130.9255,325.0781 L1130.9255,326.1719 Q1130.9255,327.4063 1131.8161,328.2344 Q1132.7067,329.0469 1134.3005,329.0469 Q1135.238,329.0469 1135.8942,328.7969 Q1136.2849,328.6406 1136.7067,328.2031 Q1136.9724,327.9375 1137.113,327.8594 Q1137.2692,327.7813 1137.4724,327.7813 Q1137.8005,327.7813 1138.0505,328.0469 Q1138.3161,328.2969 1138.3161,328.6406 Q1138.3161,328.9844 1137.9724,329.3906 Q1137.4724,329.9688 1136.6755,330.2969 Q1135.5974,330.75 1134.3005,330.75 Q1132.7849,330.75 1131.5817,330.125 Q1130.5974,329.625 1129.9099,328.5625 Q1129.2224,327.4844 1129.2224,326.2031 L1129.2224,325.0469 Q1129.2224,323.7188 1129.8317,322.5781 Q1130.4567,321.4219 1131.5505,320.8125 Q1132.6442,320.1875 1133.8786,320.1875 Q1134.613,320.1875 1135.2536,320.3594 Q1135.9099,320.5156 1136.4567,320.875 Z " fill="#000000"/><text fill="#000000" font-family="sans-serif" font-size="14" lengthAdjust="spacing" textLength="76.2754" x="1148.178" y="330.7285">HouseBlend</text><line style="stroke:#181818;stroke-width:0.5;" x1="1117.5" x2="1228.6445" y1="341" y2="341"/><line style="stroke:#181818;stroke-width:0.5;" x1="1117.5" x2="1228.6445" y1="349" y2="349"/><ellipse cx="1127.5" cy="363.3047" fill="#84BE84" rx="3" ry="3" style="stroke:#038048;stroke-width:1;"/><text fill="#000000" font-family="sans-serif" font-size="14" lengthAdjust="spacing" textLength="85.5996" x="1136.5" y="367.5332">HouseBlend()</text><ellipse cx="1127.5" cy="380.9141" fill="#84BE84" rx="3" ry="3" style="stroke:#038048;stroke-width:1;"/><text fill="#000000" font-family="sans-serif" font-size="14" lengthAdjust="spacing" textLength="87.1445" x="1136.5" y="385.1426">cost(): Double</text></g><!--class Milk--><g id="elem_Milk"><rect codeLine="58" fill="#F1F1F1" height="118.4375" id="Milk" rx="2.5" ry="2.5" style="stroke:#181818;stroke-width:0.5;" width="315.5088" x="1177" y="130"/><ellipse cx="1318.063" cy="146" fill="#ADD1B2" rx="11" ry="11" style="stroke:#181818;stroke-width:1;"/><path d="M1320.8286,141.875 Q1320.9849,141.6563 1321.1724,141.5469 Q1321.3599,141.4375 1321.5786,141.4375 Q1321.9536,141.4375 1322.188,141.7031 Q1322.4224,141.9531 1322.4224,142.5625 L1322.4224,144.0156 Q1322.4224,144.625 1322.188,144.8906 Q1321.9536,145.1563 1321.5786,145.1563 Q1321.2349,145.1563 1321.0317,144.9531 Q1320.8286,144.7656 1320.7192,144.25 Q1320.6724,143.8906 1320.4849,143.7031 Q1320.1567,143.3281 1319.5474,143.1094 Q1318.938,142.8906 1318.313,142.8906 Q1317.5474,142.8906 1316.9067,143.2188 Q1316.2817,143.5469 1315.7817,144.2969 Q1315.2974,145.0469 1315.2974,146.0781 L1315.2974,147.1719 Q1315.2974,148.4063 1316.188,149.2344 Q1317.0786,150.0469 1318.6724,150.0469 Q1319.6099,150.0469 1320.2661,149.7969 Q1320.6567,149.6406 1321.0786,149.2031 Q1321.3442,148.9375 1321.4849,148.8594 Q1321.6411,148.7813 1321.8442,148.7813 Q1322.1724,148.7813 1322.4224,149.0469 Q1322.688,149.2969 1322.688,149.6406 Q1322.688,149.9844 1322.3442,150.3906 Q1321.8442,150.9688 1321.0474,151.2969 Q1319.9692,151.75 1318.6724,151.75 Q1317.1567,151.75 1315.9536,151.125 Q1314.9692,150.625 1314.2817,149.5625 Q1313.5942,148.4844 1313.5942,147.2031 L1313.5942,146.0469 Q1313.5942,144.7188 1314.2036,143.5781 Q1314.8286,142.4219 1315.9224,141.8125 Q1317.0161,141.1875 1318.2505,141.1875 Q1318.9849,141.1875 1319.6255,141.3594 Q1320.2817,141.5156 1320.8286,141.875 Z " fill="#000000"/><text fill="#000000" font-family="sans-serif" font-size="14" lengthAdjust="spacing" textLength="24.8828" x="1338.563" y="151.7285">Milk</text><line style="stroke:#181818;stroke-width:0.5;" x1="1178" x2="1491.5088" y1="162" y2="162"/><text fill="#000000" font-family="sans-serif" font-size="14" lengthAdjust="spacing" textLength="303.5088" x="1183" y="180.5332">beverage: headfirst/decorator/starbuzz/Beverage</text><line style="stroke:#181818;stroke-width:0.5;" x1="1178" x2="1491.5088" y1="187.6094" y2="187.6094"/><ellipse cx="1188" cy="201.9141" fill="#84BE84" rx="3" ry="3" style="stroke:#038048;stroke-width:1;"/><text fill="#000000" font-family="sans-serif" font-size="14" lengthAdjust="spacing" textLength="271.5576" x="1197" y="206.1426">Milk(headfirst/decorator/starbuzz/Beverage)</text><ellipse cx="1188" cy="219.5234" fill="#84BE84" rx="3" ry="3" style="stroke:#038048;stroke-width:1;"/><text fill="#000000" font-family="sans-serif" font-size="14" lengthAdjust="spacing" textLength="203.0957" x="1197" y="223.752">getDescription(): java/lang/String</text><ellipse cx="1188" cy="237.1328" fill="#84BE84" rx="3" ry="3" style="stroke:#038048;stroke-width:1;"/><text fill="#000000" font-family="sans-serif" font-size="14" lengthAdjust="spacing" textLength="87.1445" x="1197" y="241.3613">cost(): Double</text></g><!--class Mocha--><g id="elem_Mocha"><rect codeLine="68" fill="#F1F1F1" height="118.4375" id="Mocha" rx="2.5" ry="2.5" style="stroke:#181818;stroke-width:0.5;" width="315.5088" x="808" y="130"/><ellipse cx="940.4941" cy="146" fill="#ADD1B2" rx="11" ry="11" style="stroke:#181818;stroke-width:1;"/><path d="M943.2598,141.875 Q943.416,141.6563 943.6035,141.5469 Q943.791,141.4375 944.0098,141.4375 Q944.3848,141.4375 944.6191,141.7031 Q944.8535,141.9531 944.8535,142.5625 L944.8535,144.0156 Q944.8535,144.625 944.6191,144.8906 Q944.3848,145.1563 944.0098,145.1563 Q943.666,145.1563 943.4629,144.9531 Q943.2598,144.7656 943.1504,144.25 Q943.1035,143.8906 942.916,143.7031 Q942.5879,143.3281 941.9785,143.1094 Q941.3691,142.8906 940.7441,142.8906 Q939.9785,142.8906 939.3379,143.2188 Q938.7129,143.5469 938.2129,144.2969 Q937.7285,145.0469 937.7285,146.0781 L937.7285,147.1719 Q937.7285,148.4063 938.6191,149.2344 Q939.5098,150.0469 941.1035,150.0469 Q942.041,150.0469 942.6973,149.7969 Q943.0879,149.6406 943.5098,149.2031 Q943.7754,148.9375 943.916,148.8594 Q944.0723,148.7813 944.2754,148.7813 Q944.6035,148.7813 944.8535,149.0469 Q945.1191,149.2969 945.1191,149.6406 Q945.1191,149.9844 944.7754,150.3906 Q944.2754,150.9688 943.4785,151.2969 Q942.4004,151.75 941.1035,151.75 Q939.5879,151.75 938.3848,151.125 Q937.4004,150.625 936.7129,149.5625 Q936.0254,148.4844 936.0254,147.2031 L936.0254,146.0469 Q936.0254,144.7188 936.6348,143.5781 Q937.2598,142.4219 938.3535,141.8125 Q939.4473,141.1875 940.6816,141.1875 Q941.416,141.1875 942.0566,141.3594 Q942.7129,141.5156 943.2598,141.875 Z " fill="#000000"/><text fill="#000000" font-family="sans-serif" font-size="14" lengthAdjust="spacing" textLength="42.0205" x="960.9941" y="151.7285">Mocha</text><line style="stroke:#181818;stroke-width:0.5;" x1="809" x2="1122.5088" y1="162" y2="162"/><text fill="#000000" font-family="sans-serif" font-size="14" lengthAdjust="spacing" textLength="303.5088" x="814" y="180.5332">beverage: headfirst/decorator/starbuzz/Beverage</text><line style="stroke:#181818;stroke-width:0.5;" x1="809" x2="1122.5088" y1="187.6094" y2="187.6094"/><ellipse cx="819" cy="201.9141" fill="#84BE84" rx="3" ry="3" style="stroke:#038048;stroke-width:1;"/><text fill="#000000" font-family="sans-serif" font-size="14" lengthAdjust="spacing" textLength="288.6953" x="828" y="206.1426">Mocha(headfirst/decorator/starbuzz/Beverage)</text><ellipse cx="819" cy="219.5234" fill="#84BE84" rx="3" ry="3" style="stroke:#038048;stroke-width:1;"/><text fill="#000000" font-family="sans-serif" font-size="14" lengthAdjust="spacing" textLength="203.0957" x="828" y="223.752">getDescription(): java/lang/String</text><ellipse cx="819" cy="237.1328" fill="#84BE84" rx="3" ry="3" style="stroke:#038048;stroke-width:1;"/><text fill="#000000" font-family="sans-serif" font-size="14" lengthAdjust="spacing" textLength="87.1445" x="828" y="241.3613">cost(): Double</text></g><!--class Soy--><g id="elem_Soy"><rect codeLine="78" fill="#F1F1F1" height="118.4375" id="Soy" rx="2.5" ry="2.5" style="stroke:#181818;stroke-width:0.5;" width="315.5088" x="439" y="130"/><ellipse cx="580.4424" cy="146" fill="#ADD1B2" rx="11" ry="11" style="stroke:#181818;stroke-width:1;"/><path d="M583.208,141.875 Q583.3643,141.6563 583.5518,141.5469 Q583.7393,141.4375 583.958,141.4375 Q584.333,141.4375 584.5674,141.7031 Q584.8018,141.9531 584.8018,142.5625 L584.8018,144.0156 Q584.8018,144.625 584.5674,144.8906 Q584.333,145.1563 583.958,145.1563 Q583.6143,145.1563 583.4111,144.9531 Q583.208,144.7656 583.0986,144.25 Q583.0518,143.8906 582.8643,143.7031 Q582.5361,143.3281 581.9268,143.1094 Q581.3174,142.8906 580.6924,142.8906 Q579.9268,142.8906 579.2861,143.2188 Q578.6611,143.5469 578.1611,144.2969 Q577.6768,145.0469 577.6768,146.0781 L577.6768,147.1719 Q577.6768,148.4063 578.5674,149.2344 Q579.458,150.0469 581.0518,150.0469 Q581.9893,150.0469 582.6455,149.7969 Q583.0361,149.6406 583.458,149.2031 Q583.7236,148.9375 583.8643,148.8594 Q584.0205,148.7813 584.2236,148.7813 Q584.5518,148.7813 584.8018,149.0469 Q585.0674,149.2969 585.0674,149.6406 Q585.0674,149.9844 584.7236,150.3906 Q584.2236,150.9688 583.4268,151.2969 Q582.3486,151.75 581.0518,151.75 Q579.5361,151.75 578.333,151.125 Q577.3486,150.625 576.6611,149.5625 Q575.9736,148.4844 575.9736,147.2031 L575.9736,146.0469 Q575.9736,144.7188 576.583,143.5781 Q577.208,142.4219 578.3018,141.8125 Q579.3955,141.1875 580.6299,141.1875 Q581.3643,141.1875 582.0049,141.3594 Q582.6611,141.5156 583.208,141.875 Z " fill="#000000"/><text fill="#000000" font-family="sans-serif" font-size="14" lengthAdjust="spacing" textLength="24.124" x="600.9424" y="151.7285">Soy</text><line style="stroke:#181818;stroke-width:0.5;" x1="440" x2="753.5088" y1="162" y2="162"/><text fill="#000000" font-family="sans-serif" font-size="14" lengthAdjust="spacing" textLength="303.5088" x="445" y="180.5332">beverage: headfirst/decorator/starbuzz/Beverage</text><line style="stroke:#181818;stroke-width:0.5;" x1="440" x2="753.5088" y1="187.6094" y2="187.6094"/><ellipse cx="450" cy="201.9141" fill="#84BE84" rx="3" ry="3" style="stroke:#038048;stroke-width:1;"/><text fill="#000000" font-family="sans-serif" font-size="14" lengthAdjust="spacing" textLength="270.7988" x="459" y="206.1426">Soy(headfirst/decorator/starbuzz/Beverage)</text><ellipse cx="450" cy="219.5234" fill="#84BE84" rx="3" ry="3" style="stroke:#038048;stroke-width:1;"/><text fill="#000000" font-family="sans-serif" font-size="14" lengthAdjust="spacing" textLength="203.0957" x="459" y="223.752">getDescription(): java/lang/String</text><ellipse cx="450" cy="237.1328" fill="#84BE84" rx="3" ry="3" style="stroke:#038048;stroke-width:1;"/><text fill="#000000" font-family="sans-serif" font-size="14" lengthAdjust="spacing" textLength="87.1445" x="459" y="241.3613">cost(): Double</text></g><!--class StarbuzzCoffee--><g id="elem_StarbuzzCoffee"><rect codeLine="88" fill="#F1F1F1" height="83.2188" id="StarbuzzCoffee" rx="2.5" ry="2.5" style="stroke:#181818;stroke-width:0.5;" width="205.751" x="322" y="309"/><ellipse cx="372.3774" cy="325" fill="#ADD1B2" rx="11" ry="11" style="stroke:#181818;stroke-width:1;"/><path d="M375.1431,320.875 Q375.2993,320.6563 375.4868,320.5469 Q375.6743,320.4375 375.8931,320.4375 Q376.2681,320.4375 376.5024,320.7031 Q376.7368,320.9531 376.7368,321.5625 L376.7368,323.0156 Q376.7368,323.625 376.5024,323.8906 Q376.2681,324.1563 375.8931,324.1563 Q375.5493,324.1563 375.3462,323.9531 Q375.1431,323.7656 375.0337,323.25 Q374.9868,322.8906 374.7993,322.7031 Q374.4712,322.3281 373.8618,322.1094 Q373.2524,321.8906 372.6274,321.8906 Q371.8618,321.8906 371.2212,322.2188 Q370.5962,322.5469 370.0962,323.2969 Q369.6118,324.0469 369.6118,325.0781 L369.6118,326.1719 Q369.6118,327.4063 370.5024,328.2344 Q371.3931,329.0469 372.9868,329.0469 Q373.9243,329.0469 374.5806,328.7969 Q374.9712,328.6406 375.3931,328.2031 Q375.6587,327.9375 375.7993,327.8594 Q375.9556,327.7813 376.1587,327.7813 Q376.4868,327.7813 376.7368,328.0469 Q377.0024,328.2969 377.0024,328.6406 Q377.0024,328.9844 376.6587,329.3906 Q376.1587,329.9688 375.3618,330.2969 Q374.2837,330.75 372.9868,330.75 Q371.4712,330.75 370.2681,330.125 Q369.2837,329.625 368.5962,328.5625 Q367.9087,327.4844 367.9087,326.2031 L367.9087,325.0469 Q367.9087,323.7188 368.5181,322.5781 Q369.1431,321.4219 370.2368,320.8125 Q371.3306,320.1875 372.5649,320.1875 Q373.2993,320.1875 373.9399,320.3594 Q374.5962,320.5156 375.1431,320.875 Z " fill="#000000"/><text fill="#000000" font-family="sans-serif" font-size="14" lengthAdjust="spacing" textLength="96.4961" x="392.8774" y="330.7285">StarbuzzCoffee</text><line style="stroke:#181818;stroke-width:0.5;" x1="323" x2="526.751" y1="341" y2="341"/><line style="stroke:#181818;stroke-width:0.5;" x1="323" x2="526.751" y1="349" y2="349"/><ellipse cx="333" cy="363.3047" fill="#84BE84" rx="3" ry="3" style="stroke:#038048;stroke-width:1;"/><text fill="#000000" font-family="sans-serif" font-size="14" lengthAdjust="spacing" textLength="105.8203" x="342" y="367.5332">StarbuzzCoffee()</text><polygon fill="#4177AF" points="333,376.9141,329,382.9141,337,382.9141" style="stroke:#1963A0;stroke-width:1;"/><text fill="#000000" font-family="sans-serif" font-size="14" lengthAdjust="spacing" text-decoration="underline" textLength="179.751" x="342" y="385.1426">main(java/lang/String[]): Void</text></g><!--class Whip--><g id="elem_Whip"><rect codeLine="95" fill="#F1F1F1" height="118.4375" id="Whip" rx="2.5" ry="2.5" style="stroke:#181818;stroke-width:0.5;" width="315.5088" x="70" y="130"/><ellipse cx="207.5562" cy="146" fill="#ADD1B2" rx="11" ry="11" style="stroke:#181818;stroke-width:1;"/><path d="M210.3218,141.875 Q210.478,141.6563 210.6655,141.5469 Q210.853,141.4375 211.0718,141.4375 Q211.4468,141.4375 211.6812,141.7031 Q211.9155,141.9531 211.9155,142.5625 L211.9155,144.0156 Q211.9155,144.625 211.6812,144.8906 Q211.4468,145.1563 211.0718,145.1563 Q210.728,145.1563 210.5249,144.9531 Q210.3218,144.7656 210.2124,144.25 Q210.1655,143.8906 209.978,143.7031 Q209.6499,143.3281 209.0405,143.1094 Q208.4312,142.8906 207.8062,142.8906 Q207.0405,142.8906 206.3999,143.2188 Q205.7749,143.5469 205.2749,144.2969 Q204.7905,145.0469 204.7905,146.0781 L204.7905,147.1719 Q204.7905,148.4063 205.6812,149.2344 Q206.5718,150.0469 208.1655,150.0469 Q209.103,150.0469 209.7593,149.7969 Q210.1499,149.6406 210.5718,149.2031 Q210.8374,148.9375 210.978,148.8594 Q211.1343,148.7813 211.3374,148.7813 Q211.6655,148.7813 211.9155,149.0469 Q212.1812,149.2969 212.1812,149.6406 Q212.1812,149.9844 211.8374,150.3906 Q211.3374,150.9688 210.5405,151.2969 Q209.4624,151.75 208.1655,151.75 Q206.6499,151.75 205.4468,151.125 Q204.4624,150.625 203.7749,149.5625 Q203.0874,148.4844 203.0874,147.2031 L203.0874,146.0469 Q203.0874,144.7188 203.6968,143.5781 Q204.3218,142.4219 205.4155,141.8125 Q206.5093,141.1875 207.7437,141.1875 Q208.478,141.1875 209.1187,141.3594 Q209.7749,141.5156 210.3218,141.875 Z " fill="#000000"/><text fill="#000000" font-family="sans-serif" font-size="14" lengthAdjust="spacing" textLength="31.8965" x="228.0562" y="151.7285">Whip</text><line style="stroke:#181818;stroke-width:0.5;" x1="71" x2="384.5088" y1="162" y2="162"/><text fill="#000000" font-family="sans-serif" font-size="14" lengthAdjust="spacing" textLength="303.5088" x="76" y="180.5332">beverage: headfirst/decorator/starbuzz/Beverage</text><line style="stroke:#181818;stroke-width:0.5;" x1="71" x2="384.5088" y1="187.6094" y2="187.6094"/><ellipse cx="81" cy="201.9141" fill="#84BE84" rx="3" ry="3" style="stroke:#038048;stroke-width:1;"/><text fill="#000000" font-family="sans-serif" font-size="14" lengthAdjust="spacing" textLength="278.5713" x="90" y="206.1426">Whip(headfirst/decorator/starbuzz/Beverage)</text><ellipse cx="81" cy="219.5234" fill="#84BE84" rx="3" ry="3" style="stroke:#038048;stroke-width:1;"/><text fill="#000000" font-family="sans-serif" font-size="14" lengthAdjust="spacing" textLength="203.0957" x="90" y="223.752">getDescription(): java/lang/String</text><ellipse cx="81" cy="237.1328" fill="#84BE84" rx="3" ry="3" style="stroke:#038048;stroke-width:1;"/><text fill="#000000" font-family="sans-serif" font-size="14" lengthAdjust="spacing" textLength="87.1445" x="90" y="241.3613">cost(): Double</text></g><!--link InputTest to InputTest--><g id="link_InputTest_InputTest"><path codeLine="6" d="M2365.21,173.21 C2385.54,175.01 2400,180.28 2400,189 C2400,197.72 2391.5166,202.4608 2371.1866,204.2608 " fill="transparent" id="InputTest-to-InputTest" style="stroke:#181818;stroke-width:1;stroke-dasharray:7.0,7.0;"/><polygon fill="#181818" points="2365.21,204.79,2374.5277,207.9807,2370.1905,204.349,2373.8222,200.0118,2365.21,204.79" style="stroke:#181818;stroke-width:1;"/></g><!--link LowerCaseInputStream to LowerCaseInputStream--><g id="link_LowerCaseInputStream_LowerCaseInputStream"><path codeLine="13" d="M2105.84,174.32 C2126.63,176.76 2140.5,181.65 2140.5,189 C2140.5,196.35 2132.5891,200.5406 2111.7991,202.9806 " fill="transparent" id="LowerCaseInputStream-to-LowerCaseInputStream" style="stroke:#181818;stroke-width:1;stroke-dasharray:7.0,7.0;"/><polygon fill="#181818" points="2105.84,203.68,2115.2449,206.6037,2110.8059,203.0972,2114.3124,198.6582,2105.84,203.68" style="stroke:#181818;stroke-width:1;"/></g><!--link Beverage to Beverage--><g id="link_Beverage_Beverage"><path codeLine="21" d="M1076.71,496.47 C1097.19,498.49 1111.5,503.66 1111.5,512 C1111.5,520.34 1103.161,524.9211 1082.681,526.9411 " fill="transparent" id="Beverage-to-Beverage" style="stroke:#181818;stroke-width:1;stroke-dasharray:7.0,7.0;"/><polygon fill="#181818" points="1076.71,527.53,1086.0592,530.6273,1081.6859,527.0392,1085.2739,522.6659,1076.71,527.53" style="stroke:#181818;stroke-width:1;"/></g><!--link CondimentDecorator to Beverage--><g id="link_CondimentDecorator_Beverage"><path codeLine="27" d="M763.81,392.16 C794.6,410.62 816.1335,423.5318 849.7635,443.7018 " fill="transparent" id="CondimentDecorator-to-Beverage" style="stroke:#181818;stroke-width:1;"/><polygon fill="transparent" points="865.2,452.96,852.8496,438.5563,846.6774,448.8473,865.2,452.96" style="stroke:#181818;stroke-width:1;"/><text fill="#000000" font-family="sans-serif" font-size="13" lengthAdjust="spacing" textLength="7.23" x="767.0701" y="413.5803">1</text><text fill="#000000" font-family="sans-serif" font-size="13" lengthAdjust="spacing" textLength="7.23" x="845.9841" y="442.2794">1</text></g><!--link CondimentDecorator to CondimentDecorator--><g id="link_CondimentDecorator_CondimentDecorator"><path codeLine="28" d="M810.71,337.79 C831.19,339.44 845.5,343.68 845.5,350.5 C845.5,357.32 837.1706,361.0782 816.6906,362.7282 " fill="transparent" id="CondimentDecorator-to-CondimentDecorator" style="stroke:#181818;stroke-width:1;stroke-dasharray:7.0,7.0;"/><polygon fill="#181818" points="810.71,363.21,820.0022,366.4743,815.6939,362.8085,819.3597,358.5002,810.71,363.21" style="stroke:#181818;stroke-width:1;"/></g><!--link DarkRoast to Beverage--><g id="link_DarkRoast_Beverage"><path codeLine="34" d="M1614.47,384.75 C1608.68,387.45 1602.79,389.93 1597,392 C1421.39,454.71 1223.9605,484.1774 1094.5605,498.5174 " fill="transparent" id="DarkRoast-to-Beverage" style="stroke:#181818;stroke-width:1;"/><polygon fill="transparent" points="1076.67,500.5,1095.2213,504.4809,1093.8996,492.5539,1076.67,500.5" style="stroke:#181818;stroke-width:1;"/><text fill="#000000" font-family="sans-serif" font-size="13" lengthAdjust="spacing" textLength="7.23" x="1599.4092" y="385.7814">1</text><text fill="#000000" font-family="sans-serif" font-size="13" lengthAdjust="spacing" textLength="7.23" x="1084.6141" y="513.7571">1</text></g><!--link DarkRoast to DarkRoast--><g id="link_DarkRoast_DarkRoast"><path codeLine="35" d="M1727.74,337 C1747.01,336.93 1762.5,341.43 1762.5,350.5 C1762.5,359.57 1753.01,364.0918 1733.74,364.0218 " fill="transparent" id="DarkRoast-to-DarkRoast" style="stroke:#181818;stroke-width:1;stroke-dasharray:7.0,7.0;"/><polygon fill="#181818" points="1727.74,364,1736.7254,368.0327,1732.74,364.0182,1736.7545,360.0327,1727.74,364" style="stroke:#181818;stroke-width:1;"/></g><!--link Decaf to Beverage--><g id="link_Decaf_Beverage"><path codeLine="41" d="M1448.32,384.37 C1442.56,387.15 1436.72,389.75 1431,392 C1313.93,438.03 1190.9878,467.3869 1094.4578,486.7669 " fill="transparent" id="Decaf-to-Beverage" style="stroke:#181818;stroke-width:1;"/><polygon fill="transparent" points="1076.81,490.31,1095.6389,492.6495,1093.2768,480.8843,1076.81,490.31" style="stroke:#181818;stroke-width:1;"/><text fill="#000000" font-family="sans-serif" font-size="13" lengthAdjust="spacing" textLength="7.23" x="1433.2391" y="385.3503">1</text><text fill="#000000" font-family="sans-serif" font-size="13" lengthAdjust="spacing" textLength="7.23" x="1084.7635" y="485.8074">1</text></g><!--link Decaf to Decaf--><g id="link_Decaf_Decaf"><path codeLine="42" d="M1561.74,337 C1581.01,336.93 1596.5,341.43 1596.5,350.5 C1596.5,359.57 1587.01,364.0918 1567.74,364.0218 " fill="transparent" id="Decaf-to-Decaf" style="stroke:#181818;stroke-width:1;stroke-dasharray:7.0,7.0;"/><polygon fill="#181818" points="1561.74,364,1570.7254,368.0327,1566.74,364.0182,1570.7545,360.0327,1561.74,364" style="stroke:#181818;stroke-width:1;"/></g><!--link Espresso to Beverage--><g id="link_Espresso_Beverage"><path codeLine="48" d="M1282.41,383.41 C1276.58,386.42 1270.7,389.33 1265,392 C1203.95,420.55 1150.8801,441.9995 1093.6001,463.5195 " fill="transparent" id="Espresso-to-Beverage" style="stroke:#181818;stroke-width:1;"/><polygon fill="transparent" points="1076.75,469.85,1095.7102,469.1361,1091.4899,457.9028,1076.75,469.85" style="stroke:#181818;stroke-width:1;"/><text fill="#000000" font-family="sans-serif" font-size="13" lengthAdjust="spacing" textLength="7.23" x="1267.3411" y="384.2613">1</text><text fill="#000000" font-family="sans-serif" font-size="13" lengthAdjust="spacing" textLength="7.23" x="1084.6994" y="463.9728">1</text></g><!--link Espresso to Espresso--><g id="link_Espresso_Espresso"><path codeLine="49" d="M1395.74,337 C1415.01,336.93 1430.5,341.43 1430.5,350.5 C1430.5,359.57 1421.01,364.0918 1401.74,364.0218 " fill="transparent" id="Espresso-to-Espresso" style="stroke:#181818;stroke-width:1;stroke-dasharray:7.0,7.0;"/><polygon fill="#181818" points="1395.74,364,1404.7254,368.0327,1400.74,364.0182,1404.7545,360.0327,1395.74,364" style="stroke:#181818;stroke-width:1;"/></g><!--link HouseBlend to Beverage--><g id="link_HouseBlend_Beverage"><path codeLine="55" d="M1119.21,392.16 C1094.79,410.62 1079.8186,421.935 1053.1386,442.105 " fill="transparent" id="HouseBlend-to-Beverage" style="stroke:#181818;stroke-width:1;"/><polygon fill="transparent" points="1038.78,452.96,1056.7569,446.8912,1049.5202,437.3188,1038.78,452.96" style="stroke:#181818;stroke-width:1;"/><text fill="#000000" font-family="sans-serif" font-size="13" lengthAdjust="spacing" textLength="7.23" x="1103.0862" y="413.5803">1</text><text fill="#000000" font-family="sans-serif" font-size="13" lengthAdjust="spacing" textLength="7.23" x="1040.7192" y="442.2794">1</text></g><!--link HouseBlend to HouseBlend--><g id="link_HouseBlend_HouseBlend"><path codeLine="56" d="M1229.74,337 C1249.01,336.93 1264.5,341.43 1264.5,350.5 C1264.5,359.57 1255.01,364.0918 1235.74,364.0218 " fill="transparent" id="HouseBlend-to-HouseBlend" style="stroke:#181818;stroke-width:1;stroke-dasharray:7.0,7.0;"/><polygon fill="#181818" points="1229.74,364,1238.7254,368.0327,1234.74,364.0182,1238.7545,360.0327,1229.74,364" style="stroke:#181818;stroke-width:1;"/></g><!--link Milk to CondimentDecorator--><g id="link_Milk_CondimentDecorator"><path codeLine="64" d="M1208.92,248.12 C1192.7,254.06 1176.13,259.4 1160,263.5 C1097.66,279.35 1079.64,268.65 1016,278 C944.34,288.53 926.69,293.22 856,309 C841.32,312.28 843.416,311.6392 828.226,315.3492 " fill="transparent" id="Milk-to-CondimentDecorator" style="stroke:#181818;stroke-width:1;"/><polygon fill="transparent" points="810.74,319.62,829.6496,321.1779,826.8024,309.5206,810.74,319.62" style="stroke:#181818;stroke-width:1;"/><text fill="#000000" font-family="sans-serif" font-size="13" lengthAdjust="spacing" textLength="7.23" x="1186.1714" y="269.7901">1</text><text fill="#000000" font-family="sans-serif" font-size="13" lengthAdjust="spacing" textLength="7.23" x="818.6888" y="314.5073">1</text></g><!--link Milk to Beverage--><g id="link_Milk_Beverage"><path codeLine="65" d="M1197.58,248.12 C1184.89,253.37 1172.22,258.56 1160,263.5 C1108.27,284.42 1082.66,269.75 1043,309 C1003.79,347.8 984.3557,402.2146 973.6857,446.8246 " fill="transparent" id="Milk-to-Beverage" style="stroke:#181818;stroke-width:1;"/><polygon fill="#181818" points="972.29,452.66,978.2739,444.8374,973.4531,447.7972,970.4933,442.9764,972.29,452.66" style="stroke:#181818;stroke-width:1;"/><text fill="#000000" font-family="sans-serif" font-size="13" lengthAdjust="spacing" textLength="54.209" x="1044" y="355.9951">beverage</text></g><!--link Milk to Milk--><g id="link_Milk_Milk"><path codeLine="66" d="M1493.26,174.45 C1514.15,176.93 1528,181.78 1528,189 C1528,196.22 1520.1082,200.3627 1499.2182,202.8427 " fill="transparent" id="Milk-to-Milk" style="stroke:#181818;stroke-width:1;stroke-dasharray:7.0,7.0;"/><polygon fill="#181818" points="1493.26,203.55,1502.6688,206.4611,1498.2251,202.9606,1501.7257,198.5169,1493.26,203.55" style="stroke:#181818;stroke-width:1;"/></g><!--link Mocha to CondimentDecorator--><g id="link_Mocha_CondimentDecorator"><path codeLine="74" d="M841.49,248.07 C823.57,257.52 805.59,267.64 789,278 C774.32,287.17 773.403,287.1727 759.673,297.7227 " fill="transparent" id="Mocha-to-CondimentDecorator" style="stroke:#181818;stroke-width:1;"/><polygon fill="transparent" points="745.4,308.69,763.3288,302.4804,756.0173,292.9651,745.4,308.69" style="stroke:#181818;stroke-width:1;"/><text fill="#000000" font-family="sans-serif" font-size="13" lengthAdjust="spacing" textLength="7.23" x="818.9327" y="269.734">1</text><text fill="#000000" font-family="sans-serif" font-size="13" lengthAdjust="spacing" textLength="7.23" x="745.726" y="298.2572">1</text></g><!--link Mocha to Beverage--><g id="link_Mocha_Beverage"><path codeLine="75" d="M942.3,248.06 C935.65,267.14 929.32,288.67 926,309 C920.05,345.41 920.6,355.51 926,392 C928.99,412.18 932.8745,427.9449 938.8645,447.0449 " fill="transparent" id="Mocha-to-Beverage" style="stroke:#181818;stroke-width:1;"/><polygon fill="#181818" points="940.66,452.77,941.7835,442.9854,939.1638,447.9991,934.1501,445.3794,940.66,452.77" style="stroke:#181818;stroke-width:1;"/><text fill="#000000" font-family="sans-serif" font-size="13" lengthAdjust="spacing" textLength="54.209" x="927" y="355.9951">beverage</text></g><!--link Mocha to Mocha--><g id="link_Mocha_Mocha"><path codeLine="76" d="M1124.26,174.45 C1145.15,176.93 1159,181.78 1159,189 C1159,196.22 1151.1082,200.3627 1130.2182,202.8427 " fill="transparent" id="Mocha-to-Mocha" style="stroke:#181818;stroke-width:1;stroke-dasharray:7.0,7.0;"/><polygon fill="#181818" points="1124.26,203.55,1133.6688,206.4611,1129.2251,202.9606,1132.7257,198.5169,1124.26,203.55" style="stroke:#181818;stroke-width:1;"/></g><!--link Soy to CondimentDecorator--><g id="link_Soy_CondimentDecorator"><path codeLine="84" d="M633.02,248.03 C645.52,268.16 649.7548,274.9981 661.2048,293.4381 " fill="transparent" id="Soy-to-CondimentDecorator" style="stroke:#181818;stroke-width:1;"/><polygon fill="transparent" points="670.7,308.73,666.3021,290.2731,656.1075,296.6032,670.7,308.73" style="stroke:#181818;stroke-width:1;"/><text fill="#000000" font-family="sans-serif" font-size="13" lengthAdjust="spacing" textLength="7.23" x="630.2328" y="270.1078">1</text><text fill="#000000" font-family="sans-serif" font-size="13" lengthAdjust="spacing" textLength="7.23" x="658.9411" y="297.993">1</text></g><!--link Soy to Beverage--><g id="link_Soy_Beverage"><path codeLine="85" d="M463.98,248.14 C449.91,253.61 435.73,258.84 422,263.5 C346.72,289.07 297.54,246.04 249,309 C226.48,338.21 225.16,363.85 249,392 C324.33,480.94 659.7229,503.2728 841.4129,508.9428 " fill="transparent" id="Soy-to-Beverage" style="stroke:#181818;stroke-width:1;"/><polygon fill="#181818" points="847.41,509.13,838.5391,504.8512,842.4124,508.974,838.2896,512.8473,847.41,509.13" style="stroke:#181818;stroke-width:1;"/><text fill="#000000" font-family="sans-serif" font-size="13" lengthAdjust="spacing" textLength="54.209" x="250" y="355.9951">beverage</text></g><!--link Soy to Soy--><g id="link_Soy_Soy"><path codeLine="86" d="M755.26,174.45 C776.15,176.93 790,181.78 790,189 C790,196.22 782.1082,200.3627 761.2182,202.8427 " fill="transparent" id="Soy-to-Soy" style="stroke:#181818;stroke-width:1;stroke-dasharray:7.0,7.0;"/><polygon fill="#181818" points="755.26,203.55,764.6688,206.4611,760.2251,202.9606,763.7257,198.5169,755.26,203.55" style="stroke:#181818;stroke-width:1;"/></g><!--link StarbuzzCoffee to StarbuzzCoffee--><g id="link_StarbuzzCoffee_StarbuzzCoffee"><path codeLine="92" d="M528.21,337.58 C548.54,339.06 563,343.36 563,350.5 C563,357.64 554.5242,361.5044 534.1942,362.9844 " fill="transparent" id="StarbuzzCoffee-to-StarbuzzCoffee" style="stroke:#181818;stroke-width:1;stroke-dasharray:7.0,7.0;"/><polygon fill="#181818" points="528.21,363.42,537.4767,366.756,533.1968,363.057,536.8958,358.7771,528.21,363.42" style="stroke:#181818;stroke-width:1;"/></g><!--link StarbuzzCoffee to Beverage--><g id="link_StarbuzzCoffee_Beverage"><path codeLine="93" d="M528.22,382.16 C619.62,409.31 747.0885,447.1612 841.7385,475.2812 " fill="transparent" id="StarbuzzCoffee-to-Beverage" style="stroke:#181818;stroke-width:1;stroke-dasharray:7.0,7.0;"/><polygon fill="#181818" points="847.49,476.99,840.0019,470.5925,842.6971,475.566,837.7235,478.2612,847.49,476.99" style="stroke:#181818;stroke-width:1;"/></g><!--link Whip to CondimentDecorator--><g id="link_Whip_CondimentDecorator"><path codeLine="101" d="M378.61,248.04 C393.23,253.38 407.87,258.61 422,263.5 C452.1,273.91 503.1972,290.0201 564.0672,308.8901 " fill="transparent" id="Whip-to-CondimentDecorator" style="stroke:#181818;stroke-width:1;"/><polygon fill="transparent" points="581.26,314.22,565.8438,303.1592,562.2906,314.6211,581.26,314.22" style="stroke:#181818;stroke-width:1;"/><text fill="#000000" font-family="sans-serif" font-size="13" lengthAdjust="spacing" textLength="7.23" x="390.5047" y="270.1191">1</text><text fill="#000000" font-family="sans-serif" font-size="13" lengthAdjust="spacing" textLength="7.23" x="566.3203" y="308.7445">1</text></g><!--link Whip to Beverage--><g id="link_Whip_Beverage"><path codeLine="102" d="M184.79,248.1 C158.27,291.41 134.96,350.09 167,392 C207.81,445.39 631.3289,485.3336 841.4789,502.0736 " fill="transparent" id="Whip-to-Beverage" style="stroke:#181818;stroke-width:1;"/><polygon fill="#181818" points="847.46,502.55,838.806,497.848,842.4758,502.153,838.1708,505.8227,847.46,502.55" style="stroke:#181818;stroke-width:1;"/><text fill="#000000" font-family="sans-serif" font-size="13" lengthAdjust="spacing" textLength="54.209" x="168" y="355.9951">beverage</text></g><!--link Whip to Whip--><g id="link_Whip_Whip"><path codeLine="103" d="M386.26,174.45 C407.15,176.93 421,181.78 421,189 C421,196.22 413.1082,200.3627 392.2182,202.8427 " fill="transparent" id="Whip-to-Whip" style="stroke:#181818;stroke-width:1;stroke-dasharray:7.0,7.0;"/><polygon fill="#181818" points="386.26,203.55,395.6688,206.4611,391.2251,202.9606,394.7257,198.5169,386.26,203.55" style="stroke:#181818;stroke-width:1;"/></g><!--SRC=[nPTFRzem6CRl-HHMJrGPYNhDeGTWqYfjbxRQ3bKFnda1ho56jcdLikwpptwRFtH9i8c2k43iF7xo_jx78O5bL2co0fekk5GwIe49IRMG4HVHJRxPwdjGckm24bQZqML0TafJpTax-RkcF1_zfiyqpcY-ZE-qvFdouV4o8Jy5JuFtm6aUHTVE2eA07QhqktW1EQKAS86f0UWQYsuxyL4j5_7Ud44ApNSwCdNVvBeSJLurF3n-iLFuKPpjX6gjum1Vcpu8w5nfIPactSoc_NA-VNkB9l0CaYx1qgQWcEGRpKMUaFyZCKYbrWOOBa7FQhtbRgxObPMOd9cmoITa9hRp33fQq2oh2xwXF0vxAlAKho4t3CKvZBivZPjr3yC3su7MSkcBgmio7l-vnWC_scCluUnZSysXUwPQDgFowLRGuXwlHhX5ZekyTXgw7RMpimkLr0yU65ryWDkZFj3eC3WmkhfXhSmBzAlQI51A86ivw85R-GnDN1axeKkb5_StiLKmoI1FaRmUzc3VyngQVi_QoLzhlJhmWsTFbdrU59BKyhYInwKyhkebeLqvyXBxFawER3YMxj_gbXz0j_ruxFbu8adLGWzRPufMvPUVO2lQCq2xzBm9Ol4dZ13zJv0X-hf3j3Al5E_4QxyCpSAp9cWBFrr-rdtuzAohCpiZyakkE9YAnGBmBJlyF3N0lw6kYxaXFkc7zQxVopswz6l5D_qsk5rvrXsEfPzkYwFzy7iSRPqPMbNm3m00]--></g></svg>