<svg xmlns="http://www.w3.org/2000/svg" xmlns:xlink="http://www.w3.org/1999/xlink" contentStyleType="text/css" data-diagram-type="CLASS" height="627px" preserveAspectRatio="none" style="width:2454px;height:627px;background:#FFFFFF;" version="1.1" viewBox="0 0 2454 627" width="2454px" zoomAndPan="magnify"><defs/><g><!--cluster headfirst--><g id="cluster_headfirst"><path d="M8.5,6 L68.624,6 A3.75,3.75 0 0 1 71.124,8.5 L78.124,29.6094 L2444.5,29.6094 A2.5,2.5 0 0 1 2447,32.1094 L2447,617.5 A2.5,2.5 0 0 1 2444.5,620 L8.5,620 A2.5,2.5 0 0 1 6,617.5 L6,8.5 A2.5,2.5 0 0 1 8.5,6 " fill="transparent" style="stroke:#000000;stroke-width:1.5;"/><line style="stroke:#000000;stroke-width:1.5;" x1="6" x2="78.124" y1="29.6094" y2="29.6094"/><text fill="#000000" font-family="sans-serif" font-size="14" font-weight="bold" lengthAdjust="spacing" textLength="59.124" x="10" y="22.5332">headfirst</text></g><!--cluster decorator--><g id="cluster_decorator"><path d="M32.5,50 L98.0723,50 A3.75,3.75 0 0 1 100.5723,52.5 L107.5723,73.6094 L2420.5,73.6094 A2.5,2.5 0 0 1 2423,76.1094 L2423,593.5 A2.5,2.5 0 0 1 2420.5,596 L32.5,596 A2.5,2.5 0 0 1 30,593.5 L30,52.5 A2.5,2.5 0 0 1 32.5,50 " fill="transparent" style="stroke:#000000;stroke-width:1.5;"/><line style="stroke:#000000;stroke-width:1.5;" x1="30" x2="107.5723" y1="73.6094" y2="73.6094"/><text fill="#000000" font-family="sans-serif" font-size="14" font-weight="bold" lengthAdjust="spacing" textLength="64.5723" x="34" y="66.5332">decorator</text></g><!--cluster io--><g id="cluster_io"><path d="M1788.5,94 L1801.9414,94 A3.75,3.75 0 0 1 1804.4414,96.5 L1811.4414,117.6094 L2396.5,117.6094 A2.5,2.5 0 0 1 2399,120.1094 L2399,244.5 A2.5,2.5 0 0 1 2396.5,247 L1788.5,247 A2.5,2.5 0 0 1 1786,244.5 L1786,96.5 A2.5,2.5 0 0 1 1788.5,94 " fill="transparent" style="stroke:#000000;stroke-width:1.5;"/><line style="stroke:#000000;stroke-width:1.5;" x1="1786" x2="1811.4414" y1="117.6094" y2="117.6094"/><text fill="#000000" font-family="sans-serif" font-size="14" font-weight="bold" lengthAdjust="spacing" textLength="12.4414" x="1790" y="110.5332">io</text></g><!--cluster starbuzz--><g id="cluster_starbuzz"><path d="M56.5,94 L114.2861,94 A3.75,3.75 0 0 1 116.7861,96.5 L123.7861,117.6094 L1759.5,117.6094 A2.5,2.5 0 0 1 1762,120.1094 L1762,569.5 A2.5,2.5 0 0 1 1759.5,572 L56.5,572 A2.5,2.5 0 0 1 54,569.5 L54,96.5 A2.5,2.5 0 0 1 56.5,94 " fill="transparent" style="stroke:#000000;stroke-width:1.5;"/><line style="stroke:#000000;stroke-width:1.5;" x1="54" x2="123.7861" y1="117.6094" y2="117.6094"/><text fill="#000000" font-family="sans-serif" font-size="14" font-weight="bold" lengthAdjust="spacing" textLength="56.7861" x="58" y="110.5332">starbuzz</text></g><!--class InputTest--><g id="elem_InputTest"><rect codeLine="2" fill="#F1F1F1" height="83.2188" id="InputTest" rx="2.5" ry="2.5" style="stroke:#181818;stroke-width:0.5;" width="205.751" x="2159" y="139"/><ellipse cx="2228.4429" cy="155" fill="#ADD1B2" rx="11" ry="11" style="stroke:#181818;stroke-width:1;"/><path d="M2231.2085,150.875 Q2231.3647,150.6563 2231.5522,150.5469 Q2231.7397,150.4375 2231.9585,150.4375 Q2232.3335,150.4375 2232.5679,150.7031 Q2232.8022,150.9531 2232.8022,151.5625 L2232.8022,153.0156 Q2232.8022,153.625 2232.5679,153.8906 Q2232.3335,154.1563 2231.9585,154.1563 Q2231.6147,154.1563 2231.4116,153.9531 Q2231.2085,153.7656 2231.0991,153.25 Q2231.0522,152.8906 2230.8647,152.7031 Q2230.5366,152.3281 2229.9272,152.1094 Q2229.3179,151.8906 2228.6929,151.8906 Q2227.9272,151.8906 2227.2866,152.2188 Q2226.6616,152.5469 2226.1616,153.2969 Q2225.6772,154.0469 2225.6772,155.0781 L2225.6772,156.1719 Q2225.6772,157.4063 2226.5679,158.2344 Q2227.4585,159.0469 2229.0522,159.0469 Q2229.9897,159.0469 2230.646,158.7969 Q2231.0366,158.6406 2231.4585,158.2031 Q2231.7241,157.9375 2231.8647,157.8594 Q2232.021,157.7813 2232.2241,157.7813 Q2232.5522,157.7813 2232.8022,158.0469 Q2233.0679,158.2969 2233.0679,158.6406 Q2233.0679,158.9844 2232.7241,159.3906 Q2232.2241,159.9688 2231.4272,160.2969 Q2230.3491,160.75 2229.0522,160.75 Q2227.5366,160.75 2226.3335,160.125 Q2225.3491,159.625 2224.6616,158.5625 Q2223.9741,157.4844 2223.9741,156.2031 L2223.9741,155.0469 Q2223.9741,153.7188 2224.5835,152.5781 Q2225.2085,151.4219 2226.3022,150.8125 Q2227.396,150.1875 2228.6304,150.1875 Q2229.3647,150.1875 2230.0054,150.3594 Q2230.6616,150.5156 2231.2085,150.875 Z " fill="#000000"/><text fill="#000000" font-family="sans-serif" font-size="14" lengthAdjust="spacing" textLength="58.3652" x="2248.9429" y="160.7285">InputTest</text><line style="stroke:#181818;stroke-width:0.5;" x1="2160" x2="2363.751" y1="171" y2="171"/><line style="stroke:#181818;stroke-width:0.5;" x1="2160" x2="2363.751" y1="179" y2="179"/><ellipse cx="2170" cy="193.3047" fill="#84BE84" rx="3" ry="3" style="stroke:#038048;stroke-width:1;"/><text fill="#000000" font-family="sans-serif" font-size="14" lengthAdjust="spacing" textLength="67.6895" x="2179" y="197.5332">InputTest()</text><polygon fill="#4177AF" points="2170,206.9141,2166,212.9141,2174,212.9141" style="stroke:#1963A0;stroke-width:1;"/><text fill="#000000" font-family="sans-serif" font-size="14" lengthAdjust="spacing" text-decoration="underline" textLength="179.751" x="2179" y="215.1426">main(java/lang/String[]): Void</text></g><!--class LowerCaseInputStream--><g id="elem_LowerCaseInputStream"><rect codeLine="8" fill="#F1F1F1" height="100.8281" id="LowerCaseInputStream" rx="2.5" ry="2.5" style="stroke:#181818;stroke-width:0.5;" width="303.0195" x="1802.5" y="130"/><ellipse cx="1876.2222" cy="146" fill="#ADD1B2" rx="11" ry="11" style="stroke:#181818;stroke-width:1;"/><path d="M1878.9878,141.875 Q1879.144,141.6563 1879.3315,141.5469 Q1879.519,141.4375 1879.7378,141.4375 Q1880.1128,141.4375 1880.3472,141.7031 Q1880.5815,141.9531 1880.5815,142.5625 L1880.5815,144.0156 Q1880.5815,144.625 1880.3472,144.8906 Q1880.1128,145.1563 1879.7378,145.1563 Q1879.394,145.1563 1879.1909,144.9531 Q1878.9878,144.7656 1878.8784,144.25 Q1878.8315,143.8906 1878.644,143.7031 Q1878.3159,143.3281 1877.7065,143.1094 Q1877.0972,142.8906 1876.4722,142.8906 Q1875.7065,142.8906 1875.0659,143.2188 Q1874.4409,143.5469 1873.9409,144.2969 Q1873.4565,145.0469 1873.4565,146.0781 L1873.4565,147.1719 Q1873.4565,148.4063 1874.3472,149.2344 Q1875.2378,150.0469 1876.8315,150.0469 Q1877.769,150.0469 1878.4253,149.7969 Q1878.8159,149.6406 1879.2378,149.2031 Q1879.5034,148.9375 1879.644,148.8594 Q1879.8003,148.7813 1880.0034,148.7813 Q1880.3315,148.7813 1880.5815,149.0469 Q1880.8472,149.2969 1880.8472,149.6406 Q1880.8472,149.9844 1880.5034,150.3906 Q1880.0034,150.9688 1879.2065,151.2969 Q1878.1284,151.75 1876.8315,151.75 Q1875.3159,151.75 1874.1128,151.125 Q1873.1284,150.625 1872.4409,149.5625 Q1871.7534,148.4844 1871.7534,147.2031 L1871.7534,146.0469 Q1871.7534,144.7188 1872.3628,143.5781 Q1872.9878,142.4219 1874.0815,141.8125 Q1875.1753,141.1875 1876.4097,141.1875 Q1877.144,141.1875 1877.7847,141.3594 Q1878.4409,141.5156 1878.9878,141.875 Z " fill="#000000"/><text fill="#000000" font-family="sans-serif" font-size="14" lengthAdjust="spacing" textLength="147.0752" x="1896.7222" y="151.7285">LowerCaseInputStream</text><line style="stroke:#181818;stroke-width:0.5;" x1="1803.5" x2="2104.5195" y1="162" y2="162"/><line style="stroke:#181818;stroke-width:0.5;" x1="1803.5" x2="2104.5195" y1="170" y2="170"/><ellipse cx="1813.5" cy="184.3047" fill="#84BE84" rx="3" ry="3" style="stroke:#038048;stroke-width:1;"/><text fill="#000000" font-family="sans-serif" font-size="14" lengthAdjust="spacing" textLength="277.0195" x="1822.5" y="188.5332">LowerCaseInputStream(java/io/InputStream)</text><ellipse cx="1813.5" cy="201.9141" fill="#84BE84" rx="3" ry="3" style="stroke:#038048;stroke-width:1;"/><text fill="#000000" font-family="sans-serif" font-size="14" lengthAdjust="spacing" textLength="60.6895" x="1822.5" y="206.1426">read(): Int</text><ellipse cx="1813.5" cy="219.5234" fill="#84BE84" rx="3" ry="3" style="stroke:#038048;stroke-width:1;"/><text fill="#000000" font-family="sans-serif" font-size="14" lengthAdjust="spacing" textLength="143.1719" x="1822.5" y="223.752">read(Byte[], Int, Int): Int</text></g><!--class Beverage--><g id="elem_Beverage"><rect codeLine="15" fill="#F1F1F1" height="118.4375" id="Beverage" rx="2.5" ry="2.5" style="stroke:#181818;stroke-width:0.5;" width="229.0957" x="847.5" y="438"/><ellipse cx="927.8325" cy="454" fill="#A9DCDF" rx="11" ry="11" style="stroke:#181818;stroke-width:1;"/><path d="M930.02,455.7656 L925.8794,455.7656 L925.4575,456.7969 L925.8794,456.7969 Q926.4888,456.7969 926.7544,457.0313 Q927.02,457.2656 927.02,457.6563 Q927.02,458.0313 926.7544,458.2656 Q926.4888,458.5 925.8794,458.5 L923.5825,458.5 Q922.9731,458.5 922.7231,458.2656 Q922.4575,458.0313 922.4575,457.6406 Q922.4575,457.2656 922.7388,457.0313 Q923.0044,456.7813 923.6294,456.7969 L926.3013,450.1406 L925.1919,450.1406 Q924.5825,450.1406 924.3169,449.9063 Q924.0513,449.6719 924.0513,449.2813 Q924.0513,448.9063 924.3169,448.6719 Q924.5825,448.4375 925.1919,448.4375 L928.8638,448.4375 L932.2544,456.7969 Q932.8481,456.7969 933.0356,456.9375 Q933.4263,457.2031 933.4263,457.6563 Q933.4263,458.0313 933.1606,458.2656 Q932.9106,458.5 932.3013,458.5 L930.0044,458.5 Q929.395,458.5 929.1294,458.2656 Q928.8638,458.0313 928.8638,457.6406 Q928.8638,457.2656 929.1294,457.0313 Q929.395,456.7969 930.0044,456.7969 L930.4263,456.7969 L930.02,455.7656 Z M929.3013,454.0625 L927.9419,450.6875 L926.5669,454.0625 L929.3013,454.0625 Z " fill="#000000"/><text fill="#000000" font-family="sans-serif" font-size="14" font-style="italic" lengthAdjust="spacing" textLength="59.9307" x="948.3325" y="459.7285">Beverage</text><line style="stroke:#181818;stroke-width:0.5;" x1="848.5" x2="1075.5957" y1="470" y2="470"/><text fill="#000000" font-family="sans-serif" font-size="14" lengthAdjust="spacing" textLength="171.9854" x="853.5" y="488.5332">description: java/lang/String</text><line style="stroke:#181818;stroke-width:0.5;" x1="848.5" x2="1075.5957" y1="495.6094" y2="495.6094"/><ellipse cx="858.5" cy="509.9141" fill="#84BE84" rx="3" ry="3" style="stroke:#038048;stroke-width:1;"/><text fill="#000000" font-family="sans-serif" font-size="14" lengthAdjust="spacing" textLength="69.2549" x="867.5" y="514.1426">Beverage()</text><ellipse cx="858.5" cy="527.5234" fill="#84BE84" rx="3" ry="3" style="stroke:#038048;stroke-width:1;"/><text fill="#000000" font-family="sans-serif" font-size="14" lengthAdjust="spacing" textLength="203.0957" x="867.5" y="531.752">getDescription(): java/lang/String</text><polygon fill="#4177AF" points="858.5,541.1328,854.5,547.1328,862.5,547.1328" style="stroke:#1963A0;stroke-width:1;"/><text fill="#000000" font-family="sans-serif" font-size="14" font-style="italic" lengthAdjust="spacing" textLength="87.1445" x="867.5" y="549.3613">cost(): Double</text></g><!--class CondimentDecorator--><g id="elem_CondimentDecorator"><rect codeLine="23" fill="#F1F1F1" height="83.2188" id="CondimentDecorator" rx="2.5" ry="2.5" style="stroke:#181818;stroke-width:0.5;" width="229.0957" x="581.5" y="294"/><ellipse cx="627.2119" cy="310" fill="#A9DCDF" rx="11" ry="11" style="stroke:#181818;stroke-width:1;"/><path d="M629.3994,311.7656 L625.2588,311.7656 L624.8369,312.7969 L625.2588,312.7969 Q625.8682,312.7969 626.1338,313.0313 Q626.3994,313.2656 626.3994,313.6563 Q626.3994,314.0313 626.1338,314.2656 Q625.8682,314.5 625.2588,314.5 L622.9619,314.5 Q622.3525,314.5 622.1025,314.2656 Q621.8369,314.0313 621.8369,313.6406 Q621.8369,313.2656 622.1182,313.0313 Q622.3838,312.7813 623.0088,312.7969 L625.6807,306.1406 L624.5713,306.1406 Q623.9619,306.1406 623.6963,305.9063 Q623.4307,305.6719 623.4307,305.2813 Q623.4307,304.9063 623.6963,304.6719 Q623.9619,304.4375 624.5713,304.4375 L628.2432,304.4375 L631.6338,312.7969 Q632.2275,312.7969 632.415,312.9375 Q632.8057,313.2031 632.8057,313.6563 Q632.8057,314.0313 632.54,314.2656 Q632.29,314.5 631.6807,314.5 L629.3838,314.5 Q628.7744,314.5 628.5088,314.2656 Q628.2432,314.0313 628.2432,313.6406 Q628.2432,313.2656 628.5088,313.0313 Q628.7744,312.7969 629.3838,312.7969 L629.8057,312.7969 L629.3994,311.7656 Z M628.6807,310.0625 L627.3213,306.6875 L625.9463,310.0625 L628.6807,310.0625 Z " fill="#000000"/><text fill="#000000" font-family="sans-serif" font-size="14" font-style="italic" lengthAdjust="spacing" textLength="129.1719" x="647.7119" y="315.7285">CondimentDecorator</text><line style="stroke:#181818;stroke-width:0.5;" x1="582.5" x2="809.5957" y1="326" y2="326"/><line style="stroke:#181818;stroke-width:0.5;" x1="582.5" x2="809.5957" y1="334" y2="334"/><ellipse cx="592.5" cy="348.3047" fill="#84BE84" rx="3" ry="3" style="stroke:#038048;stroke-width:1;"/><text fill="#000000" font-family="sans-serif" font-size="14" lengthAdjust="spacing" textLength="138.4961" x="601.5" y="352.5332">CondimentDecorator()</text><polygon fill="#4177AF" points="592.5,361.9141,588.5,367.9141,596.5,367.9141" style="stroke:#1963A0;stroke-width:1;"/><text fill="#000000" font-family="sans-serif" font-size="14" font-style="italic" lengthAdjust="spacing" textLength="203.0957" x="601.5" y="370.1426">getDescription(): java/lang/String</text></g><!--class DarkRoast--><g id="elem_DarkRoast"><rect codeLine="30" fill="#F1F1F1" height="83.2188" id="DarkRoast" rx="2.5" ry="2.5" style="stroke:#181818;stroke-width:0.5;" width="113.1445" x="1614.5" y="294"/><ellipse cx="1636.2562" cy="310" fill="#ADD1B2" rx="11" ry="11" style="stroke:#181818;stroke-width:1;"/><path d="M1639.0218,305.875 Q1639.178,305.6563 1639.3655,305.5469 Q1639.553,305.4375 1639.7718,305.4375 Q1640.1468,305.4375 1640.3812,305.7031 Q1640.6155,305.9531 1640.6155,306.5625 L1640.6155,308.0156 Q1640.6155,308.625 1640.3812,308.8906 Q1640.1468,309.1563 1639.7718,309.1563 Q1639.428,309.1563 1639.2249,308.9531 Q1639.0218,308.7656 1638.9124,308.25 Q1638.8655,307.8906 1638.678,307.7031 Q1638.3499,307.3281 1637.7405,307.1094 Q1637.1312,306.8906 1636.5062,306.8906 Q1635.7405,306.8906 1635.0999,307.2188 Q1634.4749,307.5469 1633.9749,308.2969 Q1633.4905,309.0469 1633.4905,310.0781 L1633.4905,311.1719 Q1633.4905,312.4063 1634.3812,313.2344 Q1635.2718,314.0469 1636.8655,314.0469 Q1637.803,314.0469 1638.4593,313.7969 Q1638.8499,313.6406 1639.2718,313.2031 Q1639.5374,312.9375 1639.678,312.8594 Q1639.8343,312.7813 1640.0374,312.7813 Q1640.3655,312.7813 1640.6155,313.0469 Q1640.8812,313.2969 1640.8812,313.6406 Q1640.8812,313.9844 1640.5374,314.3906 Q1640.0374,314.9688 1639.2405,315.2969 Q1638.1624,315.75 1636.8655,315.75 Q1635.3499,315.75 1634.1468,315.125 Q1633.1624,314.625 1632.4749,313.5625 Q1631.7874,312.4844 1631.7874,311.2031 L1631.7874,310.0469 Q1631.7874,308.7188 1632.3968,307.5781 Q1633.0218,306.4219 1634.1155,305.8125 Q1635.2093,305.1875 1636.4437,305.1875 Q1637.178,305.1875 1637.8187,305.3594 Q1638.4749,305.5156 1639.0218,305.875 Z " fill="#000000"/><text fill="#000000" font-family="sans-serif" font-size="14" lengthAdjust="spacing" textLength="66.1309" x="1651.7575" y="315.7285">DarkRoast</text><line style="stroke:#181818;stroke-width:0.5;" x1="1615.5" x2="1726.6445" y1="326" y2="326"/><line style="stroke:#181818;stroke-width:0.5;" x1="1615.5" x2="1726.6445" y1="334" y2="334"/><ellipse cx="1625.5" cy="348.3047" fill="#84BE84" rx="3" ry="3" style="stroke:#038048;stroke-width:1;"/><text fill="#000000" font-family="sans-serif" font-size="14" lengthAdjust="spacing" textLength="75.4551" x="1634.5" y="352.5332">DarkRoast()</text><ellipse cx="1625.5" cy="365.9141" fill="#84BE84" rx="3" ry="3" style="stroke:#038048;stroke-width:1;"/><text fill="#000000" font-family="sans-serif" font-size="14" lengthAdjust="spacing" textLength="87.1445" x="1634.5" y="370.1426">cost(): Double</text></g><!--class Decaf--><g id="elem_Decaf"><rect codeLine="37" fill="#F1F1F1" height="83.2188" id="Decaf" rx="2.5" ry="2.5" style="stroke:#181818;stroke-width:0.5;" width="113.1445" x="1448.5" y="294"/><ellipse cx="1483.5575" cy="310" fill="#ADD1B2" rx="11" ry="11" style="stroke:#181818;stroke-width:1;"/><path d="M1486.3231,305.875 Q1486.4794,305.6563 1486.6669,305.5469 Q1486.8544,305.4375 1487.0731,305.4375 Q1487.4481,305.4375 1487.6825,305.7031 Q1487.9169,305.9531 1487.9169,306.5625 L1487.9169,308.0156 Q1487.9169,308.625 1487.6825,308.8906 Q1487.4481,309.1563 1487.0731,309.1563 Q1486.7294,309.1563 1486.5263,308.9531 Q1486.3231,308.7656 1486.2138,308.25 Q1486.1669,307.8906 1485.9794,307.7031 Q1485.6513,307.3281 1485.0419,307.1094 Q1484.4325,306.8906 1483.8075,306.8906 Q1483.0419,306.8906 1482.4013,307.2188 Q1481.7763,307.5469 1481.2763,308.2969 Q1480.7919,309.0469 1480.7919,310.0781 L1480.7919,311.1719 Q1480.7919,312.4063 1481.6825,313.2344 Q1482.5731,314.0469 1484.1669,314.0469 Q1485.1044,314.0469 1485.7606,313.7969 Q1486.1513,313.6406 1486.5731,313.2031 Q1486.8388,312.9375 1486.9794,312.8594 Q1487.1356,312.7813 1487.3388,312.7813 Q1487.6669,312.7813 1487.9169,313.0469 Q1488.1825,313.2969 1488.1825,313.6406 Q1488.1825,313.9844 1487.8388,314.3906 Q1487.3388,314.9688 1486.5419,315.2969 Q1485.4638,315.75 1484.1669,315.75 Q1482.6513,315.75 1481.4481,315.125 Q1480.4638,314.625 1479.7763,313.5625 Q1479.0888,312.4844 1479.0888,311.2031 L1479.0888,310.0469 Q1479.0888,308.7188 1479.6981,307.5781 Q1480.3231,306.4219 1481.4169,305.8125 Q1482.5106,305.1875 1483.745,305.1875 Q1484.4794,305.1875 1485.12,305.3594 Q1485.7763,305.5156 1486.3231,305.875 Z " fill="#000000"/><text fill="#000000" font-family="sans-serif" font-size="14" lengthAdjust="spacing" textLength="36.5723" x="1502.0147" y="315.7285">Decaf</text><line style="stroke:#181818;stroke-width:0.5;" x1="1449.5" x2="1560.6445" y1="326" y2="326"/><line style="stroke:#181818;stroke-width:0.5;" x1="1449.5" x2="1560.6445" y1="334" y2="334"/><ellipse cx="1459.5" cy="348.3047" fill="#84BE84" rx="3" ry="3" style="stroke:#038048;stroke-width:1;"/><text fill="#000000" font-family="sans-serif" font-size="14" lengthAdjust="spacing" textLength="45.8965" x="1468.5" y="352.5332">Decaf()</text><ellipse cx="1459.5" cy="365.9141" fill="#84BE84" rx="3" ry="3" style="stroke:#038048;stroke-width:1;"/><text fill="#000000" font-family="sans-serif" font-size="14" lengthAdjust="spacing" textLength="87.1445" x="1468.5" y="370.1426">cost(): Double</text></g><!--class Espresso--><g id="elem_Espresso"><rect codeLine="44" fill="#F1F1F1" height="83.2188" id="Espresso" rx="2.5" ry="2.5" style="stroke:#181818;stroke-width:0.5;" width="113.1445" x="1282.5" y="294"/><ellipse cx="1307.7538" cy="310" fill="#ADD1B2" rx="11" ry="11" style="stroke:#181818;stroke-width:1;"/><path d="M1310.5194,305.875 Q1310.6756,305.6563 1310.8631,305.5469 Q1311.0506,305.4375 1311.2694,305.4375 Q1311.6444,305.4375 1311.8788,305.7031 Q1312.1131,305.9531 1312.1131,306.5625 L1312.1131,308.0156 Q1312.1131,308.625 1311.8788,308.8906 Q1311.6444,309.1563 1311.2694,309.1563 Q1310.9256,309.1563 1310.7225,308.9531 Q1310.5194,308.7656 1310.41,308.25 Q1310.3631,307.8906 1310.1756,307.7031 Q1309.8475,307.3281 1309.2381,307.1094 Q1308.6288,306.8906 1308.0038,306.8906 Q1307.2381,306.8906 1306.5975,307.2188 Q1305.9725,307.5469 1305.4725,308.2969 Q1304.9881,309.0469 1304.9881,310.0781 L1304.9881,311.1719 Q1304.9881,312.4063 1305.8788,313.2344 Q1306.7694,314.0469 1308.3631,314.0469 Q1309.3006,314.0469 1309.9569,313.7969 Q1310.3475,313.6406 1310.7694,313.2031 Q1311.035,312.9375 1311.1756,312.8594 Q1311.3319,312.7813 1311.535,312.7813 Q1311.8631,312.7813 1312.1131,313.0469 Q1312.3788,313.2969 1312.3788,313.6406 Q1312.3788,313.9844 1312.035,314.3906 Q1311.535,314.9688 1310.7381,315.2969 Q1309.66,315.75 1308.3631,315.75 Q1306.8475,315.75 1305.6444,315.125 Q1304.66,314.625 1303.9725,313.5625 Q1303.285,312.4844 1303.285,311.2031 L1303.285,310.0469 Q1303.285,308.7188 1303.8944,307.5781 Q1304.5194,306.4219 1305.6131,305.8125 Q1306.7069,305.1875 1307.9413,305.1875 Q1308.6756,305.1875 1309.3163,305.3594 Q1309.9725,305.5156 1310.5194,305.875 Z " fill="#000000"/><text fill="#000000" font-family="sans-serif" font-size="14" lengthAdjust="spacing" textLength="58.3584" x="1324.0324" y="315.7285">Espresso</text><line style="stroke:#181818;stroke-width:0.5;" x1="1283.5" x2="1394.6445" y1="326" y2="326"/><line style="stroke:#181818;stroke-width:0.5;" x1="1283.5" x2="1394.6445" y1="334" y2="334"/><ellipse cx="1293.5" cy="348.3047" fill="#84BE84" rx="3" ry="3" style="stroke:#038048;stroke-width:1;"/><text fill="#000000" font-family="sans-serif" font-size="14" lengthAdjust="spacing" textLength="67.6826" x="1302.5" y="352.5332">Espresso()</text><ellipse cx="1293.5" cy="365.9141" fill="#84BE84" rx="3" ry="3" style="stroke:#038048;stroke-width:1;"/><text fill="#000000" font-family="sans-serif" font-size="14" lengthAdjust="spacing" textLength="87.1445" x="1302.5" y="370.1426">cost(): Double</text></g><!--class HouseBlend--><g id="elem_HouseBlend"><rect codeLine="51" fill="#F1F1F1" height="83.2188" id="HouseBlend" rx="2.5" ry="2.5" style="stroke:#181818;stroke-width:0.5;" width="113.1445" x="1116.5" y="294"/><ellipse cx="1133.6911" cy="310" fill="#ADD1B2" rx="11" ry="11" style="stroke:#181818;stroke-width:1;"/><path d="M1136.4567,305.875 Q1136.613,305.6563 1136.8005,305.5469 Q1136.988,305.4375 1137.2067,305.4375 Q1137.5817,305.4375 1137.8161,305.7031 Q1138.0505,305.9531 1138.0505,306.5625 L1138.0505,308.0156 Q1138.0505,308.625 1137.8161,308.8906 Q1137.5817,309.1563 1137.2067,309.1563 Q1136.863,309.1563 1136.6599,308.9531 Q1136.4567,308.7656 1136.3474,308.25 Q1136.3005,307.8906 1136.113,307.7031 Q1135.7849,307.3281 1135.1755,307.1094 Q1134.5661,306.8906 1133.9411,306.8906 Q1133.1755,306.8906 1132.5349,307.2188 Q1131.9099,307.5469 1131.4099,308.2969 Q1130.9255,309.0469 1130.9255,310.0781 L1130.9255,311.1719 Q1130.9255,312.4063 1131.8161,313.2344 Q1132.7067,314.0469 1134.3005,314.0469 Q1135.238,314.0469 1135.8942,313.7969 Q1136.2849,313.6406 1136.7067,313.2031 Q1136.9724,312.9375 1137.113,312.8594 Q1137.2692,312.7813 1137.4724,312.7813 Q1137.8005,312.7813 1138.0505,313.0469 Q1138.3161,313.2969 1138.3161,313.6406 Q1138.3161,313.9844 1137.9724,314.3906 Q1137.4724,314.9688 1136.6755,315.2969 Q1135.5974,315.75 1134.3005,315.75 Q1132.7849,315.75 1131.5817,315.125 Q1130.5974,314.625 1129.9099,313.5625 Q1129.2224,312.4844 1129.2224,311.2031 L1129.2224,310.0469 Q1129.2224,308.7188 1129.8317,307.5781 Q1130.4567,306.4219 1131.5505,305.8125 Q1132.6442,305.1875 1133.8786,305.1875 Q1134.613,305.1875 1135.2536,305.3594 Q1135.9099,305.5156 1136.4567,305.875 Z " fill="#000000"/><text fill="#000000" font-family="sans-serif" font-size="14" lengthAdjust="spacing" textLength="76.2754" x="1148.178" y="315.7285">HouseBlend</text><line style="stroke:#181818;stroke-width:0.5;" x1="1117.5" x2="1228.6445" y1="326" y2="326"/><line style="stroke:#181818;stroke-width:0.5;" x1="1117.5" x2="1228.6445" y1="334" y2="334"/><ellipse cx="1127.5" cy="348.3047" fill="#84BE84" rx="3" ry="3" style="stroke:#038048;stroke-width:1;"/><text fill="#000000" font-family="sans-serif" font-size="14" lengthAdjust="spacing" textLength="85.5996" x="1136.5" y="352.5332">HouseBlend()</text><ellipse cx="1127.5" cy="365.9141" fill="#84BE84" rx="3" ry="3" style="stroke:#038048;stroke-width:1;"/><text fill="#000000" font-family="sans-serif" font-size="14" lengthAdjust="spacing" textLength="87.1445" x="1136.5" y="370.1426">cost(): Double</text></g><!--class Milk--><g id="elem_Milk"><rect codeLine="58" fill="#F1F1F1" height="100.8281" id="Milk" rx="2.5" ry="2.5" style="stroke:#181818;stroke-width:0.5;" width="297.5576" x="1147" y="130"/><ellipse cx="1279.0874" cy="146" fill="#ADD1B2" rx="11" ry="11" style="stroke:#181818;stroke-width:1;"/><path d="M1281.853,141.875 Q1282.0093,141.6563 1282.1968,141.5469 Q1282.3843,141.4375 1282.603,141.4375 Q1282.978,141.4375 1283.2124,141.7031 Q1283.4468,141.9531 1283.4468,142.5625 L1283.4468,144.0156 Q1283.4468,144.625 1283.2124,144.8906 Q1282.978,145.1563 1282.603,145.1563 Q1282.2593,145.1563 1282.0562,144.9531 Q1281.853,144.7656 1281.7437,144.25 Q1281.6968,143.8906 1281.5093,143.7031 Q1281.1812,143.3281 1280.5718,143.1094 Q1279.9624,142.8906 1279.3374,142.8906 Q1278.5718,142.8906 1277.9312,143.2188 Q1277.3062,143.5469 1276.8062,144.2969 Q1276.3218,145.0469 1276.3218,146.0781 L1276.3218,147.1719 Q1276.3218,148.4063 1277.2124,149.2344 Q1278.103,150.0469 1279.6968,150.0469 Q1280.6343,150.0469 1281.2905,149.7969 Q1281.6812,149.6406 1282.103,149.2031 Q1282.3687,148.9375 1282.5093,148.8594 Q1282.6655,148.7813 1282.8687,148.7813 Q1283.1968,148.7813 1283.4468,149.0469 Q1283.7124,149.2969 1283.7124,149.6406 Q1283.7124,149.9844 1283.3687,150.3906 Q1282.8687,150.9688 1282.0718,151.2969 Q1280.9937,151.75 1279.6968,151.75 Q1278.1812,151.75 1276.978,151.125 Q1275.9937,150.625 1275.3062,149.5625 Q1274.6187,148.4844 1274.6187,147.2031 L1274.6187,146.0469 Q1274.6187,144.7188 1275.228,143.5781 Q1275.853,142.4219 1276.9468,141.8125 Q1278.0405,141.1875 1279.2749,141.1875 Q1280.0093,141.1875 1280.6499,141.3594 Q1281.3062,141.5156 1281.853,141.875 Z " fill="#000000"/><text fill="#000000" font-family="sans-serif" font-size="14" lengthAdjust="spacing" textLength="24.8828" x="1299.5874" y="151.7285">Milk</text><line style="stroke:#181818;stroke-width:0.5;" x1="1148" x2="1443.5576" y1="162" y2="162"/><line style="stroke:#181818;stroke-width:0.5;" x1="1148" x2="1443.5576" y1="170" y2="170"/><ellipse cx="1158" cy="184.3047" fill="#84BE84" rx="3" ry="3" style="stroke:#038048;stroke-width:1;"/><text fill="#000000" font-family="sans-serif" font-size="14" lengthAdjust="spacing" textLength="271.5576" x="1167" y="188.5332">Milk(headfirst/decorator/starbuzz/Beverage)</text><ellipse cx="1158" cy="201.9141" fill="#84BE84" rx="3" ry="3" style="stroke:#038048;stroke-width:1;"/><text fill="#000000" font-family="sans-serif" font-size="14" lengthAdjust="spacing" textLength="203.0957" x="1167" y="206.1426">getDescription(): java/lang/String</text><ellipse cx="1158" cy="219.5234" fill="#84BE84" rx="3" ry="3" style="stroke:#038048;stroke-width:1;"/><text fill="#000000" font-family="sans-serif" font-size="14" lengthAdjust="spacing" textLength="87.1445" x="1167" y="223.752">cost(): Double</text></g><!--class Mocha--><g id="elem_Mocha"><rect codeLine="67" fill="#F1F1F1" height="100.8281" id="Mocha" rx="2.5" ry="2.5" style="stroke:#181818;stroke-width:0.5;" width="314.6953" x="778.5" y="130"/><ellipse cx="910.5874" cy="146" fill="#ADD1B2" rx="11" ry="11" style="stroke:#181818;stroke-width:1;"/><path d="M913.353,141.875 Q913.5093,141.6563 913.6968,141.5469 Q913.8843,141.4375 914.103,141.4375 Q914.478,141.4375 914.7124,141.7031 Q914.9468,141.9531 914.9468,142.5625 L914.9468,144.0156 Q914.9468,144.625 914.7124,144.8906 Q914.478,145.1563 914.103,145.1563 Q913.7593,145.1563 913.5562,144.9531 Q913.353,144.7656 913.2437,144.25 Q913.1968,143.8906 913.0093,143.7031 Q912.6812,143.3281 912.0718,143.1094 Q911.4624,142.8906 910.8374,142.8906 Q910.0718,142.8906 909.4312,143.2188 Q908.8062,143.5469 908.3062,144.2969 Q907.8218,145.0469 907.8218,146.0781 L907.8218,147.1719 Q907.8218,148.4063 908.7124,149.2344 Q909.603,150.0469 911.1968,150.0469 Q912.1343,150.0469 912.7905,149.7969 Q913.1812,149.6406 913.603,149.2031 Q913.8687,148.9375 914.0093,148.8594 Q914.1655,148.7813 914.3687,148.7813 Q914.6968,148.7813 914.9468,149.0469 Q915.2124,149.2969 915.2124,149.6406 Q915.2124,149.9844 914.8687,150.3906 Q914.3687,150.9688 913.5718,151.2969 Q912.4937,151.75 911.1968,151.75 Q909.6812,151.75 908.478,151.125 Q907.4937,150.625 906.8062,149.5625 Q906.1187,148.4844 906.1187,147.2031 L906.1187,146.0469 Q906.1187,144.7188 906.728,143.5781 Q907.353,142.4219 908.4468,141.8125 Q909.5405,141.1875 910.7749,141.1875 Q911.5093,141.1875 912.1499,141.3594 Q912.8062,141.5156 913.353,141.875 Z " fill="#000000"/><text fill="#000000" font-family="sans-serif" font-size="14" lengthAdjust="spacing" textLength="42.0205" x="931.0874" y="151.7285">Mocha</text><line style="stroke:#181818;stroke-width:0.5;" x1="779.5" x2="1092.1953" y1="162" y2="162"/><line style="stroke:#181818;stroke-width:0.5;" x1="779.5" x2="1092.1953" y1="170" y2="170"/><ellipse cx="789.5" cy="184.3047" fill="#84BE84" rx="3" ry="3" style="stroke:#038048;stroke-width:1;"/><text fill="#000000" font-family="sans-serif" font-size="14" lengthAdjust="spacing" textLength="288.6953" x="798.5" y="188.5332">Mocha(headfirst/decorator/starbuzz/Beverage)</text><ellipse cx="789.5" cy="201.9141" fill="#84BE84" rx="3" ry="3" style="stroke:#038048;stroke-width:1;"/><text fill="#000000" font-family="sans-serif" font-size="14" lengthAdjust="spacing" textLength="203.0957" x="798.5" y="206.1426">getDescription(): java/lang/String</text><ellipse cx="789.5" cy="219.5234" fill="#84BE84" rx="3" ry="3" style="stroke:#038048;stroke-width:1;"/><text fill="#000000" font-family="sans-serif" font-size="14" lengthAdjust="spacing" textLength="87.1445" x="798.5" y="223.752">cost(): Double</text></g><!--class Soy--><g id="elem_Soy"><rect codeLine="76" fill="#F1F1F1" height="100.8281" id="Soy" rx="2.5" ry="2.5" style="stroke:#181818;stroke-width:0.5;" width="296.7988" x="428.5" y="130"/><ellipse cx="560.5874" cy="146" fill="#ADD1B2" rx="11" ry="11" style="stroke:#181818;stroke-width:1;"/><path d="M563.353,141.875 Q563.5093,141.6563 563.6968,141.5469 Q563.8843,141.4375 564.103,141.4375 Q564.478,141.4375 564.7124,141.7031 Q564.9468,141.9531 564.9468,142.5625 L564.9468,144.0156 Q564.9468,144.625 564.7124,144.8906 Q564.478,145.1563 564.103,145.1563 Q563.7593,145.1563 563.5562,144.9531 Q563.353,144.7656 563.2437,144.25 Q563.1968,143.8906 563.0093,143.7031 Q562.6812,143.3281 562.0718,143.1094 Q561.4624,142.8906 560.8374,142.8906 Q560.0718,142.8906 559.4312,143.2188 Q558.8062,143.5469 558.3062,144.2969 Q557.8218,145.0469 557.8218,146.0781 L557.8218,147.1719 Q557.8218,148.4063 558.7124,149.2344 Q559.603,150.0469 561.1968,150.0469 Q562.1343,150.0469 562.7905,149.7969 Q563.1812,149.6406 563.603,149.2031 Q563.8687,148.9375 564.0093,148.8594 Q564.1655,148.7813 564.3687,148.7813 Q564.6968,148.7813 564.9468,149.0469 Q565.2124,149.2969 565.2124,149.6406 Q565.2124,149.9844 564.8687,150.3906 Q564.3687,150.9688 563.5718,151.2969 Q562.4937,151.75 561.1968,151.75 Q559.6812,151.75 558.478,151.125 Q557.4937,150.625 556.8062,149.5625 Q556.1187,148.4844 556.1187,147.2031 L556.1187,146.0469 Q556.1187,144.7188 556.728,143.5781 Q557.353,142.4219 558.4468,141.8125 Q559.5405,141.1875 560.7749,141.1875 Q561.5093,141.1875 562.1499,141.3594 Q562.8062,141.5156 563.353,141.875 Z " fill="#000000"/><text fill="#000000" font-family="sans-serif" font-size="14" lengthAdjust="spacing" textLength="24.124" x="581.0874" y="151.7285">Soy</text><line style="stroke:#181818;stroke-width:0.5;" x1="429.5" x2="724.2988" y1="162" y2="162"/><line style="stroke:#181818;stroke-width:0.5;" x1="429.5" x2="724.2988" y1="170" y2="170"/><ellipse cx="439.5" cy="184.3047" fill="#84BE84" rx="3" ry="3" style="stroke:#038048;stroke-width:1;"/><text fill="#000000" font-family="sans-serif" font-size="14" lengthAdjust="spacing" textLength="270.7988" x="448.5" y="188.5332">Soy(headfirst/decorator/starbuzz/Beverage)</text><ellipse cx="439.5" cy="201.9141" fill="#84BE84" rx="3" ry="3" style="stroke:#038048;stroke-width:1;"/><text fill="#000000" font-family="sans-serif" font-size="14" lengthAdjust="spacing" textLength="203.0957" x="448.5" y="206.1426">getDescription(): java/lang/String</text><ellipse cx="439.5" cy="219.5234" fill="#84BE84" rx="3" ry="3" style="stroke:#038048;stroke-width:1;"/><text fill="#000000" font-family="sans-serif" font-size="14" lengthAdjust="spacing" textLength="87.1445" x="448.5" y="223.752">cost(): Double</text></g><!--class StarbuzzCoffee--><g id="elem_StarbuzzCoffee"><rect codeLine="85" fill="#F1F1F1" height="83.2188" id="StarbuzzCoffee" rx="2.5" ry="2.5" style="stroke:#181818;stroke-width:0.5;" width="205.751" x="322" y="294"/><ellipse cx="372.3774" cy="310" fill="#ADD1B2" rx="11" ry="11" style="stroke:#181818;stroke-width:1;"/><path d="M375.1431,305.875 Q375.2993,305.6563 375.4868,305.5469 Q375.6743,305.4375 375.8931,305.4375 Q376.2681,305.4375 376.5024,305.7031 Q376.7368,305.9531 376.7368,306.5625 L376.7368,308.0156 Q376.7368,308.625 376.5024,308.8906 Q376.2681,309.1563 375.8931,309.1563 Q375.5493,309.1563 375.3462,308.9531 Q375.1431,308.7656 375.0337,308.25 Q374.9868,307.8906 374.7993,307.7031 Q374.4712,307.3281 373.8618,307.1094 Q373.2524,306.8906 372.6274,306.8906 Q371.8618,306.8906 371.2212,307.2188 Q370.5962,307.5469 370.0962,308.2969 Q369.6118,309.0469 369.6118,310.0781 L369.6118,311.1719 Q369.6118,312.4063 370.5024,313.2344 Q371.3931,314.0469 372.9868,314.0469 Q373.9243,314.0469 374.5806,313.7969 Q374.9712,313.6406 375.3931,313.2031 Q375.6587,312.9375 375.7993,312.8594 Q375.9556,312.7813 376.1587,312.7813 Q376.4868,312.7813 376.7368,313.0469 Q377.0024,313.2969 377.0024,313.6406 Q377.0024,313.9844 376.6587,314.3906 Q376.1587,314.9688 375.3618,315.2969 Q374.2837,315.75 372.9868,315.75 Q371.4712,315.75 370.2681,315.125 Q369.2837,314.625 368.5962,313.5625 Q367.9087,312.4844 367.9087,311.2031 L367.9087,310.0469 Q367.9087,308.7188 368.5181,307.5781 Q369.1431,306.4219 370.2368,305.8125 Q371.3306,305.1875 372.5649,305.1875 Q373.2993,305.1875 373.9399,305.3594 Q374.5962,305.5156 375.1431,305.875 Z " fill="#000000"/><text fill="#000000" font-family="sans-serif" font-size="14" lengthAdjust="spacing" textLength="96.4961" x="392.8774" y="315.7285">StarbuzzCoffee</text><line style="stroke:#181818;stroke-width:0.5;" x1="323" x2="526.751" y1="326" y2="326"/><line style="stroke:#181818;stroke-width:0.5;" x1="323" x2="526.751" y1="334" y2="334"/><ellipse cx="333" cy="348.3047" fill="#84BE84" rx="3" ry="3" style="stroke:#038048;stroke-width:1;"/><text fill="#000000" font-family="sans-serif" font-size="14" lengthAdjust="spacing" textLength="105.8203" x="342" y="352.5332">StarbuzzCoffee()</text><polygon fill="#4177AF" points="333,361.9141,329,367.9141,337,367.9141" style="stroke:#1963A0;stroke-width:1;"/><text fill="#000000" font-family="sans-serif" font-size="14" lengthAdjust="spacing" text-decoration="underline" textLength="179.751" x="342" y="370.1426">main(java/lang/String[]): Void</text></g><!--class Whip--><g id="elem_Whip"><rect codeLine="92" fill="#F1F1F1" height="100.8281" id="Whip" rx="2.5" ry="2.5" style="stroke:#181818;stroke-width:0.5;" width="304.5713" x="70.5" y="130"/><ellipse cx="202.5874" cy="146" fill="#ADD1B2" rx="11" ry="11" style="stroke:#181818;stroke-width:1;"/><path d="M205.353,141.875 Q205.5093,141.6563 205.6968,141.5469 Q205.8843,141.4375 206.103,141.4375 Q206.478,141.4375 206.7124,141.7031 Q206.9468,141.9531 206.9468,142.5625 L206.9468,144.0156 Q206.9468,144.625 206.7124,144.8906 Q206.478,145.1563 206.103,145.1563 Q205.7593,145.1563 205.5562,144.9531 Q205.353,144.7656 205.2437,144.25 Q205.1968,143.8906 205.0093,143.7031 Q204.6812,143.3281 204.0718,143.1094 Q203.4624,142.8906 202.8374,142.8906 Q202.0718,142.8906 201.4312,143.2188 Q200.8062,143.5469 200.3062,144.2969 Q199.8218,145.0469 199.8218,146.0781 L199.8218,147.1719 Q199.8218,148.4063 200.7124,149.2344 Q201.603,150.0469 203.1968,150.0469 Q204.1343,150.0469 204.7905,149.7969 Q205.1812,149.6406 205.603,149.2031 Q205.8687,148.9375 206.0093,148.8594 Q206.1655,148.7813 206.3687,148.7813 Q206.6968,148.7813 206.9468,149.0469 Q207.2124,149.2969 207.2124,149.6406 Q207.2124,149.9844 206.8687,150.3906 Q206.3687,150.9688 205.5718,151.2969 Q204.4937,151.75 203.1968,151.75 Q201.6812,151.75 200.478,151.125 Q199.4937,150.625 198.8062,149.5625 Q198.1187,148.4844 198.1187,147.2031 L198.1187,146.0469 Q198.1187,144.7188 198.728,143.5781 Q199.353,142.4219 200.4468,141.8125 Q201.5405,141.1875 202.7749,141.1875 Q203.5093,141.1875 204.1499,141.3594 Q204.8062,141.5156 205.353,141.875 Z " fill="#000000"/><text fill="#000000" font-family="sans-serif" font-size="14" lengthAdjust="spacing" textLength="31.8965" x="223.0874" y="151.7285">Whip</text><line style="stroke:#181818;stroke-width:0.5;" x1="71.5" x2="374.0713" y1="162" y2="162"/><line style="stroke:#181818;stroke-width:0.5;" x1="71.5" x2="374.0713" y1="170" y2="170"/><ellipse cx="81.5" cy="184.3047" fill="#84BE84" rx="3" ry="3" style="stroke:#038048;stroke-width:1;"/><text fill="#000000" font-family="sans-serif" font-size="14" lengthAdjust="spacing" textLength="278.5713" x="90.5" y="188.5332">Whip(headfirst/decorator/starbuzz/Beverage)</text><ellipse cx="81.5" cy="201.9141" fill="#84BE84" rx="3" ry="3" style="stroke:#038048;stroke-width:1;"/><text fill="#000000" font-family="sans-serif" font-size="14" lengthAdjust="spacing" textLength="203.0957" x="90.5" y="206.1426">getDescription(): java/lang/String</text><ellipse cx="81.5" cy="219.5234" fill="#84BE84" rx="3" ry="3" style="stroke:#038048;stroke-width:1;"/><text fill="#000000" font-family="sans-serif" font-size="14" lengthAdjust="spacing" textLength="87.1445" x="90.5" y="223.752">cost(): Double</text></g><!--link InputTest to InputTest--><g id="link_InputTest_InputTest"><path codeLine="6" d="M2365.21,165.78 C2385.54,167.47 2400,172.37 2400,180.5 C2400,188.63 2391.5194,193.0329 2371.1894,194.7229 " fill="transparent" id="InputTest-to-InputTest" style="stroke:#181818;stroke-width:1;stroke-dasharray:7.0,7.0;"/><polygon fill="#181818" points="2365.21,195.22,2374.5104,198.4607,2370.1928,194.8058,2373.8477,190.4882,2365.21,195.22" style="stroke:#181818;stroke-width:1;"/></g><!--link LowerCaseInputStream to LowerCaseInputStream--><g id="link_LowerCaseInputStream_LowerCaseInputStream"><path codeLine="13" d="M2105.84,166.82 C2126.63,169.09 2140.5,173.65 2140.5,180.5 C2140.5,187.35 2132.5946,191.2587 2111.8046,193.5287 " fill="transparent" id="LowerCaseInputStream-to-LowerCaseInputStream" style="stroke:#181818;stroke-width:1;stroke-dasharray:7.0,7.0;"/><polygon fill="#181818" points="2105.84,194.18,2115.221,197.1795,2110.8105,193.6373,2114.3527,189.2268,2105.84,194.18" style="stroke:#181818;stroke-width:1;"/></g><!--link Beverage to Beverage--><g id="link_Beverage_Beverage"><path codeLine="21" d="M1076.71,481.47 C1097.19,483.49 1111.5,488.66 1111.5,497 C1111.5,505.34 1103.161,509.9211 1082.681,511.9411 " fill="transparent" id="Beverage-to-Beverage" style="stroke:#181818;stroke-width:1;stroke-dasharray:7.0,7.0;"/><polygon fill="#181818" points="1076.71,512.53,1086.0592,515.6273,1081.6859,512.0392,1085.2739,507.6659,1076.71,512.53" style="stroke:#181818;stroke-width:1;"/></g><!--link CondimentDecorator to Beverage--><g id="link_CondimentDecorator_Beverage"><path codeLine="27" d="M763.81,377.16 C794.6,395.62 816.1335,408.5318 849.7635,428.7018 " fill="transparent" id="CondimentDecorator-to-Beverage" style="stroke:#181818;stroke-width:1;"/><polygon fill="transparent" points="865.2,437.96,852.8496,423.5563,846.6774,433.8473,865.2,437.96" style="stroke:#181818;stroke-width:1;"/><text fill="#000000" font-family="sans-serif" font-size="13" lengthAdjust="spacing" textLength="7.23" x="767.0701" y="398.5803">1</text><text fill="#000000" font-family="sans-serif" font-size="13" lengthAdjust="spacing" textLength="7.23" x="845.9841" y="427.2794">1</text></g><!--link CondimentDecorator to CondimentDecorator--><g id="link_CondimentDecorator_CondimentDecorator"><path codeLine="28" d="M810.71,322.79 C831.19,324.44 845.5,328.68 845.5,335.5 C845.5,342.32 837.1706,346.0782 816.6906,347.7282 " fill="transparent" id="CondimentDecorator-to-CondimentDecorator" style="stroke:#181818;stroke-width:1;stroke-dasharray:7.0,7.0;"/><polygon fill="#181818" points="810.71,348.21,820.0022,351.4743,815.6939,347.8085,819.3597,343.5002,810.71,348.21" style="stroke:#181818;stroke-width:1;"/></g><!--link DarkRoast to Beverage--><g id="link_DarkRoast_Beverage"><path codeLine="34" d="M1614.47,369.75 C1608.68,372.45 1602.79,374.93 1597,377 C1421.39,439.71 1223.9605,469.1774 1094.5605,483.5174 " fill="transparent" id="DarkRoast-to-Beverage" style="stroke:#181818;stroke-width:1;"/><polygon fill="transparent" points="1076.67,485.5,1095.2213,489.4809,1093.8996,477.5539,1076.67,485.5" style="stroke:#181818;stroke-width:1;"/><text fill="#000000" font-family="sans-serif" font-size="13" lengthAdjust="spacing" textLength="7.23" x="1599.4092" y="370.7814">1</text><text fill="#000000" font-family="sans-serif" font-size="13" lengthAdjust="spacing" textLength="7.23" x="1084.6141" y="498.7571">1</text></g><!--link DarkRoast to DarkRoast--><g id="link_DarkRoast_DarkRoast"><path codeLine="35" d="M1727.74,322 C1747.01,321.93 1762.5,326.43 1762.5,335.5 C1762.5,344.57 1753.01,349.0918 1733.74,349.0218 " fill="transparent" id="DarkRoast-to-DarkRoast" style="stroke:#181818;stroke-width:1;stroke-dasharray:7.0,7.0;"/><polygon fill="#181818" points="1727.74,349,1736.7254,353.0327,1732.74,349.0182,1736.7545,345.0327,1727.74,349" style="stroke:#181818;stroke-width:1;"/></g><!--link Decaf to Beverage--><g id="link_Decaf_Beverage"><path codeLine="41" d="M1448.32,369.37 C1442.56,372.15 1436.72,374.75 1431,377 C1313.93,423.03 1190.9878,452.3869 1094.4578,471.7669 " fill="transparent" id="Decaf-to-Beverage" style="stroke:#181818;stroke-width:1;"/><polygon fill="transparent" points="1076.81,475.31,1095.6389,477.6495,1093.2768,465.8843,1076.81,475.31" style="stroke:#181818;stroke-width:1;"/><text fill="#000000" font-family="sans-serif" font-size="13" lengthAdjust="spacing" textLength="7.23" x="1433.2391" y="370.3503">1</text><text fill="#000000" font-family="sans-serif" font-size="13" lengthAdjust="spacing" textLength="7.23" x="1084.7635" y="470.8074">1</text></g><!--link Decaf to Decaf--><g id="link_Decaf_Decaf"><path codeLine="42" d="M1561.74,322 C1581.01,321.93 1596.5,326.43 1596.5,335.5 C1596.5,344.57 1587.01,349.0918 1567.74,349.0218 " fill="transparent" id="Decaf-to-Decaf" style="stroke:#181818;stroke-width:1;stroke-dasharray:7.0,7.0;"/><polygon fill="#181818" points="1561.74,349,1570.7254,353.0327,1566.74,349.0182,1570.7545,345.0327,1561.74,349" style="stroke:#181818;stroke-width:1;"/></g><!--link Espresso to Beverage--><g id="link_Espresso_Beverage"><path codeLine="48" d="M1282.41,368.41 C1276.58,371.42 1270.7,374.33 1265,377 C1203.95,405.55 1150.8801,426.9995 1093.6001,448.5195 " fill="transparent" id="Espresso-to-Beverage" style="stroke:#181818;stroke-width:1;"/><polygon fill="transparent" points="1076.75,454.85,1095.7102,454.1361,1091.4899,442.9028,1076.75,454.85" style="stroke:#181818;stroke-width:1;"/><text fill="#000000" font-family="sans-serif" font-size="13" lengthAdjust="spacing" textLength="7.23" x="1267.3411" y="369.2613">1</text><text fill="#000000" font-family="sans-serif" font-size="13" lengthAdjust="spacing" textLength="7.23" x="1084.6994" y="448.9728">1</text></g><!--link Espresso to Espresso--><g id="link_Espresso_Espresso"><path codeLine="49" d="M1395.74,322 C1415.01,321.93 1430.5,326.43 1430.5,335.5 C1430.5,344.57 1421.01,349.0918 1401.74,349.0218 " fill="transparent" id="Espresso-to-Espresso" style="stroke:#181818;stroke-width:1;stroke-dasharray:7.0,7.0;"/><polygon fill="#181818" points="1395.74,349,1404.7254,353.0327,1400.74,349.0182,1404.7545,345.0327,1395.74,349" style="stroke:#181818;stroke-width:1;"/></g><!--link HouseBlend to Beverage--><g id="link_HouseBlend_Beverage"><path codeLine="55" d="M1119.21,377.16 C1094.79,395.62 1079.8186,406.935 1053.1386,427.105 " fill="transparent" id="HouseBlend-to-Beverage" style="stroke:#181818;stroke-width:1;"/><polygon fill="transparent" points="1038.78,437.96,1056.7569,431.8912,1049.5202,422.3188,1038.78,437.96" style="stroke:#181818;stroke-width:1;"/><text fill="#000000" font-family="sans-serif" font-size="13" lengthAdjust="spacing" textLength="7.23" x="1103.0862" y="398.5803">1</text><text fill="#000000" font-family="sans-serif" font-size="13" lengthAdjust="spacing" textLength="7.23" x="1040.7192" y="427.2794">1</text></g><!--link HouseBlend to HouseBlend--><g id="link_HouseBlend_HouseBlend"><path codeLine="56" d="M1229.74,322 C1249.01,321.93 1264.5,326.43 1264.5,335.5 C1264.5,344.57 1255.01,349.0918 1235.74,349.0218 " fill="transparent" id="HouseBlend-to-HouseBlend" style="stroke:#181818;stroke-width:1;stroke-dasharray:7.0,7.0;"/><polygon fill="#181818" points="1229.74,349,1238.7254,353.0327,1234.74,349.0182,1238.7545,345.0327,1229.74,349" style="stroke:#181818;stroke-width:1;"/></g><!--link Milk to CondimentDecorator--><g id="link_Milk_CondimentDecorator"><path codeLine="63" d="M1198.63,231.02 C1176.26,240.5 1152.22,249.25 1129,255 C1080.13,267.1 1065.92,256.42 1016,263 C944.19,272.46 926.69,278.22 856,294 C841.32,297.28 843.416,296.6392 828.226,300.3492 " fill="transparent" id="Milk-to-CondimentDecorator" style="stroke:#181818;stroke-width:1;"/><polygon fill="transparent" points="810.74,304.62,829.6496,306.1779,826.8024,294.5206,810.74,304.62" style="stroke:#181818;stroke-width:1;"/><text fill="#000000" font-family="sans-serif" font-size="13" lengthAdjust="spacing" textLength="7.23" x="1178.1208" y="252.4139">1</text><text fill="#000000" font-family="sans-serif" font-size="13" lengthAdjust="spacing" textLength="7.23" x="818.6888" y="299.5073">1</text></g><!--link Milk to Beverage--><g id="link_Milk_Beverage"><path codeLine="64" d="M1183.38,231.03 C1116.52,260.52 1044.43,292.52 1043,294 C1004.85,333.59 985.3441,387.6064 974.3641,431.8864 " fill="transparent" id="Milk-to-Beverage" style="stroke:#181818;stroke-width:1;"/><polygon fill="#181818" points="972.92,437.71,978.9685,429.9373,974.1234,432.857,971.2037,428.0118,972.92,437.71" style="stroke:#181818;stroke-width:1;"/><text fill="#000000" font-family="sans-serif" font-size="13" lengthAdjust="spacing" textLength="54.209" x="1044" y="340.9951">beverage</text><text fill="#000000" font-family="sans-serif" font-size="13" lengthAdjust="spacing" textLength="7.23" x="1160.8215" y="252.4253">1</text><text fill="#000000" font-family="sans-serif" font-size="13" lengthAdjust="spacing" textLength="7.23" x="966.8325" y="426.9989">1</text></g><!--link Milk to Milk--><g id="link_Milk_Milk"><path codeLine="65" d="M1445.08,166.74 C1466,168.99 1480,173.57 1480,180.5 C1480,187.43 1471.9656,191.3684 1451.0456,193.6184 " fill="transparent" id="Milk-to-Milk" style="stroke:#181818;stroke-width:1;stroke-dasharray:7.0,7.0;"/><polygon fill="#181818" points="1445.08,194.26,1454.4561,197.2746,1450.0513,193.7253,1453.6006,189.3205,1445.08,194.26" style="stroke:#181818;stroke-width:1;"/></g><!--link Mocha to CondimentDecorator--><g id="link_Mocha_CondimentDecorator"><path codeLine="72" d="M841.44,231.19 C823.74,241.26 805.59,252.11 789,263 C774.7,272.39 774.047,272.3479 760.437,282.7979 " fill="transparent" id="Mocha-to-CondimentDecorator" style="stroke:#181818;stroke-width:1;"/><polygon fill="transparent" points="746.16,293.76,764.091,287.5569,756.7829,278.0389,746.16,293.76" style="stroke:#181818;stroke-width:1;"/><text fill="#000000" font-family="sans-serif" font-size="13" lengthAdjust="spacing" textLength="7.23" x="821.9103" y="252.2383">1</text><text fill="#000000" font-family="sans-serif" font-size="13" lengthAdjust="spacing" textLength="7.23" x="746.8992" y="283.0279">1</text></g><!--link Mocha to Beverage--><g id="link_Mocha_Beverage"><path codeLine="73" d="M928.08,231.17 C923.04,270.84 918.71,327.75 926,377 C928.99,397.18 932.8745,412.9449 938.8645,432.0449 " fill="transparent" id="Mocha-to-Beverage" style="stroke:#181818;stroke-width:1;"/><polygon fill="#181818" points="940.66,437.77,941.7835,427.9854,939.1638,432.9991,934.1501,430.3794,940.66,437.77" style="stroke:#181818;stroke-width:1;"/><text fill="#000000" font-family="sans-serif" font-size="13" lengthAdjust="spacing" textLength="54.209" x="927" y="340.9951">beverage</text><text fill="#000000" font-family="sans-serif" font-size="13" lengthAdjust="spacing" textLength="7.23" x="919.6511" y="252.2157">1</text><text fill="#000000" font-family="sans-serif" font-size="13" lengthAdjust="spacing" textLength="7.23" x="930.6408" y="427.0662">1</text></g><!--link Mocha to Mocha--><g id="link_Mocha_Mocha"><path codeLine="74" d="M1093.85,166.94 C1114.68,169.25 1128.5,173.77 1128.5,180.5 C1128.5,187.23 1120.6434,191.0887 1099.8134,193.3987 " fill="transparent" id="Mocha-to-Mocha" style="stroke:#181818;stroke-width:1;stroke-dasharray:7.0,7.0;"/><polygon fill="#181818" points="1093.85,194.06,1103.2361,197.0436,1098.8195,193.5089,1102.3543,189.0924,1093.85,194.06" style="stroke:#181818;stroke-width:1;"/></g><!--link Soy to CondimentDecorator--><g id="link_Soy_CondimentDecorator"><path codeLine="81" d="M615.64,231.17 C631.38,251.42 638.3121,260.3193 653.2621,279.5493 " fill="transparent" id="Soy-to-CondimentDecorator" style="stroke:#181818;stroke-width:1;"/><polygon fill="transparent" points="664.31,293.76,657.999,275.8667,648.5252,283.2319,664.31,293.76" style="stroke:#181818;stroke-width:1;"/><text fill="#000000" font-family="sans-serif" font-size="13" lengthAdjust="spacing" textLength="7.23" x="613.1699" y="252.2157">1</text><text fill="#000000" font-family="sans-serif" font-size="13" lengthAdjust="spacing" textLength="7.23" x="651.4928" y="283.0279">1</text></g><!--link Soy to Beverage--><g id="link_Soy_Beverage"><path codeLine="82" d="M472.76,231.07 C452.53,239.72 431.3,248.13 411,255 C340.86,278.75 294.83,235.83 249,294 C226.17,322.98 225.16,348.85 249,377 C324.33,465.94 659.7229,488.2728 841.4129,493.9428 " fill="transparent" id="Soy-to-Beverage" style="stroke:#181818;stroke-width:1;"/><polygon fill="#181818" points="847.41,494.13,838.5391,489.8512,842.4124,493.974,838.2896,497.8473,847.41,494.13" style="stroke:#181818;stroke-width:1;"/><text fill="#000000" font-family="sans-serif" font-size="13" lengthAdjust="spacing" textLength="54.209" x="250" y="340.9951">beverage</text><text fill="#000000" font-family="sans-serif" font-size="13" lengthAdjust="spacing" textLength="7.23" x="451.3114" y="252.4706">1</text><text fill="#000000" font-family="sans-serif" font-size="13" lengthAdjust="spacing" textLength="7.23" x="832.1115" y="490.8578">1</text></g><!--link Soy to Soy--><g id="link_Soy_Soy"><path codeLine="83" d="M725.68,166.74 C746.53,168.99 760.5,173.57 760.5,180.5 C760.5,187.43 752.4954,191.3663 731.6454,193.6163 " fill="transparent" id="Soy-to-Soy" style="stroke:#181818;stroke-width:1;stroke-dasharray:7.0,7.0;"/><polygon fill="#181818" points="725.68,194.26,735.0572,197.2713,730.6511,193.7235,734.1989,189.3175,725.68,194.26" style="stroke:#181818;stroke-width:1;"/></g><!--link StarbuzzCoffee to StarbuzzCoffee--><g id="link_StarbuzzCoffee_StarbuzzCoffee"><path codeLine="89" d="M528.21,322.58 C548.54,324.06 563,328.36 563,335.5 C563,342.64 554.5242,346.5044 534.1942,347.9844 " fill="transparent" id="StarbuzzCoffee-to-StarbuzzCoffee" style="stroke:#181818;stroke-width:1;stroke-dasharray:7.0,7.0;"/><polygon fill="#181818" points="528.21,348.42,537.4767,351.756,533.1968,348.057,536.8958,343.7771,528.21,348.42" style="stroke:#181818;stroke-width:1;"/></g><!--link StarbuzzCoffee to Beverage--><g id="link_StarbuzzCoffee_Beverage"><path codeLine="90" d="M528.22,367.16 C619.62,394.31 747.0885,432.1612 841.7385,460.2812 " fill="transparent" id="StarbuzzCoffee-to-Beverage" style="stroke:#181818;stroke-width:1;stroke-dasharray:7.0,7.0;"/><polygon fill="#181818" points="847.49,461.99,840.0019,455.5925,842.6971,460.566,837.7235,463.2612,847.49,461.99" style="stroke:#181818;stroke-width:1;"/></g><!--link Whip to CondimentDecorator--><g id="link_Whip_CondimentDecorator"><path codeLine="97" d="M343.32,231.07 C365.64,239.54 388.9,247.89 411,255 C477.81,276.48 496.44,275.04 564,294 C569.65,295.59 558.1597,292.2011 563.9897,293.9011 " fill="transparent" id="Whip-to-CondimentDecorator" style="stroke:#181818;stroke-width:1;"/><polygon fill="transparent" points="581.27,298.94,565.6693,288.141,562.31,299.6612,581.27,298.94" style="stroke:#181818;stroke-width:1;"/><text fill="#000000" font-family="sans-serif" font-size="13" lengthAdjust="spacing" textLength="7.23" x="352.0619" y="252.4706">1</text><text fill="#000000" font-family="sans-serif" font-size="13" lengthAdjust="spacing" textLength="7.23" x="566.3309" y="293.4457">1</text></g><!--link Whip to Beverage--><g id="link_Whip_Beverage"><path codeLine="98" d="M186.39,231.39 C160.09,273.84 134.52,334.5 167,377 C207.81,430.39 631.3289,470.3336 841.4789,487.0736 " fill="transparent" id="Whip-to-Beverage" style="stroke:#181818;stroke-width:1;"/><polygon fill="#181818" points="847.46,487.55,838.806,482.848,842.4758,487.153,838.1708,490.8227,847.46,487.55" style="stroke:#181818;stroke-width:1;"/><text fill="#000000" font-family="sans-serif" font-size="13" lengthAdjust="spacing" textLength="54.209" x="168" y="340.9951">beverage</text><text fill="#000000" font-family="sans-serif" font-size="13" lengthAdjust="spacing" textLength="7.23" x="174.2931" y="252.4639">1</text><text fill="#000000" font-family="sans-serif" font-size="13" lengthAdjust="spacing" textLength="7.23" x="832.165" y="500.9401">1</text></g><!--link Whip to Whip--><g id="link_Whip_Whip"><path codeLine="99" d="M375.66,166.82 C396.56,169.09 410.5,173.65 410.5,180.5 C410.5,187.35 402.5249,191.2621 381.6249,193.5321 " fill="transparent" id="Whip-to-Whip" style="stroke:#181818;stroke-width:1;stroke-dasharray:7.0,7.0;"/><polygon fill="#181818" points="375.66,194.18,385.0393,197.1848,380.6308,193.6401,384.1755,189.2316,375.66,194.18" style="stroke:#181818;stroke-width:1;"/></g><!--SRC=[nPVDRzem6CRl_YkidgXO4-tAeGTWqYfjbtNQ3bKFnda1ho56jkdKikvld_r2Fheas469k83jF7xo_jx7uOEdJ6kw1fOiXT8cIe1BnOnKaP3HNRRTcU-W3TqJEYvcesj2zzem8_WR_RjX8XlzOiyiJbcsYk-D4jdguV5wGdz8aP0tuZMFebjl1OJmKvL-aRz1pPW6t61h0BR1efik7AeLCgwiMQInVKz6jkwxpEIpwOk1XySFRWbVZbTReHhhEC7Nf2U4BRHHZ1lQpcpRhnQxrzTe2i-Ws0eSRGAQAx4rGcOJ-dya5YdNkW37Ap3pKk-uwplsUIKsPovTyXCwbxj52Yqjg9VL1bzJTiEUoImH6yWim_4QnbrVniDQmGZ0zg0rtFhgunMzkVbpYuCmsgwtyFQnlkVKCrDicpFrz4soupDUpF28T8kyTEgx7QMpjmk5D0mUE5iUmDte76Xqw1qONVsmJXO4-abl5MWjaJMVd85R-FHDN1XxeNDb4FTdkTCmJI5BaBoSdi5UyUgRlcBjvI-rGHtuAj8dP7U3KI6D2scSI-Eyrj1lXuxzmqh2EzVmUHPgto4NEg6Be8ZGtXkEKuN58lcQ7N9neyi6WxKCc4p5Vv1eqD-VZPC5XNClNp0Q-txHO5mTmyLIkWyHYdFtHc95OO4S1pEvN08SidctrCDVahQR-I7UwVlrBdyS1tJfvrfiiJTkSD63YvKCTt8hzaCSNRJtHkDKv1y0]--></g></svg>